  0
SECTION
  2
HEADER
  9
$ANGBASE
  50
0.0
  9
$ANGDIR
  70
1
  9
$MEASUREMENT
  70
0
  0
ENDSEC
  0
SECTION
  2
TABLES
  0
TABLE
  2
LTYPE
  70
4
  0
LTYPE
  5
40F
  2
CONTINUOUS
  70
0
  3
Solid line
  72
65
  73
0
  40
0.0
  0
LTYPE
  5
410
  2
DASHDOT
 70
0
  3
Dash Dot ____ _ ____ _
 72
65
 73
4
 40
2.0
 49
1.25
 49
-0.25
 49
0.25
 49
-0.25
  0
LTYPE
  5
411
  2
DASHED
 70
0
  3
Dashed __ __ __ __ __
 72
65
 73
2
 40
0.75
 49
0.5
 49
-0.25
  0
LTYPE
  5
43B
  2
DOTTED
 70
0
  3
Dotted .  .  .  .
 72
65
 73
2
 40
0.2
 49
0.0
 49
-0.2
  0
ENDTAB
  0
TABLE
  2
STYLE
  70
4
  0
STYLE
  2
KICAD
  70
0
  40
0
  41
1
  42
1
  50
0
  71
0
  3
isocp.shx
  0
STYLE
  2
KICADB
  70
0
  40
0
  41
1
  42
1
  50
0
  71
0
  3
isocp.shx
  0
STYLE
  2
KICADI
  70
0
  40
0
  41
1
  42
1
  50
15
  71
0
  3
isocp.shx
  0
STYLE
  2
KICADBI
  70
0
  40
0
  41
1
  42
1
  50
15
  71
0
  3
isocp.shx
  0
ENDTAB
  0
TABLE
  2
LAYER
  70
1
  0
LAYER
  2
BLACK
  70
0
  62
7
  6
CONTINUOUS
  0
ENDTAB
  0
ENDSEC
  0
SECTION
  2
ENTITIES
0
LINE
8
BLACK
6
CONTINUOUS
10
6.1579357086614168
20
-3.9770434251968503
11
6.1584683858267715
21
-3.9775761023622045
0
LINE
8
BLACK
6
CONTINUOUS
10
6.1584683858267715
20
-3.9775761023622045
11
6.1585433070866138
21
-4.0354330708661417
0
LINE
8
BLACK
6
CONTINUOUS
10
6.1585433070866138
20
-4.0354330708661417
11
6.1584683858267715
21
-4.0358097244094484
0
LINE
8
BLACK
6
CONTINUOUS
10
6.1584683858267715
20
-4.0358097244094484
11
6.1579357086614168
21
-4.0363424015748031
0
LINE
8
BLACK
6
CONTINUOUS
10
6.1579357086614168
20
-4.0363424015748031
11
6.041095866141732
21
-4.0364172440944879
0
LINE
8
BLACK
6
CONTINUOUS
10
6.041095866141732
20
-4.0364172440944879
11
6.0411111811023623
21
-4.0670431102362201
0
LINE
8
BLACK
6
CONTINUOUS
10
6.0411111811023623
20
-4.0670431102362201
11
6.1575590551181101
21
-4.0669685039370078
0
LINE
8
BLACK
6
CONTINUOUS
10
6.1575590551181101
20
-4.0669685039370078
11
6.1579357086614168
21
-4.0670434251968501
0
LINE
8
BLACK
6
CONTINUOUS
10
6.1579357086614168
20
-4.0670434251968501
11
6.1584683858267715
21
-4.0675761023622048
0
LINE
8
BLACK
6
CONTINUOUS
10
6.1584683858267715
20
-4.0675761023622048
11
6.1585433070866138
21
-4.1254330708661415
0
LINE
8
BLACK
6
CONTINUOUS
10
6.1585433070866138
20
-4.1254330708661415
11
6.1584683858267715
21
-4.1258097244094492
0
LINE
8
BLACK
6
CONTINUOUS
10
6.1584683858267715
20
-4.1258097244094492
11
6.1579357086614168
21
-4.1263424015748029
0
LINE
8
BLACK
6
CONTINUOUS
10
6.1579357086614168
20
-4.1263424015748029
11
6.0411408267716533
21
-4.1264172440944877
0
LINE
8
BLACK
6
CONTINUOUS
10
6.0411408267716533
20
-4.1264172440944877
11
6.0411417322834646
21
-4.1281889763779525
0
LINE
8
BLACK
6
CONTINUOUS
10
6.0411417322834646
20
-4.1281889763779525
11
6.0410668110236223
21
-4.1285656299212601
0
LINE
8
BLACK
6
CONTINUOUS
10
6.0410668110236223
20
-4.1285656299212601
11
6.0405341338582677
21
-4.1290983070866139
0
LINE
8
BLACK
6
CONTINUOUS
10
6.0405341338582677
20
-4.1290983070866139
11
5.8984251968503933
21
-4.1291732283464562
0
LINE
8
BLACK
6
CONTINUOUS
10
5.8984251968503933
20
-4.1291732283464562
11
5.8980485433070866
21
-4.1290983070866139
0
LINE
8
BLACK
6
CONTINUOUS
10
5.8980485433070866
20
-4.1290983070866139
11
5.897515866141732
21
-4.1285656299212601
0
LINE
8
BLACK
6
CONTINUOUS
10
5.897515866141732
20
-4.1285656299212601
11
5.8974409448818896
21
-3.9785826771653543
0
LINE
8
BLACK
6
CONTINUOUS
10
5.8974409448818896
20
-3.9785826771653543
11
5.897515866141732
21
-3.9782060236220471
0
LINE
8
BLACK
6
CONTINUOUS
10
5.897515866141732
20
-3.9782060236220471
11
5.8980485433070866
21
-3.9776733464566929
0
LINE
8
BLACK
6
CONTINUOUS
10
5.8980485433070866
20
-3.9776733464566929
11
6.0401098425196853
21
-3.9775984251968501
0
LINE
8
BLACK
6
CONTINUOUS
10
6.0401098425196853
20
-3.9775984251968501
11
6.0401142913385826
21
-3.9775761023622045
0
LINE
8
BLACK
6
CONTINUOUS
10
6.0401142913385826
20
-3.9775761023622045
11
6.0406469685039372
21
-3.9770434251968503
0
LINE
8
BLACK
6
CONTINUOUS
10
6.0406469685039372
20
-3.9770434251968503
11
6.1575590551181101
21
-3.976968503937008
0
LINE
8
BLACK
6
CONTINUOUS
10
6.1575590551181101
20
-3.976968503937008
11
6.1579357086614168
21
-3.9770434251968503
0
LINE
8
BLACK
6
CONTINUOUS
10
5.8993351968503935
20
-3.9795664173228347
11
5.8994089763779529
21
-4.1272788976377948
0
LINE
8
BLACK
6
CONTINUOUS
10
5.8994089763779529
20
-4.1272788976377948
11
6.039247440944882
21
-4.1272051968503938
0
LINE
8
BLACK
6
CONTINUOUS
10
6.039247440944882
20
-4.1272051968503938
11
6.0391736614173226
21
-3.9794927165354328
0
LINE
8
BLACK
6
CONTINUOUS
10
6.0391736614173226
20
-3.9794927165354328
11
5.8993351968503935
21
-3.9795664173228347
0
LINE
8
BLACK
6
CONTINUOUS
10
6.0419346850393696
20
-4.0689364173228348
11
6.042006692913386
21
-4.1245228346456688
0
LINE
8
BLACK
6
CONTINUOUS
10
6.042006692913386
20
-4.1245228346456688
11
6.1566479527559057
21
-4.1244493700787404
0
LINE
8
BLACK
6
CONTINUOUS
10
6.1566479527559057
20
-4.1244493700787404
11
6.1565759448818893
21
-4.0688629527559055
0
LINE
8
BLACK
6
CONTINUOUS
10
6.1565759448818893
20
-4.0688629527559055
11
6.0419346850393696
21
-4.0689364173228348
0
LINE
8
BLACK
6
CONTINUOUS
10
6.0419346850393696
20
-3.9789364173228345
11
6.042006692913386
21
-4.034522834645669
0
LINE
8
BLACK
6
CONTINUOUS
10
6.042006692913386
20
-4.034522834645669
11
6.1566479527559057
21
-4.0344493700787405
0
LINE
8
BLACK
6
CONTINUOUS
10
6.1566479527559057
20
-4.0344493700787405
11
6.1565759448818893
21
-3.9788629527559056
0
LINE
8
BLACK
6
CONTINUOUS
10
6.1565759448818893
20
-3.9788629527559056
11
6.0419346850393696
21
-3.9789364173228345
0
LINE
8
BLACK
6
CONTINUOUS
10
6.4302979133858269
20
-4.0679883070866145
11
6.4308305905511807
21
-4.0685209842519683
0
LINE
8
BLACK
6
CONTINUOUS
10
6.4308305905511807
20
-4.0685209842519683
11
6.4309055118110239
21
-4.126377952755905
0
LINE
8
BLACK
6
CONTINUOUS
10
6.4309055118110239
20
-4.126377952755905
11
6.4308305905511807
21
-4.1267546062992126
0
LINE
8
BLACK
6
CONTINUOUS
10
6.4308305905511807
20
-4.1267546062992126
11
6.4302979133858269
21
-4.1272872834645664
0
LINE
8
BLACK
6
CONTINUOUS
10
6.4302979133858269
20
-4.1272872834645664
11
6.3133858267716532
21
-4.1273622047244096
0
LINE
8
BLACK
6
CONTINUOUS
10
6.3133858267716532
20
-4.1273622047244096
11
6.3130091732283464
21
-4.1272872834645664
0
LINE
8
BLACK
6
CONTINUOUS
10
6.3130091732283464
20
-4.1272872834645664
11
6.3124764960629918
21
-4.1267546062992126
0
LINE
8
BLACK
6
CONTINUOUS
10
6.3124764960629918
20
-4.1267546062992126
11
6.3124015748031495
21
-4.0688976377952759
0
LINE
8
BLACK
6
CONTINUOUS
10
6.3124015748031495
20
-4.0688976377952759
11
6.3124764960629918
21
-4.0685209842519683
0
LINE
8
BLACK
6
CONTINUOUS
10
6.3124764960629918
20
-4.0685209842519683
11
6.3130091732283464
21
-4.0679883070866145
0
LINE
8
BLACK
6
CONTINUOUS
10
6.3130091732283464
20
-4.0679883070866145
11
6.4299212598425193
21
-4.0679133858267713
0
LINE
8
BLACK
6
CONTINUOUS
10
6.4299212598425193
20
-4.0679133858267713
11
6.4302979133858269
21
-4.0679883070866145
0
LINE
8
BLACK
6
CONTINUOUS
10
6.3142968897637797
20
-4.0698812992125983
11
6.3143688976377952
21
-4.1254677165354332
0
LINE
8
BLACK
6
CONTINUOUS
10
6.3143688976377952
20
-4.1254677165354332
11
6.4290101574803149
21
-4.1253942519685038
0
LINE
8
BLACK
6
CONTINUOUS
10
6.4290101574803149
20
-4.1253942519685038
11
6.4289381496062994
21
-4.069807834645669
0
LINE
8
BLACK
6
CONTINUOUS
10
6.4289381496062994
20
-4.069807834645669
11
6.3142968897637797
21
-4.0698812992125983
0
LINE
8
BLACK
6
CONTINUOUS
10
6.3051010629921258
20
-3.9746812204724407
11
6.3056337401574805
21
-3.9752138976377953
0
LINE
8
BLACK
6
CONTINUOUS
10
6.3056337401574805
20
-3.9752138976377953
11
6.3057086614173228
21
-4.1251968503937011
0
LINE
8
BLACK
6
CONTINUOUS
10
6.3057086614173228
20
-4.1251968503937011
11
6.3056337401574805
21
-4.1255735039370078
0
LINE
8
BLACK
6
CONTINUOUS
10
6.3056337401574805
20
-4.1255735039370078
11
6.3051010629921258
21
-4.1261061811023625
0
LINE
8
BLACK
6
CONTINUOUS
10
6.3051010629921258
20
-4.1261061811023625
11
6.1629921259842515
21
-4.1261811023622048
0
LINE
8
BLACK
6
CONTINUOUS
10
6.1629921259842515
20
-4.1261811023622048
11
6.1626154724409448
21
-4.1261061811023625
0
LINE
8
BLACK
6
CONTINUOUS
10
6.1626154724409448
20
-4.1261061811023625
11
6.1620827952755901
21
-4.1255735039370078
0
LINE
8
BLACK
6
CONTINUOUS
10
6.1620827952755901
20
-4.1255735039370078
11
6.1620078740157478
21
-3.9755905511811021
0
LINE
8
BLACK
6
CONTINUOUS
10
6.1620078740157478
20
-3.9755905511811021
11
6.1620827952755901
21
-3.9752138976377953
0
LINE
8
BLACK
6
CONTINUOUS
10
6.1620827952755901
20
-3.9752138976377953
11
6.1626154724409448
21
-3.9746812204724407
0
LINE
8
BLACK
6
CONTINUOUS
10
6.1626154724409448
20
-3.9746812204724407
11
6.3047244094488191
21
-3.9746062992125983
0
LINE
8
BLACK
6
CONTINUOUS
10
6.3047244094488191
20
-3.9746062992125983
11
6.3051010629921258
21
-3.9746812204724407
0
LINE
8
BLACK
6
CONTINUOUS
10
6.1639021259842517
20
-3.9765742913385824
11
6.1639759055118111
21
-4.1242867716535434
0
LINE
8
BLACK
6
CONTINUOUS
10
6.1639759055118111
20
-4.1242867716535434
11
6.3038143700787401
21
-4.1242130708661415
0
LINE
8
BLACK
6
CONTINUOUS
10
6.3038143700787401
20
-4.1242130708661415
11
6.3037405905511807
21
-3.976500590551181
0
LINE
8
BLACK
6
CONTINUOUS
10
6.3037405905511807
20
-3.976500590551181
11
6.1639021259842517
21
-3.9765742913385824
0
LINE
8
BLACK
6
CONTINUOUS
10
7.0201404330708659
20
-3.5927914566929133
11
7.0206731102362205
21
-3.5933241338582675
0
LINE
8
BLACK
6
CONTINUOUS
10
7.0206731102362205
20
-3.5933241338582675
11
7.0207480314960629
21
-4.1133858267716539
0
LINE
8
BLACK
6
CONTINUOUS
10
7.0207480314960629
20
-4.1133858267716539
11
7.0206731102362205
21
-4.1137624803149606
0
LINE
8
BLACK
6
CONTINUOUS
10
7.0206731102362205
20
-4.1137624803149606
11
7.0201404330708659
21
-4.1142951574803153
0
LINE
8
BLACK
6
CONTINUOUS
10
7.0201404330708659
20
-4.1142951574803153
11
6.7677952755905508
21
-4.1143700787401576
0
LINE
8
BLACK
6
CONTINUOUS
10
6.7677952755905508
20
-4.1143700787401576
11
6.7674186220472441
21
-4.1142951574803153
0
LINE
8
BLACK
6
CONTINUOUS
10
6.7674186220472441
20
-4.1142951574803153
11
6.7668859448818894
21
-4.1137624803149606
0
LINE
8
BLACK
6
CONTINUOUS
10
6.7668859448818894
20
-4.1137624803149606
11
6.7668110236220471
21
-3.5937007874015747
0
LINE
8
BLACK
6
CONTINUOUS
10
6.7668110236220471
20
-3.5937007874015747
11
6.7668859448818894
21
-3.5933241338582675
0
LINE
8
BLACK
6
CONTINUOUS
10
6.7668859448818894
20
-3.5933241338582675
11
6.7674186220472441
21
-3.5927914566929133
0
LINE
8
BLACK
6
CONTINUOUS
10
6.7674186220472441
20
-3.5927914566929133
11
7.0197637795275591
21
-3.5927165354330706
0
LINE
8
BLACK
6
CONTINUOUS
10
7.0197637795275591
20
-3.5927165354330706
11
7.0201404330708659
21
-3.5927914566929133
0
LINE
8
BLACK
6
CONTINUOUS
10
6.7687047637795272
20
-3.5946847637795276
11
6.7687793700787404
21
-4.1124760629921262
0
LINE
8
BLACK
6
CONTINUOUS
10
6.7687793700787404
20
-4.1124760629921262
11
7.018854251968504
21
-4.1124018110236218
0
LINE
8
BLACK
6
CONTINUOUS
10
7.018854251968504
20
-4.1124018110236218
11
7.0187796456692908
21
-3.5946105118110236
0
LINE
8
BLACK
6
CONTINUOUS
10
7.0187796456692908
20
-3.5946105118110236
11
6.7687047637795272
21
-3.5946847637795276
0
LINE
8
BLACK
6
CONTINUOUS
10
6.7480144488188971
20
-4.0179883070866138
11
6.7485471259842518
21
-4.0185209842519685
0
LINE
8
BLACK
6
CONTINUOUS
10
6.7485471259842518
20
-4.0185209842519685
11
6.7486220472440941
21
-4.1055118110236224
0
LINE
8
BLACK
6
CONTINUOUS
10
6.7486220472440941
20
-4.1055118110236224
11
6.7485471259842518
21
-4.1058884645669291
0
LINE
8
BLACK
6
CONTINUOUS
10
6.7485471259842518
20
-4.1058884645669291
11
6.7480144488188971
21
-4.1064211417322838
0
LINE
8
BLACK
6
CONTINUOUS
10
6.7480144488188971
20
-4.1064211417322838
11
6.5389763779527561
21
-4.1064960629921261
0
LINE
8
BLACK
6
CONTINUOUS
10
6.5389763779527561
20
-4.1064960629921261
11
6.5385997244094485
21
-4.1064211417322838
0
LINE
8
BLACK
6
CONTINUOUS
10
6.5385997244094485
20
-4.1064211417322838
11
6.5380670472440947
21
-4.1058884645669291
0
LINE
8
BLACK
6
CONTINUOUS
10
6.5380670472440947
20
-4.1058884645669291
11
6.5379921259842515
21
-4.0188976377952752
0
LINE
8
BLACK
6
CONTINUOUS
10
6.5379921259842515
20
-4.0188976377952752
11
6.5380670472440947
21
-4.0185209842519685
0
LINE
8
BLACK
6
CONTINUOUS
10
6.5380670472440947
20
-4.0185209842519685
11
6.5385997244094485
21
-4.0179883070866138
0
LINE
8
BLACK
6
CONTINUOUS
10
6.5385997244094485
20
-4.0179883070866138
11
6.7476377952755904
21
-4.0179133858267715
0
LINE
8
BLACK
6
CONTINUOUS
10
6.7476377952755904
20
-4.0179133858267715
11
6.7480144488188971
21
-4.0179883070866138
0
LINE
8
BLACK
6
CONTINUOUS
10
6.5398868503937004
20
-4.019881535433071
11
6.5399598425196848
21
-4.1046019685039372
0
LINE
8
BLACK
6
CONTINUOUS
10
6.5399598425196848
20
-4.1046019685039372
11
6.7467272834645664
21
-4.1045278740157478
0
LINE
8
BLACK
6
CONTINUOUS
10
6.7467272834645664
20
-4.1045278740157478
11
6.746654291338583
21
-4.0198074409448816
0
LINE
8
BLACK
6
CONTINUOUS
10
6.746654291338583
20
-4.0198074409448816
11
6.5398868503937004
21
-4.019881535433071
0
LINE
8
BLACK
6
CONTINUOUS
10
6.4302979133858269
20
-4.001059173228346
11
6.4308305905511807
21
-4.0015918503937007
0
LINE
8
BLACK
6
CONTINUOUS
10
6.4308305905511807
20
-4.0015918503937007
11
6.4309055118110239
21
-4.0594488188976374
0
LINE
8
BLACK
6
CONTINUOUS
10
6.4309055118110239
20
-4.0594488188976374
11
6.4308305905511807
21
-4.059825472440945
0
LINE
8
BLACK
6
CONTINUOUS
10
6.4308305905511807
20
-4.059825472440945
11
6.4302979133858269
21
-4.0603581496062988
0
LINE
8
BLACK
6
CONTINUOUS
10
6.4302979133858269
20
-4.0603581496062988
11
6.3133858267716532
21
-4.060433070866142
0
LINE
8
BLACK
6
CONTINUOUS
10
6.3133858267716532
20
-4.060433070866142
11
6.3130091732283464
21
-4.0603581496062988
0
LINE
8
BLACK
6
CONTINUOUS
10
6.3130091732283464
20
-4.0603581496062988
11
6.3124764960629918
21
-4.059825472440945
0
LINE
8
BLACK
6
CONTINUOUS
10
6.3124764960629918
20
-4.059825472440945
11
6.3124015748031495
21
-4.0019685039370074
0
LINE
8
BLACK
6
CONTINUOUS
10
6.3124015748031495
20
-4.0019685039370074
11
6.3124764960629918
21
-4.0015918503937007
0
LINE
8
BLACK
6
CONTINUOUS
10
6.3124764960629918
20
-4.0015918503937007
11
6.3130091732283464
21
-4.001059173228346
0
LINE
8
BLACK
6
CONTINUOUS
10
6.3130091732283464
20
-4.001059173228346
11
6.4299212598425193
21
-4.0009842519685037
0
LINE
8
BLACK
6
CONTINUOUS
10
6.4299212598425193
20
-4.0009842519685037
11
6.4302979133858269
21
-4.001059173228346
0
LINE
8
BLACK
6
CONTINUOUS
10
6.3142968897637797
20
-4.0029521653543307
11
6.3143688976377952
21
-4.0585385826771656
0
LINE
8
BLACK
6
CONTINUOUS
10
6.3143688976377952
20
-4.0585385826771656
11
6.4290101574803149
21
-4.0584651181102362
0
LINE
8
BLACK
6
CONTINUOUS
10
6.4290101574803149
20
-4.0584651181102362
11
6.4289381496062994
21
-4.0028787007874014
0
LINE
8
BLACK
6
CONTINUOUS
10
6.4289381496062994
20
-4.0028787007874014
11
6.3142968897637797
21
-4.0029521653543307
0
LINE
8
BLACK
6
CONTINUOUS
10
6.5523451574803149
20
-3.9538150787401576
11
6.5528778346456695
21
-3.9543477559055118
0
LINE
8
BLACK
6
CONTINUOUS
10
6.5528778346456695
20
-3.9543477559055118
11
6.5529527559055119
21
-4.0122047244094485
0
LINE
8
BLACK
6
CONTINUOUS
10
6.5529527559055119
20
-4.0122047244094485
11
6.5528778346456695
21
-4.0125813779527562
0
LINE
8
BLACK
6
CONTINUOUS
10
6.5528778346456695
20
-4.0125813779527562
11
6.5523451574803149
21
-4.0131140551181099
0
LINE
8
BLACK
6
CONTINUOUS
10
6.5523451574803149
20
-4.0131140551181099
11
6.435433070866142
21
-4.0131889763779522
0
LINE
8
BLACK
6
CONTINUOUS
10
6.435433070866142
20
-4.0131889763779522
11
6.4350564173228344
21
-4.0131140551181099
0
LINE
8
BLACK
6
CONTINUOUS
10
6.4350564173228344
20
-4.0131140551181099
11
6.4345237401574797
21
-4.0125813779527562
0
LINE
8
BLACK
6
CONTINUOUS
10
6.4345237401574797
20
-4.0125813779527562
11
6.4344488188976374
21
-3.954724409448819
0
LINE
8
BLACK
6
CONTINUOUS
10
6.4344488188976374
20
-3.954724409448819
11
6.4345237401574797
21
-3.9543477559055118
0
LINE
8
BLACK
6
CONTINUOUS
10
6.4345237401574797
20
-3.9543477559055118
11
6.4350564173228344
21
-3.9538150787401576
0
LINE
8
BLACK
6
CONTINUOUS
10
6.4350564173228344
20
-3.9538150787401576
11
6.5519685039370081
21
-3.9537401574803148
0
LINE
8
BLACK
6
CONTINUOUS
10
6.5519685039370081
20
-3.9537401574803148
11
6.5523451574803149
21
-3.9538150787401576
0
LINE
8
BLACK
6
CONTINUOUS
10
6.4363441338582676
20
-3.9557080708661418
11
6.4364161417322832
21
-4.0112944881889767
0
LINE
8
BLACK
6
CONTINUOUS
10
6.4364161417322832
20
-4.0112944881889767
11
6.5510574015748029
21
-4.0112210236220474
0
LINE
8
BLACK
6
CONTINUOUS
10
6.5510574015748029
20
-4.0112210236220474
11
6.5509853937007874
21
-3.9556346062992125
0
LINE
8
BLACK
6
CONTINUOUS
10
6.5509853937007874
20
-3.9556346062992125
11
6.4363441338582676
21
-3.9557080708661418
0
LINE
8
BLACK
6
CONTINUOUS
10
6.0390577559055121
20
-3.8416103543307085
11
6.0395904330708658
21
-3.8421430314960627
0
LINE
8
BLACK
6
CONTINUOUS
10
6.0395904330708658
20
-3.8421430314960627
11
6.0396653543307082
21
-3.959055118110236
0
LINE
8
BLACK
6
CONTINUOUS
10
6.0396653543307082
20
-3.959055118110236
11
6.0395904330708658
21
-3.9594317716535432
0
LINE
8
BLACK
6
CONTINUOUS
10
6.0395904330708658
20
-3.9594317716535432
11
6.0390577559055121
21
-3.9599644488188974
0
LINE
8
BLACK
6
CONTINUOUS
10
6.0390577559055121
20
-3.9599644488188974
11
5.9812007874015745
21
-3.9600393700787402
0
LINE
8
BLACK
6
CONTINUOUS
10
5.9812007874015745
20
-3.9600393700787402
11
5.9808241338582677
21
-3.9599644488188974
0
LINE
8
BLACK
6
CONTINUOUS
10
5.9808241338582677
20
-3.9599644488188974
11
5.9802914566929131
21
-3.9594317716535432
0
LINE
8
BLACK
6
CONTINUOUS
10
5.9802914566929131
20
-3.9594317716535432
11
5.9802165354330707
21
-3.8425196850393699
0
LINE
8
BLACK
6
CONTINUOUS
10
5.9802165354330707
20
-3.8425196850393699
11
5.9802914566929131
21
-3.8421430314960627
0
LINE
8
BLACK
6
CONTINUOUS
10
5.9802914566929131
20
-3.8421430314960627
11
5.9808241338582677
21
-3.8416103543307085
0
LINE
8
BLACK
6
CONTINUOUS
10
5.9808241338582677
20
-3.8416103543307085
11
6.0386811023622045
21
-3.8415354330708662
0
LINE
8
BLACK
6
CONTINUOUS
10
6.0386811023622045
20
-3.8415354330708662
11
6.0390577559055121
21
-3.8416103543307085
0
LINE
8
BLACK
6
CONTINUOUS
10
5.9821109842519684
20
-3.8435027559055119
11
5.9821844488188978
21
-3.9581440157480312
0
LINE
8
BLACK
6
CONTINUOUS
10
5.9821844488188978
20
-3.9581440157480312
11
6.0377708661417318
21
-3.9580720078740157
0
LINE
8
BLACK
6
CONTINUOUS
10
6.0377708661417318
20
-3.9580720078740157
11
6.0376974015748033
21
-3.843430748031496
0
LINE
8
BLACK
6
CONTINUOUS
10
6.0376974015748033
20
-3.843430748031496
11
5.9821109842519684
21
-3.8435027559055119
0
LINE
8
BLACK
6
CONTINUOUS
10
6.1099238976377954
20
-3.8416103543307085
11
6.1104565748031492
21
-3.8421430314960627
0
LINE
8
BLACK
6
CONTINUOUS
10
6.1104565748031492
20
-3.8421430314960627
11
6.1105314960629924
21
-3.959055118110236
0
LINE
8
BLACK
6
CONTINUOUS
10
6.1105314960629924
20
-3.959055118110236
11
6.1104565748031492
21
-3.9594317716535432
0
LINE
8
BLACK
6
CONTINUOUS
10
6.1104565748031492
20
-3.9594317716535432
11
6.1099238976377954
21
-3.9599644488188974
0
LINE
8
BLACK
6
CONTINUOUS
10
6.1099238976377954
20
-3.9599644488188974
11
6.0520669291338578
21
-3.9600393700787402
0
LINE
8
BLACK
6
CONTINUOUS
10
6.0520669291338578
20
-3.9600393700787402
11
6.0516902755905511
21
-3.9599644488188974
0
LINE
8
BLACK
6
CONTINUOUS
10
6.0516902755905511
20
-3.9599644488188974
11
6.0511575984251964
21
-3.9594317716535432
0
LINE
8
BLACK
6
CONTINUOUS
10
6.0511575984251964
20
-3.9594317716535432
11
6.0510826771653541
21
-3.8425196850393699
0
LINE
8
BLACK
6
CONTINUOUS
10
6.0510826771653541
20
-3.8425196850393699
11
6.0511575984251964
21
-3.8421430314960627
0
LINE
8
BLACK
6
CONTINUOUS
10
6.0511575984251964
20
-3.8421430314960627
11
6.0516902755905511
21
-3.8416103543307085
0
LINE
8
BLACK
6
CONTINUOUS
10
6.0516902755905511
20
-3.8416103543307085
11
6.1095472440944878
21
-3.8415354330708662
0
LINE
8
BLACK
6
CONTINUOUS
10
6.1095472440944878
20
-3.8415354330708662
11
6.1099238976377954
21
-3.8416103543307085
0
LINE
8
BLACK
6
CONTINUOUS
10
6.0529771259842517
20
-3.8435027559055119
11
6.0530505905511811
21
-3.9581440157480312
0
LINE
8
BLACK
6
CONTINUOUS
10
6.0530505905511811
20
-3.9581440157480312
11
6.108637007874016
21
-3.9580720078740157
0
LINE
8
BLACK
6
CONTINUOUS
10
6.108637007874016
20
-3.9580720078740157
11
6.1085635433070866
21
-3.843430748031496
0
LINE
8
BLACK
6
CONTINUOUS
10
6.1085635433070866
20
-3.843430748031496
11
6.0529771259842517
21
-3.8435027559055119
0
LINE
8
BLACK
6
CONTINUOUS
10
6.7336049999999998
20
-3.6601930314960631
11
6.7341376771653545
21
-3.6607257086614173
0
LINE
8
BLACK
6
CONTINUOUS
10
6.7341376771653545
20
-3.6607257086614173
11
6.7342125984251968
21
-3.9406299212598426
0
LINE
8
BLACK
6
CONTINUOUS
10
6.7342125984251968
20
-3.9406299212598426
11
6.7341376771653545
21
-3.9410065748031493
0
LINE
8
BLACK
6
CONTINUOUS
10
6.7341376771653545
20
-3.9410065748031493
11
6.7336049999999998
21
-3.941539251968504
0
LINE
8
BLACK
6
CONTINUOUS
10
6.7336049999999998
20
-3.941539251968504
11
6.4222047244094487
21
-3.9416141732283463
0
LINE
8
BLACK
6
CONTINUOUS
10
6.4222047244094487
20
-3.9416141732283463
11
6.4218280708661419
21
-3.941539251968504
0
LINE
8
BLACK
6
CONTINUOUS
10
6.4218280708661419
20
-3.941539251968504
11
6.4212953937007873
21
-3.9410065748031493
0
LINE
8
BLACK
6
CONTINUOUS
10
6.4212953937007873
20
-3.9410065748031493
11
6.421220472440945
21
-3.6611023622047245
0
LINE
8
BLACK
6
CONTINUOUS
10
6.421220472440945
20
-3.6611023622047245
11
6.4212953937007873
21
-3.6607257086614173
0
LINE
8
BLACK
6
CONTINUOUS
10
6.4212953937007873
20
-3.6607257086614173
11
6.4218280708661419
21
-3.6601930314960631
0
LINE
8
BLACK
6
CONTINUOUS
10
6.4218280708661419
20
-3.6601930314960631
11
6.7332283464566931
21
-3.6601181102362204
0
LINE
8
BLACK
6
CONTINUOUS
10
6.7332283464566931
20
-3.6601181102362204
11
6.7336049999999998
21
-3.6601930314960631
0
LINE
8
BLACK
6
CONTINUOUS
10
6.4231144094488188
20
-3.6620863779527557
11
6.4231887007874011
21
-3.9397202362204724
0
LINE
8
BLACK
6
CONTINUOUS
10
6.4231887007874011
20
-3.9397202362204724
11
6.7323186220472442
21
-3.9396458661417322
0
LINE
8
BLACK
6
CONTINUOUS
10
6.7323186220472442
20
-3.9396458661417322
11
6.732244330708661
21
-3.6620120078740155
0
LINE
8
BLACK
6
CONTINUOUS
10
6.732244330708661
20
-3.6620120078740155
11
6.4231144094488188
21
-3.6620863779527557
0
LINE
8
BLACK
6
CONTINUOUS
10
6.3728963385826773
20
-3.7835001181102363
11
6.3734290157480311
21
-3.7840327952755906
0
LINE
8
BLACK
6
CONTINUOUS
10
6.3734290157480311
20
-3.7840327952755906
11
6.3735039370078734
21
-3.9009448818897638
0
LINE
8
BLACK
6
CONTINUOUS
10
6.3735039370078734
20
-3.9009448818897638
11
6.3734290157480311
21
-3.9013215354330706
0
LINE
8
BLACK
6
CONTINUOUS
10
6.3734290157480311
20
-3.9013215354330706
11
6.3728963385826773
21
-3.9018542125984252
0
LINE
8
BLACK
6
CONTINUOUS
10
6.3728963385826773
20
-3.9018542125984252
11
6.3150393700787397
21
-3.9019291338582676
0
LINE
8
BLACK
6
CONTINUOUS
10
6.3150393700787397
20
-3.9019291338582676
11
6.314662716535433
21
-3.9018542125984252
0
LINE
8
BLACK
6
CONTINUOUS
10
6.314662716535433
20
-3.9018542125984252
11
6.3141300393700783
21
-3.9013215354330706
0
LINE
8
BLACK
6
CONTINUOUS
10
6.3141300393700783
20
-3.9013215354330706
11
6.314055118110236
21
-3.7844094488188977
0
LINE
8
BLACK
6
CONTINUOUS
10
6.314055118110236
20
-3.7844094488188977
11
6.3141300393700783
21
-3.7840327952755906
0
LINE
8
BLACK
6
CONTINUOUS
10
6.3141300393700783
20
-3.7840327952755906
11
6.314662716535433
21
-3.7835001181102363
0
LINE
8
BLACK
6
CONTINUOUS
10
6.314662716535433
20
-3.7835001181102363
11
6.3725196850393697
21
-3.7834251968503936
0
LINE
8
BLACK
6
CONTINUOUS
10
6.3725196850393697
20
-3.7834251968503936
11
6.3728963385826773
21
-3.7835001181102363
0
LINE
8
BLACK
6
CONTINUOUS
10
6.3159495669291337
20
-3.7853925196850393
11
6.316023031496063
21
-3.900033779527559
0
LINE
8
BLACK
6
CONTINUOUS
10
6.316023031496063
20
-3.900033779527559
11
6.3716094488188979
21
-3.8999617716535431
0
LINE
8
BLACK
6
CONTINUOUS
10
6.3716094488188979
20
-3.8999617716535431
11
6.3715359842519685
21
-3.7853205118110234
0
LINE
8
BLACK
6
CONTINUOUS
10
6.3715359842519685
20
-3.7853205118110234
11
6.3159495669291337
21
-3.7853925196850393
0
LINE
8
BLACK
6
CONTINUOUS
10
6.2848648425196849
20
-3.6910591732283464
11
6.2853975196850396
21
-3.6915918503937006
0
LINE
8
BLACK
6
CONTINUOUS
10
6.2853975196850396
20
-3.6915918503937006
11
6.2854724409448819
21
-3.8533858267716536
0
LINE
8
BLACK
6
CONTINUOUS
10
6.2854724409448819
20
-3.8533858267716536
11
6.2853975196850396
21
-3.8537624803149604
0
LINE
8
BLACK
6
CONTINUOUS
10
6.2853975196850396
20
-3.8537624803149604
11
6.2848648425196849
21
-3.854295157480315
0
LINE
8
BLACK
6
CONTINUOUS
10
6.2848648425196849
20
-3.854295157480315
11
6.1230708661417319
21
-3.8543700787401574
0
LINE
8
BLACK
6
CONTINUOUS
10
6.1230708661417319
20
-3.8543700787401574
11
6.1226942125984252
21
-3.854295157480315
0
LINE
8
BLACK
6
CONTINUOUS
10
6.1226942125984252
20
-3.854295157480315
11
6.1221615354330705
21
-3.8537624803149604
0
LINE
8
BLACK
6
CONTINUOUS
10
6.1221615354330705
20
-3.8537624803149604
11
6.1220866141732282
21
-3.6919685039370078
0
LINE
8
BLACK
6
CONTINUOUS
10
6.1220866141732282
20
-3.6919685039370078
11
6.1221615354330705
21
-3.6915918503937006
0
LINE
8
BLACK
6
CONTINUOUS
10
6.1221615354330705
20
-3.6915918503937006
11
6.1226942125984252
21
-3.6910591732283464
0
LINE
8
BLACK
6
CONTINUOUS
10
6.1226942125984252
20
-3.6910591732283464
11
6.2844881889763782
21
-3.6909842519685037
0
LINE
8
BLACK
6
CONTINUOUS
10
6.2844881889763782
20
-3.6909842519685037
11
6.2848648425196849
21
-3.6910591732283464
0
LINE
8
BLACK
6
CONTINUOUS
10
6.1239808267716533
20
-3.6929523228346457
11
6.1240546850393702
21
-3.8524758267716535
0
LINE
8
BLACK
6
CONTINUOUS
10
6.1240546850393702
20
-3.8524758267716535
11
6.283578188976378
21
-3.852401968503937
0
LINE
8
BLACK
6
CONTINUOUS
10
6.283578188976378
20
-3.852401968503937
11
6.2835043307086611
21
-3.6928784645669293
0
LINE
8
BLACK
6
CONTINUOUS
10
6.2835043307086611
20
-3.6928784645669293
11
6.1239808267716533
21
-3.6929523228346457
0
LINE
8
BLACK
6
CONTINUOUS
10
6.3928963385826769
20
-3.653500118110236
11
6.3934290157480316
21
-3.6540327952755907
0
LINE
8
BLACK
6
CONTINUOUS
10
6.3934290157480316
20
-3.6540327952755907
11
6.3935039370078739
21
-3.7709448818897635
0
LINE
8
BLACK
6
CONTINUOUS
10
6.3935039370078739
20
-3.7709448818897635
11
6.3934290157480316
21
-3.7713215354330707
0
LINE
8
BLACK
6
CONTINUOUS
10
6.3934290157480316
20
-3.7713215354330707
11
6.3928963385826769
21
-3.7718542125984249
0
LINE
8
BLACK
6
CONTINUOUS
10
6.3928963385826769
20
-3.7718542125984249
11
6.3350393700787402
21
-3.7719291338582677
0
LINE
8
BLACK
6
CONTINUOUS
10
6.3350393700787402
20
-3.7719291338582677
11
6.3346627165354326
21
-3.7718542125984249
0
LINE
8
BLACK
6
CONTINUOUS
10
6.3346627165354326
20
-3.7718542125984249
11
6.3341300393700788
21
-3.7713215354330707
0
LINE
8
BLACK
6
CONTINUOUS
10
6.3341300393700788
20
-3.7713215354330707
11
6.3340551181102365
21
-3.6544094488188974
0
LINE
8
BLACK
6
CONTINUOUS
10
6.3340551181102365
20
-3.6544094488188974
11
6.3341300393700788
21
-3.6540327952755907
0
LINE
8
BLACK
6
CONTINUOUS
10
6.3341300393700788
20
-3.6540327952755907
11
6.3346627165354326
21
-3.653500118110236
0
LINE
8
BLACK
6
CONTINUOUS
10
6.3346627165354326
20
-3.653500118110236
11
6.3925196850393702
21
-3.6534251968503937
0
LINE
8
BLACK
6
CONTINUOUS
10
6.3925196850393702
20
-3.6534251968503937
11
6.3928963385826769
21
-3.653500118110236
0
LINE
8
BLACK
6
CONTINUOUS
10
6.3359495669291341
20
-3.6553925196850394
11
6.3360230314960626
21
-3.7700337795275591
0
LINE
8
BLACK
6
CONTINUOUS
10
6.3360230314960626
20
-3.7700337795275591
11
6.3916094488188975
21
-3.7699617716535432
0
LINE
8
BLACK
6
CONTINUOUS
10
6.3916094488188975
20
-3.7699617716535432
11
6.3915359842519681
21
-3.6553205118110235
0
LINE
8
BLACK
6
CONTINUOUS
10
6.3915359842519681
20
-3.6553205118110235
11
6.3359495669291341
21
-3.6553925196850394
0
LINE
8
BLACK
6
CONTINUOUS
10
6.0524238976377953
20
-3.6730276771653543
11
6.0529565748031491
21
-3.6735603543307085
0
LINE
8
BLACK
6
CONTINUOUS
10
6.0529565748031491
20
-3.6735603543307085
11
6.0530314960629923
21
-3.7314173228346457
0
LINE
8
BLACK
6
CONTINUOUS
10
6.0530314960629923
20
-3.7314173228346457
11
6.0529565748031491
21
-3.7317939763779528
0
LINE
8
BLACK
6
CONTINUOUS
10
6.0529565748031491
20
-3.7317939763779528
11
6.0524238976377953
21
-3.7323266535433071
0
LINE
8
BLACK
6
CONTINUOUS
10
6.0524238976377953
20
-3.7323266535433071
11
5.9355118110236216
21
-3.7324015748031494
0
LINE
8
BLACK
6
CONTINUOUS
10
5.9355118110236216
20
-3.7324015748031494
11
5.9351351574803148
21
-3.7323266535433071
0
LINE
8
BLACK
6
CONTINUOUS
10
5.9351351574803148
20
-3.7323266535433071
11
5.9346024803149602
21
-3.7317939763779528
0
LINE
8
BLACK
6
CONTINUOUS
10
5.9346024803149602
20
-3.7317939763779528
11
5.9345275590551179
21
-3.6739370078740157
0
LINE
8
BLACK
6
CONTINUOUS
10
5.9345275590551179
20
-3.6739370078740157
11
5.9346024803149602
21
-3.6735603543307085
0
LINE
8
BLACK
6
CONTINUOUS
10
5.9346024803149602
20
-3.6735603543307085
11
5.9351351574803148
21
-3.6730276771653543
0
LINE
8
BLACK
6
CONTINUOUS
10
5.9351351574803148
20
-3.6730276771653543
11
6.0520472440944877
21
-3.6729527559055115
0
LINE
8
BLACK
6
CONTINUOUS
10
6.0520472440944877
20
-3.6729527559055115
11
6.0524238976377953
21
-3.6730276771653543
0
LINE
8
BLACK
6
CONTINUOUS
10
5.9364228740157481
20
-3.6749206692913385
11
5.9364948818897636
21
-3.730507086614173
0
LINE
8
BLACK
6
CONTINUOUS
10
5.9364948818897636
20
-3.730507086614173
11
6.0511361417322833
21
-3.730433622047244
0
LINE
8
BLACK
6
CONTINUOUS
10
6.0511361417322833
20
-3.730433622047244
11
6.0510641338582678
21
-3.6748472047244092
0
LINE
8
BLACK
6
CONTINUOUS
10
6.0510641338582678
20
-3.6748472047244092
11
5.9364228740157481
21
-3.6749206692913385
0
LINE
8
BLACK
6
CONTINUOUS
10
5.898801850393701
20
-3.5797993307086613
11
5.8993345275590547
21
-3.5803320078740155
0
LINE
8
BLACK
6
CONTINUOUS
10
5.8993345275590547
20
-3.5803320078740155
11
5.8994094488188971
21
-3.6381889763779527
0
LINE
8
BLACK
6
CONTINUOUS
10
5.8994094488188971
20
-3.6381889763779527
11
5.8993345275590547
21
-3.6385656299212599
0
LINE
8
BLACK
6
CONTINUOUS
10
5.8993345275590547
20
-3.6385656299212599
11
5.898801850393701
21
-3.6390983070866141
0
LINE
8
BLACK
6
CONTINUOUS
10
5.898801850393701
20
-3.6390983070866141
11
5.8321592519685037
21
-3.6391409842519686
0
LINE
8
BLACK
6
CONTINUOUS
10
5.8321592519685037
20
-3.6391409842519686
11
5.8324053937007871
21
-3.6393871259842521
0
LINE
8
BLACK
6
CONTINUOUS
10
5.8324053937007871
20
-3.6393871259842521
11
5.8324803149606295
21
-3.6972440944881888
0
LINE
8
BLACK
6
CONTINUOUS
10
5.8324803149606295
20
-3.6972440944881888
11
5.8324053937007871
21
-3.697620748031496
0
LINE
8
BLACK
6
CONTINUOUS
10
5.8324053937007871
20
-3.697620748031496
11
5.8318727165354334
21
-3.6981534251968502
0
LINE
8
BLACK
6
CONTINUOUS
10
5.8318727165354334
20
-3.6981534251968502
11
5.7149606299212596
21
-3.698228346456693
0
LINE
8
BLACK
6
CONTINUOUS
10
5.7149606299212596
20
-3.698228346456693
11
5.7145839763779529
21
-3.6981534251968502
0
LINE
8
BLACK
6
CONTINUOUS
10
5.7145839763779529
20
-3.6981534251968502
11
5.7140512992125982
21
-3.697620748031496
0
LINE
8
BLACK
6
CONTINUOUS
10
5.7140512992125982
20
-3.697620748031496
11
5.7139763779527559
21
-3.6397637795275588
0
LINE
8
BLACK
6
CONTINUOUS
10
5.7139763779527559
20
-3.6397637795275588
11
5.7140512992125982
21
-3.6393871259842521
0
LINE
8
BLACK
6
CONTINUOUS
10
5.7140512992125982
20
-3.6393871259842521
11
5.7143155511811026
21
-3.639122834645669
0
LINE
8
BLACK
6
CONTINUOUS
10
5.7143155511811026
20
-3.639122834645669
11
5.635728346456693
21
-3.6391732283464564
0
LINE
8
BLACK
6
CONTINUOUS
10
5.635728346456693
20
-3.6391732283464564
11
5.6353516929133853
21
-3.6390983070866141
0
LINE
8
BLACK
6
CONTINUOUS
10
5.6353516929133853
20
-3.6390983070866141
11
5.6348190157480316
21
-3.6385656299212599
0
LINE
8
BLACK
6
CONTINUOUS
10
5.6348190157480316
20
-3.6385656299212599
11
5.6347440944881892
21
-3.5807086614173227
0
LINE
8
BLACK
6
CONTINUOUS
10
5.6347440944881892
20
-3.5807086614173227
11
5.6348190157480316
21
-3.5803320078740155
0
LINE
8
BLACK
6
CONTINUOUS
10
5.6348190157480316
20
-3.5803320078740155
11
5.6353516929133853
21
-3.5797993307086613
0
LINE
8
BLACK
6
CONTINUOUS
10
5.6353516929133853
20
-3.5797993307086613
11
5.7522637795275591
21
-3.579724409448819
0
LINE
8
BLACK
6
CONTINUOUS
10
5.7522637795275591
20
-3.579724409448819
11
5.7526404330708658
21
-3.5797993307086613
0
LINE
8
BLACK
6
CONTINUOUS
10
5.7526404330708658
20
-3.5797993307086613
11
5.7531731102362205
21
-3.5803320078740155
0
LINE
8
BLACK
6
CONTINUOUS
10
5.7531731102362205
20
-3.5803320078740155
11
5.7532480314960628
21
-3.6381889763779527
0
LINE
8
BLACK
6
CONTINUOUS
10
5.7532480314960628
20
-3.6381889763779527
11
5.7531731102362205
21
-3.6385656299212599
0
LINE
8
BLACK
6
CONTINUOUS
10
5.7531731102362205
20
-3.6385656299212599
11
5.7529088188976374
21
-3.6388298818897638
0
LINE
8
BLACK
6
CONTINUOUS
10
5.7529088188976374
20
-3.6388298818897638
11
5.7812265354330705
21
-3.6388117322834646
0
LINE
8
BLACK
6
CONTINUOUS
10
5.7812265354330705
20
-3.6388117322834646
11
5.7809804330708658
21
-3.6385656299212599
0
LINE
8
BLACK
6
CONTINUOUS
10
5.7809804330708658
20
-3.6385656299212599
11
5.7809055118110235
21
-3.5807086614173227
0
LINE
8
BLACK
6
CONTINUOUS
10
5.7809055118110235
20
-3.5807086614173227
11
5.7809804330708658
21
-3.5803320078740155
0
LINE
8
BLACK
6
CONTINUOUS
10
5.7809804330708658
20
-3.5803320078740155
11
5.7815131102362205
21
-3.5797993307086613
0
LINE
8
BLACK
6
CONTINUOUS
10
5.7815131102362205
20
-3.5797993307086613
11
5.8984251968503933
21
-3.579724409448819
0
LINE
8
BLACK
6
CONTINUOUS
10
5.8984251968503933
20
-3.579724409448819
11
5.898801850393701
21
-3.5797993307086613
0
LINE
8
BLACK
6
CONTINUOUS
10
5.7158716929133853
20
-3.6407474409448817
11
5.7159437007874017
21
-3.6963338582677165
0
LINE
8
BLACK
6
CONTINUOUS
10
5.7159437007874017
20
-3.6963338582677165
11
5.8305849606299214
21
-3.6962603937007872
0
LINE
8
BLACK
6
CONTINUOUS
10
5.8305849606299214
20
-3.6962603937007872
11
5.830512952755905
21
-3.6406739763779528
0
LINE
8
BLACK
6
CONTINUOUS
10
5.830512952755905
20
-3.6406739763779528
11
5.7158716929133853
21
-3.6407474409448817
0
LINE
8
BLACK
6
CONTINUOUS
10
5.6366394094488186
20
-3.5816923228346456
11
5.6367114173228341
21
-3.6372787401574804
0
LINE
8
BLACK
6
CONTINUOUS
10
5.6367114173228341
20
-3.6372787401574804
11
5.7513526771653538
21
-3.6372052755905511
0
LINE
8
BLACK
6
CONTINUOUS
10
5.7513526771653538
20
-3.6372052755905511
11
5.7512806692913383
21
-3.5816188582677166
0
LINE
8
BLACK
6
CONTINUOUS
10
5.7512806692913383
20
-3.5816188582677166
11
5.6366394094488186
21
-3.5816923228346456
0
LINE
8
BLACK
6
CONTINUOUS
10
5.7828008267716537
20
-3.5816923228346456
11
5.7828728346456693
21
-3.6372787401574804
0
LINE
8
BLACK
6
CONTINUOUS
10
5.7828728346456693
20
-3.6372787401574804
11
5.897514094488189
21
-3.6372052755905511
0
LINE
8
BLACK
6
CONTINUOUS
10
5.897514094488189
20
-3.6372052755905511
11
5.8974420866141735
21
-3.5816188582677166
0
LINE
8
BLACK
6
CONTINUOUS
10
5.8974420866141735
20
-3.5816188582677166
11
5.7828008267716537
21
-3.5816923228346456
0
LINE
8
BLACK
6
CONTINUOUS
10
6.1857112992125982
20
-3.615232401574803
11
6.1862439763779529
21
-3.6157650787401572
0
LINE
8
BLACK
6
CONTINUOUS
10
6.1862439763779529
20
-3.6157650787401572
11
6.1863188976377952
21
-3.6736220472440944
0
LINE
8
BLACK
6
CONTINUOUS
10
6.1863188976377952
20
-3.6736220472440944
11
6.1862439763779529
21
-3.6739987007874015
0
LINE
8
BLACK
6
CONTINUOUS
10
6.1862439763779529
20
-3.6739987007874015
11
6.1857112992125982
21
-3.6745313779527558
0
LINE
8
BLACK
6
CONTINUOUS
10
6.1857112992125982
20
-3.6745313779527558
11
6.0687992125984254
21
-3.6746062992125985
0
LINE
8
BLACK
6
CONTINUOUS
10
6.0687992125984254
20
-3.6746062992125985
11
6.0684225590551177
21
-3.6745313779527558
0
LINE
8
BLACK
6
CONTINUOUS
10
6.0684225590551177
20
-3.6745313779527558
11
6.067889881889764
21
-3.6739987007874015
0
LINE
8
BLACK
6
CONTINUOUS
10
6.067889881889764
20
-3.6739987007874015
11
6.0678149606299208
21
-3.6161417322834644
0
LINE
8
BLACK
6
CONTINUOUS
10
6.0678149606299208
20
-3.6161417322834644
11
6.067889881889764
21
-3.6157650787401572
0
LINE
8
BLACK
6
CONTINUOUS
10
6.067889881889764
20
-3.6157650787401572
11
6.0684225590551177
21
-3.615232401574803
0
LINE
8
BLACK
6
CONTINUOUS
10
6.0684225590551177
20
-3.615232401574803
11
6.1853346456692915
21
-3.6151574803149606
0
LINE
8
BLACK
6
CONTINUOUS
10
6.1853346456692915
20
-3.6151574803149606
11
6.1857112992125982
21
-3.615232401574803
0
LINE
8
BLACK
6
CONTINUOUS
10
6.069710275590551
20
-3.6171253937007872
11
6.0697822834645665
21
-3.6727118110236221
0
LINE
8
BLACK
6
CONTINUOUS
10
6.0697822834645665
20
-3.6727118110236221
11
6.1844235433070862
21
-3.6726383464566927
0
LINE
8
BLACK
6
CONTINUOUS
10
6.1844235433070862
20
-3.6726383464566927
11
6.1843515354330707
21
-3.6170519291338583
0
LINE
8
BLACK
6
CONTINUOUS
10
6.1843515354330707
20
-3.6170519291338583
11
6.069710275590551
21
-3.6171253937007872
0
LINE
8
BLACK
6
CONTINUOUS
10
6.3324238976377956
20
-3.5930276771653542
11
6.3329565748031493
21
-3.5935603543307084
0
LINE
8
BLACK
6
CONTINUOUS
10
6.3329565748031493
20
-3.5935603543307084
11
6.3330314960629916
21
-3.6514173228346456
0
LINE
8
BLACK
6
CONTINUOUS
10
6.3330314960629916
20
-3.6514173228346456
11
6.3329565748031493
21
-3.6517939763779528
0
LINE
8
BLACK
6
CONTINUOUS
10
6.3329565748031493
20
-3.6517939763779528
11
6.3324238976377956
21
-3.652326653543307
0
LINE
8
BLACK
6
CONTINUOUS
10
6.3324238976377956
20
-3.652326653543307
11
6.2155118110236218
21
-3.6524015748031493
0
LINE
8
BLACK
6
CONTINUOUS
10
6.2155118110236218
20
-3.6524015748031493
11
6.2151351574803151
21
-3.652326653543307
0
LINE
8
BLACK
6
CONTINUOUS
10
6.2151351574803151
20
-3.652326653543307
11
6.2146024803149604
21
-3.6517939763779528
0
LINE
8
BLACK
6
CONTINUOUS
10
6.2146024803149604
20
-3.6517939763779528
11
6.2145275590551181
21
-3.5939370078740156
0
LINE
8
BLACK
6
CONTINUOUS
10
6.2145275590551181
20
-3.5939370078740156
11
6.2146024803149604
21
-3.5935603543307084
0
LINE
8
BLACK
6
CONTINUOUS
10
6.2146024803149604
20
-3.5935603543307084
11
6.2151351574803151
21
-3.5930276771653542
0
LINE
8
BLACK
6
CONTINUOUS
10
6.2151351574803151
20
-3.5930276771653542
11
6.3320472440944879
21
-3.5929527559055119
0
LINE
8
BLACK
6
CONTINUOUS
10
6.3320472440944879
20
-3.5929527559055119
11
6.3324238976377956
21
-3.5930276771653542
0
LINE
8
BLACK
6
CONTINUOUS
10
6.2164228740157474
20
-3.5949206692913385
11
6.2164948818897638
21
-3.6505070866141733
0
LINE
8
BLACK
6
CONTINUOUS
10
6.2164948818897638
20
-3.6505070866141733
11
6.3311361417322836
21
-3.650433622047244
0
LINE
8
BLACK
6
CONTINUOUS
10
6.3311361417322836
20
-3.650433622047244
11
6.3310641338582672
21
-3.5948472047244096
0
LINE
8
BLACK
6
CONTINUOUS
10
6.3310641338582672
20
-3.5948472047244096
11
6.2164228740157474
21
-3.5949206692913385
0
LINE
8
BLACK
6
CONTINUOUS
10
6.4634278346456693
20
-3.5930276771653542
11
6.463960511811023
21
-3.5935603543307084
0
LINE
8
BLACK
6
CONTINUOUS
10
6.463960511811023
20
-3.5935603543307084
11
6.4640354330708663
21
-3.6514173228346456
0
LINE
8
BLACK
6
CONTINUOUS
10
6.4640354330708663
20
-3.6514173228346456
11
6.463960511811023
21
-3.6517939763779528
0
LINE
8
BLACK
6
CONTINUOUS
10
6.463960511811023
20
-3.6517939763779528
11
6.4634278346456693
21
-3.652326653543307
0
LINE
8
BLACK
6
CONTINUOUS
10
6.4634278346456693
20
-3.652326653543307
11
6.3465157480314955
21
-3.6524015748031493
0
LINE
8
BLACK
6
CONTINUOUS
10
6.3465157480314955
20
-3.6524015748031493
11
6.3461390944881888
21
-3.652326653543307
0
LINE
8
BLACK
6
CONTINUOUS
10
6.3461390944881888
20
-3.652326653543307
11
6.3456064173228341
21
-3.6517939763779528
0
LINE
8
BLACK
6
CONTINUOUS
10
6.3456064173228341
20
-3.6517939763779528
11
6.3455314960629918
21
-3.5939370078740156
0
LINE
8
BLACK
6
CONTINUOUS
10
6.3455314960629918
20
-3.5939370078740156
11
6.3456064173228341
21
-3.5935603543307084
0
LINE
8
BLACK
6
CONTINUOUS
10
6.3456064173228341
20
-3.5935603543307084
11
6.3461390944881888
21
-3.5930276771653542
0
LINE
8
BLACK
6
CONTINUOUS
10
6.3461390944881888
20
-3.5930276771653542
11
6.4630511811023617
21
-3.5929527559055119
0
LINE
8
BLACK
6
CONTINUOUS
10
6.4630511811023617
20
-3.5929527559055119
11
6.4634278346456693
21
-3.5930276771653542
0
LINE
8
BLACK
6
CONTINUOUS
10
6.3474268110236221
20
-3.5949206692913385
11
6.3474988188976376
21
-3.6505070866141733
0
LINE
8
BLACK
6
CONTINUOUS
10
6.3474988188976376
20
-3.6505070866141733
11
6.4621400787401573
21
-3.650433622047244
0
LINE
8
BLACK
6
CONTINUOUS
10
6.4621400787401573
20
-3.650433622047244
11
6.4620680708661418
21
-3.5948472047244096
0
LINE
8
BLACK
6
CONTINUOUS
10
6.4620680708661418
20
-3.5948472047244096
11
6.3474268110236221
21
-3.5949206692913385
0
LINE
8
BLACK
6
CONTINUOUS
10
6.5863609055118113
20
-3.5912166535433072
11
6.5868935826771651
21
-3.5917493307086614
0
LINE
8
BLACK
6
CONTINUOUS
10
6.5868935826771651
20
-3.5917493307086614
11
6.5869685039370074
21
-3.6496062992125982
0
LINE
8
BLACK
6
CONTINUOUS
10
6.5869685039370074
20
-3.6496062992125982
11
6.5868935826771651
21
-3.6499829527559053
0
LINE
8
BLACK
6
CONTINUOUS
10
6.5868935826771651
20
-3.6499829527559053
11
6.5863609055118113
21
-3.6505156299212596
0
LINE
8
BLACK
6
CONTINUOUS
10
6.5863609055118113
20
-3.6505156299212596
11
6.4694488188976376
21
-3.6505905511811023
0
LINE
8
BLACK
6
CONTINUOUS
10
6.4694488188976376
20
-3.6505905511811023
11
6.4690721653543308
21
-3.6505156299212596
0
LINE
8
BLACK
6
CONTINUOUS
10
6.4690721653543308
20
-3.6505156299212596
11
6.4685394881889762
21
-3.6499829527559053
0
LINE
8
BLACK
6
CONTINUOUS
10
6.4685394881889762
20
-3.6499829527559053
11
6.4684645669291339
21
-3.5921259842519686
0
LINE
8
BLACK
6
CONTINUOUS
10
6.4684645669291339
20
-3.5921259842519686
11
6.4685394881889762
21
-3.5917493307086614
0
LINE
8
BLACK
6
CONTINUOUS
10
6.4685394881889762
20
-3.5917493307086614
11
6.4690721653543308
21
-3.5912166535433072
0
LINE
8
BLACK
6
CONTINUOUS
10
6.4690721653543308
20
-3.5912166535433072
11
6.5859842519685037
21
-3.5911417322834644
0
LINE
8
BLACK
6
CONTINUOUS
10
6.5859842519685037
20
-3.5911417322834644
11
6.5863609055118113
21
-3.5912166535433072
0
LINE
8
BLACK
6
CONTINUOUS
10
6.4703598818897641
20
-3.5931096456692915
11
6.4704318897637796
21
-3.6486960629921259
0
LINE
8
BLACK
6
CONTINUOUS
10
6.4704318897637796
20
-3.6486960629921259
11
6.5850731496062993
21
-3.648622598425197
0
LINE
8
BLACK
6
CONTINUOUS
10
6.5850731496062993
20
-3.648622598425197
11
6.5850011417322829
21
-3.5930361811023621
0
LINE
8
BLACK
6
CONTINUOUS
10
6.5850011417322829
20
-3.5930361811023621
11
6.4703598818897641
21
-3.5931096456692915
0
LINE
8
BLACK
6
CONTINUOUS
10
6.726360905511811
20
-3.5912166535433072
11
6.7268935826771656
21
-3.5917493307086614
0
LINE
8
BLACK
6
CONTINUOUS
10
6.7268935826771656
20
-3.5917493307086614
11
6.726968503937008
21
-3.6496062992125982
0
LINE
8
BLACK
6
CONTINUOUS
10
6.726968503937008
20
-3.6496062992125982
11
6.7268935826771656
21
-3.6499829527559053
0
LINE
8
BLACK
6
CONTINUOUS
10
6.7268935826771656
20
-3.6499829527559053
11
6.726360905511811
21
-3.6505156299212596
0
LINE
8
BLACK
6
CONTINUOUS
10
6.726360905511811
20
-3.6505156299212596
11
6.6094488188976372
21
-3.6505905511811023
0
LINE
8
BLACK
6
CONTINUOUS
10
6.6094488188976372
20
-3.6505905511811023
11
6.6090721653543305
21
-3.6505156299212596
0
LINE
8
BLACK
6
CONTINUOUS
10
6.6090721653543305
20
-3.6505156299212596
11
6.6085394881889759
21
-3.6499829527559053
0
LINE
8
BLACK
6
CONTINUOUS
10
6.6085394881889759
20
-3.6499829527559053
11
6.6084645669291335
21
-3.5921259842519686
0
LINE
8
BLACK
6
CONTINUOUS
10
6.6084645669291335
20
-3.5921259842519686
11
6.6085394881889759
21
-3.5917493307086614
0
LINE
8
BLACK
6
CONTINUOUS
10
6.6085394881889759
20
-3.5917493307086614
11
6.6090721653543305
21
-3.5912166535433072
0
LINE
8
BLACK
6
CONTINUOUS
10
6.6090721653543305
20
-3.5912166535433072
11
6.7259842519685034
21
-3.5911417322834644
0
LINE
8
BLACK
6
CONTINUOUS
10
6.7259842519685034
20
-3.5911417322834644
11
6.726360905511811
21
-3.5912166535433072
0
LINE
8
BLACK
6
CONTINUOUS
10
6.6103598818897638
20
-3.5931096456692915
11
6.6104318897637793
21
-3.6486960629921259
0
LINE
8
BLACK
6
CONTINUOUS
10
6.6104318897637793
20
-3.6486960629921259
11
6.725073149606299
21
-3.648622598425197
0
LINE
8
BLACK
6
CONTINUOUS
10
6.725073149606299
20
-3.648622598425197
11
6.7250011417322835
21
-3.5930361811023621
0
LINE
8
BLACK
6
CONTINUOUS
10
6.7250011417322835
20
-3.5930361811023621
11
6.6103598818897638
21
-3.5931096456692915
  0
ENDSEC
  0
EOF
