  0
SECTION
  2
HEADER
  9
$ANGBASE
  50
0.0
  9
$ANGDIR
  70
1
  9
$MEASUREMENT
  70
0
  0
ENDSEC
  0
SECTION
  2
TABLES
  0
TABLE
  2
LTYPE
  70
4
  0
LTYPE
  5
40F
  2
CONTINUOUS
  70
0
  3
Solid line
  72
65
  73
0
  40
0.0
  0
LTYPE
  5
410
  2
DASHDOT
 70
0
  3
Dash Dot ____ _ ____ _
 72
65
 73
4
 40
2.0
 49
1.25
 49
-0.25
 49
0.25
 49
-0.25
  0
LTYPE
  5
411
  2
DASHED
 70
0
  3
Dashed __ __ __ __ __
 72
65
 73
2
 40
0.75
 49
0.5
 49
-0.25
  0
LTYPE
  5
43B
  2
DOTTED
 70
0
  3
Dotted .  .  .  .
 72
65
 73
2
 40
0.2
 49
0.0
 49
-0.2
  0
ENDTAB
  0
TABLE
  2
STYLE
  70
4
  0
STYLE
  2
KICAD
  70
0
  40
0
  41
1
  42
1
  50
0
  71
0
  3
isocp.shx
  0
STYLE
  2
KICADB
  70
0
  40
0
  41
1
  42
1
  50
0
  71
0
  3
isocp.shx
  0
STYLE
  2
KICADI
  70
0
  40
0
  41
1
  42
1
  50
15
  71
0
  3
isocp.shx
  0
STYLE
  2
KICADBI
  70
0
  40
0
  41
1
  42
1
  50
15
  71
0
  3
isocp.shx
  0
ENDTAB
  0
TABLE
  2
LAYER
  70
1
  0
LAYER
  2
BLACK
  70
0
  62
7
  6
CONTINUOUS
  0
ENDTAB
  0
ENDSEC
  0
SECTION
  2
ENTITIES
0
LINE
8
BLACK
6
CONTINUOUS
10
7.017898897637795
20
-3.5750567322834645
11
7.0189633070866142
21
-3.5754976377952756
0
LINE
8
BLACK
6
CONTINUOUS
10
7.0189633070866142
20
-3.5754976377952756
11
7.0197779527559057
21
-3.5763122834645666
0
LINE
8
BLACK
6
CONTINUOUS
10
7.0197779527559057
20
-3.5763122834645666
11
7.0202188582677163
21
-3.5773766929133859
0
LINE
8
BLACK
6
CONTINUOUS
10
7.0202188582677163
20
-3.5773766929133859
11
7.0202755905511811
21
-3.5779527559055118
0
LINE
8
BLACK
6
CONTINUOUS
10
7.0202755905511811
20
-3.5779527559055118
11
7.0202755905511811
21
-4.1291338582677168
0
LINE
8
BLACK
6
CONTINUOUS
10
7.0202755905511811
20
-4.1291338582677168
11
7.0202188582677163
21
-4.1297099212598427
0
LINE
8
BLACK
6
CONTINUOUS
10
7.0202188582677163
20
-4.1297099212598427
11
7.0197779527559057
21
-4.1307743307086611
0
LINE
8
BLACK
6
CONTINUOUS
10
7.0197779527559057
20
-4.1307743307086611
11
7.0189633070866142
21
-4.1315889763779525
0
LINE
8
BLACK
6
CONTINUOUS
10
7.0189633070866142
20
-4.1315889763779525
11
7.017898897637795
21
-4.1320298818897641
0
LINE
8
BLACK
6
CONTINUOUS
10
7.017898897637795
20
-4.1320298818897641
11
7.0173228346456691
21
-4.132086614173228
0
LINE
8
BLACK
6
CONTINUOUS
10
7.0173228346456691
20
-4.132086614173228
11
5.5999999999999996
21
-4.132086614173228
0
LINE
8
BLACK
6
CONTINUOUS
10
5.5999999999999996
20
-4.132086614173228
11
5.5994239370078738
21
-4.1320298818897641
0
LINE
8
BLACK
6
CONTINUOUS
10
5.5994239370078738
20
-4.1320298818897641
11
5.5983595275590554
21
-4.1315889763779525
0
LINE
8
BLACK
6
CONTINUOUS
10
5.5983595275590554
20
-4.1315889763779525
11
5.597544881889764
21
-4.1307743307086611
0
LINE
8
BLACK
6
CONTINUOUS
10
5.597544881889764
20
-4.1307743307086611
11
5.5971039763779524
21
-4.1297099212598427
0
LINE
8
BLACK
6
CONTINUOUS
10
5.5971039763779524
20
-4.1297099212598427
11
5.5970472440944885
21
-4.1291338582677168
0
LINE
8
BLACK
6
CONTINUOUS
10
5.5970472440944885
20
-4.1291338582677168
11
5.5970472440944885
21
-3.5779527559055118
0
LINE
8
BLACK
6
CONTINUOUS
10
5.5970472440944885
20
-3.5779527559055118
11
5.5971039763779524
21
-3.5773766929133859
0
LINE
8
BLACK
6
CONTINUOUS
10
5.5971039763779524
20
-3.5773766929133859
11
5.597544881889764
21
-3.5763122834645666
0
LINE
8
BLACK
6
CONTINUOUS
10
5.597544881889764
20
-3.5763122834645666
11
5.5983595275590554
21
-3.5754976377952756
0
LINE
8
BLACK
6
CONTINUOUS
10
5.5983595275590554
20
-3.5754976377952756
11
5.5994239370078738
21
-3.5750567322834645
0
LINE
8
BLACK
6
CONTINUOUS
10
5.5994239370078738
20
-3.5750567322834645
11
5.5999999999999996
21
-3.5749999999999997
0
LINE
8
BLACK
6
CONTINUOUS
10
5.5999999999999996
20
-3.5749999999999997
11
7.0173228346456691
21
-3.5749999999999997
0
LINE
8
BLACK
6
CONTINUOUS
10
7.0173228346456691
20
-3.5749999999999997
11
7.017898897637795
21
-3.5750567322834645
0
LINE
8
BLACK
6
CONTINUOUS
10
5.6029527559055117
20
-3.5809055118110233
11
5.6029527559055117
21
-4.1261811023622048
0
LINE
8
BLACK
6
CONTINUOUS
10
5.6029527559055117
20
-4.1261811023622048
11
7.0143700787401571
21
-4.1261811023622048
0
LINE
8
BLACK
6
CONTINUOUS
10
7.0143700787401571
20
-4.1261811023622048
11
7.0143700787401571
21
-3.5809055118110233
0
LINE
8
BLACK
6
CONTINUOUS
10
7.0143700787401571
20
-3.5809055118110233
11
5.6029527559055117
21
-3.5809055118110233
0
CIRCLE
8
BLACK
10
5.9326771653543302
20
-3.7688976377952756
40
0.0068897637795276
0
CIRCLE
8
BLACK
10
5.6452755905511811
20
-3.9381889763779525
40
0.0068897637795276
0
CIRCLE
8
BLACK
10
5.6452755905511811
20
-3.7688976377952756
40
0.0068897637795276
0
CIRCLE
8
BLACK
10
5.9326771653543302
20
-3.7688976377952756
40
0.0068897637795276
0
CIRCLE
8
BLACK
10
5.6452755905511811
20
-3.9381889763779525
40
0.0068897637795276
0
CIRCLE
8
BLACK
10
5.6452755905511811
20
-3.7688976377952756
40
0.0068897637795276
  0
ENDSEC
  0
EOF
