  0
SECTION
  2
HEADER
  9
$ANGBASE
  50
0.0
  9
$ANGDIR
  70
1
  9
$MEASUREMENT
  70
0
  0
ENDSEC
  0
SECTION
  2
TABLES
  0
TABLE
  2
LTYPE
  70
4
  0
LTYPE
  5
40F
  2
CONTINUOUS
  70
0
  3
Solid line
  72
65
  73
0
  40
0.0
  0
LTYPE
  5
410
  2
DASHDOT
 70
0
  3
Dash Dot ____ _ ____ _
 72
65
 73
4
 40
2.0
 49
1.25
 49
-0.25
 49
0.25
 49
-0.25
  0
LTYPE
  5
411
  2
DASHED
 70
0
  3
Dashed __ __ __ __ __
 72
65
 73
2
 40
0.75
 49
0.5
 49
-0.25
  0
LTYPE
  5
43B
  2
DOTTED
 70
0
  3
Dotted .  .  .  .
 72
65
 73
2
 40
0.2
 49
0.0
 49
-0.2
  0
ENDTAB
  0
TABLE
  2
STYLE
  70
4
  0
STYLE
  2
KICAD
  70
0
  40
0
  41
1
  42
1
  50
0
  71
0
  3
isocp.shx
  0
STYLE
  2
KICADB
  70
0
  40
0
  41
1
  42
1
  50
0
  71
0
  3
isocp.shx
  0
STYLE
  2
KICADI
  70
0
  40
0
  41
1
  42
1
  50
15
  71
0
  3
isocp.shx
  0
STYLE
  2
KICADBI
  70
0
  40
0
  41
1
  42
1
  50
15
  71
0
  3
isocp.shx
  0
ENDTAB
  0
TABLE
  2
LAYER
  70
1
  0
LAYER
  2
BLACK
  70
0
  62
7
  6
CONTINUOUS
  0
ENDTAB
  0
ENDSEC
  0
SECTION
  2
ENTITIES
0
LINE
8
BLACK
6
CONTINUOUS
10
5.6495337007874014
20
-3.9250838582677163
11
5.6533749999999996
21
-3.9270411023622045
0
LINE
8
BLACK
6
CONTINUOUS
10
5.6533749999999996
20
-3.9270411023622045
11
5.6564234645669291
21
-3.9300895669291336
0
LINE
8
BLACK
6
CONTINUOUS
10
5.6564234645669291
20
-3.9300895669291336
11
5.6583807086614168
21
-3.9339308661417323
0
LINE
8
BLACK
6
CONTINUOUS
10
5.6583807086614168
20
-3.9339308661417323
11
5.6590551181102358
21
-3.9381889763779525
0
LINE
8
BLACK
6
CONTINUOUS
10
5.6590551181102358
20
-3.9381889763779525
11
5.6583807086614168
21
-3.9424470866141732
0
LINE
8
BLACK
6
CONTINUOUS
10
5.6583807086614168
20
-3.9424470866141732
11
5.6564234645669291
21
-3.9462883858267714
0
LINE
8
BLACK
6
CONTINUOUS
10
5.6564234645669291
20
-3.9462883858267714
11
5.6533749999999996
21
-3.9493368503937005
0
LINE
8
BLACK
6
CONTINUOUS
10
5.6533749999999996
20
-3.9493368503937005
11
5.6495337007874014
21
-3.9512940944881887
0
LINE
8
BLACK
6
CONTINUOUS
10
5.6495337007874014
20
-3.9512940944881887
11
5.6452755905511811
21
-3.9519685039370076
0
LINE
8
BLACK
6
CONTINUOUS
10
5.6452755905511811
20
-3.9519685039370076
11
5.6410174803149609
21
-3.9512940944881887
0
LINE
8
BLACK
6
CONTINUOUS
10
5.6410174803149609
20
-3.9512940944881887
11
5.6371761811023617
21
-3.9493368503937005
0
LINE
8
BLACK
6
CONTINUOUS
10
5.6371761811023617
20
-3.9493368503937005
11
5.6341277165354331
21
-3.9462883858267714
0
LINE
8
BLACK
6
CONTINUOUS
10
5.6341277165354331
20
-3.9462883858267714
11
5.6321704724409445
21
-3.9424470866141732
0
LINE
8
BLACK
6
CONTINUOUS
10
5.6321704724409445
20
-3.9424470866141732
11
5.6314960629921256
21
-3.9381889763779525
0
LINE
8
BLACK
6
CONTINUOUS
10
5.6314960629921256
20
-3.9381889763779525
11
5.6321704724409445
21
-3.9339308661417323
0
LINE
8
BLACK
6
CONTINUOUS
10
5.6321704724409445
20
-3.9339308661417323
11
5.6341277165354331
21
-3.9300895669291336
0
LINE
8
BLACK
6
CONTINUOUS
10
5.6341277165354331
20
-3.9300895669291336
11
5.6371761811023617
21
-3.9270411023622045
0
LINE
8
BLACK
6
CONTINUOUS
10
5.6371761811023617
20
-3.9270411023622045
11
5.6410174803149609
21
-3.9250838582677163
0
LINE
8
BLACK
6
CONTINUOUS
10
5.6410174803149609
20
-3.9250838582677163
11
5.6452755905511811
21
-3.9244094488188974
0
LINE
8
BLACK
6
CONTINUOUS
10
5.6452755905511811
20
-3.9244094488188974
11
5.6495337007874014
21
-3.9250838582677163
0
LINE
8
BLACK
6
CONTINUOUS
10
5.6495337007874014
20
-3.7557925196850395
11
5.6533749999999996
21
-3.7577497637795276
0
LINE
8
BLACK
6
CONTINUOUS
10
5.6533749999999996
20
-3.7577497637795276
11
5.6564234645669291
21
-3.7607982283464567
0
LINE
8
BLACK
6
CONTINUOUS
10
5.6564234645669291
20
-3.7607982283464567
11
5.6583807086614168
21
-3.764639527559055
0
LINE
8
BLACK
6
CONTINUOUS
10
5.6583807086614168
20
-3.764639527559055
11
5.6590551181102358
21
-3.7688976377952756
0
LINE
8
BLACK
6
CONTINUOUS
10
5.6590551181102358
20
-3.7688976377952756
11
5.6583807086614168
21
-3.7731557480314959
0
LINE
8
BLACK
6
CONTINUOUS
10
5.6583807086614168
20
-3.7731557480314959
11
5.6564234645669291
21
-3.7769970472440946
0
LINE
8
BLACK
6
CONTINUOUS
10
5.6564234645669291
20
-3.7769970472440946
11
5.6533749999999996
21
-3.7800455118110237
0
LINE
8
BLACK
6
CONTINUOUS
10
5.6533749999999996
20
-3.7800455118110237
11
5.6495337007874014
21
-3.7820027559055118
0
LINE
8
BLACK
6
CONTINUOUS
10
5.6495337007874014
20
-3.7820027559055118
11
5.6452755905511811
21
-3.7826771653543307
0
LINE
8
BLACK
6
CONTINUOUS
10
5.6452755905511811
20
-3.7826771653543307
11
5.6410174803149609
21
-3.7820027559055118
0
LINE
8
BLACK
6
CONTINUOUS
10
5.6410174803149609
20
-3.7820027559055118
11
5.6371761811023617
21
-3.7800455118110237
0
LINE
8
BLACK
6
CONTINUOUS
10
5.6371761811023617
20
-3.7800455118110237
11
5.6341277165354331
21
-3.7769970472440946
0
LINE
8
BLACK
6
CONTINUOUS
10
5.6341277165354331
20
-3.7769970472440946
11
5.6321704724409445
21
-3.7731557480314959
0
LINE
8
BLACK
6
CONTINUOUS
10
5.6321704724409445
20
-3.7731557480314959
11
5.6314960629921256
21
-3.7688976377952756
0
LINE
8
BLACK
6
CONTINUOUS
10
5.6314960629921256
20
-3.7688976377952756
11
5.6321704724409445
21
-3.764639527559055
0
LINE
8
BLACK
6
CONTINUOUS
10
5.6321704724409445
20
-3.764639527559055
11
5.6341277165354331
21
-3.7607982283464567
0
LINE
8
BLACK
6
CONTINUOUS
10
5.6341277165354331
20
-3.7607982283464567
11
5.6371761811023617
21
-3.7577497637795276
0
LINE
8
BLACK
6
CONTINUOUS
10
5.6371761811023617
20
-3.7577497637795276
11
5.6410174803149609
21
-3.7557925196850395
0
LINE
8
BLACK
6
CONTINUOUS
10
5.6410174803149609
20
-3.7557925196850395
11
5.6452755905511811
21
-3.7551181102362206
0
LINE
8
BLACK
6
CONTINUOUS
10
5.6452755905511811
20
-3.7551181102362206
11
5.6495337007874014
21
-3.7557925196850395
0
LINE
8
BLACK
6
CONTINUOUS
10
5.9369352755905513
20
-3.7557925196850395
11
5.9407765748031496
21
-3.7577497637795276
0
LINE
8
BLACK
6
CONTINUOUS
10
5.9407765748031496
20
-3.7577497637795276
11
5.9438250393700782
21
-3.7607982283464567
0
LINE
8
BLACK
6
CONTINUOUS
10
5.9438250393700782
20
-3.7607982283464567
11
5.9457822834645668
21
-3.764639527559055
0
LINE
8
BLACK
6
CONTINUOUS
10
5.9457822834645668
20
-3.764639527559055
11
5.9464566929133857
21
-3.7688976377952756
0
LINE
8
BLACK
6
CONTINUOUS
10
5.9464566929133857
20
-3.7688976377952756
11
5.9457822834645668
21
-3.7731557480314959
0
LINE
8
BLACK
6
CONTINUOUS
10
5.9457822834645668
20
-3.7731557480314959
11
5.9438250393700782
21
-3.7769970472440946
0
LINE
8
BLACK
6
CONTINUOUS
10
5.9438250393700782
20
-3.7769970472440946
11
5.9407765748031496
21
-3.7800455118110237
0
LINE
8
BLACK
6
CONTINUOUS
10
5.9407765748031496
20
-3.7800455118110237
11
5.9369352755905513
21
-3.7820027559055118
0
LINE
8
BLACK
6
CONTINUOUS
10
5.9369352755905513
20
-3.7820027559055118
11
5.9326771653543302
21
-3.7826771653543307
0
LINE
8
BLACK
6
CONTINUOUS
10
5.9326771653543302
20
-3.7826771653543307
11
5.92841905511811
21
-3.7820027559055118
0
LINE
8
BLACK
6
CONTINUOUS
10
5.92841905511811
20
-3.7820027559055118
11
5.9245777559055117
21
-3.7800455118110237
0
LINE
8
BLACK
6
CONTINUOUS
10
5.9245777559055117
20
-3.7800455118110237
11
5.9215292913385822
21
-3.7769970472440946
0
LINE
8
BLACK
6
CONTINUOUS
10
5.9215292913385822
20
-3.7769970472440946
11
5.9195720472440945
21
-3.7731557480314959
0
LINE
8
BLACK
6
CONTINUOUS
10
5.9195720472440945
20
-3.7731557480314959
11
5.9188976377952756
21
-3.7688976377952756
0
LINE
8
BLACK
6
CONTINUOUS
10
5.9188976377952756
20
-3.7688976377952756
11
5.9195720472440945
21
-3.764639527559055
0
LINE
8
BLACK
6
CONTINUOUS
10
5.9195720472440945
20
-3.764639527559055
11
5.9215292913385822
21
-3.7607982283464567
0
LINE
8
BLACK
6
CONTINUOUS
10
5.9215292913385822
20
-3.7607982283464567
11
5.9245777559055117
21
-3.7577497637795276
0
LINE
8
BLACK
6
CONTINUOUS
10
5.9245777559055117
20
-3.7577497637795276
11
5.92841905511811
21
-3.7557925196850395
0
LINE
8
BLACK
6
CONTINUOUS
10
5.92841905511811
20
-3.7557925196850395
11
5.9326771653543302
21
-3.7551181102362206
0
LINE
8
BLACK
6
CONTINUOUS
10
5.9326771653543302
20
-3.7551181102362206
11
5.9369352755905513
21
-3.7557925196850395
  0
ENDSEC
  0
EOF
