  0
SECTION
  2
HEADER
  9
$ANGBASE
  50
0.0
  9
$ANGDIR
  70
1
  9
$MEASUREMENT
  70
0
  0
ENDSEC
  0
SECTION
  2
TABLES
  0
TABLE
  2
LTYPE
  70
4
  0
LTYPE
  5
40F
  2
CONTINUOUS
  70
0
  3
Solid line
  72
65
  73
0
  40
0.0
  0
LTYPE
  5
410
  2
DASHDOT
 70
0
  3
Dash Dot ____ _ ____ _
 72
65
 73
4
 40
2.0
 49
1.25
 49
-0.25
 49
0.25
 49
-0.25
  0
LTYPE
  5
411
  2
DASHED
 70
0
  3
Dashed __ __ __ __ __
 72
65
 73
2
 40
0.75
 49
0.5
 49
-0.25
  0
LTYPE
  5
43B
  2
DOTTED
 70
0
  3
Dotted .  .  .  .
 72
65
 73
2
 40
0.2
 49
0.0
 49
-0.2
  0
ENDTAB
  0
TABLE
  2
STYLE
  70
4
  0
STYLE
  2
KICAD
  70
0
  40
0
  41
1
  42
1
  50
0
  71
0
  3
isocp.shx
  0
STYLE
  2
KICADB
  70
0
  40
0
  41
1
  42
1
  50
0
  71
0
  3
isocp.shx
  0
STYLE
  2
KICADI
  70
0
  40
0
  41
1
  42
1
  50
15
  71
0
  3
isocp.shx
  0
STYLE
  2
KICADBI
  70
0
  40
0
  41
1
  42
1
  50
15
  71
0
  3
isocp.shx
  0
ENDTAB
  0
TABLE
  2
LAYER
  70
1
  0
LAYER
  2
BLACK
  70
0
  62
7
  6
CONTINUOUS
  0
ENDTAB
  0
ENDSEC
  0
SECTION
  2
ENTITIES
0
LINE
8
BLACK
6
CONTINUOUS
10
6.213900433070866
20
-3.8079234645669291
11
6.2139992125984254
21
-3.8079087795275588
0
LINE
8
BLACK
6
CONTINUOUS
10
6.2139992125984254
20
-3.8079087795275588
11
6.2154989763779529
21
-3.8082837401574801
0
LINE
8
BLACK
6
CONTINUOUS
10
6.2154989763779529
20
-3.8082837401574801
11
6.2155708661417322
21
-3.8083369685039368
0
LINE
8
BLACK
6
CONTINUOUS
10
6.2155708661417322
20
-3.8083369685039368
11
6.2156601574803148
21
-3.8083433464566929
0
LINE
8
BLACK
6
CONTINUOUS
10
6.2156601574803148
20
-3.8083433464566929
11
6.2164100787401573
21
-3.8087182677165354
0
LINE
8
BLACK
6
CONTINUOUS
10
6.2164100787401573
20
-3.8087182677165354
11
6.2164950000000001
21
-3.8088161811023622
0
LINE
8
BLACK
6
CONTINUOUS
10
6.2164950000000001
20
-3.8088161811023622
11
6.2166147244094487
21
-3.8088657874015746
0
LINE
8
BLACK
6
CONTINUOUS
10
6.2166147244094487
20
-3.8088657874015746
11
6.2173646456692913
21
-3.8096157086614171
0
LINE
8
BLACK
6
CONTINUOUS
10
6.2173646456692913
20
-3.8096157086614171
11
6.2174347637795275
21
-3.8097849999999998
0
LINE
8
BLACK
6
CONTINUOUS
10
6.2174347637795275
20
-3.8097849999999998
11
6.2175548818897637
21
-3.8099235039370076
0
LINE
8
BLACK
6
CONTINUOUS
10
6.2175548818897637
20
-3.8099235039370076
11
6.2179298031496062
21
-3.8110483464566927
0
LINE
8
BLACK
6
CONTINUOUS
10
6.2179298031496062
20
-3.8110483464566927
11
6.2179205905511807
21
-3.8111775984251968
0
LINE
8
BLACK
6
CONTINUOUS
10
6.2179205905511807
20
-3.8111775984251968
11
6.217970196850394
21
-3.8112973228346454
0
LINE
8
BLACK
6
CONTINUOUS
10
6.217970196850394
20
-3.8112973228346454
11
6.217970196850394
21
-3.813172086614173
0
LINE
8
BLACK
6
CONTINUOUS
10
6.217970196850394
20
-3.813172086614173
11
6.2177395669291338
21
-3.8137288582677162
0
LINE
8
BLACK
6
CONTINUOUS
10
6.2177395669291338
20
-3.8137288582677162
11
6.2171827952755905
21
-3.8139594881889765
0
LINE
8
BLACK
6
CONTINUOUS
10
6.2171827952755905
20
-3.8139594881889765
11
6.209308779527559
21
-3.8139594881889765
0
LINE
8
BLACK
6
CONTINUOUS
10
6.209308779527559
20
-3.8139594881889765
11
6.2087520078740157
21
-3.8137288582677162
0
LINE
8
BLACK
6
CONTINUOUS
10
6.2087520078740157
20
-3.8137288582677162
11
6.2085213779527555
21
-3.813172086614173
0
LINE
8
BLACK
6
CONTINUOUS
10
6.2085213779527555
20
-3.813172086614173
11
6.2085213779527555
21
-3.8112973228346454
0
LINE
8
BLACK
6
CONTINUOUS
10
6.2085213779527555
20
-3.8112973228346454
11
6.20857094488189
21
-3.8111775984251968
0
LINE
8
BLACK
6
CONTINUOUS
10
6.20857094488189
20
-3.8111775984251968
11
6.2085617716535433
21
-3.8110483070866139
0
LINE
8
BLACK
6
CONTINUOUS
10
6.2085617716535433
20
-3.8110483070866139
11
6.2089367716535433
21
-3.8099234645669289
0
LINE
8
BLACK
6
CONTINUOUS
10
6.2089367716535433
20
-3.8099234645669289
11
6.2090568110236219
21
-3.8097849999999998
0
LINE
8
BLACK
6
CONTINUOUS
10
6.2090568110236219
20
-3.8097849999999998
11
6.209126968503937
21
-3.8096157086614171
0
LINE
8
BLACK
6
CONTINUOUS
10
6.209126968503937
20
-3.8096157086614171
11
6.2098768897637795
21
-3.8088657874015746
0
LINE
8
BLACK
6
CONTINUOUS
10
6.2098768897637795
20
-3.8088657874015746
11
6.2099965748031494
21
-3.8088161811023622
0
LINE
8
BLACK
6
CONTINUOUS
10
6.2099965748031494
20
-3.8088161811023622
11
6.210081535433071
21
-3.8087182677165354
0
LINE
8
BLACK
6
CONTINUOUS
10
6.210081535433071
20
-3.8087182677165354
11
6.2108314173228347
21
-3.8083433464566929
0
LINE
8
BLACK
6
CONTINUOUS
10
6.2108314173228347
20
-3.8083433464566929
11
6.2109206299212598
21
-3.8083370078740155
0
LINE
8
BLACK
6
CONTINUOUS
10
6.2109206299212598
20
-3.8083370078740155
11
6.2109925590551178
21
-3.8082837401574801
0
LINE
8
BLACK
6
CONTINUOUS
10
6.2109925590551178
20
-3.8082837401574801
11
6.2124924015748029
21
-3.8079087795275588
0
LINE
8
BLACK
6
CONTINUOUS
10
6.2124924015748029
20
-3.8079087795275588
11
6.2125911417322834
21
-3.8079234645669291
0
LINE
8
BLACK
6
CONTINUOUS
10
6.2125911417322834
20
-3.8079234645669291
11
6.2126833858267716
21
-3.807885275590551
0
LINE
8
BLACK
6
CONTINUOUS
10
6.2126833858267716
20
-3.807885275590551
11
6.2138082283464566
21
-3.807885275590551
0
LINE
8
BLACK
6
CONTINUOUS
10
6.2138082283464566
20
-3.807885275590551
11
6.213900433070866
21
-3.8079234645669291
0
LINE
8
BLACK
6
CONTINUOUS
10
6.211458346456693
20
-3.8097905511811021
11
6.2108999999999996
21
-3.8100697244094488
0
LINE
8
BLACK
6
CONTINUOUS
10
6.2108999999999996
20
-3.8100697244094488
11
6.2103719685039369
21
-3.8105977952755903
0
LINE
8
BLACK
6
CONTINUOUS
10
6.2103719685039369
20
-3.8105977952755903
11
6.2100961811023625
21
-3.8114251574803149
0
LINE
8
BLACK
6
CONTINUOUS
10
6.2100961811023625
20
-3.8114251574803149
11
6.2100961811023625
21
-3.8123846850393699
0
LINE
8
BLACK
6
CONTINUOUS
10
6.2100961811023625
20
-3.8123846850393699
11
6.216395393700787
21
-3.8123846850393699
0
LINE
8
BLACK
6
CONTINUOUS
10
6.216395393700787
20
-3.8123846850393699
11
6.216395393700787
21
-3.8114250787401573
0
LINE
8
BLACK
6
CONTINUOUS
10
6.216395393700787
20
-3.8114250787401573
11
6.2161196062992126
21
-3.8105977559055115
0
LINE
8
BLACK
6
CONTINUOUS
10
6.2161196062992126
20
-3.8105977559055115
11
6.2155915354330711
21
-3.81006968503937
0
LINE
8
BLACK
6
CONTINUOUS
10
6.2155915354330711
20
-3.81006968503937
11
6.2150331889763777
21
-3.8097905511811021
0
LINE
8
BLACK
6
CONTINUOUS
10
6.2150331889763777
20
-3.8097905511811021
11
6.2137112598425199
21
-3.8094600787401576
0
LINE
8
BLACK
6
CONTINUOUS
10
6.2137112598425199
20
-3.8094600787401576
11
6.2127803149606295
21
-3.8094600787401576
0
LINE
8
BLACK
6
CONTINUOUS
10
6.2127803149606295
20
-3.8094600787401576
11
6.211458346456693
21
-3.8097905511811021
0
LINE
8
BLACK
6
CONTINUOUS
10
6.2099143700787396
20
-3.8042312598425196
11
6.2102404724409448
21
-3.8043663385826769
0
LINE
8
BLACK
6
CONTINUOUS
10
6.2102404724409448
20
-3.8043663385826769
11
6.2106154330708661
21
-3.8047412598425194
0
LINE
8
BLACK
6
CONTINUOUS
10
6.2106154330708661
20
-3.8047412598425194
11
6.2106154724409448
21
-3.8047412992125982
0
LINE
8
BLACK
6
CONTINUOUS
10
6.2106154724409448
20
-3.8047412992125982
11
6.2107505511811025
21
-3.8050674015748029
0
LINE
8
BLACK
6
CONTINUOUS
10
6.2107505511811025
20
-3.8050674015748029
11
6.210846102362205
21
-3.8052980314960627
0
LINE
8
BLACK
6
CONTINUOUS
10
6.210846102362205
20
-3.8052980314960627
11
6.2106155118110236
21
-3.805854803149606
0
LINE
8
BLACK
6
CONTINUOUS
10
6.2106155118110236
20
-3.805854803149606
11
6.2106154724409448
21
-3.805854803149606
0
LINE
8
BLACK
6
CONTINUOUS
10
6.2106154724409448
20
-3.805854803149606
11
6.2106154724409448
21
-3.8058548425196848
0
LINE
8
BLACK
6
CONTINUOUS
10
6.2106154724409448
20
-3.8058548425196848
11
6.2102405118110235
21
-3.806229803149606
0
LINE
8
BLACK
6
CONTINUOUS
10
6.2102405118110235
20
-3.806229803149606
11
6.2096837401574803
21
-3.8064604330708662
0
LINE
8
BLACK
6
CONTINUOUS
10
6.2096837401574803
20
-3.8064604330708662
11
6.209126968503937
21
-3.806229803149606
0
LINE
8
BLACK
6
CONTINUOUS
10
6.209126968503937
20
-3.806229803149606
11
6.2087520078740157
21
-3.8058548425196848
0
LINE
8
BLACK
6
CONTINUOUS
10
6.2087520078740157
20
-3.8058548425196848
11
6.208751968503937
21
-3.805854803149606
0
LINE
8
BLACK
6
CONTINUOUS
10
6.208751968503937
20
-3.805854803149606
11
6.2085213779527555
21
-3.8052980314960627
0
LINE
8
BLACK
6
CONTINUOUS
10
6.2085213779527555
20
-3.8052980314960627
11
6.2086168897637792
21
-3.8050674015748029
0
LINE
8
BLACK
6
CONTINUOUS
10
6.2086168897637792
20
-3.8050674015748029
11
6.2087520078740157
21
-3.8047412992125982
0
LINE
8
BLACK
6
CONTINUOUS
10
6.2087520078740157
20
-3.8047412992125982
11
6.2087520078740157
21
-3.8047412598425194
0
LINE
8
BLACK
6
CONTINUOUS
10
6.2087520078740157
20
-3.8047412598425194
11
6.2087520472440945
21
-3.8047412598425194
0
LINE
8
BLACK
6
CONTINUOUS
10
6.2087520472440945
20
-3.8047412598425194
11
6.209126968503937
21
-3.8043663385826769
0
LINE
8
BLACK
6
CONTINUOUS
10
6.209126968503937
20
-3.8043663385826769
11
6.209492677165354
21
-3.8042148818897639
0
LINE
8
BLACK
6
CONTINUOUS
10
6.209492677165354
20
-3.8042148818897639
11
6.2096837007874015
21
-3.8041357480314959
0
LINE
8
BLACK
6
CONTINUOUS
10
6.2096837007874015
20
-3.8041357480314959
11
6.209683779527559
21
-3.8041357480314959
0
LINE
8
BLACK
6
CONTINUOUS
10
6.209683779527559
20
-3.8041357480314959
11
6.2099143700787396
21
-3.8042312598425196
0
LINE
8
BLACK
6
CONTINUOUS
10
6.2177395669291338
20
-3.8047412992125982
11
6.217970196850394
21
-3.8052980708661415
0
LINE
8
BLACK
6
CONTINUOUS
10
6.217970196850394
20
-3.8052980708661415
11
6.2177395669291338
21
-3.8058548425196848
0
LINE
8
BLACK
6
CONTINUOUS
10
6.2177395669291338
20
-3.8058548425196848
11
6.2171827952755905
21
-3.806085472440945
0
LINE
8
BLACK
6
CONTINUOUS
10
6.2171827952755905
20
-3.806085472440945
11
6.2119334645669291
21
-3.806085472440945
0
LINE
8
BLACK
6
CONTINUOUS
10
6.2119334645669291
20
-3.806085472440945
11
6.2113766929133858
21
-3.8058548425196848
0
LINE
8
BLACK
6
CONTINUOUS
10
6.2113766929133858
20
-3.8058548425196848
11
6.2111460629921256
21
-3.8052980708661415
0
LINE
8
BLACK
6
CONTINUOUS
10
6.2111460629921256
20
-3.8052980708661415
11
6.2113766929133858
21
-3.8047412992125982
0
LINE
8
BLACK
6
CONTINUOUS
10
6.2113766929133858
20
-3.8047412992125982
11
6.2119334645669291
21
-3.8045106692913384
0
LINE
8
BLACK
6
CONTINUOUS
10
6.2119334645669291
20
-3.8045106692913384
11
6.2171827952755905
21
-3.8045106692913384
0
LINE
8
BLACK
6
CONTINUOUS
10
6.2171827952755905
20
-3.8045106692913384
11
6.2177395669291338
21
-3.8047412992125982
0
LINE
8
BLACK
6
CONTINUOUS
10
6.2288007086614172
20
-3.798367086614173
11
6.2291756692913385
21
-3.7987420472440943
0
LINE
8
BLACK
6
CONTINUOUS
10
6.2291756692913385
20
-3.7987420472440943
11
6.2292457874015748
21
-3.7989113385826769
0
LINE
8
BLACK
6
CONTINUOUS
10
6.2292457874015748
20
-3.7989113385826769
11
6.2293659055118109
21
-3.7990498425196848
0
LINE
8
BLACK
6
CONTINUOUS
10
6.2293659055118109
20
-3.7990498425196848
11
6.2297408267716534
21
-3.8001746850393698
0
LINE
8
BLACK
6
CONTINUOUS
10
6.2297408267716534
20
-3.8001746850393698
11
6.229731614173228
21
-3.8003039370078739
0
LINE
8
BLACK
6
CONTINUOUS
10
6.229731614173228
20
-3.8003039370078739
11
6.2297812204724412
21
-3.8004236614173226
0
LINE
8
BLACK
6
CONTINUOUS
10
6.2297812204724412
20
-3.8004236614173226
11
6.2297812204724412
21
-3.8011735826771651
0
LINE
8
BLACK
6
CONTINUOUS
10
6.2297812204724412
20
-3.8011735826771651
11
6.229731614173228
21
-3.8012932677165354
0
LINE
8
BLACK
6
CONTINUOUS
10
6.229731614173228
20
-3.8012932677165354
11
6.2297408267716534
21
-3.8014225590551178
0
LINE
8
BLACK
6
CONTINUOUS
10
6.2297408267716534
20
-3.8014225590551178
11
6.2293659055118109
21
-3.8025474015748029
0
LINE
8
BLACK
6
CONTINUOUS
10
6.2293659055118109
20
-3.8025474015748029
11
6.2292457874015748
21
-3.802685866141732
0
LINE
8
BLACK
6
CONTINUOUS
10
6.2292457874015748
20
-3.802685866141732
11
6.2291756692913385
21
-3.8028551968503934
0
LINE
8
BLACK
6
CONTINUOUS
10
6.2291756692913385
20
-3.8028551968503934
11
6.228425748031496
21
-3.8036051181102359
0
LINE
8
BLACK
6
CONTINUOUS
10
6.228425748031496
20
-3.8036051181102359
11
6.2283060236220473
21
-3.80365468503937
0
LINE
8
BLACK
6
CONTINUOUS
10
6.2283060236220473
20
-3.80365468503937
11
6.2282211023622045
21
-3.8037526377952755
0
LINE
8
BLACK
6
CONTINUOUS
10
6.2282211023622045
20
-3.8037526377952755
11
6.227471181102362
21
-3.804127559055118
0
LINE
8
BLACK
6
CONTINUOUS
10
6.227471181102362
20
-3.804127559055118
11
6.2273818897637794
21
-3.804133897637795
0
LINE
8
BLACK
6
CONTINUOUS
10
6.2273818897637794
20
-3.804133897637795
11
6.2273100000000001
21
-3.8041871653543304
0
LINE
8
BLACK
6
CONTINUOUS
10
6.2273100000000001
20
-3.8041871653543304
11
6.2258102362204726
21
-3.8045621259842517
0
LINE
8
BLACK
6
CONTINUOUS
10
6.2258102362204726
20
-3.8045621259842517
11
6.2257114566929133
21
-3.8045474015748031
0
LINE
8
BLACK
6
CONTINUOUS
10
6.2257114566929133
20
-3.8045474015748031
11
6.2256192519685039
21
-3.8045856299212599
0
LINE
8
BLACK
6
CONTINUOUS
10
6.2256192519685039
20
-3.8045856299212599
11
6.2244944094488188
21
-3.8045856299212599
0
LINE
8
BLACK
6
CONTINUOUS
10
6.2244944094488188
20
-3.8045856299212599
11
6.2244021653543307
21
-3.8045474015748031
0
LINE
8
BLACK
6
CONTINUOUS
10
6.2244021653543307
20
-3.8045474015748031
11
6.2243034251968501
21
-3.8045621259842517
0
LINE
8
BLACK
6
CONTINUOUS
10
6.2243034251968501
20
-3.8045621259842517
11
6.222803582677165
21
-3.8041871653543304
0
LINE
8
BLACK
6
CONTINUOUS
10
6.222803582677165
20
-3.8041871653543304
11
6.222731653543307
21
-3.8041338582677167
0
LINE
8
BLACK
6
CONTINUOUS
10
6.222731653543307
20
-3.8041338582677167
11
6.2226424409448819
21
-3.804127559055118
0
LINE
8
BLACK
6
CONTINUOUS
10
6.2226424409448819
20
-3.804127559055118
11
6.2218925590551182
21
-3.8037526377952755
0
LINE
8
BLACK
6
CONTINUOUS
10
6.2218925590551182
20
-3.8037526377952755
11
6.2218075984251966
21
-3.80365468503937
0
LINE
8
BLACK
6
CONTINUOUS
10
6.2218075984251966
20
-3.80365468503937
11
6.2216879133858267
21
-3.8036051181102359
0
LINE
8
BLACK
6
CONTINUOUS
10
6.2216879133858267
20
-3.8036051181102359
11
6.2209379921259842
21
-3.8028551968503934
0
LINE
8
BLACK
6
CONTINUOUS
10
6.2209379921259842
20
-3.8028551968503934
11
6.2208678346456692
21
-3.802685866141732
0
LINE
8
BLACK
6
CONTINUOUS
10
6.2208678346456692
20
-3.802685866141732
11
6.2207477952755905
21
-3.8025474409448816
0
LINE
8
BLACK
6
CONTINUOUS
10
6.2207477952755905
20
-3.8025474409448816
11
6.2203727952755905
21
-3.8014225984251966
0
LINE
8
BLACK
6
CONTINUOUS
10
6.2203727952755905
20
-3.8014225984251966
11
6.2203819685039372
21
-3.8012932677165354
0
LINE
8
BLACK
6
CONTINUOUS
10
6.2203819685039372
20
-3.8012932677165354
11
6.2203324015748027
21
-3.8011735826771651
0
LINE
8
BLACK
6
CONTINUOUS
10
6.2203324015748027
20
-3.8011735826771651
11
6.2203324015748027
21
-3.8004236614173226
0
LINE
8
BLACK
6
CONTINUOUS
10
6.2203324015748027
20
-3.8004236614173226
11
6.2203819685039372
21
-3.8003039370078739
0
LINE
8
BLACK
6
CONTINUOUS
10
6.2203819685039372
20
-3.8003039370078739
11
6.2203727952755905
21
-3.8001746456692911
0
LINE
8
BLACK
6
CONTINUOUS
10
6.2203727952755905
20
-3.8001746456692911
11
6.2207477952755905
21
-3.7990498031496061
0
LINE
8
BLACK
6
CONTINUOUS
10
6.2207477952755905
20
-3.7990498031496061
11
6.2208678346456692
21
-3.7989113385826769
0
LINE
8
BLACK
6
CONTINUOUS
10
6.2208678346456692
20
-3.7989113385826769
11
6.2209379921259842
21
-3.7987420472440943
0
LINE
8
BLACK
6
CONTINUOUS
10
6.2209379921259842
20
-3.7987420472440943
11
6.2213129527559055
21
-3.798367086614173
0
LINE
8
BLACK
6
CONTINUOUS
10
6.2213129527559055
20
-3.798367086614173
11
6.2218697244094487
21
-3.7981364566929132
0
LINE
8
BLACK
6
CONTINUOUS
10
6.2218697244094487
20
-3.7981364566929132
11
6.222426496062992
21
-3.798367086614173
0
LINE
8
BLACK
6
CONTINUOUS
10
6.222426496062992
20
-3.798367086614173
11
6.2226571259842522
21
-3.7989238582677163
0
LINE
8
BLACK
6
CONTINUOUS
10
6.2226571259842522
20
-3.7989238582677163
11
6.222426496062992
21
-3.7994806299212596
0
LINE
8
BLACK
6
CONTINUOUS
10
6.222426496062992
20
-3.7994806299212596
11
6.2221829921259841
21
-3.7997241338582675
0
LINE
8
BLACK
6
CONTINUOUS
10
6.2221829921259841
20
-3.7997241338582675
11
6.2219072047244097
21
-3.800551496062992
0
LINE
8
BLACK
6
CONTINUOUS
10
6.2219072047244097
20
-3.800551496062992
11
6.2219072047244097
21
-3.8010457480314961
0
LINE
8
BLACK
6
CONTINUOUS
10
6.2219072047244097
20
-3.8010457480314961
11
6.2221829921259841
21
-3.8018731102362202
0
LINE
8
BLACK
6
CONTINUOUS
10
6.2221829921259841
20
-3.8018731102362202
11
6.2227110236220469
21
-3.8024011417322834
0
LINE
8
BLACK
6
CONTINUOUS
10
6.2227110236220469
20
-3.8024011417322834
11
6.2232693700787403
21
-3.8026803149606296
0
LINE
8
BLACK
6
CONTINUOUS
10
6.2232693700787403
20
-3.8026803149606296
11
6.2245913385826768
21
-3.8030108267716534
0
LINE
8
BLACK
6
CONTINUOUS
10
6.2245913385826768
20
-3.8030108267716534
11
6.2255222834645672
21
-3.8030108267716534
0
LINE
8
BLACK
6
CONTINUOUS
10
6.2255222834645672
20
-3.8030108267716534
11
6.2268442125984249
21
-3.8026803149606296
0
LINE
8
BLACK
6
CONTINUOUS
10
6.2268442125984249
20
-3.8026803149606296
11
6.2274025590551183
21
-3.8024011811023621
0
LINE
8
BLACK
6
CONTINUOUS
10
6.2274025590551183
20
-3.8024011811023621
11
6.2279306299212598
21
-3.8018731102362202
0
LINE
8
BLACK
6
CONTINUOUS
10
6.2279306299212598
20
-3.8018731102362202
11
6.2282064173228342
21
-3.8010457874015748
0
LINE
8
BLACK
6
CONTINUOUS
10
6.2282064173228342
20
-3.8010457874015748
11
6.2282064173228342
21
-3.8005514173228345
0
LINE
8
BLACK
6
CONTINUOUS
10
6.2282064173228342
20
-3.8005514173228345
11
6.2279306299212598
21
-3.7997240944881887
0
LINE
8
BLACK
6
CONTINUOUS
10
6.2279306299212598
20
-3.7997240944881887
11
6.2276871653543306
21
-3.7994806299212596
0
LINE
8
BLACK
6
CONTINUOUS
10
6.2276871653543306
20
-3.7994806299212596
11
6.2274565354330704
21
-3.7989238582677163
0
LINE
8
BLACK
6
CONTINUOUS
10
6.2274565354330704
20
-3.7989238582677163
11
6.2276871653543306
21
-3.798367086614173
0
LINE
8
BLACK
6
CONTINUOUS
10
6.2276871653543306
20
-3.798367086614173
11
6.2282439370078739
21
-3.7981364566929132
0
LINE
8
BLACK
6
CONTINUOUS
10
6.2282439370078739
20
-3.7981364566929132
11
6.2288007086614172
21
-3.798367086614173
0
LINE
8
BLACK
6
CONTINUOUS
10
6.2035031496062993
20
-3.7966780314960631
11
6.2036104330708657
21
-3.7966644094488187
0
LINE
8
BLACK
6
CONTINUOUS
10
6.2036104330708657
20
-3.7966644094488187
11
6.2037716141732284
21
-3.7967892125984251
0
LINE
8
BLACK
6
CONTINUOUS
10
6.2037716141732284
20
-3.7967892125984251
11
6.2039600393700782
21
-3.7968672834645667
0
LINE
8
BLACK
6
CONTINUOUS
10
6.2039600393700782
20
-3.7968672834645667
11
6.2040013779527561
21
-3.7969671653543307
0
LINE
8
BLACK
6
CONTINUOUS
10
6.2040013779527561
20
-3.7969671653543307
11
6.2040869291338581
21
-3.7970333858267717
0
LINE
8
BLACK
6
CONTINUOUS
10
6.2040869291338581
20
-3.7970333858267717
11
6.2041126377952756
21
-3.7972356692913385
0
LINE
8
BLACK
6
CONTINUOUS
10
6.2041126377952756
20
-3.7972356692913385
11
6.2041906692913384
21
-3.79742405511811
0
LINE
8
BLACK
6
CONTINUOUS
10
6.2041906692913384
20
-3.79742405511811
11
6.204149251968504
21
-3.7975239370078739
0
LINE
8
BLACK
6
CONTINUOUS
10
6.204149251968504
20
-3.7975239370078739
11
6.2041629133858267
21
-3.7976312204724407
0
LINE
8
BLACK
6
CONTINUOUS
10
6.2041629133858267
20
-3.7976312204724407
11
6.204038070866142
21
-3.797792401574803
0
LINE
8
BLACK
6
CONTINUOUS
10
6.204038070866142
20
-3.797792401574803
11
6.2039600393700782
21
-3.7979808267716533
0
LINE
8
BLACK
6
CONTINUOUS
10
6.2039600393700782
20
-3.7979808267716533
11
6.203860118110236
21
-3.7980221653543307
0
LINE
8
BLACK
6
CONTINUOUS
10
6.203860118110236
20
-3.7980221653543307
11
6.2037939370078741
21
-3.7981077165354331
0
LINE
8
BLACK
6
CONTINUOUS
10
6.2037939370078741
20
-3.7981077165354331
11
6.1984942913385828
21
-3.8011360629921258
0
LINE
8
BLACK
6
CONTINUOUS
10
6.1984942913385828
20
-3.8011360629921258
11
6.2034032677165349
21
-3.8011360629921258
0
LINE
8
BLACK
6
CONTINUOUS
10
6.2034032677165349
20
-3.8011360629921258
11
6.2039600393700782
21
-3.8013666929133856
0
LINE
8
BLACK
6
CONTINUOUS
10
6.2039600393700782
20
-3.8013666929133856
11
6.2041906692913384
21
-3.8019234645669289
0
LINE
8
BLACK
6
CONTINUOUS
10
6.2041906692913384
20
-3.8019234645669289
11
6.2039600393700782
21
-3.8024802362204722
0
LINE
8
BLACK
6
CONTINUOUS
10
6.2039600393700782
20
-3.8024802362204722
11
6.2034032677165349
21
-3.8027108661417324
0
LINE
8
BLACK
6
CONTINUOUS
10
6.2034032677165349
20
-3.8027108661417324
11
6.1955292519685035
21
-3.8027108661417324
0
LINE
8
BLACK
6
CONTINUOUS
10
6.1955292519685035
20
-3.8027108661417324
11
6.1954293307086612
21
-3.8026694488188975
0
LINE
8
BLACK
6
CONTINUOUS
10
6.1954293307086612
20
-3.8026694488188975
11
6.1953220866141727
21
-3.8026831102362202
0
LINE
8
BLACK
6
CONTINUOUS
10
6.1953220866141727
20
-3.8026831102362202
11
6.1951608661417321
21
-3.8025582677165355
0
LINE
8
BLACK
6
CONTINUOUS
10
6.1951608661417321
20
-3.8025582677165355
11
6.1949724803149602
21
-3.8024802362204722
0
LINE
8
BLACK
6
CONTINUOUS
10
6.1949724803149602
20
-3.8024802362204722
11
6.1949311023622045
21
-3.8023803149606299
0
LINE
8
BLACK
6
CONTINUOUS
10
6.1949311023622045
20
-3.8023803149606299
11
6.1948455905511812
21
-3.8023141338582676
0
LINE
8
BLACK
6
CONTINUOUS
10
6.1948455905511812
20
-3.8023141338582676
11
6.194819842519685
21
-3.8021118110236221
0
LINE
8
BLACK
6
CONTINUOUS
10
6.194819842519685
20
-3.8021118110236221
11
6.1947418503937008
21
-3.8019234645669289
0
LINE
8
BLACK
6
CONTINUOUS
10
6.1947418503937008
20
-3.8019234645669289
11
6.1947832283464566
21
-3.8018235433070866
0
LINE
8
BLACK
6
CONTINUOUS
10
6.1947832283464566
20
-3.8018235433070866
11
6.1947696062992126
21
-3.8017162992125981
0
LINE
8
BLACK
6
CONTINUOUS
10
6.1947696062992126
20
-3.8017162992125981
11
6.1948944094488185
21
-3.8015550787401575
0
LINE
8
BLACK
6
CONTINUOUS
10
6.1948944094488185
20
-3.8015550787401575
11
6.1949724803149602
21
-3.8013666929133856
0
LINE
8
BLACK
6
CONTINUOUS
10
6.1949724803149602
20
-3.8013666929133856
11
6.1950723622047246
21
-3.8013253149606299
0
LINE
8
BLACK
6
CONTINUOUS
10
6.1950723622047246
20
-3.8013253149606299
11
6.1951385826771652
21
-3.8012398031496062
0
LINE
8
BLACK
6
CONTINUOUS
10
6.1951385826771652
20
-3.8012398031496062
11
6.2004382283464565
21
-3.7982114566929135
0
LINE
8
BLACK
6
CONTINUOUS
10
6.2004382283464565
20
-3.7982114566929135
11
6.1955292519685035
21
-3.7982114566929135
0
LINE
8
BLACK
6
CONTINUOUS
10
6.1955292519685035
20
-3.7982114566929135
11
6.1949724803149602
21
-3.7979808267716533
0
LINE
8
BLACK
6
CONTINUOUS
10
6.1949724803149602
20
-3.7979808267716533
11
6.1947418503937008
21
-3.79742405511811
0
LINE
8
BLACK
6
CONTINUOUS
10
6.1947418503937008
20
-3.79742405511811
11
6.1949724803149602
21
-3.7968672834645667
0
LINE
8
BLACK
6
CONTINUOUS
10
6.1949724803149602
20
-3.7968672834645667
11
6.1955292519685035
21
-3.7966366535433069
0
LINE
8
BLACK
6
CONTINUOUS
10
6.1955292519685035
20
-3.7966366535433069
11
6.2034032677165349
21
-3.7966366535433069
0
LINE
8
BLACK
6
CONTINUOUS
10
6.2034032677165349
20
-3.7966366535433069
11
6.2035031496062993
21
-3.7966780314960631
0
LINE
8
BLACK
6
CONTINUOUS
10
6.2124902362204724
20
-3.798742086614173
11
6.2127208661417326
21
-3.7992988582677163
0
LINE
8
BLACK
6
CONTINUOUS
10
6.2127208661417326
20
-3.7992988582677163
11
6.2127208661417326
21
-3.7998628346456691
0
LINE
8
BLACK
6
CONTINUOUS
10
6.2127208661417326
20
-3.7998628346456691
11
6.2129555511811025
21
-3.8003322440944882
0
LINE
8
BLACK
6
CONTINUOUS
10
6.2129555511811025
20
-3.8003322440944882
11
6.2131497244094485
21
-3.8005264173228346
0
LINE
8
BLACK
6
CONTINUOUS
10
6.2131497244094485
20
-3.8005264173228346
11
6.2136191732283459
21
-3.8007611417322833
0
LINE
8
BLACK
6
CONTINUOUS
10
6.2136191732283459
20
-3.8007611417322833
11
6.2171827952755905
21
-3.8007611417322833
0
LINE
8
BLACK
6
CONTINUOUS
10
6.2171827952755905
20
-3.8007611417322833
11
6.2177395669291338
21
-3.8009917716535431
0
LINE
8
BLACK
6
CONTINUOUS
10
6.2177395669291338
20
-3.8009917716535431
11
6.217970196850394
21
-3.8015485433070864
0
LINE
8
BLACK
6
CONTINUOUS
10
6.217970196850394
20
-3.8015485433070864
11
6.2177395669291338
21
-3.8021053149606296
0
LINE
8
BLACK
6
CONTINUOUS
10
6.2177395669291338
20
-3.8021053149606296
11
6.2171827952755905
21
-3.8023359448818899
0
LINE
8
BLACK
6
CONTINUOUS
10
6.2171827952755905
20
-3.8023359448818899
11
6.2119334645669291
21
-3.8023359448818899
0
LINE
8
BLACK
6
CONTINUOUS
10
6.2119334645669291
20
-3.8023359448818899
11
6.2113766929133858
21
-3.8021053149606296
0
LINE
8
BLACK
6
CONTINUOUS
10
6.2113766929133858
20
-3.8021053149606296
11
6.2111460629921256
21
-3.8015485433070864
0
LINE
8
BLACK
6
CONTINUOUS
10
6.2111460629921256
20
-3.8015485433070864
11
6.2113766929133858
21
-3.8009917716535431
0
LINE
8
BLACK
6
CONTINUOUS
10
6.2113766929133858
20
-3.8009917716535431
11
6.211499212598425
21
-3.8009409842519686
0
LINE
8
BLACK
6
CONTINUOUS
10
6.211499212598425
20
-3.8009409842519686
11
6.2112291732283467
21
-3.8004008661417323
0
LINE
8
BLACK
6
CONTINUOUS
10
6.2112291732283467
20
-3.8004008661417323
11
6.2112161811023618
21
-3.8002180314960627
0
LINE
8
BLACK
6
CONTINUOUS
10
6.2112161811023618
20
-3.8002180314960627
11
6.2111460629921256
21
-3.8000487401574801
0
LINE
8
BLACK
6
CONTINUOUS
10
6.2111460629921256
20
-3.8000487401574801
11
6.2111460629921256
21
-3.7992988582677163
0
LINE
8
BLACK
6
CONTINUOUS
10
6.2111460629921256
20
-3.7992988582677163
11
6.2113766929133858
21
-3.798742086614173
0
LINE
8
BLACK
6
CONTINUOUS
10
6.2113766929133858
20
-3.798742086614173
11
6.2119334645669291
21
-3.7985114566929132
0
LINE
8
BLACK
6
CONTINUOUS
10
6.2119334645669291
20
-3.7985114566929132
11
6.2124902362204724
21
-3.798742086614173
0
LINE
8
BLACK
6
CONTINUOUS
10
6.2140199999999997
20
-3.7925998818897635
11
6.214245
21
-3.792644409448819
0
LINE
8
BLACK
6
CONTINUOUS
10
6.214245
20
-3.792644409448819
11
6.2142900787401576
21
-3.792711771653543
0
LINE
8
BLACK
6
CONTINUOUS
10
6.2142900787401576
20
-3.792711771653543
11
6.2143649999999999
21
-3.7927427952755903
0
LINE
8
BLACK
6
CONTINUOUS
10
6.2143649999999999
20
-3.7927427952755903
11
6.2144527165354333
21
-3.7929545669291338
0
LINE
8
BLACK
6
CONTINUOUS
10
6.2144527165354333
20
-3.7929545669291338
11
6.2145803543307085
21
-3.793145157480315
0
LINE
8
BLACK
6
CONTINUOUS
10
6.2145803543307085
20
-3.793145157480315
11
6.2152036614173225
21
-3.7962616929133857
0
LINE
8
BLACK
6
CONTINUOUS
10
6.2152036614173225
20
-3.7962616929133857
11
6.215872047244094
21
-3.7962616929133857
0
LINE
8
BLACK
6
CONTINUOUS
10
6.215872047244094
20
-3.7962616929133857
11
6.2162209448818899
21
-3.7960872440944882
0
LINE
8
BLACK
6
CONTINUOUS
10
6.2162209448818899
20
-3.7960872440944882
11
6.216395393700787
21
-3.7957383464566927
0
LINE
8
BLACK
6
CONTINUOUS
10
6.216395393700787
20
-3.7957383464566927
11
6.216395393700787
21
-3.7946103149606296
0
LINE
8
BLACK
6
CONTINUOUS
10
6.216395393700787
20
-3.7946103149606296
11
6.2161035826771656
21
-3.7940266535433071
0
LINE
8
BLACK
6
CONTINUOUS
10
6.2161035826771656
20
-3.7940266535433071
11
6.216060905511811
21
-3.7934255118110234
0
LINE
8
BLACK
6
CONTINUOUS
10
6.216060905511811
20
-3.7934255118110234
11
6.2164557480314961
21
-3.7929702362204725
0
LINE
8
BLACK
6
CONTINUOUS
10
6.2164557480314961
20
-3.7929702362204725
11
6.2170568897637795
21
-3.7929275590551179
0
LINE
8
BLACK
6
CONTINUOUS
10
6.2170568897637795
20
-3.7929275590551179
11
6.2175121653543304
21
-3.793322401574803
0
LINE
8
BLACK
6
CONTINUOUS
10
6.2175121653543304
20
-3.793322401574803
11
6.2178870866141729
21
-3.7940723622047243
0
LINE
8
BLACK
6
CONTINUOUS
10
6.2178870866141729
20
-3.7940723622047243
11
6.217900039370079
21
-3.794255118110236
0
LINE
8
BLACK
6
CONTINUOUS
10
6.217900039370079
20
-3.794255118110236
11
6.217970196850394
21
-3.7944244488188974
0
LINE
8
BLACK
6
CONTINUOUS
10
6.217970196850394
20
-3.7944244488188974
11
6.217970196850394
21
-3.7959242519685037
0
LINE
8
BLACK
6
CONTINUOUS
10
6.217970196850394
20
-3.7959242519685037
11
6.217900039370079
21
-3.7960935433070864
0
LINE
8
BLACK
6
CONTINUOUS
10
6.217900039370079
20
-3.7960935433070864
11
6.2178870866141729
21
-3.796276377952756
0
LINE
8
BLACK
6
CONTINUOUS
10
6.2178870866141729
20
-3.796276377952756
11
6.2175121653543304
21
-3.7970262598425197
0
LINE
8
BLACK
6
CONTINUOUS
10
6.2175121653543304
20
-3.7970262598425197
11
6.2173235433070868
21
-3.7971898031496063
0
LINE
8
BLACK
6
CONTINUOUS
10
6.2173235433070868
20
-3.7971898031496063
11
6.2171599999999998
21
-3.7973784251968503
0
LINE
8
BLACK
6
CONTINUOUS
10
6.2171599999999998
20
-3.7973784251968503
11
6.2164100787401573
21
-3.7977533858267716
0
LINE
8
BLACK
6
CONTINUOUS
10
6.2164100787401573
20
-3.7977533858267716
11
6.2162272440944877
21
-3.7977663385826772
0
LINE
8
BLACK
6
CONTINUOUS
10
6.2162272440944877
20
-3.7977663385826772
11
6.2160579527559054
21
-3.7978364960629922
0
LINE
8
BLACK
6
CONTINUOUS
10
6.2160579527559054
20
-3.7978364960629922
11
6.2130583070866141
21
-3.7978364960629922
0
LINE
8
BLACK
6
CONTINUOUS
10
6.2130583070866141
20
-3.7978364960629922
11
6.2128888976377947
21
-3.7977662992125985
0
LINE
8
BLACK
6
CONTINUOUS
10
6.2128888976377947
20
-3.7977662992125985
11
6.2127061417322835
21
-3.7977533464566928
0
LINE
8
BLACK
6
CONTINUOUS
10
6.2127061417322835
20
-3.7977533464566928
11
6.2119562598425198
21
-3.7973783858267716
0
LINE
8
BLACK
6
CONTINUOUS
10
6.2119562598425198
20
-3.7973783858267716
11
6.2117926377952752
21
-3.7971897244094488
0
LINE
8
BLACK
6
CONTINUOUS
10
6.2117926377952752
20
-3.7971897244094488
11
6.2116041338582679
21
-3.7970262598425197
0
LINE
8
BLACK
6
CONTINUOUS
10
6.2116041338582679
20
-3.7970262598425197
11
6.2112292125984254
21
-3.7962764173228347
0
LINE
8
BLACK
6
CONTINUOUS
10
6.2112292125984254
20
-3.7962764173228347
11
6.2112161811023618
21
-3.7960935826771651
0
LINE
8
BLACK
6
CONTINUOUS
10
6.2112161811023618
20
-3.7960935826771651
11
6.2111460629921256
21
-3.7959242519685037
0
LINE
8
BLACK
6
CONTINUOUS
10
6.2111460629921256
20
-3.7959242519685037
11
6.2111460629921256
21
-3.7944244488188974
0
LINE
8
BLACK
6
CONTINUOUS
10
6.2111460629921256
20
-3.7944244488188974
11
6.2112161811023618
21
-3.794255118110236
0
LINE
8
BLACK
6
CONTINUOUS
10
6.2112161811023618
20
-3.794255118110236
11
6.2112291732283467
21
-3.7940723228346456
0
LINE
8
BLACK
6
CONTINUOUS
10
6.2112291732283467
20
-3.7940723228346456
11
6.2116041338582679
21
-3.793322401574803
0
LINE
8
BLACK
6
CONTINUOUS
10
6.2116041338582679
20
-3.793322401574803
11
6.211792677165354
21
-3.7931588188976377
0
LINE
8
BLACK
6
CONTINUOUS
10
6.211792677165354
20
-3.7931588188976377
11
6.2119562598425198
21
-3.7929702755905512
0
LINE
8
BLACK
6
CONTINUOUS
10
6.2119562598425198
20
-3.7929702755905512
11
6.2127061417322835
21
-3.79259531496063
0
LINE
8
BLACK
6
CONTINUOUS
10
6.2127061417322835
20
-3.79259531496063
11
6.2128888976377947
21
-3.7925823228346456
0
LINE
8
BLACK
6
CONTINUOUS
10
6.2128888976377947
20
-3.7925823228346456
11
6.2130583070866141
21
-3.7925121653543306
0
LINE
8
BLACK
6
CONTINUOUS
10
6.2130583070866141
20
-3.7925121653543306
11
6.2138082283464566
21
-3.7925121653543306
0
LINE
8
BLACK
6
CONTINUOUS
10
6.2138082283464566
20
-3.7925121653543306
11
6.2140199999999997
21
-3.7925998818897635
0
LINE
8
BLACK
6
CONTINUOUS
10
6.2128953149606296
20
-3.7942613779527559
11
6.2127208661417326
21
-3.7946103149606296
0
LINE
8
BLACK
6
CONTINUOUS
10
6.2127208661417326
20
-3.7946103149606296
11
6.2127208661417326
21
-3.7957383464566927
0
LINE
8
BLACK
6
CONTINUOUS
10
6.2127208661417326
20
-3.7957383464566927
11
6.2128952755905509
21
-3.7960872047244094
0
LINE
8
BLACK
6
CONTINUOUS
10
6.2128952755905509
20
-3.7960872047244094
11
6.2132442125984246
21
-3.7962616929133857
0
LINE
8
BLACK
6
CONTINUOUS
10
6.2132442125984246
20
-3.7962616929133857
11
6.2135976377952753
21
-3.7962616929133857
0
LINE
8
BLACK
6
CONTINUOUS
10
6.2135976377952753
20
-3.7962616929133857
11
6.2131700787401574
21
-3.7941240157480314
0
LINE
8
BLACK
6
CONTINUOUS
10
6.2131700787401574
20
-3.7941240157480314
11
6.2128953149606296
21
-3.7942613779527559
0
LINE
8
BLACK
6
CONTINUOUS
10
6.1803379921259838
20
-3.7919928740157478
11
6.18322968503937
21
-3.7948845275590548
0
LINE
8
BLACK
6
CONTINUOUS
10
6.18322968503937
20
-3.7948845275590548
11
6.1871827952755902
21
-3.7919197244094489
0
LINE
8
BLACK
6
CONTINUOUS
10
6.1871827952755902
20
-3.7919197244094489
11
6.1877665748031498
21
-3.7917701574803151
0
LINE
8
BLACK
6
CONTINUOUS
10
6.1877665748031498
20
-3.7917701574803151
11
6.1882851574803146
21
-3.7920772047244093
0
LINE
8
BLACK
6
CONTINUOUS
10
6.1882851574803146
20
-3.7920772047244093
11
6.1884346850393701
21
-3.7926610236220473
0
LINE
8
BLACK
6
CONTINUOUS
10
6.1884346850393701
20
-3.7926610236220473
11
6.1881276771653546
21
-3.7931795669291337
0
LINE
8
BLACK
6
CONTINUOUS
10
6.1881276771653546
20
-3.7931795669291337
11
6.184354527559055
21
-3.7960094094488186
0
LINE
8
BLACK
6
CONTINUOUS
10
6.184354527559055
20
-3.7960094094488186
11
6.1846068110236221
21
-3.7962616535433069
0
LINE
8
BLACK
6
CONTINUOUS
10
6.1846068110236221
20
-3.7962616535433069
11
6.187655236220472
21
-3.7962616535433069
0
LINE
8
BLACK
6
CONTINUOUS
10
6.187655236220472
20
-3.7962616535433069
11
6.1882120078740153
21
-3.7964922834645667
0
LINE
8
BLACK
6
CONTINUOUS
10
6.1882120078740153
20
-3.7964922834645667
11
6.1884426377952755
21
-3.79704905511811
0
LINE
8
BLACK
6
CONTINUOUS
10
6.1884426377952755
20
-3.79704905511811
11
6.1882120078740153
21
-3.7976058267716533
0
LINE
8
BLACK
6
CONTINUOUS
10
6.1882120078740153
20
-3.7976058267716533
11
6.187655236220472
21
-3.7978364566929135
0
LINE
8
BLACK
6
CONTINUOUS
10
6.187655236220472
20
-3.7978364566929135
11
6.1842806692913381
21
-3.7978364566929135
0
LINE
8
BLACK
6
CONTINUOUS
10
6.1842806692913381
20
-3.7978364566929135
11
6.1797812204724405
21
-3.7978364566929135
0
LINE
8
BLACK
6
CONTINUOUS
10
6.1797812204724405
20
-3.7978364566929135
11
6.1792244488188972
21
-3.7976058267716533
0
LINE
8
BLACK
6
CONTINUOUS
10
6.1792244488188972
20
-3.7976058267716533
11
6.1789938188976379
21
-3.79704905511811
0
LINE
8
BLACK
6
CONTINUOUS
10
6.1789938188976379
20
-3.79704905511811
11
6.1792244488188972
21
-3.7964922834645667
0
LINE
8
BLACK
6
CONTINUOUS
10
6.1792244488188972
20
-3.7964922834645667
11
6.1797812204724405
21
-3.7962616535433069
0
LINE
8
BLACK
6
CONTINUOUS
10
6.1797812204724405
20
-3.7962616535433069
11
6.1823797244094489
21
-3.7962616535433069
0
LINE
8
BLACK
6
CONTINUOUS
10
6.1823797244094489
20
-3.7962616535433069
11
6.1792244488188972
21
-3.7931064173228344
0
LINE
8
BLACK
6
CONTINUOUS
10
6.1792244488188972
20
-3.7931064173228344
11
6.1789938188976379
21
-3.7925496456692911
0
LINE
8
BLACK
6
CONTINUOUS
10
6.1789938188976379
20
-3.7925496456692911
11
6.1792244488188972
21
-3.7919928740157478
0
LINE
8
BLACK
6
CONTINUOUS
10
6.1792244488188972
20
-3.7919928740157478
11
6.1797812204724405
21
-3.791762244094488
0
LINE
8
BLACK
6
CONTINUOUS
10
6.1797812204724405
20
-3.791762244094488
11
6.1803379921259838
21
-3.7919928740157478
0
LINE
8
BLACK
6
CONTINUOUS
10
6.2276633070866136
20
-3.7910824409448818
11
6.2278461417322832
21
-3.7910954330708662
0
LINE
8
BLACK
6
CONTINUOUS
10
6.2278461417322832
20
-3.7910954330708662
11
6.2285960629921258
21
-3.7914703937007874
0
LINE
8
BLACK
6
CONTINUOUS
10
6.2285960629921258
20
-3.7914703937007874
11
6.2286809842519686
21
-3.7915683070866142
0
LINE
8
BLACK
6
CONTINUOUS
10
6.2286809842519686
20
-3.7915683070866142
11
6.2288007086614172
21
-3.7916179133858265
0
LINE
8
BLACK
6
CONTINUOUS
10
6.2288007086614172
20
-3.7916179133858265
11
6.2291756692913385
21
-3.7919928740157478
0
LINE
8
BLACK
6
CONTINUOUS
10
6.2291756692913385
20
-3.7919928740157478
11
6.2292252362204721
21
-3.7921125590551181
0
LINE
8
BLACK
6
CONTINUOUS
10
6.2292252362204721
20
-3.7921125590551181
11
6.2293231889763776
21
-3.7921975196850393
0
LINE
8
BLACK
6
CONTINUOUS
10
6.2293231889763776
20
-3.7921975196850393
11
6.2296981102362201
21
-3.7929474803149605
0
LINE
8
BLACK
6
CONTINUOUS
10
6.2296981102362201
20
-3.7929474803149605
11
6.2297110629921262
21
-3.7931302362204722
0
LINE
8
BLACK
6
CONTINUOUS
10
6.2297110629921262
20
-3.7931302362204722
11
6.2297812204724412
21
-3.7932995669291336
0
LINE
8
BLACK
6
CONTINUOUS
10
6.2297812204724412
20
-3.7932995669291336
11
6.2297812204724412
21
-3.7944244094488186
0
LINE
8
BLACK
6
CONTINUOUS
10
6.2297812204724412
20
-3.7944244094488186
11
6.2297110629921262
21
-3.7945937007874013
0
LINE
8
BLACK
6
CONTINUOUS
10
6.2297110629921262
20
-3.7945937007874013
11
6.2296981102362201
21
-3.7947764960629922
0
LINE
8
BLACK
6
CONTINUOUS
10
6.2296981102362201
20
-3.7947764960629922
11
6.2293231889763776
21
-3.7955264566929134
0
LINE
8
BLACK
6
CONTINUOUS
10
6.2293231889763776
20
-3.7955264566929134
11
6.2292251968503933
21
-3.7956113779527558
0
LINE
8
BLACK
6
CONTINUOUS
10
6.2292251968503933
20
-3.7956113779527558
11
6.2291756299212597
21
-3.7957311417322832
0
LINE
8
BLACK
6
CONTINUOUS
10
6.2291756299212597
20
-3.7957311417322832
11
6.2288006692913385
21
-3.7961060629921257
0
LINE
8
BLACK
6
CONTINUOUS
10
6.2288006692913385
20
-3.7961060629921257
11
6.2286809448818898
21
-3.7961556299212598
0
LINE
8
BLACK
6
CONTINUOUS
10
6.2286809448818898
20
-3.7961556299212598
11
6.2285960629921258
21
-3.7962535433070865
0
LINE
8
BLACK
6
CONTINUOUS
10
6.2285960629921258
20
-3.7962535433070865
11
6.2278461417322832
21
-3.7966285039370078
0
LINE
8
BLACK
6
CONTINUOUS
10
6.2278461417322832
20
-3.7966285039370078
11
6.2276633070866136
21
-3.7966414566929134
0
LINE
8
BLACK
6
CONTINUOUS
10
6.2276633070866136
20
-3.7966414566929134
11
6.2274940157480314
21
-3.7967116141732284
0
LINE
8
BLACK
6
CONTINUOUS
10
6.2274940157480314
20
-3.7967116141732284
11
6.2252442913385826
21
-3.7967116141732284
0
LINE
8
BLACK
6
CONTINUOUS
10
6.2252442913385826
20
-3.7967116141732284
11
6.2250748818897632
21
-3.7966414173228347
0
LINE
8
BLACK
6
CONTINUOUS
10
6.2250748818897632
20
-3.7966414173228347
11
6.224892125984252
21
-3.796628464566929
0
LINE
8
BLACK
6
CONTINUOUS
10
6.224892125984252
20
-3.796628464566929
11
6.2241422440944882
21
-3.7962535039370078
0
LINE
8
BLACK
6
CONTINUOUS
10
6.2241422440944882
20
-3.7962535039370078
11
6.2240573622047242
21
-3.7961556299212598
0
LINE
8
BLACK
6
CONTINUOUS
10
6.2240573622047242
20
-3.7961556299212598
11
6.2239376377952755
21
-3.7961060629921257
0
LINE
8
BLACK
6
CONTINUOUS
10
6.2239376377952755
20
-3.7961060629921257
11
6.223562716535433
21
-3.7957311417322832
0
LINE
8
BLACK
6
CONTINUOUS
10
6.223562716535433
20
-3.7957311417322832
11
6.2235131102362207
21
-3.7956113779527558
0
LINE
8
BLACK
6
CONTINUOUS
10
6.2235131102362207
20
-3.7956113779527558
11
6.2234151574803152
21
-3.7955264566929134
0
LINE
8
BLACK
6
CONTINUOUS
10
6.2234151574803152
20
-3.7955264566929134
11
6.2230401968503939
21
-3.7947765354330709
0
LINE
8
BLACK
6
CONTINUOUS
10
6.2230401968503939
20
-3.7947765354330709
11
6.2230272047244091
21
-3.7945937007874013
0
LINE
8
BLACK
6
CONTINUOUS
10
6.2230272047244091
20
-3.7945937007874013
11
6.2229570866141728
21
-3.7944244094488186
0
LINE
8
BLACK
6
CONTINUOUS
10
6.2229570866141728
20
-3.7944244094488186
11
6.2229570866141728
21
-3.7932995669291336
0
LINE
8
BLACK
6
CONTINUOUS
10
6.2229570866141728
20
-3.7932995669291336
11
6.2230272047244091
21
-3.7931302362204722
0
LINE
8
BLACK
6
CONTINUOUS
10
6.2230272047244091
20
-3.7931302362204722
11
6.2230401968503939
21
-3.7929474409448818
0
LINE
8
BLACK
6
CONTINUOUS
10
6.2230401968503939
20
-3.7929474409448818
11
6.2234151574803152
21
-3.7921975196850393
0
LINE
8
BLACK
6
CONTINUOUS
10
6.2234151574803152
20
-3.7921975196850393
11
6.2235130708661419
21
-3.7921125590551181
0
LINE
8
BLACK
6
CONTINUOUS
10
6.2235130708661419
20
-3.7921125590551181
11
6.2235626771653543
21
-3.7919928740157478
0
LINE
8
BLACK
6
CONTINUOUS
10
6.2235626771653543
20
-3.7919928740157478
11
6.2239376377952755
21
-3.7916179133858265
0
LINE
8
BLACK
6
CONTINUOUS
10
6.2239376377952755
20
-3.7916179133858265
11
6.2240573228346454
21
-3.7915683070866142
0
LINE
8
BLACK
6
CONTINUOUS
10
6.2240573228346454
20
-3.7915683070866142
11
6.2241422440944882
21
-3.7914704330708662
0
LINE
8
BLACK
6
CONTINUOUS
10
6.2241422440944882
20
-3.7914704330708662
11
6.224892125984252
21
-3.7910954724409449
0
LINE
8
BLACK
6
CONTINUOUS
10
6.224892125984252
20
-3.7910954724409449
11
6.2250748818897632
21
-3.7910824803149605
0
LINE
8
BLACK
6
CONTINUOUS
10
6.2250748818897632
20
-3.7910824803149605
11
6.2252442913385826
21
-3.7910123228346455
0
LINE
8
BLACK
6
CONTINUOUS
10
6.2252442913385826
20
-3.7910123228346455
11
6.2274940157480314
21
-3.7910123228346455
0
LINE
8
BLACK
6
CONTINUOUS
10
6.2274940157480314
20
-3.7910123228346455
11
6.2276633070866136
21
-3.7910824409448818
0
LINE
8
BLACK
6
CONTINUOUS
10
6.2249608267716532
20
-3.792821811023622
11
6.2247665748031498
21
-3.7930160236220472
0
LINE
8
BLACK
6
CONTINUOUS
10
6.2247665748031498
20
-3.7930160236220472
11
6.2245318897637798
21
-3.7934854330708663
0
LINE
8
BLACK
6
CONTINUOUS
10
6.2245318897637798
20
-3.7934854330708663
11
6.2245318897637798
21
-3.7942385039370077
0
LINE
8
BLACK
6
CONTINUOUS
10
6.2245318897637798
20
-3.7942385039370077
11
6.224766535433071
21
-3.7947078740157481
0
LINE
8
BLACK
6
CONTINUOUS
10
6.224766535433071
20
-3.7947078740157481
11
6.2249607874015744
21
-3.7949020866141732
0
LINE
8
BLACK
6
CONTINUOUS
10
6.2249607874015744
20
-3.7949020866141732
11
6.2254301968503931
21
-3.7951368110236219
0
LINE
8
BLACK
6
CONTINUOUS
10
6.2254301968503931
20
-3.7951368110236219
11
6.22730811023622
21
-3.7951368110236219
0
LINE
8
BLACK
6
CONTINUOUS
10
6.22730811023622
20
-3.7951368110236219
11
6.2277775196850396
21
-3.7949020866141732
0
LINE
8
BLACK
6
CONTINUOUS
10
6.2277775196850396
20
-3.7949020866141732
11
6.2279717322834642
21
-3.7947078740157481
0
LINE
8
BLACK
6
CONTINUOUS
10
6.2279717322834642
20
-3.7947078740157481
11
6.2282064173228342
21
-3.7942385039370077
0
LINE
8
BLACK
6
CONTINUOUS
10
6.2282064173228342
20
-3.7942385039370077
11
6.2282064173228342
21
-3.7934854330708663
0
LINE
8
BLACK
6
CONTINUOUS
10
6.2282064173228342
20
-3.7934854330708663
11
6.2279716929133855
21
-3.7930159842519684
0
LINE
8
BLACK
6
CONTINUOUS
10
6.2279716929133855
20
-3.7930159842519684
11
6.2277775196850396
21
-3.792821811023622
0
LINE
8
BLACK
6
CONTINUOUS
10
6.2277775196850396
20
-3.792821811023622
11
6.22730811023622
21
-3.7925871259842521
0
LINE
8
BLACK
6
CONTINUOUS
10
6.22730811023622
20
-3.7925871259842521
11
6.2254301968503931
21
-3.7925871259842521
0
LINE
8
BLACK
6
CONTINUOUS
10
6.2254301968503931
20
-3.7925871259842521
11
6.2249608267716532
21
-3.792821811023622
0
LINE
8
BLACK
6
CONTINUOUS
10
6.2020727559055118
20
-3.7892076771653542
11
6.2022555905511814
21
-3.7892206692913386
0
LINE
8
BLACK
6
CONTINUOUS
10
6.2022555905511814
20
-3.7892206692913386
11
6.2030055118110239
21
-3.7895956299212599
0
LINE
8
BLACK
6
CONTINUOUS
10
6.2030055118110239
20
-3.7895956299212599
11
6.2030904330708658
21
-3.7896935433070866
0
LINE
8
BLACK
6
CONTINUOUS
10
6.2030904330708658
20
-3.7896935433070866
11
6.2032101574803145
21
-3.789743149606299
0
LINE
8
BLACK
6
CONTINUOUS
10
6.2032101574803145
20
-3.789743149606299
11
6.2035851181102357
21
-3.7901181102362203
0
LINE
8
BLACK
6
CONTINUOUS
10
6.2035851181102357
20
-3.7901181102362203
11
6.2036346850393702
21
-3.7902377952755906
0
LINE
8
BLACK
6
CONTINUOUS
10
6.2036346850393702
20
-3.7902377952755906
11
6.2037326377952757
21
-3.7903227559055117
0
LINE
8
BLACK
6
CONTINUOUS
10
6.2037326377952757
20
-3.7903227559055117
11
6.2041075590551182
21
-3.791072716535433
0
LINE
8
BLACK
6
CONTINUOUS
10
6.2041075590551182
20
-3.791072716535433
11
6.2041205118110234
21
-3.7912554724409446
0
LINE
8
BLACK
6
CONTINUOUS
10
6.2041205118110234
20
-3.7912554724409446
11
6.2041906692913384
21
-3.7914248031496061
0
LINE
8
BLACK
6
CONTINUOUS
10
6.2041906692913384
20
-3.7914248031496061
11
6.2041906692913384
21
-3.7925496456692911
0
LINE
8
BLACK
6
CONTINUOUS
10
6.2041906692913384
20
-3.7925496456692911
11
6.2041205118110234
21
-3.7927189370078738
0
LINE
8
BLACK
6
CONTINUOUS
10
6.2041205118110234
20
-3.7927189370078738
11
6.2041075590551182
21
-3.7929017322834646
0
LINE
8
BLACK
6
CONTINUOUS
10
6.2041075590551182
20
-3.7929017322834646
11
6.2037326377952757
21
-3.7936516929133859
0
LINE
8
BLACK
6
CONTINUOUS
10
6.2037326377952757
20
-3.7936516929133859
11
6.2036346456692915
21
-3.7937366141732283
0
LINE
8
BLACK
6
CONTINUOUS
10
6.2036346456692915
20
-3.7937366141732283
11
6.203585078740157
21
-3.7938563779527557
0
LINE
8
BLACK
6
CONTINUOUS
10
6.203585078740157
20
-3.7938563779527557
11
6.2032101181102357
21
-3.7942312992125982
0
LINE
8
BLACK
6
CONTINUOUS
10
6.2032101181102357
20
-3.7942312992125982
11
6.2030903937007871
21
-3.7942808661417322
0
LINE
8
BLACK
6
CONTINUOUS
10
6.2030903937007871
20
-3.7942808661417322
11
6.2030055118110239
21
-3.794378779527559
0
LINE
8
BLACK
6
CONTINUOUS
10
6.2030055118110239
20
-3.794378779527559
11
6.2022555905511814
21
-3.7947537401574802
0
LINE
8
BLACK
6
CONTINUOUS
10
6.2022555905511814
20
-3.7947537401574802
11
6.2020727559055118
21
-3.7947666929133859
0
LINE
8
BLACK
6
CONTINUOUS
10
6.2020727559055118
20
-3.7947666929133859
11
6.2019034645669286
21
-3.7948368503937009
0
LINE
8
BLACK
6
CONTINUOUS
10
6.2019034645669286
20
-3.7948368503937009
11
6.1996537401574798
21
-3.7948368503937009
0
LINE
8
BLACK
6
CONTINUOUS
10
6.1996537401574798
20
-3.7948368503937009
11
6.1994843307086613
21
-3.7947666535433071
0
LINE
8
BLACK
6
CONTINUOUS
10
6.1994843307086613
20
-3.7947666535433071
11
6.1993015748031493
21
-3.7947537007874015
0
LINE
8
BLACK
6
CONTINUOUS
10
6.1993015748031493
20
-3.7947537007874015
11
6.1985516929133855
21
-3.7943787401574802
0
LINE
8
BLACK
6
CONTINUOUS
10
6.1985516929133855
20
-3.7943787401574802
11
6.1984668110236223
21
-3.7942808661417322
0
LINE
8
BLACK
6
CONTINUOUS
10
6.1984668110236223
20
-3.7942808661417322
11
6.1983470866141728
21
-3.7942312992125982
0
LINE
8
BLACK
6
CONTINUOUS
10
6.1983470866141728
20
-3.7942312992125982
11
6.1979721653543303
21
-3.7938563779527557
0
LINE
8
BLACK
6
CONTINUOUS
10
6.1979721653543303
20
-3.7938563779527557
11
6.1979225590551179
21
-3.7937366141732283
0
LINE
8
BLACK
6
CONTINUOUS
10
6.1979225590551179
20
-3.7937366141732283
11
6.1978246062992124
21
-3.7936516929133859
0
LINE
8
BLACK
6
CONTINUOUS
10
6.1978246062992124
20
-3.7936516929133859
11
6.1974496456692911
21
-3.7929017716535434
0
LINE
8
BLACK
6
CONTINUOUS
10
6.1974496456692911
20
-3.7929017716535434
11
6.1974366535433072
21
-3.7927189370078738
0
LINE
8
BLACK
6
CONTINUOUS
10
6.1974366535433072
20
-3.7927189370078738
11
6.1973665354330709
21
-3.7925496456692911
0
LINE
8
BLACK
6
CONTINUOUS
10
6.1973665354330709
20
-3.7925496456692911
11
6.1973665354330709
21
-3.7914248031496061
0
LINE
8
BLACK
6
CONTINUOUS
10
6.1973665354330709
20
-3.7914248031496061
11
6.1974366535433072
21
-3.7912554724409446
0
LINE
8
BLACK
6
CONTINUOUS
10
6.1974366535433072
20
-3.7912554724409446
11
6.1974496456692911
21
-3.7910726771653542
0
LINE
8
BLACK
6
CONTINUOUS
10
6.1974496456692911
20
-3.7910726771653542
11
6.1978246062992124
21
-3.7903227559055117
0
LINE
8
BLACK
6
CONTINUOUS
10
6.1978246062992124
20
-3.7903227559055117
11
6.1979225196850392
21
-3.7902377952755906
0
LINE
8
BLACK
6
CONTINUOUS
10
6.1979225196850392
20
-3.7902377952755906
11
6.1979721259842515
21
-3.7901181102362203
0
LINE
8
BLACK
6
CONTINUOUS
10
6.1979721259842515
20
-3.7901181102362203
11
6.1983470866141728
21
-3.789743149606299
0
LINE
8
BLACK
6
CONTINUOUS
10
6.1983470866141728
20
-3.789743149606299
11
6.1984667716535435
21
-3.7896935433070866
0
LINE
8
BLACK
6
CONTINUOUS
10
6.1984667716535435
20
-3.7896935433070866
11
6.1985516929133855
21
-3.7895956692913386
0
LINE
8
BLACK
6
CONTINUOUS
10
6.1985516929133855
20
-3.7895956692913386
11
6.1993015748031493
21
-3.7892207086614174
0
LINE
8
BLACK
6
CONTINUOUS
10
6.1993015748031493
20
-3.7892207086614174
11
6.1994843307086613
21
-3.789207716535433
0
LINE
8
BLACK
6
CONTINUOUS
10
6.1994843307086613
20
-3.789207716535433
11
6.1996537401574798
21
-3.789137559055118
0
LINE
8
BLACK
6
CONTINUOUS
10
6.1996537401574798
20
-3.789137559055118
11
6.2019034645669286
21
-3.789137559055118
0
LINE
8
BLACK
6
CONTINUOUS
10
6.2019034645669286
20
-3.789137559055118
11
6.2020727559055118
21
-3.7892076771653542
0
LINE
8
BLACK
6
CONTINUOUS
10
6.1993702755905513
20
-3.7909470472440945
11
6.199176023622047
21
-3.7911412598425196
0
LINE
8
BLACK
6
CONTINUOUS
10
6.199176023622047
20
-3.7911412598425196
11
6.198941338582677
21
-3.7916106692913383
0
LINE
8
BLACK
6
CONTINUOUS
10
6.198941338582677
20
-3.7916106692913383
11
6.198941338582677
21
-3.7923637401574801
0
LINE
8
BLACK
6
CONTINUOUS
10
6.198941338582677
20
-3.7923637401574801
11
6.1991759842519683
21
-3.7928331102362205
0
LINE
8
BLACK
6
CONTINUOUS
10
6.1991759842519683
20
-3.7928331102362205
11
6.1993702362204726
21
-3.7930273228346456
0
LINE
8
BLACK
6
CONTINUOUS
10
6.1993702362204726
20
-3.7930273228346456
11
6.1998396456692912
21
-3.7932620472440943
0
LINE
8
BLACK
6
CONTINUOUS
10
6.1998396456692912
20
-3.7932620472440943
11
6.2017175590551181
21
-3.7932620472440943
0
LINE
8
BLACK
6
CONTINUOUS
10
6.2017175590551181
20
-3.7932620472440943
11
6.2021869685039368
21
-3.7930273228346456
0
LINE
8
BLACK
6
CONTINUOUS
10
6.2021869685039368
20
-3.7930273228346456
11
6.2023811811023624
21
-3.7928331102362205
0
LINE
8
BLACK
6
CONTINUOUS
10
6.2023811811023624
20
-3.7928331102362205
11
6.2026158661417323
21
-3.7923637401574801
0
LINE
8
BLACK
6
CONTINUOUS
10
6.2026158661417323
20
-3.7923637401574801
11
6.2026158661417323
21
-3.7916106692913383
0
LINE
8
BLACK
6
CONTINUOUS
10
6.2026158661417323
20
-3.7916106692913383
11
6.2023811417322836
21
-3.7911412204724408
0
LINE
8
BLACK
6
CONTINUOUS
10
6.2023811417322836
20
-3.7911412204724408
11
6.2021869685039368
21
-3.7909470472440945
0
LINE
8
BLACK
6
CONTINUOUS
10
6.2021869685039368
20
-3.7909470472440945
11
6.2017175590551181
21
-3.7907123622047245
0
LINE
8
BLACK
6
CONTINUOUS
10
6.2017175590551181
20
-3.7907123622047245
11
6.1998396456692912
21
-3.7907123622047245
0
LINE
8
BLACK
6
CONTINUOUS
10
6.1998396456692912
20
-3.7907123622047245
11
6.1993702755905513
21
-3.7909470472440945
0
LINE
8
BLACK
6
CONTINUOUS
10
6.2175121653543304
20
-3.7861982677165353
11
6.2178870866141729
21
-3.7869482283464566
0
LINE
8
BLACK
6
CONTINUOUS
10
6.2178870866141729
20
-3.7869482283464566
11
6.217900039370079
21
-3.7871309842519683
0
LINE
8
BLACK
6
CONTINUOUS
10
6.217900039370079
20
-3.7871309842519683
11
6.217970196850394
21
-3.7873003149606297
0
LINE
8
BLACK
6
CONTINUOUS
10
6.217970196850394
20
-3.7873003149606297
11
6.217970196850394
21
-3.788800118110236
0
LINE
8
BLACK
6
CONTINUOUS
10
6.217970196850394
20
-3.788800118110236
11
6.217900039370079
21
-3.7889694094488187
0
LINE
8
BLACK
6
CONTINUOUS
10
6.217900039370079
20
-3.7889694094488187
11
6.2178870866141729
21
-3.7891522047244095
0
LINE
8
BLACK
6
CONTINUOUS
10
6.2178870866141729
20
-3.7891522047244095
11
6.2175121653543304
21
-3.7899021653543308
0
LINE
8
BLACK
6
CONTINUOUS
10
6.2175121653543304
20
-3.7899021653543308
11
6.2174141732283461
21
-3.7899870866141732
0
LINE
8
BLACK
6
CONTINUOUS
10
6.2174141732283461
20
-3.7899870866141732
11
6.2173646062992125
21
-3.7901068503937005
0
LINE
8
BLACK
6
CONTINUOUS
10
6.2173646062992125
20
-3.7901068503937005
11
6.2169896456692912
21
-3.7904817716535431
0
LINE
8
BLACK
6
CONTINUOUS
10
6.2169896456692912
20
-3.7904817716535431
11
6.2168699212598426
21
-3.7905313385826771
0
LINE
8
BLACK
6
CONTINUOUS
10
6.2168699212598426
20
-3.7905313385826771
11
6.2167850393700785
21
-3.7906292519685039
0
LINE
8
BLACK
6
CONTINUOUS
10
6.2167850393700785
20
-3.7906292519685039
11
6.216035118110236
21
-3.7910042125984251
0
LINE
8
BLACK
6
CONTINUOUS
10
6.216035118110236
20
-3.7910042125984251
11
6.2158522834645664
21
-3.7910171653543308
0
LINE
8
BLACK
6
CONTINUOUS
10
6.2158522834645664
20
-3.7910171653543308
11
6.2156829921259842
21
-3.7910873228346458
0
LINE
8
BLACK
6
CONTINUOUS
10
6.2156829921259842
20
-3.7910873228346458
11
6.2134332677165354
21
-3.7910873228346458
0
LINE
8
BLACK
6
CONTINUOUS
10
6.2134332677165354
20
-3.7910873228346458
11
6.213263858267716
21
-3.791017125984252
0
LINE
8
BLACK
6
CONTINUOUS
10
6.213263858267716
20
-3.791017125984252
11
6.2130811023622048
21
-3.7910041732283464
0
LINE
8
BLACK
6
CONTINUOUS
10
6.2130811023622048
20
-3.7910041732283464
11
6.212331220472441
21
-3.7906292125984251
0
LINE
8
BLACK
6
CONTINUOUS
10
6.212331220472441
20
-3.7906292125984251
11
6.2122463385826769
21
-3.7905313385826771
0
LINE
8
BLACK
6
CONTINUOUS
10
6.2122463385826769
20
-3.7905313385826771
11
6.2121266141732283
21
-3.7904817716535431
0
LINE
8
BLACK
6
CONTINUOUS
10
6.2121266141732283
20
-3.7904817716535431
11
6.2117516929133858
21
-3.7901068503937005
0
LINE
8
BLACK
6
CONTINUOUS
10
6.2117516929133858
20
-3.7901068503937005
11
6.2117020866141734
21
-3.7899870866141732
0
LINE
8
BLACK
6
CONTINUOUS
10
6.2117020866141734
20
-3.7899870866141732
11
6.2116041338582679
21
-3.7899021653543308
0
LINE
8
BLACK
6
CONTINUOUS
10
6.2116041338582679
20
-3.7899021653543308
11
6.2112291732283467
21
-3.7891522440944883
0
LINE
8
BLACK
6
CONTINUOUS
10
6.2112291732283467
20
-3.7891522440944883
11
6.2112161811023618
21
-3.7889694094488187
0
LINE
8
BLACK
6
CONTINUOUS
10
6.2112161811023618
20
-3.7889694094488187
11
6.2111460629921256
21
-3.788800118110236
0
LINE
8
BLACK
6
CONTINUOUS
10
6.2111460629921256
20
-3.788800118110236
11
6.2111460629921256
21
-3.7873003149606297
0
LINE
8
BLACK
6
CONTINUOUS
10
6.2111460629921256
20
-3.7873003149606297
11
6.2112161811023618
21
-3.7871309842519683
0
LINE
8
BLACK
6
CONTINUOUS
10
6.2112161811023618
20
-3.7871309842519683
11
6.2112291732283467
21
-3.7869481889763779
0
LINE
8
BLACK
6
CONTINUOUS
10
6.2112291732283467
20
-3.7869481889763779
11
6.2116041338582679
21
-3.7861982677165353
0
LINE
8
BLACK
6
CONTINUOUS
10
6.2116041338582679
20
-3.7861982677165353
11
6.2120594094488188
21
-3.7858034251968502
0
LINE
8
BLACK
6
CONTINUOUS
10
6.2120594094488188
20
-3.7858034251968502
11
6.2126605511811022
21
-3.7858461417322835
0
LINE
8
BLACK
6
CONTINUOUS
10
6.2126605511811022
20
-3.7858461417322835
11
6.2130553937007873
21
-3.7863014173228344
0
LINE
8
BLACK
6
CONTINUOUS
10
6.2130553937007873
20
-3.7863014173228344
11
6.213012677165354
21
-3.7869025590551182
0
LINE
8
BLACK
6
CONTINUOUS
10
6.213012677165354
20
-3.7869025590551182
11
6.2127208661417326
21
-3.7874861811023619
0
LINE
8
BLACK
6
CONTINUOUS
10
6.2127208661417326
20
-3.7874861811023619
11
6.2127208661417326
21
-3.788614212598425
0
LINE
8
BLACK
6
CONTINUOUS
10
6.2127208661417326
20
-3.788614212598425
11
6.2129555118110238
21
-3.7890835826771654
0
LINE
8
BLACK
6
CONTINUOUS
10
6.2129555118110238
20
-3.7890835826771654
11
6.2131497637795272
21
-3.7892777952755905
0
LINE
8
BLACK
6
CONTINUOUS
10
6.2131497637795272
20
-3.7892777952755905
11
6.2136191732283459
21
-3.7895125196850392
0
LINE
8
BLACK
6
CONTINUOUS
10
6.2136191732283459
20
-3.7895125196850392
11
6.2154970866141728
21
-3.7895125196850392
0
LINE
8
BLACK
6
CONTINUOUS
10
6.2154970866141728
20
-3.7895125196850392
11
6.2159664960629923
21
-3.7892777952755905
0
LINE
8
BLACK
6
CONTINUOUS
10
6.2159664960629923
20
-3.7892777952755905
11
6.216160708661417
21
-3.7890835826771654
0
LINE
8
BLACK
6
CONTINUOUS
10
6.216160708661417
20
-3.7890835826771654
11
6.216395393700787
21
-3.788614212598425
0
LINE
8
BLACK
6
CONTINUOUS
10
6.216395393700787
20
-3.788614212598425
11
6.216395393700787
21
-3.7874861811023619
0
LINE
8
BLACK
6
CONTINUOUS
10
6.216395393700787
20
-3.7874861811023619
11
6.2161035826771656
21
-3.7869025196850394
0
LINE
8
BLACK
6
CONTINUOUS
10
6.2161035826771656
20
-3.7869025196850394
11
6.216060905511811
21
-3.7863013779527557
0
LINE
8
BLACK
6
CONTINUOUS
10
6.216060905511811
20
-3.7863013779527557
11
6.2164557480314961
21
-3.7858461023622048
0
LINE
8
BLACK
6
CONTINUOUS
10
6.2164557480314961
20
-3.7858461023622048
11
6.2170568897637795
21
-3.7858034251968502
0
LINE
8
BLACK
6
CONTINUOUS
10
6.2170568897637795
20
-3.7858034251968502
11
6.2175121653543304
21
-3.7861982677165353
0
LINE
8
BLACK
6
CONTINUOUS
10
6.1882120078740153
20
-3.7848687401574801
11
6.1884426377952755
21
-3.7854255118110234
0
LINE
8
BLACK
6
CONTINUOUS
10
6.1884426377952755
20
-3.7854255118110234
11
6.1884426377952755
21
-3.7891750393700785
0
LINE
8
BLACK
6
CONTINUOUS
10
6.1884426377952755
20
-3.7891750393700785
11
6.1882120078740153
21
-3.7897318110236218
0
LINE
8
BLACK
6
CONTINUOUS
10
6.1882120078740153
20
-3.7897318110236218
11
6.187655236220472
21
-3.789962440944882
0
LINE
8
BLACK
6
CONTINUOUS
10
6.187655236220472
20
-3.789962440944882
11
6.1835307480314956
21
-3.789962440944882
0
LINE
8
BLACK
6
CONTINUOUS
10
6.1835307480314956
20
-3.789962440944882
11
6.1797812204724405
21
-3.789962440944882
0
LINE
8
BLACK
6
CONTINUOUS
10
6.1797812204724405
20
-3.789962440944882
11
6.1792244488188972
21
-3.7897318110236218
0
LINE
8
BLACK
6
CONTINUOUS
10
6.1792244488188972
20
-3.7897318110236218
11
6.1789938188976379
21
-3.7891750393700785
0
LINE
8
BLACK
6
CONTINUOUS
10
6.1789938188976379
20
-3.7891750393700785
11
6.1789938188976379
21
-3.7854255118110234
0
LINE
8
BLACK
6
CONTINUOUS
10
6.1789938188976379
20
-3.7854255118110234
11
6.1792244488188972
21
-3.7848687401574801
0
LINE
8
BLACK
6
CONTINUOUS
10
6.1792244488188972
20
-3.7848687401574801
11
6.1797812204724405
21
-3.7846381102362203
0
LINE
8
BLACK
6
CONTINUOUS
10
6.1797812204724405
20
-3.7846381102362203
11
6.1803379921259838
21
-3.7848687401574801
0
LINE
8
BLACK
6
CONTINUOUS
10
6.1803379921259838
20
-3.7848687401574801
11
6.180568622047244
21
-3.7854255118110234
0
LINE
8
BLACK
6
CONTINUOUS
10
6.180568622047244
20
-3.7854255118110234
11
6.180568622047244
21
-3.7883876377952754
0
LINE
8
BLACK
6
CONTINUOUS
10
6.180568622047244
20
-3.7883876377952754
11
6.182743346456693
21
-3.7883876377952754
0
LINE
8
BLACK
6
CONTINUOUS
10
6.182743346456693
20
-3.7883876377952754
11
6.182743346456693
21
-3.7865503937007872
0
LINE
8
BLACK
6
CONTINUOUS
10
6.182743346456693
20
-3.7865503937007872
11
6.1829739763779523
21
-3.7859936220472439
0
LINE
8
BLACK
6
CONTINUOUS
10
6.1829739763779523
20
-3.7859936220472439
11
6.1835307480314956
21
-3.7857629921259841
0
LINE
8
BLACK
6
CONTINUOUS
10
6.1835307480314956
20
-3.7857629921259841
11
6.1840875196850389
21
-3.7859936220472439
0
LINE
8
BLACK
6
CONTINUOUS
10
6.1840875196850389
20
-3.7859936220472439
11
6.1843181496062991
21
-3.7865503937007872
0
LINE
8
BLACK
6
CONTINUOUS
10
6.1843181496062991
20
-3.7865503937007872
11
6.1843181496062991
21
-3.7883876377952754
0
LINE
8
BLACK
6
CONTINUOUS
10
6.1843181496062991
20
-3.7883876377952754
11
6.1868678346456694
21
-3.7883876377952754
0
LINE
8
BLACK
6
CONTINUOUS
10
6.1868678346456694
20
-3.7883876377952754
11
6.1868678346456694
21
-3.7854255118110234
0
LINE
8
BLACK
6
CONTINUOUS
10
6.1868678346456694
20
-3.7854255118110234
11
6.1870984645669287
21
-3.7848687401574801
0
LINE
8
BLACK
6
CONTINUOUS
10
6.1870984645669287
20
-3.7848687401574801
11
6.187655236220472
21
-3.7846381102362203
0
LINE
8
BLACK
6
CONTINUOUS
10
6.187655236220472
20
-3.7846381102362203
11
6.1882120078740153
21
-3.7848687401574801
0
LINE
8
BLACK
6
CONTINUOUS
10
6.229550590551181
20
-3.7811192519685037
11
6.2297812204724412
21
-3.781676023622047
0
LINE
8
BLACK
6
CONTINUOUS
10
6.2297812204724412
20
-3.781676023622047
11
6.229550590551181
21
-3.7822327952755903
0
LINE
8
BLACK
6
CONTINUOUS
10
6.229550590551181
20
-3.7822327952755903
11
6.2289938188976377
21
-3.7824634251968505
0
LINE
8
BLACK
6
CONTINUOUS
10
6.2289938188976377
20
-3.7824634251968505
11
6.2250552362204727
21
-3.7824634251968505
0
LINE
8
BLACK
6
CONTINUOUS
10
6.2250552362204727
20
-3.7824634251968505
11
6.2247062992125981
21
-3.782637874015748
0
LINE
8
BLACK
6
CONTINUOUS
10
6.2247062992125981
20
-3.782637874015748
11
6.2245318897637798
21
-3.7829867322834643
0
LINE
8
BLACK
6
CONTINUOUS
10
6.2245318897637798
20
-3.7829867322834643
11
6.2245318897637798
21
-3.7837398425196849
0
LINE
8
BLACK
6
CONTINUOUS
10
6.2245318897637798
20
-3.7837398425196849
11
6.2247062992125981
21
-3.7840887007874016
0
LINE
8
BLACK
6
CONTINUOUS
10
6.2247062992125981
20
-3.7840887007874016
11
6.2250552362204727
21
-3.7842631889763778
0
LINE
8
BLACK
6
CONTINUOUS
10
6.2250552362204727
20
-3.7842631889763778
11
6.2289938188976377
21
-3.7842631889763778
0
LINE
8
BLACK
6
CONTINUOUS
10
6.2289938188976377
20
-3.7842631889763778
11
6.229550590551181
21
-3.7844938188976376
0
LINE
8
BLACK
6
CONTINUOUS
10
6.229550590551181
20
-3.7844938188976376
11
6.2297812204724412
21
-3.7850505905511809
0
LINE
8
BLACK
6
CONTINUOUS
10
6.2297812204724412
20
-3.7850505905511809
11
6.229550590551181
21
-3.7856073622047242
0
LINE
8
BLACK
6
CONTINUOUS
10
6.229550590551181
20
-3.7856073622047242
11
6.2289938188976377
21
-3.7858379921259844
0
LINE
8
BLACK
6
CONTINUOUS
10
6.2289938188976377
20
-3.7858379921259844
11
6.2250552362204727
21
-3.7858379921259844
0
LINE
8
BLACK
6
CONTINUOUS
10
6.2250552362204727
20
-3.7858379921259844
11
6.2247063385826769
21
-3.7860124015748031
0
LINE
8
BLACK
6
CONTINUOUS
10
6.2247063385826769
20
-3.7860124015748031
11
6.2245318897637798
21
-3.7863613385826769
0
LINE
8
BLACK
6
CONTINUOUS
10
6.2245318897637798
20
-3.7863613385826769
11
6.2245318897637798
21
-3.7871144094488187
0
LINE
8
BLACK
6
CONTINUOUS
10
6.2245318897637798
20
-3.7871144094488187
11
6.224766535433071
21
-3.7875837795275591
0
LINE
8
BLACK
6
CONTINUOUS
10
6.224766535433071
20
-3.7875837795275591
11
6.2248205118110231
21
-3.7876377559055117
0
LINE
8
BLACK
6
CONTINUOUS
10
6.2248205118110231
20
-3.7876377559055117
11
6.2289938188976377
21
-3.7876377559055117
0
LINE
8
BLACK
6
CONTINUOUS
10
6.2289938188976377
20
-3.7876377559055117
11
6.229550590551181
21
-3.7878683858267714
0
LINE
8
BLACK
6
CONTINUOUS
10
6.229550590551181
20
-3.7878683858267714
11
6.2297812204724412
21
-3.7884251574803147
0
LINE
8
BLACK
6
CONTINUOUS
10
6.2297812204724412
20
-3.7884251574803147
11
6.229550590551181
21
-3.788981929133858
0
LINE
8
BLACK
6
CONTINUOUS
10
6.229550590551181
20
-3.788981929133858
11
6.2289938188976377
21
-3.7892125590551182
0
LINE
8
BLACK
6
CONTINUOUS
10
6.2289938188976377
20
-3.7892125590551182
11
6.2244944488188976
21
-3.7892125590551182
0
LINE
8
BLACK
6
CONTINUOUS
10
6.2244944488188976
20
-3.7892125590551182
11
6.2237444881889763
21
-3.7892125590551182
0
LINE
8
BLACK
6
CONTINUOUS
10
6.2237444881889763
20
-3.7892125590551182
11
6.223187716535433
21
-3.788981929133858
0
LINE
8
BLACK
6
CONTINUOUS
10
6.223187716535433
20
-3.788981929133858
11
6.2229570866141728
21
-3.7884251574803147
0
LINE
8
BLACK
6
CONTINUOUS
10
6.2229570866141728
20
-3.7884251574803147
11
6.2231697637795271
21
-3.7879116141732281
0
LINE
8
BLACK
6
CONTINUOUS
10
6.2231697637795271
20
-3.7879116141732281
11
6.2230401968503939
21
-3.787652440944882
0
LINE
8
BLACK
6
CONTINUOUS
10
6.2230401968503939
20
-3.787652440944882
11
6.2230272047244091
21
-3.7874696062992124
0
LINE
8
BLACK
6
CONTINUOUS
10
6.2230272047244091
20
-3.7874696062992124
11
6.2229570866141728
21
-3.7873003149606297
0
LINE
8
BLACK
6
CONTINUOUS
10
6.2229570866141728
20
-3.7873003149606297
11
6.2229570866141728
21
-3.7861754724409447
0
LINE
8
BLACK
6
CONTINUOUS
10
6.2229570866141728
20
-3.7861754724409447
11
6.2230272047244091
21
-3.7860061417322832
0
LINE
8
BLACK
6
CONTINUOUS
10
6.2230272047244091
20
-3.7860061417322832
11
6.2230401968503939
21
-3.7858233464566928
0
LINE
8
BLACK
6
CONTINUOUS
10
6.2230401968503939
20
-3.7858233464566928
11
6.2234151574803152
21
-3.7850734251968503
0
LINE
8
BLACK
6
CONTINUOUS
10
6.2234151574803152
20
-3.7850734251968503
11
6.223441456692913
21
-3.7850505511811021
0
LINE
8
BLACK
6
CONTINUOUS
10
6.223441456692913
20
-3.7850505511811021
11
6.2234151574803152
21
-3.7850277559055119
0
LINE
8
BLACK
6
CONTINUOUS
10
6.2234151574803152
20
-3.7850277559055119
11
6.2230402362204726
21
-3.7842779133858269
0
LINE
8
BLACK
6
CONTINUOUS
10
6.2230402362204726
20
-3.7842779133858269
11
6.2230272047244091
21
-3.7840950787401573
0
LINE
8
BLACK
6
CONTINUOUS
10
6.2230272047244091
20
-3.7840950787401573
11
6.2229570866141728
21
-3.7839257480314958
0
LINE
8
BLACK
6
CONTINUOUS
10
6.2229570866141728
20
-3.7839257480314958
11
6.2229570866141728
21
-3.7828008661417321
0
LINE
8
BLACK
6
CONTINUOUS
10
6.2229570866141728
20
-3.7828008661417321
11
6.2230272047244091
21
-3.7826314960629919
0
LINE
8
BLACK
6
CONTINUOUS
10
6.2230272047244091
20
-3.7826314960629919
11
6.2230402362204726
21
-3.7824487007874015
0
LINE
8
BLACK
6
CONTINUOUS
10
6.2230402362204726
20
-3.7824487007874015
11
6.2234151574803152
21
-3.7816988582677165
0
LINE
8
BLACK
6
CONTINUOUS
10
6.2234151574803152
20
-3.7816988582677165
11
6.2236036614173225
21
-3.7815353543307086
0
LINE
8
BLACK
6
CONTINUOUS
10
6.2236036614173225
20
-3.7815353543307086
11
6.223767283464567
21
-3.7813467322834646
0
LINE
8
BLACK
6
CONTINUOUS
10
6.223767283464567
20
-3.7813467322834646
11
6.2245171653543307
21
-3.7809717716535434
0
LINE
8
BLACK
6
CONTINUOUS
10
6.2245171653543307
20
-3.7809717716535434
11
6.224699921259842
21
-3.780958779527559
0
LINE
8
BLACK
6
CONTINUOUS
10
6.224699921259842
20
-3.780958779527559
11
6.2248693307086613
21
-3.780888622047244
0
LINE
8
BLACK
6
CONTINUOUS
10
6.2248693307086613
20
-3.780888622047244
11
6.2289938188976377
21
-3.780888622047244
0
LINE
8
BLACK
6
CONTINUOUS
10
6.2289938188976377
20
-3.780888622047244
11
6.229550590551181
21
-3.7811192519685037
0
LINE
8
BLACK
6
CONTINUOUS
10
6.2177395669291338
20
-3.7807442519685037
11
6.217970196850394
21
-3.781301023622047
0
LINE
8
BLACK
6
CONTINUOUS
10
6.217970196850394
20
-3.781301023622047
11
6.217970196850394
21
-3.7820509448818895
0
LINE
8
BLACK
6
CONTINUOUS
10
6.217970196850394
20
-3.7820509448818895
11
6.217900039370079
21
-3.7822202362204722
0
LINE
8
BLACK
6
CONTINUOUS
10
6.217900039370079
20
-3.7822202362204722
11
6.2178870866141729
21
-3.7824030314960631
0
LINE
8
BLACK
6
CONTINUOUS
10
6.2178870866141729
20
-3.7824030314960631
11
6.2175121653543304
21
-3.7831529921259843
0
LINE
8
BLACK
6
CONTINUOUS
10
6.2175121653543304
20
-3.7831529921259843
11
6.2173235433070868
21
-3.7833165354330709
0
LINE
8
BLACK
6
CONTINUOUS
10
6.2173235433070868
20
-3.7833165354330709
11
6.2171599999999998
21
-3.7835051574803149
0
LINE
8
BLACK
6
CONTINUOUS
10
6.2171599999999998
20
-3.7835051574803149
11
6.2164100787401573
21
-3.7838800787401574
0
LINE
8
BLACK
6
CONTINUOUS
10
6.2164100787401573
20
-3.7838800787401574
11
6.2162272440944877
21
-3.783893031496063
0
LINE
8
BLACK
6
CONTINUOUS
10
6.2162272440944877
20
-3.783893031496063
11
6.2160579527559054
21
-3.7839631889763781
0
LINE
8
BLACK
6
CONTINUOUS
10
6.2160579527559054
20
-3.7839631889763781
11
6.2127208661417326
21
-3.7839631889763781
0
LINE
8
BLACK
6
CONTINUOUS
10
6.2127208661417326
20
-3.7839631889763781
11
6.2127208661417326
21
-3.7843006692913383
0
LINE
8
BLACK
6
CONTINUOUS
10
6.2127208661417326
20
-3.7843006692913383
11
6.2124902362204724
21
-3.7848574409448816
0
LINE
8
BLACK
6
CONTINUOUS
10
6.2124902362204724
20
-3.7848574409448816
11
6.2119334645669291
21
-3.7850880708661419
0
LINE
8
BLACK
6
CONTINUOUS
10
6.2119334645669291
20
-3.7850880708661419
11
6.2113766929133858
21
-3.7848574409448816
0
LINE
8
BLACK
6
CONTINUOUS
10
6.2113766929133858
20
-3.7848574409448816
11
6.2111460629921256
21
-3.7843006692913383
0
LINE
8
BLACK
6
CONTINUOUS
10
6.2111460629921256
20
-3.7843006692913383
11
6.2111460629921256
21
-3.7839631889763781
0
LINE
8
BLACK
6
CONTINUOUS
10
6.2111460629921256
20
-3.7839631889763781
11
6.209308779527559
21
-3.7839631889763781
0
LINE
8
BLACK
6
CONTINUOUS
10
6.209308779527559
20
-3.7839631889763781
11
6.2087520078740157
21
-3.7837325590551179
0
LINE
8
BLACK
6
CONTINUOUS
10
6.2087520078740157
20
-3.7837325590551179
11
6.2085213779527555
21
-3.7831757874015746
0
LINE
8
BLACK
6
CONTINUOUS
10
6.2085213779527555
20
-3.7831757874015746
11
6.2087520078740157
21
-3.7826190157480313
0
LINE
8
BLACK
6
CONTINUOUS
10
6.2087520078740157
20
-3.7826190157480313
11
6.209308779527559
21
-3.7823883858267715
0
LINE
8
BLACK
6
CONTINUOUS
10
6.209308779527559
20
-3.7823883858267715
11
6.2111460629921256
21
-3.7823883858267715
0
LINE
8
BLACK
6
CONTINUOUS
10
6.2111460629921256
20
-3.7823883858267715
11
6.2111460629921256
21
-3.781301023622047
0
LINE
8
BLACK
6
CONTINUOUS
10
6.2111460629921256
20
-3.781301023622047
11
6.2113766929133858
21
-3.7807442519685037
0
LINE
8
BLACK
6
CONTINUOUS
10
6.2113766929133858
20
-3.7807442519685037
11
6.2119334645669291
21
-3.7805136220472439
0
LINE
8
BLACK
6
CONTINUOUS
10
6.2119334645669291
20
-3.7805136220472439
11
6.2124902362204724
21
-3.7807442519685037
0
LINE
8
BLACK
6
CONTINUOUS
10
6.2124902362204724
20
-3.7807442519685037
11
6.2127208661417326
21
-3.781301023622047
0
LINE
8
BLACK
6
CONTINUOUS
10
6.2127208661417326
20
-3.781301023622047
11
6.2127208661417326
21
-3.7823883858267715
0
LINE
8
BLACK
6
CONTINUOUS
10
6.2127208661417326
20
-3.7823883858267715
11
6.2158720866141728
21
-3.7823883858267715
0
LINE
8
BLACK
6
CONTINUOUS
10
6.2158720866141728
20
-3.7823883858267715
11
6.2162209448818899
21
-3.782213937007874
0
LINE
8
BLACK
6
CONTINUOUS
10
6.2162209448818899
20
-3.782213937007874
11
6.216395393700787
21
-3.7818650393700786
0
LINE
8
BLACK
6
CONTINUOUS
10
6.216395393700787
20
-3.7818650393700786
11
6.216395393700787
21
-3.781301023622047
0
LINE
8
BLACK
6
CONTINUOUS
10
6.216395393700787
20
-3.781301023622047
11
6.2166260236220472
21
-3.7807442519685037
0
LINE
8
BLACK
6
CONTINUOUS
10
6.2166260236220472
20
-3.7807442519685037
11
6.2171827952755905
21
-3.7805136220472439
0
LINE
8
BLACK
6
CONTINUOUS
10
6.2171827952755905
20
-3.7805136220472439
11
6.2177395669291338
21
-3.7807442519685037
0
LINE
8
BLACK
6
CONTINUOUS
10
6.1882120078740153
20
-3.7777446456692911
11
6.1884426377952755
21
-3.7783014173228344
0
LINE
8
BLACK
6
CONTINUOUS
10
6.1884426377952755
20
-3.7783014173228344
11
6.1884426377952755
21
-3.7820509448818895
0
LINE
8
BLACK
6
CONTINUOUS
10
6.1884426377952755
20
-3.7820509448818895
11
6.1882120078740153
21
-3.7826077165354328
0
LINE
8
BLACK
6
CONTINUOUS
10
6.1882120078740153
20
-3.7826077165354328
11
6.187655236220472
21
-3.782838346456693
0
LINE
8
BLACK
6
CONTINUOUS
10
6.187655236220472
20
-3.782838346456693
11
6.1835307480314956
21
-3.782838346456693
0
LINE
8
BLACK
6
CONTINUOUS
10
6.1835307480314956
20
-3.782838346456693
11
6.1797812204724405
21
-3.782838346456693
0
LINE
8
BLACK
6
CONTINUOUS
10
6.1797812204724405
20
-3.782838346456693
11
6.1792244488188972
21
-3.7826077165354328
0
LINE
8
BLACK
6
CONTINUOUS
10
6.1792244488188972
20
-3.7826077165354328
11
6.1789938188976379
21
-3.7820509448818895
0
LINE
8
BLACK
6
CONTINUOUS
10
6.1789938188976379
20
-3.7820509448818895
11
6.1789938188976379
21
-3.7783014173228344
0
LINE
8
BLACK
6
CONTINUOUS
10
6.1789938188976379
20
-3.7783014173228344
11
6.1792244488188972
21
-3.7777446456692911
0
LINE
8
BLACK
6
CONTINUOUS
10
6.1792244488188972
20
-3.7777446456692911
11
6.1797812204724405
21
-3.7775140157480314
0
LINE
8
BLACK
6
CONTINUOUS
10
6.1797812204724405
20
-3.7775140157480314
11
6.1803379921259838
21
-3.7777446456692911
0
LINE
8
BLACK
6
CONTINUOUS
10
6.1803379921259838
20
-3.7777446456692911
11
6.180568622047244
21
-3.7783014173228344
0
LINE
8
BLACK
6
CONTINUOUS
10
6.180568622047244
20
-3.7783014173228344
11
6.180568622047244
21
-3.7812635433070865
0
LINE
8
BLACK
6
CONTINUOUS
10
6.180568622047244
20
-3.7812635433070865
11
6.182743346456693
21
-3.7812635433070865
0
LINE
8
BLACK
6
CONTINUOUS
10
6.182743346456693
20
-3.7812635433070865
11
6.182743346456693
21
-3.7794262992125982
0
LINE
8
BLACK
6
CONTINUOUS
10
6.182743346456693
20
-3.7794262992125982
11
6.1829739763779523
21
-3.7788695275590549
0
LINE
8
BLACK
6
CONTINUOUS
10
6.1829739763779523
20
-3.7788695275590549
11
6.1835307480314956
21
-3.7786388976377951
0
LINE
8
BLACK
6
CONTINUOUS
10
6.1835307480314956
20
-3.7786388976377951
11
6.1840875196850389
21
-3.7788695275590549
0
LINE
8
BLACK
6
CONTINUOUS
10
6.1840875196850389
20
-3.7788695275590549
11
6.1843181496062991
21
-3.7794262992125982
0
LINE
8
BLACK
6
CONTINUOUS
10
6.1843181496062991
20
-3.7794262992125982
11
6.1843181496062991
21
-3.7812635433070865
0
LINE
8
BLACK
6
CONTINUOUS
10
6.1843181496062991
20
-3.7812635433070865
11
6.1868678346456694
21
-3.7812635433070865
0
LINE
8
BLACK
6
CONTINUOUS
10
6.1868678346456694
20
-3.7812635433070865
11
6.1868678346456694
21
-3.7783014173228344
0
LINE
8
BLACK
6
CONTINUOUS
10
6.1868678346456694
20
-3.7783014173228344
11
6.1870984645669287
21
-3.7777446456692911
0
LINE
8
BLACK
6
CONTINUOUS
10
6.1870984645669287
20
-3.7777446456692911
11
6.187655236220472
21
-3.7775140157480314
0
LINE
8
BLACK
6
CONTINUOUS
10
6.187655236220472
20
-3.7775140157480314
11
6.1882120078740153
21
-3.7777446456692911
0
LINE
8
BLACK
6
CONTINUOUS
10
6.2032101574803145
20
-3.7754949606299211
11
6.2035851181102357
21
-3.7758699212598423
0
LINE
8
BLACK
6
CONTINUOUS
10
6.2035851181102357
20
-3.7758699212598423
11
6.203655236220472
21
-3.776039212598425
0
LINE
8
BLACK
6
CONTINUOUS
10
6.203655236220472
20
-3.776039212598425
11
6.2037753543307081
21
-3.7761777165354329
0
LINE
8
BLACK
6
CONTINUOUS
10
6.2037753543307081
20
-3.7761777165354329
11
6.2041502755905507
21
-3.7773025590551179
0
LINE
8
BLACK
6
CONTINUOUS
10
6.2041502755905507
20
-3.7773025590551179
11
6.2041410629921261
21
-3.777431811023622
0
LINE
8
BLACK
6
CONTINUOUS
10
6.2041410629921261
20
-3.777431811023622
11
6.2041906692913384
21
-3.7775515354330707
0
LINE
8
BLACK
6
CONTINUOUS
10
6.2041906692913384
20
-3.7775515354330707
11
6.2041906692913384
21
-3.7783014566929132
0
LINE
8
BLACK
6
CONTINUOUS
10
6.2041906692913384
20
-3.7783014566929132
11
6.2041410629921261
21
-3.7784211417322835
0
LINE
8
BLACK
6
CONTINUOUS
10
6.2041410629921261
20
-3.7784211417322835
11
6.2041502755905507
21
-3.7785504330708659
0
LINE
8
BLACK
6
CONTINUOUS
10
6.2041502755905507
20
-3.7785504330708659
11
6.2037753543307081
21
-3.7796752755905509
0
LINE
8
BLACK
6
CONTINUOUS
10
6.2037753543307081
20
-3.7796752755905509
11
6.203655236220472
21
-3.7798137401574801
0
LINE
8
BLACK
6
CONTINUOUS
10
6.203655236220472
20
-3.7798137401574801
11
6.2035851181102357
21
-3.7799830708661415
0
LINE
8
BLACK
6
CONTINUOUS
10
6.2035851181102357
20
-3.7799830708661415
11
6.2028351968503932
21
-3.780732992125984
0
LINE
8
BLACK
6
CONTINUOUS
10
6.2028351968503932
20
-3.780732992125984
11
6.2027154724409446
21
-3.7807825590551181
0
LINE
8
BLACK
6
CONTINUOUS
10
6.2027154724409446
20
-3.7807825590551181
11
6.2026305511811026
21
-3.7808805118110236
0
LINE
8
BLACK
6
CONTINUOUS
10
6.2026305511811026
20
-3.7808805118110236
11
6.2018806299212601
21
-3.7812554330708661
0
LINE
8
BLACK
6
CONTINUOUS
10
6.2018806299212601
20
-3.7812554330708661
11
6.2017913385826766
21
-3.781261771653543
0
LINE
8
BLACK
6
CONTINUOUS
10
6.2017913385826766
20
-3.781261771653543
11
6.2017194488188974
21
-3.7813150393700785
0
LINE
8
BLACK
6
CONTINUOUS
10
6.2017194488188974
20
-3.7813150393700785
11
6.2002196850393698
21
-3.7816899999999998
0
LINE
8
BLACK
6
CONTINUOUS
10
6.2002196850393698
20
-3.7816899999999998
11
6.2001209055118105
21
-3.7816752755905512
0
LINE
8
BLACK
6
CONTINUOUS
10
6.2001209055118105
20
-3.7816752755905512
11
6.2000287007874011
21
-3.781713503937008
0
LINE
8
BLACK
6
CONTINUOUS
10
6.2000287007874011
20
-3.781713503937008
11
6.1989038582677161
21
-3.781713503937008
0
LINE
8
BLACK
6
CONTINUOUS
10
6.1989038582677161
20
-3.781713503937008
11
6.1988116141732279
21
-3.7816752755905512
0
LINE
8
BLACK
6
CONTINUOUS
10
6.1988116141732279
20
-3.7816752755905512
11
6.1987128740157482
21
-3.7816899999999998
0
LINE
8
BLACK
6
CONTINUOUS
10
6.1987128740157482
20
-3.7816899999999998
11
6.1972130314960632
21
-3.7813150393700785
0
LINE
8
BLACK
6
CONTINUOUS
10
6.1972130314960632
20
-3.7813150393700785
11
6.1971411023622043
21
-3.7812617322834643
0
LINE
8
BLACK
6
CONTINUOUS
10
6.1971411023622043
20
-3.7812617322834643
11
6.1970518897637792
21
-3.7812554330708661
0
LINE
8
BLACK
6
CONTINUOUS
10
6.1970518897637792
20
-3.7812554330708661
11
6.1963020078740154
21
-3.7808805118110236
0
LINE
8
BLACK
6
CONTINUOUS
10
6.1963020078740154
20
-3.7808805118110236
11
6.1962170472440947
21
-3.7807825590551181
0
LINE
8
BLACK
6
CONTINUOUS
10
6.1962170472440947
20
-3.7807825590551181
11
6.196097362204724
21
-3.780732992125984
0
LINE
8
BLACK
6
CONTINUOUS
10
6.196097362204724
20
-3.780732992125984
11
6.1953474409448814
21
-3.7799830708661415
0
LINE
8
BLACK
6
CONTINUOUS
10
6.1953474409448814
20
-3.7799830708661415
11
6.1952772834645664
21
-3.7798137401574801
0
LINE
8
BLACK
6
CONTINUOUS
10
6.1952772834645664
20
-3.7798137401574801
11
6.1951572440944878
21
-3.7796753149606297
0
LINE
8
BLACK
6
CONTINUOUS
10
6.1951572440944878
20
-3.7796753149606297
11
6.1947822440944877
21
-3.7785504724409447
0
LINE
8
BLACK
6
CONTINUOUS
10
6.1947822440944877
20
-3.7785504724409447
11
6.1947914173228344
21
-3.7784211417322835
0
LINE
8
BLACK
6
CONTINUOUS
10
6.1947914173228344
20
-3.7784211417322835
11
6.1947418503937008
21
-3.7783014566929132
0
LINE
8
BLACK
6
CONTINUOUS
10
6.1947418503937008
20
-3.7783014566929132
11
6.1947418503937008
21
-3.7775515354330707
0
LINE
8
BLACK
6
CONTINUOUS
10
6.1947418503937008
20
-3.7775515354330707
11
6.1947914173228344
21
-3.777431811023622
0
LINE
8
BLACK
6
CONTINUOUS
10
6.1947914173228344
20
-3.777431811023622
11
6.1947822440944877
21
-3.7773025196850392
0
LINE
8
BLACK
6
CONTINUOUS
10
6.1947822440944877
20
-3.7773025196850392
11
6.1951572440944878
21
-3.7761776771653541
0
LINE
8
BLACK
6
CONTINUOUS
10
6.1951572440944878
20
-3.7761776771653541
11
6.1952772834645664
21
-3.776039212598425
0
LINE
8
BLACK
6
CONTINUOUS
10
6.1952772834645664
20
-3.776039212598425
11
6.1953474409448814
21
-3.7758699212598423
0
LINE
8
BLACK
6
CONTINUOUS
10
6.1953474409448814
20
-3.7758699212598423
11
6.1957224015748027
21
-3.7754949606299211
0
LINE
8
BLACK
6
CONTINUOUS
10
6.1957224015748027
20
-3.7754949606299211
11
6.196279173228346
21
-3.7752643307086613
0
LINE
8
BLACK
6
CONTINUOUS
10
6.196279173228346
20
-3.7752643307086613
11
6.1968359448818893
21
-3.7754949606299211
0
LINE
8
BLACK
6
CONTINUOUS
10
6.1968359448818893
20
-3.7754949606299211
11
6.1970665748031495
21
-3.7760517322834644
0
LINE
8
BLACK
6
CONTINUOUS
10
6.1970665748031495
20
-3.7760517322834644
11
6.1968359448818893
21
-3.7766085039370076
0
LINE
8
BLACK
6
CONTINUOUS
10
6.1968359448818893
20
-3.7766085039370076
11
6.1965924409448814
21
-3.7768520078740155
0
LINE
8
BLACK
6
CONTINUOUS
10
6.1965924409448814
20
-3.7768520078740155
11
6.196316653543307
21
-3.7776793700787401
0
LINE
8
BLACK
6
CONTINUOUS
10
6.196316653543307
20
-3.7776793700787401
11
6.196316653543307
21
-3.7781736220472442
0
LINE
8
BLACK
6
CONTINUOUS
10
6.196316653543307
20
-3.7781736220472442
11
6.1965924409448814
21
-3.7790009842519683
0
LINE
8
BLACK
6
CONTINUOUS
10
6.1965924409448814
20
-3.7790009842519683
11
6.197120472440945
21
-3.7795290157480315
0
LINE
8
BLACK
6
CONTINUOUS
10
6.197120472440945
20
-3.7795290157480315
11
6.1976788188976375
21
-3.7798081889763777
0
LINE
8
BLACK
6
CONTINUOUS
10
6.1976788188976375
20
-3.7798081889763777
11
6.1990007874015749
21
-3.7801387007874014
0
LINE
8
BLACK
6
CONTINUOUS
10
6.1990007874015749
20
-3.7801387007874014
11
6.1999317322834644
21
-3.7801387007874014
0
LINE
8
BLACK
6
CONTINUOUS
10
6.1999317322834644
20
-3.7801387007874014
11
6.201253661417323
21
-3.7798081889763777
0
LINE
8
BLACK
6
CONTINUOUS
10
6.201253661417323
20
-3.7798081889763777
11
6.2018120078740155
21
-3.7795290551181102
0
LINE
8
BLACK
6
CONTINUOUS
10
6.2018120078740155
20
-3.7795290551181102
11
6.202340078740157
21
-3.7790009842519683
0
LINE
8
BLACK
6
CONTINUOUS
10
6.202340078740157
20
-3.7790009842519683
11
6.2026158661417323
21
-3.7781736614173229
0
LINE
8
BLACK
6
CONTINUOUS
10
6.2026158661417323
20
-3.7781736614173229
11
6.2026158661417323
21
-3.7776792913385826
0
LINE
8
BLACK
6
CONTINUOUS
10
6.2026158661417323
20
-3.7776792913385826
11
6.202340078740157
21
-3.7768519685039368
0
LINE
8
BLACK
6
CONTINUOUS
10
6.202340078740157
20
-3.7768519685039368
11
6.2020966141732279
21
-3.7766085039370076
0
LINE
8
BLACK
6
CONTINUOUS
10
6.2020966141732279
20
-3.7766085039370076
11
6.2018659842519686
21
-3.7760517322834644
0
LINE
8
BLACK
6
CONTINUOUS
10
6.2018659842519686
20
-3.7760517322834644
11
6.2020966141732279
21
-3.7754949606299211
0
LINE
8
BLACK
6
CONTINUOUS
10
6.2020966141732279
20
-3.7754949606299211
11
6.2026533858267712
21
-3.7752643307086613
0
LINE
8
BLACK
6
CONTINUOUS
10
6.2026533858267712
20
-3.7752643307086613
11
6.2032101574803145
21
-3.7754949606299211
0
LINE
8
BLACK
6
CONTINUOUS
10
6.2175349212598423
20
-3.7768472047244095
11
6.2179297637795274
21
-3.7773024803149604
0
LINE
8
BLACK
6
CONTINUOUS
10
6.2179297637795274
20
-3.7773024803149604
11
6.2178870866141729
21
-3.7779035826771654
0
LINE
8
BLACK
6
CONTINUOUS
10
6.2178870866141729
20
-3.7779035826771654
11
6.2175121653543304
21
-3.7786535433070867
0
LINE
8
BLACK
6
CONTINUOUS
10
6.2175121653543304
20
-3.7786535433070867
11
6.2173235433070868
21
-3.7788170866141733
0
LINE
8
BLACK
6
CONTINUOUS
10
6.2173235433070868
20
-3.7788170866141733
11
6.2171599999999998
21
-3.7790057086614173
0
LINE
8
BLACK
6
CONTINUOUS
10
6.2171599999999998
20
-3.7790057086614173
11
6.2164100787401573
21
-3.7793806299212598
0
LINE
8
BLACK
6
CONTINUOUS
10
6.2164100787401573
20
-3.7793806299212598
11
6.2162272440944877
21
-3.7793935826771654
0
LINE
8
BLACK
6
CONTINUOUS
10
6.2162272440944877
20
-3.7793935826771654
11
6.2160579527559054
21
-3.7794637401574804
0
LINE
8
BLACK
6
CONTINUOUS
10
6.2160579527559054
20
-3.7794637401574804
11
6.209308779527559
21
-3.7794637401574804
0
LINE
8
BLACK
6
CONTINUOUS
10
6.209308779527559
20
-3.7794637401574804
11
6.2087520078740157
21
-3.7792331102362202
0
LINE
8
BLACK
6
CONTINUOUS
10
6.2087520078740157
20
-3.7792331102362202
11
6.2085213779527555
21
-3.7786763385826769
0
LINE
8
BLACK
6
CONTINUOUS
10
6.2085213779527555
20
-3.7786763385826769
11
6.2087520078740157
21
-3.7781195669291336
0
LINE
8
BLACK
6
CONTINUOUS
10
6.2087520078740157
20
-3.7781195669291336
11
6.209308779527559
21
-3.7778889370078739
0
LINE
8
BLACK
6
CONTINUOUS
10
6.209308779527559
20
-3.7778889370078739
11
6.2158720866141728
21
-3.7778889370078739
0
LINE
8
BLACK
6
CONTINUOUS
10
6.2158720866141728
20
-3.7778889370078739
11
6.2162209448818899
21
-3.7777144881889764
0
LINE
8
BLACK
6
CONTINUOUS
10
6.2162209448818899
20
-3.7777144881889764
11
6.2164785039370081
21
-3.7771993700787401
0
LINE
8
BLACK
6
CONTINUOUS
10
6.2164785039370081
20
-3.7771993700787401
11
6.216933779527559
21
-3.7768045275590549
0
LINE
8
BLACK
6
CONTINUOUS
10
6.216933779527559
20
-3.7768045275590549
11
6.2175349212598423
21
-3.7768472047244095
0
LINE
8
BLACK
6
CONTINUOUS
10
6.2276633070866136
20
-3.7734596456692913
11
6.2278461417322832
21
-3.7734726377952756
0
LINE
8
BLACK
6
CONTINUOUS
10
6.2278461417322832
20
-3.7734726377952756
11
6.2285960629921258
21
-3.7738475984251969
0
LINE
8
BLACK
6
CONTINUOUS
10
6.2285960629921258
20
-3.7738475984251969
11
6.2286809842519686
21
-3.7739455118110237
0
LINE
8
BLACK
6
CONTINUOUS
10
6.2286809842519686
20
-3.7739455118110237
11
6.2288007086614172
21
-3.773995118110236
0
LINE
8
BLACK
6
CONTINUOUS
10
6.2288007086614172
20
-3.773995118110236
11
6.2291756692913385
21
-3.7743700787401573
0
LINE
8
BLACK
6
CONTINUOUS
10
6.2291756692913385
20
-3.7743700787401573
11
6.2292252362204721
21
-3.7744897637795276
0
LINE
8
BLACK
6
CONTINUOUS
10
6.2292252362204721
20
-3.7744897637795276
11
6.2293231889763776
21
-3.7745747244094487
0
LINE
8
BLACK
6
CONTINUOUS
10
6.2293231889763776
20
-3.7745747244094487
11
6.2296981102362201
21
-3.77532468503937
0
LINE
8
BLACK
6
CONTINUOUS
10
6.2296981102362201
20
-3.77532468503937
11
6.2297110629921262
21
-3.7755074409448817
0
LINE
8
BLACK
6
CONTINUOUS
10
6.2297110629921262
20
-3.7755074409448817
11
6.2297812204724412
21
-3.7756767716535431
0
LINE
8
BLACK
6
CONTINUOUS
10
6.2297812204724412
20
-3.7756767716535431
11
6.2297812204724412
21
-3.7771390551181101
0
LINE
8
BLACK
6
CONTINUOUS
10
6.2297812204724412
20
-3.7771390551181101
11
6.2316185039370078
21
-3.7771390551181101
0
LINE
8
BLACK
6
CONTINUOUS
10
6.2316185039370078
20
-3.7771390551181101
11
6.2321752755905511
21
-3.7773696850393699
0
LINE
8
BLACK
6
CONTINUOUS
10
6.2321752755905511
20
-3.7773696850393699
11
6.2324059055118113
21
-3.7779264566929132
0
LINE
8
BLACK
6
CONTINUOUS
10
6.2324059055118113
20
-3.7779264566929132
11
6.2321752755905511
21
-3.7784832283464564
0
LINE
8
BLACK
6
CONTINUOUS
10
6.2321752755905511
20
-3.7784832283464564
11
6.2316185039370078
21
-3.7787138582677167
0
LINE
8
BLACK
6
CONTINUOUS
10
6.2316185039370078
20
-3.7787138582677167
11
6.2237444881889763
21
-3.7787138582677167
0
LINE
8
BLACK
6
CONTINUOUS
10
6.2237444881889763
20
-3.7787138582677167
11
6.223187716535433
21
-3.7784832283464564
0
LINE
8
BLACK
6
CONTINUOUS
10
6.223187716535433
20
-3.7784832283464564
11
6.2229570866141728
21
-3.7779264566929132
0
LINE
8
BLACK
6
CONTINUOUS
10
6.2229570866141728
20
-3.7779264566929132
11
6.2230848425196852
21
-3.7776179527559055
0
LINE
8
BLACK
6
CONTINUOUS
10
6.2230848425196852
20
-3.7776179527559055
11
6.2230402362204726
21
-3.7775287401574804
0
LINE
8
BLACK
6
CONTINUOUS
10
6.2230402362204726
20
-3.7775287401574804
11
6.2230272047244091
21
-3.7773459055118108
0
LINE
8
BLACK
6
CONTINUOUS
10
6.2230272047244091
20
-3.7773459055118108
11
6.2229570866141728
21
-3.7771765748031494
0
LINE
8
BLACK
6
CONTINUOUS
10
6.2229570866141728
20
-3.7771765748031494
11
6.2229570866141728
21
-3.7756767716535431
0
LINE
8
BLACK
6
CONTINUOUS
10
6.2229570866141728
20
-3.7756767716535431
11
6.2230272047244091
21
-3.7755074409448817
0
LINE
8
BLACK
6
CONTINUOUS
10
6.2230272047244091
20
-3.7755074409448817
11
6.2230401968503939
21
-3.7753246456692913
0
LINE
8
BLACK
6
CONTINUOUS
10
6.2230401968503939
20
-3.7753246456692913
11
6.2234151574803152
21
-3.7745747244094487
0
LINE
8
BLACK
6
CONTINUOUS
10
6.2234151574803152
20
-3.7745747244094487
11
6.2235130708661419
21
-3.7744897637795276
0
LINE
8
BLACK
6
CONTINUOUS
10
6.2235130708661419
20
-3.7744897637795276
11
6.2235626771653543
21
-3.7743700787401573
0
LINE
8
BLACK
6
CONTINUOUS
10
6.2235626771653543
20
-3.7743700787401573
11
6.2239376377952755
21
-3.773995118110236
0
LINE
8
BLACK
6
CONTINUOUS
10
6.2239376377952755
20
-3.773995118110236
11
6.2240573228346454
21
-3.7739455118110237
0
LINE
8
BLACK
6
CONTINUOUS
10
6.2240573228346454
20
-3.7739455118110237
11
6.2241422440944882
21
-3.7738476377952757
0
LINE
8
BLACK
6
CONTINUOUS
10
6.2241422440944882
20
-3.7738476377952757
11
6.224892125984252
21
-3.7734726771653544
0
LINE
8
BLACK
6
CONTINUOUS
10
6.224892125984252
20
-3.7734726771653544
11
6.2250748818897632
21
-3.77345968503937
0
LINE
8
BLACK
6
CONTINUOUS
10
6.2250748818897632
20
-3.77345968503937
11
6.2252442913385826
21
-3.773389527559055
0
LINE
8
BLACK
6
CONTINUOUS
10
6.2252442913385826
20
-3.773389527559055
11
6.2274940157480314
21
-3.773389527559055
0
LINE
8
BLACK
6
CONTINUOUS
10
6.2274940157480314
20
-3.773389527559055
11
6.2276633070866136
21
-3.7734596456692913
0
LINE
8
BLACK
6
CONTINUOUS
10
6.2249608267716532
20
-3.7751990157480315
11
6.2247665748031498
21
-3.7753932283464566
0
LINE
8
BLACK
6
CONTINUOUS
10
6.2247665748031498
20
-3.7753932283464566
11
6.2245318897637798
21
-3.7758626377952753
0
LINE
8
BLACK
6
CONTINUOUS
10
6.2245318897637798
20
-3.7758626377952753
11
6.2245318897637798
21
-3.7769906692913384
0
LINE
8
BLACK
6
CONTINUOUS
10
6.2245318897637798
20
-3.7769906692913384
11
6.2246060629921258
21
-3.7771390551181101
0
LINE
8
BLACK
6
CONTINUOUS
10
6.2246060629921258
20
-3.7771390551181101
11
6.2281322440944882
21
-3.7771390551181101
0
LINE
8
BLACK
6
CONTINUOUS
10
6.2281322440944882
20
-3.7771390551181101
11
6.2282064173228342
21
-3.7769906692913384
0
LINE
8
BLACK
6
CONTINUOUS
10
6.2282064173228342
20
-3.7769906692913384
11
6.2282064173228342
21
-3.7758626377952753
0
LINE
8
BLACK
6
CONTINUOUS
10
6.2282064173228342
20
-3.7758626377952753
11
6.2279716929133855
21
-3.7753931889763779
0
LINE
8
BLACK
6
CONTINUOUS
10
6.2279716929133855
20
-3.7753931889763779
11
6.2277775196850396
21
-3.7751990157480315
0
LINE
8
BLACK
6
CONTINUOUS
10
6.2277775196850396
20
-3.7751990157480315
11
6.22730811023622
21
-3.7749643307086616
0
LINE
8
BLACK
6
CONTINUOUS
10
6.22730811023622
20
-3.7749643307086616
11
6.2254301968503931
21
-3.7749643307086616
0
LINE
8
BLACK
6
CONTINUOUS
10
6.2254301968503931
20
-3.7749643307086616
11
6.2249608267716532
21
-3.7751990157480315
0
LINE
8
BLACK
6
CONTINUOUS
10
6.2174475984251965
20
-3.7726854724409447
11
6.2174593700787399
21
-3.7726961023622048
0
LINE
8
BLACK
6
CONTINUOUS
10
6.2174593700787399
20
-3.7726961023622048
11
6.2174752362204719
21
-3.7726959448818898
0
LINE
8
BLACK
6
CONTINUOUS
10
6.2174752362204719
20
-3.7726959448818898
11
6.2193499999999995
21
-3.7734458267716535
0
LINE
8
BLACK
6
CONTINUOUS
10
6.2193499999999995
20
-3.7734458267716535
11
6.2194653543307084
21
-3.7735584251968501
0
LINE
8
BLACK
6
CONTINUOUS
10
6.2194653543307084
20
-3.7735584251968501
11
6.2196142913385826
21
-3.773620118110236
0
LINE
8
BLACK
6
CONTINUOUS
10
6.2196142913385826
20
-3.773620118110236
11
6.2199892519685038
21
-3.7739950393700785
0
LINE
8
BLACK
6
CONTINUOUS
10
6.2199892519685038
20
-3.7739950393700785
11
6.2200388582677162
21
-3.7741147637795276
0
LINE
8
BLACK
6
CONTINUOUS
10
6.2200388582677162
20
-3.7741147637795276
11
6.2201368110236217
21
-3.7741997244094487
0
LINE
8
BLACK
6
CONTINUOUS
10
6.2201368110236217
20
-3.7741997244094487
11
6.2205117322834642
21
-3.7749496062992125
0
LINE
8
BLACK
6
CONTINUOUS
10
6.2205117322834642
20
-3.7749496062992125
11
6.2205544488188975
21
-3.7755507480314958
0
LINE
8
BLACK
6
CONTINUOUS
10
6.2205544488188975
20
-3.7755507480314958
11
6.2201596062992124
21
-3.7760060236220472
0
LINE
8
BLACK
6
CONTINUOUS
10
6.2201596062992124
20
-3.7760060236220472
11
6.2195584645669291
21
-3.77604874015748
0
LINE
8
BLACK
6
CONTINUOUS
10
6.2195584645669291
20
-3.77604874015748
11
6.2191031889763781
21
-3.7756538976377954
0
LINE
8
BLACK
6
CONTINUOUS
10
6.2191031889763781
20
-3.7756538976377954
11
6.2187853937007871
21
-3.7750183070866141
0
LINE
8
BLACK
6
CONTINUOUS
10
6.2187853937007871
20
-3.7750183070866141
11
6.2186150393700785
21
-3.7748479527559056
0
LINE
8
BLACK
6
CONTINUOUS
10
6.2186150393700785
20
-3.7748479527559056
11
6.217167007874016
21
-3.7742687401574804
0
LINE
8
BLACK
6
CONTINUOUS
10
6.217167007874016
20
-3.7742687401574804
11
6.2121983070866138
21
-3.776043307086614
0
LINE
8
BLACK
6
CONTINUOUS
10
6.2121983070866138
20
-3.776043307086614
11
6.2115963779527554
21
-3.7760133858267717
0
LINE
8
BLACK
6
CONTINUOUS
10
6.2115963779527554
20
-3.7760133858267717
11
6.2111919291338582
21
-3.7755666141732283
0
LINE
8
BLACK
6
CONTINUOUS
10
6.2111919291338582
20
-3.7755666141732283
11
6.2112218503937004
21
-3.7749646850393699
0
LINE
8
BLACK
6
CONTINUOUS
10
6.2112218503937004
20
-3.7749646850393699
11
6.2116686220472443
21
-3.7745602362204722
0
LINE
8
BLACK
6
CONTINUOUS
10
6.2116686220472443
20
-3.7745602362204722
11
6.2148416535433073
21
-3.7734270078740155
0
LINE
8
BLACK
6
CONTINUOUS
10
6.2148416535433073
20
-3.7734270078740155
11
6.2116686220472443
21
-3.7722937795275588
0
LINE
8
BLACK
6
CONTINUOUS
10
6.2116686220472443
20
-3.7722937795275588
11
6.2112218503937004
21
-3.7718893307086612
0
LINE
8
BLACK
6
CONTINUOUS
10
6.2112218503937004
20
-3.7718893307086612
11
6.2111919291338582
21
-3.7712874015748032
0
LINE
8
BLACK
6
CONTINUOUS
10
6.2111919291338582
20
-3.7712874015748032
11
6.2115963779527554
21
-3.7708406299212598
0
LINE
8
BLACK
6
CONTINUOUS
10
6.2115963779527554
20
-3.7708406299212598
11
6.2121983070866138
21
-3.7708107086614171
0
LINE
8
BLACK
6
CONTINUOUS
10
6.2121983070866138
20
-3.7708107086614171
11
6.2174475984251965
21
-3.7726854724409447
0
LINE
8
BLACK
6
CONTINUOUS
10
6.1825751968503937
20
-3.7697101574803149
11
6.1827580314960633
21
-3.7697231496062993
0
LINE
8
BLACK
6
CONTINUOUS
10
6.1827580314960633
20
-3.7697231496062993
11
6.1835079527559058
21
-3.7700981102362205
0
LINE
8
BLACK
6
CONTINUOUS
10
6.1835079527559058
20
-3.7700981102362205
11
6.1835928740157478
21
-3.7701960236220473
0
LINE
8
BLACK
6
CONTINUOUS
10
6.1835928740157478
20
-3.7701960236220473
11
6.1837125984251964
21
-3.7702456299212597
0
LINE
8
BLACK
6
CONTINUOUS
10
6.1837125984251964
20
-3.7702456299212597
11
6.1840875196850389
21
-3.7706205511811022
0
LINE
8
BLACK
6
CONTINUOUS
10
6.1840875196850389
20
-3.7706205511811022
11
6.1841370866141734
21
-3.7707402755905512
0
LINE
8
BLACK
6
CONTINUOUS
10
6.1841370866141734
20
-3.7707402755905512
11
6.1842350393700789
21
-3.7708251968503936
0
LINE
8
BLACK
6
CONTINUOUS
10
6.1842350393700789
20
-3.7708251968503936
11
6.1846099606299214
21
-3.7715750787401574
0
LINE
8
BLACK
6
CONTINUOUS
10
6.1846099606299214
20
-3.7715750787401574
11
6.1846229133858266
21
-3.771757834645669
0
LINE
8
BLACK
6
CONTINUOUS
10
6.1846229133858266
20
-3.771757834645669
11
6.1846931102362204
21
-3.771927244094488
0
LINE
8
BLACK
6
CONTINUOUS
10
6.1846931102362204
20
-3.771927244094488
11
6.1846931102362204
21
-3.7741394488188975
0
LINE
8
BLACK
6
CONTINUOUS
10
6.1846931102362204
20
-3.7741394488188975
11
6.187655236220472
21
-3.7741394488188975
0
LINE
8
BLACK
6
CONTINUOUS
10
6.187655236220472
20
-3.7741394488188975
11
6.1882120078740153
21
-3.7743700787401573
0
LINE
8
BLACK
6
CONTINUOUS
10
6.1882120078740153
20
-3.7743700787401573
11
6.1884426377952755
21
-3.7749268503937006
0
LINE
8
BLACK
6
CONTINUOUS
10
6.1884426377952755
20
-3.7749268503937006
11
6.1882120078740153
21
-3.7754836220472439
0
LINE
8
BLACK
6
CONTINUOUS
10
6.1882120078740153
20
-3.7754836220472439
11
6.187655236220472
21
-3.7757142519685036
0
LINE
8
BLACK
6
CONTINUOUS
10
6.187655236220472
20
-3.7757142519685036
11
6.1839057086614169
21
-3.7757142519685036
0
LINE
8
BLACK
6
CONTINUOUS
10
6.1839057086614169
20
-3.7757142519685036
11
6.1797812204724405
21
-3.7757142519685036
0
LINE
8
BLACK
6
CONTINUOUS
10
6.1797812204724405
20
-3.7757142519685036
11
6.1792244488188972
21
-3.7754836220472439
0
LINE
8
BLACK
6
CONTINUOUS
10
6.1792244488188972
20
-3.7754836220472439
11
6.1789938188976379
21
-3.7749268503937006
0
LINE
8
BLACK
6
CONTINUOUS
10
6.1789938188976379
20
-3.7749268503937006
11
6.1789938188976379
21
-3.771927244094488
0
LINE
8
BLACK
6
CONTINUOUS
10
6.1789938188976379
20
-3.771927244094488
11
6.1790639370078742
21
-3.7717579133858266
0
LINE
8
BLACK
6
CONTINUOUS
10
6.1790639370078742
20
-3.7717579133858266
11
6.1790769291338581
21
-3.7715751181102362
0
LINE
8
BLACK
6
CONTINUOUS
10
6.1790769291338581
20
-3.7715751181102362
11
6.1794518897637793
21
-3.7708251968503936
0
LINE
8
BLACK
6
CONTINUOUS
10
6.1794518897637793
20
-3.7708251968503936
11
6.1795498425196849
21
-3.7707402362204725
0
LINE
8
BLACK
6
CONTINUOUS
10
6.1795498425196849
20
-3.7707402362204725
11
6.1795994488188972
21
-3.7706205118110234
0
LINE
8
BLACK
6
CONTINUOUS
10
6.1795994488188972
20
-3.7706205118110234
11
6.1799743700787397
21
-3.7702455905511809
0
LINE
8
BLACK
6
CONTINUOUS
10
6.1799743700787397
20
-3.7702455905511809
11
6.1800940944881892
21
-3.7701959842519686
0
LINE
8
BLACK
6
CONTINUOUS
10
6.1800940944881892
20
-3.7701959842519686
11
6.1801790157480312
21
-3.7700981102362205
0
LINE
8
BLACK
6
CONTINUOUS
10
6.1801790157480312
20
-3.7700981102362205
11
6.180928897637795
21
-3.769723188976378
0
LINE
8
BLACK
6
CONTINUOUS
10
6.180928897637795
20
-3.769723188976378
11
6.181111653543307
21
-3.7697101968503937
0
LINE
8
BLACK
6
CONTINUOUS
10
6.181111653543307
20
-3.7697101968503937
11
6.1812810629921255
21
-3.7696400393700786
0
LINE
8
BLACK
6
CONTINUOUS
10
6.1812810629921255
20
-3.7696400393700786
11
6.1824059055118106
21
-3.7696400393700786
0
LINE
8
BLACK
6
CONTINUOUS
10
6.1824059055118106
20
-3.7696400393700786
11
6.1825751968503937
21
-3.7697101574803149
0
LINE
8
BLACK
6
CONTINUOUS
10
6.1809974803149608
20
-3.7714495669291339
11
6.1808032677165352
21
-3.7716437401574803
0
LINE
8
BLACK
6
CONTINUOUS
10
6.1808032677165352
20
-3.7716437401574803
11
6.180568622047244
21
-3.7721131102362202
0
LINE
8
BLACK
6
CONTINUOUS
10
6.180568622047244
20
-3.7721131102362202
11
6.180568622047244
21
-3.7741394488188975
0
LINE
8
BLACK
6
CONTINUOUS
10
6.180568622047244
20
-3.7741394488188975
11
6.1831183070866143
21
-3.7741394488188975
0
LINE
8
BLACK
6
CONTINUOUS
10
6.1831183070866143
20
-3.7741394488188975
11
6.1831183070866143
21
-3.772113149606299
0
LINE
8
BLACK
6
CONTINUOUS
10
6.1831183070866143
20
-3.772113149606299
11
6.1828835826771655
21
-3.7716437007874015
0
LINE
8
BLACK
6
CONTINUOUS
10
6.1828835826771655
20
-3.7716437007874015
11
6.1826894094488187
21
-3.7714495275590552
0
LINE
8
BLACK
6
CONTINUOUS
10
6.1826894094488187
20
-3.7714495275590552
11
6.18222
21
-3.7712148425196848
0
LINE
8
BLACK
6
CONTINUOUS
10
6.18222
20
-3.7712148425196848
11
6.181466968503937
21
-3.7712148425196848
0
LINE
8
BLACK
6
CONTINUOUS
10
6.181466968503937
20
-3.7712148425196848
11
6.1809974803149608
21
-3.7714495669291339
0
LINE
8
BLACK
6
CONTINUOUS
10
6.2020727559055118
20
-3.7682103149606299
11
6.2022555905511814
21
-3.7682233070866142
0
LINE
8
BLACK
6
CONTINUOUS
10
6.2022555905511814
20
-3.7682233070866142
11
6.2030055118110239
21
-3.7685982677165355
0
LINE
8
BLACK
6
CONTINUOUS
10
6.2030055118110239
20
-3.7685982677165355
11
6.2030904330708658
21
-3.7686961811023623
0
LINE
8
BLACK
6
CONTINUOUS
10
6.2030904330708658
20
-3.7686961811023623
11
6.2032101574803145
21
-3.7687457874015746
0
LINE
8
BLACK
6
CONTINUOUS
10
6.2032101574803145
20
-3.7687457874015746
11
6.2035851181102357
21
-3.7691207480314959
0
LINE
8
BLACK
6
CONTINUOUS
10
6.2035851181102357
20
-3.7691207480314959
11
6.2036346850393702
21
-3.7692404330708662
0
LINE
8
BLACK
6
CONTINUOUS
10
6.2036346850393702
20
-3.7692404330708662
11
6.2037326377952757
21
-3.7693253937007873
0
LINE
8
BLACK
6
CONTINUOUS
10
6.2037326377952757
20
-3.7693253937007873
11
6.2041075590551182
21
-3.7700753543307086
0
LINE
8
BLACK
6
CONTINUOUS
10
6.2041075590551182
20
-3.7700753543307086
11
6.2041205118110234
21
-3.7702581102362203
0
LINE
8
BLACK
6
CONTINUOUS
10
6.2041205118110234
20
-3.7702581102362203
11
6.2041906692913384
21
-3.7704274409448817
0
LINE
8
BLACK
6
CONTINUOUS
10
6.2041906692913384
20
-3.7704274409448817
11
6.2041906692913384
21
-3.7715522834645667
0
LINE
8
BLACK
6
CONTINUOUS
10
6.2041906692913384
20
-3.7715522834645667
11
6.2041205118110234
21
-3.7717215748031494
0
LINE
8
BLACK
6
CONTINUOUS
10
6.2041205118110234
20
-3.7717215748031494
11
6.2041075590551182
21
-3.7719043700787402
0
LINE
8
BLACK
6
CONTINUOUS
10
6.2041075590551182
20
-3.7719043700787402
11
6.2037326377952757
21
-3.7726543307086615
0
LINE
8
BLACK
6
CONTINUOUS
10
6.2037326377952757
20
-3.7726543307086615
11
6.2036346456692915
21
-3.7727392519685039
0
LINE
8
BLACK
6
CONTINUOUS
10
6.2036346456692915
20
-3.7727392519685039
11
6.203585078740157
21
-3.7728590157480313
0
LINE
8
BLACK
6
CONTINUOUS
10
6.203585078740157
20
-3.7728590157480313
11
6.2032101181102357
21
-3.7732339370078738
0
LINE
8
BLACK
6
CONTINUOUS
10
6.2032101181102357
20
-3.7732339370078738
11
6.2030903937007871
21
-3.7732835039370078
0
LINE
8
BLACK
6
CONTINUOUS
10
6.2030903937007871
20
-3.7732835039370078
11
6.2030055118110239
21
-3.7733814173228346
0
LINE
8
BLACK
6
CONTINUOUS
10
6.2030055118110239
20
-3.7733814173228346
11
6.2022555905511814
21
-3.7737563779527559
0
LINE
8
BLACK
6
CONTINUOUS
10
6.2022555905511814
20
-3.7737563779527559
11
6.2020727559055118
21
-3.7737693307086615
0
LINE
8
BLACK
6
CONTINUOUS
10
6.2020727559055118
20
-3.7737693307086615
11
6.2019034645669286
21
-3.7738394881889761
0
LINE
8
BLACK
6
CONTINUOUS
10
6.2019034645669286
20
-3.7738394881889761
11
6.1996537401574798
21
-3.7738394881889761
0
LINE
8
BLACK
6
CONTINUOUS
10
6.1996537401574798
20
-3.7738394881889761
11
6.1994843307086613
21
-3.7737692913385827
0
LINE
8
BLACK
6
CONTINUOUS
10
6.1994843307086613
20
-3.7737692913385827
11
6.1993015748031493
21
-3.7737563385826771
0
LINE
8
BLACK
6
CONTINUOUS
10
6.1993015748031493
20
-3.7737563385826771
11
6.1985516929133855
21
-3.7733813779527559
0
LINE
8
BLACK
6
CONTINUOUS
10
6.1985516929133855
20
-3.7733813779527559
11
6.1984668110236223
21
-3.7732835039370078
0
LINE
8
BLACK
6
CONTINUOUS
10
6.1984668110236223
20
-3.7732835039370078
11
6.1983470866141728
21
-3.7732339370078738
0
LINE
8
BLACK
6
CONTINUOUS
10
6.1983470866141728
20
-3.7732339370078738
11
6.1979721653543303
21
-3.7728590157480313
0
LINE
8
BLACK
6
CONTINUOUS
10
6.1979721653543303
20
-3.7728590157480313
11
6.1979225590551179
21
-3.7727392519685039
0
LINE
8
BLACK
6
CONTINUOUS
10
6.1979225590551179
20
-3.7727392519685039
11
6.1978246062992124
21
-3.7726543307086615
0
LINE
8
BLACK
6
CONTINUOUS
10
6.1978246062992124
20
-3.7726543307086615
11
6.1974496456692911
21
-3.771904409448819
0
LINE
8
BLACK
6
CONTINUOUS
10
6.1974496456692911
20
-3.771904409448819
11
6.1974366535433072
21
-3.7717215748031494
0
LINE
8
BLACK
6
CONTINUOUS
10
6.1974366535433072
20
-3.7717215748031494
11
6.1973665354330709
21
-3.7715522834645667
0
LINE
8
BLACK
6
CONTINUOUS
10
6.1973665354330709
20
-3.7715522834645667
11
6.1973665354330709
21
-3.7704274409448817
0
LINE
8
BLACK
6
CONTINUOUS
10
6.1973665354330709
20
-3.7704274409448817
11
6.1974366535433072
21
-3.7702581102362203
0
LINE
8
BLACK
6
CONTINUOUS
10
6.1974366535433072
20
-3.7702581102362203
11
6.1974496456692911
21
-3.7700753149606299
0
LINE
8
BLACK
6
CONTINUOUS
10
6.1974496456692911
20
-3.7700753149606299
11
6.1978246062992124
21
-3.7693253937007873
0
LINE
8
BLACK
6
CONTINUOUS
10
6.1978246062992124
20
-3.7693253937007873
11
6.1979225196850392
21
-3.7692404330708662
0
LINE
8
BLACK
6
CONTINUOUS
10
6.1979225196850392
20
-3.7692404330708662
11
6.1979721259842515
21
-3.7691207480314959
0
LINE
8
BLACK
6
CONTINUOUS
10
6.1979721259842515
20
-3.7691207480314959
11
6.1983470866141728
21
-3.7687457874015746
0
LINE
8
BLACK
6
CONTINUOUS
10
6.1983470866141728
20
-3.7687457874015746
11
6.1984667716535435
21
-3.7686961811023623
0
LINE
8
BLACK
6
CONTINUOUS
10
6.1984667716535435
20
-3.7686961811023623
11
6.1985516929133855
21
-3.7685983070866143
0
LINE
8
BLACK
6
CONTINUOUS
10
6.1985516929133855
20
-3.7685983070866143
11
6.1993015748031493
21
-3.768223346456693
0
LINE
8
BLACK
6
CONTINUOUS
10
6.1993015748031493
20
-3.768223346456693
11
6.1994843307086613
21
-3.7682103543307086
0
LINE
8
BLACK
6
CONTINUOUS
10
6.1994843307086613
20
-3.7682103543307086
11
6.1996537401574798
21
-3.7681401968503936
0
LINE
8
BLACK
6
CONTINUOUS
10
6.1996537401574798
20
-3.7681401968503936
11
6.2019034645669286
21
-3.7681401968503936
0
LINE
8
BLACK
6
CONTINUOUS
10
6.2019034645669286
20
-3.7681401968503936
11
6.2020727559055118
21
-3.7682103149606299
0
LINE
8
BLACK
6
CONTINUOUS
10
6.1993702755905513
20
-3.7699496850393701
11
6.199176023622047
21
-3.7701438976377952
0
LINE
8
BLACK
6
CONTINUOUS
10
6.199176023622047
20
-3.7701438976377952
11
6.198941338582677
21
-3.7706133070866139
0
LINE
8
BLACK
6
CONTINUOUS
10
6.198941338582677
20
-3.7706133070866139
11
6.198941338582677
21
-3.7713663779527558
0
LINE
8
BLACK
6
CONTINUOUS
10
6.198941338582677
20
-3.7713663779527558
11
6.1991759842519683
21
-3.7718357480314961
0
LINE
8
BLACK
6
CONTINUOUS
10
6.1991759842519683
20
-3.7718357480314961
11
6.1993702362204726
21
-3.7720299606299212
0
LINE
8
BLACK
6
CONTINUOUS
10
6.1993702362204726
20
-3.7720299606299212
11
6.1998396456692912
21
-3.77226468503937
0
LINE
8
BLACK
6
CONTINUOUS
10
6.1998396456692912
20
-3.77226468503937
11
6.2017175590551181
21
-3.77226468503937
0
LINE
8
BLACK
6
CONTINUOUS
10
6.2017175590551181
20
-3.77226468503937
11
6.2021869685039368
21
-3.7720299606299212
0
LINE
8
BLACK
6
CONTINUOUS
10
6.2021869685039368
20
-3.7720299606299212
11
6.2023811811023624
21
-3.7718357480314961
0
LINE
8
BLACK
6
CONTINUOUS
10
6.2023811811023624
20
-3.7718357480314961
11
6.2026158661417323
21
-3.7713663779527558
0
LINE
8
BLACK
6
CONTINUOUS
10
6.2026158661417323
20
-3.7713663779527558
11
6.2026158661417323
21
-3.7706133070866139
0
LINE
8
BLACK
6
CONTINUOUS
10
6.2026158661417323
20
-3.7706133070866139
11
6.2023811417322836
21
-3.7701438582677165
0
LINE
8
BLACK
6
CONTINUOUS
10
6.2023811417322836
20
-3.7701438582677165
11
6.2021869685039368
21
-3.7699496850393701
0
LINE
8
BLACK
6
CONTINUOUS
10
6.2021869685039368
20
-3.7699496850393701
11
6.2017175590551181
21
-3.7697149999999997
0
LINE
8
BLACK
6
CONTINUOUS
10
6.2017175590551181
20
-3.7697149999999997
11
6.1998396456692912
21
-3.7697149999999997
0
LINE
8
BLACK
6
CONTINUOUS
10
6.1998396456692912
20
-3.7697149999999997
11
6.1993702755905513
21
-3.7699496850393701
0
LINE
8
BLACK
6
CONTINUOUS
10
6.2276633070866136
20
-3.7663355511811023
11
6.2278461417322832
21
-3.7663485433070867
0
LINE
8
BLACK
6
CONTINUOUS
10
6.2278461417322832
20
-3.7663485433070867
11
6.2285960629921258
21
-3.7667235039370079
0
LINE
8
BLACK
6
CONTINUOUS
10
6.2285960629921258
20
-3.7667235039370079
11
6.2286809842519686
21
-3.7668214173228347
0
LINE
8
BLACK
6
CONTINUOUS
10
6.2286809842519686
20
-3.7668214173228347
11
6.2288007086614172
21
-3.7668710236220471
0
LINE
8
BLACK
6
CONTINUOUS
10
6.2288007086614172
20
-3.7668710236220471
11
6.2291756692913385
21
-3.7672459842519683
0
LINE
8
BLACK
6
CONTINUOUS
10
6.2291756692913385
20
-3.7672459842519683
11
6.2292252362204721
21
-3.7673656692913386
0
LINE
8
BLACK
6
CONTINUOUS
10
6.2292252362204721
20
-3.7673656692913386
11
6.2293231889763776
21
-3.7674506299212598
0
LINE
8
BLACK
6
CONTINUOUS
10
6.2293231889763776
20
-3.7674506299212598
11
6.2296981102362201
21
-3.7682005905511811
0
LINE
8
BLACK
6
CONTINUOUS
10
6.2296981102362201
20
-3.7682005905511811
11
6.2297110629921262
21
-3.7683833464566927
0
LINE
8
BLACK
6
CONTINUOUS
10
6.2297110629921262
20
-3.7683833464566927
11
6.2297812204724412
21
-3.7685526771653541
0
LINE
8
BLACK
6
CONTINUOUS
10
6.2297812204724412
20
-3.7685526771653541
11
6.2297812204724412
21
-3.7696775196850392
0
LINE
8
BLACK
6
CONTINUOUS
10
6.2297812204724412
20
-3.7696775196850392
11
6.2297110629921262
21
-3.7698468110236218
0
LINE
8
BLACK
6
CONTINUOUS
10
6.2297110629921262
20
-3.7698468110236218
11
6.2296981102362201
21
-3.7700296062992127
0
LINE
8
BLACK
6
CONTINUOUS
10
6.2296981102362201
20
-3.7700296062992127
11
6.2293231889763776
21
-3.770779566929134
0
LINE
8
BLACK
6
CONTINUOUS
10
6.2293231889763776
20
-3.770779566929134
11
6.2292251968503933
21
-3.7708644881889763
0
LINE
8
BLACK
6
CONTINUOUS
10
6.2292251968503933
20
-3.7708644881889763
11
6.2291756299212597
21
-3.7709842519685037
0
LINE
8
BLACK
6
CONTINUOUS
10
6.2291756299212597
20
-3.7709842519685037
11
6.2288006692913385
21
-3.7713591732283462
0
LINE
8
BLACK
6
CONTINUOUS
10
6.2288006692913385
20
-3.7713591732283462
11
6.2286809448818898
21
-3.7714087401574803
0
LINE
8
BLACK
6
CONTINUOUS
10
6.2286809448818898
20
-3.7714087401574803
11
6.2285960629921258
21
-3.7715066535433071
0
LINE
8
BLACK
6
CONTINUOUS
10
6.2285960629921258
20
-3.7715066535433071
11
6.2278461417322832
21
-3.7718816141732283
0
LINE
8
BLACK
6
CONTINUOUS
10
6.2278461417322832
20
-3.7718816141732283
11
6.2276633070866136
21
-3.7718945669291339
0
LINE
8
BLACK
6
CONTINUOUS
10
6.2276633070866136
20
-3.7718945669291339
11
6.2274940157480314
21
-3.7719647244094485
0
LINE
8
BLACK
6
CONTINUOUS
10
6.2274940157480314
20
-3.7719647244094485
11
6.2252442913385826
21
-3.7719647244094485
0
LINE
8
BLACK
6
CONTINUOUS
10
6.2252442913385826
20
-3.7719647244094485
11
6.2250748818897632
21
-3.7718945275590552
0
LINE
8
BLACK
6
CONTINUOUS
10
6.2250748818897632
20
-3.7718945275590552
11
6.224892125984252
21
-3.7718815748031496
0
LINE
8
BLACK
6
CONTINUOUS
10
6.224892125984252
20
-3.7718815748031496
11
6.2241422440944882
21
-3.7715066141732283
0
LINE
8
BLACK
6
CONTINUOUS
10
6.2241422440944882
20
-3.7715066141732283
11
6.2240573622047242
21
-3.7714087401574803
0
LINE
8
BLACK
6
CONTINUOUS
10
6.2240573622047242
20
-3.7714087401574803
11
6.2239376377952755
21
-3.7713591732283462
0
LINE
8
BLACK
6
CONTINUOUS
10
6.2239376377952755
20
-3.7713591732283462
11
6.223562716535433
21
-3.7709842519685037
0
LINE
8
BLACK
6
CONTINUOUS
10
6.223562716535433
20
-3.7709842519685037
11
6.2235131102362207
21
-3.7708644881889763
0
LINE
8
BLACK
6
CONTINUOUS
10
6.2235131102362207
20
-3.7708644881889763
11
6.2234151574803152
21
-3.770779566929134
0
LINE
8
BLACK
6
CONTINUOUS
10
6.2234151574803152
20
-3.770779566929134
11
6.2230401968503939
21
-3.7700296456692914
0
LINE
8
BLACK
6
CONTINUOUS
10
6.2230401968503939
20
-3.7700296456692914
11
6.2230272047244091
21
-3.7698468110236218
0
LINE
8
BLACK
6
CONTINUOUS
10
6.2230272047244091
20
-3.7698468110236218
11
6.2229570866141728
21
-3.7696775196850392
0
LINE
8
BLACK
6
CONTINUOUS
10
6.2229570866141728
20
-3.7696775196850392
11
6.2229570866141728
21
-3.7685526771653541
0
LINE
8
BLACK
6
CONTINUOUS
10
6.2229570866141728
20
-3.7685526771653541
11
6.2230272047244091
21
-3.7683833464566927
0
LINE
8
BLACK
6
CONTINUOUS
10
6.2230272047244091
20
-3.7683833464566927
11
6.2230401968503939
21
-3.7682005511811023
0
LINE
8
BLACK
6
CONTINUOUS
10
6.2230401968503939
20
-3.7682005511811023
11
6.2234151574803152
21
-3.7674506299212598
0
LINE
8
BLACK
6
CONTINUOUS
10
6.2234151574803152
20
-3.7674506299212598
11
6.2235130708661419
21
-3.7673656692913386
0
LINE
8
BLACK
6
CONTINUOUS
10
6.2235130708661419
20
-3.7673656692913386
11
6.2235626771653543
21
-3.7672459842519683
0
LINE
8
BLACK
6
CONTINUOUS
10
6.2235626771653543
20
-3.7672459842519683
11
6.2239376377952755
21
-3.7668710236220471
0
LINE
8
BLACK
6
CONTINUOUS
10
6.2239376377952755
20
-3.7668710236220471
11
6.2240573228346454
21
-3.7668214173228347
0
LINE
8
BLACK
6
CONTINUOUS
10
6.2240573228346454
20
-3.7668214173228347
11
6.2241422440944882
21
-3.7667235433070867
0
LINE
8
BLACK
6
CONTINUOUS
10
6.2241422440944882
20
-3.7667235433070867
11
6.224892125984252
21
-3.7663485826771654
0
LINE
8
BLACK
6
CONTINUOUS
10
6.224892125984252
20
-3.7663485826771654
11
6.2250748818897632
21
-3.7663355905511811
0
LINE
8
BLACK
6
CONTINUOUS
10
6.2250748818897632
20
-3.7663355905511811
11
6.2252442913385826
21
-3.766265433070866
0
LINE
8
BLACK
6
CONTINUOUS
10
6.2252442913385826
20
-3.766265433070866
11
6.2274940157480314
21
-3.766265433070866
0
LINE
8
BLACK
6
CONTINUOUS
10
6.2274940157480314
20
-3.766265433070866
11
6.2276633070866136
21
-3.7663355511811023
0
LINE
8
BLACK
6
CONTINUOUS
10
6.2249608267716532
20
-3.7680749212598426
11
6.2247665748031498
21
-3.7682691338582677
0
LINE
8
BLACK
6
CONTINUOUS
10
6.2247665748031498
20
-3.7682691338582677
11
6.2245318897637798
21
-3.7687385433070864
0
LINE
8
BLACK
6
CONTINUOUS
10
6.2245318897637798
20
-3.7687385433070864
11
6.2245318897637798
21
-3.7694916141732282
0
LINE
8
BLACK
6
CONTINUOUS
10
6.2245318897637798
20
-3.7694916141732282
11
6.224766535433071
21
-3.7699609842519686
0
LINE
8
BLACK
6
CONTINUOUS
10
6.224766535433071
20
-3.7699609842519686
11
6.2249607874015744
21
-3.7701551968503937
0
LINE
8
BLACK
6
CONTINUOUS
10
6.2249607874015744
20
-3.7701551968503937
11
6.2254301968503931
21
-3.7703899212598424
0
LINE
8
BLACK
6
CONTINUOUS
10
6.2254301968503931
20
-3.7703899212598424
11
6.22730811023622
21
-3.7703899212598424
0
LINE
8
BLACK
6
CONTINUOUS
10
6.22730811023622
20
-3.7703899212598424
11
6.2277775196850396
21
-3.7701551968503937
0
LINE
8
BLACK
6
CONTINUOUS
10
6.2277775196850396
20
-3.7701551968503937
11
6.2279717322834642
21
-3.7699609842519686
0
LINE
8
BLACK
6
CONTINUOUS
10
6.2279717322834642
20
-3.7699609842519686
11
6.2282064173228342
21
-3.7694916141732282
0
LINE
8
BLACK
6
CONTINUOUS
10
6.2282064173228342
20
-3.7694916141732282
11
6.2282064173228342
21
-3.7687385433070864
0
LINE
8
BLACK
6
CONTINUOUS
10
6.2282064173228342
20
-3.7687385433070864
11
6.2279716929133855
21
-3.7682690944881889
0
LINE
8
BLACK
6
CONTINUOUS
10
6.2279716929133855
20
-3.7682690944881889
11
6.2277775196850396
21
-3.7680749212598426
0
LINE
8
BLACK
6
CONTINUOUS
10
6.2277775196850396
20
-3.7680749212598426
11
6.22730811023622
21
-3.7678402362204721
0
LINE
8
BLACK
6
CONTINUOUS
10
6.22730811023622
20
-3.7678402362204721
11
6.2254301968503931
21
-3.7678402362204721
0
LINE
8
BLACK
6
CONTINUOUS
10
6.2254301968503931
20
-3.7678402362204721
11
6.2249608267716532
21
-3.7680749212598426
0
LINE
8
BLACK
6
CONTINUOUS
10
6.1851227952755901
20
-3.761429251968504
11
6.1852215748031494
21
-3.7614145669291337
0
LINE
8
BLACK
6
CONTINUOUS
10
6.1852215748031494
20
-3.7614145669291337
11
6.1867213385826769
21
-3.7617895275590549
0
LINE
8
BLACK
6
CONTINUOUS
10
6.1867213385826769
20
-3.7617895275590549
11
6.1868914173228342
21
-3.7619155511811022
0
LINE
8
BLACK
6
CONTINUOUS
10
6.1868914173228342
20
-3.7619155511811022
11
6.1870871653543302
21
-3.7619966141732282
0
LINE
8
BLACK
6
CONTINUOUS
10
6.1870871653543302
20
-3.7619966141732282
11
6.1878370866141728
21
-3.7627464960629919
0
LINE
8
BLACK
6
CONTINUOUS
10
6.1878370866141728
20
-3.7627464960629919
11
6.187886692913386
21
-3.7628662598425198
0
LINE
8
BLACK
6
CONTINUOUS
10
6.187886692913386
20
-3.7628662598425198
11
6.1879846062992128
21
-3.7629511811023622
0
LINE
8
BLACK
6
CONTINUOUS
10
6.1879846062992128
20
-3.7629511811023622
11
6.1883595275590553
21
-3.7637011417322834
0
LINE
8
BLACK
6
CONTINUOUS
10
6.1883595275590553
20
-3.7637011417322834
11
6.1883724803149605
21
-3.7638838976377951
0
LINE
8
BLACK
6
CONTINUOUS
10
6.1883724803149605
20
-3.7638838976377951
11
6.1884426377952755
21
-3.7640532283464565
0
LINE
8
BLACK
6
CONTINUOUS
10
6.1884426377952755
20
-3.7640532283464565
11
6.1884426377952755
21
-3.7655530314960628
0
LINE
8
BLACK
6
CONTINUOUS
10
6.1884426377952755
20
-3.7655530314960628
11
6.1883724803149605
21
-3.7657223228346455
0
LINE
8
BLACK
6
CONTINUOUS
10
6.1883724803149605
20
-3.7657223228346455
11
6.1883595275590553
21
-3.7659051181102363
0
LINE
8
BLACK
6
CONTINUOUS
10
6.1883595275590553
20
-3.7659051181102363
11
6.1879846062992128
21
-3.7666550787401576
0
LINE
8
BLACK
6
CONTINUOUS
10
6.1879846062992128
20
-3.7666550787401576
11
6.187886692913386
21
-3.7667399606299212
0
LINE
8
BLACK
6
CONTINUOUS
10
6.187886692913386
20
-3.7667399606299212
11
6.1878370866141728
21
-3.7668597637795274
0
LINE
8
BLACK
6
CONTINUOUS
10
6.1878370866141728
20
-3.7668597637795274
11
6.1870871653543302
21
-3.7676096456692911
0
LINE
8
BLACK
6
CONTINUOUS
10
6.1870871653543302
20
-3.7676096456692911
11
6.1868914173228342
21
-3.7676906692913383
0
LINE
8
BLACK
6
CONTINUOUS
10
6.1868914173228342
20
-3.7676906692913383
11
6.1867213385826769
21
-3.7678167322834644
0
LINE
8
BLACK
6
CONTINUOUS
10
6.1867213385826769
20
-3.7678167322834644
11
6.1852215748031494
21
-3.7681916929133856
0
LINE
8
BLACK
6
CONTINUOUS
10
6.1852215748031494
20
-3.7681916929133856
11
6.1851227952755901
21
-3.768176968503937
0
LINE
8
BLACK
6
CONTINUOUS
10
6.1851227952755901
20
-3.768176968503937
11
6.1850305905511807
21
-3.7682151968503934
0
LINE
8
BLACK
6
CONTINUOUS
10
6.1850305905511807
20
-3.7682151968503934
11
6.1824059055118106
21
-3.7682151968503934
0
LINE
8
BLACK
6
CONTINUOUS
10
6.1824059055118106
20
-3.7682151968503934
11
6.1823136614173224
21
-3.768176968503937
0
LINE
8
BLACK
6
CONTINUOUS
10
6.1823136614173224
20
-3.768176968503937
11
6.1822149212598427
21
-3.7681916929133856
0
LINE
8
BLACK
6
CONTINUOUS
10
6.1822149212598427
20
-3.7681916929133856
11
6.1807151181102364
21
-3.7678167322834644
0
LINE
8
BLACK
6
CONTINUOUS
10
6.1807151181102364
20
-3.7678167322834644
11
6.180544921259842
21
-3.7676905905511808
0
LINE
8
BLACK
6
CONTINUOUS
10
6.180544921259842
20
-3.7676905905511808
11
6.180349330708661
21
-3.7676096062992124
0
LINE
8
BLACK
6
CONTINUOUS
10
6.180349330708661
20
-3.7676096062992124
11
6.1795994094488185
21
-3.7668597637795274
0
LINE
8
BLACK
6
CONTINUOUS
10
6.1795994094488185
20
-3.7668597637795274
11
6.1795497637795274
21
-3.7667399606299212
0
LINE
8
BLACK
6
CONTINUOUS
10
6.1795497637795274
20
-3.7667399606299212
11
6.1794518897637793
21
-3.7666550787401576
0
LINE
8
BLACK
6
CONTINUOUS
10
6.1794518897637793
20
-3.7666550787401576
11
6.1790769291338581
21
-3.7659051574803151
0
LINE
8
BLACK
6
CONTINUOUS
10
6.1790769291338581
20
-3.7659051574803151
11
6.1790639370078742
21
-3.7657223228346455
0
LINE
8
BLACK
6
CONTINUOUS
10
6.1790639370078742
20
-3.7657223228346455
11
6.1789938188976379
21
-3.7655530314960628
0
LINE
8
BLACK
6
CONTINUOUS
10
6.1789938188976379
20
-3.7655530314960628
11
6.1789938188976379
21
-3.7640532283464565
0
LINE
8
BLACK
6
CONTINUOUS
10
6.1789938188976379
20
-3.7640532283464565
11
6.1790639370078742
21
-3.7638838976377951
0
LINE
8
BLACK
6
CONTINUOUS
10
6.1790639370078742
20
-3.7638838976377951
11
6.1790769291338581
21
-3.7637011023622047
0
LINE
8
BLACK
6
CONTINUOUS
10
6.1790769291338581
20
-3.7637011023622047
11
6.1794518897637793
21
-3.7629511811023622
0
LINE
8
BLACK
6
CONTINUOUS
10
6.1794518897637793
20
-3.7629511811023622
11
6.1795497637795274
21
-3.7628662598425198
0
LINE
8
BLACK
6
CONTINUOUS
10
6.1795497637795274
20
-3.7628662598425198
11
6.1795994094488185
21
-3.7627464960629919
0
LINE
8
BLACK
6
CONTINUOUS
10
6.1795994094488185
20
-3.7627464960629919
11
6.180349330708661
21
-3.7619966535433069
0
LINE
8
BLACK
6
CONTINUOUS
10
6.180349330708661
20
-3.7619966535433069
11
6.180544921259842
21
-3.7619156299212597
0
LINE
8
BLACK
6
CONTINUOUS
10
6.180544921259842
20
-3.7619156299212597
11
6.1807151181102364
21
-3.7617895275590549
0
LINE
8
BLACK
6
CONTINUOUS
10
6.1807151181102364
20
-3.7617895275590549
11
6.1822149212598427
21
-3.7614145669291337
0
LINE
8
BLACK
6
CONTINUOUS
10
6.1822149212598427
20
-3.7614145669291337
11
6.1823136614173224
21
-3.761429251968504
0
LINE
8
BLACK
6
CONTINUOUS
10
6.1823136614173224
20
-3.761429251968504
11
6.1824059055118106
21
-3.7613910629921259
0
LINE
8
BLACK
6
CONTINUOUS
10
6.1824059055118106
20
-3.7613910629921259
11
6.1850305905511807
21
-3.7613910629921259
0
LINE
8
BLACK
6
CONTINUOUS
10
6.1850305905511807
20
-3.7613910629921259
11
6.1851227952755901
21
-3.761429251968504
0
LINE
8
BLACK
6
CONTINUOUS
10
6.1813086614173223
20
-3.7632644094488188
11
6.1808032677165352
21
-3.7637698031496063
0
LINE
8
BLACK
6
CONTINUOUS
10
6.1808032677165352
20
-3.7637698031496063
11
6.180568622047244
21
-3.7642390944881887
0
LINE
8
BLACK
6
CONTINUOUS
10
6.180568622047244
20
-3.7642390944881887
11
6.180568622047244
21
-3.7653671259842518
0
LINE
8
BLACK
6
CONTINUOUS
10
6.180568622047244
20
-3.7653671259842518
11
6.1808032677165352
21
-3.7658364173228347
0
LINE
8
BLACK
6
CONTINUOUS
10
6.1808032677165352
20
-3.7658364173228347
11
6.1813086614173223
21
-3.7663418110236218
0
LINE
8
BLACK
6
CONTINUOUS
10
6.1813086614173223
20
-3.7663418110236218
11
6.1825028346456694
21
-3.7666403937007873
0
LINE
8
BLACK
6
CONTINUOUS
10
6.1825028346456694
20
-3.7666403937007873
11
6.184933622047244
21
-3.7666403937007873
0
LINE
8
BLACK
6
CONTINUOUS
10
6.184933622047244
20
-3.7666403937007873
11
6.1861277952755902
21
-3.7663418110236218
0
LINE
8
BLACK
6
CONTINUOUS
10
6.1861277952755902
20
-3.7663418110236218
11
6.1866331102362206
21
-3.765836535433071
0
LINE
8
BLACK
6
CONTINUOUS
10
6.1866331102362206
20
-3.765836535433071
11
6.1868678346456694
21
-3.7653671259842518
0
LINE
8
BLACK
6
CONTINUOUS
10
6.1868678346456694
20
-3.7653671259842518
11
6.1868678346456694
21
-3.7642390944881887
0
LINE
8
BLACK
6
CONTINUOUS
10
6.1868678346456694
20
-3.7642390944881887
11
6.1866331102362206
21
-3.76376968503937
0
LINE
8
BLACK
6
CONTINUOUS
10
6.1866331102362206
20
-3.76376968503937
11
6.1861277952755902
21
-3.7632644094488188
0
LINE
8
BLACK
6
CONTINUOUS
10
6.1861277952755902
20
-3.7632644094488188
11
6.184933622047244
21
-3.762965866141732
0
LINE
8
BLACK
6
CONTINUOUS
10
6.184933622047244
20
-3.762965866141732
11
6.1825028346456694
21
-3.762965866141732
0
LINE
8
BLACK
6
CONTINUOUS
10
6.1825028346456694
20
-3.762965866141732
11
6.1813086614173223
21
-3.7632644094488188
0
LINE
8
BLACK
6
CONTINUOUS
10
6.2020727559055118
20
-3.7610862204724409
11
6.2022555905511814
21
-3.7610992125984253
0
LINE
8
BLACK
6
CONTINUOUS
10
6.2022555905511814
20
-3.7610992125984253
11
6.2030055118110239
21
-3.7614741732283465
0
LINE
8
BLACK
6
CONTINUOUS
10
6.2030055118110239
20
-3.7614741732283465
11
6.2030904330708658
21
-3.7615720866141733
0
LINE
8
BLACK
6
CONTINUOUS
10
6.2030904330708658
20
-3.7615720866141733
11
6.2032101574803145
21
-3.7616216929133857
0
LINE
8
BLACK
6
CONTINUOUS
10
6.2032101574803145
20
-3.7616216929133857
11
6.2035851181102357
21
-3.7619966535433069
0
LINE
8
BLACK
6
CONTINUOUS
10
6.2035851181102357
20
-3.7619966535433069
11
6.2036346850393702
21
-3.7621163385826772
0
LINE
8
BLACK
6
CONTINUOUS
10
6.2036346850393702
20
-3.7621163385826772
11
6.2037326377952757
21
-3.7622012992125984
0
LINE
8
BLACK
6
CONTINUOUS
10
6.2037326377952757
20
-3.7622012992125984
11
6.2041075590551182
21
-3.7629512598425197
0
LINE
8
BLACK
6
CONTINUOUS
10
6.2041075590551182
20
-3.7629512598425197
11
6.2041205118110234
21
-3.7631340157480313
0
LINE
8
BLACK
6
CONTINUOUS
10
6.2041205118110234
20
-3.7631340157480313
11
6.2041906692913384
21
-3.7633033464566927
0
LINE
8
BLACK
6
CONTINUOUS
10
6.2041906692913384
20
-3.7633033464566927
11
6.2041906692913384
21
-3.7647656299212597
0
LINE
8
BLACK
6
CONTINUOUS
10
6.2041906692913384
20
-3.7647656299212597
11
6.206027952755905
21
-3.7647656299212597
0
LINE
8
BLACK
6
CONTINUOUS
10
6.206027952755905
20
-3.7647656299212597
11
6.2065847244094483
21
-3.7649962598425195
0
LINE
8
BLACK
6
CONTINUOUS
10
6.2065847244094483
20
-3.7649962598425195
11
6.2068153543307085
21
-3.7655530314960628
0
LINE
8
BLACK
6
CONTINUOUS
10
6.2068153543307085
20
-3.7655530314960628
11
6.2065847244094483
21
-3.7661098031496061
0
LINE
8
BLACK
6
CONTINUOUS
10
6.2065847244094483
20
-3.7661098031496061
11
6.206027952755905
21
-3.7663404330708659
0
LINE
8
BLACK
6
CONTINUOUS
10
6.206027952755905
20
-3.7663404330708659
11
6.1981539370078735
21
-3.7663404330708659
0
LINE
8
BLACK
6
CONTINUOUS
10
6.1981539370078735
20
-3.7663404330708659
11
6.1975971653543303
21
-3.7661098031496061
0
LINE
8
BLACK
6
CONTINUOUS
10
6.1975971653543303
20
-3.7661098031496061
11
6.1973665354330709
21
-3.7655530314960628
0
LINE
8
BLACK
6
CONTINUOUS
10
6.1973665354330709
20
-3.7655530314960628
11
6.1974942913385824
21
-3.7652445275590551
0
LINE
8
BLACK
6
CONTINUOUS
10
6.1974942913385824
20
-3.7652445275590551
11
6.1974496850393699
21
-3.7651553149606301
0
LINE
8
BLACK
6
CONTINUOUS
10
6.1974496850393699
20
-3.7651553149606301
11
6.1974366535433072
21
-3.7649724803149605
0
LINE
8
BLACK
6
CONTINUOUS
10
6.1974366535433072
20
-3.7649724803149605
11
6.1973665354330709
21
-3.764803149606299
0
LINE
8
BLACK
6
CONTINUOUS
10
6.1973665354330709
20
-3.764803149606299
11
6.1973665354330709
21
-3.7633033464566927
0
LINE
8
BLACK
6
CONTINUOUS
10
6.1973665354330709
20
-3.7633033464566927
11
6.1974366535433072
21
-3.7631340157480313
0
LINE
8
BLACK
6
CONTINUOUS
10
6.1974366535433072
20
-3.7631340157480313
11
6.1974496456692911
21
-3.7629512204724409
0
LINE
8
BLACK
6
CONTINUOUS
10
6.1974496456692911
20
-3.7629512204724409
11
6.1978246062992124
21
-3.7622012992125984
0
LINE
8
BLACK
6
CONTINUOUS
10
6.1978246062992124
20
-3.7622012992125984
11
6.1979225196850392
21
-3.7621163385826772
0
LINE
8
BLACK
6
CONTINUOUS
10
6.1979225196850392
20
-3.7621163385826772
11
6.1979721259842515
21
-3.7619966535433069
0
LINE
8
BLACK
6
CONTINUOUS
10
6.1979721259842515
20
-3.7619966535433069
11
6.1983470866141728
21
-3.7616216929133857
0
LINE
8
BLACK
6
CONTINUOUS
10
6.1983470866141728
20
-3.7616216929133857
11
6.1984667716535435
21
-3.7615720866141733
0
LINE
8
BLACK
6
CONTINUOUS
10
6.1984667716535435
20
-3.7615720866141733
11
6.1985516929133855
21
-3.7614742125984253
0
LINE
8
BLACK
6
CONTINUOUS
10
6.1985516929133855
20
-3.7614742125984253
11
6.1993015748031493
21
-3.761099251968504
0
LINE
8
BLACK
6
CONTINUOUS
10
6.1993015748031493
20
-3.761099251968504
11
6.1994843307086613
21
-3.7610862598425197
0
LINE
8
BLACK
6
CONTINUOUS
10
6.1994843307086613
20
-3.7610862598425197
11
6.1996537401574798
21
-3.7610161023622046
0
LINE
8
BLACK
6
CONTINUOUS
10
6.1996537401574798
20
-3.7610161023622046
11
6.2019034645669286
21
-3.7610161023622046
0
LINE
8
BLACK
6
CONTINUOUS
10
6.2019034645669286
20
-3.7610161023622046
11
6.2020727559055118
21
-3.7610862204724409
0
LINE
8
BLACK
6
CONTINUOUS
10
6.1993702755905513
20
-3.7628255905511812
11
6.199176023622047
21
-3.7630198031496063
0
LINE
8
BLACK
6
CONTINUOUS
10
6.199176023622047
20
-3.7630198031496063
11
6.198941338582677
21
-3.7634892125984249
0
LINE
8
BLACK
6
CONTINUOUS
10
6.198941338582677
20
-3.7634892125984249
11
6.198941338582677
21
-3.7646172440944881
0
LINE
8
BLACK
6
CONTINUOUS
10
6.198941338582677
20
-3.7646172440944881
11
6.1990155118110231
21
-3.7647656299212597
0
LINE
8
BLACK
6
CONTINUOUS
10
6.1990155118110231
20
-3.7647656299212597
11
6.2025416929133854
21
-3.7647656299212597
0
LINE
8
BLACK
6
CONTINUOUS
10
6.2025416929133854
20
-3.7647656299212597
11
6.2026158661417323
21
-3.7646172440944881
0
LINE
8
BLACK
6
CONTINUOUS
10
6.2026158661417323
20
-3.7646172440944881
11
6.2026158661417323
21
-3.7634892125984249
0
LINE
8
BLACK
6
CONTINUOUS
10
6.2026158661417323
20
-3.7634892125984249
11
6.2023811417322836
21
-3.7630197637795275
0
LINE
8
BLACK
6
CONTINUOUS
10
6.2023811417322836
20
-3.7630197637795275
11
6.2021869685039368
21
-3.7628255905511812
0
LINE
8
BLACK
6
CONTINUOUS
10
6.2021869685039368
20
-3.7628255905511812
11
6.2017175590551181
21
-3.7625909055118107
0
LINE
8
BLACK
6
CONTINUOUS
10
6.2017175590551181
20
-3.7625909055118107
11
6.1998396456692912
21
-3.7625909055118107
0
LINE
8
BLACK
6
CONTINUOUS
10
6.1998396456692912
20
-3.7625909055118107
11
6.1993702755905513
21
-3.7628255905511812
0
LINE
8
BLACK
6
CONTINUOUS
10
6.229550590551181
20
-3.7597469291338581
11
6.2297812204724412
21
-3.7603037007874014
0
LINE
8
BLACK
6
CONTINUOUS
10
6.2297812204724412
20
-3.7603037007874014
11
6.229550590551181
21
-3.7608604724409447
0
LINE
8
BLACK
6
CONTINUOUS
10
6.229550590551181
20
-3.7608604724409447
11
6.2289938188976377
21
-3.7610911023622045
0
LINE
8
BLACK
6
CONTINUOUS
10
6.2289938188976377
20
-3.7610911023622045
11
6.2250552362204727
21
-3.7610911023622045
0
LINE
8
BLACK
6
CONTINUOUS
10
6.2250552362204727
20
-3.7610911023622045
11
6.2247063385826769
21
-3.7612655118110236
0
LINE
8
BLACK
6
CONTINUOUS
10
6.2247063385826769
20
-3.7612655118110236
11
6.2245318897637798
21
-3.7616144488188974
0
LINE
8
BLACK
6
CONTINUOUS
10
6.2245318897637798
20
-3.7616144488188974
11
6.2245318897637798
21
-3.7623675196850392
0
LINE
8
BLACK
6
CONTINUOUS
10
6.2245318897637798
20
-3.7623675196850392
11
6.224766535433071
21
-3.7628368897637796
0
LINE
8
BLACK
6
CONTINUOUS
10
6.224766535433071
20
-3.7628368897637796
11
6.2248205118110231
21
-3.7628908661417322
0
LINE
8
BLACK
6
CONTINUOUS
10
6.2248205118110231
20
-3.7628908661417322
11
6.2289938188976377
21
-3.7628908661417322
0
LINE
8
BLACK
6
CONTINUOUS
10
6.2289938188976377
20
-3.7628908661417322
11
6.229550590551181
21
-3.763121496062992
0
LINE
8
BLACK
6
CONTINUOUS
10
6.229550590551181
20
-3.763121496062992
11
6.2297812204724412
21
-3.7636782677165352
0
LINE
8
BLACK
6
CONTINUOUS
10
6.2297812204724412
20
-3.7636782677165352
11
6.229550590551181
21
-3.7642350393700785
0
LINE
8
BLACK
6
CONTINUOUS
10
6.229550590551181
20
-3.7642350393700785
11
6.2289938188976377
21
-3.7644656692913383
0
LINE
8
BLACK
6
CONTINUOUS
10
6.2289938188976377
20
-3.7644656692913383
11
6.2244944488188976
21
-3.7644656692913383
0
LINE
8
BLACK
6
CONTINUOUS
10
6.2244944488188976
20
-3.7644656692913383
11
6.2237444881889763
21
-3.7644656692913383
0
LINE
8
BLACK
6
CONTINUOUS
10
6.2237444881889763
20
-3.7644656692913383
11
6.223187716535433
21
-3.7642350393700785
0
LINE
8
BLACK
6
CONTINUOUS
10
6.223187716535433
20
-3.7642350393700785
11
6.2229570866141728
21
-3.7636782677165352
0
LINE
8
BLACK
6
CONTINUOUS
10
6.2229570866141728
20
-3.7636782677165352
11
6.2231697637795271
21
-3.7631647244094486
0
LINE
8
BLACK
6
CONTINUOUS
10
6.2231697637795271
20
-3.7631647244094486
11
6.2230401968503939
21
-3.7629055511811025
0
LINE
8
BLACK
6
CONTINUOUS
10
6.2230401968503939
20
-3.7629055511811025
11
6.2230272047244091
21
-3.7627227165354329
0
LINE
8
BLACK
6
CONTINUOUS
10
6.2230272047244091
20
-3.7627227165354329
11
6.2229570866141728
21
-3.7625534251968502
0
LINE
8
BLACK
6
CONTINUOUS
10
6.2229570866141728
20
-3.7625534251968502
11
6.2229570866141728
21
-3.7614285826771652
0
LINE
8
BLACK
6
CONTINUOUS
10
6.2229570866141728
20
-3.7614285826771652
11
6.2230272047244091
21
-3.7612592519685037
0
LINE
8
BLACK
6
CONTINUOUS
10
6.2230272047244091
20
-3.7612592519685037
11
6.2230401968503939
21
-3.7610764566929134
0
LINE
8
BLACK
6
CONTINUOUS
10
6.2230401968503939
20
-3.7610764566929134
11
6.2234151574803152
21
-3.7603265354330708
0
LINE
8
BLACK
6
CONTINUOUS
10
6.2234151574803152
20
-3.7603265354330708
11
6.2236037007874012
21
-3.7601629527559055
0
LINE
8
BLACK
6
CONTINUOUS
10
6.2236037007874012
20
-3.7601629527559055
11
6.223767283464567
21
-3.759974409448819
0
LINE
8
BLACK
6
CONTINUOUS
10
6.223767283464567
20
-3.759974409448819
11
6.2245171653543307
21
-3.7595994488188977
0
LINE
8
BLACK
6
CONTINUOUS
10
6.2245171653543307
20
-3.7595994488188977
11
6.224699921259842
21
-3.7595864566929134
0
LINE
8
BLACK
6
CONTINUOUS
10
6.224699921259842
20
-3.7595864566929134
11
6.2248693307086613
21
-3.7595162992125983
0
LINE
8
BLACK
6
CONTINUOUS
10
6.2248693307086613
20
-3.7595162992125983
11
6.2289938188976377
21
-3.7595162992125983
0
LINE
8
BLACK
6
CONTINUOUS
10
6.2289938188976377
20
-3.7595162992125983
11
6.229550590551181
21
-3.7597469291338581
0
LINE
8
BLACK
6
CONTINUOUS
10
6.2158522834645664
20
-3.757336653543307
11
6.216035118110236
21
-3.7573496456692914
0
LINE
8
BLACK
6
CONTINUOUS
10
6.216035118110236
20
-3.7573496456692914
11
6.2167850393700785
21
-3.7577246062992127
0
LINE
8
BLACK
6
CONTINUOUS
10
6.2167850393700785
20
-3.7577246062992127
11
6.2168699212598426
21
-3.7578224803149607
0
LINE
8
BLACK
6
CONTINUOUS
10
6.2168699212598426
20
-3.7578224803149607
11
6.2169896456692912
21
-3.757872086614173
0
LINE
8
BLACK
6
CONTINUOUS
10
6.2169896456692912
20
-3.757872086614173
11
6.2173646062992125
21
-3.7582470078740156
0
LINE
8
BLACK
6
CONTINUOUS
10
6.2173646062992125
20
-3.7582470078740156
11
6.2174141732283461
21
-3.7583667322834646
0
LINE
8
BLACK
6
CONTINUOUS
10
6.2174141732283461
20
-3.7583667322834646
11
6.2175121653543304
21
-3.7584516929133858
0
LINE
8
BLACK
6
CONTINUOUS
10
6.2175121653543304
20
-3.7584516929133858
11
6.2178870866141729
21
-3.759201653543307
0
LINE
8
BLACK
6
CONTINUOUS
10
6.2178870866141729
20
-3.759201653543307
11
6.217900039370079
21
-3.7593844094488187
0
LINE
8
BLACK
6
CONTINUOUS
10
6.217900039370079
20
-3.7593844094488187
11
6.217970196850394
21
-3.7595537401574801
0
LINE
8
BLACK
6
CONTINUOUS
10
6.217970196850394
20
-3.7595537401574801
11
6.217970196850394
21
-3.7625533464566927
0
LINE
8
BLACK
6
CONTINUOUS
10
6.217970196850394
20
-3.7625533464566927
11
6.2177395669291338
21
-3.763110118110236
0
LINE
8
BLACK
6
CONTINUOUS
10
6.2177395669291338
20
-3.763110118110236
11
6.2171827952755905
21
-3.7633407480314958
0
LINE
8
BLACK
6
CONTINUOUS
10
6.2171827952755905
20
-3.7633407480314958
11
6.2130583070866141
21
-3.7633407480314958
0
LINE
8
BLACK
6
CONTINUOUS
10
6.2130583070866141
20
-3.7633407480314958
11
6.209308779527559
21
-3.7633407480314958
0
LINE
8
BLACK
6
CONTINUOUS
10
6.209308779527559
20
-3.7633407480314958
11
6.2087520078740157
21
-3.763110118110236
0
LINE
8
BLACK
6
CONTINUOUS
10
6.2087520078740157
20
-3.763110118110236
11
6.2085213779527555
21
-3.7625533464566927
0
LINE
8
BLACK
6
CONTINUOUS
10
6.2085213779527555
20
-3.7625533464566927
11
6.2085213779527555
21
-3.7599287007874014
0
LINE
8
BLACK
6
CONTINUOUS
10
6.2085213779527555
20
-3.7599287007874014
11
6.2085914960629918
21
-3.7597593700787399
0
LINE
8
BLACK
6
CONTINUOUS
10
6.2085914960629918
20
-3.7597593700787399
11
6.2086044881889766
21
-3.7595765748031496
0
LINE
8
BLACK
6
CONTINUOUS
10
6.2086044881889766
20
-3.7595765748031496
11
6.2089794488188979
21
-3.758826653543307
0
LINE
8
BLACK
6
CONTINUOUS
10
6.2089794488188979
20
-3.758826653543307
11
6.2090773622047246
21
-3.7587416929133859
0
LINE
8
BLACK
6
CONTINUOUS
10
6.2090773622047246
20
-3.7587416929133859
11
6.209126968503937
21
-3.7586220078740156
0
LINE
8
BLACK
6
CONTINUOUS
10
6.209126968503937
20
-3.7586220078740156
11
6.2095019291338582
21
-3.7582470472440943
0
LINE
8
BLACK
6
CONTINUOUS
10
6.2095019291338582
20
-3.7582470472440943
11
6.2096216141732281
21
-3.758197440944882
0
LINE
8
BLACK
6
CONTINUOUS
10
6.2096216141732281
20
-3.758197440944882
11
6.2097065748031497
21
-3.7580995275590552
0
LINE
8
BLACK
6
CONTINUOUS
10
6.2097065748031497
20
-3.7580995275590552
11
6.210456535433071
21
-3.7577246062992127
0
LINE
8
BLACK
6
CONTINUOUS
10
6.210456535433071
20
-3.7577246062992127
11
6.2106392913385822
21
-3.7577116141732283
0
LINE
8
BLACK
6
CONTINUOUS
10
6.2106392913385822
20
-3.7577116141732283
11
6.210808622047244
21
-3.757641496062992
0
LINE
8
BLACK
6
CONTINUOUS
10
6.210808622047244
20
-3.757641496062992
11
6.2115585039370078
21
-3.757641496062992
0
LINE
8
BLACK
6
CONTINUOUS
10
6.2115585039370078
20
-3.757641496062992
11
6.21172779527559
21
-3.7577116141732283
0
LINE
8
BLACK
6
CONTINUOUS
10
6.21172779527559
20
-3.7577116141732283
11
6.2119106299212596
21
-3.7577246062992127
0
LINE
8
BLACK
6
CONTINUOUS
10
6.2119106299212596
20
-3.7577246062992127
11
6.2126605511811022
21
-3.7580995275590552
0
LINE
8
BLACK
6
CONTINUOUS
10
6.2126605511811022
20
-3.7580995275590552
11
6.212745472440945
21
-3.758197440944882
0
LINE
8
BLACK
6
CONTINUOUS
10
6.212745472440945
20
-3.758197440944882
11
6.2128651968503936
21
-3.7582470472440943
0
LINE
8
BLACK
6
CONTINUOUS
10
6.2128651968503936
20
-3.7582470472440943
11
6.2128731889763777
21
-3.7582550393700789
0
LINE
8
BLACK
6
CONTINUOUS
10
6.2128731889763777
20
-3.7582550393700789
11
6.2128765354330708
21
-3.7582470078740156
0
LINE
8
BLACK
6
CONTINUOUS
10
6.2128765354330708
20
-3.7582470078740156
11
6.2132514566929133
21
-3.757872086614173
0
LINE
8
BLACK
6
CONTINUOUS
10
6.2132514566929133
20
-3.757872086614173
11
6.213371181102362
21
-3.7578224803149607
0
LINE
8
BLACK
6
CONTINUOUS
10
6.213371181102362
20
-3.7578224803149607
11
6.2134561023622048
21
-3.7577246062992127
0
LINE
8
BLACK
6
CONTINUOUS
10
6.2134561023622048
20
-3.7577246062992127
11
6.2142059842519686
21
-3.7573496850393702
0
LINE
8
BLACK
6
CONTINUOUS
10
6.2142059842519686
20
-3.7573496850393702
11
6.2143887401574798
21
-3.7573366929133858
0
LINE
8
BLACK
6
CONTINUOUS
10
6.2143887401574798
20
-3.7573366929133858
11
6.2145581496062992
21
-3.7572665354330708
0
LINE
8
BLACK
6
CONTINUOUS
10
6.2145581496062992
20
-3.7572665354330708
11
6.2156829921259842
21
-3.7572665354330708
0
LINE
8
BLACK
6
CONTINUOUS
10
6.2156829921259842
20
-3.7572665354330708
11
6.2158522834645664
21
-3.757336653543307
0
LINE
8
BLACK
6
CONTINUOUS
10
6.2105250393700784
20
-3.7594509842519686
11
6.2103308661417325
21
-3.7596451574803149
0
LINE
8
BLACK
6
CONTINUOUS
10
6.2103308661417325
20
-3.7596451574803149
11
6.2100961811023625
21
-3.7601145669291336
0
LINE
8
BLACK
6
CONTINUOUS
10
6.2100961811023625
20
-3.7601145669291336
11
6.2100961811023625
21
-3.7617659448818896
0
LINE
8
BLACK
6
CONTINUOUS
10
6.2100961811023625
20
-3.7617659448818896
11
6.2122709055118106
21
-3.7617659448818896
0
LINE
8
BLACK
6
CONTINUOUS
10
6.2122709055118106
20
-3.7617659448818896
11
6.2122709055118106
21
-3.7601145669291336
0
LINE
8
BLACK
6
CONTINUOUS
10
6.2122709055118106
20
-3.7601145669291336
11
6.2120361811023619
21
-3.7596451181102362
0
LINE
8
BLACK
6
CONTINUOUS
10
6.2120361811023619
20
-3.7596451181102362
11
6.211842007874016
21
-3.7594509448818898
0
LINE
8
BLACK
6
CONTINUOUS
10
6.211842007874016
20
-3.7594509448818898
11
6.2113726377952752
21
-3.7592162992125981
0
LINE
8
BLACK
6
CONTINUOUS
10
6.2113726377952752
20
-3.7592162992125981
11
6.2109945275590546
21
-3.7592162992125981
0
LINE
8
BLACK
6
CONTINUOUS
10
6.2109945275590546
20
-3.7592162992125981
11
6.2105250393700784
21
-3.7594509842519686
0
LINE
8
BLACK
6
CONTINUOUS
10
6.2142745669291335
20
-3.759076062992126
11
6.2141214566929133
21
-3.7592291338582675
0
LINE
8
BLACK
6
CONTINUOUS
10
6.2141214566929133
20
-3.7592291338582675
11
6.2138457086614176
21
-3.7600564960629921
0
LINE
8
BLACK
6
CONTINUOUS
10
6.2138457086614176
20
-3.7600564960629921
11
6.2138457086614176
21
-3.7617659448818896
0
LINE
8
BLACK
6
CONTINUOUS
10
6.2138457086614176
20
-3.7617659448818896
11
6.216395393700787
21
-3.7617659448818896
0
LINE
8
BLACK
6
CONTINUOUS
10
6.216395393700787
20
-3.7617659448818896
11
6.216395393700787
21
-3.7597396062992123
0
LINE
8
BLACK
6
CONTINUOUS
10
6.216395393700787
20
-3.7597396062992123
11
6.216160708661417
21
-3.7592702362204724
0
LINE
8
BLACK
6
CONTINUOUS
10
6.216160708661417
20
-3.7592702362204724
11
6.2159664960629923
21
-3.7590760236220473
0
LINE
8
BLACK
6
CONTINUOUS
10
6.2159664960629923
20
-3.7590760236220473
11
6.2154970866141728
21
-3.7588413385826769
0
LINE
8
BLACK
6
CONTINUOUS
10
6.2154970866141728
20
-3.7588413385826769
11
6.2147440551181097
21
-3.7588413385826769
0
LINE
8
BLACK
6
CONTINUOUS
10
6.2147440551181097
20
-3.7588413385826769
11
6.2142745669291335
21
-3.759076062992126
0
LINE
8
BLACK
6
CONTINUOUS
10
6.1863247244094488
20
-3.7535871653543307
11
6.1865075590551184
21
-3.7536001574803151
0
LINE
8
BLACK
6
CONTINUOUS
10
6.1865075590551184
20
-3.7536001574803151
11
6.1872574803149609
21
-3.7539751181102363
0
LINE
8
BLACK
6
CONTINUOUS
10
6.1872574803149609
20
-3.7539751181102363
11
6.1873423622047241
21
-3.7540729921259843
0
LINE
8
BLACK
6
CONTINUOUS
10
6.1873423622047241
20
-3.7540729921259843
11
6.1874620866141727
21
-3.7541225984251967
0
LINE
8
BLACK
6
CONTINUOUS
10
6.1874620866141727
20
-3.7541225984251967
11
6.187837047244094
21
-3.7544975196850392
0
LINE
8
BLACK
6
CONTINUOUS
10
6.187837047244094
20
-3.7544975196850392
11
6.1878866141732285
21
-3.7546172440944883
0
LINE
8
BLACK
6
CONTINUOUS
10
6.1878866141732285
20
-3.7546172440944883
11
6.1879846062992128
21
-3.7547022047244094
0
LINE
8
BLACK
6
CONTINUOUS
10
6.1879846062992128
20
-3.7547022047244094
11
6.1883595275590553
21
-3.7554521653543307
0
LINE
8
BLACK
6
CONTINUOUS
10
6.1883595275590553
20
-3.7554521653543307
11
6.1883724803149605
21
-3.7556349212598423
0
LINE
8
BLACK
6
CONTINUOUS
10
6.1883724803149605
20
-3.7556349212598423
11
6.1884426377952755
21
-3.7558042519685038
0
LINE
8
BLACK
6
CONTINUOUS
10
6.1884426377952755
20
-3.7558042519685038
11
6.1884426377952755
21
-3.7573040551181101
0
LINE
8
BLACK
6
CONTINUOUS
10
6.1884426377952755
20
-3.7573040551181101
11
6.1883724803149605
21
-3.7574733464566927
0
LINE
8
BLACK
6
CONTINUOUS
10
6.1883724803149605
20
-3.7574733464566927
11
6.1883595275590553
21
-3.7576561417322836
0
LINE
8
BLACK
6
CONTINUOUS
10
6.1883595275590553
20
-3.7576561417322836
11
6.1879846062992128
21
-3.7584061023622048
0
LINE
8
BLACK
6
CONTINUOUS
10
6.1879846062992128
20
-3.7584061023622048
11
6.1878866535433072
21
-3.7584910236220472
0
LINE
8
BLACK
6
CONTINUOUS
10
6.1878866535433072
20
-3.7584910236220472
11
6.1878370866141728
21
-3.7586107480314959
0
LINE
8
BLACK
6
CONTINUOUS
10
6.1878370866141728
20
-3.7586107480314959
11
6.1874621259842515
21
-3.7589857086614171
0
LINE
8
BLACK
6
CONTINUOUS
10
6.1874621259842515
20
-3.7589857086614171
11
6.1873424015748029
21
-3.7590352755905512
0
LINE
8
BLACK
6
CONTINUOUS
10
6.1873424015748029
20
-3.7590352755905512
11
6.1872574803149609
21
-3.7591332283464567
0
LINE
8
BLACK
6
CONTINUOUS
10
6.1872574803149609
20
-3.7591332283464567
11
6.1865075590551184
21
-3.7595081496062992
0
LINE
8
BLACK
6
CONTINUOUS
10
6.1865075590551184
20
-3.7595081496062992
11
6.1863247244094488
21
-3.7595211023622048
0
LINE
8
BLACK
6
CONTINUOUS
10
6.1863247244094488
20
-3.7595211023622048
11
6.1861554330708657
21
-3.7595912598425194
0
LINE
8
BLACK
6
CONTINUOUS
10
6.1861554330708657
20
-3.7595912598425194
11
6.1797812204724405
21
-3.7595912598425194
0
LINE
8
BLACK
6
CONTINUOUS
10
6.1797812204724405
20
-3.7595912598425194
11
6.1792244488188972
21
-3.7593606299212596
0
LINE
8
BLACK
6
CONTINUOUS
10
6.1792244488188972
20
-3.7593606299212596
11
6.1789938188976379
21
-3.7588038582677163
0
LINE
8
BLACK
6
CONTINUOUS
10
6.1789938188976379
20
-3.7588038582677163
11
6.1792244488188972
21
-3.7582470866141731
0
LINE
8
BLACK
6
CONTINUOUS
10
6.1792244488188972
20
-3.7582470866141731
11
6.1797812204724405
21
-3.7580164566929133
0
LINE
8
BLACK
6
CONTINUOUS
10
6.1797812204724405
20
-3.7580164566929133
11
6.1859695669291339
21
-3.7580164566929133
0
LINE
8
BLACK
6
CONTINUOUS
10
6.1859695669291339
20
-3.7580164566929133
11
6.1864389370078738
21
-3.7577817716535433
0
LINE
8
BLACK
6
CONTINUOUS
10
6.1864389370078738
20
-3.7577817716535433
11
6.1866331102362206
21
-3.757587598425197
0
LINE
8
BLACK
6
CONTINUOUS
10
6.1866331102362206
20
-3.757587598425197
11
6.1868678346456694
21
-3.7571181496062991
0
LINE
8
BLACK
6
CONTINUOUS
10
6.1868678346456694
20
-3.7571181496062991
11
6.1868678346456694
21
-3.755990118110236
0
LINE
8
BLACK
6
CONTINUOUS
10
6.1868678346456694
20
-3.755990118110236
11
6.1866331496062994
21
-3.755520748031496
0
LINE
8
BLACK
6
CONTINUOUS
10
6.1866331496062994
20
-3.755520748031496
11
6.1864389370078738
21
-3.7553265354330709
0
LINE
8
BLACK
6
CONTINUOUS
10
6.1864389370078738
20
-3.7553265354330709
11
6.1859695275590552
21
-3.7550918503937005
0
LINE
8
BLACK
6
CONTINUOUS
10
6.1859695275590552
20
-3.7550918503937005
11
6.1797812204724405
21
-3.7550918503937005
0
LINE
8
BLACK
6
CONTINUOUS
10
6.1797812204724405
20
-3.7550918503937005
11
6.1792244488188972
21
-3.7548612204724408
0
LINE
8
BLACK
6
CONTINUOUS
10
6.1792244488188972
20
-3.7548612204724408
11
6.1789938188976379
21
-3.7543044488188975
0
LINE
8
BLACK
6
CONTINUOUS
10
6.1789938188976379
20
-3.7543044488188975
11
6.1792244488188972
21
-3.7537476771653542
0
LINE
8
BLACK
6
CONTINUOUS
10
6.1792244488188972
20
-3.7537476771653542
11
6.1797812204724405
21
-3.7535170472440944
0
LINE
8
BLACK
6
CONTINUOUS
10
6.1797812204724405
20
-3.7535170472440944
11
6.1861554330708657
21
-3.7535170472440944
0
LINE
8
BLACK
6
CONTINUOUS
10
6.1861554330708657
20
-3.7535170472440944
11
6.1863247244094488
21
-3.7535871653543307
0
LINE
8
BLACK
6
CONTINUOUS
10
6.2020727559055118
20
-3.7539621259842519
11
6.2022555905511814
21
-3.7539751181102363
0
LINE
8
BLACK
6
CONTINUOUS
10
6.2022555905511814
20
-3.7539751181102363
11
6.2030055118110239
21
-3.7543500787401576
0
LINE
8
BLACK
6
CONTINUOUS
10
6.2030055118110239
20
-3.7543500787401576
11
6.2030904330708658
21
-3.7544479921259843
0
LINE
8
BLACK
6
CONTINUOUS
10
6.2030904330708658
20
-3.7544479921259843
11
6.2032101574803145
21
-3.7544975984251967
0
LINE
8
BLACK
6
CONTINUOUS
10
6.2032101574803145
20
-3.7544975984251967
11
6.2035851181102357
21
-3.754872559055118
0
LINE
8
BLACK
6
CONTINUOUS
10
6.2035851181102357
20
-3.754872559055118
11
6.2036346850393702
21
-3.7549922440944883
0
LINE
8
BLACK
6
CONTINUOUS
10
6.2036346850393702
20
-3.7549922440944883
11
6.2037326377952757
21
-3.7550772047244094
0
LINE
8
BLACK
6
CONTINUOUS
10
6.2037326377952757
20
-3.7550772047244094
11
6.2041075590551182
21
-3.7558271653543307
0
LINE
8
BLACK
6
CONTINUOUS
10
6.2041075590551182
20
-3.7558271653543307
11
6.2041205118110234
21
-3.7560099212598423
0
LINE
8
BLACK
6
CONTINUOUS
10
6.2041205118110234
20
-3.7560099212598423
11
6.2041906692913384
21
-3.7561792519685038
0
LINE
8
BLACK
6
CONTINUOUS
10
6.2041906692913384
20
-3.7561792519685038
11
6.2041906692913384
21
-3.7576415354330708
0
LINE
8
BLACK
6
CONTINUOUS
10
6.2041906692913384
20
-3.7576415354330708
11
6.206027952755905
21
-3.7576415354330708
0
LINE
8
BLACK
6
CONTINUOUS
10
6.206027952755905
20
-3.7576415354330708
11
6.2065847244094483
21
-3.7578721653543306
0
LINE
8
BLACK
6
CONTINUOUS
10
6.2065847244094483
20
-3.7578721653543306
11
6.2068153543307085
21
-3.7584289370078738
0
LINE
8
BLACK
6
CONTINUOUS
10
6.2068153543307085
20
-3.7584289370078738
11
6.2065847244094483
21
-3.7589857086614171
0
LINE
8
BLACK
6
CONTINUOUS
10
6.2065847244094483
20
-3.7589857086614171
11
6.206027952755905
21
-3.7592163385826769
0
LINE
8
BLACK
6
CONTINUOUS
10
6.206027952755905
20
-3.7592163385826769
11
6.1981539370078735
21
-3.7592163385826769
0
LINE
8
BLACK
6
CONTINUOUS
10
6.1981539370078735
20
-3.7592163385826769
11
6.1975971653543303
21
-3.7589857086614171
0
LINE
8
BLACK
6
CONTINUOUS
10
6.1975971653543303
20
-3.7589857086614171
11
6.1973665354330709
21
-3.7584289370078738
0
LINE
8
BLACK
6
CONTINUOUS
10
6.1973665354330709
20
-3.7584289370078738
11
6.1974942913385824
21
-3.7581204330708662
0
LINE
8
BLACK
6
CONTINUOUS
10
6.1974942913385824
20
-3.7581204330708662
11
6.1974496850393699
21
-3.7580312204724406
0
LINE
8
BLACK
6
CONTINUOUS
10
6.1974496850393699
20
-3.7580312204724406
11
6.1974366535433072
21
-3.7578483858267715
0
LINE
8
BLACK
6
CONTINUOUS
10
6.1974366535433072
20
-3.7578483858267715
11
6.1973665354330709
21
-3.7576790551181101
0
LINE
8
BLACK
6
CONTINUOUS
10
6.1973665354330709
20
-3.7576790551181101
11
6.1973665354330709
21
-3.7561792519685038
0
LINE
8
BLACK
6
CONTINUOUS
10
6.1973665354330709
20
-3.7561792519685038
11
6.1974366535433072
21
-3.7560099212598423
0
LINE
8
BLACK
6
CONTINUOUS
10
6.1974366535433072
20
-3.7560099212598423
11
6.1974496456692911
21
-3.7558271259842519
0
LINE
8
BLACK
6
CONTINUOUS
10
6.1974496456692911
20
-3.7558271259842519
11
6.1978246062992124
21
-3.7550772047244094
0
LINE
8
BLACK
6
CONTINUOUS
10
6.1978246062992124
20
-3.7550772047244094
11
6.1979225196850392
21
-3.7549922440944883
0
LINE
8
BLACK
6
CONTINUOUS
10
6.1979225196850392
20
-3.7549922440944883
11
6.1979721259842515
21
-3.754872559055118
0
LINE
8
BLACK
6
CONTINUOUS
10
6.1979721259842515
20
-3.754872559055118
11
6.1983470866141728
21
-3.7544975984251967
0
LINE
8
BLACK
6
CONTINUOUS
10
6.1983470866141728
20
-3.7544975984251967
11
6.1984667716535435
21
-3.7544479921259843
0
LINE
8
BLACK
6
CONTINUOUS
10
6.1984667716535435
20
-3.7544479921259843
11
6.1985516929133855
21
-3.7543501181102363
0
LINE
8
BLACK
6
CONTINUOUS
10
6.1985516929133855
20
-3.7543501181102363
11
6.1993015748031493
21
-3.7539751574803151
0
LINE
8
BLACK
6
CONTINUOUS
10
6.1993015748031493
20
-3.7539751574803151
11
6.1994843307086613
21
-3.7539621653543307
0
LINE
8
BLACK
6
CONTINUOUS
10
6.1994843307086613
20
-3.7539621653543307
11
6.1996537401574798
21
-3.7538920078740157
0
LINE
8
BLACK
6
CONTINUOUS
10
6.1996537401574798
20
-3.7538920078740157
11
6.2019034645669286
21
-3.7538920078740157
0
LINE
8
BLACK
6
CONTINUOUS
10
6.2019034645669286
20
-3.7538920078740157
11
6.2020727559055118
21
-3.7539621259842519
0
LINE
8
BLACK
6
CONTINUOUS
10
6.1993702755905513
20
-3.7557014960629922
11
6.199176023622047
21
-3.7558957086614173
0
LINE
8
BLACK
6
CONTINUOUS
10
6.199176023622047
20
-3.7558957086614173
11
6.198941338582677
21
-3.756365118110236
0
LINE
8
BLACK
6
CONTINUOUS
10
6.198941338582677
20
-3.756365118110236
11
6.198941338582677
21
-3.7574931496062991
0
LINE
8
BLACK
6
CONTINUOUS
10
6.198941338582677
20
-3.7574931496062991
11
6.1990155118110231
21
-3.7576415354330708
0
LINE
8
BLACK
6
CONTINUOUS
10
6.1990155118110231
20
-3.7576415354330708
11
6.2025416929133854
21
-3.7576415354330708
0
LINE
8
BLACK
6
CONTINUOUS
10
6.2025416929133854
20
-3.7576415354330708
11
6.2026158661417323
21
-3.7574931496062991
0
LINE
8
BLACK
6
CONTINUOUS
10
6.2026158661417323
20
-3.7574931496062991
11
6.2026158661417323
21
-3.756365118110236
0
LINE
8
BLACK
6
CONTINUOUS
10
6.2026158661417323
20
-3.756365118110236
11
6.2023811417322836
21
-3.7558956692913386
0
LINE
8
BLACK
6
CONTINUOUS
10
6.2023811417322836
20
-3.7558956692913386
11
6.2021869685039368
21
-3.7557014960629922
0
LINE
8
BLACK
6
CONTINUOUS
10
6.2021869685039368
20
-3.7557014960629922
11
6.2017175590551181
21
-3.7554668110236218
0
LINE
8
BLACK
6
CONTINUOUS
10
6.2017175590551181
20
-3.7554668110236218
11
6.1998396456692912
21
-3.7554668110236218
0
LINE
8
BLACK
6
CONTINUOUS
10
6.1998396456692912
20
-3.7554668110236218
11
6.1993702755905513
21
-3.7557014960629922
0
LINE
8
BLACK
6
CONTINUOUS
10
6.2258310236220469
20
-3.7524799212598423
11
6.2260560236220472
21
-3.7525244488188974
0
LINE
8
BLACK
6
CONTINUOUS
10
6.2260560236220472
20
-3.7525244488188974
11
6.2261011023622048
21
-3.7525918110236218
0
LINE
8
BLACK
6
CONTINUOUS
10
6.2261011023622048
20
-3.7525918110236218
11
6.2261760236220471
21
-3.7526228346456691
0
LINE
8
BLACK
6
CONTINUOUS
10
6.2261760236220471
20
-3.7526228346456691
11
6.2262637401574805
21
-3.7528346062992126
0
LINE
8
BLACK
6
CONTINUOUS
10
6.2262637401574805
20
-3.7528346062992126
11
6.2263913779527558
21
-3.7530251968503938
0
LINE
8
BLACK
6
CONTINUOUS
10
6.2263913779527558
20
-3.7530251968503938
11
6.2270146850393697
21
-3.7561417322834645
0
LINE
8
BLACK
6
CONTINUOUS
10
6.2270146850393697
20
-3.7561417322834645
11
6.2276830708661413
21
-3.7561417322834645
0
LINE
8
BLACK
6
CONTINUOUS
10
6.2276830708661413
20
-3.7561417322834645
11
6.2280319685039371
21
-3.755967283464567
0
LINE
8
BLACK
6
CONTINUOUS
10
6.2280319685039371
20
-3.755967283464567
11
6.2282064173228342
21
-3.7556183858267715
0
LINE
8
BLACK
6
CONTINUOUS
10
6.2282064173228342
20
-3.7556183858267715
11
6.2282064173228342
21
-3.7544903543307084
0
LINE
8
BLACK
6
CONTINUOUS
10
6.2282064173228342
20
-3.7544903543307084
11
6.2279146062992128
21
-3.7539066929133855
0
LINE
8
BLACK
6
CONTINUOUS
10
6.2279146062992128
20
-3.7539066929133855
11
6.2278719291338582
21
-3.7533055511811022
0
LINE
8
BLACK
6
CONTINUOUS
10
6.2278719291338582
20
-3.7533055511811022
11
6.2282667716535434
21
-3.7528502755905513
0
LINE
8
BLACK
6
CONTINUOUS
10
6.2282667716535434
20
-3.7528502755905513
11
6.2288679133858267
21
-3.7528075984251967
0
LINE
8
BLACK
6
CONTINUOUS
10
6.2288679133858267
20
-3.7528075984251967
11
6.2293231889763776
21
-3.7532024409448819
0
LINE
8
BLACK
6
CONTINUOUS
10
6.2293231889763776
20
-3.7532024409448819
11
6.2296981102362201
21
-3.7539524015748031
0
LINE
8
BLACK
6
CONTINUOUS
10
6.2296981102362201
20
-3.7539524015748031
11
6.2297110629921262
21
-3.7541351574803148
0
LINE
8
BLACK
6
CONTINUOUS
10
6.2297110629921262
20
-3.7541351574803148
11
6.2297812204724412
21
-3.7543044881889762
0
LINE
8
BLACK
6
CONTINUOUS
10
6.2297812204724412
20
-3.7543044881889762
11
6.2297812204724412
21
-3.7558042913385825
0
LINE
8
BLACK
6
CONTINUOUS
10
6.2297812204724412
20
-3.7558042913385825
11
6.2297110629921262
21
-3.7559735826771652
0
LINE
8
BLACK
6
CONTINUOUS
10
6.2297110629921262
20
-3.7559735826771652
11
6.2296981102362201
21
-3.7561564173228343
0
LINE
8
BLACK
6
CONTINUOUS
10
6.2296981102362201
20
-3.7561564173228343
11
6.2293231889763776
21
-3.7569062992125986
0
LINE
8
BLACK
6
CONTINUOUS
10
6.2293231889763776
20
-3.7569062992125986
11
6.229134566929134
21
-3.7570698425196851
0
LINE
8
BLACK
6
CONTINUOUS
10
6.229134566929134
20
-3.7570698425196851
11
6.228971023622047
21
-3.7572584645669291
0
LINE
8
BLACK
6
CONTINUOUS
10
6.228971023622047
20
-3.7572584645669291
11
6.2282211023622045
21
-3.7576334251968504
0
LINE
8
BLACK
6
CONTINUOUS
10
6.2282211023622045
20
-3.7576334251968504
11
6.2280382677165349
21
-3.757646377952756
0
LINE
8
BLACK
6
CONTINUOUS
10
6.2280382677165349
20
-3.757646377952756
11
6.2278689763779527
21
-3.7577165354330706
0
LINE
8
BLACK
6
CONTINUOUS
10
6.2278689763779527
20
-3.7577165354330706
11
6.2248693307086613
21
-3.7577165354330706
0
LINE
8
BLACK
6
CONTINUOUS
10
6.2248693307086613
20
-3.7577165354330706
11
6.224699921259842
21
-3.7576463385826773
0
LINE
8
BLACK
6
CONTINUOUS
10
6.224699921259842
20
-3.7576463385826773
11
6.2245171653543307
21
-3.7576333858267716
0
LINE
8
BLACK
6
CONTINUOUS
10
6.2245171653543307
20
-3.7576333858267716
11
6.223767283464567
21
-3.7572584251968504
0
LINE
8
BLACK
6
CONTINUOUS
10
6.223767283464567
20
-3.7572584251968504
11
6.2236036614173225
21
-3.7570697637795276
0
LINE
8
BLACK
6
CONTINUOUS
10
6.2236036614173225
20
-3.7570697637795276
11
6.2234151574803152
21
-3.7569062992125986
0
LINE
8
BLACK
6
CONTINUOUS
10
6.2234151574803152
20
-3.7569062992125986
11
6.2230402362204726
21
-3.7561564566929131
0
LINE
8
BLACK
6
CONTINUOUS
10
6.2230402362204726
20
-3.7561564566929131
11
6.2230272047244091
21
-3.7559736220472439
0
LINE
8
BLACK
6
CONTINUOUS
10
6.2230272047244091
20
-3.7559736220472439
11
6.2229570866141728
21
-3.7558042913385825
0
LINE
8
BLACK
6
CONTINUOUS
10
6.2229570866141728
20
-3.7558042913385825
11
6.2229570866141728
21
-3.7543044881889762
0
LINE
8
BLACK
6
CONTINUOUS
10
6.2229570866141728
20
-3.7543044881889762
11
6.2230272047244091
21
-3.7541351574803148
0
LINE
8
BLACK
6
CONTINUOUS
10
6.2230272047244091
20
-3.7541351574803148
11
6.2230401968503939
21
-3.7539523622047244
0
LINE
8
BLACK
6
CONTINUOUS
10
6.2230401968503939
20
-3.7539523622047244
11
6.2234151574803152
21
-3.7532024409448819
0
LINE
8
BLACK
6
CONTINUOUS
10
6.2234151574803152
20
-3.7532024409448819
11
6.2236037007874012
21
-3.7530388582677165
0
LINE
8
BLACK
6
CONTINUOUS
10
6.2236037007874012
20
-3.7530388582677165
11
6.223767283464567
21
-3.75285031496063
0
LINE
8
BLACK
6
CONTINUOUS
10
6.223767283464567
20
-3.75285031496063
11
6.2245171653543307
21
-3.7524753543307088
0
LINE
8
BLACK
6
CONTINUOUS
10
6.2245171653543307
20
-3.7524753543307088
11
6.224699921259842
21
-3.7524623622047244
0
LINE
8
BLACK
6
CONTINUOUS
10
6.224699921259842
20
-3.7524623622047244
11
6.2248693307086613
21
-3.7523922047244094
0
LINE
8
BLACK
6
CONTINUOUS
10
6.2248693307086613
20
-3.7523922047244094
11
6.2256192519685039
21
-3.7523922047244094
0
LINE
8
BLACK
6
CONTINUOUS
10
6.2256192519685039
20
-3.7523922047244094
11
6.2258310236220469
21
-3.7524799212598423
0
LINE
8
BLACK
6
CONTINUOUS
10
6.2247063385826769
20
-3.7541414173228347
11
6.2245318897637798
21
-3.7544903543307084
0
LINE
8
BLACK
6
CONTINUOUS
10
6.2245318897637798
20
-3.7544903543307084
11
6.2245318897637798
21
-3.7556183858267715
0
LINE
8
BLACK
6
CONTINUOUS
10
6.2245318897637798
20
-3.7556183858267715
11
6.2247062992125981
21
-3.7559672440944882
0
LINE
8
BLACK
6
CONTINUOUS
10
6.2247062992125981
20
-3.7559672440944882
11
6.2250552362204727
21
-3.7561417322834645
0
LINE
8
BLACK
6
CONTINUOUS
10
6.2250552362204727
20
-3.7561417322834645
11
6.2254086614173225
21
-3.7561417322834645
0
LINE
8
BLACK
6
CONTINUOUS
10
6.2254086614173225
20
-3.7561417322834645
11
6.2249811023622046
21
-3.7540040551181102
0
LINE
8
BLACK
6
CONTINUOUS
10
6.2249811023622046
20
-3.7540040551181102
11
6.2247063385826769
21
-3.7541414173228347
0
LINE
8
BLACK
6
CONTINUOUS
10
6.2140199999999997
20
-3.7506050787401572
11
6.214245
21
-3.7506496062992127
0
LINE
8
BLACK
6
CONTINUOUS
10
6.214245
20
-3.7506496062992127
11
6.2142900787401576
21
-3.7507169685039368
0
LINE
8
BLACK
6
CONTINUOUS
10
6.2142900787401576
20
-3.7507169685039368
11
6.2143649999999999
21
-3.7507479921259841
0
LINE
8
BLACK
6
CONTINUOUS
10
6.2143649999999999
20
-3.7507479921259841
11
6.2144527165354333
21
-3.7509597637795276
0
LINE
8
BLACK
6
CONTINUOUS
10
6.2144527165354333
20
-3.7509597637795276
11
6.2145803543307085
21
-3.7511503543307088
0
LINE
8
BLACK
6
CONTINUOUS
10
6.2145803543307085
20
-3.7511503543307088
11
6.2152036614173225
21
-3.7542668897637794
0
LINE
8
BLACK
6
CONTINUOUS
10
6.2152036614173225
20
-3.7542668897637794
11
6.215872047244094
21
-3.7542668897637794
0
LINE
8
BLACK
6
CONTINUOUS
10
6.215872047244094
20
-3.7542668897637794
11
6.2162209448818899
21
-3.7540924409448819
0
LINE
8
BLACK
6
CONTINUOUS
10
6.2162209448818899
20
-3.7540924409448819
11
6.216395393700787
21
-3.7537435433070865
0
LINE
8
BLACK
6
CONTINUOUS
10
6.216395393700787
20
-3.7537435433070865
11
6.216395393700787
21
-3.7526155118110234
0
LINE
8
BLACK
6
CONTINUOUS
10
6.216395393700787
20
-3.7526155118110234
11
6.2161035826771656
21
-3.7520318503937009
0
LINE
8
BLACK
6
CONTINUOUS
10
6.2161035826771656
20
-3.7520318503937009
11
6.216060905511811
21
-3.7514307086614171
0
LINE
8
BLACK
6
CONTINUOUS
10
6.216060905511811
20
-3.7514307086614171
11
6.2164557480314961
21
-3.7509754330708662
0
LINE
8
BLACK
6
CONTINUOUS
10
6.2164557480314961
20
-3.7509754330708662
11
6.2170568897637795
21
-3.7509327559055117
0
LINE
8
BLACK
6
CONTINUOUS
10
6.2170568897637795
20
-3.7509327559055117
11
6.2175121653543304
21
-3.7513275984251968
0
LINE
8
BLACK
6
CONTINUOUS
10
6.2175121653543304
20
-3.7513275984251968
11
6.2178870866141729
21
-3.7520775590551181
0
LINE
8
BLACK
6
CONTINUOUS
10
6.2178870866141729
20
-3.7520775590551181
11
6.217900039370079
21
-3.7522603149606297
0
LINE
8
BLACK
6
CONTINUOUS
10
6.217900039370079
20
-3.7522603149606297
11
6.217970196850394
21
-3.7524296456692912
0
LINE
8
BLACK
6
CONTINUOUS
10
6.217970196850394
20
-3.7524296456692912
11
6.217970196850394
21
-3.7539294488188975
0
LINE
8
BLACK
6
CONTINUOUS
10
6.217970196850394
20
-3.7539294488188975
11
6.217900039370079
21
-3.7540987401574801
0
LINE
8
BLACK
6
CONTINUOUS
10
6.217900039370079
20
-3.7540987401574801
11
6.2178870866141729
21
-3.7542815748031497
0
LINE
8
BLACK
6
CONTINUOUS
10
6.2178870866141729
20
-3.7542815748031497
11
6.2175121653543304
21
-3.7550314566929135
0
LINE
8
BLACK
6
CONTINUOUS
10
6.2175121653543304
20
-3.7550314566929135
11
6.2173235433070868
21
-3.7551950000000001
0
LINE
8
BLACK
6
CONTINUOUS
10
6.2173235433070868
20
-3.7551950000000001
11
6.2171599999999998
21
-3.7553836220472441
0
LINE
8
BLACK
6
CONTINUOUS
10
6.2171599999999998
20
-3.7553836220472441
11
6.2164100787401573
21
-3.7557585826771653
0
LINE
8
BLACK
6
CONTINUOUS
10
6.2164100787401573
20
-3.7557585826771653
11
6.2162272440944877
21
-3.755771535433071
0
LINE
8
BLACK
6
CONTINUOUS
10
6.2162272440944877
20
-3.755771535433071
11
6.2160579527559054
21
-3.7558416929133855
0
LINE
8
BLACK
6
CONTINUOUS
10
6.2160579527559054
20
-3.7558416929133855
11
6.2130583070866141
21
-3.7558416929133855
0
LINE
8
BLACK
6
CONTINUOUS
10
6.2130583070866141
20
-3.7558416929133855
11
6.2128888976377947
21
-3.7557714960629922
0
LINE
8
BLACK
6
CONTINUOUS
10
6.2128888976377947
20
-3.7557714960629922
11
6.2127061417322835
21
-3.7557585433070866
0
LINE
8
BLACK
6
CONTINUOUS
10
6.2127061417322835
20
-3.7557585433070866
11
6.2119562598425198
21
-3.7553835826771653
0
LINE
8
BLACK
6
CONTINUOUS
10
6.2119562598425198
20
-3.7553835826771653
11
6.2117926377952752
21
-3.7551949212598426
0
LINE
8
BLACK
6
CONTINUOUS
10
6.2117926377952752
20
-3.7551949212598426
11
6.2116041338582679
21
-3.7550314566929135
0
LINE
8
BLACK
6
CONTINUOUS
10
6.2116041338582679
20
-3.7550314566929135
11
6.2112292125984254
21
-3.7542816141732285
0
LINE
8
BLACK
6
CONTINUOUS
10
6.2112292125984254
20
-3.7542816141732285
11
6.2112161811023618
21
-3.7540987795275589
0
LINE
8
BLACK
6
CONTINUOUS
10
6.2112161811023618
20
-3.7540987795275589
11
6.2111460629921256
21
-3.7539294488188975
0
LINE
8
BLACK
6
CONTINUOUS
10
6.2111460629921256
20
-3.7539294488188975
11
6.2111460629921256
21
-3.7524296456692912
0
LINE
8
BLACK
6
CONTINUOUS
10
6.2111460629921256
20
-3.7524296456692912
11
6.2112161811023618
21
-3.7522603149606297
0
LINE
8
BLACK
6
CONTINUOUS
10
6.2112161811023618
20
-3.7522603149606297
11
6.2112291732283467
21
-3.7520775196850393
0
LINE
8
BLACK
6
CONTINUOUS
10
6.2112291732283467
20
-3.7520775196850393
11
6.2116041338582679
21
-3.7513275984251968
0
LINE
8
BLACK
6
CONTINUOUS
10
6.2116041338582679
20
-3.7513275984251968
11
6.211792677165354
21
-3.7511640157480315
0
LINE
8
BLACK
6
CONTINUOUS
10
6.211792677165354
20
-3.7511640157480315
11
6.2119562598425198
21
-3.750975472440945
0
LINE
8
BLACK
6
CONTINUOUS
10
6.2119562598425198
20
-3.750975472440945
11
6.2127061417322835
21
-3.7506005118110237
0
LINE
8
BLACK
6
CONTINUOUS
10
6.2127061417322835
20
-3.7506005118110237
11
6.2128888976377947
21
-3.7505875196850393
0
LINE
8
BLACK
6
CONTINUOUS
10
6.2128888976377947
20
-3.7505875196850393
11
6.2130583070866141
21
-3.7505173622047243
0
LINE
8
BLACK
6
CONTINUOUS
10
6.2130583070866141
20
-3.7505173622047243
11
6.2138082283464566
21
-3.7505173622047243
0
LINE
8
BLACK
6
CONTINUOUS
10
6.2138082283464566
20
-3.7505173622047243
11
6.2140199999999997
21
-3.7506050787401572
0
LINE
8
BLACK
6
CONTINUOUS
10
6.2128953149606296
20
-3.7522665748031496
11
6.2127208661417326
21
-3.7526155118110234
0
LINE
8
BLACK
6
CONTINUOUS
10
6.2127208661417326
20
-3.7526155118110234
11
6.2127208661417326
21
-3.7537435433070865
0
LINE
8
BLACK
6
CONTINUOUS
10
6.2127208661417326
20
-3.7537435433070865
11
6.2128952755905509
21
-3.7540924015748032
0
LINE
8
BLACK
6
CONTINUOUS
10
6.2128952755905509
20
-3.7540924015748032
11
6.2132442125984246
21
-3.7542668897637794
0
LINE
8
BLACK
6
CONTINUOUS
10
6.2132442125984246
20
-3.7542668897637794
11
6.2135976377952753
21
-3.7542668897637794
0
LINE
8
BLACK
6
CONTINUOUS
10
6.2135976377952753
20
-3.7542668897637794
11
6.2131700787401574
21
-3.7521292125984251
0
LINE
8
BLACK
6
CONTINUOUS
10
6.2131700787401574
20
-3.7521292125984251
11
6.2128953149606296
21
-3.7522665748031496
0
LINE
8
BLACK
6
CONTINUOUS
10
6.200240472440945
20
-3.7472305905511809
11
6.2004654724409445
21
-3.7472751181102359
0
LINE
8
BLACK
6
CONTINUOUS
10
6.2004654724409445
20
-3.7472751181102359
11
6.2005105511811021
21
-3.7473424803149604
0
LINE
8
BLACK
6
CONTINUOUS
10
6.2005105511811021
20
-3.7473424803149604
11
6.2005854724409444
21
-3.7473735039370077
0
LINE
8
BLACK
6
CONTINUOUS
10
6.2005854724409444
20
-3.7473735039370077
11
6.2006731889763778
21
-3.7475852755905512
0
LINE
8
BLACK
6
CONTINUOUS
10
6.2006731889763778
20
-3.7475852755905512
11
6.200800826771653
21
-3.7477758661417324
0
LINE
8
BLACK
6
CONTINUOUS
10
6.200800826771653
20
-3.7477758661417324
11
6.2014241338582679
21
-3.7508924015748031
0
LINE
8
BLACK
6
CONTINUOUS
10
6.2014241338582679
20
-3.7508924015748031
11
6.2020925196850394
21
-3.7508924015748031
0
LINE
8
BLACK
6
CONTINUOUS
10
6.2020925196850394
20
-3.7508924015748031
11
6.2024414173228344
21
-3.7507179527559056
0
LINE
8
BLACK
6
CONTINUOUS
10
6.2024414173228344
20
-3.7507179527559056
11
6.2026158661417323
21
-3.7503690551181101
0
LINE
8
BLACK
6
CONTINUOUS
10
6.2026158661417323
20
-3.7503690551181101
11
6.2026158661417323
21
-3.749241023622047
0
LINE
8
BLACK
6
CONTINUOUS
10
6.2026158661417323
20
-3.749241023622047
11
6.20232405511811
21
-3.7486573622047241
0
LINE
8
BLACK
6
CONTINUOUS
10
6.20232405511811
20
-3.7486573622047241
11
6.2022813779527555
21
-3.7480562204724408
0
LINE
8
BLACK
6
CONTINUOUS
10
6.2022813779527555
20
-3.7480562204724408
11
6.2026762204724406
21
-3.7476009448818899
0
LINE
8
BLACK
6
CONTINUOUS
10
6.2026762204724406
20
-3.7476009448818899
11
6.2032773622047239
21
-3.7475582677165353
0
LINE
8
BLACK
6
CONTINUOUS
10
6.2032773622047239
20
-3.7475582677165353
11
6.2037326377952757
21
-3.7479531102362205
0
LINE
8
BLACK
6
CONTINUOUS
10
6.2037326377952757
20
-3.7479531102362205
11
6.2041075590551182
21
-3.7487030708661417
0
LINE
8
BLACK
6
CONTINUOUS
10
6.2041075590551182
20
-3.7487030708661417
11
6.2041205118110234
21
-3.7488858267716534
0
LINE
8
BLACK
6
CONTINUOUS
10
6.2041205118110234
20
-3.7488858267716534
11
6.2041906692913384
21
-3.7490551574803148
0
LINE
8
BLACK
6
CONTINUOUS
10
6.2041906692913384
20
-3.7490551574803148
11
6.2041906692913384
21
-3.7505549606299211
0
LINE
8
BLACK
6
CONTINUOUS
10
6.2041906692913384
20
-3.7505549606299211
11
6.2041205118110234
21
-3.7507242519685038
0
LINE
8
BLACK
6
CONTINUOUS
10
6.2041205118110234
20
-3.7507242519685038
11
6.2041075590551182
21
-3.7509070866141729
0
LINE
8
BLACK
6
CONTINUOUS
10
6.2041075590551182
20
-3.7509070866141729
11
6.2037326377952757
21
-3.7516569685039367
0
LINE
8
BLACK
6
CONTINUOUS
10
6.2037326377952757
20
-3.7516569685039367
11
6.2035440157480313
21
-3.7518205118110237
0
LINE
8
BLACK
6
CONTINUOUS
10
6.2035440157480313
20
-3.7518205118110237
11
6.2033804724409451
21
-3.7520091338582677
0
LINE
8
BLACK
6
CONTINUOUS
10
6.2033804724409451
20
-3.7520091338582677
11
6.2026305511811026
21
-3.752384094488189
0
LINE
8
BLACK
6
CONTINUOUS
10
6.2026305511811026
20
-3.752384094488189
11
6.202447716535433
21
-3.7523970472440946
0
LINE
8
BLACK
6
CONTINUOUS
10
6.202447716535433
20
-3.7523970472440946
11
6.2022784251968499
21
-3.7524672047244092
0
LINE
8
BLACK
6
CONTINUOUS
10
6.2022784251968499
20
-3.7524672047244092
11
6.1992787795275586
21
-3.7524672047244092
0
LINE
8
BLACK
6
CONTINUOUS
10
6.1992787795275586
20
-3.7524672047244092
11
6.1991093700787401
21
-3.7523970078740159
0
LINE
8
BLACK
6
CONTINUOUS
10
6.1991093700787401
20
-3.7523970078740159
11
6.198926614173228
21
-3.7523840551181102
0
LINE
8
BLACK
6
CONTINUOUS
10
6.198926614173228
20
-3.7523840551181102
11
6.1981767322834642
21
-3.752009094488189
0
LINE
8
BLACK
6
CONTINUOUS
10
6.1981767322834642
20
-3.752009094488189
11
6.1980131102362206
21
-3.7518204330708662
0
LINE
8
BLACK
6
CONTINUOUS
10
6.1980131102362206
20
-3.7518204330708662
11
6.1978246062992124
21
-3.7516569685039367
0
LINE
8
BLACK
6
CONTINUOUS
10
6.1978246062992124
20
-3.7516569685039367
11
6.1974496850393699
21
-3.7509071259842517
0
LINE
8
BLACK
6
CONTINUOUS
10
6.1974496850393699
20
-3.7509071259842517
11
6.1974366535433072
21
-3.7507242913385825
0
LINE
8
BLACK
6
CONTINUOUS
10
6.1974366535433072
20
-3.7507242913385825
11
6.1973665354330709
21
-3.7505549606299211
0
LINE
8
BLACK
6
CONTINUOUS
10
6.1973665354330709
20
-3.7505549606299211
11
6.1973665354330709
21
-3.7490551574803148
0
LINE
8
BLACK
6
CONTINUOUS
10
6.1973665354330709
20
-3.7490551574803148
11
6.1974366535433072
21
-3.7488858267716534
0
LINE
8
BLACK
6
CONTINUOUS
10
6.1974366535433072
20
-3.7488858267716534
11
6.1974496456692911
21
-3.748703031496063
0
LINE
8
BLACK
6
CONTINUOUS
10
6.1974496456692911
20
-3.748703031496063
11
6.1978246062992124
21
-3.7479531102362205
0
LINE
8
BLACK
6
CONTINUOUS
10
6.1978246062992124
20
-3.7479531102362205
11
6.1980131496062993
21
-3.7477895275590551
0
LINE
8
BLACK
6
CONTINUOUS
10
6.1980131496062993
20
-3.7477895275590551
11
6.1981767322834642
21
-3.7476009842519686
0
LINE
8
BLACK
6
CONTINUOUS
10
6.1981767322834642
20
-3.7476009842519686
11
6.198926614173228
21
-3.7472260236220474
0
LINE
8
BLACK
6
CONTINUOUS
10
6.198926614173228
20
-3.7472260236220474
11
6.1991093700787401
21
-3.747213031496063
0
LINE
8
BLACK
6
CONTINUOUS
10
6.1991093700787401
20
-3.747213031496063
11
6.1992787795275586
21
-3.747142874015748
0
LINE
8
BLACK
6
CONTINUOUS
10
6.1992787795275586
20
-3.747142874015748
11
6.2000287007874011
21
-3.747142874015748
0
LINE
8
BLACK
6
CONTINUOUS
10
6.2000287007874011
20
-3.747142874015748
11
6.200240472440945
21
-3.7472305905511809
0
LINE
8
BLACK
6
CONTINUOUS
10
6.199115787401575
20
-3.7488920866141733
11
6.198941338582677
21
-3.749241023622047
0
LINE
8
BLACK
6
CONTINUOUS
10
6.198941338582677
20
-3.749241023622047
11
6.198941338582677
21
-3.7503690551181101
0
LINE
8
BLACK
6
CONTINUOUS
10
6.198941338582677
20
-3.7503690551181101
11
6.1991157480314962
21
-3.7507179133858268
0
LINE
8
BLACK
6
CONTINUOUS
10
6.1991157480314962
20
-3.7507179133858268
11
6.19946468503937
21
-3.7508924015748031
0
LINE
8
BLACK
6
CONTINUOUS
10
6.19946468503937
20
-3.7508924015748031
11
6.1998181102362206
21
-3.7508924015748031
0
LINE
8
BLACK
6
CONTINUOUS
10
6.1998181102362206
20
-3.7508924015748031
11
6.1993905511811018
21
-3.7487547244094488
0
LINE
8
BLACK
6
CONTINUOUS
10
6.1993905511811018
20
-3.7487547244094488
11
6.199115787401575
21
-3.7488920866141733
0
LINE
8
BLACK
6
CONTINUOUS
10
6.1803379921259838
20
-3.7466235433070865
11
6.180568622047244
21
-3.7471803149606298
0
LINE
8
BLACK
6
CONTINUOUS
10
6.180568622047244
20
-3.7471803149606298
11
6.180568622047244
21
-3.7486426377952755
0
LINE
8
BLACK
6
CONTINUOUS
10
6.180568622047244
20
-3.7486426377952755
11
6.187655236220472
21
-3.7486426377952755
0
LINE
8
BLACK
6
CONTINUOUS
10
6.187655236220472
20
-3.7486426377952755
11
6.1882120078740153
21
-3.7488732677165353
0
LINE
8
BLACK
6
CONTINUOUS
10
6.1882120078740153
20
-3.7488732677165353
11
6.1884426377952755
21
-3.7494300393700786
0
LINE
8
BLACK
6
CONTINUOUS
10
6.1884426377952755
20
-3.7494300393700786
11
6.1882120078740153
21
-3.7499868110236219
0
LINE
8
BLACK
6
CONTINUOUS
10
6.1882120078740153
20
-3.7499868110236219
11
6.187655236220472
21
-3.7502174409448816
0
LINE
8
BLACK
6
CONTINUOUS
10
6.187655236220472
20
-3.7502174409448816
11
6.180568622047244
21
-3.7502174409448816
0
LINE
8
BLACK
6
CONTINUOUS
10
6.180568622047244
20
-3.7502174409448816
11
6.180568622047244
21
-3.7516797637795274
0
LINE
8
BLACK
6
CONTINUOUS
10
6.180568622047244
20
-3.7516797637795274
11
6.1803379921259838
21
-3.7522365354330707
0
LINE
8
BLACK
6
CONTINUOUS
10
6.1803379921259838
20
-3.7522365354330707
11
6.1797812204724405
21
-3.7524671653543304
0
LINE
8
BLACK
6
CONTINUOUS
10
6.1797812204724405
20
-3.7524671653543304
11
6.1792244488188972
21
-3.7522365354330707
0
LINE
8
BLACK
6
CONTINUOUS
10
6.1792244488188972
20
-3.7522365354330707
11
6.1789938188976379
21
-3.7516797637795274
0
LINE
8
BLACK
6
CONTINUOUS
10
6.1789938188976379
20
-3.7516797637795274
11
6.1789938188976379
21
-3.7471803149606298
0
LINE
8
BLACK
6
CONTINUOUS
10
6.1789938188976379
20
-3.7471803149606298
11
6.1792244488188972
21
-3.7466235433070865
0
LINE
8
BLACK
6
CONTINUOUS
10
6.1792244488188972
20
-3.7466235433070865
11
6.1797812204724405
21
-3.7463929133858267
0
LINE
8
BLACK
6
CONTINUOUS
10
6.1797812204724405
20
-3.7463929133858267
11
6.1803379921259838
21
-3.7466235433070865
0
LINE
8
BLACK
6
CONTINUOUS
10
6.229550590551181
20
-3.7458736614173227
11
6.2297812204724412
21
-3.746430433070866
0
LINE
8
BLACK
6
CONTINUOUS
10
6.2297812204724412
20
-3.746430433070866
11
6.229550590551181
21
-3.7469872047244093
0
LINE
8
BLACK
6
CONTINUOUS
10
6.229550590551181
20
-3.7469872047244093
11
6.2289938188976377
21
-3.747217834645669
0
LINE
8
BLACK
6
CONTINUOUS
10
6.2289938188976377
20
-3.747217834645669
11
6.2250552362204727
21
-3.747217834645669
0
LINE
8
BLACK
6
CONTINUOUS
10
6.2250552362204727
20
-3.747217834645669
11
6.2247063385826769
21
-3.7473922440944882
0
LINE
8
BLACK
6
CONTINUOUS
10
6.2247063385826769
20
-3.7473922440944882
11
6.2245318897637798
21
-3.747741181102362
0
LINE
8
BLACK
6
CONTINUOUS
10
6.2245318897637798
20
-3.747741181102362
11
6.2245318897637798
21
-3.7484942519685038
0
LINE
8
BLACK
6
CONTINUOUS
10
6.2245318897637798
20
-3.7484942519685038
11
6.224766535433071
21
-3.7489636220472442
0
LINE
8
BLACK
6
CONTINUOUS
10
6.224766535433071
20
-3.7489636220472442
11
6.2248205118110231
21
-3.7490175984251968
0
LINE
8
BLACK
6
CONTINUOUS
10
6.2248205118110231
20
-3.7490175984251968
11
6.2289938188976377
21
-3.7490175984251968
0
LINE
8
BLACK
6
CONTINUOUS
10
6.2289938188976377
20
-3.7490175984251968
11
6.229550590551181
21
-3.7492482283464565
0
LINE
8
BLACK
6
CONTINUOUS
10
6.229550590551181
20
-3.7492482283464565
11
6.2297812204724412
21
-3.7498049999999998
0
LINE
8
BLACK
6
CONTINUOUS
10
6.2297812204724412
20
-3.7498049999999998
11
6.229550590551181
21
-3.7503617716535431
0
LINE
8
BLACK
6
CONTINUOUS
10
6.229550590551181
20
-3.7503617716535431
11
6.2289938188976377
21
-3.7505924015748029
0
LINE
8
BLACK
6
CONTINUOUS
10
6.2289938188976377
20
-3.7505924015748029
11
6.2244944488188976
21
-3.7505924015748029
0
LINE
8
BLACK
6
CONTINUOUS
10
6.2244944488188976
20
-3.7505924015748029
11
6.2237444881889763
21
-3.7505924015748029
0
LINE
8
BLACK
6
CONTINUOUS
10
6.2237444881889763
20
-3.7505924015748029
11
6.223187716535433
21
-3.7503617716535431
0
LINE
8
BLACK
6
CONTINUOUS
10
6.223187716535433
20
-3.7503617716535431
11
6.2229570866141728
21
-3.7498049999999998
0
LINE
8
BLACK
6
CONTINUOUS
10
6.2229570866141728
20
-3.7498049999999998
11
6.2231697637795271
21
-3.7492914566929132
0
LINE
8
BLACK
6
CONTINUOUS
10
6.2231697637795271
20
-3.7492914566929132
11
6.2230401968503939
21
-3.7490322834645666
0
LINE
8
BLACK
6
CONTINUOUS
10
6.2230401968503939
20
-3.7490322834645666
11
6.2230272047244091
21
-3.7488494488188975
0
LINE
8
BLACK
6
CONTINUOUS
10
6.2230272047244091
20
-3.7488494488188975
11
6.2229570866141728
21
-3.7486801574803148
0
LINE
8
BLACK
6
CONTINUOUS
10
6.2229570866141728
20
-3.7486801574803148
11
6.2229570866141728
21
-3.7475553149606298
0
LINE
8
BLACK
6
CONTINUOUS
10
6.2229570866141728
20
-3.7475553149606298
11
6.2230272047244091
21
-3.7473859842519683
0
LINE
8
BLACK
6
CONTINUOUS
10
6.2230272047244091
20
-3.7473859842519683
11
6.2230401968503939
21
-3.7472031889763779
0
LINE
8
BLACK
6
CONTINUOUS
10
6.2230401968503939
20
-3.7472031889763779
11
6.2234151574803152
21
-3.7464532677165354
0
LINE
8
BLACK
6
CONTINUOUS
10
6.2234151574803152
20
-3.7464532677165354
11
6.2236037007874012
21
-3.7462896850393701
0
LINE
8
BLACK
6
CONTINUOUS
10
6.2236037007874012
20
-3.7462896850393701
11
6.223767283464567
21
-3.7461011417322836
0
LINE
8
BLACK
6
CONTINUOUS
10
6.223767283464567
20
-3.7461011417322836
11
6.2245171653543307
21
-3.7457261811023623
0
LINE
8
BLACK
6
CONTINUOUS
10
6.2245171653543307
20
-3.7457261811023623
11
6.224699921259842
21
-3.7457131889763779
0
LINE
8
BLACK
6
CONTINUOUS
10
6.224699921259842
20
-3.7457131889763779
11
6.2248693307086613
21
-3.7456430314960629
0
LINE
8
BLACK
6
CONTINUOUS
10
6.2248693307086613
20
-3.7456430314960629
11
6.2289938188976377
21
-3.7456430314960629
0
LINE
8
BLACK
6
CONTINUOUS
10
6.2289938188976377
20
-3.7456430314960629
11
6.229550590551181
21
-3.7458736614173227
0
LINE
8
BLACK
6
CONTINUOUS
10
6.2175349212598423
20
-3.7461010236220473
11
6.2179297637795274
21
-3.7465562992125983
0
LINE
8
BLACK
6
CONTINUOUS
10
6.2179297637795274
20
-3.7465562992125983
11
6.2178870866141729
21
-3.7471574015748033
0
LINE
8
BLACK
6
CONTINUOUS
10
6.2178870866141729
20
-3.7471574015748033
11
6.2175121653543304
21
-3.7479073622047245
0
LINE
8
BLACK
6
CONTINUOUS
10
6.2175121653543304
20
-3.7479073622047245
11
6.2173235433070868
21
-3.7480709055118111
0
LINE
8
BLACK
6
CONTINUOUS
10
6.2173235433070868
20
-3.7480709055118111
11
6.2171599999999998
21
-3.7482595275590551
0
LINE
8
BLACK
6
CONTINUOUS
10
6.2171599999999998
20
-3.7482595275590551
11
6.2164100787401573
21
-3.7486344488188976
0
LINE
8
BLACK
6
CONTINUOUS
10
6.2164100787401573
20
-3.7486344488188976
11
6.2162272440944877
21
-3.7486474015748033
0
LINE
8
BLACK
6
CONTINUOUS
10
6.2162272440944877
20
-3.7486474015748033
11
6.2160579527559054
21
-3.7487175590551178
0
LINE
8
BLACK
6
CONTINUOUS
10
6.2160579527559054
20
-3.7487175590551178
11
6.209308779527559
21
-3.7487175590551178
0
LINE
8
BLACK
6
CONTINUOUS
10
6.209308779527559
20
-3.7487175590551178
11
6.2087520078740157
21
-3.7484869291338581
0
LINE
8
BLACK
6
CONTINUOUS
10
6.2087520078740157
20
-3.7484869291338581
11
6.2085213779527555
21
-3.7479301574803148
0
LINE
8
BLACK
6
CONTINUOUS
10
6.2085213779527555
20
-3.7479301574803148
11
6.2087520078740157
21
-3.7473733858267715
0
LINE
8
BLACK
6
CONTINUOUS
10
6.2087520078740157
20
-3.7473733858267715
11
6.209308779527559
21
-3.7471427559055117
0
LINE
8
BLACK
6
CONTINUOUS
10
6.209308779527559
20
-3.7471427559055117
11
6.2158720866141728
21
-3.7471427559055117
0
LINE
8
BLACK
6
CONTINUOUS
10
6.2158720866141728
20
-3.7471427559055117
11
6.2162209448818899
21
-3.7469683070866142
0
LINE
8
BLACK
6
CONTINUOUS
10
6.2162209448818899
20
-3.7469683070866142
11
6.2164785039370081
21
-3.7464531889763779
0
LINE
8
BLACK
6
CONTINUOUS
10
6.2164785039370081
20
-3.7464531889763779
11
6.216933779527559
21
-3.7460583464566928
0
LINE
8
BLACK
6
CONTINUOUS
10
6.216933779527559
20
-3.7460583464566928
11
6.2175349212598423
21
-3.7461010236220473
0
LINE
8
BLACK
6
CONTINUOUS
10
6.1987107086614168
20
-3.7417492125984251
11
6.198941338582677
21
-3.7423059842519684
0
LINE
8
BLACK
6
CONTINUOUS
10
6.198941338582677
20
-3.7423059842519684
11
6.198941338582677
21
-3.7428699606299212
0
LINE
8
BLACK
6
CONTINUOUS
10
6.198941338582677
20
-3.7428699606299212
11
6.199176023622047
21
-3.7433393700787403
0
LINE
8
BLACK
6
CONTINUOUS
10
6.199176023622047
20
-3.7433393700787403
11
6.1993701968503938
21
-3.7435335433070867
0
LINE
8
BLACK
6
CONTINUOUS
10
6.1993701968503938
20
-3.7435335433070867
11
6.1998396456692912
21
-3.7437682677165354
0
LINE
8
BLACK
6
CONTINUOUS
10
6.1998396456692912
20
-3.7437682677165354
11
6.2034032677165349
21
-3.7437682677165354
0
LINE
8
BLACK
6
CONTINUOUS
10
6.2034032677165349
20
-3.7437682677165354
11
6.2039600393700782
21
-3.7439988976377951
0
LINE
8
BLACK
6
CONTINUOUS
10
6.2039600393700782
20
-3.7439988976377951
11
6.2041906692913384
21
-3.7445556692913384
0
LINE
8
BLACK
6
CONTINUOUS
10
6.2041906692913384
20
-3.7445556692913384
11
6.2039600393700782
21
-3.7451124409448817
0
LINE
8
BLACK
6
CONTINUOUS
10
6.2039600393700782
20
-3.7451124409448817
11
6.2034032677165349
21
-3.7453430708661415
0
LINE
8
BLACK
6
CONTINUOUS
10
6.2034032677165349
20
-3.7453430708661415
11
6.1981539370078735
21
-3.7453430708661415
0
LINE
8
BLACK
6
CONTINUOUS
10
6.1981539370078735
20
-3.7453430708661415
11
6.1975971653543303
21
-3.7451124409448817
0
LINE
8
BLACK
6
CONTINUOUS
10
6.1975971653543303
20
-3.7451124409448817
11
6.1973665354330709
21
-3.7445556692913384
0
LINE
8
BLACK
6
CONTINUOUS
10
6.1973665354330709
20
-3.7445556692913384
11
6.1975971653543303
21
-3.7439988976377951
0
LINE
8
BLACK
6
CONTINUOUS
10
6.1975971653543303
20
-3.7439988976377951
11
6.1977196850393703
21
-3.7439481102362202
0
LINE
8
BLACK
6
CONTINUOUS
10
6.1977196850393703
20
-3.7439481102362202
11
6.1974496456692911
21
-3.743407992125984
0
LINE
8
BLACK
6
CONTINUOUS
10
6.1974496456692911
20
-3.743407992125984
11
6.1974366535433072
21
-3.7432251574803148
0
LINE
8
BLACK
6
CONTINUOUS
10
6.1974366535433072
20
-3.7432251574803148
11
6.1973665354330709
21
-3.7430558661417321
0
LINE
8
BLACK
6
CONTINUOUS
10
6.1973665354330709
20
-3.7430558661417321
11
6.1973665354330709
21
-3.7423059842519684
0
LINE
8
BLACK
6
CONTINUOUS
10
6.1973665354330709
20
-3.7423059842519684
11
6.1975971653543303
21
-3.7417492125984251
0
LINE
8
BLACK
6
CONTINUOUS
10
6.1975971653543303
20
-3.7417492125984251
11
6.1981539370078735
21
-3.7415185826771653
0
LINE
8
BLACK
6
CONTINUOUS
10
6.1981539370078735
20
-3.7415185826771653
11
6.1987107086614168
21
-3.7417492125984251
0
LINE
8
BLACK
6
CONTINUOUS
10
6.2158522834645664
20
-3.7393388582677165
11
6.216035118110236
21
-3.7393518503937009
0
LINE
8
BLACK
6
CONTINUOUS
10
6.216035118110236
20
-3.7393518503937009
11
6.2167850393700785
21
-3.7397268110236221
0
LINE
8
BLACK
6
CONTINUOUS
10
6.2167850393700785
20
-3.7397268110236221
11
6.2168699606299214
21
-3.7398247244094489
0
LINE
8
BLACK
6
CONTINUOUS
10
6.2168699606299214
20
-3.7398247244094489
11
6.21698968503937
21
-3.7398743307086613
0
LINE
8
BLACK
6
CONTINUOUS
10
6.21698968503937
20
-3.7398743307086613
11
6.2173646456692913
21
-3.7402492913385825
0
LINE
8
BLACK
6
CONTINUOUS
10
6.2173646456692913
20
-3.7402492913385825
11
6.2174142125984249
21
-3.7403689763779528
0
LINE
8
BLACK
6
CONTINUOUS
10
6.2174142125984249
20
-3.7403689763779528
11
6.2175121653543304
21
-3.740453937007874
0
LINE
8
BLACK
6
CONTINUOUS
10
6.2175121653543304
20
-3.740453937007874
11
6.2178870866141729
21
-3.7412038976377953
0
LINE
8
BLACK
6
CONTINUOUS
10
6.2178870866141729
20
-3.7412038976377953
11
6.217900039370079
21
-3.7413866535433069
0
LINE
8
BLACK
6
CONTINUOUS
10
6.217900039370079
20
-3.7413866535433069
11
6.217970196850394
21
-3.7415559842519683
0
LINE
8
BLACK
6
CONTINUOUS
10
6.217970196850394
20
-3.7415559842519683
11
6.217970196850394
21
-3.7426808267716534
0
LINE
8
BLACK
6
CONTINUOUS
10
6.217970196850394
20
-3.7426808267716534
11
6.217900039370079
21
-3.742850118110236
0
LINE
8
BLACK
6
CONTINUOUS
10
6.217900039370079
20
-3.742850118110236
11
6.2178870866141729
21
-3.7430329133858269
0
LINE
8
BLACK
6
CONTINUOUS
10
6.2178870866141729
20
-3.7430329133858269
11
6.2175121653543304
21
-3.7437828740157482
0
LINE
8
BLACK
6
CONTINUOUS
10
6.2175121653543304
20
-3.7437828740157482
11
6.2174141732283461
21
-3.7438677952755905
0
LINE
8
BLACK
6
CONTINUOUS
10
6.2174141732283461
20
-3.7438677952755905
11
6.2173646062992125
21
-3.7439875590551179
0
LINE
8
BLACK
6
CONTINUOUS
10
6.2173646062992125
20
-3.7439875590551179
11
6.2169896456692912
21
-3.7443624803149604
0
LINE
8
BLACK
6
CONTINUOUS
10
6.2169896456692912
20
-3.7443624803149604
11
6.2168699212598426
21
-3.7444120472440945
0
LINE
8
BLACK
6
CONTINUOUS
10
6.2168699212598426
20
-3.7444120472440945
11
6.2167850393700785
21
-3.7445099606299213
0
LINE
8
BLACK
6
CONTINUOUS
10
6.2167850393700785
20
-3.7445099606299213
11
6.216035118110236
21
-3.7448849212598425
0
LINE
8
BLACK
6
CONTINUOUS
10
6.216035118110236
20
-3.7448849212598425
11
6.2158522834645664
21
-3.7448978740157481
0
LINE
8
BLACK
6
CONTINUOUS
10
6.2158522834645664
20
-3.7448978740157481
11
6.2156829921259842
21
-3.7449680314960627
0
LINE
8
BLACK
6
CONTINUOUS
10
6.2156829921259842
20
-3.7449680314960627
11
6.2134332677165354
21
-3.7449680314960627
0
LINE
8
BLACK
6
CONTINUOUS
10
6.2134332677165354
20
-3.7449680314960627
11
6.213263858267716
21
-3.7448978346456694
0
LINE
8
BLACK
6
CONTINUOUS
10
6.213263858267716
20
-3.7448978346456694
11
6.2130811023622048
21
-3.7448848818897638
0
LINE
8
BLACK
6
CONTINUOUS
10
6.2130811023622048
20
-3.7448848818897638
11
6.212331220472441
21
-3.7445099212598425
0
LINE
8
BLACK
6
CONTINUOUS
10
6.212331220472441
20
-3.7445099212598425
11
6.2122463385826769
21
-3.7444120472440945
0
LINE
8
BLACK
6
CONTINUOUS
10
6.2122463385826769
20
-3.7444120472440945
11
6.2121266141732283
21
-3.7443624803149604
0
LINE
8
BLACK
6
CONTINUOUS
10
6.2121266141732283
20
-3.7443624803149604
11
6.2117516929133858
21
-3.7439875590551179
0
LINE
8
BLACK
6
CONTINUOUS
10
6.2117516929133858
20
-3.7439875590551179
11
6.2117020866141734
21
-3.7438677952755905
0
LINE
8
BLACK
6
CONTINUOUS
10
6.2117020866141734
20
-3.7438677952755905
11
6.2116041338582679
21
-3.7437828740157482
0
LINE
8
BLACK
6
CONTINUOUS
10
6.2116041338582679
20
-3.7437828740157482
11
6.2112291732283467
21
-3.7430329527559056
0
LINE
8
BLACK
6
CONTINUOUS
10
6.2112291732283467
20
-3.7430329527559056
11
6.2112161811023618
21
-3.742850118110236
0
LINE
8
BLACK
6
CONTINUOUS
10
6.2112161811023618
20
-3.742850118110236
11
6.2111460629921256
21
-3.7426808267716534
0
LINE
8
BLACK
6
CONTINUOUS
10
6.2111460629921256
20
-3.7426808267716534
11
6.2111460629921256
21
-3.7415559842519683
0
LINE
8
BLACK
6
CONTINUOUS
10
6.2111460629921256
20
-3.7415559842519683
11
6.2112161811023618
21
-3.7413866535433069
0
LINE
8
BLACK
6
CONTINUOUS
10
6.2112161811023618
20
-3.7413866535433069
11
6.2112291732283467
21
-3.7412038582677165
0
LINE
8
BLACK
6
CONTINUOUS
10
6.2112291732283467
20
-3.7412038582677165
11
6.2116041338582679
21
-3.740453937007874
0
LINE
8
BLACK
6
CONTINUOUS
10
6.2116041338582679
20
-3.740453937007874
11
6.2117020472440947
21
-3.7403689763779528
0
LINE
8
BLACK
6
CONTINUOUS
10
6.2117020472440947
20
-3.7403689763779528
11
6.2117516535433071
21
-3.7402492913385825
0
LINE
8
BLACK
6
CONTINUOUS
10
6.2117516535433071
20
-3.7402492913385825
11
6.2121266141732283
21
-3.7398743307086613
0
LINE
8
BLACK
6
CONTINUOUS
10
6.2121266141732283
20
-3.7398743307086613
11
6.2122462992125982
21
-3.7398247244094489
0
LINE
8
BLACK
6
CONTINUOUS
10
6.2122462992125982
20
-3.7398247244094489
11
6.212331220472441
21
-3.7397268503937009
0
LINE
8
BLACK
6
CONTINUOUS
10
6.212331220472441
20
-3.7397268503937009
11
6.2130811023622048
21
-3.7393518897637796
0
LINE
8
BLACK
6
CONTINUOUS
10
6.2130811023622048
20
-3.7393518897637796
11
6.213263858267716
21
-3.7393388976377953
0
LINE
8
BLACK
6
CONTINUOUS
10
6.213263858267716
20
-3.7393388976377953
11
6.2134332677165354
21
-3.7392687401574802
0
LINE
8
BLACK
6
CONTINUOUS
10
6.2134332677165354
20
-3.7392687401574802
11
6.2156829921259842
21
-3.7392687401574802
0
LINE
8
BLACK
6
CONTINUOUS
10
6.2156829921259842
20
-3.7392687401574802
11
6.2158522834645664
21
-3.7393388582677165
0
LINE
8
BLACK
6
CONTINUOUS
10
6.213149803149606
20
-3.7410782283464568
11
6.2129555511811025
21
-3.7412724409448819
0
LINE
8
BLACK
6
CONTINUOUS
10
6.2129555511811025
20
-3.7412724409448819
11
6.2127208661417326
21
-3.7417418503937006
0
LINE
8
BLACK
6
CONTINUOUS
10
6.2127208661417326
20
-3.7417418503937006
11
6.2127208661417326
21
-3.7424949212598424
0
LINE
8
BLACK
6
CONTINUOUS
10
6.2127208661417326
20
-3.7424949212598424
11
6.2129555118110238
21
-3.7429642913385828
0
LINE
8
BLACK
6
CONTINUOUS
10
6.2129555118110238
20
-3.7429642913385828
11
6.2131497637795272
21
-3.7431585039370079
0
LINE
8
BLACK
6
CONTINUOUS
10
6.2131497637795272
20
-3.7431585039370079
11
6.2136191732283459
21
-3.7433932283464566
0
LINE
8
BLACK
6
CONTINUOUS
10
6.2136191732283459
20
-3.7433932283464566
11
6.2154970866141728
21
-3.7433932283464566
0
LINE
8
BLACK
6
CONTINUOUS
10
6.2154970866141728
20
-3.7433932283464566
11
6.2159664960629923
21
-3.7431585039370079
0
LINE
8
BLACK
6
CONTINUOUS
10
6.2159664960629923
20
-3.7431585039370079
11
6.216160708661417
21
-3.7429642913385828
0
LINE
8
BLACK
6
CONTINUOUS
10
6.216160708661417
20
-3.7429642913385828
11
6.216395393700787
21
-3.7424949212598424
0
LINE
8
BLACK
6
CONTINUOUS
10
6.216395393700787
20
-3.7424949212598424
11
6.216395393700787
21
-3.7417418503937006
0
LINE
8
BLACK
6
CONTINUOUS
10
6.216395393700787
20
-3.7417418503937006
11
6.2161606692913383
21
-3.7412724015748031
0
LINE
8
BLACK
6
CONTINUOUS
10
6.2161606692913383
20
-3.7412724015748031
11
6.2159664960629923
21
-3.7410782283464568
0
LINE
8
BLACK
6
CONTINUOUS
10
6.2159664960629923
20
-3.7410782283464568
11
6.2154970866141728
21
-3.7408435433070863
0
LINE
8
BLACK
6
CONTINUOUS
10
6.2154970866141728
20
-3.7408435433070863
11
6.2136191732283459
21
-3.7408435433070863
0
LINE
8
BLACK
6
CONTINUOUS
10
6.2136191732283459
20
-3.7408435433070863
11
6.213149803149606
21
-3.7410782283464568
0
LINE
8
BLACK
6
CONTINUOUS
10
6.229550590551181
20
-3.74024937007874
11
6.2297812204724412
21
-3.7408061417322833
0
LINE
8
BLACK
6
CONTINUOUS
10
6.2297812204724412
20
-3.7408061417322833
11
6.2297812204724412
21
-3.7415560629921258
0
LINE
8
BLACK
6
CONTINUOUS
10
6.2297812204724412
20
-3.7415560629921258
11
6.2297110629921262
21
-3.7417253543307085
0
LINE
8
BLACK
6
CONTINUOUS
10
6.2297110629921262
20
-3.7417253543307085
11
6.2296981102362201
21
-3.7419081496062989
0
LINE
8
BLACK
6
CONTINUOUS
10
6.2296981102362201
20
-3.7419081496062989
11
6.2293231889763776
21
-3.7426581102362202
0
LINE
8
BLACK
6
CONTINUOUS
10
6.2293231889763776
20
-3.7426581102362202
11
6.229134566929134
21
-3.7428216535433072
0
LINE
8
BLACK
6
CONTINUOUS
10
6.229134566929134
20
-3.7428216535433072
11
6.228971023622047
21
-3.7430102755905512
0
LINE
8
BLACK
6
CONTINUOUS
10
6.228971023622047
20
-3.7430102755905512
11
6.2282211023622045
21
-3.7433851968503937
0
LINE
8
BLACK
6
CONTINUOUS
10
6.2282211023622045
20
-3.7433851968503937
11
6.2280382677165349
21
-3.7433981496062989
0
LINE
8
BLACK
6
CONTINUOUS
10
6.2280382677165349
20
-3.7433981496062989
11
6.2278689763779527
21
-3.7434683070866139
0
LINE
8
BLACK
6
CONTINUOUS
10
6.2278689763779527
20
-3.7434683070866139
11
6.2245318897637798
21
-3.7434683070866139
0
LINE
8
BLACK
6
CONTINUOUS
10
6.2245318897637798
20
-3.7434683070866139
11
6.2245318897637798
21
-3.7438057874015747
0
LINE
8
BLACK
6
CONTINUOUS
10
6.2245318897637798
20
-3.7438057874015747
11
6.2243012598425196
21
-3.7443625590551179
0
LINE
8
BLACK
6
CONTINUOUS
10
6.2243012598425196
20
-3.7443625590551179
11
6.2237444881889763
21
-3.7445931889763777
0
LINE
8
BLACK
6
CONTINUOUS
10
6.2237444881889763
20
-3.7445931889763777
11
6.223187716535433
21
-3.7443625590551179
0
LINE
8
BLACK
6
CONTINUOUS
10
6.223187716535433
20
-3.7443625590551179
11
6.2229570866141728
21
-3.7438057874015747
0
LINE
8
BLACK
6
CONTINUOUS
10
6.2229570866141728
20
-3.7438057874015747
11
6.2229570866141728
21
-3.7434683070866139
0
LINE
8
BLACK
6
CONTINUOUS
10
6.2229570866141728
20
-3.7434683070866139
11
6.2211198031496062
21
-3.7434683070866139
0
LINE
8
BLACK
6
CONTINUOUS
10
6.2211198031496062
20
-3.7434683070866139
11
6.2205630314960629
21
-3.7432376771653542
0
LINE
8
BLACK
6
CONTINUOUS
10
6.2205630314960629
20
-3.7432376771653542
11
6.2203324015748027
21
-3.7426809055118109
0
LINE
8
BLACK
6
CONTINUOUS
10
6.2203324015748027
20
-3.7426809055118109
11
6.2205630314960629
21
-3.7421241338582676
0
LINE
8
BLACK
6
CONTINUOUS
10
6.2205630314960629
20
-3.7421241338582676
11
6.2211198031496062
21
-3.7418935039370078
0
LINE
8
BLACK
6
CONTINUOUS
10
6.2211198031496062
20
-3.7418935039370078
11
6.2229570866141728
21
-3.7418935039370078
0
LINE
8
BLACK
6
CONTINUOUS
10
6.2229570866141728
20
-3.7418935039370078
11
6.2229570866141728
21
-3.7408061417322833
0
LINE
8
BLACK
6
CONTINUOUS
10
6.2229570866141728
20
-3.7408061417322833
11
6.223187716535433
21
-3.74024937007874
0
LINE
8
BLACK
6
CONTINUOUS
10
6.223187716535433
20
-3.74024937007874
11
6.2237444881889763
21
-3.7400187401574803
0
LINE
8
BLACK
6
CONTINUOUS
10
6.2237444881889763
20
-3.7400187401574803
11
6.2243012598425196
21
-3.74024937007874
0
LINE
8
BLACK
6
CONTINUOUS
10
6.2243012598425196
20
-3.74024937007874
11
6.2245318897637798
21
-3.7408061417322833
0
LINE
8
BLACK
6
CONTINUOUS
10
6.2245318897637798
20
-3.7408061417322833
11
6.2245318897637798
21
-3.7418935039370078
0
LINE
8
BLACK
6
CONTINUOUS
10
6.2245318897637798
20
-3.7418935039370078
11
6.22768311023622
21
-3.7418935039370078
0
LINE
8
BLACK
6
CONTINUOUS
10
6.22768311023622
20
-3.7418935039370078
11
6.2280319685039371
21
-3.7417190551181103
0
LINE
8
BLACK
6
CONTINUOUS
10
6.2280319685039371
20
-3.7417190551181103
11
6.2282064173228342
21
-3.7413701574803149
0
LINE
8
BLACK
6
CONTINUOUS
10
6.2282064173228342
20
-3.7413701574803149
11
6.2282064173228342
21
-3.7408061417322833
0
LINE
8
BLACK
6
CONTINUOUS
10
6.2282064173228342
20
-3.7408061417322833
11
6.2284370472440944
21
-3.74024937007874
0
LINE
8
BLACK
6
CONTINUOUS
10
6.2284370472440944
20
-3.74024937007874
11
6.2289938188976377
21
-3.7400187401574803
0
LINE
8
BLACK
6
CONTINUOUS
10
6.2289938188976377
20
-3.7400187401574803
11
6.229550590551181
21
-3.74024937007874
0
LINE
8
BLACK
6
CONTINUOUS
10
6.2173990944881892
20
-3.7321749212598423
11
6.2174403149606299
21
-3.7322076377952755
0
LINE
8
BLACK
6
CONTINUOUS
10
6.2174403149606299
20
-3.7322076377952755
11
6.2174929527559053
21
-3.7322083070866139
0
LINE
8
BLACK
6
CONTINUOUS
10
6.2174929527559053
20
-3.7322083070866139
11
6.2176712204724405
21
-3.7323909448818897
0
LINE
8
BLACK
6
CONTINUOUS
10
6.2176712204724405
20
-3.7323909448818897
11
6.2178711023622046
21
-3.732549645669291
0
LINE
8
BLACK
6
CONTINUOUS
10
6.2178711023622046
20
-3.732549645669291
11
6.2178770866141733
21
-3.7326018897637794
0
LINE
8
BLACK
6
CONTINUOUS
10
6.2178770866141733
20
-3.7326018897637794
11
6.2179138976377955
21
-3.7326396062992124
0
LINE
8
BLACK
6
CONTINUOUS
10
6.2179138976377955
20
-3.7326396062992124
11
6.2179107480314961
21
-3.7328950000000001
0
LINE
8
BLACK
6
CONTINUOUS
10
6.2179107480314961
20
-3.7328950000000001
11
6.2179398818897633
21
-3.733148346456693
0
LINE
8
BLACK
6
CONTINUOUS
10
6.2179398818897633
20
-3.733148346456693
11
6.2179071653543305
21
-3.733189527559055
0
LINE
8
BLACK
6
CONTINUOUS
10
6.2179071653543305
20
-3.733189527559055
11
6.2179065354330705
21
-3.7332422047244092
0
LINE
8
BLACK
6
CONTINUOUS
10
6.2179065354330705
20
-3.7332422047244092
11
6.2177237401574805
21
-3.7334205511811023
0
LINE
8
BLACK
6
CONTINUOUS
10
6.2177237401574805
20
-3.7334205511811023
11
6.2175651574803146
21
-3.7336203543307085
0
LINE
8
BLACK
6
CONTINUOUS
10
6.2175651574803146
20
-3.7336203543307085
11
6.2175128740157479
21
-3.7336263385826771
0
LINE
8
BLACK
6
CONTINUOUS
10
6.2175128740157479
20
-3.7336263385826771
11
6.2174752362204719
21
-3.7336631102362206
0
LINE
8
BLACK
6
CONTINUOUS
10
6.2174752362204719
20
-3.7336631102362206
11
6.2155533858267713
21
-3.7344318503937006
0
LINE
8
BLACK
6
CONTINUOUS
10
6.2155533858267713
20
-3.7344318503937006
11
6.2174751968503932
21
-3.7352005905511811
0
LINE
8
BLACK
6
CONTINUOUS
10
6.2174751968503932
20
-3.7352005905511811
11
6.2175128740157479
21
-3.7352373622047241
0
LINE
8
BLACK
6
CONTINUOUS
10
6.2175128740157479
20
-3.7352373622047241
11
6.2175651574803146
21
-3.7352433858267715
0
LINE
8
BLACK
6
CONTINUOUS
10
6.2175651574803146
20
-3.7352433858267715
11
6.217723818897638
21
-3.7354432283464565
0
LINE
8
BLACK
6
CONTINUOUS
10
6.217723818897638
20
-3.7354432283464565
11
6.2179064960629917
21
-3.7356215354330709
0
LINE
8
BLACK
6
CONTINUOUS
10
6.2179064960629917
20
-3.7356215354330709
11
6.2179071259842518
21
-3.7356741338582675
0
LINE
8
BLACK
6
CONTINUOUS
10
6.2179071259842518
20
-3.7356741338582675
11
6.2179398818897633
21
-3.7357153937007874
0
LINE
8
BLACK
6
CONTINUOUS
10
6.2179398818897633
20
-3.7357153937007874
11
6.2179107086614174
21
-3.7359690157480312
0
LINE
8
BLACK
6
CONTINUOUS
10
6.2179107086614174
20
-3.7359690157480312
11
6.2179138582677167
21
-3.7362241338582676
0
LINE
8
BLACK
6
CONTINUOUS
10
6.2179138582677167
20
-3.7362241338582676
11
6.2178770866141733
21
-3.7362617716535431
0
LINE
8
BLACK
6
CONTINUOUS
10
6.2178770866141733
20
-3.7362617716535431
11
6.2178711023622046
21
-3.736314094488189
0
LINE
8
BLACK
6
CONTINUOUS
10
6.2178711023622046
20
-3.736314094488189
11
6.217671141732283
21
-3.736472834645669
0
LINE
8
BLACK
6
CONTINUOUS
10
6.217671141732283
20
-3.736472834645669
11
6.2174929527559053
21
-3.7366554330708661
0
LINE
8
BLACK
6
CONTINUOUS
10
6.2174929527559053
20
-3.7366554330708661
11
6.2174403149606299
21
-3.7366560629921257
0
LINE
8
BLACK
6
CONTINUOUS
10
6.2174403149606299
20
-3.7366560629921257
11
6.2173990944881892
21
-3.7366888188976377
0
LINE
8
BLACK
6
CONTINUOUS
10
6.2173990944881892
20
-3.7366888188976377
11
6.2121497637795278
21
-3.7381885826771653
0
LINE
8
BLACK
6
CONTINUOUS
10
6.2121497637795278
20
-3.7381885826771653
11
6.2115510629921262
21
-3.7381198031496061
0
LINE
8
BLACK
6
CONTINUOUS
10
6.2115510629921262
20
-3.7381198031496061
11
6.2111763779527553
21
-3.7376477952755907
0
LINE
8
BLACK
6
CONTINUOUS
10
6.2111763779527553
20
-3.7376477952755907
11
6.2112451574803149
21
-3.7370490944881887
0
LINE
8
BLACK
6
CONTINUOUS
10
6.2112451574803149
20
-3.7370490944881887
11
6.2117171653543304
21
-3.7366744094488187
0
LINE
8
BLACK
6
CONTINUOUS
10
6.2117171653543304
20
-3.7366744094488187
11
6.2147517716535434
21
-3.7358073622047243
0
LINE
8
BLACK
6
CONTINUOUS
10
6.2147517716535434
20
-3.7358073622047243
11
6.213140826771653
21
-3.7351629921259843
0
LINE
8
BLACK
6
CONTINUOUS
10
6.213140826771653
20
-3.7351629921259843
11
6.2131333858267714
21
-3.7351557480314961
0
LINE
8
BLACK
6
CONTINUOUS
10
6.2131333858267714
20
-3.7351557480314961
11
6.2131231102362205
21
-3.7351556299212598
0
LINE
8
BLACK
6
CONTINUOUS
10
6.2131231102362205
20
-3.7351556299212598
11
6.2129192125984254
21
-3.7349466929133857
0
LINE
8
BLACK
6
CONTINUOUS
10
6.2129192125984254
20
-3.7349466929133857
11
6.2127095275590554
21
-3.7347420472440942
0
LINE
8
BLACK
6
CONTINUOUS
10
6.2127095275590554
20
-3.7347420472440942
11
6.2127093700787404
21
-3.7347316929133858
0
LINE
8
BLACK
6
CONTINUOUS
10
6.2127093700787404
20
-3.7347316929133858
11
6.2127022047244091
21
-3.7347243307086613
0
LINE
8
BLACK
6
CONTINUOUS
10
6.2127022047244091
20
-3.7347243307086613
11
6.212705748031496
21
-3.7344327165354332
0
LINE
8
BLACK
6
CONTINUOUS
10
6.212705748031496
20
-3.7344327165354332
11
6.2127021653543304
21
-3.7341394488188975
0
LINE
8
BLACK
6
CONTINUOUS
10
6.2127021653543304
20
-3.7341394488188975
11
6.2127093700787404
21
-3.7341320078740154
0
LINE
8
BLACK
6
CONTINUOUS
10
6.2127093700787404
20
-3.7341320078740154
11
6.2127095275590554
21
-3.7341217322834646
0
LINE
8
BLACK
6
CONTINUOUS
10
6.2127095275590554
20
-3.7341217322834646
11
6.2129184251968503
21
-3.7339178346456694
0
LINE
8
BLACK
6
CONTINUOUS
10
6.2129184251968503
20
-3.7339178346456694
11
6.2131231102362205
21
-3.7337081496062989
0
LINE
8
BLACK
6
CONTINUOUS
10
6.2131231102362205
20
-3.7337081496062989
11
6.2131334251968502
21
-3.7337079921259844
0
LINE
8
BLACK
6
CONTINUOUS
10
6.2131334251968502
20
-3.7337079921259844
11
6.213140826771653
21
-3.7337008267716536
0
LINE
8
BLACK
6
CONTINUOUS
10
6.213140826771653
20
-3.7337008267716536
11
6.2147518503937009
21
-3.7330563779527557
0
LINE
8
BLACK
6
CONTINUOUS
10
6.2147518503937009
20
-3.7330563779527557
11
6.2117171653543304
21
-3.7321893307086613
0
LINE
8
BLACK
6
CONTINUOUS
10
6.2117171653543304
20
-3.7321893307086613
11
6.2112451574803149
21
-3.7318146456692913
0
LINE
8
BLACK
6
CONTINUOUS
10
6.2112451574803149
20
-3.7318146456692913
11
6.2111763779527553
21
-3.7312159448818898
0
LINE
8
BLACK
6
CONTINUOUS
10
6.2111763779527553
20
-3.7312159448818898
11
6.2115510629921262
21
-3.7307439370078739
0
LINE
8
BLACK
6
CONTINUOUS
10
6.2115510629921262
20
-3.7307439370078739
11
6.2121497637795278
21
-3.7306751574803148
0
LINE
8
BLACK
6
CONTINUOUS
10
6.2121497637795278
20
-3.7306751574803148
11
6.2173990944881892
21
-3.7321749212598423
  0
ENDSEC
  0
EOF
