  0
SECTION
  2
HEADER
  9
$ANGBASE
  50
0.0
  9
$ANGDIR
  70
1
  9
$MEASUREMENT
  70
0
  0
ENDSEC
  0
SECTION
  2
TABLES
  0
TABLE
  2
LTYPE
  70
4
  0
LTYPE
  5
40F
  2
CONTINUOUS
  70
0
  3
Solid line
  72
65
  73
0
  40
0.0
  0
LTYPE
  5
410
  2
DASHDOT
 70
0
  3
Dash Dot ____ _ ____ _
 72
65
 73
4
 40
2.0
 49
1.25
 49
-0.25
 49
0.25
 49
-0.25
  0
LTYPE
  5
411
  2
DASHED
 70
0
  3
Dashed __ __ __ __ __
 72
65
 73
2
 40
0.75
 49
0.5
 49
-0.25
  0
LTYPE
  5
43B
  2
DOTTED
 70
0
  3
Dotted .  .  .  .
 72
65
 73
2
 40
0.2
 49
0.0
 49
-0.2
  0
ENDTAB
  0
TABLE
  2
STYLE
  70
4
  0
STYLE
  2
KICAD
  70
0
  40
0
  41
1
  42
1
  50
0
  71
0
  3
isocp.shx
  0
STYLE
  2
KICADB
  70
0
  40
0
  41
1
  42
1
  50
0
  71
0
  3
isocp.shx
  0
STYLE
  2
KICADI
  70
0
  40
0
  41
1
  42
1
  50
15
  71
0
  3
isocp.shx
  0
STYLE
  2
KICADBI
  70
0
  40
0
  41
1
  42
1
  50
15
  71
0
  3
isocp.shx
  0
ENDTAB
  0
TABLE
  2
LAYER
  70
1
  0
LAYER
  2
BLACK
  70
0
  62
7
  6
CONTINUOUS
  0
ENDTAB
  0
ENDSEC
  0
SECTION
  2
ENTITIES
0
LINE
8
BLACK
6
CONTINUOUS
10
5.6505487795275586
20
-3.925458346456693
11
5.6536640551181101
21
-3.9272569291338582
0
LINE
8
BLACK
6
CONTINUOUS
10
5.6536640551181101
20
-3.9272569291338582
11
5.6562076377952755
21
-3.9298005118110235
0
LINE
8
BLACK
6
CONTINUOUS
10
5.6562076377952755
20
-3.9298005118110235
11
5.6580062204724406
21
-3.9329157874015745
0
LINE
8
BLACK
6
CONTINUOUS
10
5.6580062204724406
20
-3.9329157874015745
11
5.6589372440944876
21
-3.9363903937007874
0
LINE
8
BLACK
6
CONTINUOUS
10
5.6589372440944876
20
-3.9363903937007874
11
5.6589372440944876
21
-3.9399875590551181
0
LINE
8
BLACK
6
CONTINUOUS
10
5.6589372440944876
20
-3.9399875590551181
11
5.6580062204724406
21
-3.9434621653543305
0
LINE
8
BLACK
6
CONTINUOUS
10
5.6580062204724406
20
-3.9434621653543305
11
5.6562076377952755
21
-3.9465774409448819
0
LINE
8
BLACK
6
CONTINUOUS
10
5.6562076377952755
20
-3.9465774409448819
11
5.6536640551181101
21
-3.9491210236220473
0
LINE
8
BLACK
6
CONTINUOUS
10
5.6536640551181101
20
-3.9491210236220473
11
5.6505487795275586
21
-3.9509196062992125
0
LINE
8
BLACK
6
CONTINUOUS
10
5.6505487795275586
20
-3.9509196062992125
11
5.6470741732283463
21
-3.9518506299212599
0
LINE
8
BLACK
6
CONTINUOUS
10
5.6470741732283463
20
-3.9518506299212599
11
5.643477007874016
21
-3.9518506299212599
0
LINE
8
BLACK
6
CONTINUOUS
10
5.643477007874016
20
-3.9518506299212599
11
5.6400024015748027
21
-3.9509196062992125
0
LINE
8
BLACK
6
CONTINUOUS
10
5.6400024015748027
20
-3.9509196062992125
11
5.6368871259842521
21
-3.9491210236220473
0
LINE
8
BLACK
6
CONTINUOUS
10
5.6368871259842521
20
-3.9491210236220473
11
5.6343435433070868
21
-3.9465774409448819
0
LINE
8
BLACK
6
CONTINUOUS
10
5.6343435433070868
20
-3.9465774409448819
11
5.6325449606299207
21
-3.9434621653543305
0
LINE
8
BLACK
6
CONTINUOUS
10
5.6325449606299207
20
-3.9434621653543305
11
5.6316139370078737
21
-3.9399875590551181
0
LINE
8
BLACK
6
CONTINUOUS
10
5.6316139370078737
20
-3.9399875590551181
11
5.6316139370078737
21
-3.9363903937007874
0
LINE
8
BLACK
6
CONTINUOUS
10
5.6316139370078737
20
-3.9363903937007874
11
5.6325449606299207
21
-3.9329157874015745
0
LINE
8
BLACK
6
CONTINUOUS
10
5.6325449606299207
20
-3.9329157874015745
11
5.6343435433070868
21
-3.9298005118110235
0
LINE
8
BLACK
6
CONTINUOUS
10
5.6343435433070868
20
-3.9298005118110235
11
5.6368871259842521
21
-3.9272569291338582
0
LINE
8
BLACK
6
CONTINUOUS
10
5.6368871259842521
20
-3.9272569291338582
11
5.6400024015748027
21
-3.925458346456693
0
LINE
8
BLACK
6
CONTINUOUS
10
5.6400024015748027
20
-3.925458346456693
11
5.643477007874016
21
-3.9245273228346456
0
LINE
8
BLACK
6
CONTINUOUS
10
5.643477007874016
20
-3.9245273228346456
11
5.6470741732283463
21
-3.9245273228346456
0
LINE
8
BLACK
6
CONTINUOUS
10
5.6470741732283463
20
-3.9245273228346456
11
5.6505487795275586
21
-3.925458346456693
0
LINE
8
BLACK
6
CONTINUOUS
10
5.6505487795275586
20
-3.7561670078740157
11
5.6536640551181101
21
-3.7579655905511808
0
LINE
8
BLACK
6
CONTINUOUS
10
5.6536640551181101
20
-3.7579655905511808
11
5.6562076377952755
21
-3.7605091732283462
0
LINE
8
BLACK
6
CONTINUOUS
10
5.6562076377952755
20
-3.7605091732283462
11
5.6580062204724406
21
-3.7636244488188977
0
LINE
8
BLACK
6
CONTINUOUS
10
5.6580062204724406
20
-3.7636244488188977
11
5.6589372440944876
21
-3.7670990551181101
0
LINE
8
BLACK
6
CONTINUOUS
10
5.6589372440944876
20
-3.7670990551181101
11
5.6589372440944876
21
-3.7706962204724408
0
LINE
8
BLACK
6
CONTINUOUS
10
5.6589372440944876
20
-3.7706962204724408
11
5.6580062204724406
21
-3.7741708267716536
0
LINE
8
BLACK
6
CONTINUOUS
10
5.6580062204724406
20
-3.7741708267716536
11
5.6562076377952755
21
-3.7772861023622046
0
LINE
8
BLACK
6
CONTINUOUS
10
5.6562076377952755
20
-3.7772861023622046
11
5.6536640551181101
21
-3.77982968503937
0
LINE
8
BLACK
6
CONTINUOUS
10
5.6536640551181101
20
-3.77982968503937
11
5.6505487795275586
21
-3.7816282677165352
0
LINE
8
BLACK
6
CONTINUOUS
10
5.6505487795275586
20
-3.7816282677165352
11
5.6470741732283463
21
-3.7825592913385826
0
LINE
8
BLACK
6
CONTINUOUS
10
5.6470741732283463
20
-3.7825592913385826
11
5.643477007874016
21
-3.7825592913385826
0
LINE
8
BLACK
6
CONTINUOUS
10
5.643477007874016
20
-3.7825592913385826
11
5.6400024015748027
21
-3.7816282677165352
0
LINE
8
BLACK
6
CONTINUOUS
10
5.6400024015748027
20
-3.7816282677165352
11
5.6368871259842521
21
-3.77982968503937
0
LINE
8
BLACK
6
CONTINUOUS
10
5.6368871259842521
20
-3.77982968503937
11
5.6343435433070868
21
-3.7772861023622046
0
LINE
8
BLACK
6
CONTINUOUS
10
5.6343435433070868
20
-3.7772861023622046
11
5.6325449606299207
21
-3.7741708267716536
0
LINE
8
BLACK
6
CONTINUOUS
10
5.6325449606299207
20
-3.7741708267716536
11
5.6316139370078737
21
-3.7706962204724408
0
LINE
8
BLACK
6
CONTINUOUS
10
5.6316139370078737
20
-3.7706962204724408
11
5.6316139370078737
21
-3.7670990551181101
0
LINE
8
BLACK
6
CONTINUOUS
10
5.6316139370078737
20
-3.7670990551181101
11
5.6325449606299207
21
-3.7636244488188977
0
LINE
8
BLACK
6
CONTINUOUS
10
5.6325449606299207
20
-3.7636244488188977
11
5.6343435433070868
21
-3.7605091732283462
0
LINE
8
BLACK
6
CONTINUOUS
10
5.6343435433070868
20
-3.7605091732283462
11
5.6368871259842521
21
-3.7579655905511808
0
LINE
8
BLACK
6
CONTINUOUS
10
5.6368871259842521
20
-3.7579655905511808
11
5.6400024015748027
21
-3.7561670078740157
0
LINE
8
BLACK
6
CONTINUOUS
10
5.6400024015748027
20
-3.7561670078740157
11
5.643477007874016
21
-3.7552359842519683
0
LINE
8
BLACK
6
CONTINUOUS
10
5.643477007874016
20
-3.7552359842519683
11
5.6470741732283463
21
-3.7552359842519683
0
LINE
8
BLACK
6
CONTINUOUS
10
5.6470741732283463
20
-3.7552359842519683
11
5.6505487795275586
21
-3.7561670078740157
0
LINE
8
BLACK
6
CONTINUOUS
10
5.9379503543307086
20
-3.7561670078740157
11
5.9410656299212601
21
-3.7579655905511808
0
LINE
8
BLACK
6
CONTINUOUS
10
5.9410656299212601
20
-3.7579655905511808
11
5.9436092125984255
21
-3.7605091732283462
0
LINE
8
BLACK
6
CONTINUOUS
10
5.9436092125984255
20
-3.7605091732283462
11
5.9454077952755906
21
-3.7636244488188977
0
LINE
8
BLACK
6
CONTINUOUS
10
5.9454077952755906
20
-3.7636244488188977
11
5.9463388188976376
21
-3.7670990551181101
0
LINE
8
BLACK
6
CONTINUOUS
10
5.9463388188976376
20
-3.7670990551181101
11
5.9463388188976376
21
-3.7706962204724408
0
LINE
8
BLACK
6
CONTINUOUS
10
5.9463388188976376
20
-3.7706962204724408
11
5.9454077952755906
21
-3.7741708267716536
0
LINE
8
BLACK
6
CONTINUOUS
10
5.9454077952755906
20
-3.7741708267716536
11
5.9436092125984255
21
-3.7772861023622046
0
LINE
8
BLACK
6
CONTINUOUS
10
5.9436092125984255
20
-3.7772861023622046
11
5.9410656299212601
21
-3.77982968503937
0
LINE
8
BLACK
6
CONTINUOUS
10
5.9410656299212601
20
-3.77982968503937
11
5.9379503543307086
21
-3.7816282677165352
0
LINE
8
BLACK
6
CONTINUOUS
10
5.9379503543307086
20
-3.7816282677165352
11
5.9344757480314962
21
-3.7825592913385826
0
LINE
8
BLACK
6
CONTINUOUS
10
5.9344757480314962
20
-3.7825592913385826
11
5.9308785826771651
21
-3.7825592913385826
0
LINE
8
BLACK
6
CONTINUOUS
10
5.9308785826771651
20
-3.7825592913385826
11
5.9274039763779527
21
-3.7816282677165352
0
LINE
8
BLACK
6
CONTINUOUS
10
5.9274039763779527
20
-3.7816282677165352
11
5.9242887007874012
21
-3.77982968503937
0
LINE
8
BLACK
6
CONTINUOUS
10
5.9242887007874012
20
-3.77982968503937
11
5.9217451181102359
21
-3.7772861023622046
0
LINE
8
BLACK
6
CONTINUOUS
10
5.9217451181102359
20
-3.7772861023622046
11
5.9199465354330707
21
-3.7741708267716536
0
LINE
8
BLACK
6
CONTINUOUS
10
5.9199465354330707
20
-3.7741708267716536
11
5.9190155118110237
21
-3.7706962204724408
0
LINE
8
BLACK
6
CONTINUOUS
10
5.9190155118110237
20
-3.7706962204724408
11
5.9190155118110237
21
-3.7670990551181101
0
LINE
8
BLACK
6
CONTINUOUS
10
5.9190155118110237
20
-3.7670990551181101
11
5.9199465354330707
21
-3.7636244488188977
0
LINE
8
BLACK
6
CONTINUOUS
10
5.9199465354330707
20
-3.7636244488188977
11
5.9217451181102359
21
-3.7605091732283462
0
LINE
8
BLACK
6
CONTINUOUS
10
5.9217451181102359
20
-3.7605091732283462
11
5.9242887007874012
21
-3.7579655905511808
0
LINE
8
BLACK
6
CONTINUOUS
10
5.9242887007874012
20
-3.7579655905511808
11
5.9274039763779527
21
-3.7561670078740157
0
LINE
8
BLACK
6
CONTINUOUS
10
5.9274039763779527
20
-3.7561670078740157
11
5.9308785826771651
21
-3.7552359842519683
0
LINE
8
BLACK
6
CONTINUOUS
10
5.9308785826771651
20
-3.7552359842519683
11
5.9344757480314962
21
-3.7552359842519683
0
LINE
8
BLACK
6
CONTINUOUS
10
5.9344757480314962
20
-3.7552359842519683
11
5.9379503543307086
21
-3.7561670078740157
0
CIRCLE
8
BLACK
10
5.9326771653543302
20
-3.7688976377952756
40
0.0068897637795276
0
CIRCLE
8
BLACK
10
5.6452755905511811
20
-3.9381889763779525
40
0.0068897637795276
0
CIRCLE
8
BLACK
10
5.6452755905511811
20
-3.7688976377952756
40
0.0068897637795276
0
CIRCLE
8
WHITE
10
5.9326771653543302
20
-3.7688976377952756
40
0.0068897637795276
0
CIRCLE
8
WHITE
10
5.6452755905511811
20
-3.9381889763779525
40
0.0068897637795276
0
CIRCLE
8
WHITE
10
5.6452755905511811
20
-3.7688976377952756
40
0.0068897637795276
  0
ENDSEC
  0
EOF
