  0
SECTION
  2
HEADER
  9
$ANGBASE
  50
0.0
  9
$ANGDIR
  70
1
  9
$MEASUREMENT
  70
0
  0
ENDSEC
  0
SECTION
  2
TABLES
  0
TABLE
  2
LTYPE
  70
4
  0
LTYPE
  5
40F
  2
CONTINUOUS
  70
0
  3
Solid line
  72
65
  73
0
  40
0.0
  0
LTYPE
  5
410
  2
DASHDOT
 70
0
  3
Dash Dot ____ _ ____ _
 72
65
 73
4
 40
2.0
 49
1.25
 49
-0.25
 49
0.25
 49
-0.25
  0
LTYPE
  5
411
  2
DASHED
 70
0
  3
Dashed __ __ __ __ __
 72
65
 73
2
 40
0.75
 49
0.5
 49
-0.25
  0
LTYPE
  5
43B
  2
DOTTED
 70
0
  3
Dotted .  .  .  .
 72
65
 73
2
 40
0.2
 49
0.0
 49
-0.2
  0
ENDTAB
  0
TABLE
  2
STYLE
  70
4
  0
STYLE
  2
KICAD
  70
0
  40
0
  41
1
  42
1
  50
0
  71
0
  3
isocp.shx
  0
STYLE
  2
KICADB
  70
0
  40
0
  41
1
  42
1
  50
0
  71
0
  3
isocp.shx
  0
STYLE
  2
KICADI
  70
0
  40
0
  41
1
  42
1
  50
15
  71
0
  3
isocp.shx
  0
STYLE
  2
KICADBI
  70
0
  40
0
  41
1
  42
1
  50
15
  71
0
  3
isocp.shx
  0
ENDTAB
  0
TABLE
  2
LAYER
  70
1
  0
LAYER
  2
BLACK
  70
0
  62
7
  6
CONTINUOUS
  0
ENDTAB
  0
ENDSEC
  0
SECTION
  2
ENTITIES
0
LINE
8
BLACK
6
CONTINUOUS
10
5.9446850393700785
20
-4.11755905511811
11
5.9190944881889767
21
-4.11755905511811
0
LINE
8
BLACK
6
CONTINUOUS
10
5.9190944881889767
20
-4.11755905511811
11
5.9190944881889767
21
-4.075826771653543
0
LINE
8
BLACK
6
CONTINUOUS
10
5.9190944881889767
20
-4.075826771653543
11
5.9446850393700785
21
-4.075826771653543
0
LINE
8
BLACK
6
CONTINUOUS
10
5.9446850393700785
20
-4.075826771653543
11
5.9446850393700785
21
-4.11755905511811
0
LINE
8
BLACK
6
CONTINUOUS
10
6.0194881889763776
20
-4.11755905511811
11
5.9938976377952757
21
-4.11755905511811
0
LINE
8
BLACK
6
CONTINUOUS
10
5.9938976377952757
20
-4.11755905511811
11
5.9938976377952757
21
-4.075826771653543
0
LINE
8
BLACK
6
CONTINUOUS
10
5.9938976377952757
20
-4.075826771653543
11
6.0194881889763776
21
-4.075826771653543
0
LINE
8
BLACK
6
CONTINUOUS
10
6.0194881889763776
20
-4.075826771653543
11
6.0194881889763776
21
-4.11755905511811
0
LINE
8
BLACK
6
CONTINUOUS
10
6.3525575590551178
20
-4.0795925590551176
11
6.3553515748031497
21
-4.0814594488188973
0
LINE
8
BLACK
6
CONTINUOUS
10
6.3553515748031497
20
-4.0814594488188973
11
6.3572184645669294
21
-4.0842534645669293
0
LINE
8
BLACK
6
CONTINUOUS
10
6.3572184645669294
20
-4.0842534645669293
11
6.3578740157480311
21
-4.0875492125984252
0
LINE
8
BLACK
6
CONTINUOUS
10
6.3578740157480311
20
-4.0875492125984252
11
6.3578740157480311
21
-4.1077263779527557
0
LINE
8
BLACK
6
CONTINUOUS
10
6.3578740157480311
20
-4.1077263779527557
11
6.3572184645669294
21
-4.1110221259842517
0
LINE
8
BLACK
6
CONTINUOUS
10
6.3572184645669294
20
-4.1110221259842517
11
6.3553515748031497
21
-4.1138161417322836
0
LINE
8
BLACK
6
CONTINUOUS
10
6.3553515748031497
20
-4.1138161417322836
11
6.3525575590551178
21
-4.1156830314960633
0
LINE
8
BLACK
6
CONTINUOUS
10
6.3525575590551178
20
-4.1156830314960633
11
6.3492618110236219
21
-4.116338582677165
0
LINE
8
BLACK
6
CONTINUOUS
10
6.3492618110236219
20
-4.116338582677165
11
6.3320374015748033
21
-4.116338582677165
0
LINE
8
BLACK
6
CONTINUOUS
10
6.3320374015748033
20
-4.116338582677165
11
6.3287416535433065
21
-4.1156830314960633
0
LINE
8
BLACK
6
CONTINUOUS
10
6.3287416535433065
20
-4.1156830314960633
11
6.3259476377952755
21
-4.1138161417322836
0
LINE
8
BLACK
6
CONTINUOUS
10
6.3259476377952755
20
-4.1138161417322836
11
6.3240807480314958
21
-4.1110221259842517
0
LINE
8
BLACK
6
CONTINUOUS
10
6.3240807480314958
20
-4.1110221259842517
11
6.3234251968503932
21
-4.1077263779527557
0
LINE
8
BLACK
6
CONTINUOUS
10
6.3234251968503932
20
-4.1077263779527557
11
6.3234251968503932
21
-4.0875492125984252
0
LINE
8
BLACK
6
CONTINUOUS
10
6.3234251968503932
20
-4.0875492125984252
11
6.3240807480314958
21
-4.0842534645669293
0
LINE
8
BLACK
6
CONTINUOUS
10
6.3240807480314958
20
-4.0842534645669293
11
6.3259476377952755
21
-4.0814594488188973
0
LINE
8
BLACK
6
CONTINUOUS
10
6.3259476377952755
20
-4.0814594488188973
11
6.3287416535433065
21
-4.0795925590551176
0
LINE
8
BLACK
6
CONTINUOUS
10
6.3287416535433065
20
-4.0795925590551176
11
6.3320374015748033
21
-4.0789370078740159
0
LINE
8
BLACK
6
CONTINUOUS
10
6.3320374015748033
20
-4.0789370078740159
11
6.3492618110236219
21
-4.0789370078740159
0
LINE
8
BLACK
6
CONTINUOUS
10
6.3492618110236219
20
-4.0789370078740159
11
6.3525575590551178
21
-4.0795925590551176
0
LINE
8
BLACK
6
CONTINUOUS
10
6.4145654330708659
20
-4.0795925590551176
11
6.4173594488188979
21
-4.0814594488188973
0
LINE
8
BLACK
6
CONTINUOUS
10
6.4173594488188979
20
-4.0814594488188973
11
6.4192263385826767
21
-4.0842534645669293
0
LINE
8
BLACK
6
CONTINUOUS
10
6.4192263385826767
20
-4.0842534645669293
11
6.4198818897637793
21
-4.0875492125984252
0
LINE
8
BLACK
6
CONTINUOUS
10
6.4198818897637793
20
-4.0875492125984252
11
6.4198818897637793
21
-4.1077263779527557
0
LINE
8
BLACK
6
CONTINUOUS
10
6.4198818897637793
20
-4.1077263779527557
11
6.4192263385826767
21
-4.1110221259842517
0
LINE
8
BLACK
6
CONTINUOUS
10
6.4192263385826767
20
-4.1110221259842517
11
6.4173594488188979
21
-4.1138161417322836
0
LINE
8
BLACK
6
CONTINUOUS
10
6.4173594488188979
20
-4.1138161417322836
11
6.4145654330708659
21
-4.1156830314960633
0
LINE
8
BLACK
6
CONTINUOUS
10
6.4145654330708659
20
-4.1156830314960633
11
6.41126968503937
21
-4.116338582677165
0
LINE
8
BLACK
6
CONTINUOUS
10
6.41126968503937
20
-4.116338582677165
11
6.3940452755905515
21
-4.116338582677165
0
LINE
8
BLACK
6
CONTINUOUS
10
6.3940452755905515
20
-4.116338582677165
11
6.3907495275590547
21
-4.1156830314960633
0
LINE
8
BLACK
6
CONTINUOUS
10
6.3907495275590547
20
-4.1156830314960633
11
6.3879555118110236
21
-4.1138161417322836
0
LINE
8
BLACK
6
CONTINUOUS
10
6.3879555118110236
20
-4.1138161417322836
11
6.3860886220472439
21
-4.1110221259842517
0
LINE
8
BLACK
6
CONTINUOUS
10
6.3860886220472439
20
-4.1110221259842517
11
6.3854330708661413
21
-4.1077263779527557
0
LINE
8
BLACK
6
CONTINUOUS
10
6.3854330708661413
20
-4.1077263779527557
11
6.3854330708661413
21
-4.0875492125984252
0
LINE
8
BLACK
6
CONTINUOUS
10
6.3854330708661413
20
-4.0875492125984252
11
6.3860886220472439
21
-4.0842534645669293
0
LINE
8
BLACK
6
CONTINUOUS
10
6.3860886220472439
20
-4.0842534645669293
11
6.3879555118110236
21
-4.0814594488188973
0
LINE
8
BLACK
6
CONTINUOUS
10
6.3879555118110236
20
-4.0814594488188973
11
6.3907495275590547
21
-4.0795925590551176
0
LINE
8
BLACK
6
CONTINUOUS
10
6.3907495275590547
20
-4.0795925590551176
11
6.3940452755905515
21
-4.0789370078740159
0
LINE
8
BLACK
6
CONTINUOUS
10
6.3940452755905515
20
-4.0789370078740159
11
6.41126968503937
21
-4.0789370078740159
0
LINE
8
BLACK
6
CONTINUOUS
10
6.41126968503937
20
-4.0789370078740159
11
6.4145654330708659
21
-4.0795925590551176
0
LINE
8
BLACK
6
CONTINUOUS
10
6.0801953543307086
20
-4.0786476771653541
11
6.0829893700787396
21
-4.0805145669291338
0
LINE
8
BLACK
6
CONTINUOUS
10
6.0829893700787396
20
-4.0805145669291338
11
6.0848562598425193
21
-4.0833085826771649
0
LINE
8
BLACK
6
CONTINUOUS
10
6.0848562598425193
20
-4.0833085826771649
11
6.0855118110236219
21
-4.0866043307086617
0
LINE
8
BLACK
6
CONTINUOUS
10
6.0855118110236219
20
-4.0866043307086617
11
6.0855118110236219
21
-4.1067814960629923
0
LINE
8
BLACK
6
CONTINUOUS
10
6.0855118110236219
20
-4.1067814960629923
11
6.0848562598425193
21
-4.1100772440944882
0
LINE
8
BLACK
6
CONTINUOUS
10
6.0848562598425193
20
-4.1100772440944882
11
6.0829893700787396
21
-4.1128712598425192
0
LINE
8
BLACK
6
CONTINUOUS
10
6.0829893700787396
20
-4.1128712598425192
11
6.0801953543307086
21
-4.1147381496062989
0
LINE
8
BLACK
6
CONTINUOUS
10
6.0801953543307086
20
-4.1147381496062989
11
6.0768996062992127
21
-4.1153937007874015
0
LINE
8
BLACK
6
CONTINUOUS
10
6.0768996062992127
20
-4.1153937007874015
11
6.0596751968503932
21
-4.1153937007874015
0
LINE
8
BLACK
6
CONTINUOUS
10
6.0596751968503932
20
-4.1153937007874015
11
6.0563794488188973
21
-4.1147381496062989
0
LINE
8
BLACK
6
CONTINUOUS
10
6.0563794488188973
20
-4.1147381496062989
11
6.0535854330708663
21
-4.1128712598425192
0
LINE
8
BLACK
6
CONTINUOUS
10
6.0535854330708663
20
-4.1128712598425192
11
6.0517185433070866
21
-4.1100772440944882
0
LINE
8
BLACK
6
CONTINUOUS
10
6.0517185433070866
20
-4.1100772440944882
11
6.051062992125984
21
-4.1067814960629923
0
LINE
8
BLACK
6
CONTINUOUS
10
6.051062992125984
20
-4.1067814960629923
11
6.051062992125984
21
-4.0866043307086617
0
LINE
8
BLACK
6
CONTINUOUS
10
6.051062992125984
20
-4.0866043307086617
11
6.0517185433070866
21
-4.0833085826771649
0
LINE
8
BLACK
6
CONTINUOUS
10
6.0517185433070866
20
-4.0833085826771649
11
6.0535854330708663
21
-4.0805145669291338
0
LINE
8
BLACK
6
CONTINUOUS
10
6.0535854330708663
20
-4.0805145669291338
11
6.0563794488188973
21
-4.0786476771653541
0
LINE
8
BLACK
6
CONTINUOUS
10
6.0563794488188973
20
-4.0786476771653541
11
6.0596751968503932
21
-4.0779921259842515
0
LINE
8
BLACK
6
CONTINUOUS
10
6.0596751968503932
20
-4.0779921259842515
11
6.0768996062992127
21
-4.0779921259842515
0
LINE
8
BLACK
6
CONTINUOUS
10
6.0768996062992127
20
-4.0779921259842515
11
6.0801953543307086
21
-4.0786476771653541
0
LINE
8
BLACK
6
CONTINUOUS
10
6.1422032283464567
20
-4.0786476771653541
11
6.1449972440944878
21
-4.0805145669291338
0
LINE
8
BLACK
6
CONTINUOUS
10
6.1449972440944878
20
-4.0805145669291338
11
6.1468641338582675
21
-4.0833085826771649
0
LINE
8
BLACK
6
CONTINUOUS
10
6.1468641338582675
20
-4.0833085826771649
11
6.1475196850393701
21
-4.0866043307086617
0
LINE
8
BLACK
6
CONTINUOUS
10
6.1475196850393701
20
-4.0866043307086617
11
6.1475196850393701
21
-4.1067814960629923
0
LINE
8
BLACK
6
CONTINUOUS
10
6.1475196850393701
20
-4.1067814960629923
11
6.1468641338582675
21
-4.1100772440944882
0
LINE
8
BLACK
6
CONTINUOUS
10
6.1468641338582675
20
-4.1100772440944882
11
6.1449972440944878
21
-4.1128712598425192
0
LINE
8
BLACK
6
CONTINUOUS
10
6.1449972440944878
20
-4.1128712598425192
11
6.1422032283464567
21
-4.1147381496062989
0
LINE
8
BLACK
6
CONTINUOUS
10
6.1422032283464567
20
-4.1147381496062989
11
6.1389074803149608
21
-4.1153937007874015
0
LINE
8
BLACK
6
CONTINUOUS
10
6.1389074803149608
20
-4.1153937007874015
11
6.1216830708661414
21
-4.1153937007874015
0
LINE
8
BLACK
6
CONTINUOUS
10
6.1216830708661414
20
-4.1153937007874015
11
6.1183873228346455
21
-4.1147381496062989
0
LINE
8
BLACK
6
CONTINUOUS
10
6.1183873228346455
20
-4.1147381496062989
11
6.1155933070866144
21
-4.1128712598425192
0
LINE
8
BLACK
6
CONTINUOUS
10
6.1155933070866144
20
-4.1128712598425192
11
6.1137264173228347
21
-4.1100772440944882
0
LINE
8
BLACK
6
CONTINUOUS
10
6.1137264173228347
20
-4.1100772440944882
11
6.1130708661417321
21
-4.1067814960629923
0
LINE
8
BLACK
6
CONTINUOUS
10
6.1130708661417321
20
-4.1067814960629923
11
6.1130708661417321
21
-4.0866043307086617
0
LINE
8
BLACK
6
CONTINUOUS
10
6.1130708661417321
20
-4.0866043307086617
11
6.1137264173228347
21
-4.0833085826771649
0
LINE
8
BLACK
6
CONTINUOUS
10
6.1137264173228347
20
-4.0833085826771649
11
6.1155933070866144
21
-4.0805145669291338
0
LINE
8
BLACK
6
CONTINUOUS
10
6.1155933070866144
20
-4.0805145669291338
11
6.1183873228346455
21
-4.0786476771653541
0
LINE
8
BLACK
6
CONTINUOUS
10
6.1183873228346455
20
-4.0786476771653541
11
6.1216830708661414
21
-4.0779921259842515
0
LINE
8
BLACK
6
CONTINUOUS
10
6.1216830708661414
20
-4.0779921259842515
11
6.1389074803149608
21
-4.0779921259842515
0
LINE
8
BLACK
6
CONTINUOUS
10
6.1389074803149608
20
-4.0779921259842515
11
6.1422032283464567
21
-4.0786476771653541
0
LINE
8
BLACK
6
CONTINUOUS
10
6.2092519685039367
20
-4.1145669291338578
11
6.1836614173228348
21
-4.1145669291338578
0
LINE
8
BLACK
6
CONTINUOUS
10
6.1836614173228348
20
-4.1145669291338578
11
6.1836614173228348
21
-4.0728346456692917
0
LINE
8
BLACK
6
CONTINUOUS
10
6.1836614173228348
20
-4.0728346456692917
11
6.2092519685039367
21
-4.0728346456692917
0
LINE
8
BLACK
6
CONTINUOUS
10
6.2092519685039367
20
-4.0728346456692917
11
6.2092519685039367
21
-4.1145669291338578
0
LINE
8
BLACK
6
CONTINUOUS
10
6.2840551181102358
20
-4.1145669291338578
11
6.2584645669291339
21
-4.1145669291338578
0
LINE
8
BLACK
6
CONTINUOUS
10
6.2584645669291339
20
-4.1145669291338578
11
6.2584645669291339
21
-4.0728346456692917
0
LINE
8
BLACK
6
CONTINUOUS
10
6.2584645669291339
20
-4.0728346456692917
11
6.2840551181102358
21
-4.0728346456692917
0
LINE
8
BLACK
6
CONTINUOUS
10
6.2840551181102358
20
-4.0728346456692917
11
6.2840551181102358
21
-4.1145669291338578
0
LINE
8
BLACK
6
CONTINUOUS
10
6.5999999999999996
20
-4.0956692913385826
11
6.548818897637795
21
-4.0956692913385826
0
LINE
8
BLACK
6
CONTINUOUS
10
6.548818897637795
20
-4.0956692913385826
11
6.548818897637795
21
-4.028740157480315
0
LINE
8
BLACK
6
CONTINUOUS
10
6.548818897637795
20
-4.028740157480315
11
6.5999999999999996
21
-4.028740157480315
0
LINE
8
BLACK
6
CONTINUOUS
10
6.5999999999999996
20
-4.028740157480315
11
6.5999999999999996
21
-4.0956692913385826
0
LINE
8
BLACK
6
CONTINUOUS
10
6.7377952755905515
20
-4.0956692913385826
11
6.6866141732283459
21
-4.0956692913385826
0
LINE
8
BLACK
6
CONTINUOUS
10
6.6866141732283459
20
-4.0956692913385826
11
6.6866141732283459
21
-4.028740157480315
0
LINE
8
BLACK
6
CONTINUOUS
10
6.6866141732283459
20
-4.028740157480315
11
6.7377952755905515
21
-4.028740157480315
0
LINE
8
BLACK
6
CONTINUOUS
10
6.7377952755905515
20
-4.028740157480315
11
6.7377952755905515
21
-4.0956692913385826
0
LINE
8
BLACK
6
CONTINUOUS
10
6.9940027952755903
20
-4.0550799212598427
11
6.9971959448818897
21
-4.0572135039370076
0
LINE
8
BLACK
6
CONTINUOUS
10
6.9971959448818897
20
-4.0572135039370076
11
6.9993295275590546
21
-4.060406653543307
0
LINE
8
BLACK
6
CONTINUOUS
10
6.9993295275590546
20
-4.060406653543307
11
7.0000787401574804
21
-4.0641732283464567
0
LINE
8
BLACK
6
CONTINUOUS
10
7.0000787401574804
20
-4.0641732283464567
11
7.0000787401574804
21
-4.0838582677165354
0
LINE
8
BLACK
6
CONTINUOUS
10
7.0000787401574804
20
-4.0838582677165354
11
6.9993295275590546
21
-4.0876248425196851
0
LINE
8
BLACK
6
CONTINUOUS
10
6.9993295275590546
20
-4.0876248425196851
11
6.9971959448818897
21
-4.0908179921259844
0
LINE
8
BLACK
6
CONTINUOUS
10
6.9971959448818897
20
-4.0908179921259844
11
6.9940027952755903
21
-4.0929515748031493
0
LINE
8
BLACK
6
CONTINUOUS
10
6.9940027952755903
20
-4.0929515748031493
11
6.9902362204724406
21
-4.0937007874015743
0
LINE
8
BLACK
6
CONTINUOUS
10
6.9902362204724406
20
-4.0937007874015743
11
6.9036220472440943
21
-4.0937007874015743
0
LINE
8
BLACK
6
CONTINUOUS
10
6.9036220472440943
20
-4.0937007874015743
11
6.8998554724409447
21
-4.0929515748031493
0
LINE
8
BLACK
6
CONTINUOUS
10
6.8998554724409447
20
-4.0929515748031493
11
6.8966623228346453
21
-4.0908179921259844
0
LINE
8
BLACK
6
CONTINUOUS
10
6.8966623228346453
20
-4.0908179921259844
11
6.8945287401574804
21
-4.0876248425196851
0
LINE
8
BLACK
6
CONTINUOUS
10
6.8945287401574804
20
-4.0876248425196851
11
6.8937795275590545
21
-4.0838582677165354
0
LINE
8
BLACK
6
CONTINUOUS
10
6.8937795275590545
20
-4.0838582677165354
11
6.8937795275590545
21
-4.0641732283464567
0
LINE
8
BLACK
6
CONTINUOUS
10
6.8937795275590545
20
-4.0641732283464567
11
6.8945287401574804
21
-4.060406653543307
0
LINE
8
BLACK
6
CONTINUOUS
10
6.8945287401574804
20
-4.060406653543307
11
6.8966623228346453
21
-4.0572135039370076
0
LINE
8
BLACK
6
CONTINUOUS
10
6.8966623228346453
20
-4.0572135039370076
11
6.8998554724409447
21
-4.0550799212598427
0
LINE
8
BLACK
6
CONTINUOUS
10
6.8998554724409447
20
-4.0550799212598427
11
6.9036220472440943
21
-4.0543307086614169
0
LINE
8
BLACK
6
CONTINUOUS
10
6.9036220472440943
20
-4.0543307086614169
11
6.9902362204724406
21
-4.0543307086614169
0
LINE
8
BLACK
6
CONTINUOUS
10
6.9902362204724406
20
-4.0543307086614169
11
6.9940027952755903
21
-4.0550799212598427
0
LINE
8
BLACK
6
CONTINUOUS
10
6.3525575590551178
20
-4.01266342519685
11
6.3553515748031497
21
-4.0145303149606297
0
LINE
8
BLACK
6
CONTINUOUS
10
6.3553515748031497
20
-4.0145303149606297
11
6.3572184645669294
21
-4.0173243307086617
0
LINE
8
BLACK
6
CONTINUOUS
10
6.3572184645669294
20
-4.0173243307086617
11
6.3578740157480311
21
-4.0206200787401576
0
LINE
8
BLACK
6
CONTINUOUS
10
6.3578740157480311
20
-4.0206200787401576
11
6.3578740157480311
21
-4.0407972440944881
0
LINE
8
BLACK
6
CONTINUOUS
10
6.3578740157480311
20
-4.0407972440944881
11
6.3572184645669294
21
-4.0440929921259841
0
LINE
8
BLACK
6
CONTINUOUS
10
6.3572184645669294
20
-4.0440929921259841
11
6.3553515748031497
21
-4.046887007874016
0
LINE
8
BLACK
6
CONTINUOUS
10
6.3553515748031497
20
-4.046887007874016
11
6.3525575590551178
21
-4.0487538976377948
0
LINE
8
BLACK
6
CONTINUOUS
10
6.3525575590551178
20
-4.0487538976377948
11
6.3492618110236219
21
-4.0494094488188974
0
LINE
8
BLACK
6
CONTINUOUS
10
6.3492618110236219
20
-4.0494094488188974
11
6.3320374015748033
21
-4.0494094488188974
0
LINE
8
BLACK
6
CONTINUOUS
10
6.3320374015748033
20
-4.0494094488188974
11
6.3287416535433065
21
-4.0487538976377948
0
LINE
8
BLACK
6
CONTINUOUS
10
6.3287416535433065
20
-4.0487538976377948
11
6.3259476377952755
21
-4.046887007874016
0
LINE
8
BLACK
6
CONTINUOUS
10
6.3259476377952755
20
-4.046887007874016
11
6.3240807480314958
21
-4.0440929921259841
0
LINE
8
BLACK
6
CONTINUOUS
10
6.3240807480314958
20
-4.0440929921259841
11
6.3234251968503932
21
-4.0407972440944881
0
LINE
8
BLACK
6
CONTINUOUS
10
6.3234251968503932
20
-4.0407972440944881
11
6.3234251968503932
21
-4.0206200787401576
0
LINE
8
BLACK
6
CONTINUOUS
10
6.3234251968503932
20
-4.0206200787401576
11
6.3240807480314958
21
-4.0173243307086617
0
LINE
8
BLACK
6
CONTINUOUS
10
6.3240807480314958
20
-4.0173243307086617
11
6.3259476377952755
21
-4.0145303149606297
0
LINE
8
BLACK
6
CONTINUOUS
10
6.3259476377952755
20
-4.0145303149606297
11
6.3287416535433065
21
-4.01266342519685
0
LINE
8
BLACK
6
CONTINUOUS
10
6.3287416535433065
20
-4.01266342519685
11
6.3320374015748033
21
-4.0120078740157483
0
LINE
8
BLACK
6
CONTINUOUS
10
6.3320374015748033
20
-4.0120078740157483
11
6.3492618110236219
21
-4.0120078740157483
0
LINE
8
BLACK
6
CONTINUOUS
10
6.3492618110236219
20
-4.0120078740157483
11
6.3525575590551178
21
-4.01266342519685
0
LINE
8
BLACK
6
CONTINUOUS
10
6.4145654330708659
20
-4.01266342519685
11
6.4173594488188979
21
-4.0145303149606297
0
LINE
8
BLACK
6
CONTINUOUS
10
6.4173594488188979
20
-4.0145303149606297
11
6.4192263385826767
21
-4.0173243307086617
0
LINE
8
BLACK
6
CONTINUOUS
10
6.4192263385826767
20
-4.0173243307086617
11
6.4198818897637793
21
-4.0206200787401576
0
LINE
8
BLACK
6
CONTINUOUS
10
6.4198818897637793
20
-4.0206200787401576
11
6.4198818897637793
21
-4.0407972440944881
0
LINE
8
BLACK
6
CONTINUOUS
10
6.4198818897637793
20
-4.0407972440944881
11
6.4192263385826767
21
-4.0440929921259841
0
LINE
8
BLACK
6
CONTINUOUS
10
6.4192263385826767
20
-4.0440929921259841
11
6.4173594488188979
21
-4.046887007874016
0
LINE
8
BLACK
6
CONTINUOUS
10
6.4173594488188979
20
-4.046887007874016
11
6.4145654330708659
21
-4.0487538976377948
0
LINE
8
BLACK
6
CONTINUOUS
10
6.4145654330708659
20
-4.0487538976377948
11
6.41126968503937
21
-4.0494094488188974
0
LINE
8
BLACK
6
CONTINUOUS
10
6.41126968503937
20
-4.0494094488188974
11
6.3940452755905515
21
-4.0494094488188974
0
LINE
8
BLACK
6
CONTINUOUS
10
6.3940452755905515
20
-4.0494094488188974
11
6.3907495275590547
21
-4.0487538976377948
0
LINE
8
BLACK
6
CONTINUOUS
10
6.3907495275590547
20
-4.0487538976377948
11
6.3879555118110236
21
-4.046887007874016
0
LINE
8
BLACK
6
CONTINUOUS
10
6.3879555118110236
20
-4.046887007874016
11
6.3860886220472439
21
-4.0440929921259841
0
LINE
8
BLACK
6
CONTINUOUS
10
6.3860886220472439
20
-4.0440929921259841
11
6.3854330708661413
21
-4.0407972440944881
0
LINE
8
BLACK
6
CONTINUOUS
10
6.3854330708661413
20
-4.0407972440944881
11
6.3854330708661413
21
-4.0206200787401576
0
LINE
8
BLACK
6
CONTINUOUS
10
6.3854330708661413
20
-4.0206200787401576
11
6.3860886220472439
21
-4.0173243307086617
0
LINE
8
BLACK
6
CONTINUOUS
10
6.3860886220472439
20
-4.0173243307086617
11
6.3879555118110236
21
-4.0145303149606297
0
LINE
8
BLACK
6
CONTINUOUS
10
6.3879555118110236
20
-4.0145303149606297
11
6.3907495275590547
21
-4.01266342519685
0
LINE
8
BLACK
6
CONTINUOUS
10
6.3907495275590547
20
-4.01266342519685
11
6.3940452755905515
21
-4.0120078740157483
0
LINE
8
BLACK
6
CONTINUOUS
10
6.3940452755905515
20
-4.0120078740157483
11
6.41126968503937
21
-4.0120078740157483
0
LINE
8
BLACK
6
CONTINUOUS
10
6.41126968503937
20
-4.0120078740157483
11
6.4145654330708659
21
-4.01266342519685
0
LINE
8
BLACK
6
CONTINUOUS
10
5.9446850393700785
20
-4.0309448818897637
11
5.9190944881889767
21
-4.0309448818897637
0
LINE
8
BLACK
6
CONTINUOUS
10
5.9190944881889767
20
-4.0309448818897637
11
5.9190944881889767
21
-3.9892125984251967
0
LINE
8
BLACK
6
CONTINUOUS
10
5.9190944881889767
20
-3.9892125984251967
11
5.9446850393700785
21
-3.9892125984251967
0
LINE
8
BLACK
6
CONTINUOUS
10
5.9446850393700785
20
-3.9892125984251967
11
5.9446850393700785
21
-4.0309448818897637
0
LINE
8
BLACK
6
CONTINUOUS
10
5.9820866141732285
20
-4.0309448818897637
11
5.9564960629921258
21
-4.0309448818897637
0
LINE
8
BLACK
6
CONTINUOUS
10
5.9564960629921258
20
-4.0309448818897637
11
5.9564960629921258
21
-3.9892125984251967
0
LINE
8
BLACK
6
CONTINUOUS
10
5.9564960629921258
20
-3.9892125984251967
11
5.9820866141732285
21
-3.9892125984251967
0
LINE
8
BLACK
6
CONTINUOUS
10
5.9820866141732285
20
-3.9892125984251967
11
5.9820866141732285
21
-4.0309448818897637
0
LINE
8
BLACK
6
CONTINUOUS
10
6.0194881889763776
20
-4.0309448818897637
11
5.9938976377952757
21
-4.0309448818897637
0
LINE
8
BLACK
6
CONTINUOUS
10
5.9938976377952757
20
-4.0309448818897637
11
5.9938976377952757
21
-3.9892125984251967
0
LINE
8
BLACK
6
CONTINUOUS
10
5.9938976377952757
20
-3.9892125984251967
11
6.0194881889763776
21
-3.9892125984251967
0
LINE
8
BLACK
6
CONTINUOUS
10
6.0194881889763776
20
-3.9892125984251967
11
6.0194881889763776
21
-4.0309448818897637
0
LINE
8
BLACK
6
CONTINUOUS
10
6.2092519685039367
20
-4.0279527559055115
11
6.1836614173228348
21
-4.0279527559055115
0
LINE
8
BLACK
6
CONTINUOUS
10
6.1836614173228348
20
-4.0279527559055115
11
6.1836614173228348
21
-3.9862204724409449
0
LINE
8
BLACK
6
CONTINUOUS
10
6.1836614173228348
20
-3.9862204724409449
11
6.2092519685039367
21
-3.9862204724409449
0
LINE
8
BLACK
6
CONTINUOUS
10
6.2092519685039367
20
-3.9862204724409449
11
6.2092519685039367
21
-4.0279527559055115
0
LINE
8
BLACK
6
CONTINUOUS
10
6.2466535433070867
20
-4.0279527559055115
11
6.2210629921259839
21
-4.0279527559055115
0
LINE
8
BLACK
6
CONTINUOUS
10
6.2210629921259839
20
-4.0279527559055115
11
6.2210629921259839
21
-3.9862204724409449
0
LINE
8
BLACK
6
CONTINUOUS
10
6.2210629921259839
20
-3.9862204724409449
11
6.2466535433070867
21
-3.9862204724409449
0
LINE
8
BLACK
6
CONTINUOUS
10
6.2466535433070867
20
-3.9862204724409449
11
6.2466535433070867
21
-4.0279527559055115
0
LINE
8
BLACK
6
CONTINUOUS
10
6.2840551181102358
20
-4.0279527559055115
11
6.2584645669291339
21
-4.0279527559055115
0
LINE
8
BLACK
6
CONTINUOUS
10
6.2584645669291339
20
-4.0279527559055115
11
6.2584645669291339
21
-3.9862204724409449
0
LINE
8
BLACK
6
CONTINUOUS
10
6.2584645669291339
20
-3.9862204724409449
11
6.2840551181102358
21
-3.9862204724409449
0
LINE
8
BLACK
6
CONTINUOUS
10
6.2840551181102358
20
-3.9862204724409449
11
6.2840551181102358
21
-4.0279527559055115
0
LINE
8
BLACK
6
CONTINUOUS
10
6.0801953543307086
20
-3.9886476771653543
11
6.0829893700787396
21
-3.990514566929134
0
LINE
8
BLACK
6
CONTINUOUS
10
6.0829893700787396
20
-3.990514566929134
11
6.0848562598425193
21
-3.993308582677165
0
LINE
8
BLACK
6
CONTINUOUS
10
6.0848562598425193
20
-3.993308582677165
11
6.0855118110236219
21
-3.9966043307086614
0
LINE
8
BLACK
6
CONTINUOUS
10
6.0855118110236219
20
-3.9966043307086614
11
6.0855118110236219
21
-4.0167814960629924
0
LINE
8
BLACK
6
CONTINUOUS
10
6.0855118110236219
20
-4.0167814960629924
11
6.0848562598425193
21
-4.0200772440944883
0
LINE
8
BLACK
6
CONTINUOUS
10
6.0848562598425193
20
-4.0200772440944883
11
6.0829893700787396
21
-4.0228712598425194
0
LINE
8
BLACK
6
CONTINUOUS
10
6.0829893700787396
20
-4.0228712598425194
11
6.0801953543307086
21
-4.0247381496062991
0
LINE
8
BLACK
6
CONTINUOUS
10
6.0801953543307086
20
-4.0247381496062991
11
6.0768996062992127
21
-4.0253937007874017
0
LINE
8
BLACK
6
CONTINUOUS
10
6.0768996062992127
20
-4.0253937007874017
11
6.0596751968503932
21
-4.0253937007874017
0
LINE
8
BLACK
6
CONTINUOUS
10
6.0596751968503932
20
-4.0253937007874017
11
6.0563794488188973
21
-4.0247381496062991
0
LINE
8
BLACK
6
CONTINUOUS
10
6.0563794488188973
20
-4.0247381496062991
11
6.0535854330708663
21
-4.0228712598425194
0
LINE
8
BLACK
6
CONTINUOUS
10
6.0535854330708663
20
-4.0228712598425194
11
6.0517185433070866
21
-4.0200772440944883
0
LINE
8
BLACK
6
CONTINUOUS
10
6.0517185433070866
20
-4.0200772440944883
11
6.051062992125984
21
-4.0167814960629924
0
LINE
8
BLACK
6
CONTINUOUS
10
6.051062992125984
20
-4.0167814960629924
11
6.051062992125984
21
-3.9966043307086614
0
LINE
8
BLACK
6
CONTINUOUS
10
6.051062992125984
20
-3.9966043307086614
11
6.0517185433070866
21
-3.993308582677165
0
LINE
8
BLACK
6
CONTINUOUS
10
6.0517185433070866
20
-3.993308582677165
11
6.0535854330708663
21
-3.990514566929134
0
LINE
8
BLACK
6
CONTINUOUS
10
6.0535854330708663
20
-3.990514566929134
11
6.0563794488188973
21
-3.9886476771653543
0
LINE
8
BLACK
6
CONTINUOUS
10
6.0563794488188973
20
-3.9886476771653543
11
6.0596751968503932
21
-3.9879921259842517
0
LINE
8
BLACK
6
CONTINUOUS
10
6.0596751968503932
20
-3.9879921259842517
11
6.0768996062992127
21
-3.9879921259842517
0
LINE
8
BLACK
6
CONTINUOUS
10
6.0768996062992127
20
-3.9879921259842517
11
6.0801953543307086
21
-3.9886476771653543
0
LINE
8
BLACK
6
CONTINUOUS
10
6.1422032283464567
20
-3.9886476771653543
11
6.1449972440944878
21
-3.990514566929134
0
LINE
8
BLACK
6
CONTINUOUS
10
6.1449972440944878
20
-3.990514566929134
11
6.1468641338582675
21
-3.993308582677165
0
LINE
8
BLACK
6
CONTINUOUS
10
6.1468641338582675
20
-3.993308582677165
11
6.1475196850393701
21
-3.9966043307086614
0
LINE
8
BLACK
6
CONTINUOUS
10
6.1475196850393701
20
-3.9966043307086614
11
6.1475196850393701
21
-4.0167814960629924
0
LINE
8
BLACK
6
CONTINUOUS
10
6.1475196850393701
20
-4.0167814960629924
11
6.1468641338582675
21
-4.0200772440944883
0
LINE
8
BLACK
6
CONTINUOUS
10
6.1468641338582675
20
-4.0200772440944883
11
6.1449972440944878
21
-4.0228712598425194
0
LINE
8
BLACK
6
CONTINUOUS
10
6.1449972440944878
20
-4.0228712598425194
11
6.1422032283464567
21
-4.0247381496062991
0
LINE
8
BLACK
6
CONTINUOUS
10
6.1422032283464567
20
-4.0247381496062991
11
6.1389074803149608
21
-4.0253937007874017
0
LINE
8
BLACK
6
CONTINUOUS
10
6.1389074803149608
20
-4.0253937007874017
11
6.1216830708661414
21
-4.0253937007874017
0
LINE
8
BLACK
6
CONTINUOUS
10
6.1216830708661414
20
-4.0253937007874017
11
6.1183873228346455
21
-4.0247381496062991
0
LINE
8
BLACK
6
CONTINUOUS
10
6.1183873228346455
20
-4.0247381496062991
11
6.1155933070866144
21
-4.0228712598425194
0
LINE
8
BLACK
6
CONTINUOUS
10
6.1155933070866144
20
-4.0228712598425194
11
6.1137264173228347
21
-4.0200772440944883
0
LINE
8
BLACK
6
CONTINUOUS
10
6.1137264173228347
20
-4.0200772440944883
11
6.1130708661417321
21
-4.0167814960629924
0
LINE
8
BLACK
6
CONTINUOUS
10
6.1130708661417321
20
-4.0167814960629924
11
6.1130708661417321
21
-3.9966043307086614
0
LINE
8
BLACK
6
CONTINUOUS
10
6.1130708661417321
20
-3.9966043307086614
11
6.1137264173228347
21
-3.993308582677165
0
LINE
8
BLACK
6
CONTINUOUS
10
6.1137264173228347
20
-3.993308582677165
11
6.1155933070866144
21
-3.990514566929134
0
LINE
8
BLACK
6
CONTINUOUS
10
6.1155933070866144
20
-3.990514566929134
11
6.1183873228346455
21
-3.9886476771653543
0
LINE
8
BLACK
6
CONTINUOUS
10
6.1183873228346455
20
-3.9886476771653543
11
6.1216830708661414
21
-3.9879921259842517
0
LINE
8
BLACK
6
CONTINUOUS
10
6.1216830708661414
20
-3.9879921259842517
11
6.1389074803149608
21
-3.9879921259842517
0
LINE
8
BLACK
6
CONTINUOUS
10
6.1389074803149608
20
-3.9879921259842517
11
6.1422032283464567
21
-3.9886476771653543
0
LINE
8
BLACK
6
CONTINUOUS
10
6.8507638976377949
20
-3.9898196062992124
11
6.8526797637795278
21
-3.9910997637795274
0
LINE
8
BLACK
6
CONTINUOUS
10
6.8526797637795278
20
-3.9910997637795274
11
6.8539599212598423
21
-3.9930156299212598
0
LINE
8
BLACK
6
CONTINUOUS
10
6.8539599212598423
20
-3.9930156299212598
11
6.8544094488188971
21
-3.9952755905511812
0
LINE
8
BLACK
6
CONTINUOUS
10
6.8544094488188971
20
-3.9952755905511812
11
6.8544094488188971
21
-4.007086614173228
0
LINE
8
BLACK
6
CONTINUOUS
10
6.8544094488188971
20
-4.007086614173228
11
6.8539599212598423
21
-4.0093465748031498
0
LINE
8
BLACK
6
CONTINUOUS
10
6.8539599212598423
20
-4.0093465748031498
11
6.8526797637795278
21
-4.0112624409448818
0
LINE
8
BLACK
6
CONTINUOUS
10
6.8526797637795278
20
-4.0112624409448818
11
6.8507638976377949
21
-4.0125425984251963
0
LINE
8
BLACK
6
CONTINUOUS
10
6.8507638976377949
20
-4.0125425984251963
11
6.848503937007874
21
-4.012992125984252
0
LINE
8
BLACK
6
CONTINUOUS
10
6.848503937007874
20
-4.012992125984252
11
6.7933858267716536
21
-4.012992125984252
0
LINE
8
BLACK
6
CONTINUOUS
10
6.7933858267716536
20
-4.012992125984252
11
6.7911258661417317
21
-4.0125425984251963
0
LINE
8
BLACK
6
CONTINUOUS
10
6.7911258661417317
20
-4.0125425984251963
11
6.7892099999999997
21
-4.0112624409448818
0
LINE
8
BLACK
6
CONTINUOUS
10
6.7892099999999997
20
-4.0112624409448818
11
6.7879298425196852
21
-4.0093465748031498
0
LINE
8
BLACK
6
CONTINUOUS
10
6.7879298425196852
20
-4.0093465748031498
11
6.7874803149606295
21
-4.007086614173228
0
LINE
8
BLACK
6
CONTINUOUS
10
6.7874803149606295
20
-4.007086614173228
11
6.7874803149606295
21
-3.9952755905511812
0
LINE
8
BLACK
6
CONTINUOUS
10
6.7874803149606295
20
-3.9952755905511812
11
6.7879298425196852
21
-3.9930156299212598
0
LINE
8
BLACK
6
CONTINUOUS
10
6.7879298425196852
20
-3.9930156299212598
11
6.7892099999999997
21
-3.9910997637795274
0
LINE
8
BLACK
6
CONTINUOUS
10
6.7892099999999997
20
-3.9910997637795274
11
6.7911258661417317
21
-3.9898196062992124
0
LINE
8
BLACK
6
CONTINUOUS
10
6.7911258661417317
20
-3.9898196062992124
11
6.7933858267716536
21
-3.9893700787401576
0
LINE
8
BLACK
6
CONTINUOUS
10
6.7933858267716536
20
-3.9893700787401576
11
6.848503937007874
21
-3.9893700787401576
0
LINE
8
BLACK
6
CONTINUOUS
10
6.848503937007874
20
-3.9893700787401576
11
6.8507638976377949
21
-3.9898196062992124
0
LINE
8
BLACK
6
CONTINUOUS
10
6.6351181102362204
20
-4.0109645669291334
11
6.6001181102362203
21
-4.0109645669291334
0
LINE
8
BLACK
6
CONTINUOUS
10
6.6001181102362203
20
-4.0109645669291334
11
6.6001181102362203
21
-3.9559645669291337
0
LINE
8
BLACK
6
CONTINUOUS
10
6.6001181102362203
20
-3.9559645669291337
11
6.6351181102362204
21
-3.9559645669291337
0
LINE
8
BLACK
6
CONTINUOUS
10
6.6351181102362204
20
-3.9559645669291337
11
6.6351181102362204
21
-4.0109645669291334
0
LINE
8
BLACK
6
CONTINUOUS
10
6.7101181102362206
20
-4.0109645669291334
11
6.6751181102362205
21
-4.0109645669291334
0
LINE
8
BLACK
6
CONTINUOUS
10
6.6751181102362205
20
-4.0109645669291334
11
6.6751181102362205
21
-3.9559645669291337
0
LINE
8
BLACK
6
CONTINUOUS
10
6.6751181102362205
20
-3.9559645669291337
11
6.7101181102362206
21
-3.9559645669291337
0
LINE
8
BLACK
6
CONTINUOUS
10
6.7101181102362206
20
-3.9559645669291337
11
6.7101181102362206
21
-4.0109645669291334
0
LINE
8
BLACK
6
CONTINUOUS
10
6.4746048031496057
20
-3.9654193307086611
11
6.4773988188976377
21
-3.9672862204724408
0
LINE
8
BLACK
6
CONTINUOUS
10
6.4773988188976377
20
-3.9672862204724408
11
6.4792657086614174
21
-3.9700802362204723
0
LINE
8
BLACK
6
CONTINUOUS
10
6.4792657086614174
20
-3.9700802362204723
11
6.4799212598425191
21
-3.9733759842519683
0
LINE
8
BLACK
6
CONTINUOUS
10
6.4799212598425191
20
-3.9733759842519683
11
6.4799212598425191
21
-3.9935531496062993
0
LINE
8
BLACK
6
CONTINUOUS
10
6.4799212598425191
20
-3.9935531496062993
11
6.4792657086614174
21
-3.9968488976377952
0
LINE
8
BLACK
6
CONTINUOUS
10
6.4792657086614174
20
-3.9968488976377952
11
6.4773988188976377
21
-3.9996429133858267
0
LINE
8
BLACK
6
CONTINUOUS
10
6.4773988188976377
20
-3.9996429133858267
11
6.4746048031496057
21
-4.0015098031496059
0
LINE
8
BLACK
6
CONTINUOUS
10
6.4746048031496057
20
-4.0015098031496059
11
6.4713090551181098
21
-4.0021653543307085
0
LINE
8
BLACK
6
CONTINUOUS
10
6.4713090551181098
20
-4.0021653543307085
11
6.4540846456692913
21
-4.0021653543307085
0
LINE
8
BLACK
6
CONTINUOUS
10
6.4540846456692913
20
-4.0021653543307085
11
6.4507888976377954
21
-4.0015098031496059
0
LINE
8
BLACK
6
CONTINUOUS
10
6.4507888976377954
20
-4.0015098031496059
11
6.4479948818897634
21
-3.9996429133858267
0
LINE
8
BLACK
6
CONTINUOUS
10
6.4479948818897634
20
-3.9996429133858267
11
6.4461279921259838
21
-3.9968488976377952
0
LINE
8
BLACK
6
CONTINUOUS
10
6.4461279921259838
20
-3.9968488976377952
11
6.445472440944882
21
-3.9935531496062993
0
LINE
8
BLACK
6
CONTINUOUS
10
6.445472440944882
20
-3.9935531496062993
11
6.445472440944882
21
-3.9733759842519683
0
LINE
8
BLACK
6
CONTINUOUS
10
6.445472440944882
20
-3.9733759842519683
11
6.4461279921259838
21
-3.9700802362204723
0
LINE
8
BLACK
6
CONTINUOUS
10
6.4461279921259838
20
-3.9700802362204723
11
6.4479948818897634
21
-3.9672862204724408
0
LINE
8
BLACK
6
CONTINUOUS
10
6.4479948818897634
20
-3.9672862204724408
11
6.4507888976377954
21
-3.9654193307086611
0
LINE
8
BLACK
6
CONTINUOUS
10
6.4507888976377954
20
-3.9654193307086611
11
6.4540846456692913
21
-3.964763779527559
0
LINE
8
BLACK
6
CONTINUOUS
10
6.4540846456692913
20
-3.964763779527559
11
6.4713090551181098
21
-3.964763779527559
0
LINE
8
BLACK
6
CONTINUOUS
10
6.4713090551181098
20
-3.964763779527559
11
6.4746048031496057
21
-3.9654193307086611
0
LINE
8
BLACK
6
CONTINUOUS
10
6.5366126771653539
20
-3.9654193307086611
11
6.5394066929133858
21
-3.9672862204724408
0
LINE
8
BLACK
6
CONTINUOUS
10
6.5394066929133858
20
-3.9672862204724408
11
6.5412735826771655
21
-3.9700802362204723
0
LINE
8
BLACK
6
CONTINUOUS
10
6.5412735826771655
20
-3.9700802362204723
11
6.5419291338582672
21
-3.9733759842519683
0
LINE
8
BLACK
6
CONTINUOUS
10
6.5419291338582672
20
-3.9733759842519683
11
6.5419291338582672
21
-3.9935531496062993
0
LINE
8
BLACK
6
CONTINUOUS
10
6.5419291338582672
20
-3.9935531496062993
11
6.5412735826771655
21
-3.9968488976377952
0
LINE
8
BLACK
6
CONTINUOUS
10
6.5412735826771655
20
-3.9968488976377952
11
6.5394066929133858
21
-3.9996429133858267
0
LINE
8
BLACK
6
CONTINUOUS
10
6.5394066929133858
20
-3.9996429133858267
11
6.5366126771653539
21
-4.0015098031496059
0
LINE
8
BLACK
6
CONTINUOUS
10
6.5366126771653539
20
-4.0015098031496059
11
6.533316929133858
21
-4.0021653543307085
0
LINE
8
BLACK
6
CONTINUOUS
10
6.533316929133858
20
-4.0021653543307085
11
6.5160925196850394
21
-4.0021653543307085
0
LINE
8
BLACK
6
CONTINUOUS
10
6.5160925196850394
20
-4.0021653543307085
11
6.5127967716535435
21
-4.0015098031496059
0
LINE
8
BLACK
6
CONTINUOUS
10
6.5127967716535435
20
-4.0015098031496059
11
6.5100027559055116
21
-3.9996429133858267
0
LINE
8
BLACK
6
CONTINUOUS
10
6.5100027559055116
20
-3.9996429133858267
11
6.5081358661417319
21
-3.9968488976377952
0
LINE
8
BLACK
6
CONTINUOUS
10
6.5081358661417319
20
-3.9968488976377952
11
6.5074803149606302
21
-3.9935531496062993
0
LINE
8
BLACK
6
CONTINUOUS
10
6.5074803149606302
20
-3.9935531496062993
11
6.5074803149606302
21
-3.9733759842519683
0
LINE
8
BLACK
6
CONTINUOUS
10
6.5074803149606302
20
-3.9733759842519683
11
6.5081358661417319
21
-3.9700802362204723
0
LINE
8
BLACK
6
CONTINUOUS
10
6.5081358661417319
20
-3.9700802362204723
11
6.5100027559055116
21
-3.9672862204724408
0
LINE
8
BLACK
6
CONTINUOUS
10
6.5100027559055116
20
-3.9672862204724408
11
6.5127967716535435
21
-3.9654193307086611
0
LINE
8
BLACK
6
CONTINUOUS
10
6.5127967716535435
20
-3.9654193307086611
11
6.5160925196850394
21
-3.964763779527559
0
LINE
8
BLACK
6
CONTINUOUS
10
6.5160925196850394
20
-3.964763779527559
11
6.533316929133858
21
-3.964763779527559
0
LINE
8
BLACK
6
CONTINUOUS
10
6.533316929133858
20
-3.964763779527559
11
6.5366126771653539
21
-3.9654193307086611
0
LINE
8
BLACK
6
CONTINUOUS
10
5.7200787401574802
20
-3.9992125984251969
11
5.7003937007874015
21
-3.9992125984251969
0
LINE
8
BLACK
6
CONTINUOUS
10
5.7003937007874015
20
-3.9992125984251969
11
5.7003937007874015
21
-3.9204724409448817
0
LINE
8
BLACK
6
CONTINUOUS
10
5.7003937007874015
20
-3.9204724409448817
11
5.7200787401574802
21
-3.9204724409448817
0
LINE
8
BLACK
6
CONTINUOUS
10
5.7200787401574802
20
-3.9204724409448817
11
5.7200787401574802
21
-3.9992125984251969
0
LINE
8
BLACK
6
CONTINUOUS
10
5.7594488188976376
20
-3.9992125984251969
11
5.7397637795275589
21
-3.9992125984251969
0
LINE
8
BLACK
6
CONTINUOUS
10
5.7397637795275589
20
-3.9992125984251969
11
5.7397637795275589
21
-3.9204724409448817
0
LINE
8
BLACK
6
CONTINUOUS
10
5.7397637795275589
20
-3.9204724409448817
11
5.7594488188976376
21
-3.9204724409448817
0
LINE
8
BLACK
6
CONTINUOUS
10
5.7594488188976376
20
-3.9204724409448817
11
5.7594488188976376
21
-3.9992125984251969
0
LINE
8
BLACK
6
CONTINUOUS
10
5.798818897637795
20
-3.9992125984251969
11
5.7791338582677163
21
-3.9992125984251969
0
LINE
8
BLACK
6
CONTINUOUS
10
5.7791338582677163
20
-3.9992125984251969
11
5.7791338582677163
21
-3.9204724409448817
0
LINE
8
BLACK
6
CONTINUOUS
10
5.7791338582677163
20
-3.9204724409448817
11
5.798818897637795
21
-3.9204724409448817
0
LINE
8
BLACK
6
CONTINUOUS
10
5.798818897637795
20
-3.9204724409448817
11
5.798818897637795
21
-3.9992125984251969
0
LINE
8
BLACK
6
CONTINUOUS
10
5.8381889763779524
20
-3.9992125984251969
11
5.8185039370078737
21
-3.9992125984251969
0
LINE
8
BLACK
6
CONTINUOUS
10
5.8185039370078737
20
-3.9992125984251969
11
5.8185039370078737
21
-3.9204724409448817
0
LINE
8
BLACK
6
CONTINUOUS
10
5.8185039370078737
20
-3.9204724409448817
11
5.8381889763779524
21
-3.9204724409448817
0
LINE
8
BLACK
6
CONTINUOUS
10
5.8381889763779524
20
-3.9204724409448817
11
5.8381889763779524
21
-3.9992125984251969
0
LINE
8
BLACK
6
CONTINUOUS
10
5.8775590551181098
20
-3.9992125984251969
11
5.8578740157480311
21
-3.9992125984251969
0
LINE
8
BLACK
6
CONTINUOUS
10
5.8578740157480311
20
-3.9992125984251969
11
5.8578740157480311
21
-3.9204724409448817
0
LINE
8
BLACK
6
CONTINUOUS
10
5.8578740157480311
20
-3.9204724409448817
11
5.8775590551181098
21
-3.9204724409448817
0
LINE
8
BLACK
6
CONTINUOUS
10
5.8775590551181098
20
-3.9204724409448817
11
5.8775590551181098
21
-3.9992125984251969
0
LINE
8
BLACK
6
CONTINUOUS
10
6.8507638976377949
20
-3.9406070078740156
11
6.8526797637795278
21
-3.9418871653543306
0
LINE
8
BLACK
6
CONTINUOUS
10
6.8526797637795278
20
-3.9418871653543306
11
6.8539599212598423
21
-3.943803031496063
0
LINE
8
BLACK
6
CONTINUOUS
10
6.8539599212598423
20
-3.943803031496063
11
6.8544094488188971
21
-3.946062992125984
0
LINE
8
BLACK
6
CONTINUOUS
10
6.8544094488188971
20
-3.946062992125984
11
6.8544094488188971
21
-3.9578740157480312
0
LINE
8
BLACK
6
CONTINUOUS
10
6.8544094488188971
20
-3.9578740157480312
11
6.8539599212598423
21
-3.9601339763779526
0
LINE
8
BLACK
6
CONTINUOUS
10
6.8539599212598423
20
-3.9601339763779526
11
6.8526797637795278
21
-3.9620498425196851
0
LINE
8
BLACK
6
CONTINUOUS
10
6.8526797637795278
20
-3.9620498425196851
11
6.8507638976377949
21
-3.96333
0
LINE
8
BLACK
6
CONTINUOUS
10
6.8507638976377949
20
-3.96333
11
6.848503937007874
21
-3.9637795275590548
0
LINE
8
BLACK
6
CONTINUOUS
10
6.848503937007874
20
-3.9637795275590548
11
6.7933858267716536
21
-3.9637795275590548
0
LINE
8
BLACK
6
CONTINUOUS
10
6.7933858267716536
20
-3.9637795275590548
11
6.7911258661417317
21
-3.96333
0
LINE
8
BLACK
6
CONTINUOUS
10
6.7911258661417317
20
-3.96333
11
6.7892099999999997
21
-3.9620498425196851
0
LINE
8
BLACK
6
CONTINUOUS
10
6.7892099999999997
20
-3.9620498425196851
11
6.7879298425196852
21
-3.9601339763779526
0
LINE
8
BLACK
6
CONTINUOUS
10
6.7879298425196852
20
-3.9601339763779526
11
6.7874803149606295
21
-3.9578740157480312
0
LINE
8
BLACK
6
CONTINUOUS
10
6.7874803149606295
20
-3.9578740157480312
11
6.7874803149606295
21
-3.946062992125984
0
LINE
8
BLACK
6
CONTINUOUS
10
6.7874803149606295
20
-3.946062992125984
11
6.7879298425196852
21
-3.943803031496063
0
LINE
8
BLACK
6
CONTINUOUS
10
6.7879298425196852
20
-3.943803031496063
11
6.7892099999999997
21
-3.9418871653543306
0
LINE
8
BLACK
6
CONTINUOUS
10
6.7892099999999997
20
-3.9418871653543306
11
6.7911258661417317
21
-3.9406070078740156
0
LINE
8
BLACK
6
CONTINUOUS
10
6.7911258661417317
20
-3.9406070078740156
11
6.7933858267716536
21
-3.9401574803149604
0
LINE
8
BLACK
6
CONTINUOUS
10
6.7933858267716536
20
-3.9401574803149604
11
6.848503937007874
21
-3.9401574803149604
0
LINE
8
BLACK
6
CONTINUOUS
10
6.848503937007874
20
-3.9401574803149604
11
6.8507638976377949
21
-3.9406070078740156
0
LINE
8
BLACK
6
CONTINUOUS
10
6.0233252755905511
20
-3.9152224803149607
11
6.0261192913385822
21
-3.9170893700787399
0
LINE
8
BLACK
6
CONTINUOUS
10
6.0261192913385822
20
-3.9170893700787399
11
6.0279861811023618
21
-3.9198833858267714
0
LINE
8
BLACK
6
CONTINUOUS
10
6.0279861811023618
20
-3.9198833858267714
11
6.0286417322834644
21
-3.9231791338582678
0
LINE
8
BLACK
6
CONTINUOUS
10
6.0286417322834644
20
-3.9231791338582678
11
6.0286417322834644
21
-3.9404035433070863
0
LINE
8
BLACK
6
CONTINUOUS
10
6.0286417322834644
20
-3.9404035433070863
11
6.0279861811023618
21
-3.9436992913385827
0
LINE
8
BLACK
6
CONTINUOUS
10
6.0279861811023618
20
-3.9436992913385827
11
6.0261192913385822
21
-3.9464933070866142
0
LINE
8
BLACK
6
CONTINUOUS
10
6.0261192913385822
20
-3.9464933070866142
11
6.0233252755905511
21
-3.9483601968503934
0
LINE
8
BLACK
6
CONTINUOUS
10
6.0233252755905511
20
-3.9483601968503934
11
6.0200295275590552
21
-3.949015748031496
0
LINE
8
BLACK
6
CONTINUOUS
10
6.0200295275590552
20
-3.949015748031496
11
5.9998523622047246
21
-3.949015748031496
0
LINE
8
BLACK
6
CONTINUOUS
10
5.9998523622047246
20
-3.949015748031496
11
5.9965566141732278
21
-3.9483601968503934
0
LINE
8
BLACK
6
CONTINUOUS
10
5.9965566141732278
20
-3.9483601968503934
11
5.9937625984251968
21
-3.9464933070866142
0
LINE
8
BLACK
6
CONTINUOUS
10
5.9937625984251968
20
-3.9464933070866142
11
5.9918957086614171
21
-3.9436992913385827
0
LINE
8
BLACK
6
CONTINUOUS
10
5.9918957086614171
20
-3.9436992913385827
11
5.9912401574803145
21
-3.9404035433070863
0
LINE
8
BLACK
6
CONTINUOUS
10
5.9912401574803145
20
-3.9404035433070863
11
5.9912401574803145
21
-3.9231791338582678
0
LINE
8
BLACK
6
CONTINUOUS
10
5.9912401574803145
20
-3.9231791338582678
11
5.9918957086614171
21
-3.9198833858267714
0
LINE
8
BLACK
6
CONTINUOUS
10
5.9918957086614171
20
-3.9198833858267714
11
5.9937625984251968
21
-3.9170893700787399
0
LINE
8
BLACK
6
CONTINUOUS
10
5.9937625984251968
20
-3.9170893700787399
11
5.9965566141732278
21
-3.9152224803149607
0
LINE
8
BLACK
6
CONTINUOUS
10
5.9965566141732278
20
-3.9152224803149607
11
5.9998523622047246
21
-3.9145669291338581
0
LINE
8
BLACK
6
CONTINUOUS
10
5.9998523622047246
20
-3.9145669291338581
11
6.0200295275590552
21
-3.9145669291338581
0
LINE
8
BLACK
6
CONTINUOUS
10
6.0200295275590552
20
-3.9145669291338581
11
6.0233252755905511
21
-3.9152224803149607
0
LINE
8
BLACK
6
CONTINUOUS
10
6.0941914173228344
20
-3.9152224803149607
11
6.0969854330708664
21
-3.9170893700787399
0
LINE
8
BLACK
6
CONTINUOUS
10
6.0969854330708664
20
-3.9170893700787399
11
6.0988523228346452
21
-3.9198833858267714
0
LINE
8
BLACK
6
CONTINUOUS
10
6.0988523228346452
20
-3.9198833858267714
11
6.0995078740157478
21
-3.9231791338582678
0
LINE
8
BLACK
6
CONTINUOUS
10
6.0995078740157478
20
-3.9231791338582678
11
6.0995078740157478
21
-3.9404035433070863
0
LINE
8
BLACK
6
CONTINUOUS
10
6.0995078740157478
20
-3.9404035433070863
11
6.0988523228346452
21
-3.9436992913385827
0
LINE
8
BLACK
6
CONTINUOUS
10
6.0988523228346452
20
-3.9436992913385827
11
6.0969854330708664
21
-3.9464933070866142
0
LINE
8
BLACK
6
CONTINUOUS
10
6.0969854330708664
20
-3.9464933070866142
11
6.0941914173228344
21
-3.9483601968503934
0
LINE
8
BLACK
6
CONTINUOUS
10
6.0941914173228344
20
-3.9483601968503934
11
6.0908956692913385
21
-3.949015748031496
0
LINE
8
BLACK
6
CONTINUOUS
10
6.0908956692913385
20
-3.949015748031496
11
6.070718503937008
21
-3.949015748031496
0
LINE
8
BLACK
6
CONTINUOUS
10
6.070718503937008
20
-3.949015748031496
11
6.0674227559055121
21
-3.9483601968503934
0
LINE
8
BLACK
6
CONTINUOUS
10
6.0674227559055121
20
-3.9483601968503934
11
6.0646287401574801
21
-3.9464933070866142
0
LINE
8
BLACK
6
CONTINUOUS
10
6.0646287401574801
20
-3.9464933070866142
11
6.0627618503937004
21
-3.9436992913385827
0
LINE
8
BLACK
6
CONTINUOUS
10
6.0627618503937004
20
-3.9436992913385827
11
6.0621062992125987
21
-3.9404035433070863
0
LINE
8
BLACK
6
CONTINUOUS
10
6.0621062992125987
20
-3.9404035433070863
11
6.0621062992125987
21
-3.9231791338582678
0
LINE
8
BLACK
6
CONTINUOUS
10
6.0621062992125987
20
-3.9231791338582678
11
6.0627618503937004
21
-3.9198833858267714
0
LINE
8
BLACK
6
CONTINUOUS
10
6.0627618503937004
20
-3.9198833858267714
11
6.0646287401574801
21
-3.9170893700787399
0
LINE
8
BLACK
6
CONTINUOUS
10
6.0646287401574801
20
-3.9170893700787399
11
6.0674227559055121
21
-3.9152224803149607
0
LINE
8
BLACK
6
CONTINUOUS
10
6.0674227559055121
20
-3.9152224803149607
11
6.070718503937008
21
-3.9145669291338581
0
LINE
8
BLACK
6
CONTINUOUS
10
6.070718503937008
20
-3.9145669291338581
11
6.0908956692913385
21
-3.9145669291338581
0
LINE
8
BLACK
6
CONTINUOUS
10
6.0908956692913385
20
-3.9145669291338581
11
6.0941914173228344
21
-3.9152224803149607
0
LINE
8
BLACK
6
CONTINUOUS
10
6.49011811023622
20
-3.9248818897637796
11
6.4330314960629922
21
-3.9248818897637796
0
LINE
8
BLACK
6
CONTINUOUS
10
6.4330314960629922
20
-3.9248818897637796
11
6.4330314960629922
21
-3.9071653543307088
0
LINE
8
BLACK
6
CONTINUOUS
10
6.4330314960629922
20
-3.9071653543307088
11
6.49011811023622
21
-3.9071653543307088
0
LINE
8
BLACK
6
CONTINUOUS
10
6.49011811023622
20
-3.9071653543307088
11
6.49011811023622
21
-3.9248818897637796
0
LINE
8
BLACK
6
CONTINUOUS
10
6.7224015748031496
20
-3.9248818897637796
11
6.6653149606299209
21
-3.9248818897637796
0
LINE
8
BLACK
6
CONTINUOUS
10
6.6653149606299209
20
-3.9248818897637796
11
6.6653149606299209
21
-3.9071653543307088
0
LINE
8
BLACK
6
CONTINUOUS
10
6.6653149606299209
20
-3.9071653543307088
11
6.7224015748031496
21
-3.9071653543307088
0
LINE
8
BLACK
6
CONTINUOUS
10
6.7224015748031496
20
-3.9071653543307088
11
6.7224015748031496
21
-3.9248818897637796
0
LINE
8
BLACK
6
CONTINUOUS
10
6.8507638976377949
20
-3.8913944094488189
11
6.8526797637795278
21
-3.8926745669291338
0
LINE
8
BLACK
6
CONTINUOUS
10
6.8526797637795278
20
-3.8926745669291338
11
6.8539599212598423
21
-3.8945904330708658
0
LINE
8
BLACK
6
CONTINUOUS
10
6.8539599212598423
20
-3.8945904330708658
11
6.8544094488188971
21
-3.8968503937007872
0
LINE
8
BLACK
6
CONTINUOUS
10
6.8544094488188971
20
-3.8968503937007872
11
6.8544094488188971
21
-3.9086614173228345
0
LINE
8
BLACK
6
CONTINUOUS
10
6.8544094488188971
20
-3.9086614173228345
11
6.8539599212598423
21
-3.9109213779527559
0
LINE
8
BLACK
6
CONTINUOUS
10
6.8539599212598423
20
-3.9109213779527559
11
6.8526797637795278
21
-3.9128372440944883
0
LINE
8
BLACK
6
CONTINUOUS
10
6.8526797637795278
20
-3.9128372440944883
11
6.8507638976377949
21
-3.9141174015748033
0
LINE
8
BLACK
6
CONTINUOUS
10
6.8507638976377949
20
-3.9141174015748033
11
6.848503937007874
21
-3.9145669291338581
0
LINE
8
BLACK
6
CONTINUOUS
10
6.848503937007874
20
-3.9145669291338581
11
6.7933858267716536
21
-3.9145669291338581
0
LINE
8
BLACK
6
CONTINUOUS
10
6.7933858267716536
20
-3.9145669291338581
11
6.7911258661417317
21
-3.9141174015748033
0
LINE
8
BLACK
6
CONTINUOUS
10
6.7911258661417317
20
-3.9141174015748033
11
6.7892099999999997
21
-3.9128372440944883
0
LINE
8
BLACK
6
CONTINUOUS
10
6.7892099999999997
20
-3.9128372440944883
11
6.7879298425196852
21
-3.9109213779527559
0
LINE
8
BLACK
6
CONTINUOUS
10
6.7879298425196852
20
-3.9109213779527559
11
6.7874803149606295
21
-3.9086614173228345
0
LINE
8
BLACK
6
CONTINUOUS
10
6.7874803149606295
20
-3.9086614173228345
11
6.7874803149606295
21
-3.8968503937007872
0
LINE
8
BLACK
6
CONTINUOUS
10
6.7874803149606295
20
-3.8968503937007872
11
6.7879298425196852
21
-3.8945904330708658
0
LINE
8
BLACK
6
CONTINUOUS
10
6.7879298425196852
20
-3.8945904330708658
11
6.7892099999999997
21
-3.8926745669291338
0
LINE
8
BLACK
6
CONTINUOUS
10
6.7892099999999997
20
-3.8926745669291338
11
6.7911258661417317
21
-3.8913944094488189
0
LINE
8
BLACK
6
CONTINUOUS
10
6.7911258661417317
20
-3.8913944094488189
11
6.7933858267716536
21
-3.8909448818897636
0
LINE
8
BLACK
6
CONTINUOUS
10
6.7933858267716536
20
-3.8909448818897636
11
6.848503937007874
21
-3.8909448818897636
0
LINE
8
BLACK
6
CONTINUOUS
10
6.848503937007874
20
-3.8909448818897636
11
6.8507638976377949
21
-3.8913944094488189
0
LINE
8
BLACK
6
CONTINUOUS
10
5.8244094488188978
20
-3.9047244094488187
11
5.7535433070866144
21
-3.9047244094488187
0
LINE
8
BLACK
6
CONTINUOUS
10
5.7535433070866144
20
-3.9047244094488187
11
5.7535433070866144
21
-3.869291338582677
0
LINE
8
BLACK
6
CONTINUOUS
10
5.7535433070866144
20
-3.869291338582677
11
5.8244094488188978
21
-3.869291338582677
0
LINE
8
BLACK
6
CONTINUOUS
10
5.8244094488188978
20
-3.869291338582677
11
5.8244094488188978
21
-3.9047244094488187
0
LINE
8
BLACK
6
CONTINUOUS
10
5.69251968503937
20
-3.9027559055118108
11
5.6137795275590552
21
-3.9027559055118108
0
LINE
8
BLACK
6
CONTINUOUS
10
5.6137795275590552
20
-3.9027559055118108
11
5.6137795275590552
21
-3.8830708661417321
0
LINE
8
BLACK
6
CONTINUOUS
10
5.6137795275590552
20
-3.8830708661417321
11
5.69251968503937
21
-3.8830708661417321
0
LINE
8
BLACK
6
CONTINUOUS
10
5.69251968503937
20
-3.8830708661417321
11
5.69251968503937
21
-3.9027559055118108
0
LINE
8
BLACK
6
CONTINUOUS
10
5.9641732283464561
20
-3.9027559055118108
11
5.8854330708661413
21
-3.9027559055118108
0
LINE
8
BLACK
6
CONTINUOUS
10
5.8854330708661413
20
-3.9027559055118108
11
5.8854330708661413
21
-3.8830708661417321
0
LINE
8
BLACK
6
CONTINUOUS
10
5.8854330708661413
20
-3.8830708661417321
11
5.9641732283464561
21
-3.8830708661417321
0
LINE
8
BLACK
6
CONTINUOUS
10
5.9641732283464561
20
-3.8830708661417321
11
5.9641732283464561
21
-3.9027559055118108
0
LINE
8
BLACK
6
CONTINUOUS
10
6.49011811023622
20
-3.8992913385826773
11
6.4330314960629922
21
-3.8992913385826773
0
LINE
8
BLACK
6
CONTINUOUS
10
6.4330314960629922
20
-3.8992913385826773
11
6.4330314960629922
21
-3.881574803149606
0
LINE
8
BLACK
6
CONTINUOUS
10
6.4330314960629922
20
-3.881574803149606
11
6.49011811023622
21
-3.881574803149606
0
LINE
8
BLACK
6
CONTINUOUS
10
6.49011811023622
20
-3.881574803149606
11
6.49011811023622
21
-3.8992913385826773
0
LINE
8
BLACK
6
CONTINUOUS
10
6.7224015748031496
20
-3.8992913385826773
11
6.6653149606299209
21
-3.8992913385826773
0
LINE
8
BLACK
6
CONTINUOUS
10
6.6653149606299209
20
-3.8992913385826773
11
6.6653149606299209
21
-3.881574803149606
0
LINE
8
BLACK
6
CONTINUOUS
10
6.6653149606299209
20
-3.881574803149606
11
6.7224015748031496
21
-3.881574803149606
0
LINE
8
BLACK
6
CONTINUOUS
10
6.7224015748031496
20
-3.881574803149606
11
6.7224015748031496
21
-3.8992913385826773
0
LINE
8
BLACK
6
CONTINUOUS
10
6.3571638582677163
20
-3.8571122440944881
11
6.3599578740157483
21
-3.8589791338582677
0
LINE
8
BLACK
6
CONTINUOUS
10
6.3599578740157483
20
-3.8589791338582677
11
6.3618247637795271
21
-3.8617731496062992
0
LINE
8
BLACK
6
CONTINUOUS
10
6.3618247637795271
20
-3.8617731496062992
11
6.3624803149606297
21
-3.8650688976377952
0
LINE
8
BLACK
6
CONTINUOUS
10
6.3624803149606297
20
-3.8650688976377952
11
6.3624803149606297
21
-3.8822933070866141
0
LINE
8
BLACK
6
CONTINUOUS
10
6.3624803149606297
20
-3.8822933070866141
11
6.3618247637795271
21
-3.88558905511811
0
LINE
8
BLACK
6
CONTINUOUS
10
6.3618247637795271
20
-3.88558905511811
11
6.3599578740157483
21
-3.8883830708661415
0
LINE
8
BLACK
6
CONTINUOUS
10
6.3599578740157483
20
-3.8883830708661415
11
6.3571638582677163
21
-3.8902499606299212
0
LINE
8
BLACK
6
CONTINUOUS
10
6.3571638582677163
20
-3.8902499606299212
11
6.3538681102362204
21
-3.8909055118110234
0
LINE
8
BLACK
6
CONTINUOUS
10
6.3538681102362204
20
-3.8909055118110234
11
6.3336909448818899
21
-3.8909055118110234
0
LINE
8
BLACK
6
CONTINUOUS
10
6.3336909448818899
20
-3.8909055118110234
11
6.330395196850394
21
-3.8902499606299212
0
LINE
8
BLACK
6
CONTINUOUS
10
6.330395196850394
20
-3.8902499606299212
11
6.327601181102362
21
-3.8883830708661415
0
LINE
8
BLACK
6
CONTINUOUS
10
6.327601181102362
20
-3.8883830708661415
11
6.3257342913385823
21
-3.88558905511811
0
LINE
8
BLACK
6
CONTINUOUS
10
6.3257342913385823
20
-3.88558905511811
11
6.3250787401574797
21
-3.8822933070866141
0
LINE
8
BLACK
6
CONTINUOUS
10
6.3250787401574797
20
-3.8822933070866141
11
6.3250787401574797
21
-3.8650688976377952
0
LINE
8
BLACK
6
CONTINUOUS
10
6.3250787401574797
20
-3.8650688976377952
11
6.3257342913385823
21
-3.8617731496062992
0
LINE
8
BLACK
6
CONTINUOUS
10
6.3257342913385823
20
-3.8617731496062992
11
6.327601181102362
21
-3.8589791338582677
0
LINE
8
BLACK
6
CONTINUOUS
10
6.327601181102362
20
-3.8589791338582677
11
6.330395196850394
21
-3.8571122440944881
0
LINE
8
BLACK
6
CONTINUOUS
10
6.330395196850394
20
-3.8571122440944881
11
6.3336909448818899
21
-3.8564566929133859
0
LINE
8
BLACK
6
CONTINUOUS
10
6.3336909448818899
20
-3.8564566929133859
11
6.3538681102362204
21
-3.8564566929133859
0
LINE
8
BLACK
6
CONTINUOUS
10
6.3538681102362204
20
-3.8564566929133859
11
6.3571638582677163
21
-3.8571122440944881
0
LINE
8
BLACK
6
CONTINUOUS
10
6.0233252755905511
20
-3.8532146062992125
11
6.0261192913385822
21
-3.8550814960629922
0
LINE
8
BLACK
6
CONTINUOUS
10
6.0261192913385822
20
-3.8550814960629922
11
6.0279861811023618
21
-3.8578755118110237
0
LINE
8
BLACK
6
CONTINUOUS
10
6.0279861811023618
20
-3.8578755118110237
11
6.0286417322834644
21
-3.8611712598425196
0
LINE
8
BLACK
6
CONTINUOUS
10
6.0286417322834644
20
-3.8611712598425196
11
6.0286417322834644
21
-3.8783956692913386
0
LINE
8
BLACK
6
CONTINUOUS
10
6.0286417322834644
20
-3.8783956692913386
11
6.0279861811023618
21
-3.8816914173228345
0
LINE
8
BLACK
6
CONTINUOUS
10
6.0279861811023618
20
-3.8816914173228345
11
6.0261192913385822
21
-3.884485433070866
0
LINE
8
BLACK
6
CONTINUOUS
10
6.0261192913385822
20
-3.884485433070866
11
6.0233252755905511
21
-3.8863523228346457
0
LINE
8
BLACK
6
CONTINUOUS
10
6.0233252755905511
20
-3.8863523228346457
11
6.0200295275590552
21
-3.8870078740157479
0
LINE
8
BLACK
6
CONTINUOUS
10
6.0200295275590552
20
-3.8870078740157479
11
5.9998523622047246
21
-3.8870078740157479
0
LINE
8
BLACK
6
CONTINUOUS
10
5.9998523622047246
20
-3.8870078740157479
11
5.9965566141732278
21
-3.8863523228346457
0
LINE
8
BLACK
6
CONTINUOUS
10
5.9965566141732278
20
-3.8863523228346457
11
5.9937625984251968
21
-3.884485433070866
0
LINE
8
BLACK
6
CONTINUOUS
10
5.9937625984251968
20
-3.884485433070866
11
5.9918957086614171
21
-3.8816914173228345
0
LINE
8
BLACK
6
CONTINUOUS
10
5.9918957086614171
20
-3.8816914173228345
11
5.9912401574803145
21
-3.8783956692913386
0
LINE
8
BLACK
6
CONTINUOUS
10
5.9912401574803145
20
-3.8783956692913386
11
5.9912401574803145
21
-3.8611712598425196
0
LINE
8
BLACK
6
CONTINUOUS
10
5.9912401574803145
20
-3.8611712598425196
11
5.9918957086614171
21
-3.8578755118110237
0
LINE
8
BLACK
6
CONTINUOUS
10
5.9918957086614171
20
-3.8578755118110237
11
5.9937625984251968
21
-3.8550814960629922
0
LINE
8
BLACK
6
CONTINUOUS
10
5.9937625984251968
20
-3.8550814960629922
11
5.9965566141732278
21
-3.8532146062992125
0
LINE
8
BLACK
6
CONTINUOUS
10
5.9965566141732278
20
-3.8532146062992125
11
5.9998523622047246
21
-3.8525590551181104
0
LINE
8
BLACK
6
CONTINUOUS
10
5.9998523622047246
20
-3.8525590551181104
11
6.0200295275590552
21
-3.8525590551181104
0
LINE
8
BLACK
6
CONTINUOUS
10
6.0200295275590552
20
-3.8525590551181104
11
6.0233252755905511
21
-3.8532146062992125
0
LINE
8
BLACK
6
CONTINUOUS
10
6.0941914173228344
20
-3.8532146062992125
11
6.0969854330708664
21
-3.8550814960629922
0
LINE
8
BLACK
6
CONTINUOUS
10
6.0969854330708664
20
-3.8550814960629922
11
6.0988523228346452
21
-3.8578755118110237
0
LINE
8
BLACK
6
CONTINUOUS
10
6.0988523228346452
20
-3.8578755118110237
11
6.0995078740157478
21
-3.8611712598425196
0
LINE
8
BLACK
6
CONTINUOUS
10
6.0995078740157478
20
-3.8611712598425196
11
6.0995078740157478
21
-3.8783956692913386
0
LINE
8
BLACK
6
CONTINUOUS
10
6.0995078740157478
20
-3.8783956692913386
11
6.0988523228346452
21
-3.8816914173228345
0
LINE
8
BLACK
6
CONTINUOUS
10
6.0988523228346452
20
-3.8816914173228345
11
6.0969854330708664
21
-3.884485433070866
0
LINE
8
BLACK
6
CONTINUOUS
10
6.0969854330708664
20
-3.884485433070866
11
6.0941914173228344
21
-3.8863523228346457
0
LINE
8
BLACK
6
CONTINUOUS
10
6.0941914173228344
20
-3.8863523228346457
11
6.0908956692913385
21
-3.8870078740157479
0
LINE
8
BLACK
6
CONTINUOUS
10
6.0908956692913385
20
-3.8870078740157479
11
6.070718503937008
21
-3.8870078740157479
0
LINE
8
BLACK
6
CONTINUOUS
10
6.070718503937008
20
-3.8870078740157479
11
6.0674227559055121
21
-3.8863523228346457
0
LINE
8
BLACK
6
CONTINUOUS
10
6.0674227559055121
20
-3.8863523228346457
11
6.0646287401574801
21
-3.884485433070866
0
LINE
8
BLACK
6
CONTINUOUS
10
6.0646287401574801
20
-3.884485433070866
11
6.0627618503937004
21
-3.8816914173228345
0
LINE
8
BLACK
6
CONTINUOUS
10
6.0627618503937004
20
-3.8816914173228345
11
6.0621062992125987
21
-3.8783956692913386
0
LINE
8
BLACK
6
CONTINUOUS
10
6.0621062992125987
20
-3.8783956692913386
11
6.0621062992125987
21
-3.8611712598425196
0
LINE
8
BLACK
6
CONTINUOUS
10
6.0621062992125987
20
-3.8611712598425196
11
6.0627618503937004
21
-3.8578755118110237
0
LINE
8
BLACK
6
CONTINUOUS
10
6.0627618503937004
20
-3.8578755118110237
11
6.0646287401574801
21
-3.8550814960629922
0
LINE
8
BLACK
6
CONTINUOUS
10
6.0646287401574801
20
-3.8550814960629922
11
6.0674227559055121
21
-3.8532146062992125
0
LINE
8
BLACK
6
CONTINUOUS
10
6.0674227559055121
20
-3.8532146062992125
11
6.070718503937008
21
-3.8525590551181104
0
LINE
8
BLACK
6
CONTINUOUS
10
6.070718503937008
20
-3.8525590551181104
11
6.0908956692913385
21
-3.8525590551181104
0
LINE
8
BLACK
6
CONTINUOUS
10
6.0908956692913385
20
-3.8525590551181104
11
6.0941914173228344
21
-3.8532146062992125
0
LINE
8
BLACK
6
CONTINUOUS
10
6.49011811023622
20
-3.8737007874015745
11
6.4330314960629922
21
-3.8737007874015745
0
LINE
8
BLACK
6
CONTINUOUS
10
6.4330314960629922
20
-3.8737007874015745
11
6.4330314960629922
21
-3.8559842519685037
0
LINE
8
BLACK
6
CONTINUOUS
10
6.4330314960629922
20
-3.8559842519685037
11
6.49011811023622
21
-3.8559842519685037
0
LINE
8
BLACK
6
CONTINUOUS
10
6.49011811023622
20
-3.8559842519685037
11
6.49011811023622
21
-3.8737007874015745
0
LINE
8
BLACK
6
CONTINUOUS
10
6.7224015748031496
20
-3.8737007874015745
11
6.6653149606299209
21
-3.8737007874015745
0
LINE
8
BLACK
6
CONTINUOUS
10
6.6653149606299209
20
-3.8737007874015745
11
6.6653149606299209
21
-3.8559842519685037
0
LINE
8
BLACK
6
CONTINUOUS
10
6.6653149606299209
20
-3.8559842519685037
11
6.7224015748031496
21
-3.8559842519685037
0
LINE
8
BLACK
6
CONTINUOUS
10
6.7224015748031496
20
-3.8559842519685037
11
6.7224015748031496
21
-3.8737007874015745
0
LINE
8
BLACK
6
CONTINUOUS
10
6.8507638976377949
20
-3.8421818110236221
11
6.8526797637795278
21
-3.8434619685039371
0
LINE
8
BLACK
6
CONTINUOUS
10
6.8526797637795278
20
-3.8434619685039371
11
6.8539599212598423
21
-3.8453778346456691
0
LINE
8
BLACK
6
CONTINUOUS
10
6.8539599212598423
20
-3.8453778346456691
11
6.8544094488188971
21
-3.8476377952755905
0
LINE
8
BLACK
6
CONTINUOUS
10
6.8544094488188971
20
-3.8476377952755905
11
6.8544094488188971
21
-3.8594488188976377
0
LINE
8
BLACK
6
CONTINUOUS
10
6.8544094488188971
20
-3.8594488188976377
11
6.8539599212598423
21
-3.8617087795275591
0
LINE
8
BLACK
6
CONTINUOUS
10
6.8539599212598423
20
-3.8617087795275591
11
6.8526797637795278
21
-3.8636246456692911
0
LINE
8
BLACK
6
CONTINUOUS
10
6.8526797637795278
20
-3.8636246456692911
11
6.8507638976377949
21
-3.864904803149606
0
LINE
8
BLACK
6
CONTINUOUS
10
6.8507638976377949
20
-3.864904803149606
11
6.848503937007874
21
-3.8653543307086613
0
LINE
8
BLACK
6
CONTINUOUS
10
6.848503937007874
20
-3.8653543307086613
11
6.7933858267716536
21
-3.8653543307086613
0
LINE
8
BLACK
6
CONTINUOUS
10
6.7933858267716536
20
-3.8653543307086613
11
6.7911258661417317
21
-3.864904803149606
0
LINE
8
BLACK
6
CONTINUOUS
10
6.7911258661417317
20
-3.864904803149606
11
6.7892099999999997
21
-3.8636246456692911
0
LINE
8
BLACK
6
CONTINUOUS
10
6.7892099999999997
20
-3.8636246456692911
11
6.7879298425196852
21
-3.8617087795275591
0
LINE
8
BLACK
6
CONTINUOUS
10
6.7879298425196852
20
-3.8617087795275591
11
6.7874803149606295
21
-3.8594488188976377
0
LINE
8
BLACK
6
CONTINUOUS
10
6.7874803149606295
20
-3.8594488188976377
11
6.7874803149606295
21
-3.8476377952755905
0
LINE
8
BLACK
6
CONTINUOUS
10
6.7874803149606295
20
-3.8476377952755905
11
6.7879298425196852
21
-3.8453778346456691
0
LINE
8
BLACK
6
CONTINUOUS
10
6.7879298425196852
20
-3.8453778346456691
11
6.7892099999999997
21
-3.8434619685039371
0
LINE
8
BLACK
6
CONTINUOUS
10
6.7892099999999997
20
-3.8434619685039371
11
6.7911258661417317
21
-3.8421818110236221
0
LINE
8
BLACK
6
CONTINUOUS
10
6.7911258661417317
20
-3.8421818110236221
11
6.7933858267716536
21
-3.8417322834645669
0
LINE
8
BLACK
6
CONTINUOUS
10
6.7933858267716536
20
-3.8417322834645669
11
6.848503937007874
21
-3.8417322834645669
0
LINE
8
BLACK
6
CONTINUOUS
10
6.848503937007874
20
-3.8417322834645669
11
6.8507638976377949
21
-3.8421818110236221
0
LINE
8
BLACK
6
CONTINUOUS
10
5.69251968503937
20
-3.8633858267716534
11
5.6137795275590552
21
-3.8633858267716534
0
LINE
8
BLACK
6
CONTINUOUS
10
5.6137795275590552
20
-3.8633858267716534
11
5.6137795275590552
21
-3.8437007874015747
0
LINE
8
BLACK
6
CONTINUOUS
10
5.6137795275590552
20
-3.8437007874015747
11
5.69251968503937
21
-3.8437007874015747
0
LINE
8
BLACK
6
CONTINUOUS
10
5.69251968503937
20
-3.8437007874015747
11
5.69251968503937
21
-3.8633858267716534
0
LINE
8
BLACK
6
CONTINUOUS
10
5.9641732283464561
20
-3.8633858267716534
11
5.8854330708661413
21
-3.8633858267716534
0
LINE
8
BLACK
6
CONTINUOUS
10
5.8854330708661413
20
-3.8633858267716534
11
5.8854330708661413
21
-3.8437007874015747
0
LINE
8
BLACK
6
CONTINUOUS
10
5.8854330708661413
20
-3.8437007874015747
11
5.9641732283464561
21
-3.8437007874015747
0
LINE
8
BLACK
6
CONTINUOUS
10
5.9641732283464561
20
-3.8437007874015747
11
5.9641732283464561
21
-3.8633858267716534
0
LINE
8
BLACK
6
CONTINUOUS
10
6.49011811023622
20
-3.8481102362204722
11
6.4330314960629922
21
-3.8481102362204722
0
LINE
8
BLACK
6
CONTINUOUS
10
6.4330314960629922
20
-3.8481102362204722
11
6.4330314960629922
21
-3.8303937007874014
0
LINE
8
BLACK
6
CONTINUOUS
10
6.4330314960629922
20
-3.8303937007874014
11
6.49011811023622
21
-3.8303937007874014
0
LINE
8
BLACK
6
CONTINUOUS
10
6.49011811023622
20
-3.8303937007874014
11
6.49011811023622
21
-3.8481102362204722
0
LINE
8
BLACK
6
CONTINUOUS
10
6.7224015748031496
20
-3.8481102362204722
11
6.6653149606299209
21
-3.8481102362204722
0
LINE
8
BLACK
6
CONTINUOUS
10
6.6653149606299209
20
-3.8481102362204722
11
6.6653149606299209
21
-3.8303937007874014
0
LINE
8
BLACK
6
CONTINUOUS
10
6.6653149606299209
20
-3.8303937007874014
11
6.7224015748031496
21
-3.8303937007874014
0
LINE
8
BLACK
6
CONTINUOUS
10
6.7224015748031496
20
-3.8303937007874014
11
6.7224015748031496
21
-3.8481102362204722
0
LINE
8
BLACK
6
CONTINUOUS
10
6.1671312598425194
20
-3.8210553543307086
11
6.1677698818897637
21
-3.8214820866141732
0
LINE
8
BLACK
6
CONTINUOUS
10
6.1677698818897637
20
-3.8214820866141732
11
6.1681966141732278
21
-3.8221207086614171
0
LINE
8
BLACK
6
CONTINUOUS
10
6.1681966141732278
20
-3.8221207086614171
11
6.1683464566929134
21
-3.8228740157480314
0
LINE
8
BLACK
6
CONTINUOUS
10
6.1683464566929134
20
-3.8228740157480314
11
6.1683464566929134
21
-3.8405905511811023
0
LINE
8
BLACK
6
CONTINUOUS
10
6.1683464566929134
20
-3.8405905511811023
11
6.1681966141732278
21
-3.8413438582677166
0
LINE
8
BLACK
6
CONTINUOUS
10
6.1681966141732278
20
-3.8413438582677166
11
6.1677698818897637
21
-3.8419824803149605
0
LINE
8
BLACK
6
CONTINUOUS
10
6.1677698818897637
20
-3.8419824803149605
11
6.1671312598425194
21
-3.8424092125984251
0
LINE
8
BLACK
6
CONTINUOUS
10
6.1671312598425194
20
-3.8424092125984251
11
6.1663779527559051
21
-3.8425590551181101
0
LINE
8
BLACK
6
CONTINUOUS
10
6.1663779527559051
20
-3.8425590551181101
11
6.1624409448818893
21
-3.8425590551181101
0
LINE
8
BLACK
6
CONTINUOUS
10
6.1624409448818893
20
-3.8425590551181101
11
6.1616876377952758
21
-3.8424092125984251
0
LINE
8
BLACK
6
CONTINUOUS
10
6.1616876377952758
20
-3.8424092125984251
11
6.1610490157480315
21
-3.8419824803149605
0
LINE
8
BLACK
6
CONTINUOUS
10
6.1610490157480315
20
-3.8419824803149605
11
6.1606222834645665
21
-3.8413438582677166
0
LINE
8
BLACK
6
CONTINUOUS
10
6.1606222834645665
20
-3.8413438582677166
11
6.1604724409448819
21
-3.8405905511811023
0
LINE
8
BLACK
6
CONTINUOUS
10
6.1604724409448819
20
-3.8405905511811023
11
6.1604724409448819
21
-3.8228740157480314
0
LINE
8
BLACK
6
CONTINUOUS
10
6.1604724409448819
20
-3.8228740157480314
11
6.1606222834645665
21
-3.8221207086614171
0
LINE
8
BLACK
6
CONTINUOUS
10
6.1606222834645665
20
-3.8221207086614171
11
6.1610490157480315
21
-3.8214820866141732
0
LINE
8
BLACK
6
CONTINUOUS
10
6.1610490157480315
20
-3.8214820866141732
11
6.1616876377952758
21
-3.8210553543307086
0
LINE
8
BLACK
6
CONTINUOUS
10
6.1616876377952758
20
-3.8210553543307086
11
6.1624409448818893
21
-3.8209055118110236
0
LINE
8
BLACK
6
CONTINUOUS
10
6.1624409448818893
20
-3.8209055118110236
11
6.1663779527559051
21
-3.8209055118110236
0
LINE
8
BLACK
6
CONTINUOUS
10
6.1663779527559051
20
-3.8209055118110236
11
6.1671312598425194
21
-3.8210553543307086
0
LINE
8
BLACK
6
CONTINUOUS
10
6.1828792913385824
20
-3.8210553543307086
11
6.1835179133858267
21
-3.8214820866141732
0
LINE
8
BLACK
6
CONTINUOUS
10
6.1835179133858267
20
-3.8214820866141732
11
6.1839446456692908
21
-3.8221207086614171
0
LINE
8
BLACK
6
CONTINUOUS
10
6.1839446456692908
20
-3.8221207086614171
11
6.1840944881889763
21
-3.8228740157480314
0
LINE
8
BLACK
6
CONTINUOUS
10
6.1840944881889763
20
-3.8228740157480314
11
6.1840944881889763
21
-3.8405905511811023
0
LINE
8
BLACK
6
CONTINUOUS
10
6.1840944881889763
20
-3.8405905511811023
11
6.1839446456692908
21
-3.8413438582677166
0
LINE
8
BLACK
6
CONTINUOUS
10
6.1839446456692908
20
-3.8413438582677166
11
6.1835179133858267
21
-3.8419824803149605
0
LINE
8
BLACK
6
CONTINUOUS
10
6.1835179133858267
20
-3.8419824803149605
11
6.1828792913385824
21
-3.8424092125984251
0
LINE
8
BLACK
6
CONTINUOUS
10
6.1828792913385824
20
-3.8424092125984251
11
6.182125984251968
21
-3.8425590551181101
0
LINE
8
BLACK
6
CONTINUOUS
10
6.182125984251968
20
-3.8425590551181101
11
6.1781889763779523
21
-3.8425590551181101
0
LINE
8
BLACK
6
CONTINUOUS
10
6.1781889763779523
20
-3.8425590551181101
11
6.1774356692913388
21
-3.8424092125984251
0
LINE
8
BLACK
6
CONTINUOUS
10
6.1774356692913388
20
-3.8424092125984251
11
6.1767970472440945
21
-3.8419824803149605
0
LINE
8
BLACK
6
CONTINUOUS
10
6.1767970472440945
20
-3.8419824803149605
11
6.1763703149606295
21
-3.8413438582677166
0
LINE
8
BLACK
6
CONTINUOUS
10
6.1763703149606295
20
-3.8413438582677166
11
6.1762204724409449
21
-3.8405905511811023
0
LINE
8
BLACK
6
CONTINUOUS
10
6.1762204724409449
20
-3.8405905511811023
11
6.1762204724409449
21
-3.8228740157480314
0
LINE
8
BLACK
6
CONTINUOUS
10
6.1762204724409449
20
-3.8228740157480314
11
6.1763703149606295
21
-3.8221207086614171
0
LINE
8
BLACK
6
CONTINUOUS
10
6.1763703149606295
20
-3.8221207086614171
11
6.1767970472440945
21
-3.8214820866141732
0
LINE
8
BLACK
6
CONTINUOUS
10
6.1767970472440945
20
-3.8214820866141732
11
6.1774356692913388
21
-3.8210553543307086
0
LINE
8
BLACK
6
CONTINUOUS
10
6.1774356692913388
20
-3.8210553543307086
11
6.1781889763779523
21
-3.8209055118110236
0
LINE
8
BLACK
6
CONTINUOUS
10
6.1781889763779523
20
-3.8209055118110236
11
6.182125984251968
21
-3.8209055118110236
0
LINE
8
BLACK
6
CONTINUOUS
10
6.182125984251968
20
-3.8209055118110236
11
6.1828792913385824
21
-3.8210553543307086
0
LINE
8
BLACK
6
CONTINUOUS
10
6.1986273228346453
20
-3.8210553543307086
11
6.1992659448818896
21
-3.8214820866141732
0
LINE
8
BLACK
6
CONTINUOUS
10
6.1992659448818896
20
-3.8214820866141732
11
6.1996926771653538
21
-3.8221207086614171
0
LINE
8
BLACK
6
CONTINUOUS
10
6.1996926771653538
20
-3.8221207086614171
11
6.1998425196850393
21
-3.8228740157480314
0
LINE
8
BLACK
6
CONTINUOUS
10
6.1998425196850393
20
-3.8228740157480314
11
6.1998425196850393
21
-3.8405905511811023
0
LINE
8
BLACK
6
CONTINUOUS
10
6.1998425196850393
20
-3.8405905511811023
11
6.1996926771653538
21
-3.8413438582677166
0
LINE
8
BLACK
6
CONTINUOUS
10
6.1996926771653538
20
-3.8413438582677166
11
6.1992659448818896
21
-3.8419824803149605
0
LINE
8
BLACK
6
CONTINUOUS
10
6.1992659448818896
20
-3.8419824803149605
11
6.1986273228346453
21
-3.8424092125984251
0
LINE
8
BLACK
6
CONTINUOUS
10
6.1986273228346453
20
-3.8424092125984251
11
6.197874015748031
21
-3.8425590551181101
0
LINE
8
BLACK
6
CONTINUOUS
10
6.197874015748031
20
-3.8425590551181101
11
6.1939370078740152
21
-3.8425590551181101
0
LINE
8
BLACK
6
CONTINUOUS
10
6.1939370078740152
20
-3.8425590551181101
11
6.1931837007874018
21
-3.8424092125984251
0
LINE
8
BLACK
6
CONTINUOUS
10
6.1931837007874018
20
-3.8424092125984251
11
6.1925450787401575
21
-3.8419824803149605
0
LINE
8
BLACK
6
CONTINUOUS
10
6.1925450787401575
20
-3.8419824803149605
11
6.1921183464566925
21
-3.8413438582677166
0
LINE
8
BLACK
6
CONTINUOUS
10
6.1921183464566925
20
-3.8413438582677166
11
6.1919685039370078
21
-3.8405905511811023
0
LINE
8
BLACK
6
CONTINUOUS
10
6.1919685039370078
20
-3.8405905511811023
11
6.1919685039370078
21
-3.8228740157480314
0
LINE
8
BLACK
6
CONTINUOUS
10
6.1919685039370078
20
-3.8228740157480314
11
6.1921183464566925
21
-3.8221207086614171
0
LINE
8
BLACK
6
CONTINUOUS
10
6.1921183464566925
20
-3.8221207086614171
11
6.1925450787401575
21
-3.8214820866141732
0
LINE
8
BLACK
6
CONTINUOUS
10
6.1925450787401575
20
-3.8214820866141732
11
6.1931837007874018
21
-3.8210553543307086
0
LINE
8
BLACK
6
CONTINUOUS
10
6.1931837007874018
20
-3.8210553543307086
11
6.1939370078740152
21
-3.8209055118110236
0
LINE
8
BLACK
6
CONTINUOUS
10
6.1939370078740152
20
-3.8209055118110236
11
6.197874015748031
21
-3.8209055118110236
0
LINE
8
BLACK
6
CONTINUOUS
10
6.197874015748031
20
-3.8209055118110236
11
6.1986273228346453
21
-3.8210553543307086
0
LINE
8
BLACK
6
CONTINUOUS
10
6.2143753543307083
20
-3.8210553543307086
11
6.2150139763779526
21
-3.8214820866141732
0
LINE
8
BLACK
6
CONTINUOUS
10
6.2150139763779526
20
-3.8214820866141732
11
6.2154407086614176
21
-3.8221207086614171
0
LINE
8
BLACK
6
CONTINUOUS
10
6.2154407086614176
20
-3.8221207086614171
11
6.2155905511811023
21
-3.8228740157480314
0
LINE
8
BLACK
6
CONTINUOUS
10
6.2155905511811023
20
-3.8228740157480314
11
6.2155905511811023
21
-3.8405905511811023
0
LINE
8
BLACK
6
CONTINUOUS
10
6.2155905511811023
20
-3.8405905511811023
11
6.2154407086614176
21
-3.8413438582677166
0
LINE
8
BLACK
6
CONTINUOUS
10
6.2154407086614176
20
-3.8413438582677166
11
6.2150139763779526
21
-3.8419824803149605
0
LINE
8
BLACK
6
CONTINUOUS
10
6.2150139763779526
20
-3.8419824803149605
11
6.2143753543307083
21
-3.8424092125984251
0
LINE
8
BLACK
6
CONTINUOUS
10
6.2143753543307083
20
-3.8424092125984251
11
6.2136220472440939
21
-3.8425590551181101
0
LINE
8
BLACK
6
CONTINUOUS
10
6.2136220472440939
20
-3.8425590551181101
11
6.2096850393700782
21
-3.8425590551181101
0
LINE
8
BLACK
6
CONTINUOUS
10
6.2096850393700782
20
-3.8425590551181101
11
6.2089317322834647
21
-3.8424092125984251
0
LINE
8
BLACK
6
CONTINUOUS
10
6.2089317322834647
20
-3.8424092125984251
11
6.2082931102362204
21
-3.8419824803149605
0
LINE
8
BLACK
6
CONTINUOUS
10
6.2082931102362204
20
-3.8419824803149605
11
6.2078663779527554
21
-3.8413438582677166
0
LINE
8
BLACK
6
CONTINUOUS
10
6.2078663779527554
20
-3.8413438582677166
11
6.2077165354330708
21
-3.8405905511811023
0
LINE
8
BLACK
6
CONTINUOUS
10
6.2077165354330708
20
-3.8405905511811023
11
6.2077165354330708
21
-3.8228740157480314
0
LINE
8
BLACK
6
CONTINUOUS
10
6.2077165354330708
20
-3.8228740157480314
11
6.2078663779527554
21
-3.8221207086614171
0
LINE
8
BLACK
6
CONTINUOUS
10
6.2078663779527554
20
-3.8221207086614171
11
6.2082931102362204
21
-3.8214820866141732
0
LINE
8
BLACK
6
CONTINUOUS
10
6.2082931102362204
20
-3.8214820866141732
11
6.2089317322834647
21
-3.8210553543307086
0
LINE
8
BLACK
6
CONTINUOUS
10
6.2089317322834647
20
-3.8210553543307086
11
6.2096850393700782
21
-3.8209055118110236
0
LINE
8
BLACK
6
CONTINUOUS
10
6.2096850393700782
20
-3.8209055118110236
11
6.2136220472440939
21
-3.8209055118110236
0
LINE
8
BLACK
6
CONTINUOUS
10
6.2136220472440939
20
-3.8209055118110236
11
6.2143753543307083
21
-3.8210553543307086
0
LINE
8
BLACK
6
CONTINUOUS
10
6.2301233858267713
20
-3.8210553543307086
11
6.2307620078740156
21
-3.8214820866141732
0
LINE
8
BLACK
6
CONTINUOUS
10
6.2307620078740156
20
-3.8214820866141732
11
6.2311887401574806
21
-3.8221207086614171
0
LINE
8
BLACK
6
CONTINUOUS
10
6.2311887401574806
20
-3.8221207086614171
11
6.2313385826771652
21
-3.8228740157480314
0
LINE
8
BLACK
6
CONTINUOUS
10
6.2313385826771652
20
-3.8228740157480314
11
6.2313385826771652
21
-3.8405905511811023
0
LINE
8
BLACK
6
CONTINUOUS
10
6.2313385826771652
20
-3.8405905511811023
11
6.2311887401574806
21
-3.8413438582677166
0
LINE
8
BLACK
6
CONTINUOUS
10
6.2311887401574806
20
-3.8413438582677166
11
6.2307620078740156
21
-3.8419824803149605
0
LINE
8
BLACK
6
CONTINUOUS
10
6.2307620078740156
20
-3.8419824803149605
11
6.2301233858267713
21
-3.8424092125984251
0
LINE
8
BLACK
6
CONTINUOUS
10
6.2301233858267713
20
-3.8424092125984251
11
6.2293700787401569
21
-3.8425590551181101
0
LINE
8
BLACK
6
CONTINUOUS
10
6.2293700787401569
20
-3.8425590551181101
11
6.2254330708661412
21
-3.8425590551181101
0
LINE
8
BLACK
6
CONTINUOUS
10
6.2254330708661412
20
-3.8425590551181101
11
6.2246797637795277
21
-3.8424092125984251
0
LINE
8
BLACK
6
CONTINUOUS
10
6.2246797637795277
20
-3.8424092125984251
11
6.2240411417322834
21
-3.8419824803149605
0
LINE
8
BLACK
6
CONTINUOUS
10
6.2240411417322834
20
-3.8419824803149605
11
6.2236144094488184
21
-3.8413438582677166
0
LINE
8
BLACK
6
CONTINUOUS
10
6.2236144094488184
20
-3.8413438582677166
11
6.2234645669291337
21
-3.8405905511811023
0
LINE
8
BLACK
6
CONTINUOUS
10
6.2234645669291337
20
-3.8405905511811023
11
6.2234645669291337
21
-3.8228740157480314
0
LINE
8
BLACK
6
CONTINUOUS
10
6.2234645669291337
20
-3.8228740157480314
11
6.2236144094488184
21
-3.8221207086614171
0
LINE
8
BLACK
6
CONTINUOUS
10
6.2236144094488184
20
-3.8221207086614171
11
6.2240411417322834
21
-3.8214820866141732
0
LINE
8
BLACK
6
CONTINUOUS
10
6.2240411417322834
20
-3.8214820866141732
11
6.2246797637795277
21
-3.8210553543307086
0
LINE
8
BLACK
6
CONTINUOUS
10
6.2246797637795277
20
-3.8210553543307086
11
6.2254330708661412
21
-3.8209055118110236
0
LINE
8
BLACK
6
CONTINUOUS
10
6.2254330708661412
20
-3.8209055118110236
11
6.2293700787401569
21
-3.8209055118110236
0
LINE
8
BLACK
6
CONTINUOUS
10
6.2293700787401569
20
-3.8209055118110236
11
6.2301233858267713
21
-3.8210553543307086
0
LINE
8
BLACK
6
CONTINUOUS
10
6.2458714173228342
20
-3.8210553543307086
11
6.2465100393700785
21
-3.8214820866141732
0
LINE
8
BLACK
6
CONTINUOUS
10
6.2465100393700785
20
-3.8214820866141732
11
6.2469367716535436
21
-3.8221207086614171
0
LINE
8
BLACK
6
CONTINUOUS
10
6.2469367716535436
20
-3.8221207086614171
11
6.2470866141732282
21
-3.8228740157480314
0
LINE
8
BLACK
6
CONTINUOUS
10
6.2470866141732282
20
-3.8228740157480314
11
6.2470866141732282
21
-3.8405905511811023
0
LINE
8
BLACK
6
CONTINUOUS
10
6.2470866141732282
20
-3.8405905511811023
11
6.2469367716535436
21
-3.8413438582677166
0
LINE
8
BLACK
6
CONTINUOUS
10
6.2469367716535436
20
-3.8413438582677166
11
6.2465100393700785
21
-3.8419824803149605
0
LINE
8
BLACK
6
CONTINUOUS
10
6.2465100393700785
20
-3.8419824803149605
11
6.2458714173228342
21
-3.8424092125984251
0
LINE
8
BLACK
6
CONTINUOUS
10
6.2458714173228342
20
-3.8424092125984251
11
6.2451181102362208
21
-3.8425590551181101
0
LINE
8
BLACK
6
CONTINUOUS
10
6.2451181102362208
20
-3.8425590551181101
11
6.241181102362205
21
-3.8425590551181101
0
LINE
8
BLACK
6
CONTINUOUS
10
6.241181102362205
20
-3.8425590551181101
11
6.2404277952755907
21
-3.8424092125984251
0
LINE
8
BLACK
6
CONTINUOUS
10
6.2404277952755907
20
-3.8424092125984251
11
6.2397891732283464
21
-3.8419824803149605
0
LINE
8
BLACK
6
CONTINUOUS
10
6.2397891732283464
20
-3.8419824803149605
11
6.2393624409448813
21
-3.8413438582677166
0
LINE
8
BLACK
6
CONTINUOUS
10
6.2393624409448813
20
-3.8413438582677166
11
6.2392125984251967
21
-3.8405905511811023
0
LINE
8
BLACK
6
CONTINUOUS
10
6.2392125984251967
20
-3.8405905511811023
11
6.2392125984251967
21
-3.8228740157480314
0
LINE
8
BLACK
6
CONTINUOUS
10
6.2392125984251967
20
-3.8228740157480314
11
6.2393624409448813
21
-3.8221207086614171
0
LINE
8
BLACK
6
CONTINUOUS
10
6.2393624409448813
20
-3.8221207086614171
11
6.2397891732283464
21
-3.8214820866141732
0
LINE
8
BLACK
6
CONTINUOUS
10
6.2397891732283464
20
-3.8214820866141732
11
6.2404277952755907
21
-3.8210553543307086
0
LINE
8
BLACK
6
CONTINUOUS
10
6.2404277952755907
20
-3.8210553543307086
11
6.241181102362205
21
-3.8209055118110236
0
LINE
8
BLACK
6
CONTINUOUS
10
6.241181102362205
20
-3.8209055118110236
11
6.2451181102362208
21
-3.8209055118110236
0
LINE
8
BLACK
6
CONTINUOUS
10
6.2451181102362208
20
-3.8209055118110236
11
6.2458714173228342
21
-3.8210553543307086
0
LINE
8
BLACK
6
CONTINUOUS
10
5.8244094488188978
20
-3.8377952755905511
11
5.7535433070866144
21
-3.8377952755905511
0
LINE
8
BLACK
6
CONTINUOUS
10
5.7535433070866144
20
-3.8377952755905511
11
5.7535433070866144
21
-3.8023622047244094
0
LINE
8
BLACK
6
CONTINUOUS
10
5.7535433070866144
20
-3.8023622047244094
11
5.8244094488188978
21
-3.8023622047244094
0
LINE
8
BLACK
6
CONTINUOUS
10
5.8244094488188978
20
-3.8023622047244094
11
5.8244094488188978
21
-3.8377952755905511
0
LINE
8
BLACK
6
CONTINUOUS
10
6.3571638582677163
20
-3.7951043700787399
11
6.3599578740157483
21
-3.7969712598425196
0
LINE
8
BLACK
6
CONTINUOUS
10
6.3599578740157483
20
-3.7969712598425196
11
6.3618247637795271
21
-3.7997652755905511
0
LINE
8
BLACK
6
CONTINUOUS
10
6.3618247637795271
20
-3.7997652755905511
11
6.3624803149606297
21
-3.803061023622047
0
LINE
8
BLACK
6
CONTINUOUS
10
6.3624803149606297
20
-3.803061023622047
11
6.3624803149606297
21
-3.820285433070866
0
LINE
8
BLACK
6
CONTINUOUS
10
6.3624803149606297
20
-3.820285433070866
11
6.3618247637795271
21
-3.8235811811023623
0
LINE
8
BLACK
6
CONTINUOUS
10
6.3618247637795271
20
-3.8235811811023623
11
6.3599578740157483
21
-3.8263751968503934
0
LINE
8
BLACK
6
CONTINUOUS
10
6.3599578740157483
20
-3.8263751968503934
11
6.3571638582677163
21
-3.8282420866141731
0
LINE
8
BLACK
6
CONTINUOUS
10
6.3571638582677163
20
-3.8282420866141731
11
6.3538681102362204
21
-3.8288976377952757
0
LINE
8
BLACK
6
CONTINUOUS
10
6.3538681102362204
20
-3.8288976377952757
11
6.3336909448818899
21
-3.8288976377952757
0
LINE
8
BLACK
6
CONTINUOUS
10
6.3336909448818899
20
-3.8288976377952757
11
6.330395196850394
21
-3.8282420866141731
0
LINE
8
BLACK
6
CONTINUOUS
10
6.330395196850394
20
-3.8282420866141731
11
6.327601181102362
21
-3.8263751968503934
0
LINE
8
BLACK
6
CONTINUOUS
10
6.327601181102362
20
-3.8263751968503934
11
6.3257342913385823
21
-3.8235811811023623
0
LINE
8
BLACK
6
CONTINUOUS
10
6.3257342913385823
20
-3.8235811811023623
11
6.3250787401574797
21
-3.820285433070866
0
LINE
8
BLACK
6
CONTINUOUS
10
6.3250787401574797
20
-3.820285433070866
11
6.3250787401574797
21
-3.803061023622047
0
LINE
8
BLACK
6
CONTINUOUS
10
6.3250787401574797
20
-3.803061023622047
11
6.3257342913385823
21
-3.7997652755905511
0
LINE
8
BLACK
6
CONTINUOUS
10
6.3257342913385823
20
-3.7997652755905511
11
6.327601181102362
21
-3.7969712598425196
0
LINE
8
BLACK
6
CONTINUOUS
10
6.327601181102362
20
-3.7969712598425196
11
6.330395196850394
21
-3.7951043700787399
0
LINE
8
BLACK
6
CONTINUOUS
10
6.330395196850394
20
-3.7951043700787399
11
6.3336909448818899
21
-3.7944488188976377
0
LINE
8
BLACK
6
CONTINUOUS
10
6.3336909448818899
20
-3.7944488188976377
11
6.3538681102362204
21
-3.7944488188976377
0
LINE
8
BLACK
6
CONTINUOUS
10
6.3538681102362204
20
-3.7944488188976377
11
6.3571638582677163
21
-3.7951043700787399
0
LINE
8
BLACK
6
CONTINUOUS
10
5.69251968503937
20
-3.824015748031496
11
5.6137795275590552
21
-3.824015748031496
0
LINE
8
BLACK
6
CONTINUOUS
10
5.6137795275590552
20
-3.824015748031496
11
5.6137795275590552
21
-3.8043307086614173
0
LINE
8
BLACK
6
CONTINUOUS
10
5.6137795275590552
20
-3.8043307086614173
11
5.69251968503937
21
-3.8043307086614173
0
LINE
8
BLACK
6
CONTINUOUS
10
5.69251968503937
20
-3.8043307086614173
11
5.69251968503937
21
-3.824015748031496
0
LINE
8
BLACK
6
CONTINUOUS
10
5.9641732283464561
20
-3.824015748031496
11
5.8854330708661413
21
-3.824015748031496
0
LINE
8
BLACK
6
CONTINUOUS
10
5.8854330708661413
20
-3.824015748031496
11
5.8854330708661413
21
-3.8043307086614173
0
LINE
8
BLACK
6
CONTINUOUS
10
5.8854330708661413
20
-3.8043307086614173
11
5.9641732283464561
21
-3.8043307086614173
0
LINE
8
BLACK
6
CONTINUOUS
10
5.9641732283464561
20
-3.8043307086614173
11
5.9641732283464561
21
-3.824015748031496
0
LINE
8
BLACK
6
CONTINUOUS
10
6.49011811023622
20
-3.8225196850393699
11
6.4330314960629922
21
-3.8225196850393699
0
LINE
8
BLACK
6
CONTINUOUS
10
6.4330314960629922
20
-3.8225196850393699
11
6.4330314960629922
21
-3.8048031496062991
0
LINE
8
BLACK
6
CONTINUOUS
10
6.4330314960629922
20
-3.8048031496062991
11
6.49011811023622
21
-3.8048031496062991
0
LINE
8
BLACK
6
CONTINUOUS
10
6.49011811023622
20
-3.8048031496062991
11
6.49011811023622
21
-3.8225196850393699
0
LINE
8
BLACK
6
CONTINUOUS
10
6.7224015748031496
20
-3.8225196850393699
11
6.6653149606299209
21
-3.8225196850393699
0
LINE
8
BLACK
6
CONTINUOUS
10
6.6653149606299209
20
-3.8225196850393699
11
6.6653149606299209
21
-3.8048031496062991
0
LINE
8
BLACK
6
CONTINUOUS
10
6.6653149606299209
20
-3.8048031496062991
11
6.7224015748031496
21
-3.8048031496062991
0
LINE
8
BLACK
6
CONTINUOUS
10
6.7224015748031496
20
-3.8048031496062991
11
6.7224015748031496
21
-3.8225196850393699
0
LINE
8
BLACK
6
CONTINUOUS
10
6.8507638976377949
20
-3.7929692125984249
11
6.8526797637795278
21
-3.7942493700787399
0
LINE
8
BLACK
6
CONTINUOUS
10
6.8526797637795278
20
-3.7942493700787399
11
6.8539599212598423
21
-3.7961652362204723
0
LINE
8
BLACK
6
CONTINUOUS
10
6.8539599212598423
20
-3.7961652362204723
11
6.8544094488188971
21
-3.7984251968503937
0
LINE
8
BLACK
6
CONTINUOUS
10
6.8544094488188971
20
-3.7984251968503937
11
6.8544094488188971
21
-3.8102362204724409
0
LINE
8
BLACK
6
CONTINUOUS
10
6.8544094488188971
20
-3.8102362204724409
11
6.8539599212598423
21
-3.8124961811023623
0
LINE
8
BLACK
6
CONTINUOUS
10
6.8539599212598423
20
-3.8124961811023623
11
6.8526797637795278
21
-3.8144120472440943
0
LINE
8
BLACK
6
CONTINUOUS
10
6.8526797637795278
20
-3.8144120472440943
11
6.8507638976377949
21
-3.8156922047244093
0
LINE
8
BLACK
6
CONTINUOUS
10
6.8507638976377949
20
-3.8156922047244093
11
6.848503937007874
21
-3.8161417322834645
0
LINE
8
BLACK
6
CONTINUOUS
10
6.848503937007874
20
-3.8161417322834645
11
6.7933858267716536
21
-3.8161417322834645
0
LINE
8
BLACK
6
CONTINUOUS
10
6.7933858267716536
20
-3.8161417322834645
11
6.7911258661417317
21
-3.8156922047244093
0
LINE
8
BLACK
6
CONTINUOUS
10
6.7911258661417317
20
-3.8156922047244093
11
6.7892099999999997
21
-3.8144120472440943
0
LINE
8
BLACK
6
CONTINUOUS
10
6.7892099999999997
20
-3.8144120472440943
11
6.7879298425196852
21
-3.8124961811023623
0
LINE
8
BLACK
6
CONTINUOUS
10
6.7879298425196852
20
-3.8124961811023623
11
6.7874803149606295
21
-3.8102362204724409
0
LINE
8
BLACK
6
CONTINUOUS
10
6.7874803149606295
20
-3.8102362204724409
11
6.7874803149606295
21
-3.7984251968503937
0
LINE
8
BLACK
6
CONTINUOUS
10
6.7874803149606295
20
-3.7984251968503937
11
6.7879298425196852
21
-3.7961652362204723
0
LINE
8
BLACK
6
CONTINUOUS
10
6.7879298425196852
20
-3.7961652362204723
11
6.7892099999999997
21
-3.7942493700787399
0
LINE
8
BLACK
6
CONTINUOUS
10
6.7892099999999997
20
-3.7942493700787399
11
6.7911258661417317
21
-3.7929692125984249
0
LINE
8
BLACK
6
CONTINUOUS
10
6.7911258661417317
20
-3.7929692125984249
11
6.7933858267716536
21
-3.7925196850393701
0
LINE
8
BLACK
6
CONTINUOUS
10
6.7933858267716536
20
-3.7925196850393701
11
6.848503937007874
21
-3.7925196850393701
0
LINE
8
BLACK
6
CONTINUOUS
10
6.848503937007874
20
-3.7925196850393701
11
6.8507638976377949
21
-3.7929692125984249
0
LINE
8
BLACK
6
CONTINUOUS
10
6.1543359842519685
20
-3.8082600787401573
11
6.1549746062992128
21
-3.8086868110236218
0
LINE
8
BLACK
6
CONTINUOUS
10
6.1549746062992128
20
-3.8086868110236218
11
6.1554013385826769
21
-3.8093254330708661
0
LINE
8
BLACK
6
CONTINUOUS
10
6.1554013385826769
20
-3.8093254330708661
11
6.1555511811023624
21
-3.81007874015748
0
LINE
8
BLACK
6
CONTINUOUS
10
6.1555511811023624
20
-3.81007874015748
11
6.1555511811023624
21
-3.8140157480314958
0
LINE
8
BLACK
6
CONTINUOUS
10
6.1555511811023624
20
-3.8140157480314958
11
6.1554013385826769
21
-3.8147690551181102
0
LINE
8
BLACK
6
CONTINUOUS
10
6.1554013385826769
20
-3.8147690551181102
11
6.1549746062992128
21
-3.8154076771653544
0
LINE
8
BLACK
6
CONTINUOUS
10
6.1549746062992128
20
-3.8154076771653544
11
6.1543359842519685
21
-3.815834409448819
0
LINE
8
BLACK
6
CONTINUOUS
10
6.1543359842519685
20
-3.815834409448819
11
6.1535826771653541
21
-3.8159842519685037
0
LINE
8
BLACK
6
CONTINUOUS
10
6.1535826771653541
20
-3.8159842519685037
11
6.1358661417322837
21
-3.8159842519685037
0
LINE
8
BLACK
6
CONTINUOUS
10
6.1358661417322837
20
-3.8159842519685037
11
6.1351128346456694
21
-3.815834409448819
0
LINE
8
BLACK
6
CONTINUOUS
10
6.1351128346456694
20
-3.815834409448819
11
6.1344742125984251
21
-3.8154076771653544
0
LINE
8
BLACK
6
CONTINUOUS
10
6.1344742125984251
20
-3.8154076771653544
11
6.1340474803149601
21
-3.8147690551181102
0
LINE
8
BLACK
6
CONTINUOUS
10
6.1340474803149601
20
-3.8147690551181102
11
6.1338976377952754
21
-3.8140157480314958
0
LINE
8
BLACK
6
CONTINUOUS
10
6.1338976377952754
20
-3.8140157480314958
11
6.1338976377952754
21
-3.81007874015748
0
LINE
8
BLACK
6
CONTINUOUS
10
6.1338976377952754
20
-3.81007874015748
11
6.1340474803149601
21
-3.8093254330708661
0
LINE
8
BLACK
6
CONTINUOUS
10
6.1340474803149601
20
-3.8093254330708661
11
6.1344742125984251
21
-3.8086868110236218
0
LINE
8
BLACK
6
CONTINUOUS
10
6.1344742125984251
20
-3.8086868110236218
11
6.1351128346456694
21
-3.8082600787401573
0
LINE
8
BLACK
6
CONTINUOUS
10
6.1351128346456694
20
-3.8082600787401573
11
6.1358661417322837
21
-3.8081102362204722
0
LINE
8
BLACK
6
CONTINUOUS
10
6.1358661417322837
20
-3.8081102362204722
11
6.1535826771653541
21
-3.8081102362204722
0
LINE
8
BLACK
6
CONTINUOUS
10
6.1535826771653541
20
-3.8081102362204722
11
6.1543359842519685
21
-3.8082600787401573
0
LINE
8
BLACK
6
CONTINUOUS
10
6.2724462204724407
20
-3.8082600787401573
11
6.273084842519685
21
-3.8086868110236218
0
LINE
8
BLACK
6
CONTINUOUS
10
6.273084842519685
20
-3.8086868110236218
11
6.2735115748031491
21
-3.8093254330708661
0
LINE
8
BLACK
6
CONTINUOUS
10
6.2735115748031491
20
-3.8093254330708661
11
6.2736614173228347
21
-3.81007874015748
0
LINE
8
BLACK
6
CONTINUOUS
10
6.2736614173228347
20
-3.81007874015748
11
6.2736614173228347
21
-3.8140157480314958
0
LINE
8
BLACK
6
CONTINUOUS
10
6.2736614173228347
20
-3.8140157480314958
11
6.2735115748031491
21
-3.8147690551181102
0
LINE
8
BLACK
6
CONTINUOUS
10
6.2735115748031491
20
-3.8147690551181102
11
6.273084842519685
21
-3.8154076771653544
0
LINE
8
BLACK
6
CONTINUOUS
10
6.273084842519685
20
-3.8154076771653544
11
6.2724462204724407
21
-3.815834409448819
0
LINE
8
BLACK
6
CONTINUOUS
10
6.2724462204724407
20
-3.815834409448819
11
6.2716929133858264
21
-3.8159842519685037
0
LINE
8
BLACK
6
CONTINUOUS
10
6.2716929133858264
20
-3.8159842519685037
11
6.253976377952756
21
-3.8159842519685037
0
LINE
8
BLACK
6
CONTINUOUS
10
6.253976377952756
20
-3.8159842519685037
11
6.2532230708661416
21
-3.815834409448819
0
LINE
8
BLACK
6
CONTINUOUS
10
6.2532230708661416
20
-3.815834409448819
11
6.2525844488188973
21
-3.8154076771653544
0
LINE
8
BLACK
6
CONTINUOUS
10
6.2525844488188973
20
-3.8154076771653544
11
6.2521577165354332
21
-3.8147690551181102
0
LINE
8
BLACK
6
CONTINUOUS
10
6.2521577165354332
20
-3.8147690551181102
11
6.2520078740157476
21
-3.8140157480314958
0
LINE
8
BLACK
6
CONTINUOUS
10
6.2520078740157476
20
-3.8140157480314958
11
6.2520078740157476
21
-3.81007874015748
0
LINE
8
BLACK
6
CONTINUOUS
10
6.2520078740157476
20
-3.81007874015748
11
6.2521577165354332
21
-3.8093254330708661
0
LINE
8
BLACK
6
CONTINUOUS
10
6.2521577165354332
20
-3.8093254330708661
11
6.2525844488188973
21
-3.8086868110236218
0
LINE
8
BLACK
6
CONTINUOUS
10
6.2525844488188973
20
-3.8086868110236218
11
6.2532230708661416
21
-3.8082600787401573
0
LINE
8
BLACK
6
CONTINUOUS
10
6.2532230708661416
20
-3.8082600787401573
11
6.253976377952756
21
-3.8081102362204722
0
LINE
8
BLACK
6
CONTINUOUS
10
6.253976377952756
20
-3.8081102362204722
11
6.2716929133858264
21
-3.8081102362204722
0
LINE
8
BLACK
6
CONTINUOUS
10
6.2716929133858264
20
-3.8081102362204722
11
6.2724462204724407
21
-3.8082600787401573
0
LINE
8
BLACK
6
CONTINUOUS
10
6.1543359842519685
20
-3.7925120472440943
11
6.1549746062992128
21
-3.7929387795275589
0
LINE
8
BLACK
6
CONTINUOUS
10
6.1549746062992128
20
-3.7929387795275589
11
6.1554013385826769
21
-3.7935774015748032
0
LINE
8
BLACK
6
CONTINUOUS
10
6.1554013385826769
20
-3.7935774015748032
11
6.1555511811023624
21
-3.7943307086614171
0
LINE
8
BLACK
6
CONTINUOUS
10
6.1555511811023624
20
-3.7943307086614171
11
6.1555511811023624
21
-3.7982677165354328
0
LINE
8
BLACK
6
CONTINUOUS
10
6.1555511811023624
20
-3.7982677165354328
11
6.1554013385826769
21
-3.7990210236220472
0
LINE
8
BLACK
6
CONTINUOUS
10
6.1554013385826769
20
-3.7990210236220472
11
6.1549746062992128
21
-3.799659645669291
0
LINE
8
BLACK
6
CONTINUOUS
10
6.1549746062992128
20
-3.799659645669291
11
6.1543359842519685
21
-3.8000863779527556
0
LINE
8
BLACK
6
CONTINUOUS
10
6.1543359842519685
20
-3.8000863779527556
11
6.1535826771653541
21
-3.8002362204724407
0
LINE
8
BLACK
6
CONTINUOUS
10
6.1535826771653541
20
-3.8002362204724407
11
6.1358661417322837
21
-3.8002362204724407
0
LINE
8
BLACK
6
CONTINUOUS
10
6.1358661417322837
20
-3.8002362204724407
11
6.1351128346456694
21
-3.8000863779527556
0
LINE
8
BLACK
6
CONTINUOUS
10
6.1351128346456694
20
-3.8000863779527556
11
6.1344742125984251
21
-3.799659645669291
0
LINE
8
BLACK
6
CONTINUOUS
10
6.1344742125984251
20
-3.799659645669291
11
6.1340474803149601
21
-3.7990210236220472
0
LINE
8
BLACK
6
CONTINUOUS
10
6.1340474803149601
20
-3.7990210236220472
11
6.1338976377952754
21
-3.7982677165354328
0
LINE
8
BLACK
6
CONTINUOUS
10
6.1338976377952754
20
-3.7982677165354328
11
6.1338976377952754
21
-3.7943307086614171
0
LINE
8
BLACK
6
CONTINUOUS
10
6.1338976377952754
20
-3.7943307086614171
11
6.1340474803149601
21
-3.7935774015748032
0
LINE
8
BLACK
6
CONTINUOUS
10
6.1340474803149601
20
-3.7935774015748032
11
6.1344742125984251
21
-3.7929387795275589
0
LINE
8
BLACK
6
CONTINUOUS
10
6.1344742125984251
20
-3.7929387795275589
11
6.1351128346456694
21
-3.7925120472440943
0
LINE
8
BLACK
6
CONTINUOUS
10
6.1351128346456694
20
-3.7925120472440943
11
6.1358661417322837
21
-3.7923622047244092
0
LINE
8
BLACK
6
CONTINUOUS
10
6.1358661417322837
20
-3.7923622047244092
11
6.1535826771653541
21
-3.7923622047244092
0
LINE
8
BLACK
6
CONTINUOUS
10
6.1535826771653541
20
-3.7923622047244092
11
6.1543359842519685
21
-3.7925120472440943
0
LINE
8
BLACK
6
CONTINUOUS
10
6.2724462204724407
20
-3.7925120472440943
11
6.273084842519685
21
-3.7929387795275589
0
LINE
8
BLACK
6
CONTINUOUS
10
6.273084842519685
20
-3.7929387795275589
11
6.2735115748031491
21
-3.7935774015748032
0
LINE
8
BLACK
6
CONTINUOUS
10
6.2735115748031491
20
-3.7935774015748032
11
6.2736614173228347
21
-3.7943307086614171
0
LINE
8
BLACK
6
CONTINUOUS
10
6.2736614173228347
20
-3.7943307086614171
11
6.2736614173228347
21
-3.7982677165354328
0
LINE
8
BLACK
6
CONTINUOUS
10
6.2736614173228347
20
-3.7982677165354328
11
6.2735115748031491
21
-3.7990210236220472
0
LINE
8
BLACK
6
CONTINUOUS
10
6.2735115748031491
20
-3.7990210236220472
11
6.273084842519685
21
-3.799659645669291
0
LINE
8
BLACK
6
CONTINUOUS
10
6.273084842519685
20
-3.799659645669291
11
6.2724462204724407
21
-3.8000863779527556
0
LINE
8
BLACK
6
CONTINUOUS
10
6.2724462204724407
20
-3.8000863779527556
11
6.2716929133858264
21
-3.8002362204724407
0
LINE
8
BLACK
6
CONTINUOUS
10
6.2716929133858264
20
-3.8002362204724407
11
6.253976377952756
21
-3.8002362204724407
0
LINE
8
BLACK
6
CONTINUOUS
10
6.253976377952756
20
-3.8002362204724407
11
6.2532230708661416
21
-3.8000863779527556
0
LINE
8
BLACK
6
CONTINUOUS
10
6.2532230708661416
20
-3.8000863779527556
11
6.2525844488188973
21
-3.799659645669291
0
LINE
8
BLACK
6
CONTINUOUS
10
6.2525844488188973
20
-3.799659645669291
11
6.2521577165354332
21
-3.7990210236220472
0
LINE
8
BLACK
6
CONTINUOUS
10
6.2521577165354332
20
-3.7990210236220472
11
6.2520078740157476
21
-3.7982677165354328
0
LINE
8
BLACK
6
CONTINUOUS
10
6.2520078740157476
20
-3.7982677165354328
11
6.2520078740157476
21
-3.7943307086614171
0
LINE
8
BLACK
6
CONTINUOUS
10
6.2520078740157476
20
-3.7943307086614171
11
6.2521577165354332
21
-3.7935774015748032
0
LINE
8
BLACK
6
CONTINUOUS
10
6.2521577165354332
20
-3.7935774015748032
11
6.2525844488188973
21
-3.7929387795275589
0
LINE
8
BLACK
6
CONTINUOUS
10
6.2525844488188973
20
-3.7929387795275589
11
6.2532230708661416
21
-3.7925120472440943
0
LINE
8
BLACK
6
CONTINUOUS
10
6.2532230708661416
20
-3.7925120472440943
11
6.253976377952756
21
-3.7923622047244092
0
LINE
8
BLACK
6
CONTINUOUS
10
6.253976377952756
20
-3.7923622047244092
11
6.2716929133858264
21
-3.7923622047244092
0
LINE
8
BLACK
6
CONTINUOUS
10
6.2716929133858264
20
-3.7923622047244092
11
6.2724462204724407
21
-3.7925120472440943
0
LINE
8
BLACK
6
CONTINUOUS
10
6.49011811023622
20
-3.7969291338582676
11
6.4330314960629922
21
-3.7969291338582676
0
LINE
8
BLACK
6
CONTINUOUS
10
6.4330314960629922
20
-3.7969291338582676
11
6.4330314960629922
21
-3.7792125984251967
0
LINE
8
BLACK
6
CONTINUOUS
10
6.4330314960629922
20
-3.7792125984251967
11
6.49011811023622
21
-3.7792125984251967
0
LINE
8
BLACK
6
CONTINUOUS
10
6.49011811023622
20
-3.7792125984251967
11
6.49011811023622
21
-3.7969291338582676
0
LINE
8
BLACK
6
CONTINUOUS
10
6.7224015748031496
20
-3.7969291338582676
11
6.6653149606299209
21
-3.7969291338582676
0
LINE
8
BLACK
6
CONTINUOUS
10
6.6653149606299209
20
-3.7969291338582676
11
6.6653149606299209
21
-3.7792125984251967
0
LINE
8
BLACK
6
CONTINUOUS
10
6.6653149606299209
20
-3.7792125984251967
11
6.7224015748031496
21
-3.7792125984251967
0
LINE
8
BLACK
6
CONTINUOUS
10
6.7224015748031496
20
-3.7792125984251967
11
6.7224015748031496
21
-3.7969291338582676
0
LINE
8
BLACK
6
CONTINUOUS
10
5.7200787401574802
20
-3.7866141732283465
11
5.7003937007874015
21
-3.7866141732283465
0
LINE
8
BLACK
6
CONTINUOUS
10
5.7003937007874015
20
-3.7866141732283465
11
5.7003937007874015
21
-3.7078740157480312
0
LINE
8
BLACK
6
CONTINUOUS
10
5.7003937007874015
20
-3.7078740157480312
11
5.7200787401574802
21
-3.7078740157480312
0
LINE
8
BLACK
6
CONTINUOUS
10
5.7200787401574802
20
-3.7078740157480312
11
5.7200787401574802
21
-3.7866141732283465
0
LINE
8
BLACK
6
CONTINUOUS
10
5.7594488188976376
20
-3.7866141732283465
11
5.7397637795275589
21
-3.7866141732283465
0
LINE
8
BLACK
6
CONTINUOUS
10
5.7397637795275589
20
-3.7866141732283465
11
5.7397637795275589
21
-3.7078740157480312
0
LINE
8
BLACK
6
CONTINUOUS
10
5.7397637795275589
20
-3.7078740157480312
11
5.7594488188976376
21
-3.7078740157480312
0
LINE
8
BLACK
6
CONTINUOUS
10
5.7594488188976376
20
-3.7078740157480312
11
5.7594488188976376
21
-3.7866141732283465
0
LINE
8
BLACK
6
CONTINUOUS
10
5.798818897637795
20
-3.7866141732283465
11
5.7791338582677163
21
-3.7866141732283465
0
LINE
8
BLACK
6
CONTINUOUS
10
5.7791338582677163
20
-3.7866141732283465
11
5.7791338582677163
21
-3.7078740157480312
0
LINE
8
BLACK
6
CONTINUOUS
10
5.7791338582677163
20
-3.7078740157480312
11
5.798818897637795
21
-3.7078740157480312
0
LINE
8
BLACK
6
CONTINUOUS
10
5.798818897637795
20
-3.7078740157480312
11
5.798818897637795
21
-3.7866141732283465
0
LINE
8
BLACK
6
CONTINUOUS
10
5.8381889763779524
20
-3.7866141732283465
11
5.8185039370078737
21
-3.7866141732283465
0
LINE
8
BLACK
6
CONTINUOUS
10
5.8185039370078737
20
-3.7866141732283465
11
5.8185039370078737
21
-3.7078740157480312
0
LINE
8
BLACK
6
CONTINUOUS
10
5.8185039370078737
20
-3.7078740157480312
11
5.8381889763779524
21
-3.7078740157480312
0
LINE
8
BLACK
6
CONTINUOUS
10
5.8381889763779524
20
-3.7078740157480312
11
5.8381889763779524
21
-3.7866141732283465
0
LINE
8
BLACK
6
CONTINUOUS
10
5.8775590551181098
20
-3.7866141732283465
11
5.8578740157480311
21
-3.7866141732283465
0
LINE
8
BLACK
6
CONTINUOUS
10
5.8578740157480311
20
-3.7866141732283465
11
5.8578740157480311
21
-3.7078740157480312
0
LINE
8
BLACK
6
CONTINUOUS
10
5.8578740157480311
20
-3.7078740157480312
11
5.8775590551181098
21
-3.7078740157480312
0
LINE
8
BLACK
6
CONTINUOUS
10
5.8775590551181098
20
-3.7078740157480312
11
5.8775590551181098
21
-3.7866141732283465
0
LINE
8
BLACK
6
CONTINUOUS
10
6.1543359842519685
20
-3.7767640157480313
11
6.1549746062992128
21
-3.7771907480314959
0
LINE
8
BLACK
6
CONTINUOUS
10
6.1549746062992128
20
-3.7771907480314959
11
6.1554013385826769
21
-3.7778293700787402
0
LINE
8
BLACK
6
CONTINUOUS
10
6.1554013385826769
20
-3.7778293700787402
11
6.1555511811023624
21
-3.7785826771653541
0
LINE
8
BLACK
6
CONTINUOUS
10
6.1555511811023624
20
-3.7785826771653541
11
6.1555511811023624
21
-3.7825196850393699
0
LINE
8
BLACK
6
CONTINUOUS
10
6.1555511811023624
20
-3.7825196850393699
11
6.1554013385826769
21
-3.7832729921259842
0
LINE
8
BLACK
6
CONTINUOUS
10
6.1554013385826769
20
-3.7832729921259842
11
6.1549746062992128
21
-3.7839116141732281
0
LINE
8
BLACK
6
CONTINUOUS
10
6.1549746062992128
20
-3.7839116141732281
11
6.1543359842519685
21
-3.7843383464566926
0
LINE
8
BLACK
6
CONTINUOUS
10
6.1543359842519685
20
-3.7843383464566926
11
6.1535826771653541
21
-3.7844881889763777
0
LINE
8
BLACK
6
CONTINUOUS
10
6.1535826771653541
20
-3.7844881889763777
11
6.1358661417322837
21
-3.7844881889763777
0
LINE
8
BLACK
6
CONTINUOUS
10
6.1358661417322837
20
-3.7844881889763777
11
6.1351128346456694
21
-3.7843383464566926
0
LINE
8
BLACK
6
CONTINUOUS
10
6.1351128346456694
20
-3.7843383464566926
11
6.1344742125984251
21
-3.7839116141732281
0
LINE
8
BLACK
6
CONTINUOUS
10
6.1344742125984251
20
-3.7839116141732281
11
6.1340474803149601
21
-3.7832729921259842
0
LINE
8
BLACK
6
CONTINUOUS
10
6.1340474803149601
20
-3.7832729921259842
11
6.1338976377952754
21
-3.7825196850393699
0
LINE
8
BLACK
6
CONTINUOUS
10
6.1338976377952754
20
-3.7825196850393699
11
6.1338976377952754
21
-3.7785826771653541
0
LINE
8
BLACK
6
CONTINUOUS
10
6.1338976377952754
20
-3.7785826771653541
11
6.1340474803149601
21
-3.7778293700787402
0
LINE
8
BLACK
6
CONTINUOUS
10
6.1340474803149601
20
-3.7778293700787402
11
6.1344742125984251
21
-3.7771907480314959
0
LINE
8
BLACK
6
CONTINUOUS
10
6.1344742125984251
20
-3.7771907480314959
11
6.1351128346456694
21
-3.7767640157480313
0
LINE
8
BLACK
6
CONTINUOUS
10
6.1351128346456694
20
-3.7767640157480313
11
6.1358661417322837
21
-3.7766141732283462
0
LINE
8
BLACK
6
CONTINUOUS
10
6.1358661417322837
20
-3.7766141732283462
11
6.1535826771653541
21
-3.7766141732283462
0
LINE
8
BLACK
6
CONTINUOUS
10
6.1535826771653541
20
-3.7766141732283462
11
6.1543359842519685
21
-3.7767640157480313
0
LINE
8
BLACK
6
CONTINUOUS
10
6.2724462204724407
20
-3.7767640157480313
11
6.273084842519685
21
-3.7771907480314959
0
LINE
8
BLACK
6
CONTINUOUS
10
6.273084842519685
20
-3.7771907480314959
11
6.2735115748031491
21
-3.7778293700787402
0
LINE
8
BLACK
6
CONTINUOUS
10
6.2735115748031491
20
-3.7778293700787402
11
6.2736614173228347
21
-3.7785826771653541
0
LINE
8
BLACK
6
CONTINUOUS
10
6.2736614173228347
20
-3.7785826771653541
11
6.2736614173228347
21
-3.7825196850393699
0
LINE
8
BLACK
6
CONTINUOUS
10
6.2736614173228347
20
-3.7825196850393699
11
6.2735115748031491
21
-3.7832729921259842
0
LINE
8
BLACK
6
CONTINUOUS
10
6.2735115748031491
20
-3.7832729921259842
11
6.273084842519685
21
-3.7839116141732281
0
LINE
8
BLACK
6
CONTINUOUS
10
6.273084842519685
20
-3.7839116141732281
11
6.2724462204724407
21
-3.7843383464566926
0
LINE
8
BLACK
6
CONTINUOUS
10
6.2724462204724407
20
-3.7843383464566926
11
6.2716929133858264
21
-3.7844881889763777
0
LINE
8
BLACK
6
CONTINUOUS
10
6.2716929133858264
20
-3.7844881889763777
11
6.253976377952756
21
-3.7844881889763777
0
LINE
8
BLACK
6
CONTINUOUS
10
6.253976377952756
20
-3.7844881889763777
11
6.2532230708661416
21
-3.7843383464566926
0
LINE
8
BLACK
6
CONTINUOUS
10
6.2532230708661416
20
-3.7843383464566926
11
6.2525844488188973
21
-3.7839116141732281
0
LINE
8
BLACK
6
CONTINUOUS
10
6.2525844488188973
20
-3.7839116141732281
11
6.2521577165354332
21
-3.7832729921259842
0
LINE
8
BLACK
6
CONTINUOUS
10
6.2521577165354332
20
-3.7832729921259842
11
6.2520078740157476
21
-3.7825196850393699
0
LINE
8
BLACK
6
CONTINUOUS
10
6.2520078740157476
20
-3.7825196850393699
11
6.2520078740157476
21
-3.7785826771653541
0
LINE
8
BLACK
6
CONTINUOUS
10
6.2520078740157476
20
-3.7785826771653541
11
6.2521577165354332
21
-3.7778293700787402
0
LINE
8
BLACK
6
CONTINUOUS
10
6.2521577165354332
20
-3.7778293700787402
11
6.2525844488188973
21
-3.7771907480314959
0
LINE
8
BLACK
6
CONTINUOUS
10
6.2525844488188973
20
-3.7771907480314959
11
6.2532230708661416
21
-3.7767640157480313
0
LINE
8
BLACK
6
CONTINUOUS
10
6.2532230708661416
20
-3.7767640157480313
11
6.253976377952756
21
-3.7766141732283462
0
LINE
8
BLACK
6
CONTINUOUS
10
6.253976377952756
20
-3.7766141732283462
11
6.2716929133858264
21
-3.7766141732283462
0
LINE
8
BLACK
6
CONTINUOUS
10
6.2716929133858264
20
-3.7766141732283462
11
6.2724462204724407
21
-3.7767640157480313
0
LINE
8
BLACK
6
CONTINUOUS
10
6.49011811023622
20
-3.7713385826771653
11
6.4330314960629922
21
-3.7713385826771653
0
LINE
8
BLACK
6
CONTINUOUS
10
6.4330314960629922
20
-3.7713385826771653
11
6.4330314960629922
21
-3.7536220472440944
0
LINE
8
BLACK
6
CONTINUOUS
10
6.4330314960629922
20
-3.7536220472440944
11
6.49011811023622
21
-3.7536220472440944
0
LINE
8
BLACK
6
CONTINUOUS
10
6.49011811023622
20
-3.7536220472440944
11
6.49011811023622
21
-3.7713385826771653
0
LINE
8
BLACK
6
CONTINUOUS
10
6.7224015748031496
20
-3.7713385826771653
11
6.6653149606299209
21
-3.7713385826771653
0
LINE
8
BLACK
6
CONTINUOUS
10
6.6653149606299209
20
-3.7713385826771653
11
6.6653149606299209
21
-3.7536220472440944
0
LINE
8
BLACK
6
CONTINUOUS
10
6.6653149606299209
20
-3.7536220472440944
11
6.7224015748031496
21
-3.7536220472440944
0
LINE
8
BLACK
6
CONTINUOUS
10
6.7224015748031496
20
-3.7536220472440944
11
6.7224015748031496
21
-3.7713385826771653
0
LINE
8
BLACK
6
CONTINUOUS
10
6.1543359842519685
20
-3.7610159842519684
11
6.1549746062992128
21
-3.7614427165354329
0
LINE
8
BLACK
6
CONTINUOUS
10
6.1549746062992128
20
-3.7614427165354329
11
6.1554013385826769
21
-3.7620813385826772
0
LINE
8
BLACK
6
CONTINUOUS
10
6.1554013385826769
20
-3.7620813385826772
11
6.1555511811023624
21
-3.7628346456692912
0
LINE
8
BLACK
6
CONTINUOUS
10
6.1555511811023624
20
-3.7628346456692912
11
6.1555511811023624
21
-3.7667716535433069
0
LINE
8
BLACK
6
CONTINUOUS
10
6.1555511811023624
20
-3.7667716535433069
11
6.1554013385826769
21
-3.7675249606299213
0
LINE
8
BLACK
6
CONTINUOUS
10
6.1554013385826769
20
-3.7675249606299213
11
6.1549746062992128
21
-3.7681635826771651
0
LINE
8
BLACK
6
CONTINUOUS
10
6.1549746062992128
20
-3.7681635826771651
11
6.1543359842519685
21
-3.7685903149606297
0
LINE
8
BLACK
6
CONTINUOUS
10
6.1543359842519685
20
-3.7685903149606297
11
6.1535826771653541
21
-3.7687401574803148
0
LINE
8
BLACK
6
CONTINUOUS
10
6.1535826771653541
20
-3.7687401574803148
11
6.1358661417322837
21
-3.7687401574803148
0
LINE
8
BLACK
6
CONTINUOUS
10
6.1358661417322837
20
-3.7687401574803148
11
6.1351128346456694
21
-3.7685903149606297
0
LINE
8
BLACK
6
CONTINUOUS
10
6.1351128346456694
20
-3.7685903149606297
11
6.1344742125984251
21
-3.7681635826771651
0
LINE
8
BLACK
6
CONTINUOUS
10
6.1344742125984251
20
-3.7681635826771651
11
6.1340474803149601
21
-3.7675249606299213
0
LINE
8
BLACK
6
CONTINUOUS
10
6.1340474803149601
20
-3.7675249606299213
11
6.1338976377952754
21
-3.7667716535433069
0
LINE
8
BLACK
6
CONTINUOUS
10
6.1338976377952754
20
-3.7667716535433069
11
6.1338976377952754
21
-3.7628346456692912
0
LINE
8
BLACK
6
CONTINUOUS
10
6.1338976377952754
20
-3.7628346456692912
11
6.1340474803149601
21
-3.7620813385826772
0
LINE
8
BLACK
6
CONTINUOUS
10
6.1340474803149601
20
-3.7620813385826772
11
6.1344742125984251
21
-3.7614427165354329
0
LINE
8
BLACK
6
CONTINUOUS
10
6.1344742125984251
20
-3.7614427165354329
11
6.1351128346456694
21
-3.7610159842519684
0
LINE
8
BLACK
6
CONTINUOUS
10
6.1351128346456694
20
-3.7610159842519684
11
6.1358661417322837
21
-3.7608661417322833
0
LINE
8
BLACK
6
CONTINUOUS
10
6.1358661417322837
20
-3.7608661417322833
11
6.1535826771653541
21
-3.7608661417322833
0
LINE
8
BLACK
6
CONTINUOUS
10
6.1535826771653541
20
-3.7608661417322833
11
6.1543359842519685
21
-3.7610159842519684
0
LINE
8
BLACK
6
CONTINUOUS
10
6.2724462204724407
20
-3.7610159842519684
11
6.273084842519685
21
-3.7614427165354329
0
LINE
8
BLACK
6
CONTINUOUS
10
6.273084842519685
20
-3.7614427165354329
11
6.2735115748031491
21
-3.7620813385826772
0
LINE
8
BLACK
6
CONTINUOUS
10
6.2735115748031491
20
-3.7620813385826772
11
6.2736614173228347
21
-3.7628346456692912
0
LINE
8
BLACK
6
CONTINUOUS
10
6.2736614173228347
20
-3.7628346456692912
11
6.2736614173228347
21
-3.7667716535433069
0
LINE
8
BLACK
6
CONTINUOUS
10
6.2736614173228347
20
-3.7667716535433069
11
6.2735115748031491
21
-3.7675249606299213
0
LINE
8
BLACK
6
CONTINUOUS
10
6.2735115748031491
20
-3.7675249606299213
11
6.273084842519685
21
-3.7681635826771651
0
LINE
8
BLACK
6
CONTINUOUS
10
6.273084842519685
20
-3.7681635826771651
11
6.2724462204724407
21
-3.7685903149606297
0
LINE
8
BLACK
6
CONTINUOUS
10
6.2724462204724407
20
-3.7685903149606297
11
6.2716929133858264
21
-3.7687401574803148
0
LINE
8
BLACK
6
CONTINUOUS
10
6.2716929133858264
20
-3.7687401574803148
11
6.253976377952756
21
-3.7687401574803148
0
LINE
8
BLACK
6
CONTINUOUS
10
6.253976377952756
20
-3.7687401574803148
11
6.2532230708661416
21
-3.7685903149606297
0
LINE
8
BLACK
6
CONTINUOUS
10
6.2532230708661416
20
-3.7685903149606297
11
6.2525844488188973
21
-3.7681635826771651
0
LINE
8
BLACK
6
CONTINUOUS
10
6.2525844488188973
20
-3.7681635826771651
11
6.2521577165354332
21
-3.7675249606299213
0
LINE
8
BLACK
6
CONTINUOUS
10
6.2521577165354332
20
-3.7675249606299213
11
6.2520078740157476
21
-3.7667716535433069
0
LINE
8
BLACK
6
CONTINUOUS
10
6.2520078740157476
20
-3.7667716535433069
11
6.2520078740157476
21
-3.7628346456692912
0
LINE
8
BLACK
6
CONTINUOUS
10
6.2520078740157476
20
-3.7628346456692912
11
6.2521577165354332
21
-3.7620813385826772
0
LINE
8
BLACK
6
CONTINUOUS
10
6.2521577165354332
20
-3.7620813385826772
11
6.2525844488188973
21
-3.7614427165354329
0
LINE
8
BLACK
6
CONTINUOUS
10
6.2525844488188973
20
-3.7614427165354329
11
6.2532230708661416
21
-3.7610159842519684
0
LINE
8
BLACK
6
CONTINUOUS
10
6.2532230708661416
20
-3.7610159842519684
11
6.253976377952756
21
-3.7608661417322833
0
LINE
8
BLACK
6
CONTINUOUS
10
6.253976377952756
20
-3.7608661417322833
11
6.2716929133858264
21
-3.7608661417322833
0
LINE
8
BLACK
6
CONTINUOUS
10
6.2716929133858264
20
-3.7608661417322833
11
6.2724462204724407
21
-3.7610159842519684
0
LINE
8
BLACK
6
CONTINUOUS
10
6.8507638976377949
20
-3.7437566141732281
11
6.8526797637795278
21
-3.7450367716535431
0
LINE
8
BLACK
6
CONTINUOUS
10
6.8526797637795278
20
-3.7450367716535431
11
6.8539599212598423
21
-3.7469526377952755
0
LINE
8
BLACK
6
CONTINUOUS
10
6.8539599212598423
20
-3.7469526377952755
11
6.8544094488188971
21
-3.7492125984251969
0
LINE
8
BLACK
6
CONTINUOUS
10
6.8544094488188971
20
-3.7492125984251969
11
6.8544094488188971
21
-3.7610236220472442
0
LINE
8
BLACK
6
CONTINUOUS
10
6.8544094488188971
20
-3.7610236220472442
11
6.8539599212598423
21
-3.7632835826771651
0
LINE
8
BLACK
6
CONTINUOUS
10
6.8539599212598423
20
-3.7632835826771651
11
6.8526797637795278
21
-3.7651994488188976
0
LINE
8
BLACK
6
CONTINUOUS
10
6.8526797637795278
20
-3.7651994488188976
11
6.8507638976377949
21
-3.7664796062992125
0
LINE
8
BLACK
6
CONTINUOUS
10
6.8507638976377949
20
-3.7664796062992125
11
6.848503937007874
21
-3.7669291338582678
0
LINE
8
BLACK
6
CONTINUOUS
10
6.848503937007874
20
-3.7669291338582678
11
6.7933858267716536
21
-3.7669291338582678
0
LINE
8
BLACK
6
CONTINUOUS
10
6.7933858267716536
20
-3.7669291338582678
11
6.7911258661417317
21
-3.7664796062992125
0
LINE
8
BLACK
6
CONTINUOUS
10
6.7911258661417317
20
-3.7664796062992125
11
6.7892099999999997
21
-3.7651994488188976
0
LINE
8
BLACK
6
CONTINUOUS
10
6.7892099999999997
20
-3.7651994488188976
11
6.7879298425196852
21
-3.7632835826771651
0
LINE
8
BLACK
6
CONTINUOUS
10
6.7879298425196852
20
-3.7632835826771651
11
6.7874803149606295
21
-3.7610236220472442
0
LINE
8
BLACK
6
CONTINUOUS
10
6.7874803149606295
20
-3.7610236220472442
11
6.7874803149606295
21
-3.7492125984251969
0
LINE
8
BLACK
6
CONTINUOUS
10
6.7874803149606295
20
-3.7492125984251969
11
6.7879298425196852
21
-3.7469526377952755
0
LINE
8
BLACK
6
CONTINUOUS
10
6.7879298425196852
20
-3.7469526377952755
11
6.7892099999999997
21
-3.7450367716535431
0
LINE
8
BLACK
6
CONTINUOUS
10
6.7892099999999997
20
-3.7450367716535431
11
6.7911258661417317
21
-3.7437566141732281
0
LINE
8
BLACK
6
CONTINUOUS
10
6.7911258661417317
20
-3.7437566141732281
11
6.7933858267716536
21
-3.7433070866141733
0
LINE
8
BLACK
6
CONTINUOUS
10
6.7933858267716536
20
-3.7433070866141733
11
6.848503937007874
21
-3.7433070866141733
0
LINE
8
BLACK
6
CONTINUOUS
10
6.848503937007874
20
-3.7433070866141733
11
6.8507638976377949
21
-3.7437566141732281
0
LINE
8
BLACK
6
CONTINUOUS
10
6.3771638582677168
20
-3.7271122440944882
11
6.3799578740157479
21
-3.7289791338582678
0
LINE
8
BLACK
6
CONTINUOUS
10
6.3799578740157479
20
-3.7289791338582678
11
6.3818247637795276
21
-3.7317731496062989
0
LINE
8
BLACK
6
CONTINUOUS
10
6.3818247637795276
20
-3.7317731496062989
11
6.3824803149606302
21
-3.7350688976377953
0
LINE
8
BLACK
6
CONTINUOUS
10
6.3824803149606302
20
-3.7350688976377953
11
6.3824803149606302
21
-3.7522933070866142
0
LINE
8
BLACK
6
CONTINUOUS
10
6.3824803149606302
20
-3.7522933070866142
11
6.3818247637795276
21
-3.7555890551181101
0
LINE
8
BLACK
6
CONTINUOUS
10
6.3818247637795276
20
-3.7555890551181101
11
6.3799578740157479
21
-3.7583830708661417
0
LINE
8
BLACK
6
CONTINUOUS
10
6.3799578740157479
20
-3.7583830708661417
11
6.3771638582677168
21
-3.7602499606299213
0
LINE
8
BLACK
6
CONTINUOUS
10
6.3771638582677168
20
-3.7602499606299213
11
6.37386811023622
21
-3.7609055118110235
0
LINE
8
BLACK
6
CONTINUOUS
10
6.37386811023622
20
-3.7609055118110235
11
6.3536909448818895
21
-3.7609055118110235
0
LINE
8
BLACK
6
CONTINUOUS
10
6.3536909448818895
20
-3.7609055118110235
11
6.3503951968503936
21
-3.7602499606299213
0
LINE
8
BLACK
6
CONTINUOUS
10
6.3503951968503936
20
-3.7602499606299213
11
6.3476011811023625
21
-3.7583830708661417
0
LINE
8
BLACK
6
CONTINUOUS
10
6.3476011811023625
20
-3.7583830708661417
11
6.3457342913385828
21
-3.7555890551181101
0
LINE
8
BLACK
6
CONTINUOUS
10
6.3457342913385828
20
-3.7555890551181101
11
6.3450787401574802
21
-3.7522933070866142
0
LINE
8
BLACK
6
CONTINUOUS
10
6.3450787401574802
20
-3.7522933070866142
11
6.3450787401574802
21
-3.7350688976377953
0
LINE
8
BLACK
6
CONTINUOUS
10
6.3450787401574802
20
-3.7350688976377953
11
6.3457342913385828
21
-3.7317731496062989
0
LINE
8
BLACK
6
CONTINUOUS
10
6.3457342913385828
20
-3.7317731496062989
11
6.3476011811023625
21
-3.7289791338582678
0
LINE
8
BLACK
6
CONTINUOUS
10
6.3476011811023625
20
-3.7289791338582678
11
6.3503951968503936
21
-3.7271122440944882
0
LINE
8
BLACK
6
CONTINUOUS
10
6.3503951968503936
20
-3.7271122440944882
11
6.3536909448818895
21
-3.7264566929133855
0
LINE
8
BLACK
6
CONTINUOUS
10
6.3536909448818895
20
-3.7264566929133855
11
6.37386811023622
21
-3.7264566929133855
0
LINE
8
BLACK
6
CONTINUOUS
10
6.37386811023622
20
-3.7264566929133855
11
6.3771638582677168
21
-3.7271122440944882
0
LINE
8
BLACK
6
CONTINUOUS
10
6.1543359842519685
20
-3.7452679527559054
11
6.1549746062992128
21
-3.74569468503937
0
LINE
8
BLACK
6
CONTINUOUS
10
6.1549746062992128
20
-3.74569468503937
11
6.1554013385826769
21
-3.7463333070866143
0
LINE
8
BLACK
6
CONTINUOUS
10
6.1554013385826769
20
-3.7463333070866143
11
6.1555511811023624
21
-3.7470866141732282
0
LINE
8
BLACK
6
CONTINUOUS
10
6.1555511811023624
20
-3.7470866141732282
11
6.1555511811023624
21
-3.7510236220472439
0
LINE
8
BLACK
6
CONTINUOUS
10
6.1555511811023624
20
-3.7510236220472439
11
6.1554013385826769
21
-3.7517769291338583
0
LINE
8
BLACK
6
CONTINUOUS
10
6.1554013385826769
20
-3.7517769291338583
11
6.1549746062992128
21
-3.7524155511811021
0
LINE
8
BLACK
6
CONTINUOUS
10
6.1549746062992128
20
-3.7524155511811021
11
6.1543359842519685
21
-3.7528422834645667
0
LINE
8
BLACK
6
CONTINUOUS
10
6.1543359842519685
20
-3.7528422834645667
11
6.1535826771653541
21
-3.7529921259842518
0
LINE
8
BLACK
6
CONTINUOUS
10
6.1535826771653541
20
-3.7529921259842518
11
6.1358661417322837
21
-3.7529921259842518
0
LINE
8
BLACK
6
CONTINUOUS
10
6.1358661417322837
20
-3.7529921259842518
11
6.1351128346456694
21
-3.7528422834645667
0
LINE
8
BLACK
6
CONTINUOUS
10
6.1351128346456694
20
-3.7528422834645667
11
6.1344742125984251
21
-3.7524155511811021
0
LINE
8
BLACK
6
CONTINUOUS
10
6.1344742125984251
20
-3.7524155511811021
11
6.1340474803149601
21
-3.7517769291338583
0
LINE
8
BLACK
6
CONTINUOUS
10
6.1340474803149601
20
-3.7517769291338583
11
6.1338976377952754
21
-3.7510236220472439
0
LINE
8
BLACK
6
CONTINUOUS
10
6.1338976377952754
20
-3.7510236220472439
11
6.1338976377952754
21
-3.7470866141732282
0
LINE
8
BLACK
6
CONTINUOUS
10
6.1338976377952754
20
-3.7470866141732282
11
6.1340474803149601
21
-3.7463333070866143
0
LINE
8
BLACK
6
CONTINUOUS
10
6.1340474803149601
20
-3.7463333070866143
11
6.1344742125984251
21
-3.74569468503937
0
LINE
8
BLACK
6
CONTINUOUS
10
6.1344742125984251
20
-3.74569468503937
11
6.1351128346456694
21
-3.7452679527559054
0
LINE
8
BLACK
6
CONTINUOUS
10
6.1351128346456694
20
-3.7452679527559054
11
6.1358661417322837
21
-3.7451181102362203
0
LINE
8
BLACK
6
CONTINUOUS
10
6.1358661417322837
20
-3.7451181102362203
11
6.1535826771653541
21
-3.7451181102362203
0
LINE
8
BLACK
6
CONTINUOUS
10
6.1535826771653541
20
-3.7451181102362203
11
6.1543359842519685
21
-3.7452679527559054
0
LINE
8
BLACK
6
CONTINUOUS
10
6.2724462204724407
20
-3.7452679527559054
11
6.273084842519685
21
-3.74569468503937
0
LINE
8
BLACK
6
CONTINUOUS
10
6.273084842519685
20
-3.74569468503937
11
6.2735115748031491
21
-3.7463333070866143
0
LINE
8
BLACK
6
CONTINUOUS
10
6.2735115748031491
20
-3.7463333070866143
11
6.2736614173228347
21
-3.7470866141732282
0
LINE
8
BLACK
6
CONTINUOUS
10
6.2736614173228347
20
-3.7470866141732282
11
6.2736614173228347
21
-3.7510236220472439
0
LINE
8
BLACK
6
CONTINUOUS
10
6.2736614173228347
20
-3.7510236220472439
11
6.2735115748031491
21
-3.7517769291338583
0
LINE
8
BLACK
6
CONTINUOUS
10
6.2735115748031491
20
-3.7517769291338583
11
6.273084842519685
21
-3.7524155511811021
0
LINE
8
BLACK
6
CONTINUOUS
10
6.273084842519685
20
-3.7524155511811021
11
6.2724462204724407
21
-3.7528422834645667
0
LINE
8
BLACK
6
CONTINUOUS
10
6.2724462204724407
20
-3.7528422834645667
11
6.2716929133858264
21
-3.7529921259842518
0
LINE
8
BLACK
6
CONTINUOUS
10
6.2716929133858264
20
-3.7529921259842518
11
6.253976377952756
21
-3.7529921259842518
0
LINE
8
BLACK
6
CONTINUOUS
10
6.253976377952756
20
-3.7529921259842518
11
6.2532230708661416
21
-3.7528422834645667
0
LINE
8
BLACK
6
CONTINUOUS
10
6.2532230708661416
20
-3.7528422834645667
11
6.2525844488188973
21
-3.7524155511811021
0
LINE
8
BLACK
6
CONTINUOUS
10
6.2525844488188973
20
-3.7524155511811021
11
6.2521577165354332
21
-3.7517769291338583
0
LINE
8
BLACK
6
CONTINUOUS
10
6.2521577165354332
20
-3.7517769291338583
11
6.2520078740157476
21
-3.7510236220472439
0
LINE
8
BLACK
6
CONTINUOUS
10
6.2520078740157476
20
-3.7510236220472439
11
6.2520078740157476
21
-3.7470866141732282
0
LINE
8
BLACK
6
CONTINUOUS
10
6.2520078740157476
20
-3.7470866141732282
11
6.2521577165354332
21
-3.7463333070866143
0
LINE
8
BLACK
6
CONTINUOUS
10
6.2521577165354332
20
-3.7463333070866143
11
6.2525844488188973
21
-3.74569468503937
0
LINE
8
BLACK
6
CONTINUOUS
10
6.2525844488188973
20
-3.74569468503937
11
6.2532230708661416
21
-3.7452679527559054
0
LINE
8
BLACK
6
CONTINUOUS
10
6.2532230708661416
20
-3.7452679527559054
11
6.253976377952756
21
-3.7451181102362203
0
LINE
8
BLACK
6
CONTINUOUS
10
6.253976377952756
20
-3.7451181102362203
11
6.2716929133858264
21
-3.7451181102362203
0
LINE
8
BLACK
6
CONTINUOUS
10
6.2716929133858264
20
-3.7451181102362203
11
6.2724462204724407
21
-3.7452679527559054
0
LINE
8
BLACK
6
CONTINUOUS
10
6.49011811023622
20
-3.7457480314960629
11
6.4330314960629922
21
-3.7457480314960629
0
LINE
8
BLACK
6
CONTINUOUS
10
6.4330314960629922
20
-3.7457480314960629
11
6.4330314960629922
21
-3.7280314960629921
0
LINE
8
BLACK
6
CONTINUOUS
10
6.4330314960629922
20
-3.7280314960629921
11
6.49011811023622
21
-3.7280314960629921
0
LINE
8
BLACK
6
CONTINUOUS
10
6.49011811023622
20
-3.7280314960629921
11
6.49011811023622
21
-3.7457480314960629
0
LINE
8
BLACK
6
CONTINUOUS
10
6.7224015748031496
20
-3.7457480314960629
11
6.6653149606299209
21
-3.7457480314960629
0
LINE
8
BLACK
6
CONTINUOUS
10
6.6653149606299209
20
-3.7457480314960629
11
6.6653149606299209
21
-3.7280314960629921
0
LINE
8
BLACK
6
CONTINUOUS
10
6.6653149606299209
20
-3.7280314960629921
11
6.7224015748031496
21
-3.7280314960629921
0
LINE
8
BLACK
6
CONTINUOUS
10
6.7224015748031496
20
-3.7280314960629921
11
6.7224015748031496
21
-3.7457480314960629
0
LINE
8
BLACK
6
CONTINUOUS
10
6.1543359842519685
20
-3.7295199212598424
11
6.1549746062992128
21
-3.729946653543307
0
LINE
8
BLACK
6
CONTINUOUS
10
6.1549746062992128
20
-3.729946653543307
11
6.1554013385826769
21
-3.7305852755905513
0
LINE
8
BLACK
6
CONTINUOUS
10
6.1554013385826769
20
-3.7305852755905513
11
6.1555511811023624
21
-3.7313385826771652
0
LINE
8
BLACK
6
CONTINUOUS
10
6.1555511811023624
20
-3.7313385826771652
11
6.1555511811023624
21
-3.735275590551181
0
LINE
8
BLACK
6
CONTINUOUS
10
6.1555511811023624
20
-3.735275590551181
11
6.1554013385826769
21
-3.7360288976377953
0
LINE
8
BLACK
6
CONTINUOUS
10
6.1554013385826769
20
-3.7360288976377953
11
6.1549746062992128
21
-3.7366675196850392
0
LINE
8
BLACK
6
CONTINUOUS
10
6.1549746062992128
20
-3.7366675196850392
11
6.1543359842519685
21
-3.7370942519685038
0
LINE
8
BLACK
6
CONTINUOUS
10
6.1543359842519685
20
-3.7370942519685038
11
6.1535826771653541
21
-3.7372440944881888
0
LINE
8
BLACK
6
CONTINUOUS
10
6.1535826771653541
20
-3.7372440944881888
11
6.1358661417322837
21
-3.7372440944881888
0
LINE
8
BLACK
6
CONTINUOUS
10
6.1358661417322837
20
-3.7372440944881888
11
6.1351128346456694
21
-3.7370942519685038
0
LINE
8
BLACK
6
CONTINUOUS
10
6.1351128346456694
20
-3.7370942519685038
11
6.1344742125984251
21
-3.7366675196850392
0
LINE
8
BLACK
6
CONTINUOUS
10
6.1344742125984251
20
-3.7366675196850392
11
6.1340474803149601
21
-3.7360288976377953
0
LINE
8
BLACK
6
CONTINUOUS
10
6.1340474803149601
20
-3.7360288976377953
11
6.1338976377952754
21
-3.735275590551181
0
LINE
8
BLACK
6
CONTINUOUS
10
6.1338976377952754
20
-3.735275590551181
11
6.1338976377952754
21
-3.7313385826771652
0
LINE
8
BLACK
6
CONTINUOUS
10
6.1338976377952754
20
-3.7313385826771652
11
6.1340474803149601
21
-3.7305852755905513
0
LINE
8
BLACK
6
CONTINUOUS
10
6.1340474803149601
20
-3.7305852755905513
11
6.1344742125984251
21
-3.729946653543307
0
LINE
8
BLACK
6
CONTINUOUS
10
6.1344742125984251
20
-3.729946653543307
11
6.1351128346456694
21
-3.7295199212598424
0
LINE
8
BLACK
6
CONTINUOUS
10
6.1351128346456694
20
-3.7295199212598424
11
6.1358661417322837
21
-3.7293700787401574
0
LINE
8
BLACK
6
CONTINUOUS
10
6.1358661417322837
20
-3.7293700787401574
11
6.1535826771653541
21
-3.7293700787401574
0
LINE
8
BLACK
6
CONTINUOUS
10
6.1535826771653541
20
-3.7293700787401574
11
6.1543359842519685
21
-3.7295199212598424
0
LINE
8
BLACK
6
CONTINUOUS
10
6.2724462204724407
20
-3.7295199212598424
11
6.273084842519685
21
-3.729946653543307
0
LINE
8
BLACK
6
CONTINUOUS
10
6.273084842519685
20
-3.729946653543307
11
6.2735115748031491
21
-3.7305852755905513
0
LINE
8
BLACK
6
CONTINUOUS
10
6.2735115748031491
20
-3.7305852755905513
11
6.2736614173228347
21
-3.7313385826771652
0
LINE
8
BLACK
6
CONTINUOUS
10
6.2736614173228347
20
-3.7313385826771652
11
6.2736614173228347
21
-3.735275590551181
0
LINE
8
BLACK
6
CONTINUOUS
10
6.2736614173228347
20
-3.735275590551181
11
6.2735115748031491
21
-3.7360288976377953
0
LINE
8
BLACK
6
CONTINUOUS
10
6.2735115748031491
20
-3.7360288976377953
11
6.273084842519685
21
-3.7366675196850392
0
LINE
8
BLACK
6
CONTINUOUS
10
6.273084842519685
20
-3.7366675196850392
11
6.2724462204724407
21
-3.7370942519685038
0
LINE
8
BLACK
6
CONTINUOUS
10
6.2724462204724407
20
-3.7370942519685038
11
6.2716929133858264
21
-3.7372440944881888
0
LINE
8
BLACK
6
CONTINUOUS
10
6.2716929133858264
20
-3.7372440944881888
11
6.253976377952756
21
-3.7372440944881888
0
LINE
8
BLACK
6
CONTINUOUS
10
6.253976377952756
20
-3.7372440944881888
11
6.2532230708661416
21
-3.7370942519685038
0
LINE
8
BLACK
6
CONTINUOUS
10
6.2532230708661416
20
-3.7370942519685038
11
6.2525844488188973
21
-3.7366675196850392
0
LINE
8
BLACK
6
CONTINUOUS
10
6.2525844488188973
20
-3.7366675196850392
11
6.2521577165354332
21
-3.7360288976377953
0
LINE
8
BLACK
6
CONTINUOUS
10
6.2521577165354332
20
-3.7360288976377953
11
6.2520078740157476
21
-3.735275590551181
0
LINE
8
BLACK
6
CONTINUOUS
10
6.2520078740157476
20
-3.735275590551181
11
6.2520078740157476
21
-3.7313385826771652
0
LINE
8
BLACK
6
CONTINUOUS
10
6.2520078740157476
20
-3.7313385826771652
11
6.2521577165354332
21
-3.7305852755905513
0
LINE
8
BLACK
6
CONTINUOUS
10
6.2521577165354332
20
-3.7305852755905513
11
6.2525844488188973
21
-3.729946653543307
0
LINE
8
BLACK
6
CONTINUOUS
10
6.2525844488188973
20
-3.729946653543307
11
6.2532230708661416
21
-3.7295199212598424
0
LINE
8
BLACK
6
CONTINUOUS
10
6.2532230708661416
20
-3.7295199212598424
11
6.253976377952756
21
-3.7293700787401574
0
LINE
8
BLACK
6
CONTINUOUS
10
6.253976377952756
20
-3.7293700787401574
11
6.2716929133858264
21
-3.7293700787401574
0
LINE
8
BLACK
6
CONTINUOUS
10
6.2716929133858264
20
-3.7293700787401574
11
6.2724462204724407
21
-3.7295199212598424
0
LINE
8
BLACK
6
CONTINUOUS
10
6.1671312598425194
20
-3.702945118110236
11
6.1677698818897637
21
-3.7033718503937005
0
LINE
8
BLACK
6
CONTINUOUS
10
6.1677698818897637
20
-3.7033718503937005
11
6.1681966141732278
21
-3.7040104724409448
0
LINE
8
BLACK
6
CONTINUOUS
10
6.1681966141732278
20
-3.7040104724409448
11
6.1683464566929134
21
-3.7047637795275588
0
LINE
8
BLACK
6
CONTINUOUS
10
6.1683464566929134
20
-3.7047637795275588
11
6.1683464566929134
21
-3.72248031496063
0
LINE
8
BLACK
6
CONTINUOUS
10
6.1683464566929134
20
-3.72248031496063
11
6.1681966141732278
21
-3.723233622047244
0
LINE
8
BLACK
6
CONTINUOUS
10
6.1681966141732278
20
-3.723233622047244
11
6.1677698818897637
21
-3.7238722440944882
0
LINE
8
BLACK
6
CONTINUOUS
10
6.1677698818897637
20
-3.7238722440944882
11
6.1671312598425194
21
-3.7242989763779528
0
LINE
8
BLACK
6
CONTINUOUS
10
6.1671312598425194
20
-3.7242989763779528
11
6.1663779527559051
21
-3.7244488188976379
0
LINE
8
BLACK
6
CONTINUOUS
10
6.1663779527559051
20
-3.7244488188976379
11
6.1624409448818893
21
-3.7244488188976379
0
LINE
8
BLACK
6
CONTINUOUS
10
6.1624409448818893
20
-3.7244488188976379
11
6.1616876377952758
21
-3.7242989763779528
0
LINE
8
BLACK
6
CONTINUOUS
10
6.1616876377952758
20
-3.7242989763779528
11
6.1610490157480315
21
-3.7238722440944882
0
LINE
8
BLACK
6
CONTINUOUS
10
6.1610490157480315
20
-3.7238722440944882
11
6.1606222834645665
21
-3.723233622047244
0
LINE
8
BLACK
6
CONTINUOUS
10
6.1606222834645665
20
-3.723233622047244
11
6.1604724409448819
21
-3.72248031496063
0
LINE
8
BLACK
6
CONTINUOUS
10
6.1604724409448819
20
-3.72248031496063
11
6.1604724409448819
21
-3.7047637795275588
0
LINE
8
BLACK
6
CONTINUOUS
10
6.1604724409448819
20
-3.7047637795275588
11
6.1606222834645665
21
-3.7040104724409448
0
LINE
8
BLACK
6
CONTINUOUS
10
6.1606222834645665
20
-3.7040104724409448
11
6.1610490157480315
21
-3.7033718503937005
0
LINE
8
BLACK
6
CONTINUOUS
10
6.1610490157480315
20
-3.7033718503937005
11
6.1616876377952758
21
-3.702945118110236
0
LINE
8
BLACK
6
CONTINUOUS
10
6.1616876377952758
20
-3.702945118110236
11
6.1624409448818893
21
-3.7027952755905509
0
LINE
8
BLACK
6
CONTINUOUS
10
6.1624409448818893
20
-3.7027952755905509
11
6.1663779527559051
21
-3.7027952755905509
0
LINE
8
BLACK
6
CONTINUOUS
10
6.1663779527559051
20
-3.7027952755905509
11
6.1671312598425194
21
-3.702945118110236
0
LINE
8
BLACK
6
CONTINUOUS
10
6.1828792913385824
20
-3.702945118110236
11
6.1835179133858267
21
-3.7033718503937005
0
LINE
8
BLACK
6
CONTINUOUS
10
6.1835179133858267
20
-3.7033718503937005
11
6.1839446456692908
21
-3.7040104724409448
0
LINE
8
BLACK
6
CONTINUOUS
10
6.1839446456692908
20
-3.7040104724409448
11
6.1840944881889763
21
-3.7047637795275588
0
LINE
8
BLACK
6
CONTINUOUS
10
6.1840944881889763
20
-3.7047637795275588
11
6.1840944881889763
21
-3.72248031496063
0
LINE
8
BLACK
6
CONTINUOUS
10
6.1840944881889763
20
-3.72248031496063
11
6.1839446456692908
21
-3.723233622047244
0
LINE
8
BLACK
6
CONTINUOUS
10
6.1839446456692908
20
-3.723233622047244
11
6.1835179133858267
21
-3.7238722440944882
0
LINE
8
BLACK
6
CONTINUOUS
10
6.1835179133858267
20
-3.7238722440944882
11
6.1828792913385824
21
-3.7242989763779528
0
LINE
8
BLACK
6
CONTINUOUS
10
6.1828792913385824
20
-3.7242989763779528
11
6.182125984251968
21
-3.7244488188976379
0
LINE
8
BLACK
6
CONTINUOUS
10
6.182125984251968
20
-3.7244488188976379
11
6.1781889763779523
21
-3.7244488188976379
0
LINE
8
BLACK
6
CONTINUOUS
10
6.1781889763779523
20
-3.7244488188976379
11
6.1774356692913388
21
-3.7242989763779528
0
LINE
8
BLACK
6
CONTINUOUS
10
6.1774356692913388
20
-3.7242989763779528
11
6.1767970472440945
21
-3.7238722440944882
0
LINE
8
BLACK
6
CONTINUOUS
10
6.1767970472440945
20
-3.7238722440944882
11
6.1763703149606295
21
-3.723233622047244
0
LINE
8
BLACK
6
CONTINUOUS
10
6.1763703149606295
20
-3.723233622047244
11
6.1762204724409449
21
-3.72248031496063
0
LINE
8
BLACK
6
CONTINUOUS
10
6.1762204724409449
20
-3.72248031496063
11
6.1762204724409449
21
-3.7047637795275588
0
LINE
8
BLACK
6
CONTINUOUS
10
6.1762204724409449
20
-3.7047637795275588
11
6.1763703149606295
21
-3.7040104724409448
0
LINE
8
BLACK
6
CONTINUOUS
10
6.1763703149606295
20
-3.7040104724409448
11
6.1767970472440945
21
-3.7033718503937005
0
LINE
8
BLACK
6
CONTINUOUS
10
6.1767970472440945
20
-3.7033718503937005
11
6.1774356692913388
21
-3.702945118110236
0
LINE
8
BLACK
6
CONTINUOUS
10
6.1774356692913388
20
-3.702945118110236
11
6.1781889763779523
21
-3.7027952755905509
0
LINE
8
BLACK
6
CONTINUOUS
10
6.1781889763779523
20
-3.7027952755905509
11
6.182125984251968
21
-3.7027952755905509
0
LINE
8
BLACK
6
CONTINUOUS
10
6.182125984251968
20
-3.7027952755905509
11
6.1828792913385824
21
-3.702945118110236
0
LINE
8
BLACK
6
CONTINUOUS
10
6.1986273228346453
20
-3.702945118110236
11
6.1992659448818896
21
-3.7033718503937005
0
LINE
8
BLACK
6
CONTINUOUS
10
6.1992659448818896
20
-3.7033718503937005
11
6.1996926771653538
21
-3.7040104724409448
0
LINE
8
BLACK
6
CONTINUOUS
10
6.1996926771653538
20
-3.7040104724409448
11
6.1998425196850393
21
-3.7047637795275588
0
LINE
8
BLACK
6
CONTINUOUS
10
6.1998425196850393
20
-3.7047637795275588
11
6.1998425196850393
21
-3.72248031496063
0
LINE
8
BLACK
6
CONTINUOUS
10
6.1998425196850393
20
-3.72248031496063
11
6.1996926771653538
21
-3.723233622047244
0
LINE
8
BLACK
6
CONTINUOUS
10
6.1996926771653538
20
-3.723233622047244
11
6.1992659448818896
21
-3.7238722440944882
0
LINE
8
BLACK
6
CONTINUOUS
10
6.1992659448818896
20
-3.7238722440944882
11
6.1986273228346453
21
-3.7242989763779528
0
LINE
8
BLACK
6
CONTINUOUS
10
6.1986273228346453
20
-3.7242989763779528
11
6.197874015748031
21
-3.7244488188976379
0
LINE
8
BLACK
6
CONTINUOUS
10
6.197874015748031
20
-3.7244488188976379
11
6.1939370078740152
21
-3.7244488188976379
0
LINE
8
BLACK
6
CONTINUOUS
10
6.1939370078740152
20
-3.7244488188976379
11
6.1931837007874018
21
-3.7242989763779528
0
LINE
8
BLACK
6
CONTINUOUS
10
6.1931837007874018
20
-3.7242989763779528
11
6.1925450787401575
21
-3.7238722440944882
0
LINE
8
BLACK
6
CONTINUOUS
10
6.1925450787401575
20
-3.7238722440944882
11
6.1921183464566925
21
-3.723233622047244
0
LINE
8
BLACK
6
CONTINUOUS
10
6.1921183464566925
20
-3.723233622047244
11
6.1919685039370078
21
-3.72248031496063
0
LINE
8
BLACK
6
CONTINUOUS
10
6.1919685039370078
20
-3.72248031496063
11
6.1919685039370078
21
-3.7047637795275588
0
LINE
8
BLACK
6
CONTINUOUS
10
6.1919685039370078
20
-3.7047637795275588
11
6.1921183464566925
21
-3.7040104724409448
0
LINE
8
BLACK
6
CONTINUOUS
10
6.1921183464566925
20
-3.7040104724409448
11
6.1925450787401575
21
-3.7033718503937005
0
LINE
8
BLACK
6
CONTINUOUS
10
6.1925450787401575
20
-3.7033718503937005
11
6.1931837007874018
21
-3.702945118110236
0
LINE
8
BLACK
6
CONTINUOUS
10
6.1931837007874018
20
-3.702945118110236
11
6.1939370078740152
21
-3.7027952755905509
0
LINE
8
BLACK
6
CONTINUOUS
10
6.1939370078740152
20
-3.7027952755905509
11
6.197874015748031
21
-3.7027952755905509
0
LINE
8
BLACK
6
CONTINUOUS
10
6.197874015748031
20
-3.7027952755905509
11
6.1986273228346453
21
-3.702945118110236
0
LINE
8
BLACK
6
CONTINUOUS
10
6.2143753543307083
20
-3.702945118110236
11
6.2150139763779526
21
-3.7033718503937005
0
LINE
8
BLACK
6
CONTINUOUS
10
6.2150139763779526
20
-3.7033718503937005
11
6.2154407086614176
21
-3.7040104724409448
0
LINE
8
BLACK
6
CONTINUOUS
10
6.2154407086614176
20
-3.7040104724409448
11
6.2155905511811023
21
-3.7047637795275588
0
LINE
8
BLACK
6
CONTINUOUS
10
6.2155905511811023
20
-3.7047637795275588
11
6.2155905511811023
21
-3.72248031496063
0
LINE
8
BLACK
6
CONTINUOUS
10
6.2155905511811023
20
-3.72248031496063
11
6.2154407086614176
21
-3.723233622047244
0
LINE
8
BLACK
6
CONTINUOUS
10
6.2154407086614176
20
-3.723233622047244
11
6.2150139763779526
21
-3.7238722440944882
0
LINE
8
BLACK
6
CONTINUOUS
10
6.2150139763779526
20
-3.7238722440944882
11
6.2143753543307083
21
-3.7242989763779528
0
LINE
8
BLACK
6
CONTINUOUS
10
6.2143753543307083
20
-3.7242989763779528
11
6.2136220472440939
21
-3.7244488188976379
0
LINE
8
BLACK
6
CONTINUOUS
10
6.2136220472440939
20
-3.7244488188976379
11
6.2096850393700782
21
-3.7244488188976379
0
LINE
8
BLACK
6
CONTINUOUS
10
6.2096850393700782
20
-3.7244488188976379
11
6.2089317322834647
21
-3.7242989763779528
0
LINE
8
BLACK
6
CONTINUOUS
10
6.2089317322834647
20
-3.7242989763779528
11
6.2082931102362204
21
-3.7238722440944882
0
LINE
8
BLACK
6
CONTINUOUS
10
6.2082931102362204
20
-3.7238722440944882
11
6.2078663779527554
21
-3.723233622047244
0
LINE
8
BLACK
6
CONTINUOUS
10
6.2078663779527554
20
-3.723233622047244
11
6.2077165354330708
21
-3.72248031496063
0
LINE
8
BLACK
6
CONTINUOUS
10
6.2077165354330708
20
-3.72248031496063
11
6.2077165354330708
21
-3.7047637795275588
0
LINE
8
BLACK
6
CONTINUOUS
10
6.2077165354330708
20
-3.7047637795275588
11
6.2078663779527554
21
-3.7040104724409448
0
LINE
8
BLACK
6
CONTINUOUS
10
6.2078663779527554
20
-3.7040104724409448
11
6.2082931102362204
21
-3.7033718503937005
0
LINE
8
BLACK
6
CONTINUOUS
10
6.2082931102362204
20
-3.7033718503937005
11
6.2089317322834647
21
-3.702945118110236
0
LINE
8
BLACK
6
CONTINUOUS
10
6.2089317322834647
20
-3.702945118110236
11
6.2096850393700782
21
-3.7027952755905509
0
LINE
8
BLACK
6
CONTINUOUS
10
6.2096850393700782
20
-3.7027952755905509
11
6.2136220472440939
21
-3.7027952755905509
0
LINE
8
BLACK
6
CONTINUOUS
10
6.2136220472440939
20
-3.7027952755905509
11
6.2143753543307083
21
-3.702945118110236
0
LINE
8
BLACK
6
CONTINUOUS
10
6.2301233858267713
20
-3.702945118110236
11
6.2307620078740156
21
-3.7033718503937005
0
LINE
8
BLACK
6
CONTINUOUS
10
6.2307620078740156
20
-3.7033718503937005
11
6.2311887401574806
21
-3.7040104724409448
0
LINE
8
BLACK
6
CONTINUOUS
10
6.2311887401574806
20
-3.7040104724409448
11
6.2313385826771652
21
-3.7047637795275588
0
LINE
8
BLACK
6
CONTINUOUS
10
6.2313385826771652
20
-3.7047637795275588
11
6.2313385826771652
21
-3.72248031496063
0
LINE
8
BLACK
6
CONTINUOUS
10
6.2313385826771652
20
-3.72248031496063
11
6.2311887401574806
21
-3.723233622047244
0
LINE
8
BLACK
6
CONTINUOUS
10
6.2311887401574806
20
-3.723233622047244
11
6.2307620078740156
21
-3.7238722440944882
0
LINE
8
BLACK
6
CONTINUOUS
10
6.2307620078740156
20
-3.7238722440944882
11
6.2301233858267713
21
-3.7242989763779528
0
LINE
8
BLACK
6
CONTINUOUS
10
6.2301233858267713
20
-3.7242989763779528
11
6.2293700787401569
21
-3.7244488188976379
0
LINE
8
BLACK
6
CONTINUOUS
10
6.2293700787401569
20
-3.7244488188976379
11
6.2254330708661412
21
-3.7244488188976379
0
LINE
8
BLACK
6
CONTINUOUS
10
6.2254330708661412
20
-3.7244488188976379
11
6.2246797637795277
21
-3.7242989763779528
0
LINE
8
BLACK
6
CONTINUOUS
10
6.2246797637795277
20
-3.7242989763779528
11
6.2240411417322834
21
-3.7238722440944882
0
LINE
8
BLACK
6
CONTINUOUS
10
6.2240411417322834
20
-3.7238722440944882
11
6.2236144094488184
21
-3.723233622047244
0
LINE
8
BLACK
6
CONTINUOUS
10
6.2236144094488184
20
-3.723233622047244
11
6.2234645669291337
21
-3.72248031496063
0
LINE
8
BLACK
6
CONTINUOUS
10
6.2234645669291337
20
-3.72248031496063
11
6.2234645669291337
21
-3.7047637795275588
0
LINE
8
BLACK
6
CONTINUOUS
10
6.2234645669291337
20
-3.7047637795275588
11
6.2236144094488184
21
-3.7040104724409448
0
LINE
8
BLACK
6
CONTINUOUS
10
6.2236144094488184
20
-3.7040104724409448
11
6.2240411417322834
21
-3.7033718503937005
0
LINE
8
BLACK
6
CONTINUOUS
10
6.2240411417322834
20
-3.7033718503937005
11
6.2246797637795277
21
-3.702945118110236
0
LINE
8
BLACK
6
CONTINUOUS
10
6.2246797637795277
20
-3.702945118110236
11
6.2254330708661412
21
-3.7027952755905509
0
LINE
8
BLACK
6
CONTINUOUS
10
6.2254330708661412
20
-3.7027952755905509
11
6.2293700787401569
21
-3.7027952755905509
0
LINE
8
BLACK
6
CONTINUOUS
10
6.2293700787401569
20
-3.7027952755905509
11
6.2301233858267713
21
-3.702945118110236
0
LINE
8
BLACK
6
CONTINUOUS
10
6.2458714173228342
20
-3.702945118110236
11
6.2465100393700785
21
-3.7033718503937005
0
LINE
8
BLACK
6
CONTINUOUS
10
6.2465100393700785
20
-3.7033718503937005
11
6.2469367716535436
21
-3.7040104724409448
0
LINE
8
BLACK
6
CONTINUOUS
10
6.2469367716535436
20
-3.7040104724409448
11
6.2470866141732282
21
-3.7047637795275588
0
LINE
8
BLACK
6
CONTINUOUS
10
6.2470866141732282
20
-3.7047637795275588
11
6.2470866141732282
21
-3.72248031496063
0
LINE
8
BLACK
6
CONTINUOUS
10
6.2470866141732282
20
-3.72248031496063
11
6.2469367716535436
21
-3.723233622047244
0
LINE
8
BLACK
6
CONTINUOUS
10
6.2469367716535436
20
-3.723233622047244
11
6.2465100393700785
21
-3.7238722440944882
0
LINE
8
BLACK
6
CONTINUOUS
10
6.2465100393700785
20
-3.7238722440944882
11
6.2458714173228342
21
-3.7242989763779528
0
LINE
8
BLACK
6
CONTINUOUS
10
6.2458714173228342
20
-3.7242989763779528
11
6.2451181102362208
21
-3.7244488188976379
0
LINE
8
BLACK
6
CONTINUOUS
10
6.2451181102362208
20
-3.7244488188976379
11
6.241181102362205
21
-3.7244488188976379
0
LINE
8
BLACK
6
CONTINUOUS
10
6.241181102362205
20
-3.7244488188976379
11
6.2404277952755907
21
-3.7242989763779528
0
LINE
8
BLACK
6
CONTINUOUS
10
6.2404277952755907
20
-3.7242989763779528
11
6.2397891732283464
21
-3.7238722440944882
0
LINE
8
BLACK
6
CONTINUOUS
10
6.2397891732283464
20
-3.7238722440944882
11
6.2393624409448813
21
-3.723233622047244
0
LINE
8
BLACK
6
CONTINUOUS
10
6.2393624409448813
20
-3.723233622047244
11
6.2392125984251967
21
-3.72248031496063
0
LINE
8
BLACK
6
CONTINUOUS
10
6.2392125984251967
20
-3.72248031496063
11
6.2392125984251967
21
-3.7047637795275588
0
LINE
8
BLACK
6
CONTINUOUS
10
6.2392125984251967
20
-3.7047637795275588
11
6.2393624409448813
21
-3.7040104724409448
0
LINE
8
BLACK
6
CONTINUOUS
10
6.2393624409448813
20
-3.7040104724409448
11
6.2397891732283464
21
-3.7033718503937005
0
LINE
8
BLACK
6
CONTINUOUS
10
6.2397891732283464
20
-3.7033718503937005
11
6.2404277952755907
21
-3.702945118110236
0
LINE
8
BLACK
6
CONTINUOUS
10
6.2404277952755907
20
-3.702945118110236
11
6.241181102362205
21
-3.7027952755905509
0
LINE
8
BLACK
6
CONTINUOUS
10
6.241181102362205
20
-3.7027952755905509
11
6.2451181102362208
21
-3.7027952755905509
0
LINE
8
BLACK
6
CONTINUOUS
10
6.2451181102362208
20
-3.7027952755905509
11
6.2458714173228342
21
-3.702945118110236
0
LINE
8
BLACK
6
CONTINUOUS
10
5.9746835433070862
20
-3.6846319291338583
11
5.9774775590551181
21
-3.6864988188976375
0
LINE
8
BLACK
6
CONTINUOUS
10
5.9774775590551181
20
-3.6864988188976375
11
5.9793444488188978
21
-3.689292834645669
0
LINE
8
BLACK
6
CONTINUOUS
10
5.9793444488188978
20
-3.689292834645669
11
5.9799999999999995
21
-3.6925885826771654
0
LINE
8
BLACK
6
CONTINUOUS
10
5.9799999999999995
20
-3.6925885826771654
11
5.9799999999999995
21
-3.7127657480314959
0
LINE
8
BLACK
6
CONTINUOUS
10
5.9799999999999995
20
-3.7127657480314959
11
5.9793444488188978
21
-3.7160614960629919
0
LINE
8
BLACK
6
CONTINUOUS
10
5.9793444488188978
20
-3.7160614960629919
11
5.9774775590551181
21
-3.7188555118110234
0
LINE
8
BLACK
6
CONTINUOUS
10
5.9774775590551181
20
-3.7188555118110234
11
5.9746835433070862
21
-3.7207224015748031
0
LINE
8
BLACK
6
CONTINUOUS
10
5.9746835433070862
20
-3.7207224015748031
11
5.9713877952755903
21
-3.7213779527559052
0
LINE
8
BLACK
6
CONTINUOUS
10
5.9713877952755903
20
-3.7213779527559052
11
5.9541633858267717
21
-3.7213779527559052
0
LINE
8
BLACK
6
CONTINUOUS
10
5.9541633858267717
20
-3.7213779527559052
11
5.9508676377952758
21
-3.7207224015748031
0
LINE
8
BLACK
6
CONTINUOUS
10
5.9508676377952758
20
-3.7207224015748031
11
5.9480736220472439
21
-3.7188555118110234
0
LINE
8
BLACK
6
CONTINUOUS
10
5.9480736220472439
20
-3.7188555118110234
11
5.9462067322834642
21
-3.7160614960629919
0
LINE
8
BLACK
6
CONTINUOUS
10
5.9462067322834642
20
-3.7160614960629919
11
5.9455511811023625
21
-3.7127657480314959
0
LINE
8
BLACK
6
CONTINUOUS
10
5.9455511811023625
20
-3.7127657480314959
11
5.9455511811023625
21
-3.6925885826771654
0
LINE
8
BLACK
6
CONTINUOUS
10
5.9455511811023625
20
-3.6925885826771654
11
5.9462067322834642
21
-3.689292834645669
0
LINE
8
BLACK
6
CONTINUOUS
10
5.9462067322834642
20
-3.689292834645669
11
5.9480736220472439
21
-3.6864988188976375
0
LINE
8
BLACK
6
CONTINUOUS
10
5.9480736220472439
20
-3.6864988188976375
11
5.9508676377952758
21
-3.6846319291338583
0
LINE
8
BLACK
6
CONTINUOUS
10
5.9508676377952758
20
-3.6846319291338583
11
5.9541633858267717
21
-3.6839763779527557
0
LINE
8
BLACK
6
CONTINUOUS
10
5.9541633858267717
20
-3.6839763779527557
11
5.9713877952755903
21
-3.6839763779527557
0
LINE
8
BLACK
6
CONTINUOUS
10
5.9713877952755903
20
-3.6839763779527557
11
5.9746835433070862
21
-3.6846319291338583
0
LINE
8
BLACK
6
CONTINUOUS
10
6.0366914173228343
20
-3.6846319291338583
11
6.0394854330708663
21
-3.6864988188976375
0
LINE
8
BLACK
6
CONTINUOUS
10
6.0394854330708663
20
-3.6864988188976375
11
6.041352322834646
21
-3.689292834645669
0
LINE
8
BLACK
6
CONTINUOUS
10
6.041352322834646
20
-3.689292834645669
11
6.0420078740157477
21
-3.6925885826771654
0
LINE
8
BLACK
6
CONTINUOUS
10
6.0420078740157477
20
-3.6925885826771654
11
6.0420078740157477
21
-3.7127657480314959
0
LINE
8
BLACK
6
CONTINUOUS
10
6.0420078740157477
20
-3.7127657480314959
11
6.041352322834646
21
-3.7160614960629919
0
LINE
8
BLACK
6
CONTINUOUS
10
6.041352322834646
20
-3.7160614960629919
11
6.0394854330708663
21
-3.7188555118110234
0
LINE
8
BLACK
6
CONTINUOUS
10
6.0394854330708663
20
-3.7188555118110234
11
6.0366914173228343
21
-3.7207224015748031
0
LINE
8
BLACK
6
CONTINUOUS
10
6.0366914173228343
20
-3.7207224015748031
11
6.0333956692913384
21
-3.7213779527559052
0
LINE
8
BLACK
6
CONTINUOUS
10
6.0333956692913384
20
-3.7213779527559052
11
6.0161712598425199
21
-3.7213779527559052
0
LINE
8
BLACK
6
CONTINUOUS
10
6.0161712598425199
20
-3.7213779527559052
11
6.0128755118110231
21
-3.7207224015748031
0
LINE
8
BLACK
6
CONTINUOUS
10
6.0128755118110231
20
-3.7207224015748031
11
6.010081496062992
21
-3.7188555118110234
0
LINE
8
BLACK
6
CONTINUOUS
10
6.010081496062992
20
-3.7188555118110234
11
6.0082146062992123
21
-3.7160614960629919
0
LINE
8
BLACK
6
CONTINUOUS
10
6.0082146062992123
20
-3.7160614960629919
11
6.0075590551181097
21
-3.7127657480314959
0
LINE
8
BLACK
6
CONTINUOUS
10
6.0075590551181097
20
-3.7127657480314959
11
6.0075590551181097
21
-3.6925885826771654
0
LINE
8
BLACK
6
CONTINUOUS
10
6.0075590551181097
20
-3.6925885826771654
11
6.0082146062992123
21
-3.689292834645669
0
LINE
8
BLACK
6
CONTINUOUS
10
6.0082146062992123
20
-3.689292834645669
11
6.010081496062992
21
-3.6864988188976375
0
LINE
8
BLACK
6
CONTINUOUS
10
6.010081496062992
20
-3.6864988188976375
11
6.0128755118110231
21
-3.6846319291338583
0
LINE
8
BLACK
6
CONTINUOUS
10
6.0128755118110231
20
-3.6846319291338583
11
6.0161712598425199
21
-3.6839763779527557
0
LINE
8
BLACK
6
CONTINUOUS
10
6.0161712598425199
20
-3.6839763779527557
11
6.0333956692913384
21
-3.6839763779527557
0
LINE
8
BLACK
6
CONTINUOUS
10
6.0333956692913384
20
-3.6839763779527557
11
6.0366914173228343
21
-3.6846319291338583
0
LINE
8
BLACK
6
CONTINUOUS
10
6.49011811023622
20
-3.7201574803149606
11
6.4330314960629922
21
-3.7201574803149606
0
LINE
8
BLACK
6
CONTINUOUS
10
6.4330314960629922
20
-3.7201574803149606
11
6.4330314960629922
21
-3.7024409448818898
0
LINE
8
BLACK
6
CONTINUOUS
10
6.4330314960629922
20
-3.7024409448818898
11
6.49011811023622
21
-3.7024409448818898
0
LINE
8
BLACK
6
CONTINUOUS
10
6.49011811023622
20
-3.7024409448818898
11
6.49011811023622
21
-3.7201574803149606
0
LINE
8
BLACK
6
CONTINUOUS
10
6.7224015748031496
20
-3.7201574803149606
11
6.6653149606299209
21
-3.7201574803149606
0
LINE
8
BLACK
6
CONTINUOUS
10
6.6653149606299209
20
-3.7201574803149606
11
6.6653149606299209
21
-3.7024409448818898
0
LINE
8
BLACK
6
CONTINUOUS
10
6.6653149606299209
20
-3.7024409448818898
11
6.7224015748031496
21
-3.7024409448818898
0
LINE
8
BLACK
6
CONTINUOUS
10
6.7224015748031496
20
-3.7024409448818898
11
6.7224015748031496
21
-3.7201574803149606
0
LINE
8
BLACK
6
CONTINUOUS
10
6.8507638976377949
20
-3.6945440157480314
11
6.8526797637795278
21
-3.6958241732283463
0
LINE
8
BLACK
6
CONTINUOUS
10
6.8526797637795278
20
-3.6958241732283463
11
6.8539599212598423
21
-3.6977400393700788
0
LINE
8
BLACK
6
CONTINUOUS
10
6.8539599212598423
20
-3.6977400393700788
11
6.8544094488188971
21
-3.6999999999999997
0
LINE
8
BLACK
6
CONTINUOUS
10
6.8544094488188971
20
-3.6999999999999997
11
6.8544094488188971
21
-3.711811023622047
0
LINE
8
BLACK
6
CONTINUOUS
10
6.8544094488188971
20
-3.711811023622047
11
6.8539599212598423
21
-3.7140709842519684
0
LINE
8
BLACK
6
CONTINUOUS
10
6.8539599212598423
20
-3.7140709842519684
11
6.8526797637795278
21
-3.7159868503937008
0
LINE
8
BLACK
6
CONTINUOUS
10
6.8526797637795278
20
-3.7159868503937008
11
6.8507638976377949
21
-3.7172670078740158
0
LINE
8
BLACK
6
CONTINUOUS
10
6.8507638976377949
20
-3.7172670078740158
11
6.848503937007874
21
-3.7177165354330706
0
LINE
8
BLACK
6
CONTINUOUS
10
6.848503937007874
20
-3.7177165354330706
11
6.7933858267716536
21
-3.7177165354330706
0
LINE
8
BLACK
6
CONTINUOUS
10
6.7933858267716536
20
-3.7177165354330706
11
6.7911258661417317
21
-3.7172670078740158
0
LINE
8
BLACK
6
CONTINUOUS
10
6.7911258661417317
20
-3.7172670078740158
11
6.7892099999999997
21
-3.7159868503937008
0
LINE
8
BLACK
6
CONTINUOUS
10
6.7892099999999997
20
-3.7159868503937008
11
6.7879298425196852
21
-3.7140709842519684
0
LINE
8
BLACK
6
CONTINUOUS
10
6.7879298425196852
20
-3.7140709842519684
11
6.7874803149606295
21
-3.711811023622047
0
LINE
8
BLACK
6
CONTINUOUS
10
6.7874803149606295
20
-3.711811023622047
11
6.7874803149606295
21
-3.6999999999999997
0
LINE
8
BLACK
6
CONTINUOUS
10
6.7874803149606295
20
-3.6999999999999997
11
6.7879298425196852
21
-3.6977400393700788
0
LINE
8
BLACK
6
CONTINUOUS
10
6.7879298425196852
20
-3.6977400393700788
11
6.7892099999999997
21
-3.6958241732283463
0
LINE
8
BLACK
6
CONTINUOUS
10
6.7892099999999997
20
-3.6958241732283463
11
6.7911258661417317
21
-3.6945440157480314
0
LINE
8
BLACK
6
CONTINUOUS
10
6.7911258661417317
20
-3.6945440157480314
11
6.7933858267716536
21
-3.6940944881889761
0
LINE
8
BLACK
6
CONTINUOUS
10
6.7933858267716536
20
-3.6940944881889761
11
6.848503937007874
21
-3.6940944881889761
0
LINE
8
BLACK
6
CONTINUOUS
10
6.848503937007874
20
-3.6940944881889761
11
6.8507638976377949
21
-3.6945440157480314
0
LINE
8
BLACK
6
CONTINUOUS
10
6.3771638582677168
20
-3.66510437007874
11
6.3799578740157479
21
-3.6669712598425197
0
LINE
8
BLACK
6
CONTINUOUS
10
6.3799578740157479
20
-3.6669712598425197
11
6.3818247637795276
21
-3.6697652755905512
0
LINE
8
BLACK
6
CONTINUOUS
10
6.3818247637795276
20
-3.6697652755905512
11
6.3824803149606302
21
-3.6730610236220471
0
LINE
8
BLACK
6
CONTINUOUS
10
6.3824803149606302
20
-3.6730610236220471
11
6.3824803149606302
21
-3.6902854330708661
0
LINE
8
BLACK
6
CONTINUOUS
10
6.3824803149606302
20
-3.6902854330708661
11
6.3818247637795276
21
-3.693581181102362
0
LINE
8
BLACK
6
CONTINUOUS
10
6.3818247637795276
20
-3.693581181102362
11
6.3799578740157479
21
-3.6963751968503935
0
LINE
8
BLACK
6
CONTINUOUS
10
6.3799578740157479
20
-3.6963751968503935
11
6.3771638582677168
21
-3.6982420866141732
0
LINE
8
BLACK
6
CONTINUOUS
10
6.3771638582677168
20
-3.6982420866141732
11
6.37386811023622
21
-3.6988976377952754
0
LINE
8
BLACK
6
CONTINUOUS
10
6.37386811023622
20
-3.6988976377952754
11
6.3536909448818895
21
-3.6988976377952754
0
LINE
8
BLACK
6
CONTINUOUS
10
6.3536909448818895
20
-3.6988976377952754
11
6.3503951968503936
21
-3.6982420866141732
0
LINE
8
BLACK
6
CONTINUOUS
10
6.3503951968503936
20
-3.6982420866141732
11
6.3476011811023625
21
-3.6963751968503935
0
LINE
8
BLACK
6
CONTINUOUS
10
6.3476011811023625
20
-3.6963751968503935
11
6.3457342913385828
21
-3.693581181102362
0
LINE
8
BLACK
6
CONTINUOUS
10
6.3457342913385828
20
-3.693581181102362
11
6.3450787401574802
21
-3.6902854330708661
0
LINE
8
BLACK
6
CONTINUOUS
10
6.3450787401574802
20
-3.6902854330708661
11
6.3450787401574802
21
-3.6730610236220471
0
LINE
8
BLACK
6
CONTINUOUS
10
6.3450787401574802
20
-3.6730610236220471
11
6.3457342913385828
21
-3.6697652755905512
0
LINE
8
BLACK
6
CONTINUOUS
10
6.3457342913385828
20
-3.6697652755905512
11
6.3476011811023625
21
-3.6669712598425197
0
LINE
8
BLACK
6
CONTINUOUS
10
6.3476011811023625
20
-3.6669712598425197
11
6.3503951968503936
21
-3.66510437007874
0
LINE
8
BLACK
6
CONTINUOUS
10
6.3503951968503936
20
-3.66510437007874
11
6.3536909448818895
21
-3.6644488188976378
0
LINE
8
BLACK
6
CONTINUOUS
10
6.3536909448818895
20
-3.6644488188976378
11
6.37386811023622
21
-3.6644488188976378
0
LINE
8
BLACK
6
CONTINUOUS
10
6.37386811023622
20
-3.6644488188976378
11
6.3771638582677168
21
-3.66510437007874
0
LINE
8
BLACK
6
CONTINUOUS
10
6.49011811023622
20
-3.6945669291338583
11
6.4330314960629922
21
-3.6945669291338583
0
LINE
8
BLACK
6
CONTINUOUS
10
6.4330314960629922
20
-3.6945669291338583
11
6.4330314960629922
21
-3.6768503937007875
0
LINE
8
BLACK
6
CONTINUOUS
10
6.4330314960629922
20
-3.6768503937007875
11
6.49011811023622
21
-3.6768503937007875
0
LINE
8
BLACK
6
CONTINUOUS
10
6.49011811023622
20
-3.6768503937007875
11
6.49011811023622
21
-3.6945669291338583
0
LINE
8
BLACK
6
CONTINUOUS
10
6.7224015748031496
20
-3.6945669291338583
11
6.6653149606299209
21
-3.6945669291338583
0
LINE
8
BLACK
6
CONTINUOUS
10
6.6653149606299209
20
-3.6945669291338583
11
6.6653149606299209
21
-3.6768503937007875
0
LINE
8
BLACK
6
CONTINUOUS
10
6.6653149606299209
20
-3.6768503937007875
11
6.7224015748031496
21
-3.6768503937007875
0
LINE
8
BLACK
6
CONTINUOUS
10
6.7224015748031496
20
-3.6768503937007875
11
6.7224015748031496
21
-3.6945669291338583
0
LINE
8
BLACK
6
CONTINUOUS
10
5.7541323622047242
20
-3.6504587007874014
11
5.7569263779527562
21
-3.6523255905511811
0
LINE
8
BLACK
6
CONTINUOUS
10
5.7569263779527562
20
-3.6523255905511811
11
5.758793267716535
21
-3.6551196062992126
0
LINE
8
BLACK
6
CONTINUOUS
10
5.758793267716535
20
-3.6551196062992126
11
5.7594488188976376
21
-3.6584153543307085
0
LINE
8
BLACK
6
CONTINUOUS
10
5.7594488188976376
20
-3.6584153543307085
11
5.7594488188976376
21
-3.6785925196850391
0
LINE
8
BLACK
6
CONTINUOUS
10
5.7594488188976376
20
-3.6785925196850391
11
5.758793267716535
21
-3.6818882677165354
0
LINE
8
BLACK
6
CONTINUOUS
10
5.758793267716535
20
-3.6818882677165354
11
5.7569263779527562
21
-3.6846822834645669
0
LINE
8
BLACK
6
CONTINUOUS
10
5.7569263779527562
20
-3.6846822834645669
11
5.7541323622047242
21
-3.6865491732283462
0
LINE
8
BLACK
6
CONTINUOUS
10
5.7541323622047242
20
-3.6865491732283462
11
5.7508366141732283
21
-3.6872047244094488
0
LINE
8
BLACK
6
CONTINUOUS
10
5.7508366141732283
20
-3.6872047244094488
11
5.7336122047244089
21
-3.6872047244094488
0
LINE
8
BLACK
6
CONTINUOUS
10
5.7336122047244089
20
-3.6872047244094488
11
5.730316456692913
21
-3.6865491732283462
0
LINE
8
BLACK
6
CONTINUOUS
10
5.730316456692913
20
-3.6865491732283462
11
5.7275224409448819
21
-3.6846822834645669
0
LINE
8
BLACK
6
CONTINUOUS
10
5.7275224409448819
20
-3.6846822834645669
11
5.7256555511811023
21
-3.6818882677165354
0
LINE
8
BLACK
6
CONTINUOUS
10
5.7256555511811023
20
-3.6818882677165354
11
5.7249999999999996
21
-3.6785925196850391
0
LINE
8
BLACK
6
CONTINUOUS
10
5.7249999999999996
20
-3.6785925196850391
11
5.7249999999999996
21
-3.6584153543307085
0
LINE
8
BLACK
6
CONTINUOUS
10
5.7249999999999996
20
-3.6584153543307085
11
5.7256555511811023
21
-3.6551196062992126
0
LINE
8
BLACK
6
CONTINUOUS
10
5.7256555511811023
20
-3.6551196062992126
11
5.7275224409448819
21
-3.6523255905511811
0
LINE
8
BLACK
6
CONTINUOUS
10
5.7275224409448819
20
-3.6523255905511811
11
5.730316456692913
21
-3.6504587007874014
0
LINE
8
BLACK
6
CONTINUOUS
10
5.730316456692913
20
-3.6504587007874014
11
5.7336122047244089
21
-3.6498031496062993
0
LINE
8
BLACK
6
CONTINUOUS
10
5.7336122047244089
20
-3.6498031496062993
11
5.7508366141732283
21
-3.6498031496062993
0
LINE
8
BLACK
6
CONTINUOUS
10
5.7508366141732283
20
-3.6498031496062993
11
5.7541323622047242
21
-3.6504587007874014
0
LINE
8
BLACK
6
CONTINUOUS
10
5.8161402362204724
20
-3.6504587007874014
11
5.8189342519685034
21
-3.6523255905511811
0
LINE
8
BLACK
6
CONTINUOUS
10
5.8189342519685034
20
-3.6523255905511811
11
5.8208011417322831
21
-3.6551196062992126
0
LINE
8
BLACK
6
CONTINUOUS
10
5.8208011417322831
20
-3.6551196062992126
11
5.8214566929133857
21
-3.6584153543307085
0
LINE
8
BLACK
6
CONTINUOUS
10
5.8214566929133857
20
-3.6584153543307085
11
5.8214566929133857
21
-3.6785925196850391
0
LINE
8
BLACK
6
CONTINUOUS
10
5.8214566929133857
20
-3.6785925196850391
11
5.8208011417322831
21
-3.6818882677165354
0
LINE
8
BLACK
6
CONTINUOUS
10
5.8208011417322831
20
-3.6818882677165354
11
5.8189342519685034
21
-3.6846822834645669
0
LINE
8
BLACK
6
CONTINUOUS
10
5.8189342519685034
20
-3.6846822834645669
11
5.8161402362204724
21
-3.6865491732283462
0
LINE
8
BLACK
6
CONTINUOUS
10
5.8161402362204724
20
-3.6865491732283462
11
5.8128444881889765
21
-3.6872047244094488
0
LINE
8
BLACK
6
CONTINUOUS
10
5.8128444881889765
20
-3.6872047244094488
11
5.7956200787401571
21
-3.6872047244094488
0
LINE
8
BLACK
6
CONTINUOUS
10
5.7956200787401571
20
-3.6872047244094488
11
5.7923243307086612
21
-3.6865491732283462
0
LINE
8
BLACK
6
CONTINUOUS
10
5.7923243307086612
20
-3.6865491732283462
11
5.7895303149606301
21
-3.6846822834645669
0
LINE
8
BLACK
6
CONTINUOUS
10
5.7895303149606301
20
-3.6846822834645669
11
5.7876634251968504
21
-3.6818882677165354
0
LINE
8
BLACK
6
CONTINUOUS
10
5.7876634251968504
20
-3.6818882677165354
11
5.7870078740157478
21
-3.6785925196850391
0
LINE
8
BLACK
6
CONTINUOUS
10
5.7870078740157478
20
-3.6785925196850391
11
5.7870078740157478
21
-3.6584153543307085
0
LINE
8
BLACK
6
CONTINUOUS
10
5.7870078740157478
20
-3.6584153543307085
11
5.7876634251968504
21
-3.6551196062992126
0
LINE
8
BLACK
6
CONTINUOUS
10
5.7876634251968504
20
-3.6551196062992126
11
5.7895303149606301
21
-3.6523255905511811
0
LINE
8
BLACK
6
CONTINUOUS
10
5.7895303149606301
20
-3.6523255905511811
11
5.7923243307086612
21
-3.6504587007874014
0
LINE
8
BLACK
6
CONTINUOUS
10
5.7923243307086612
20
-3.6504587007874014
11
5.7956200787401571
21
-3.6498031496062993
0
LINE
8
BLACK
6
CONTINUOUS
10
5.7956200787401571
20
-3.6498031496062993
11
5.8128444881889765
21
-3.6498031496062993
0
LINE
8
BLACK
6
CONTINUOUS
10
5.8128444881889765
20
-3.6498031496062993
11
5.8161402362204724
21
-3.6504587007874014
0
LINE
8
BLACK
6
CONTINUOUS
10
6.10797094488189
20
-3.626836653543307
11
6.110764960629921
21
-3.6287035433070867
0
LINE
8
BLACK
6
CONTINUOUS
10
6.110764960629921
20
-3.6287035433070867
11
6.1126318503937007
21
-3.6314975590551182
0
LINE
8
BLACK
6
CONTINUOUS
10
6.1126318503937007
20
-3.6314975590551182
11
6.1132874015748033
21
-3.6347933070866141
0
LINE
8
BLACK
6
CONTINUOUS
10
6.1132874015748033
20
-3.6347933070866141
11
6.1132874015748033
21
-3.6549704724409446
0
LINE
8
BLACK
6
CONTINUOUS
10
6.1132874015748033
20
-3.6549704724409446
11
6.1126318503937007
21
-3.658266220472441
0
LINE
8
BLACK
6
CONTINUOUS
10
6.1126318503937007
20
-3.658266220472441
11
6.110764960629921
21
-3.6610602362204725
0
LINE
8
BLACK
6
CONTINUOUS
10
6.110764960629921
20
-3.6610602362204725
11
6.10797094488189
21
-3.6629271259842517
0
LINE
8
BLACK
6
CONTINUOUS
10
6.10797094488189
20
-3.6629271259842517
11
6.1046751968503932
21
-3.6635826771653544
0
LINE
8
BLACK
6
CONTINUOUS
10
6.1046751968503932
20
-3.6635826771653544
11
6.0874507874015746
21
-3.6635826771653544
0
LINE
8
BLACK
6
CONTINUOUS
10
6.0874507874015746
20
-3.6635826771653544
11
6.0841550393700787
21
-3.6629271259842517
0
LINE
8
BLACK
6
CONTINUOUS
10
6.0841550393700787
20
-3.6629271259842517
11
6.0813610236220468
21
-3.6610602362204725
0
LINE
8
BLACK
6
CONTINUOUS
10
6.0813610236220468
20
-3.6610602362204725
11
6.079494133858268
21
-3.658266220472441
0
LINE
8
BLACK
6
CONTINUOUS
10
6.079494133858268
20
-3.658266220472441
11
6.0788385826771654
21
-3.6549704724409446
0
LINE
8
BLACK
6
CONTINUOUS
10
6.0788385826771654
20
-3.6549704724409446
11
6.0788385826771654
21
-3.6347933070866141
0
LINE
8
BLACK
6
CONTINUOUS
10
6.0788385826771654
20
-3.6347933070866141
11
6.079494133858268
21
-3.6314975590551182
0
LINE
8
BLACK
6
CONTINUOUS
10
6.079494133858268
20
-3.6314975590551182
11
6.0813610236220468
21
-3.6287035433070867
0
LINE
8
BLACK
6
CONTINUOUS
10
6.0813610236220468
20
-3.6287035433070867
11
6.0841550393700787
21
-3.626836653543307
0
LINE
8
BLACK
6
CONTINUOUS
10
6.0841550393700787
20
-3.626836653543307
11
6.0874507874015746
21
-3.6261811023622048
0
LINE
8
BLACK
6
CONTINUOUS
10
6.0874507874015746
20
-3.6261811023622048
11
6.1046751968503932
21
-3.6261811023622048
0
LINE
8
BLACK
6
CONTINUOUS
10
6.1046751968503932
20
-3.6261811023622048
11
6.10797094488189
21
-3.626836653543307
0
LINE
8
BLACK
6
CONTINUOUS
10
6.1699788188976372
20
-3.626836653543307
11
6.1727728346456692
21
-3.6287035433070867
0
LINE
8
BLACK
6
CONTINUOUS
10
6.1727728346456692
20
-3.6287035433070867
11
6.1746397244094489
21
-3.6314975590551182
0
LINE
8
BLACK
6
CONTINUOUS
10
6.1746397244094489
20
-3.6314975590551182
11
6.1752952755905515
21
-3.6347933070866141
0
LINE
8
BLACK
6
CONTINUOUS
10
6.1752952755905515
20
-3.6347933070866141
11
6.1752952755905515
21
-3.6549704724409446
0
LINE
8
BLACK
6
CONTINUOUS
10
6.1752952755905515
20
-3.6549704724409446
11
6.1746397244094489
21
-3.658266220472441
0
LINE
8
BLACK
6
CONTINUOUS
10
6.1746397244094489
20
-3.658266220472441
11
6.1727728346456692
21
-3.6610602362204725
0
LINE
8
BLACK
6
CONTINUOUS
10
6.1727728346456692
20
-3.6610602362204725
11
6.1699788188976372
21
-3.6629271259842517
0
LINE
8
BLACK
6
CONTINUOUS
10
6.1699788188976372
20
-3.6629271259842517
11
6.1666830708661413
21
-3.6635826771653544
0
LINE
8
BLACK
6
CONTINUOUS
10
6.1666830708661413
20
-3.6635826771653544
11
6.1494586614173228
21
-3.6635826771653544
0
LINE
8
BLACK
6
CONTINUOUS
10
6.1494586614173228
20
-3.6635826771653544
11
6.1461629133858269
21
-3.6629271259842517
0
LINE
8
BLACK
6
CONTINUOUS
10
6.1461629133858269
20
-3.6629271259842517
11
6.1433688976377949
21
-3.6610602362204725
0
LINE
8
BLACK
6
CONTINUOUS
10
6.1433688976377949
20
-3.6610602362204725
11
6.1415020078740152
21
-3.658266220472441
0
LINE
8
BLACK
6
CONTINUOUS
10
6.1415020078740152
20
-3.658266220472441
11
6.1408464566929135
21
-3.6549704724409446
0
LINE
8
BLACK
6
CONTINUOUS
10
6.1408464566929135
20
-3.6549704724409446
11
6.1408464566929135
21
-3.6347933070866141
0
LINE
8
BLACK
6
CONTINUOUS
10
6.1408464566929135
20
-3.6347933070866141
11
6.1415020078740152
21
-3.6314975590551182
0
LINE
8
BLACK
6
CONTINUOUS
10
6.1415020078740152
20
-3.6314975590551182
11
6.1433688976377949
21
-3.6287035433070867
0
LINE
8
BLACK
6
CONTINUOUS
10
6.1433688976377949
20
-3.6287035433070867
11
6.1461629133858269
21
-3.626836653543307
0
LINE
8
BLACK
6
CONTINUOUS
10
6.1461629133858269
20
-3.626836653543307
11
6.1494586614173228
21
-3.6261811023622048
0
LINE
8
BLACK
6
CONTINUOUS
10
6.1494586614173228
20
-3.6261811023622048
11
6.1666830708661413
21
-3.6261811023622048
0
LINE
8
BLACK
6
CONTINUOUS
10
6.1666830708661413
20
-3.6261811023622048
11
6.1699788188976372
21
-3.626836653543307
0
LINE
8
BLACK
6
CONTINUOUS
10
6.9940027952755903
20
-3.6141350393700789
11
6.9971959448818897
21
-3.6162686220472442
0
LINE
8
BLACK
6
CONTINUOUS
10
6.9971959448818897
20
-3.6162686220472442
11
6.9993295275590546
21
-3.6194617716535431
0
LINE
8
BLACK
6
CONTINUOUS
10
6.9993295275590546
20
-3.6194617716535431
11
7.0000787401574804
21
-3.6232283464566928
0
LINE
8
BLACK
6
CONTINUOUS
10
7.0000787401574804
20
-3.6232283464566928
11
7.0000787401574804
21
-3.6429133858267715
0
LINE
8
BLACK
6
CONTINUOUS
10
7.0000787401574804
20
-3.6429133858267715
11
6.9993295275590546
21
-3.6466799606299212
0
LINE
8
BLACK
6
CONTINUOUS
10
6.9993295275590546
20
-3.6466799606299212
11
6.9971959448818897
21
-3.6498731102362205
0
LINE
8
BLACK
6
CONTINUOUS
10
6.9971959448818897
20
-3.6498731102362205
11
6.9940027952755903
21
-3.6520066929133859
0
LINE
8
BLACK
6
CONTINUOUS
10
6.9940027952755903
20
-3.6520066929133859
11
6.9902362204724406
21
-3.6527559055118108
0
LINE
8
BLACK
6
CONTINUOUS
10
6.9902362204724406
20
-3.6527559055118108
11
6.9036220472440943
21
-3.6527559055118108
0
LINE
8
BLACK
6
CONTINUOUS
10
6.9036220472440943
20
-3.6527559055118108
11
6.8998554724409447
21
-3.6520066929133859
0
LINE
8
BLACK
6
CONTINUOUS
10
6.8998554724409447
20
-3.6520066929133859
11
6.8966623228346453
21
-3.6498731102362205
0
LINE
8
BLACK
6
CONTINUOUS
10
6.8966623228346453
20
-3.6498731102362205
11
6.8945287401574804
21
-3.6466799606299212
0
LINE
8
BLACK
6
CONTINUOUS
10
6.8945287401574804
20
-3.6466799606299212
11
6.8937795275590545
21
-3.6429133858267715
0
LINE
8
BLACK
6
CONTINUOUS
10
6.8937795275590545
20
-3.6429133858267715
11
6.8937795275590545
21
-3.6232283464566928
0
LINE
8
BLACK
6
CONTINUOUS
10
6.8937795275590545
20
-3.6232283464566928
11
6.8945287401574804
21
-3.6194617716535431
0
LINE
8
BLACK
6
CONTINUOUS
10
6.8945287401574804
20
-3.6194617716535431
11
6.8966623228346453
21
-3.6162686220472442
0
LINE
8
BLACK
6
CONTINUOUS
10
6.8966623228346453
20
-3.6162686220472442
11
6.8998554724409447
21
-3.6141350393700789
0
LINE
8
BLACK
6
CONTINUOUS
10
6.8998554724409447
20
-3.6141350393700789
11
6.9036220472440943
21
-3.6133858267716534
0
LINE
8
BLACK
6
CONTINUOUS
10
6.9036220472440943
20
-3.6133858267716534
11
6.9902362204724406
21
-3.6133858267716534
0
LINE
8
BLACK
6
CONTINUOUS
10
6.9902362204724406
20
-3.6133858267716534
11
6.9940027952755903
21
-3.6141350393700789
0
LINE
8
BLACK
6
CONTINUOUS
10
6.2546835433070864
20
-3.6046319291338582
11
6.2574775590551184
21
-3.6064988188976379
0
LINE
8
BLACK
6
CONTINUOUS
10
6.2574775590551184
20
-3.6064988188976379
11
6.2593444488188972
21
-3.6092928346456694
0
LINE
8
BLACK
6
CONTINUOUS
10
6.2593444488188972
20
-3.6092928346456694
11
6.2599999999999998
21
-3.6125885826771653
0
LINE
8
BLACK
6
CONTINUOUS
10
6.2599999999999998
20
-3.6125885826771653
11
6.2599999999999998
21
-3.6327657480314959
0
LINE
8
BLACK
6
CONTINUOUS
10
6.2599999999999998
20
-3.6327657480314959
11
6.2593444488188972
21
-3.6360614960629922
0
LINE
8
BLACK
6
CONTINUOUS
10
6.2593444488188972
20
-3.6360614960629922
11
6.2574775590551184
21
-3.6388555118110237
0
LINE
8
BLACK
6
CONTINUOUS
10
6.2574775590551184
20
-3.6388555118110237
11
6.2546835433070864
21
-3.640722401574803
0
LINE
8
BLACK
6
CONTINUOUS
10
6.2546835433070864
20
-3.640722401574803
11
6.2513877952755905
21
-3.6413779527559056
0
LINE
8
BLACK
6
CONTINUOUS
10
6.2513877952755905
20
-3.6413779527559056
11
6.2341633858267711
21
-3.6413779527559056
0
LINE
8
BLACK
6
CONTINUOUS
10
6.2341633858267711
20
-3.6413779527559056
11
6.2308676377952752
21
-3.640722401574803
0
LINE
8
BLACK
6
CONTINUOUS
10
6.2308676377952752
20
-3.640722401574803
11
6.2280736220472441
21
-3.6388555118110237
0
LINE
8
BLACK
6
CONTINUOUS
10
6.2280736220472441
20
-3.6388555118110237
11
6.2262067322834644
21
-3.6360614960629922
0
LINE
8
BLACK
6
CONTINUOUS
10
6.2262067322834644
20
-3.6360614960629922
11
6.2255511811023618
21
-3.6327657480314959
0
LINE
8
BLACK
6
CONTINUOUS
10
6.2255511811023618
20
-3.6327657480314959
11
6.2255511811023618
21
-3.6125885826771653
0
LINE
8
BLACK
6
CONTINUOUS
10
6.2255511811023618
20
-3.6125885826771653
11
6.2262067322834644
21
-3.6092928346456694
0
LINE
8
BLACK
6
CONTINUOUS
10
6.2262067322834644
20
-3.6092928346456694
11
6.2280736220472441
21
-3.6064988188976379
0
LINE
8
BLACK
6
CONTINUOUS
10
6.2280736220472441
20
-3.6064988188976379
11
6.2308676377952752
21
-3.6046319291338582
0
LINE
8
BLACK
6
CONTINUOUS
10
6.2308676377952752
20
-3.6046319291338582
11
6.2341633858267711
21
-3.6039763779527556
0
LINE
8
BLACK
6
CONTINUOUS
10
6.2341633858267711
20
-3.6039763779527556
11
6.2513877952755905
21
-3.6039763779527556
0
LINE
8
BLACK
6
CONTINUOUS
10
6.2513877952755905
20
-3.6039763779527556
11
6.2546835433070864
21
-3.6046319291338582
0
LINE
8
BLACK
6
CONTINUOUS
10
6.3166914173228346
20
-3.6046319291338582
11
6.3194854330708656
21
-3.6064988188976379
0
LINE
8
BLACK
6
CONTINUOUS
10
6.3194854330708656
20
-3.6064988188976379
11
6.3213523228346453
21
-3.6092928346456694
0
LINE
8
BLACK
6
CONTINUOUS
10
6.3213523228346453
20
-3.6092928346456694
11
6.3220078740157479
21
-3.6125885826771653
0
LINE
8
BLACK
6
CONTINUOUS
10
6.3220078740157479
20
-3.6125885826771653
11
6.3220078740157479
21
-3.6327657480314959
0
LINE
8
BLACK
6
CONTINUOUS
10
6.3220078740157479
20
-3.6327657480314959
11
6.3213523228346453
21
-3.6360614960629922
0
LINE
8
BLACK
6
CONTINUOUS
10
6.3213523228346453
20
-3.6360614960629922
11
6.3194854330708656
21
-3.6388555118110237
0
LINE
8
BLACK
6
CONTINUOUS
10
6.3194854330708656
20
-3.6388555118110237
11
6.3166914173228346
21
-3.640722401574803
0
LINE
8
BLACK
6
CONTINUOUS
10
6.3166914173228346
20
-3.640722401574803
11
6.3133956692913387
21
-3.6413779527559056
0
LINE
8
BLACK
6
CONTINUOUS
10
6.3133956692913387
20
-3.6413779527559056
11
6.2961712598425192
21
-3.6413779527559056
0
LINE
8
BLACK
6
CONTINUOUS
10
6.2961712598425192
20
-3.6413779527559056
11
6.2928755118110233
21
-3.640722401574803
0
LINE
8
BLACK
6
CONTINUOUS
10
6.2928755118110233
20
-3.640722401574803
11
6.2900814960629923
21
-3.6388555118110237
0
LINE
8
BLACK
6
CONTINUOUS
10
6.2900814960629923
20
-3.6388555118110237
11
6.2882146062992126
21
-3.6360614960629922
0
LINE
8
BLACK
6
CONTINUOUS
10
6.2882146062992126
20
-3.6360614960629922
11
6.28755905511811
21
-3.6327657480314959
0
LINE
8
BLACK
6
CONTINUOUS
10
6.28755905511811
20
-3.6327657480314959
11
6.28755905511811
21
-3.6125885826771653
0
LINE
8
BLACK
6
CONTINUOUS
10
6.28755905511811
20
-3.6125885826771653
11
6.2882146062992126
21
-3.6092928346456694
0
LINE
8
BLACK
6
CONTINUOUS
10
6.2882146062992126
20
-3.6092928346456694
11
6.2900814960629923
21
-3.6064988188976379
0
LINE
8
BLACK
6
CONTINUOUS
10
6.2900814960629923
20
-3.6064988188976379
11
6.2928755118110233
21
-3.6046319291338582
0
LINE
8
BLACK
6
CONTINUOUS
10
6.2928755118110233
20
-3.6046319291338582
11
6.2961712598425192
21
-3.6039763779527556
0
LINE
8
BLACK
6
CONTINUOUS
10
6.2961712598425192
20
-3.6039763779527556
11
6.3133956692913387
21
-3.6039763779527556
0
LINE
8
BLACK
6
CONTINUOUS
10
6.3133956692913387
20
-3.6039763779527556
11
6.3166914173228346
21
-3.6046319291338582
0
LINE
8
BLACK
6
CONTINUOUS
10
6.3856874803149601
20
-3.6046319291338582
11
6.3884814960629921
21
-3.6064988188976379
0
LINE
8
BLACK
6
CONTINUOUS
10
6.3884814960629921
20
-3.6064988188976379
11
6.3903483858267718
21
-3.6092928346456694
0
LINE
8
BLACK
6
CONTINUOUS
10
6.3903483858267718
20
-3.6092928346456694
11
6.3910039370078735
21
-3.6125885826771653
0
LINE
8
BLACK
6
CONTINUOUS
10
6.3910039370078735
20
-3.6125885826771653
11
6.3910039370078735
21
-3.6327657480314959
0
LINE
8
BLACK
6
CONTINUOUS
10
6.3910039370078735
20
-3.6327657480314959
11
6.3903483858267718
21
-3.6360614960629922
0
LINE
8
BLACK
6
CONTINUOUS
10
6.3903483858267718
20
-3.6360614960629922
11
6.3884814960629921
21
-3.6388555118110237
0
LINE
8
BLACK
6
CONTINUOUS
10
6.3884814960629921
20
-3.6388555118110237
11
6.3856874803149601
21
-3.640722401574803
0
LINE
8
BLACK
6
CONTINUOUS
10
6.3856874803149601
20
-3.640722401574803
11
6.3823917322834642
21
-3.6413779527559056
0
LINE
8
BLACK
6
CONTINUOUS
10
6.3823917322834642
20
-3.6413779527559056
11
6.3651673228346457
21
-3.6413779527559056
0
LINE
8
BLACK
6
CONTINUOUS
10
6.3651673228346457
20
-3.6413779527559056
11
6.3618715748031498
21
-3.640722401574803
0
LINE
8
BLACK
6
CONTINUOUS
10
6.3618715748031498
20
-3.640722401574803
11
6.3590775590551178
21
-3.6388555118110237
0
LINE
8
BLACK
6
CONTINUOUS
10
6.3590775590551178
20
-3.6388555118110237
11
6.3572106692913382
21
-3.6360614960629922
0
LINE
8
BLACK
6
CONTINUOUS
10
6.3572106692913382
20
-3.6360614960629922
11
6.3565551181102364
21
-3.6327657480314959
0
LINE
8
BLACK
6
CONTINUOUS
10
6.3565551181102364
20
-3.6327657480314959
11
6.3565551181102364
21
-3.6125885826771653
0
LINE
8
BLACK
6
CONTINUOUS
10
6.3565551181102364
20
-3.6125885826771653
11
6.3572106692913382
21
-3.6092928346456694
0
LINE
8
BLACK
6
CONTINUOUS
10
6.3572106692913382
20
-3.6092928346456694
11
6.3590775590551178
21
-3.6064988188976379
0
LINE
8
BLACK
6
CONTINUOUS
10
6.3590775590551178
20
-3.6064988188976379
11
6.3618715748031498
21
-3.6046319291338582
0
LINE
8
BLACK
6
CONTINUOUS
10
6.3618715748031498
20
-3.6046319291338582
11
6.3651673228346457
21
-3.6039763779527556
0
LINE
8
BLACK
6
CONTINUOUS
10
6.3651673228346457
20
-3.6039763779527556
11
6.3823917322834642
21
-3.6039763779527556
0
LINE
8
BLACK
6
CONTINUOUS
10
6.3823917322834642
20
-3.6039763779527556
11
6.3856874803149601
21
-3.6046319291338582
0
LINE
8
BLACK
6
CONTINUOUS
10
6.4476953543307083
20
-3.6046319291338582
11
6.4504893700787402
21
-3.6064988188976379
0
LINE
8
BLACK
6
CONTINUOUS
10
6.4504893700787402
20
-3.6064988188976379
11
6.4523562598425199
21
-3.6092928346456694
0
LINE
8
BLACK
6
CONTINUOUS
10
6.4523562598425199
20
-3.6092928346456694
11
6.4530118110236216
21
-3.6125885826771653
0
LINE
8
BLACK
6
CONTINUOUS
10
6.4530118110236216
20
-3.6125885826771653
11
6.4530118110236216
21
-3.6327657480314959
0
LINE
8
BLACK
6
CONTINUOUS
10
6.4530118110236216
20
-3.6327657480314959
11
6.4523562598425199
21
-3.6360614960629922
0
LINE
8
BLACK
6
CONTINUOUS
10
6.4523562598425199
20
-3.6360614960629922
11
6.4504893700787402
21
-3.6388555118110237
0
LINE
8
BLACK
6
CONTINUOUS
10
6.4504893700787402
20
-3.6388555118110237
11
6.4476953543307083
21
-3.640722401574803
0
LINE
8
BLACK
6
CONTINUOUS
10
6.4476953543307083
20
-3.640722401574803
11
6.4443996062992124
21
-3.6413779527559056
0
LINE
8
BLACK
6
CONTINUOUS
10
6.4443996062992124
20
-3.6413779527559056
11
6.4271751968503938
21
-3.6413779527559056
0
LINE
8
BLACK
6
CONTINUOUS
10
6.4271751968503938
20
-3.6413779527559056
11
6.4238794488188971
21
-3.640722401574803
0
LINE
8
BLACK
6
CONTINUOUS
10
6.4238794488188971
20
-3.640722401574803
11
6.421085433070866
21
-3.6388555118110237
0
LINE
8
BLACK
6
CONTINUOUS
10
6.421085433070866
20
-3.6388555118110237
11
6.4192185433070863
21
-3.6360614960629922
0
LINE
8
BLACK
6
CONTINUOUS
10
6.4192185433070863
20
-3.6360614960629922
11
6.4185629921259837
21
-3.6327657480314959
0
LINE
8
BLACK
6
CONTINUOUS
10
6.4185629921259837
20
-3.6327657480314959
11
6.4185629921259837
21
-3.6125885826771653
0
LINE
8
BLACK
6
CONTINUOUS
10
6.4185629921259837
20
-3.6125885826771653
11
6.4192185433070863
21
-3.6092928346456694
0
LINE
8
BLACK
6
CONTINUOUS
10
6.4192185433070863
20
-3.6092928346456694
11
6.421085433070866
21
-3.6064988188976379
0
LINE
8
BLACK
6
CONTINUOUS
10
6.421085433070866
20
-3.6064988188976379
11
6.4238794488188971
21
-3.6046319291338582
0
LINE
8
BLACK
6
CONTINUOUS
10
6.4238794488188971
20
-3.6046319291338582
11
6.4271751968503938
21
-3.6039763779527556
0
LINE
8
BLACK
6
CONTINUOUS
10
6.4271751968503938
20
-3.6039763779527556
11
6.4443996062992124
21
-3.6039763779527556
0
LINE
8
BLACK
6
CONTINUOUS
10
6.4443996062992124
20
-3.6039763779527556
11
6.4476953543307083
21
-3.6046319291338582
0
LINE
8
BLACK
6
CONTINUOUS
10
6.5086205511811022
20
-3.6028209055118108
11
6.5114145669291341
21
-3.6046877952755905
0
LINE
8
BLACK
6
CONTINUOUS
10
6.5114145669291341
20
-3.6046877952755905
11
6.5132814566929129
21
-3.607481811023622
0
LINE
8
BLACK
6
CONTINUOUS
10
6.5132814566929129
20
-3.607481811023622
11
6.5139370078740155
21
-3.6107775590551179
0
LINE
8
BLACK
6
CONTINUOUS
10
6.5139370078740155
20
-3.6107775590551179
11
6.5139370078740155
21
-3.6309547244094489
0
LINE
8
BLACK
6
CONTINUOUS
10
6.5139370078740155
20
-3.6309547244094489
11
6.5132814566929129
21
-3.6342504724409448
0
LINE
8
BLACK
6
CONTINUOUS
10
6.5132814566929129
20
-3.6342504724409448
11
6.5114145669291341
21
-3.6370444881889763
0
LINE
8
BLACK
6
CONTINUOUS
10
6.5114145669291341
20
-3.6370444881889763
11
6.5086205511811022
21
-3.638911377952756
0
LINE
8
BLACK
6
CONTINUOUS
10
6.5086205511811022
20
-3.638911377952756
11
6.5053248031496063
21
-3.6395669291338582
0
LINE
8
BLACK
6
CONTINUOUS
10
6.5053248031496063
20
-3.6395669291338582
11
6.4881003937007868
21
-3.6395669291338582
0
LINE
8
BLACK
6
CONTINUOUS
10
6.4881003937007868
20
-3.6395669291338582
11
6.4848046456692909
21
-3.638911377952756
0
LINE
8
BLACK
6
CONTINUOUS
10
6.4848046456692909
20
-3.638911377952756
11
6.4820106299212599
21
-3.6370444881889763
0
LINE
8
BLACK
6
CONTINUOUS
10
6.4820106299212599
20
-3.6370444881889763
11
6.4801437401574802
21
-3.6342504724409448
0
LINE
8
BLACK
6
CONTINUOUS
10
6.4801437401574802
20
-3.6342504724409448
11
6.4794881889763776
21
-3.6309547244094489
0
LINE
8
BLACK
6
CONTINUOUS
10
6.4794881889763776
20
-3.6309547244094489
11
6.4794881889763776
21
-3.6107775590551179
0
LINE
8
BLACK
6
CONTINUOUS
10
6.4794881889763776
20
-3.6107775590551179
11
6.4801437401574802
21
-3.607481811023622
0
LINE
8
BLACK
6
CONTINUOUS
10
6.4801437401574802
20
-3.607481811023622
11
6.4820106299212599
21
-3.6046877952755905
0
LINE
8
BLACK
6
CONTINUOUS
10
6.4820106299212599
20
-3.6046877952755905
11
6.4848046456692909
21
-3.6028209055118108
0
LINE
8
BLACK
6
CONTINUOUS
10
6.4848046456692909
20
-3.6028209055118108
11
6.4881003937007868
21
-3.6021653543307086
0
LINE
8
BLACK
6
CONTINUOUS
10
6.4881003937007868
20
-3.6021653543307086
11
6.5053248031496063
21
-3.6021653543307086
0
LINE
8
BLACK
6
CONTINUOUS
10
6.5053248031496063
20
-3.6021653543307086
11
6.5086205511811022
21
-3.6028209055118108
0
LINE
8
BLACK
6
CONTINUOUS
10
6.5706284251968503
20
-3.6028209055118108
11
6.5734224409448814
21
-3.6046877952755905
0
LINE
8
BLACK
6
CONTINUOUS
10
6.5734224409448814
20
-3.6046877952755905
11
6.5752893307086611
21
-3.607481811023622
0
LINE
8
BLACK
6
CONTINUOUS
10
6.5752893307086611
20
-3.607481811023622
11
6.5759448818897637
21
-3.6107775590551179
0
LINE
8
BLACK
6
CONTINUOUS
10
6.5759448818897637
20
-3.6107775590551179
11
6.5759448818897637
21
-3.6309547244094489
0
LINE
8
BLACK
6
CONTINUOUS
10
6.5759448818897637
20
-3.6309547244094489
11
6.5752893307086611
21
-3.6342504724409448
0
LINE
8
BLACK
6
CONTINUOUS
10
6.5752893307086611
20
-3.6342504724409448
11
6.5734224409448814
21
-3.6370444881889763
0
LINE
8
BLACK
6
CONTINUOUS
10
6.5734224409448814
20
-3.6370444881889763
11
6.5706284251968503
21
-3.638911377952756
0
LINE
8
BLACK
6
CONTINUOUS
10
6.5706284251968503
20
-3.638911377952756
11
6.5673326771653544
21
-3.6395669291338582
0
LINE
8
BLACK
6
CONTINUOUS
10
6.5673326771653544
20
-3.6395669291338582
11
6.550108267716535
21
-3.6395669291338582
0
LINE
8
BLACK
6
CONTINUOUS
10
6.550108267716535
20
-3.6395669291338582
11
6.5468125196850391
21
-3.638911377952756
0
LINE
8
BLACK
6
CONTINUOUS
10
6.5468125196850391
20
-3.638911377952756
11
6.544018503937008
21
-3.6370444881889763
0
LINE
8
BLACK
6
CONTINUOUS
10
6.544018503937008
20
-3.6370444881889763
11
6.5421516141732283
21
-3.6342504724409448
0
LINE
8
BLACK
6
CONTINUOUS
10
6.5421516141732283
20
-3.6342504724409448
11
6.5414960629921257
21
-3.6309547244094489
0
LINE
8
BLACK
6
CONTINUOUS
10
6.5414960629921257
20
-3.6309547244094489
11
6.5414960629921257
21
-3.6107775590551179
0
LINE
8
BLACK
6
CONTINUOUS
10
6.5414960629921257
20
-3.6107775590551179
11
6.5421516141732283
21
-3.607481811023622
0
LINE
8
BLACK
6
CONTINUOUS
10
6.5421516141732283
20
-3.607481811023622
11
6.544018503937008
21
-3.6046877952755905
0
LINE
8
BLACK
6
CONTINUOUS
10
6.544018503937008
20
-3.6046877952755905
11
6.5468125196850391
21
-3.6028209055118108
0
LINE
8
BLACK
6
CONTINUOUS
10
6.5468125196850391
20
-3.6028209055118108
11
6.550108267716535
21
-3.6021653543307086
0
LINE
8
BLACK
6
CONTINUOUS
10
6.550108267716535
20
-3.6021653543307086
11
6.5673326771653544
21
-3.6021653543307086
0
LINE
8
BLACK
6
CONTINUOUS
10
6.5673326771653544
20
-3.6021653543307086
11
6.5706284251968503
21
-3.6028209055118108
0
LINE
8
BLACK
6
CONTINUOUS
10
6.6486205511811018
20
-3.6028209055118108
11
6.6514145669291338
21
-3.6046877952755905
0
LINE
8
BLACK
6
CONTINUOUS
10
6.6514145669291338
20
-3.6046877952755905
11
6.6532814566929135
21
-3.607481811023622
0
LINE
8
BLACK
6
CONTINUOUS
10
6.6532814566929135
20
-3.607481811023622
11
6.6539370078740152
21
-3.6107775590551179
0
LINE
8
BLACK
6
CONTINUOUS
10
6.6539370078740152
20
-3.6107775590551179
11
6.6539370078740152
21
-3.6309547244094489
0
LINE
8
BLACK
6
CONTINUOUS
10
6.6539370078740152
20
-3.6309547244094489
11
6.6532814566929135
21
-3.6342504724409448
0
LINE
8
BLACK
6
CONTINUOUS
10
6.6532814566929135
20
-3.6342504724409448
11
6.6514145669291338
21
-3.6370444881889763
0
LINE
8
BLACK
6
CONTINUOUS
10
6.6514145669291338
20
-3.6370444881889763
11
6.6486205511811018
21
-3.638911377952756
0
LINE
8
BLACK
6
CONTINUOUS
10
6.6486205511811018
20
-3.638911377952756
11
6.6453248031496059
21
-3.6395669291338582
0
LINE
8
BLACK
6
CONTINUOUS
10
6.6453248031496059
20
-3.6395669291338582
11
6.6281003937007874
21
-3.6395669291338582
0
LINE
8
BLACK
6
CONTINUOUS
10
6.6281003937007874
20
-3.6395669291338582
11
6.6248046456692915
21
-3.638911377952756
0
LINE
8
BLACK
6
CONTINUOUS
10
6.6248046456692915
20
-3.638911377952756
11
6.6220106299212596
21
-3.6370444881889763
0
LINE
8
BLACK
6
CONTINUOUS
10
6.6220106299212596
20
-3.6370444881889763
11
6.6201437401574799
21
-3.6342504724409448
0
LINE
8
BLACK
6
CONTINUOUS
10
6.6201437401574799
20
-3.6342504724409448
11
6.6194881889763781
21
-3.6309547244094489
0
LINE
8
BLACK
6
CONTINUOUS
10
6.6194881889763781
20
-3.6309547244094489
11
6.6194881889763781
21
-3.6107775590551179
0
LINE
8
BLACK
6
CONTINUOUS
10
6.6194881889763781
20
-3.6107775590551179
11
6.6201437401574799
21
-3.607481811023622
0
LINE
8
BLACK
6
CONTINUOUS
10
6.6201437401574799
20
-3.607481811023622
11
6.6220106299212596
21
-3.6046877952755905
0
LINE
8
BLACK
6
CONTINUOUS
10
6.6220106299212596
20
-3.6046877952755905
11
6.6248046456692915
21
-3.6028209055118108
0
LINE
8
BLACK
6
CONTINUOUS
10
6.6248046456692915
20
-3.6028209055118108
11
6.6281003937007874
21
-3.6021653543307086
0
LINE
8
BLACK
6
CONTINUOUS
10
6.6281003937007874
20
-3.6021653543307086
11
6.6453248031496059
21
-3.6021653543307086
0
LINE
8
BLACK
6
CONTINUOUS
10
6.6453248031496059
20
-3.6021653543307086
11
6.6486205511811018
21
-3.6028209055118108
0
LINE
8
BLACK
6
CONTINUOUS
10
6.71062842519685
20
-3.6028209055118108
11
6.7134224409448819
21
-3.6046877952755905
0
LINE
8
BLACK
6
CONTINUOUS
10
6.7134224409448819
20
-3.6046877952755905
11
6.7152893307086616
21
-3.607481811023622
0
LINE
8
BLACK
6
CONTINUOUS
10
6.7152893307086616
20
-3.607481811023622
11
6.7159448818897634
21
-3.6107775590551179
0
LINE
8
BLACK
6
CONTINUOUS
10
6.7159448818897634
20
-3.6107775590551179
11
6.7159448818897634
21
-3.6309547244094489
0
LINE
8
BLACK
6
CONTINUOUS
10
6.7159448818897634
20
-3.6309547244094489
11
6.7152893307086616
21
-3.6342504724409448
0
LINE
8
BLACK
6
CONTINUOUS
10
6.7152893307086616
20
-3.6342504724409448
11
6.7134224409448819
21
-3.6370444881889763
0
LINE
8
BLACK
6
CONTINUOUS
10
6.7134224409448819
20
-3.6370444881889763
11
6.71062842519685
21
-3.638911377952756
0
LINE
8
BLACK
6
CONTINUOUS
10
6.71062842519685
20
-3.638911377952756
11
6.7073326771653541
21
-3.6395669291338582
0
LINE
8
BLACK
6
CONTINUOUS
10
6.7073326771653541
20
-3.6395669291338582
11
6.6901082677165356
21
-3.6395669291338582
0
LINE
8
BLACK
6
CONTINUOUS
10
6.6901082677165356
20
-3.6395669291338582
11
6.6868125196850396
21
-3.638911377952756
0
LINE
8
BLACK
6
CONTINUOUS
10
6.6868125196850396
20
-3.638911377952756
11
6.6840185039370077
21
-3.6370444881889763
0
LINE
8
BLACK
6
CONTINUOUS
10
6.6840185039370077
20
-3.6370444881889763
11
6.682151614173228
21
-3.6342504724409448
0
LINE
8
BLACK
6
CONTINUOUS
10
6.682151614173228
20
-3.6342504724409448
11
6.6814960629921254
21
-3.6309547244094489
0
LINE
8
BLACK
6
CONTINUOUS
10
6.6814960629921254
20
-3.6309547244094489
11
6.6814960629921254
21
-3.6107775590551179
0
LINE
8
BLACK
6
CONTINUOUS
10
6.6814960629921254
20
-3.6107775590551179
11
6.682151614173228
21
-3.607481811023622
0
LINE
8
BLACK
6
CONTINUOUS
10
6.682151614173228
20
-3.607481811023622
11
6.6840185039370077
21
-3.6046877952755905
0
LINE
8
BLACK
6
CONTINUOUS
10
6.6840185039370077
20
-3.6046877952755905
11
6.6868125196850396
21
-3.6028209055118108
0
LINE
8
BLACK
6
CONTINUOUS
10
6.6868125196850396
20
-3.6028209055118108
11
6.6901082677165356
21
-3.6021653543307086
0
LINE
8
BLACK
6
CONTINUOUS
10
6.6901082677165356
20
-3.6021653543307086
11
6.7073326771653541
21
-3.6021653543307086
0
LINE
8
BLACK
6
CONTINUOUS
10
6.7073326771653541
20
-3.6021653543307086
11
6.71062842519685
21
-3.6028209055118108
0
LINE
8
BLACK
6
CONTINUOUS
10
5.6749000787401576
20
-3.5914035826771653
11
5.6776940944881886
21
-3.593270472440945
0
LINE
8
BLACK
6
CONTINUOUS
10
5.6776940944881886
20
-3.593270472440945
11
5.6795609842519683
21
-3.5960644881889765
0
LINE
8
BLACK
6
CONTINUOUS
10
5.6795609842519683
20
-3.5960644881889765
11
5.6802165354330709
21
-3.5993602362204724
0
LINE
8
BLACK
6
CONTINUOUS
10
5.6802165354330709
20
-3.5993602362204724
11
5.6802165354330709
21
-3.619537401574803
0
LINE
8
BLACK
6
CONTINUOUS
10
5.6802165354330709
20
-3.619537401574803
11
5.6795609842519683
21
-3.6228331496062993
0
LINE
8
BLACK
6
CONTINUOUS
10
5.6795609842519683
20
-3.6228331496062993
11
5.6776940944881886
21
-3.6256271653543308
0
LINE
8
BLACK
6
CONTINUOUS
10
5.6776940944881886
20
-3.6256271653543308
11
5.6749000787401576
21
-3.6274940551181101
0
LINE
8
BLACK
6
CONTINUOUS
10
5.6749000787401576
20
-3.6274940551181101
11
5.6716043307086617
21
-3.6281496062992127
0
LINE
8
BLACK
6
CONTINUOUS
10
5.6716043307086617
20
-3.6281496062992127
11
5.6543799212598422
21
-3.6281496062992127
0
LINE
8
BLACK
6
CONTINUOUS
10
5.6543799212598422
20
-3.6281496062992127
11
5.6510841732283463
21
-3.6274940551181101
0
LINE
8
BLACK
6
CONTINUOUS
10
5.6510841732283463
20
-3.6274940551181101
11
5.6482901574803153
21
-3.6256271653543308
0
LINE
8
BLACK
6
CONTINUOUS
10
5.6482901574803153
20
-3.6256271653543308
11
5.6464232677165356
21
-3.6228331496062993
0
LINE
8
BLACK
6
CONTINUOUS
10
5.6464232677165356
20
-3.6228331496062993
11
5.645767716535433
21
-3.619537401574803
0
LINE
8
BLACK
6
CONTINUOUS
10
5.645767716535433
20
-3.619537401574803
11
5.645767716535433
21
-3.5993602362204724
0
LINE
8
BLACK
6
CONTINUOUS
10
5.645767716535433
20
-3.5993602362204724
11
5.6464232677165356
21
-3.5960644881889765
0
LINE
8
BLACK
6
CONTINUOUS
10
5.6464232677165356
20
-3.5960644881889765
11
5.6482901574803153
21
-3.593270472440945
0
LINE
8
BLACK
6
CONTINUOUS
10
5.6482901574803153
20
-3.593270472440945
11
5.6510841732283463
21
-3.5914035826771653
0
LINE
8
BLACK
6
CONTINUOUS
10
5.6510841732283463
20
-3.5914035826771653
11
5.6543799212598422
21
-3.5907480314960627
0
LINE
8
BLACK
6
CONTINUOUS
10
5.6543799212598422
20
-3.5907480314960627
11
5.6716043307086617
21
-3.5907480314960627
0
LINE
8
BLACK
6
CONTINUOUS
10
5.6716043307086617
20
-3.5907480314960627
11
5.6749000787401576
21
-3.5914035826771653
0
LINE
8
BLACK
6
CONTINUOUS
10
5.7369079527559057
20
-3.5914035826771653
11
5.7397019685039368
21
-3.593270472440945
0
LINE
8
BLACK
6
CONTINUOUS
10
5.7397019685039368
20
-3.593270472440945
11
5.7415688582677165
21
-3.5960644881889765
0
LINE
8
BLACK
6
CONTINUOUS
10
5.7415688582677165
20
-3.5960644881889765
11
5.7422244094488191
21
-3.5993602362204724
0
LINE
8
BLACK
6
CONTINUOUS
10
5.7422244094488191
20
-3.5993602362204724
11
5.7422244094488191
21
-3.619537401574803
0
LINE
8
BLACK
6
CONTINUOUS
10
5.7422244094488191
20
-3.619537401574803
11
5.7415688582677165
21
-3.6228331496062993
0
LINE
8
BLACK
6
CONTINUOUS
10
5.7415688582677165
20
-3.6228331496062993
11
5.7397019685039368
21
-3.6256271653543308
0
LINE
8
BLACK
6
CONTINUOUS
10
5.7397019685039368
20
-3.6256271653543308
11
5.7369079527559057
21
-3.6274940551181101
0
LINE
8
BLACK
6
CONTINUOUS
10
5.7369079527559057
20
-3.6274940551181101
11
5.7336122047244089
21
-3.6281496062992127
0
LINE
8
BLACK
6
CONTINUOUS
10
5.7336122047244089
20
-3.6281496062992127
11
5.7163877952755904
21
-3.6281496062992127
0
LINE
8
BLACK
6
CONTINUOUS
10
5.7163877952755904
20
-3.6281496062992127
11
5.7130920472440945
21
-3.6274940551181101
0
LINE
8
BLACK
6
CONTINUOUS
10
5.7130920472440945
20
-3.6274940551181101
11
5.7102980314960625
21
-3.6256271653543308
0
LINE
8
BLACK
6
CONTINUOUS
10
5.7102980314960625
20
-3.6256271653543308
11
5.7084311417322837
21
-3.6228331496062993
0
LINE
8
BLACK
6
CONTINUOUS
10
5.7084311417322837
20
-3.6228331496062993
11
5.7077755905511811
21
-3.619537401574803
0
LINE
8
BLACK
6
CONTINUOUS
10
5.7077755905511811
20
-3.619537401574803
11
5.7077755905511811
21
-3.5993602362204724
0
LINE
8
BLACK
6
CONTINUOUS
10
5.7077755905511811
20
-3.5993602362204724
11
5.7084311417322837
21
-3.5960644881889765
0
LINE
8
BLACK
6
CONTINUOUS
10
5.7084311417322837
20
-3.5960644881889765
11
5.7102980314960625
21
-3.593270472440945
0
LINE
8
BLACK
6
CONTINUOUS
10
5.7102980314960625
20
-3.593270472440945
11
5.7130920472440945
21
-3.5914035826771653
0
LINE
8
BLACK
6
CONTINUOUS
10
5.7130920472440945
20
-3.5914035826771653
11
5.7163877952755904
21
-3.5907480314960627
0
LINE
8
BLACK
6
CONTINUOUS
10
5.7163877952755904
20
-3.5907480314960627
11
5.7336122047244089
21
-3.5907480314960627
0
LINE
8
BLACK
6
CONTINUOUS
10
5.7336122047244089
20
-3.5907480314960627
11
5.7369079527559057
21
-3.5914035826771653
0
LINE
8
BLACK
6
CONTINUOUS
10
5.8210614960629918
20
-3.5914035826771653
11
5.8238555118110238
21
-3.593270472440945
0
LINE
8
BLACK
6
CONTINUOUS
10
5.8238555118110238
20
-3.593270472440945
11
5.8257224015748026
21
-3.5960644881889765
0
LINE
8
BLACK
6
CONTINUOUS
10
5.8257224015748026
20
-3.5960644881889765
11
5.8263779527559052
21
-3.5993602362204724
0
LINE
8
BLACK
6
CONTINUOUS
10
5.8263779527559052
20
-3.5993602362204724
11
5.8263779527559052
21
-3.619537401574803
0
LINE
8
BLACK
6
CONTINUOUS
10
5.8263779527559052
20
-3.619537401574803
11
5.8257224015748026
21
-3.6228331496062993
0
LINE
8
BLACK
6
CONTINUOUS
10
5.8257224015748026
20
-3.6228331496062993
11
5.8238555118110238
21
-3.6256271653543308
0
LINE
8
BLACK
6
CONTINUOUS
10
5.8238555118110238
20
-3.6256271653543308
11
5.8210614960629918
21
-3.6274940551181101
0
LINE
8
BLACK
6
CONTINUOUS
10
5.8210614960629918
20
-3.6274940551181101
11
5.8177657480314959
21
-3.6281496062992127
0
LINE
8
BLACK
6
CONTINUOUS
10
5.8177657480314959
20
-3.6281496062992127
11
5.8005413385826774
21
-3.6281496062992127
0
LINE
8
BLACK
6
CONTINUOUS
10
5.8005413385826774
20
-3.6281496062992127
11
5.7972455905511806
21
-3.6274940551181101
0
LINE
8
BLACK
6
CONTINUOUS
10
5.7972455905511806
20
-3.6274940551181101
11
5.7944515748031495
21
-3.6256271653543308
0
LINE
8
BLACK
6
CONTINUOUS
10
5.7944515748031495
20
-3.6256271653543308
11
5.7925846850393699
21
-3.6228331496062993
0
LINE
8
BLACK
6
CONTINUOUS
10
5.7925846850393699
20
-3.6228331496062993
11
5.7919291338582672
21
-3.619537401574803
0
LINE
8
BLACK
6
CONTINUOUS
10
5.7919291338582672
20
-3.619537401574803
11
5.7919291338582672
21
-3.5993602362204724
0
LINE
8
BLACK
6
CONTINUOUS
10
5.7919291338582672
20
-3.5993602362204724
11
5.7925846850393699
21
-3.5960644881889765
0
LINE
8
BLACK
6
CONTINUOUS
10
5.7925846850393699
20
-3.5960644881889765
11
5.7944515748031495
21
-3.593270472440945
0
LINE
8
BLACK
6
CONTINUOUS
10
5.7944515748031495
20
-3.593270472440945
11
5.7972455905511806
21
-3.5914035826771653
0
LINE
8
BLACK
6
CONTINUOUS
10
5.7972455905511806
20
-3.5914035826771653
11
5.8005413385826774
21
-3.5907480314960627
0
LINE
8
BLACK
6
CONTINUOUS
10
5.8005413385826774
20
-3.5907480314960627
11
5.8177657480314959
21
-3.5907480314960627
0
LINE
8
BLACK
6
CONTINUOUS
10
5.8177657480314959
20
-3.5907480314960627
11
5.8210614960629918
21
-3.5914035826771653
0
LINE
8
BLACK
6
CONTINUOUS
10
5.88306937007874
20
-3.5914035826771653
11
5.8858633858267719
21
-3.593270472440945
0
LINE
8
BLACK
6
CONTINUOUS
10
5.8858633858267719
20
-3.593270472440945
11
5.8877302755905507
21
-3.5960644881889765
0
LINE
8
BLACK
6
CONTINUOUS
10
5.8877302755905507
20
-3.5960644881889765
11
5.8883858267716533
21
-3.5993602362204724
0
LINE
8
BLACK
6
CONTINUOUS
10
5.8883858267716533
20
-3.5993602362204724
11
5.8883858267716533
21
-3.619537401574803
0
LINE
8
BLACK
6
CONTINUOUS
10
5.8883858267716533
20
-3.619537401574803
11
5.8877302755905507
21
-3.6228331496062993
0
LINE
8
BLACK
6
CONTINUOUS
10
5.8877302755905507
20
-3.6228331496062993
11
5.8858633858267719
21
-3.6256271653543308
0
LINE
8
BLACK
6
CONTINUOUS
10
5.8858633858267719
20
-3.6256271653543308
11
5.88306937007874
21
-3.6274940551181101
0
LINE
8
BLACK
6
CONTINUOUS
10
5.88306937007874
20
-3.6274940551181101
11
5.8797736220472441
21
-3.6281496062992127
0
LINE
8
BLACK
6
CONTINUOUS
10
5.8797736220472441
20
-3.6281496062992127
11
5.8625492125984247
21
-3.6281496062992127
0
LINE
8
BLACK
6
CONTINUOUS
10
5.8625492125984247
20
-3.6281496062992127
11
5.8592534645669287
21
-3.6274940551181101
0
LINE
8
BLACK
6
CONTINUOUS
10
5.8592534645669287
20
-3.6274940551181101
11
5.8564594488188977
21
-3.6256271653543308
0
LINE
8
BLACK
6
CONTINUOUS
10
5.8564594488188977
20
-3.6256271653543308
11
5.854592559055118
21
-3.6228331496062993
0
LINE
8
BLACK
6
CONTINUOUS
10
5.854592559055118
20
-3.6228331496062993
11
5.8539370078740154
21
-3.619537401574803
0
LINE
8
BLACK
6
CONTINUOUS
10
5.8539370078740154
20
-3.619537401574803
11
5.8539370078740154
21
-3.5993602362204724
0
LINE
8
BLACK
6
CONTINUOUS
10
5.8539370078740154
20
-3.5993602362204724
11
5.854592559055118
21
-3.5960644881889765
0
LINE
8
BLACK
6
CONTINUOUS
10
5.854592559055118
20
-3.5960644881889765
11
5.8564594488188977
21
-3.593270472440945
0
LINE
8
BLACK
6
CONTINUOUS
10
5.8564594488188977
20
-3.593270472440945
11
5.8592534645669287
21
-3.5914035826771653
0
LINE
8
BLACK
6
CONTINUOUS
10
5.8592534645669287
20
-3.5914035826771653
11
5.8625492125984247
21
-3.5907480314960627
0
LINE
8
BLACK
6
CONTINUOUS
10
5.8625492125984247
20
-3.5907480314960627
11
5.8797736220472441
21
-3.5907480314960627
0
LINE
8
BLACK
6
CONTINUOUS
10
5.8797736220472441
20
-3.5907480314960627
11
5.88306937007874
21
-3.5914035826771653
0
CIRCLE
8
BLACK
10
5.9326771653543302
20
-3.7688976377952756
40
0.0068897637795276
0
CIRCLE
8
BLACK
10
5.6452755905511811
20
-3.9381889763779525
40
0.0068897637795276
0
CIRCLE
8
BLACK
10
5.6452755905511811
20
-3.7688976377952756
40
0.0068897637795276
  0
ENDSEC
  0
EOF
