  0
SECTION
  2
HEADER
  9
$ANGBASE
  50
0.0
  9
$ANGDIR
  70
1
  9
$MEASUREMENT
  70
0
  0
ENDSEC
  0
SECTION
  2
TABLES
  0
TABLE
  2
LTYPE
  70
4
  0
LTYPE
  5
40F
  2
CONTINUOUS
  70
0
  3
Solid line
  72
65
  73
0
  40
0.0
  0
LTYPE
  5
410
  2
DASHDOT
 70
0
  3
Dash Dot ____ _ ____ _
 72
65
 73
4
 40
2.0
 49
1.25
 49
-0.25
 49
0.25
 49
-0.25
  0
LTYPE
  5
411
  2
DASHED
 70
0
  3
Dashed __ __ __ __ __
 72
65
 73
2
 40
0.75
 49
0.5
 49
-0.25
  0
LTYPE
  5
43B
  2
DOTTED
 70
0
  3
Dotted .  .  .  .
 72
65
 73
2
 40
0.2
 49
0.0
 49
-0.2
  0
ENDTAB
  0
TABLE
  2
STYLE
  70
4
  0
STYLE
  2
KICAD
  70
0
  40
0
  41
1
  42
1
  50
0
  71
0
  3
isocp.shx
  0
STYLE
  2
KICADB
  70
0
  40
0
  41
1
  42
1
  50
0
  71
0
  3
isocp.shx
  0
STYLE
  2
KICADI
  70
0
  40
0
  41
1
  42
1
  50
15
  71
0
  3
isocp.shx
  0
STYLE
  2
KICADBI
  70
0
  40
0
  41
1
  42
1
  50
15
  71
0
  3
isocp.shx
  0
ENDTAB
  0
TABLE
  2
LAYER
  70
1
  0
LAYER
  2
BLACK
  70
0
  62
7
  6
CONTINUOUS
  0
ENDTAB
  0
ENDSEC
  0
SECTION
  2
ENTITIES
0
LINE
8
BLACK
6
CONTINUOUS
10
7.017706338582677
20
-3.5750675984251967
11
7.0178355905511811
21
-3.5750448425196848
0
LINE
8
BLACK
6
CONTINUOUS
10
7.0178355905511811
20
-3.5750448425196848
11
7.0179491732283461
21
-3.5751104330708658
0
LINE
8
BLACK
6
CONTINUOUS
10
7.0179491732283461
20
-3.5751104330708658
11
7.0183327559055115
21
-3.5751780708661416
0
LINE
8
BLACK
6
CONTINUOUS
10
7.0183327559055115
20
-3.5751780708661416
11
7.0189204330708659
21
-3.5756711811023623
0
LINE
8
BLACK
6
CONTINUOUS
10
7.0189204330708659
20
-3.5756711811023623
11
7.0195847637795277
21
-3.5760547637795277
0
LINE
8
BLACK
6
CONTINUOUS
10
7.0195847637795277
20
-3.5760547637795277
11
7.019675866141732
21
-3.5763050787401576
0
LINE
8
BLACK
6
CONTINUOUS
10
7.019675866141732
20
-3.5763050787401576
11
7.0198799999999997
21
-3.5764763779527557
0
LINE
8
BLACK
6
CONTINUOUS
10
7.0198799999999997
20
-3.5764763779527557
11
7.0200132283464569
21
-3.5772319291338581
0
LINE
8
BLACK
6
CONTINUOUS
10
7.0200132283464569
20
-3.5772319291338581
11
7.0202755905511811
21
-3.5779527559055118
0
LINE
8
BLACK
6
CONTINUOUS
10
7.0202755905511811
20
-3.5779527559055118
11
7.0202755905511811
21
-4.1291338582677168
0
LINE
8
BLACK
6
CONTINUOUS
10
7.0202755905511811
20
-4.1291338582677168
11
7.0202079527559054
21
-4.1295173622047239
0
LINE
8
BLACK
6
CONTINUOUS
10
7.0202079527559054
20
-4.1295173622047239
11
7.020230748031496
21
-4.129646614173228
0
LINE
8
BLACK
6
CONTINUOUS
10
7.020230748031496
20
-4.129646614173228
11
7.0201651181102358
21
-4.1297601968503939
0
LINE
8
BLACK
6
CONTINUOUS
10
7.0201651181102358
20
-4.1297601968503939
11
7.0200975196850388
21
-4.1301437795275593
0
LINE
8
BLACK
6
CONTINUOUS
10
7.0200975196850388
20
-4.1301437795275593
11
7.0196043700787403
21
-4.1307314566929136
0
LINE
8
BLACK
6
CONTINUOUS
10
7.0196043700787403
20
-4.1307314566929136
11
7.0192208267716536
21
-4.1313957874015745
0
LINE
8
BLACK
6
CONTINUOUS
10
7.0192208267716536
20
-4.1313957874015745
11
7.0189704724409445
21
-4.1314868897637798
0
LINE
8
BLACK
6
CONTINUOUS
10
7.0189704724409445
20
-4.1314868897637798
11
7.0187992125984247
21
-4.1316910236220474
0
LINE
8
BLACK
6
CONTINUOUS
10
7.0187992125984247
20
-4.1316910236220474
11
7.0180436220472435
21
-4.1318242519685038
0
LINE
8
BLACK
6
CONTINUOUS
10
7.0180436220472435
20
-4.1318242519685038
11
7.0173228346456691
21
-4.132086614173228
0
LINE
8
BLACK
6
CONTINUOUS
10
7.0173228346456691
20
-4.132086614173228
11
5.5999999999999996
21
-4.132086614173228
0
LINE
8
BLACK
6
CONTINUOUS
10
5.5999999999999996
20
-4.132086614173228
11
5.599616456692913
21
-4.1320189763779522
0
LINE
8
BLACK
6
CONTINUOUS
10
5.599616456692913
20
-4.1320189763779522
11
5.5994872440944885
21
-4.1320417716535429
0
LINE
8
BLACK
6
CONTINUOUS
10
5.5994872440944885
20
-4.1320417716535429
11
5.5993736220472439
21
-4.1319761417322836
0
LINE
8
BLACK
6
CONTINUOUS
10
5.5993736220472439
20
-4.1319761417322836
11
5.5989900787401572
21
-4.1319085433070866
0
LINE
8
BLACK
6
CONTINUOUS
10
5.5989900787401572
20
-4.1319085433070866
11
5.5984023622047241
21
-4.1314153937007871
0
LINE
8
BLACK
6
CONTINUOUS
10
5.5984023622047241
20
-4.1314153937007871
11
5.5977380708661419
21
-4.1310318503937005
0
LINE
8
BLACK
6
CONTINUOUS
10
5.5977380708661419
20
-4.1310318503937005
11
5.597646929133858
21
-4.1307814960629923
0
LINE
8
BLACK
6
CONTINUOUS
10
5.597646929133858
20
-4.1307814960629923
11
5.5974428346456691
21
-4.1306102362204724
0
LINE
8
BLACK
6
CONTINUOUS
10
5.5974428346456691
20
-4.1306102362204724
11
5.597309566929134
21
-4.1298546456692913
0
LINE
8
BLACK
6
CONTINUOUS
10
5.597309566929134
20
-4.1298546456692913
11
5.5970472440944885
21
-4.1291338582677168
0
LINE
8
BLACK
6
CONTINUOUS
10
5.5970472440944885
20
-4.1291338582677168
11
5.5970472440944885
21
-3.5779527559055118
0
LINE
8
BLACK
6
CONTINUOUS
10
5.5970472440944885
20
-3.5779527559055118
11
5.5971148425196846
21
-3.5775692125984251
0
LINE
8
BLACK
6
CONTINUOUS
10
5.5971148425196846
20
-3.5775692125984251
11
5.5970920866141727
21
-3.5774399999999997
0
LINE
8
BLACK
6
CONTINUOUS
10
5.5970920866141727
20
-3.5774399999999997
11
5.5971576771653542
21
-3.577326377952756
0
LINE
8
BLACK
6
CONTINUOUS
10
5.5971576771653542
20
-3.577326377952756
11
5.5972253149606299
21
-3.5769428346456693
0
LINE
8
BLACK
6
CONTINUOUS
10
5.5972253149606299
20
-3.5769428346456693
11
5.5977184251968506
21
-3.5763551181102362
0
LINE
8
BLACK
6
CONTINUOUS
10
5.5977184251968506
20
-3.5763551181102362
11
5.598102007874016
21
-3.5756908267716536
0
LINE
8
BLACK
6
CONTINUOUS
10
5.598102007874016
20
-3.5756908267716536
11
5.5983523228346455
21
-3.5755996850393701
0
LINE
8
BLACK
6
CONTINUOUS
10
5.5983523228346455
20
-3.5755996850393701
11
5.5985236220472441
21
-3.5753955905511812
0
LINE
8
BLACK
6
CONTINUOUS
10
5.5985236220472441
20
-3.5753955905511812
11
5.5992791732283465
21
-3.5752623228346456
0
LINE
8
BLACK
6
CONTINUOUS
10
5.5992791732283465
20
-3.5752623228346456
11
5.5999999999999996
21
-3.5749999999999997
0
LINE
8
BLACK
6
CONTINUOUS
10
5.5999999999999996
20
-3.5749999999999997
11
7.0173228346456691
21
-3.5749999999999997
0
LINE
8
BLACK
6
CONTINUOUS
10
7.0173228346456691
20
-3.5749999999999997
11
7.017706338582677
21
-3.5750675984251967
0
LINE
8
BLACK
6
CONTINUOUS
10
5.6029527559055117
20
-3.5809055118110233
11
5.6029527559055117
21
-4.1261811023622048
0
LINE
8
BLACK
6
CONTINUOUS
10
5.6029527559055117
20
-4.1261811023622048
11
7.0143700787401571
21
-4.1261811023622048
0
LINE
8
BLACK
6
CONTINUOUS
10
7.0143700787401571
20
-4.1261811023622048
11
7.0143700787401571
21
-3.5809055118110233
0
LINE
8
BLACK
6
CONTINUOUS
10
7.0143700787401571
20
-3.5809055118110233
11
5.6029527559055117
21
-3.5809055118110233
  0
ENDSEC
  0
EOF
