%TF.GenerationSoftware,KiCad,Pcbnew,7.0.11+1*%
%TF.CreationDate,2024-06-17T11:26:23+00:00*%
%TF.ProjectId,TFASPDIMU01,54464153-5044-4494-9d55-30312e6b6963,rev?*%
%TF.SameCoordinates,Original*%
%TF.FileFunction,Copper,L1,Top*%
%TF.FilePolarity,Positive*%
%FSLAX46Y46*%
G04 Gerber Fmt 4.6, Leading zero omitted, Abs format (unit mm)*
G04 Created by KiCad (PCBNEW 7.0.11+1) date 2024-06-17 11:26:23*
%MOMM*%
%LPD*%
G01*
G04 APERTURE LIST*
G04 Aperture macros list*
%AMRoundRect*
0 Rectangle with rounded corners*
0 $1 Rounding radius*
0 $2 $3 $4 $5 $6 $7 $8 $9 X,Y pos of 4 corners*
0 Add a 4 corners polygon primitive as box body*
4,1,4,$2,$3,$4,$5,$6,$7,$8,$9,$2,$3,0*
0 Add four circle primitives for the rounded corners*
1,1,$1+$1,$2,$3*
1,1,$1+$1,$4,$5*
1,1,$1+$1,$6,$7*
1,1,$1+$1,$8,$9*
0 Add four rect primitives between the rounded corners*
20,1,$1+$1,$2,$3,$4,$5,0*
20,1,$1+$1,$4,$5,$6,$7,0*
20,1,$1+$1,$6,$7,$8,$9,0*
20,1,$1+$1,$8,$9,$2,$3,0*%
%AMOutline4P*
0 Free polygon, 4 corners , with rotation*
0 The origin of the aperture is its center*
0 number of corners: always 4*
0 $1 to $8 corner X, Y*
0 $9 Rotation angle, in degrees counterclockwise*
0 create outline with 4 corners*
4,1,4,$1,$2,$3,$4,$5,$6,$7,$8,$1,$2,$9*%
G04 Aperture macros list end*
%TA.AperFunction,SMDPad,CuDef*%
%ADD10RoundRect,0.218750X0.256250X-0.218750X0.256250X0.218750X-0.256250X0.218750X-0.256250X-0.218750X0*%
%TD*%
%TA.AperFunction,SMDPad,CuDef*%
%ADD11RoundRect,0.050000X0.050000X-0.225000X0.050000X0.225000X-0.050000X0.225000X-0.050000X-0.225000X0*%
%TD*%
%TA.AperFunction,SMDPad,CuDef*%
%ADD12RoundRect,0.050000X0.225000X0.050000X-0.225000X0.050000X-0.225000X-0.050000X0.225000X-0.050000X0*%
%TD*%
%TA.AperFunction,SMDPad,CuDef*%
%ADD13RoundRect,0.218750X-0.218750X-0.256250X0.218750X-0.256250X0.218750X0.256250X-0.218750X0.256250X0*%
%TD*%
%TA.AperFunction,SMDPad,CuDef*%
%ADD14R,1.300000X1.700000*%
%TD*%
%TA.AperFunction,SMDPad,CuDef*%
%ADD15R,1.450000X0.450000*%
%TD*%
%TA.AperFunction,SMDPad,CuDef*%
%ADD16RoundRect,0.150000X0.700000X-0.150000X0.700000X0.150000X-0.700000X0.150000X-0.700000X-0.150000X0*%
%TD*%
%TA.AperFunction,SMDPad,CuDef*%
%ADD17RoundRect,0.250000X1.100000X-0.250000X1.100000X0.250000X-1.100000X0.250000X-1.100000X-0.250000X0*%
%TD*%
%TA.AperFunction,SMDPad,CuDef*%
%ADD18RoundRect,0.218750X0.218750X0.256250X-0.218750X0.256250X-0.218750X-0.256250X0.218750X-0.256250X0*%
%TD*%
%TA.AperFunction,SMDPad,CuDef*%
%ADD19R,0.650000X1.060000*%
%TD*%
%TA.AperFunction,SMDPad,CuDef*%
%ADD20Outline4P,-1.000000X-0.250000X1.000000X-0.250000X1.000000X0.250000X-1.000000X0.250000X180.000000*%
%TD*%
%TA.AperFunction,SMDPad,CuDef*%
%ADD21Outline4P,-1.000000X-0.250000X1.000000X-0.250000X1.000000X0.250000X-1.000000X0.250000X270.000000*%
%TD*%
%TA.AperFunction,SMDPad,CuDef*%
%ADD22Outline4P,-0.900000X-0.450000X0.900000X-0.450000X0.900000X0.450000X-0.900000X0.450000X180.000000*%
%TD*%
%TA.AperFunction,SMDPad,CuDef*%
%ADD23R,0.889000X1.397000*%
%TD*%
%TA.AperFunction,SMDPad,CuDef*%
%ADD24RoundRect,0.218750X-0.256250X0.218750X-0.256250X-0.218750X0.256250X-0.218750X0.256250X0.218750X0*%
%TD*%
%TA.AperFunction,ViaPad*%
%ADD25C,0.800000*%
%TD*%
%TA.AperFunction,Conductor*%
%ADD26C,0.200000*%
%TD*%
%TA.AperFunction,Conductor*%
%ADD27C,0.300000*%
%TD*%
%TA.AperFunction,Conductor*%
%ADD28C,0.250000*%
%TD*%
%TA.AperFunction,Conductor*%
%ADD29C,0.600000*%
%TD*%
%TA.AperFunction,Conductor*%
%ADD30C,0.500000*%
%TD*%
G04 APERTURE END LIST*
D10*
%TO.P,R5,1*%
%TO.N,+1V8*%
X152652500Y-99867500D03*
%TO.P,R5,2*%
%TO.N,/SPI_EXT_SCK_1V8*%
X152652500Y-98292500D03*
%TD*%
D11*
%TO.P,U2,1,NC*%
%TO.N,unconnected-(U2-NC-Pad1)*%
X156576000Y-97326000D03*
%TO.P,U2,2,NC*%
%TO.N,unconnected-(U2-NC-Pad2)*%
X156976000Y-97326000D03*
%TO.P,U2,3,NC*%
%TO.N,unconnected-(U2-NC-Pad3)*%
X157376000Y-97326000D03*
%TO.P,U2,4,NC*%
%TO.N,unconnected-(U2-NC-Pad4)*%
X157776000Y-97326000D03*
%TO.P,U2,5,NC*%
%TO.N,unconnected-(U2-NC-Pad5)*%
X158176000Y-97326000D03*
%TO.P,U2,6,NC*%
%TO.N,unconnected-(U2-NC-Pad6)*%
X158576000Y-97326000D03*
D12*
%TO.P,U2,7,AUX_CL*%
%TO.N,/P_SCL_1V8*%
X159076000Y-96826000D03*
%TO.P,U2,8,VDDIO*%
%TO.N,+1V8*%
X159076000Y-96426000D03*
%TO.P,U2,9,SDO/AD0*%
%TO.N,/SPI_EXT_MISO_1V8*%
X159076000Y-96026000D03*
%TO.P,U2,10,REGOUT*%
%TO.N,Net-(U2-REGOUT)*%
X159076000Y-95626000D03*
%TO.P,U2,11,FSYNC*%
%TO.N,GND*%
X159076000Y-95226000D03*
%TO.P,U2,12,INT1*%
%TO.N,/INT1_1V8*%
X159076000Y-94826000D03*
D11*
%TO.P,U2,13,VDD*%
%TO.N,+3V3*%
X158576000Y-94326000D03*
%TO.P,U2,14,NC*%
%TO.N,unconnected-(U2-NC-Pad14)*%
X158176000Y-94326000D03*
%TO.P,U2,15,NC*%
%TO.N,unconnected-(U2-NC-Pad15)*%
X157776000Y-94326000D03*
%TO.P,U2,16,NC*%
%TO.N,unconnected-(U2-NC-Pad16)*%
X157376000Y-94326000D03*
%TO.P,U2,17,NC*%
%TO.N,unconnected-(U2-NC-Pad17)*%
X156976000Y-94326000D03*
%TO.P,U2,18,GND*%
%TO.N,GND*%
X156576000Y-94326000D03*
D12*
%TO.P,U2,19,RESV*%
%TO.N,unconnected-(U2-RESV-Pad19)*%
X156076000Y-94826000D03*
%TO.P,U2,20,GND*%
%TO.N,GND*%
X156076000Y-95226000D03*
%TO.P,U2,21,AUX_DA*%
%TO.N,/P_SDA_1V8*%
X156076000Y-95626000D03*
%TO.P,U2,22,~{CS}*%
%TO.N,/!SPI_SS1_1V8*%
X156076000Y-96026000D03*
%TO.P,U2,23,SCL/SCLK*%
%TO.N,/SPI_EXT_SCK_1V8*%
X156076000Y-96426000D03*
%TO.P,U2,24,SDA/SDI*%
%TO.N,/SPI_EXT_MOSI_1V8*%
X156076000Y-96826000D03*
%TD*%
D13*
%TO.P,R9,1*%
%TO.N,+1V8*%
X165016500Y-91970000D03*
%TO.P,R9,2*%
%TO.N,/P_SCL_1V8*%
X166591500Y-91970000D03*
%TD*%
D14*
%TO.P,D1,1,K*%
%TO.N,+5V*%
X170490000Y-103180000D03*
%TO.P,D1,2,A*%
%TO.N,GND*%
X166990000Y-103180000D03*
%TD*%
D15*
%TO.P,U6,1,A1*%
%TO.N,/INT1_1V8*%
X164124000Y-93617000D03*
%TO.P,U6,2,VCCA*%
%TO.N,+1V8*%
X164124000Y-94267000D03*
%TO.P,U6,3,A2*%
%TO.N,/SPI_EXT_MISO_1V8*%
X164124000Y-94917000D03*
%TO.P,U6,4,A3*%
%TO.N,/P_SCL_1V8*%
X164124000Y-95567000D03*
%TO.P,U6,5,A4*%
%TO.N,/!SPI_SS1_1V8*%
X164124000Y-96217000D03*
%TO.P,U6,6,A5*%
%TO.N,/P_SDA_1V8*%
X164124000Y-96867000D03*
%TO.P,U6,7,A6*%
%TO.N,/SPI_EXT_MOSI_1V8*%
X164124000Y-97517000D03*
%TO.P,U6,8,A7*%
%TO.N,/SPI_EXT_SCK_1V8*%
X164124000Y-98167000D03*
%TO.P,U6,9,A8*%
%TO.N,unconnected-(U6-A8-Pad9)*%
X164124000Y-98817000D03*
%TO.P,U6,10,OE*%
%TO.N,+1V8*%
X164124000Y-99467000D03*
%TO.P,U6,11,GND*%
%TO.N,GND*%
X170024000Y-99467000D03*
%TO.P,U6,12,B8*%
%TO.N,unconnected-(U6-B8-Pad12)*%
X170024000Y-98817000D03*
%TO.P,U6,13,B7*%
%TO.N,/SPI_EXT_SCK_3V3*%
X170024000Y-98167000D03*
%TO.P,U6,14,B6*%
%TO.N,/SPI_EXT_MOSI_3V3*%
X170024000Y-97517000D03*
%TO.P,U6,15,B5*%
%TO.N,/P_SDA_3V3*%
X170024000Y-96867000D03*
%TO.P,U6,16,B4*%
%TO.N,/!SPI_SS1_3V3*%
X170024000Y-96217000D03*
%TO.P,U6,17,B3*%
%TO.N,/P_SCL_3V3*%
X170024000Y-95567000D03*
%TO.P,U6,18,B2*%
%TO.N,/SPI_EXT_MISO_3V3*%
X170024000Y-94917000D03*
%TO.P,U6,19,VCCB*%
%TO.N,+3V3*%
X170024000Y-94267000D03*
%TO.P,U6,20,B1*%
%TO.N,/INT1_3V3*%
X170024000Y-93617000D03*
%TD*%
D16*
%TO.P,J1,1*%
%TO.N,+5V*%
X173252000Y-101630000D03*
%TO.P,J1,2*%
%TO.N,/SPI_EXT_SCK_3V3*%
X173252000Y-100380000D03*
%TO.P,J1,3*%
%TO.N,/SPI_EXT_MISO_3V3*%
X173252000Y-99130000D03*
%TO.P,J1,4*%
%TO.N,/SPI_EXT_MOSI_3V3*%
X173252000Y-97880000D03*
%TO.P,J1,5*%
%TO.N,/!SPI_SS1_3V3*%
X173252000Y-96630000D03*
%TO.P,J1,6*%
%TO.N,/INT1_3V3*%
X173252000Y-95380000D03*
%TO.P,J1,7*%
%TO.N,GND*%
X173252000Y-94130000D03*
D17*
%TO.P,J1,MP*%
X176452000Y-103480000D03*
X176452000Y-92280000D03*
%TD*%
D18*
%TO.P,R1,1*%
%TO.N,+1V8*%
X163469000Y-92016000D03*
%TO.P,R1,2*%
%TO.N,/SPI_EXT_MISO_1V8*%
X161894000Y-92016000D03*
%TD*%
D19*
%TO.P,U5,1,VIN*%
%TO.N,+5V*%
X152570000Y-101856000D03*
%TO.P,U5,2,GND*%
%TO.N,GND*%
X151620000Y-101856000D03*
%TO.P,U5,3,EN*%
%TO.N,+5V*%
X150670000Y-101856000D03*
%TO.P,U5,4,NC*%
%TO.N,unconnected-(U5-NC-Pad4)*%
X150670000Y-104056000D03*
%TO.P,U5,5,VOUT*%
%TO.N,+1V8*%
X152570000Y-104056000D03*
%TD*%
D20*
%TO.P,U1,1,GND*%
%TO.N,GND*%
X150490000Y-98880000D03*
%TO.P,U1,2,GND*%
X150490000Y-97880000D03*
%TO.P,U1,3,GND*%
X150490000Y-96880000D03*
D21*
%TO.P,U1,4,IRQn*%
%TO.N,unconnected-(U1-IRQn-Pad4)*%
X149040000Y-95180000D03*
%TO.P,U1,5,SCL*%
%TO.N,/P_SCL_3V3*%
X148040000Y-95180000D03*
%TO.P,U1,6,GND*%
%TO.N,GND*%
X147040000Y-95180000D03*
%TO.P,U1,7,VDD*%
%TO.N,+3V3*%
X146040000Y-95180000D03*
%TO.P,U1,8,SDA*%
%TO.N,/P_SDA_3V3*%
X145040000Y-95180000D03*
D20*
%TO.P,U1,9,ADDR*%
%TO.N,GND*%
X143590000Y-96880000D03*
%TO.P,U1,10,GND*%
X143590000Y-97880000D03*
%TO.P,U1,11,GND*%
X143590000Y-98880000D03*
D21*
%TO.P,U1,12*%
%TO.N,N/C*%
X145040000Y-100580000D03*
%TO.P,U1,13*%
X146040000Y-100580000D03*
%TO.P,U1,14*%
X147040000Y-100580000D03*
%TO.P,U1,15*%
X148040000Y-100580000D03*
%TO.P,U1,16*%
X149040000Y-100580000D03*
D22*
%TO.P,U1,17,GND*%
%TO.N,GND*%
X147040000Y-98730000D03*
%TO.P,U1,18,GND*%
X147040000Y-97030000D03*
%TD*%
D13*
%TO.P,C10,1*%
%TO.N,+3V3*%
X168572500Y-91970000D03*
%TO.P,C10,2*%
%TO.N,GND*%
X170147500Y-91970000D03*
%TD*%
D23*
%TO.P,C11,1*%
%TO.N,+5V*%
X169992500Y-101180000D03*
%TO.P,C11,2*%
%TO.N,GND*%
X168087500Y-101180000D03*
%TD*%
D24*
%TO.P,C2,1*%
%TO.N,+1V8*%
X161132000Y-96816500D03*
%TO.P,C2,2*%
%TO.N,GND*%
X161132000Y-98391500D03*
%TD*%
D13*
%TO.P,C5,1*%
%TO.N,+5V*%
X161052500Y-102380000D03*
%TO.P,C5,2*%
%TO.N,GND*%
X162627500Y-102380000D03*
%TD*%
D10*
%TO.P,C4,1*%
%TO.N,Net-(U2-REGOUT)*%
X161640000Y-95089500D03*
%TO.P,C4,2*%
%TO.N,GND*%
X161640000Y-93514500D03*
%TD*%
D18*
%TO.P,C9,1*%
%TO.N,GND*%
X165727500Y-101180000D03*
%TO.P,C9,2*%
%TO.N,+1V8*%
X164152500Y-101180000D03*
%TD*%
D13*
%TO.P,R7,1*%
%TO.N,+3V3*%
X147552500Y-91680000D03*
%TO.P,R7,2*%
%TO.N,/P_SCL_3V3*%
X149127500Y-91680000D03*
%TD*%
%TO.P,C6,1*%
%TO.N,+5V*%
X154134500Y-101770000D03*
%TO.P,C6,2*%
%TO.N,GND*%
X155709500Y-101770000D03*
%TD*%
%TO.P,C8,1*%
%TO.N,+1V8*%
X154134500Y-104056000D03*
%TO.P,C8,2*%
%TO.N,GND*%
X155709500Y-104056000D03*
%TD*%
%TO.P,C7,1*%
%TO.N,+3V3*%
X161052500Y-104080000D03*
%TO.P,C7,2*%
%TO.N,GND*%
X162627500Y-104080000D03*
%TD*%
%TO.P,C1,1*%
%TO.N,+3V3*%
X145852500Y-93180000D03*
%TO.P,C1,2*%
%TO.N,GND*%
X147427500Y-93180000D03*
%TD*%
D18*
%TO.P,C3,1*%
%TO.N,+3V3*%
X156415000Y-92580000D03*
%TO.P,C3,2*%
%TO.N,GND*%
X154840000Y-92580000D03*
%TD*%
%TO.P,R2,1*%
%TO.N,/SPI_EXT_MISO_1V8*%
X160141500Y-92016000D03*
%TO.P,R2,2*%
%TO.N,GND*%
X158566500Y-92016000D03*
%TD*%
D10*
%TO.P,R4,1*%
%TO.N,+1V8*%
X154452500Y-99867500D03*
%TO.P,R4,2*%
%TO.N,/SPI_EXT_MOSI_1V8*%
X154452500Y-98292500D03*
%TD*%
D18*
%TO.P,R6,1*%
%TO.N,+3V3*%
X145415000Y-91680000D03*
%TO.P,R6,2*%
%TO.N,/P_SDA_3V3*%
X143840000Y-91680000D03*
%TD*%
D13*
%TO.P,R8,1*%
%TO.N,+1V8*%
X151454500Y-94048000D03*
%TO.P,R8,2*%
%TO.N,/P_SDA_1V8*%
X153029500Y-94048000D03*
%TD*%
D19*
%TO.P,U4,1,VIN*%
%TO.N,+5V*%
X159290000Y-101780000D03*
%TO.P,U4,2,GND*%
%TO.N,GND*%
X158340000Y-101780000D03*
%TO.P,U4,3,EN*%
%TO.N,+5V*%
X157390000Y-101780000D03*
%TO.P,U4,4,NC*%
%TO.N,unconnected-(U4-NC-Pad4)*%
X157390000Y-103980000D03*
%TO.P,U4,5,VOUT*%
%TO.N,+3V3*%
X159290000Y-103980000D03*
%TD*%
D25*
%TO.N,GND*%
X174827958Y-99148042D03*
X173070000Y-92270000D03*
X174848000Y-100652000D03*
X177642000Y-93540000D03*
X177388000Y-99128000D03*
X174340000Y-92270000D03*
X177388000Y-100398000D03*
X176626000Y-93540000D03*
X171546000Y-92270000D03*
X175356000Y-93540000D03*
X157340000Y-98680000D03*
X164340000Y-104180000D03*
X168140000Y-99780000D03*
X158240000Y-100896980D03*
X144940000Y-102980000D03*
X167440000Y-96980000D03*
X165740000Y-104180000D03*
X160440000Y-94926000D03*
X166540000Y-96704999D03*
X159440000Y-98580000D03*
X166127348Y-95792652D03*
X167240000Y-104180000D03*
X146440000Y-102980000D03*
X152940000Y-96680000D03*
X147840000Y-102980000D03*
X155515290Y-94080000D03*
X143640000Y-102980000D03*
X143340000Y-94180000D03*
X148240225Y-92758235D03*
%TO.N,+5V*%
X154141041Y-102881041D03*
X169140000Y-103180000D03*
X160040000Y-102880000D03*
X157340000Y-102849998D03*
%TO.N,+3V3*%
X158340000Y-103980000D03*
X157540000Y-92780000D03*
X146540000Y-91680000D03*
X168572500Y-93771868D03*
%TO.N,+1V8*%
X151740000Y-104080000D03*
X165469554Y-98479988D03*
X152040000Y-95480000D03*
X162240000Y-96780000D03*
X164280000Y-91929990D03*
X163040000Y-101280000D03*
X153540000Y-99980000D03*
X151440000Y-91555001D03*
%TO.N,/SPI_EXT_SCK_3V3*%
X171440000Y-100380000D03*
X168640000Y-98180000D03*
%TO.N,/SPI_EXT_MISO_3V3*%
X167738926Y-94581538D03*
X171440000Y-99080000D03*
%TO.N,/SPI_EXT_MISO_1V8*%
X165866000Y-92930000D03*
X160940000Y-92270000D03*
%TO.N,/P_SDA_3V3*%
X168639997Y-96779997D03*
X144240000Y-92880000D03*
%TO.N,/P_SCL_3V3*%
X149340000Y-92880001D03*
X168540000Y-95480000D03*
%TO.N,/P_SDA_1V8*%
X165640000Y-99880000D03*
X154540000Y-94580000D03*
%TO.N,/!SPI_SS1_1V8*%
X166869565Y-98729514D03*
X154396910Y-95736729D03*
%TD*%
D26*
%TO.N,GND*%
X173070000Y-92270000D02*
X174340000Y-92270000D01*
X170122000Y-91970000D02*
X171646000Y-91970000D01*
X170024000Y-99967000D02*
X170024000Y-99542000D01*
X147040000Y-95180000D02*
X147040000Y-93567500D01*
D27*
X168087500Y-99832500D02*
X168140000Y-99780000D01*
D26*
X155700999Y-95226000D02*
X155340009Y-94865010D01*
D28*
X150490000Y-96880000D02*
X152740000Y-96880000D01*
D26*
X147040000Y-93567500D02*
X147427500Y-93180000D01*
X155301612Y-93041612D02*
X154840000Y-92580000D01*
X160140000Y-95226000D02*
X160440000Y-94926000D01*
D27*
X165740000Y-104180000D02*
X167240000Y-104180000D01*
D26*
X155340009Y-94865010D02*
X155340009Y-93080009D01*
X156076000Y-95226000D02*
X155700999Y-95226000D01*
X152291990Y-94731990D02*
X152291990Y-92728010D01*
X147889112Y-92718388D02*
X148200378Y-92718388D01*
X152291990Y-92728010D02*
X152440000Y-92580000D01*
X152440000Y-92580000D02*
X154840000Y-92580000D01*
X155761290Y-94326000D02*
X155515290Y-94080000D01*
X152940000Y-96680000D02*
X153339999Y-96280001D01*
X166815001Y-96980000D02*
X166540000Y-96704999D01*
X147427500Y-93180000D02*
X147889112Y-92718388D01*
X156576000Y-94326000D02*
X155761290Y-94326000D01*
D28*
X152740000Y-96880000D02*
X152940000Y-96680000D01*
D27*
X166990000Y-103180000D02*
X165340000Y-103180000D01*
D26*
X153339999Y-95779999D02*
X152291990Y-94731990D01*
X155515290Y-94080000D02*
X155515290Y-93255290D01*
X167440000Y-96980000D02*
X166815001Y-96980000D01*
X153339999Y-96280001D02*
X153339999Y-95779999D01*
X148200378Y-92718388D02*
X148240225Y-92758235D01*
D27*
X165340000Y-103180000D02*
X164340000Y-104180000D01*
D26*
X155340009Y-93080009D02*
X155301612Y-93041612D01*
X155515290Y-93255290D02*
X154840000Y-92580000D01*
D27*
X168087500Y-101180000D02*
X168087500Y-99832500D01*
D26*
X159076000Y-95226000D02*
X160140000Y-95226000D01*
D28*
X161132000Y-98391500D02*
X159628500Y-98391500D01*
X159628500Y-98391500D02*
X159440000Y-98580000D01*
D29*
%TO.N,+5V*%
X152656000Y-101770000D02*
X152570000Y-101856000D01*
X154160000Y-101770000D02*
X152656000Y-101770000D01*
D30*
X152570000Y-101856000D02*
X152570000Y-102810000D01*
X150670000Y-101856000D02*
X150670000Y-102410000D01*
X159290000Y-101780000D02*
X159290000Y-102810000D01*
X157340000Y-102880000D02*
X157340000Y-102849998D01*
X154140000Y-102880000D02*
X154141041Y-102881041D01*
X169992500Y-102682500D02*
X170490000Y-103180000D01*
X154134500Y-102345000D02*
X154140000Y-102350500D01*
D27*
X160640000Y-102880000D02*
X160040000Y-102880000D01*
D30*
X151140000Y-102880000D02*
X152640000Y-102880000D01*
X172040000Y-101630000D02*
X170490000Y-103180000D01*
X154134500Y-101770000D02*
X154134500Y-102345000D01*
X157340000Y-102849998D02*
X159340000Y-102880000D01*
X152570000Y-102810000D02*
X152640000Y-102880000D01*
X159290000Y-102810000D02*
X159340000Y-102860000D01*
X169992500Y-101180000D02*
X169992500Y-102682500D01*
X154140000Y-102350500D02*
X154140000Y-102880000D01*
X157390000Y-101780000D02*
X157390000Y-102830000D01*
X157390000Y-102830000D02*
X157340000Y-102880000D01*
X159340000Y-102860000D02*
X159340000Y-102880000D01*
D27*
X161052500Y-102467500D02*
X160640000Y-102880000D01*
D30*
X173252000Y-101630000D02*
X172040000Y-101630000D01*
D27*
X161052500Y-102380000D02*
X161052500Y-102467500D01*
D30*
X170490000Y-103180000D02*
X169140000Y-103180000D01*
X150670000Y-102410000D02*
X151140000Y-102880000D01*
X159340000Y-102880000D02*
X160040000Y-102880000D01*
X152640000Y-102880000D02*
X154140000Y-102880000D01*
D28*
%TO.N,+3V3*%
X147552500Y-91680000D02*
X146540000Y-91680000D01*
D26*
X158576000Y-93816000D02*
X157540000Y-92780000D01*
D27*
X157540000Y-92780000D02*
X156615000Y-92780000D01*
D30*
X159290000Y-103980000D02*
X158340000Y-103980000D01*
D27*
X170024000Y-94267000D02*
X169179620Y-94267000D01*
D26*
X145415000Y-92742500D02*
X145852500Y-93180000D01*
D27*
X168684488Y-93771868D02*
X168572500Y-93771868D01*
X168572500Y-91970000D02*
X168572500Y-93771868D01*
D30*
X159290000Y-103980000D02*
X160952500Y-103980000D01*
D27*
X169179620Y-94267000D02*
X168684488Y-93771868D01*
X156615000Y-92780000D02*
X156415000Y-92580000D01*
D26*
X146040000Y-95180000D02*
X146040000Y-93267500D01*
X146040000Y-93267500D02*
X145952500Y-93180000D01*
X158576000Y-94326000D02*
X158576000Y-93816000D01*
D30*
X160952500Y-103980000D02*
X161052500Y-104080000D01*
D28*
X145415000Y-91680000D02*
X146540000Y-91680000D01*
D26*
X145415000Y-91680000D02*
X145415000Y-92742500D01*
%TO.N,+1V8*%
X160370000Y-96759501D02*
X161049501Y-96759501D01*
D30*
X164280000Y-91970000D02*
X165042000Y-91970000D01*
D26*
X161049501Y-96759501D02*
X161132000Y-96842000D01*
D29*
X154160000Y-104056000D02*
X153398000Y-104056000D01*
D30*
X152570000Y-104056000D02*
X153398000Y-104056000D01*
D26*
X160036499Y-96426000D02*
X160370000Y-96759501D01*
X159076000Y-96426000D02*
X160036499Y-96426000D01*
X164124000Y-94267000D02*
X165049000Y-94267000D01*
X165049000Y-94267000D02*
X165149001Y-94166999D01*
X165149001Y-94166999D02*
X165149001Y-92848501D01*
X165149001Y-92848501D02*
X165042000Y-92741500D01*
X165042000Y-92741500D02*
X165042000Y-91970000D01*
X161132000Y-96816500D02*
X162203500Y-96816500D01*
D30*
X154340000Y-99980000D02*
X154452500Y-99867500D01*
D27*
X164124000Y-99467000D02*
X164124000Y-101151500D01*
D30*
X163518000Y-91970000D02*
X164280000Y-91929990D01*
D27*
X151454500Y-91569501D02*
X151440000Y-91555001D01*
D30*
X152765000Y-99980000D02*
X152652500Y-99867500D01*
D26*
X164124000Y-99467000D02*
X165049000Y-99467000D01*
D30*
X153540000Y-99980000D02*
X154340000Y-99980000D01*
D26*
X165049000Y-99467000D02*
X165469554Y-99046446D01*
D27*
X151454500Y-94894500D02*
X152040000Y-95480000D01*
D26*
X162203500Y-96816500D02*
X162240000Y-96780000D01*
D30*
X152570000Y-104056000D02*
X151764000Y-104056000D01*
X151764000Y-104056000D02*
X151740000Y-104080000D01*
D27*
X151454500Y-94048000D02*
X151454500Y-94894500D01*
D26*
X165469554Y-99045673D02*
X165469554Y-98479988D01*
D27*
X151454500Y-94048000D02*
X151454500Y-91569501D01*
D30*
X153540000Y-99980000D02*
X152765000Y-99980000D01*
D26*
X165469554Y-99046446D02*
X165469554Y-99045673D01*
D27*
X164280000Y-91970000D02*
X164280000Y-91929990D01*
X163140000Y-101180000D02*
X163040000Y-101280000D01*
X164152500Y-101180000D02*
X163140000Y-101180000D01*
X164124000Y-101151500D02*
X164152500Y-101180000D01*
D26*
%TO.N,Net-(U2-REGOUT)*%
X159451000Y-95626000D02*
X159076000Y-95626000D01*
X161640000Y-95064000D02*
X161386000Y-95064000D01*
X161386000Y-95064000D02*
X160824000Y-95626000D01*
X160824000Y-95626000D02*
X159451000Y-95626000D01*
D28*
%TO.N,/SPI_EXT_SCK_3V3*%
X170024000Y-98167000D02*
X168653000Y-98167000D01*
X171440000Y-100380000D02*
X173252000Y-100380000D01*
X168653000Y-98167000D02*
X168640000Y-98180000D01*
%TO.N,/SPI_EXT_MISO_3V3*%
X167767925Y-94552539D02*
X167738926Y-94581538D01*
X170024000Y-94917000D02*
X169157854Y-94917000D01*
X173202000Y-99080000D02*
X173252000Y-99130000D01*
X168793393Y-94552539D02*
X167767925Y-94552539D01*
X169157854Y-94917000D02*
X168793393Y-94552539D01*
X171440000Y-99080000D02*
X173202000Y-99080000D01*
%TO.N,/SPI_EXT_MOSI_3V3*%
X170999000Y-97517000D02*
X171362000Y-97880000D01*
X171362000Y-97880000D02*
X173252000Y-97880000D01*
X170024000Y-97517000D02*
X170999000Y-97517000D01*
%TO.N,/!SPI_SS1_3V3*%
X170999000Y-96217000D02*
X170024000Y-96217000D01*
X173252000Y-96630000D02*
X171412000Y-96630000D01*
X171412000Y-96630000D02*
X170999000Y-96217000D01*
%TO.N,/INT1_3V3*%
X171340000Y-95080000D02*
X171640000Y-95380000D01*
X171640000Y-95380000D02*
X173252000Y-95380000D01*
X170999000Y-93617000D02*
X171340000Y-93958000D01*
X170024000Y-93617000D02*
X170999000Y-93617000D01*
X171340000Y-93958000D02*
X171340000Y-95080000D01*
D26*
%TO.N,/SPI_EXT_MISO_1V8*%
X159451000Y-96026000D02*
X159076000Y-96026000D01*
D27*
X165866000Y-94200000D02*
X165149000Y-94917000D01*
X161894000Y-92270000D02*
X160940000Y-92270000D01*
X165149000Y-94917000D02*
X164124000Y-94917000D01*
X165866000Y-92930000D02*
X165866000Y-94200000D01*
D26*
X163199000Y-94917000D02*
X162090000Y-96026000D01*
D27*
X160141500Y-92016000D02*
X160686000Y-92016000D01*
X160940000Y-92270000D02*
X160116000Y-92270000D01*
X160686000Y-92016000D02*
X160940000Y-92270000D01*
D26*
X162090000Y-96026000D02*
X159451000Y-96026000D01*
X164124000Y-94917000D02*
X163199000Y-94917000D01*
D28*
%TO.N,/SPI_EXT_MOSI_1V8*%
X163234355Y-97517000D02*
X164124000Y-97517000D01*
X161362493Y-99405001D02*
X162514990Y-98252504D01*
X162514990Y-98236365D02*
X163234355Y-97517000D01*
D26*
X156076000Y-96826000D02*
X154886000Y-96826000D01*
D28*
X154452500Y-98292500D02*
X155453554Y-98292500D01*
X155453554Y-98292500D02*
X156566055Y-99405001D01*
X156566055Y-99405001D02*
X161362493Y-99405001D01*
D26*
X154886000Y-96826000D02*
X154452500Y-97259500D01*
X154452500Y-97259500D02*
X154452500Y-98292500D01*
D28*
X162514990Y-98252504D02*
X162514990Y-98236365D01*
D26*
%TO.N,/SPI_EXT_SCK_1V8*%
X153114112Y-98754112D02*
X152652500Y-98292500D01*
X153489990Y-99129990D02*
X153114112Y-98754112D01*
X156076000Y-96426000D02*
X154519000Y-96426000D01*
X155140000Y-99129990D02*
X153489990Y-99129990D01*
D28*
X156404644Y-99880000D02*
X161525998Y-99880000D01*
X161525998Y-99880000D02*
X163238998Y-98167000D01*
X155654634Y-99129990D02*
X156404644Y-99880000D01*
X155140000Y-99129990D02*
X155654634Y-99129990D01*
D26*
X154519000Y-96426000D02*
X152652500Y-98292500D01*
D28*
X163238998Y-98167000D02*
X164124000Y-98167000D01*
D26*
%TO.N,/P_SDA_3V3*%
X145040000Y-95180000D02*
X145040000Y-93780000D01*
X144240000Y-92880000D02*
X145040000Y-93680000D01*
X170024000Y-96867000D02*
X168727000Y-96867000D01*
X143840000Y-91680000D02*
X143840000Y-92480000D01*
X145040000Y-93680000D02*
X145040000Y-93780000D01*
X143840000Y-92480000D02*
X144240000Y-92880000D01*
X168727000Y-96867000D02*
X168639997Y-96779997D01*
%TO.N,/P_SCL_3V3*%
X148040000Y-94380000D02*
X148240000Y-94180000D01*
X148240000Y-94180000D02*
X148040000Y-95180000D01*
X148040000Y-94380000D02*
X148040000Y-95180000D01*
X148940001Y-93280000D02*
X149340000Y-92880001D01*
X148040000Y-95180000D02*
X148040000Y-94380000D01*
X170024000Y-95567000D02*
X168627000Y-95567000D01*
X148040000Y-94180001D02*
X148940001Y-93280000D01*
D28*
X149127500Y-91680000D02*
X149127500Y-92667501D01*
D26*
X168627000Y-95567000D02*
X168540000Y-95480000D01*
D28*
X149127500Y-92667501D02*
X149340000Y-92880001D01*
D26*
X148040000Y-94380000D02*
X148040000Y-94180001D01*
%TO.N,/P_SDA_1V8*%
X166169555Y-99350445D02*
X166039999Y-99480001D01*
X154540000Y-94580000D02*
X154939999Y-94979999D01*
X164124000Y-96867000D02*
X165049000Y-96867000D01*
X166169555Y-97987555D02*
X166169555Y-99350445D01*
X165049000Y-96867000D02*
X166169555Y-97987555D01*
X154008000Y-94048000D02*
X154540000Y-94580000D01*
X155701000Y-95626000D02*
X156076000Y-95626000D01*
X154939999Y-95030698D02*
X155535301Y-95626000D01*
X155535301Y-95626000D02*
X155701000Y-95626000D01*
X153029500Y-94048000D02*
X154008000Y-94048000D01*
X166039999Y-99480001D02*
X165640000Y-99880000D01*
X154939999Y-94979999D02*
X154939999Y-95030698D01*
%TO.N,/P_SCL_1V8*%
X166566000Y-92741500D02*
X166566000Y-91970000D01*
X164124000Y-95567000D02*
X165234998Y-95567000D01*
X164124000Y-95567000D02*
X163477000Y-95567000D01*
X165234998Y-95567000D02*
X166566000Y-94235998D01*
X166566000Y-94235998D02*
X166566000Y-92741500D01*
X164124000Y-95567000D02*
X163199000Y-95567000D01*
X162570301Y-97580000D02*
X160440000Y-97580000D01*
X162940000Y-97210301D02*
X162570301Y-97580000D01*
X162940000Y-95826000D02*
X162940000Y-97210301D01*
X160440000Y-97580000D02*
X159686000Y-96826000D01*
X163199000Y-95567000D02*
X162940000Y-95826000D01*
X159686000Y-96826000D02*
X159076000Y-96826000D01*
%TO.N,/INT1_1V8*%
X159076000Y-94826000D02*
X159494000Y-94826000D01*
X160901992Y-94351990D02*
X160776001Y-94225999D01*
X164124000Y-93617000D02*
X163199000Y-93617000D01*
X159494000Y-94826000D02*
X160094001Y-94225999D01*
X162464010Y-94351990D02*
X160901992Y-94351990D01*
X163199000Y-93617000D02*
X162464010Y-94351990D01*
X160776001Y-94225999D02*
X160094001Y-94225999D01*
%TO.N,/!SPI_SS1_1V8*%
X156076000Y-96026000D02*
X154686181Y-96026000D01*
X165049000Y-96217000D02*
X166869565Y-98037565D01*
X166869565Y-98163829D02*
X166869565Y-98729514D01*
X164124000Y-96217000D02*
X165049000Y-96217000D01*
X154686181Y-96026000D02*
X154396910Y-95736729D01*
X166869565Y-98037565D02*
X166869565Y-98163829D01*
%TD*%
%TA.AperFunction,Conductor*%
%TO.N,GND*%
G36*
X143178362Y-90910502D02*
G01*
X143224855Y-90964158D01*
X143234959Y-91034432D01*
X143210638Y-91092634D01*
X143157348Y-91162906D01*
X143157345Y-91162910D01*
X143104175Y-91297739D01*
X143104174Y-91297745D01*
X143094000Y-91382468D01*
X143094000Y-91977531D01*
X143104174Y-92062254D01*
X143104175Y-92062260D01*
X143157345Y-92197089D01*
X143157348Y-92197093D01*
X143244922Y-92312577D01*
X143315315Y-92365957D01*
X143360410Y-92400154D01*
X143360417Y-92400156D01*
X143367245Y-92403996D01*
X143416824Y-92454813D01*
X143431500Y-92513830D01*
X143431500Y-92544700D01*
X143437210Y-92562272D01*
X143438495Y-92566228D01*
X143443109Y-92585448D01*
X143446650Y-92607804D01*
X143446652Y-92607809D01*
X143456928Y-92627980D01*
X143464489Y-92646235D01*
X143471484Y-92667762D01*
X143471485Y-92667764D01*
X143471486Y-92667766D01*
X143471487Y-92667767D01*
X143478776Y-92677800D01*
X143484791Y-92686078D01*
X143495121Y-92702936D01*
X143505395Y-92723101D01*
X143510507Y-92730136D01*
X143534368Y-92797002D01*
X143533655Y-92819388D01*
X143526296Y-92879997D01*
X143526296Y-92880003D01*
X143547034Y-93050799D01*
X143605279Y-93204378D01*
X143608046Y-93211675D01*
X143705785Y-93353273D01*
X143834570Y-93467367D01*
X143834571Y-93467367D01*
X143834573Y-93467369D01*
X143912946Y-93508502D01*
X143986917Y-93547325D01*
X143986918Y-93547325D01*
X143986920Y-93547326D01*
X144115303Y-93578969D01*
X144153972Y-93588500D01*
X144153975Y-93588500D01*
X144318604Y-93588500D01*
X144386725Y-93608502D01*
X144407699Y-93625405D01*
X144568908Y-93786614D01*
X144602934Y-93848926D01*
X144597869Y-93919741D01*
X144568909Y-93964803D01*
X144531081Y-94002631D01*
X144531079Y-94002634D01*
X144484492Y-94108143D01*
X144484491Y-94108148D01*
X144481500Y-94133929D01*
X144481500Y-96226070D01*
X144484491Y-96251851D01*
X144484492Y-96251856D01*
X144531079Y-96357365D01*
X144531080Y-96357367D01*
X144612632Y-96438919D01*
X144612634Y-96438920D01*
X144612635Y-96438921D01*
X144718145Y-96485508D01*
X144743932Y-96488499D01*
X144743935Y-96488500D01*
X144743936Y-96488500D01*
X145336065Y-96488500D01*
X145336066Y-96488499D01*
X145361855Y-96485508D01*
X145467365Y-96438921D01*
X145467369Y-96438916D01*
X145468788Y-96437945D01*
X145471794Y-96436965D01*
X145478046Y-96434205D01*
X145478325Y-96434837D01*
X145536291Y-96415947D01*
X145604971Y-96433935D01*
X145611212Y-96437945D01*
X145612632Y-96438918D01*
X145612635Y-96438921D01*
X145612638Y-96438922D01*
X145612639Y-96438923D01*
X145682975Y-96469979D01*
X145718145Y-96485508D01*
X145743932Y-96488499D01*
X145743935Y-96488500D01*
X145743936Y-96488500D01*
X146336065Y-96488500D01*
X146336066Y-96488499D01*
X146361855Y-96485508D01*
X146467365Y-96438921D01*
X146548921Y-96357365D01*
X146595508Y-96251855D01*
X146598500Y-96226064D01*
X146598500Y-94133936D01*
X146595508Y-94108145D01*
X146548921Y-94002635D01*
X146548920Y-94002634D01*
X146548919Y-94002632D01*
X146487004Y-93940717D01*
X146452978Y-93878405D01*
X146458043Y-93807590D01*
X146475699Y-93775491D01*
X146535154Y-93697090D01*
X146588325Y-93562258D01*
X146598500Y-93477528D01*
X146598500Y-92882472D01*
X146588325Y-92797742D01*
X146585005Y-92789324D01*
X146535154Y-92662910D01*
X146535151Y-92662906D01*
X146480346Y-92590634D01*
X146455122Y-92524269D01*
X146469783Y-92454802D01*
X146519672Y-92404289D01*
X146580743Y-92388500D01*
X146626025Y-92388500D01*
X146626028Y-92388500D01*
X146793083Y-92347325D01*
X146846390Y-92319346D01*
X146916002Y-92305400D01*
X146981079Y-92330517D01*
X147072906Y-92400151D01*
X147072910Y-92400154D01*
X147195062Y-92448325D01*
X147207742Y-92453325D01*
X147292472Y-92463500D01*
X147292475Y-92463500D01*
X147812525Y-92463500D01*
X147812528Y-92463500D01*
X147897258Y-92453325D01*
X148032090Y-92400154D01*
X148147577Y-92312577D01*
X148235154Y-92197090D01*
X148235154Y-92197089D01*
X148239603Y-92191223D01*
X148296701Y-92149030D01*
X148367547Y-92144405D01*
X148429647Y-92178816D01*
X148440397Y-92191223D01*
X148444845Y-92197089D01*
X148444846Y-92197090D01*
X148445343Y-92197745D01*
X148517299Y-92292634D01*
X148532423Y-92312577D01*
X148644134Y-92397290D01*
X148686327Y-92454388D01*
X148694000Y-92497687D01*
X148694000Y-92562272D01*
X148685812Y-92606952D01*
X148647034Y-92709201D01*
X148626296Y-92879997D01*
X148626296Y-92880006D01*
X148633625Y-92940372D01*
X148621980Y-93010407D01*
X148597640Y-93044653D01*
X147805331Y-93836963D01*
X147743018Y-93870988D01*
X147730760Y-93873028D01*
X147718147Y-93874491D01*
X147718143Y-93874492D01*
X147612634Y-93921079D01*
X147612632Y-93921080D01*
X147531080Y-94002632D01*
X147531079Y-94002634D01*
X147484492Y-94108143D01*
X147484491Y-94108148D01*
X147481500Y-94133929D01*
X147481500Y-96226070D01*
X147484491Y-96251851D01*
X147484492Y-96251856D01*
X147531079Y-96357365D01*
X147531080Y-96357367D01*
X147612632Y-96438919D01*
X147612634Y-96438920D01*
X147612635Y-96438921D01*
X147718145Y-96485508D01*
X147743932Y-96488499D01*
X147743935Y-96488500D01*
X147743936Y-96488500D01*
X148336065Y-96488500D01*
X148336066Y-96488499D01*
X148361855Y-96485508D01*
X148467365Y-96438921D01*
X148467369Y-96438916D01*
X148468788Y-96437945D01*
X148471794Y-96436965D01*
X148478046Y-96434205D01*
X148478325Y-96434837D01*
X148536291Y-96415947D01*
X148604971Y-96433935D01*
X148611212Y-96437945D01*
X148612632Y-96438918D01*
X148612635Y-96438921D01*
X148612638Y-96438922D01*
X148612639Y-96438923D01*
X148682975Y-96469979D01*
X148718145Y-96485508D01*
X148743932Y-96488499D01*
X148743935Y-96488500D01*
X148743936Y-96488500D01*
X149336065Y-96488500D01*
X149336066Y-96488499D01*
X149361855Y-96485508D01*
X149467365Y-96438921D01*
X149548921Y-96357365D01*
X149595508Y-96251855D01*
X149598500Y-96226064D01*
X149598500Y-94133936D01*
X149595508Y-94108145D01*
X149548921Y-94002635D01*
X149548920Y-94002634D01*
X149548919Y-94002632D01*
X149467367Y-93921080D01*
X149467365Y-93921079D01*
X149361856Y-93874492D01*
X149361851Y-93874491D01*
X149336070Y-93871500D01*
X149336064Y-93871500D01*
X149230397Y-93871500D01*
X149162276Y-93851498D01*
X149115783Y-93797842D01*
X149105679Y-93727568D01*
X149135173Y-93662988D01*
X149141302Y-93656405D01*
X149172301Y-93625406D01*
X149234613Y-93591380D01*
X149261396Y-93588501D01*
X149426025Y-93588501D01*
X149426028Y-93588501D01*
X149593083Y-93547326D01*
X149745430Y-93467368D01*
X149874215Y-93353274D01*
X149971954Y-93211676D01*
X150032965Y-93050802D01*
X150046374Y-92940372D01*
X150053704Y-92880004D01*
X150053704Y-92879997D01*
X150032965Y-92709201D01*
X150032965Y-92709199D01*
X149971954Y-92548326D01*
X149874215Y-92406728D01*
X149828193Y-92365956D01*
X149790469Y-92305812D01*
X149791249Y-92234820D01*
X149806530Y-92204942D01*
X149805929Y-92204604D01*
X149810151Y-92197092D01*
X149810154Y-92197090D01*
X149863325Y-92062258D01*
X149873500Y-91977528D01*
X149873500Y-91382472D01*
X149863325Y-91297742D01*
X149849492Y-91262665D01*
X149810154Y-91162910D01*
X149810151Y-91162906D01*
X149756862Y-91092634D01*
X149731638Y-91026269D01*
X149746298Y-90956803D01*
X149796188Y-90906290D01*
X149857259Y-90890500D01*
X150797707Y-90890500D01*
X150865828Y-90910502D01*
X150912321Y-90964158D01*
X150922425Y-91034432D01*
X150901403Y-91088076D01*
X150808046Y-91223325D01*
X150747034Y-91384201D01*
X150726296Y-91554997D01*
X150726296Y-91555004D01*
X150747034Y-91725800D01*
X150797872Y-91859848D01*
X150808046Y-91886676D01*
X150905785Y-92028274D01*
X150953553Y-92070593D01*
X150991278Y-92130736D01*
X150996000Y-92164905D01*
X150996000Y-93249270D01*
X150975998Y-93317391D01*
X150946134Y-93349667D01*
X150859422Y-93415422D01*
X150771848Y-93530906D01*
X150771845Y-93530910D01*
X150718675Y-93665739D01*
X150718674Y-93665745D01*
X150708500Y-93750468D01*
X150708500Y-94345531D01*
X150718674Y-94430254D01*
X150718675Y-94430260D01*
X150771845Y-94565089D01*
X150771848Y-94565093D01*
X150859422Y-94680577D01*
X150946134Y-94746333D01*
X150988327Y-94803432D01*
X150996000Y-94846730D01*
X150996000Y-94861671D01*
X150995208Y-94875778D01*
X150991144Y-94911838D01*
X150991145Y-94911839D01*
X151001959Y-94968989D01*
X151002747Y-94973623D01*
X151011421Y-95031172D01*
X151011421Y-95031173D01*
X151011422Y-95031175D01*
X151013982Y-95039475D01*
X151016841Y-95047643D01*
X151044017Y-95099062D01*
X151046129Y-95103246D01*
X151068325Y-95149336D01*
X151071390Y-95155700D01*
X151076262Y-95162846D01*
X151081421Y-95169835D01*
X151081425Y-95169842D01*
X151122574Y-95210991D01*
X151125817Y-95214358D01*
X151165401Y-95257019D01*
X151165405Y-95257021D01*
X151172788Y-95262910D01*
X151172259Y-95263573D01*
X151184707Y-95273124D01*
X151289983Y-95378400D01*
X151324009Y-95440712D01*
X151325492Y-95472380D01*
X151326296Y-95472380D01*
X151326296Y-95480003D01*
X151347034Y-95650799D01*
X151407697Y-95810754D01*
X151408046Y-95811675D01*
X151505785Y-95953273D01*
X151634570Y-96067367D01*
X151634571Y-96067367D01*
X151634573Y-96067369D01*
X151644363Y-96072507D01*
X151786917Y-96147325D01*
X151786918Y-96147325D01*
X151786920Y-96147326D01*
X151918297Y-96179707D01*
X151953972Y-96188500D01*
X151953975Y-96188500D01*
X152126025Y-96188500D01*
X152126028Y-96188500D01*
X152293083Y-96147325D01*
X152445430Y-96067367D01*
X152574215Y-95953273D01*
X152671954Y-95811675D01*
X152732965Y-95650801D01*
X152743270Y-95565929D01*
X152753704Y-95480003D01*
X152753704Y-95479996D01*
X152732965Y-95309200D01*
X152725698Y-95290038D01*
X152671954Y-95148325D01*
X152583441Y-95020093D01*
X152561205Y-94952669D01*
X152578952Y-94883926D01*
X152631047Y-94835690D01*
X152700949Y-94823276D01*
X152701985Y-94823395D01*
X152769472Y-94831500D01*
X152769475Y-94831500D01*
X153289525Y-94831500D01*
X153289528Y-94831500D01*
X153374258Y-94821325D01*
X153509090Y-94768154D01*
X153624577Y-94680577D01*
X153624579Y-94680575D01*
X153630672Y-94674483D01*
X153632780Y-94676591D01*
X153678077Y-94643107D01*
X153748922Y-94638468D01*
X153811028Y-94672867D01*
X153844678Y-94735382D01*
X153846480Y-94746236D01*
X153847034Y-94750800D01*
X153908046Y-94911675D01*
X153978103Y-95013169D01*
X154000339Y-95080593D01*
X153982592Y-95149336D01*
X153957961Y-95179057D01*
X153862695Y-95263455D01*
X153764955Y-95405055D01*
X153703944Y-95565929D01*
X153683206Y-95736725D01*
X153683206Y-95736732D01*
X153703944Y-95907528D01*
X153764563Y-96067367D01*
X153764956Y-96068404D01*
X153862695Y-96210002D01*
X153918714Y-96259631D01*
X153956439Y-96319774D01*
X153955659Y-96390766D01*
X153924255Y-96443037D01*
X152857697Y-97509596D01*
X152795387Y-97543620D01*
X152768604Y-97546500D01*
X152354968Y-97546500D01*
X152270245Y-97556674D01*
X152270239Y-97556675D01*
X152135410Y-97609845D01*
X152135406Y-97609848D01*
X152019922Y-97697422D01*
X151932348Y-97812906D01*
X151932345Y-97812910D01*
X151879175Y-97947739D01*
X151879174Y-97947745D01*
X151869000Y-98032468D01*
X151869000Y-98552531D01*
X151879174Y-98637254D01*
X151879175Y-98637260D01*
X151932345Y-98772089D01*
X151932348Y-98772093D01*
X152019922Y-98887577D01*
X152141276Y-98979603D01*
X152183469Y-99036702D01*
X152188094Y-99107548D01*
X152153682Y-99169647D01*
X152141276Y-99180397D01*
X152019922Y-99272422D01*
X151932348Y-99387906D01*
X151932345Y-99387910D01*
X151879175Y-99522739D01*
X151879174Y-99522745D01*
X151869000Y-99607468D01*
X151869000Y-100127531D01*
X151879174Y-100212254D01*
X151879175Y-100212260D01*
X151932345Y-100347089D01*
X151932348Y-100347093D01*
X152019922Y-100462577D01*
X152135406Y-100550151D01*
X152135410Y-100550154D01*
X152224343Y-100585225D01*
X152270242Y-100603325D01*
X152354972Y-100613500D01*
X152354975Y-100613500D01*
X152950025Y-100613500D01*
X152950028Y-100613500D01*
X153034758Y-100603325D01*
X153077185Y-100586593D01*
X153147891Y-100580209D01*
X153181960Y-100592239D01*
X153286917Y-100647325D01*
X153286918Y-100647325D01*
X153286920Y-100647326D01*
X153350132Y-100662906D01*
X153453972Y-100688500D01*
X153453975Y-100688500D01*
X153626025Y-100688500D01*
X153626028Y-100688500D01*
X153793083Y-100647325D01*
X153908762Y-100586611D01*
X153978374Y-100572665D01*
X154013541Y-100580965D01*
X154070238Y-100603324D01*
X154070240Y-100603325D01*
X154097021Y-100606540D01*
X154154972Y-100613500D01*
X154154975Y-100613500D01*
X154750025Y-100613500D01*
X154750028Y-100613500D01*
X154834758Y-100603325D01*
X154969590Y-100550154D01*
X155085077Y-100462577D01*
X155172654Y-100347090D01*
X155225825Y-100212258D01*
X155236000Y-100127528D01*
X155236000Y-99689490D01*
X155256002Y-99621369D01*
X155309658Y-99574876D01*
X155362000Y-99563490D01*
X155422882Y-99563490D01*
X155491003Y-99583492D01*
X155511977Y-99600394D01*
X155813710Y-99902128D01*
X156075894Y-100164312D01*
X156085310Y-100174849D01*
X156106456Y-100201367D01*
X156109104Y-100203172D01*
X156151833Y-100232304D01*
X156155611Y-100234984D01*
X156199795Y-100267593D01*
X156199796Y-100267593D01*
X156199797Y-100267594D01*
X156207039Y-100271422D01*
X156214428Y-100274980D01*
X156214431Y-100274982D01*
X156266906Y-100291168D01*
X156271288Y-100292609D01*
X156323141Y-100310754D01*
X156323146Y-100310754D01*
X156331219Y-100312282D01*
X156339302Y-100313500D01*
X156339304Y-100313500D01*
X156394174Y-100313500D01*
X156398884Y-100313587D01*
X156453729Y-100315640D01*
X156453729Y-100315639D01*
X156453730Y-100315640D01*
X156463110Y-100314583D01*
X156463211Y-100315487D01*
X156478303Y-100313500D01*
X161494566Y-100313500D01*
X161508673Y-100314292D01*
X161512021Y-100314669D01*
X161542390Y-100318091D01*
X161596345Y-100307881D01*
X161600925Y-100307103D01*
X161655218Y-100298920D01*
X161655222Y-100298917D01*
X161663035Y-100296508D01*
X161670789Y-100293795D01*
X161670792Y-100293795D01*
X161719333Y-100268139D01*
X161723470Y-100266051D01*
X161772956Y-100242221D01*
X161772957Y-100242219D01*
X161779695Y-100237626D01*
X161786322Y-100232734D01*
X161786326Y-100232733D01*
X161825097Y-100193960D01*
X161828493Y-100190689D01*
X161845565Y-100174849D01*
X161868751Y-100153336D01*
X161868754Y-100153330D01*
X161874639Y-100145952D01*
X161875354Y-100146522D01*
X161884617Y-100134440D01*
X162875406Y-99143652D01*
X162937717Y-99109627D01*
X163008533Y-99114692D01*
X163065368Y-99157239D01*
X163090179Y-99223759D01*
X163090500Y-99232748D01*
X163090500Y-99738070D01*
X163093491Y-99763851D01*
X163093492Y-99763856D01*
X163140079Y-99869365D01*
X163140080Y-99869367D01*
X163221632Y-99950919D01*
X163221634Y-99950920D01*
X163221635Y-99950921D01*
X163327145Y-99997508D01*
X163352932Y-100000499D01*
X163352935Y-100000500D01*
X163352936Y-100000500D01*
X163539500Y-100000500D01*
X163607621Y-100020502D01*
X163654114Y-100074158D01*
X163665500Y-100126500D01*
X163665500Y-100402882D01*
X163645498Y-100471003D01*
X163615635Y-100503279D01*
X163557423Y-100547423D01*
X163511244Y-100608318D01*
X163454144Y-100650510D01*
X163383298Y-100655135D01*
X163352292Y-100643750D01*
X163293087Y-100612677D01*
X163293079Y-100612673D01*
X163126031Y-100571500D01*
X163126028Y-100571500D01*
X162953972Y-100571500D01*
X162953968Y-100571500D01*
X162786920Y-100612673D01*
X162786912Y-100612677D01*
X162634573Y-100692630D01*
X162634568Y-100692634D01*
X162505785Y-100806727D01*
X162408045Y-100948326D01*
X162347034Y-101109200D01*
X162326296Y-101279996D01*
X162326296Y-101280003D01*
X162347034Y-101450799D01*
X162389306Y-101562260D01*
X162408046Y-101611675D01*
X162505785Y-101753273D01*
X162634570Y-101867367D01*
X162634571Y-101867367D01*
X162634573Y-101867369D01*
X162697040Y-101900154D01*
X162786917Y-101947325D01*
X162786918Y-101947325D01*
X162786920Y-101947326D01*
X162852542Y-101963500D01*
X162953972Y-101988500D01*
X162953975Y-101988500D01*
X163126025Y-101988500D01*
X163126028Y-101988500D01*
X163293083Y-101947325D01*
X163445430Y-101867367D01*
X163453050Y-101860615D01*
X163517299Y-101830412D01*
X163587680Y-101839739D01*
X163612741Y-101854527D01*
X163672906Y-101900151D01*
X163672910Y-101900154D01*
X163800210Y-101950355D01*
X163807742Y-101953325D01*
X163892472Y-101963500D01*
X163892475Y-101963500D01*
X164412525Y-101963500D01*
X164412528Y-101963500D01*
X164497258Y-101953325D01*
X164632090Y-101900154D01*
X164747577Y-101812577D01*
X164835154Y-101697090D01*
X164888325Y-101562258D01*
X164898500Y-101477528D01*
X164898500Y-100882472D01*
X164888325Y-100797742D01*
X164854384Y-100711675D01*
X164835154Y-100662910D01*
X164835151Y-100662906D01*
X164747577Y-100547422D01*
X164632366Y-100460054D01*
X164590173Y-100402955D01*
X164582500Y-100359657D01*
X164582500Y-100126500D01*
X164602502Y-100058379D01*
X164656158Y-100011886D01*
X164708500Y-100000500D01*
X164840987Y-100000500D01*
X164909108Y-100020502D01*
X164955601Y-100074158D01*
X164958799Y-100081820D01*
X164994052Y-100174777D01*
X165008046Y-100211675D01*
X165105785Y-100353273D01*
X165234570Y-100467367D01*
X165234571Y-100467367D01*
X165234573Y-100467369D01*
X165302994Y-100503279D01*
X165386917Y-100547325D01*
X165386918Y-100547325D01*
X165386920Y-100547326D01*
X165540685Y-100585225D01*
X165553972Y-100588500D01*
X165553975Y-100588500D01*
X165726025Y-100588500D01*
X165726028Y-100588500D01*
X165892685Y-100547423D01*
X165893079Y-100547326D01*
X165893079Y-100547325D01*
X165893083Y-100547325D01*
X166045430Y-100467367D01*
X166174215Y-100353273D01*
X166271954Y-100211675D01*
X166332965Y-100050801D01*
X166353704Y-99880000D01*
X166346373Y-99819629D01*
X166358017Y-99749596D01*
X166382359Y-99715347D01*
X166481141Y-99616565D01*
X166504158Y-99593548D01*
X166514436Y-99573375D01*
X166524759Y-99556527D01*
X166538068Y-99538211D01*
X166545066Y-99516671D01*
X166552623Y-99498427D01*
X166560363Y-99483237D01*
X166609113Y-99431627D01*
X166678029Y-99414564D01*
X166702776Y-99418108D01*
X166783537Y-99438014D01*
X166783540Y-99438014D01*
X166955590Y-99438014D01*
X166955593Y-99438014D01*
X167122648Y-99396839D01*
X167274995Y-99316881D01*
X167403780Y-99202787D01*
X167501519Y-99061189D01*
X167562530Y-98900315D01*
X167578099Y-98772093D01*
X167583269Y-98729517D01*
X167583269Y-98729510D01*
X167562530Y-98558714D01*
X167549519Y-98524405D01*
X167501519Y-98397839D01*
X167403780Y-98256241D01*
X167332904Y-98193450D01*
X167320511Y-98182470D01*
X167282786Y-98122325D01*
X167278065Y-98088158D01*
X167278065Y-97972864D01*
X167273421Y-97958572D01*
X167271070Y-97951339D01*
X167266455Y-97932118D01*
X167262914Y-97909758D01*
X167262912Y-97909754D01*
X167262911Y-97909751D01*
X167252638Y-97889589D01*
X167245070Y-97871320D01*
X167241858Y-97861435D01*
X167238078Y-97849799D01*
X167224768Y-97831479D01*
X167214442Y-97814627D01*
X167214049Y-97813855D01*
X167204168Y-97794462D01*
X167112668Y-97702962D01*
X165483800Y-96074094D01*
X165449774Y-96011782D01*
X165454839Y-95940967D01*
X165483800Y-95895904D01*
X165569601Y-95810103D01*
X166189731Y-95189973D01*
X166817655Y-94562048D01*
X166879965Y-94528025D01*
X166950780Y-94533089D01*
X167007616Y-94575636D01*
X167031829Y-94635957D01*
X167045960Y-94752338D01*
X167106451Y-94911839D01*
X167106972Y-94913213D01*
X167204711Y-95054811D01*
X167333496Y-95168905D01*
X167333497Y-95168905D01*
X167333499Y-95168907D01*
X167401454Y-95204572D01*
X167485843Y-95248863D01*
X167485844Y-95248863D01*
X167485846Y-95248864D01*
X167644320Y-95287923D01*
X167652898Y-95290038D01*
X167652901Y-95290038D01*
X167707137Y-95290038D01*
X167775258Y-95310040D01*
X167821751Y-95363696D01*
X167832218Y-95431226D01*
X167826296Y-95479997D01*
X167826296Y-95480003D01*
X167847034Y-95650799D01*
X167907697Y-95810754D01*
X167908046Y-95811675D01*
X168005785Y-95953273D01*
X168134570Y-96067367D01*
X168134575Y-96067369D01*
X168137886Y-96069655D01*
X168139752Y-96071958D01*
X168140275Y-96072421D01*
X168140198Y-96072507D01*
X168182588Y-96124812D01*
X168190374Y-96195380D01*
X168158772Y-96258955D01*
X168149869Y-96267665D01*
X168105783Y-96306723D01*
X168008042Y-96448323D01*
X167947031Y-96609197D01*
X167926293Y-96779993D01*
X167926293Y-96780000D01*
X167947031Y-96950796D01*
X167997360Y-97083502D01*
X168008043Y-97111672D01*
X168105782Y-97253270D01*
X168234567Y-97367364D01*
X168236600Y-97368431D01*
X168237810Y-97369602D01*
X168240838Y-97371692D01*
X168240490Y-97372195D01*
X168287624Y-97417798D01*
X168303857Y-97486914D01*
X168280147Y-97553834D01*
X168240663Y-97588047D01*
X168240841Y-97588305D01*
X168238510Y-97589913D01*
X168236606Y-97591564D01*
X168234574Y-97592630D01*
X168234568Y-97592634D01*
X168105785Y-97706727D01*
X168008045Y-97848326D01*
X167947034Y-98009200D01*
X167926296Y-98179996D01*
X167926296Y-98180003D01*
X167947034Y-98350799D01*
X167998951Y-98487692D01*
X168008046Y-98511675D01*
X168105785Y-98653273D01*
X168234570Y-98767367D01*
X168234571Y-98767367D01*
X168234573Y-98767369D01*
X168289499Y-98796196D01*
X168386917Y-98847325D01*
X168386918Y-98847325D01*
X168386920Y-98847326D01*
X168458307Y-98864921D01*
X168553972Y-98888500D01*
X168553975Y-98888500D01*
X168726025Y-98888500D01*
X168726028Y-98888500D01*
X168834346Y-98861802D01*
X168905274Y-98864921D01*
X168963257Y-98905891D01*
X168989885Y-98971705D01*
X168990500Y-98984141D01*
X168990500Y-99088070D01*
X168993491Y-99113851D01*
X168993492Y-99113856D01*
X169040079Y-99219365D01*
X169040080Y-99219367D01*
X169121632Y-99300919D01*
X169121634Y-99300920D01*
X169121635Y-99300921D01*
X169227145Y-99347508D01*
X169252932Y-99350499D01*
X169252935Y-99350500D01*
X169252936Y-99350500D01*
X170699770Y-99350500D01*
X170767891Y-99370502D01*
X170801334Y-99407046D01*
X170803717Y-99405402D01*
X170808044Y-99411671D01*
X170808046Y-99411675D01*
X170905785Y-99553273D01*
X170977227Y-99616565D01*
X170998812Y-99635688D01*
X171036537Y-99695832D01*
X171035757Y-99766825D01*
X170998812Y-99824312D01*
X170905785Y-99906727D01*
X170808046Y-100048325D01*
X170770786Y-100146571D01*
X170727927Y-100203172D01*
X170661271Y-100227617D01*
X170602081Y-100217154D01*
X170508859Y-100175993D01*
X170508851Y-100175991D01*
X170483070Y-100173000D01*
X170483064Y-100173000D01*
X169501936Y-100173000D01*
X169501929Y-100173000D01*
X169476148Y-100175991D01*
X169476143Y-100175992D01*
X169370634Y-100222579D01*
X169370632Y-100222580D01*
X169289080Y-100304132D01*
X169289079Y-100304134D01*
X169242492Y-100409643D01*
X169242491Y-100409648D01*
X169239500Y-100435429D01*
X169239500Y-101924570D01*
X169242491Y-101950351D01*
X169242492Y-101950356D01*
X169289078Y-102055864D01*
X169289079Y-102055865D01*
X169370635Y-102137421D01*
X169370640Y-102137423D01*
X169379207Y-102143292D01*
X169424103Y-102198291D01*
X169434000Y-102247242D01*
X169434000Y-102361933D01*
X169413998Y-102430054D01*
X169360342Y-102476547D01*
X169290068Y-102486651D01*
X169277847Y-102484272D01*
X169226031Y-102471500D01*
X169226028Y-102471500D01*
X169053972Y-102471500D01*
X169053968Y-102471500D01*
X168886920Y-102512673D01*
X168886912Y-102512677D01*
X168734573Y-102592630D01*
X168734568Y-102592634D01*
X168605785Y-102706727D01*
X168508045Y-102848326D01*
X168447034Y-103009200D01*
X168426296Y-103179996D01*
X168426296Y-103180003D01*
X168447034Y-103350799D01*
X168489648Y-103463162D01*
X168508046Y-103511675D01*
X168605785Y-103653273D01*
X168734570Y-103767367D01*
X168734571Y-103767367D01*
X168734573Y-103767369D01*
X168815465Y-103809824D01*
X168886917Y-103847325D01*
X168886918Y-103847325D01*
X168886920Y-103847326D01*
X168917305Y-103854815D01*
X169053972Y-103888500D01*
X169053975Y-103888500D01*
X169226025Y-103888500D01*
X169226028Y-103888500D01*
X169375348Y-103851696D01*
X169446274Y-103854815D01*
X169504257Y-103895785D01*
X169530885Y-103961599D01*
X169531500Y-103974035D01*
X169531500Y-104076070D01*
X169534491Y-104101851D01*
X169534492Y-104101856D01*
X169581079Y-104207365D01*
X169581080Y-104207367D01*
X169662632Y-104288919D01*
X169662634Y-104288920D01*
X169662635Y-104288921D01*
X169768145Y-104335508D01*
X169793932Y-104338499D01*
X169793935Y-104338500D01*
X169793936Y-104338500D01*
X171186065Y-104338500D01*
X171186066Y-104338499D01*
X171211855Y-104335508D01*
X171317365Y-104288921D01*
X171398921Y-104207365D01*
X171445508Y-104101855D01*
X171448500Y-104076064D01*
X171448500Y-103063528D01*
X171468502Y-102995407D01*
X171485399Y-102974438D01*
X172230876Y-102228961D01*
X172293185Y-102194939D01*
X172361583Y-102199130D01*
X172446846Y-102228964D01*
X172465797Y-102235595D01*
X172496774Y-102238500D01*
X172496777Y-102238500D01*
X174007223Y-102238500D01*
X174007226Y-102238500D01*
X174038203Y-102235595D01*
X174168663Y-102189946D01*
X174279871Y-102107871D01*
X174361946Y-101996663D01*
X174407595Y-101866203D01*
X174410500Y-101835226D01*
X174410500Y-101424774D01*
X174407595Y-101393797D01*
X174361946Y-101263337D01*
X174361946Y-101263336D01*
X174279871Y-101152129D01*
X174259945Y-101137423D01*
X174217880Y-101106378D01*
X174174950Y-101049835D01*
X174169403Y-100979055D01*
X174203003Y-100916513D01*
X174217875Y-100903625D01*
X174279871Y-100857871D01*
X174361946Y-100746663D01*
X174407595Y-100616203D01*
X174410500Y-100585226D01*
X174410500Y-100174774D01*
X174407595Y-100143797D01*
X174361946Y-100013337D01*
X174361946Y-100013336D01*
X174279871Y-99902129D01*
X174279870Y-99902128D01*
X174217880Y-99856378D01*
X174174950Y-99799835D01*
X174169403Y-99729055D01*
X174203003Y-99666513D01*
X174217875Y-99653625D01*
X174279871Y-99607871D01*
X174361946Y-99496663D01*
X174407595Y-99366203D01*
X174410500Y-99335226D01*
X174410500Y-98924774D01*
X174407595Y-98893797D01*
X174361946Y-98763337D01*
X174361946Y-98763336D01*
X174279871Y-98652129D01*
X174272244Y-98646500D01*
X174217880Y-98606378D01*
X174174950Y-98549835D01*
X174169403Y-98479055D01*
X174203003Y-98416513D01*
X174217875Y-98403625D01*
X174279871Y-98357871D01*
X174361946Y-98246663D01*
X174407595Y-98116203D01*
X174410500Y-98085226D01*
X174410500Y-97674774D01*
X174407595Y-97643797D01*
X174375896Y-97553206D01*
X174361946Y-97513337D01*
X174361946Y-97513336D01*
X174279871Y-97402129D01*
X174265877Y-97391801D01*
X174217880Y-97356378D01*
X174174950Y-97299835D01*
X174169403Y-97229055D01*
X174203003Y-97166513D01*
X174217875Y-97153625D01*
X174279871Y-97107871D01*
X174361946Y-96996663D01*
X174407595Y-96866203D01*
X174410500Y-96835226D01*
X174410500Y-96424774D01*
X174407595Y-96393797D01*
X174406534Y-96390766D01*
X174361946Y-96263337D01*
X174361946Y-96263336D01*
X174279871Y-96152129D01*
X174273358Y-96147322D01*
X174217880Y-96106378D01*
X174174950Y-96049835D01*
X174169403Y-95979055D01*
X174203003Y-95916513D01*
X174217875Y-95903625D01*
X174279871Y-95857871D01*
X174361946Y-95746663D01*
X174407595Y-95616203D01*
X174410500Y-95585226D01*
X174410500Y-95174774D01*
X174407595Y-95143797D01*
X174405183Y-95136905D01*
X174361946Y-95013337D01*
X174361946Y-95013336D01*
X174312618Y-94946500D01*
X174279871Y-94902129D01*
X174184172Y-94831500D01*
X174168662Y-94820053D01*
X174038208Y-94774406D01*
X174038204Y-94774405D01*
X174022714Y-94772952D01*
X174007226Y-94771500D01*
X172496774Y-94771500D01*
X172465795Y-94774405D01*
X172465791Y-94774406D01*
X172335337Y-94820053D01*
X172335336Y-94820053D01*
X172224130Y-94902128D01*
X172217456Y-94908803D01*
X172214838Y-94906185D01*
X172172639Y-94938242D01*
X172127775Y-94946500D01*
X171899500Y-94946500D01*
X171831379Y-94926498D01*
X171784886Y-94872842D01*
X171773500Y-94820500D01*
X171773500Y-93989430D01*
X171774292Y-93975322D01*
X171775893Y-93961113D01*
X171778091Y-93941608D01*
X171767878Y-93887636D01*
X171767102Y-93883073D01*
X171758920Y-93828780D01*
X171758919Y-93828777D01*
X171756509Y-93820966D01*
X171753795Y-93813211D01*
X171753795Y-93813207D01*
X171728161Y-93764704D01*
X171726038Y-93760498D01*
X171702221Y-93711043D01*
X171702221Y-93711042D01*
X171702218Y-93711039D01*
X171697629Y-93704306D01*
X171692730Y-93697668D01*
X171653972Y-93658911D01*
X171650702Y-93655517D01*
X171613337Y-93615248D01*
X171605954Y-93609360D01*
X171606520Y-93608649D01*
X171594441Y-93599380D01*
X171462431Y-93467370D01*
X171327749Y-93332687D01*
X171318333Y-93322150D01*
X171297187Y-93295633D01*
X171281550Y-93284972D01*
X171251855Y-93264726D01*
X171248018Y-93262003D01*
X171208110Y-93232551D01*
X171203849Y-93229406D01*
X171203846Y-93229404D01*
X171196614Y-93225581D01*
X171189211Y-93222017D01*
X171136801Y-93205851D01*
X171132323Y-93204378D01*
X171080501Y-93186244D01*
X171072483Y-93184727D01*
X171064340Y-93183500D01*
X171028977Y-93183500D01*
X170960856Y-93163498D01*
X170939882Y-93146595D01*
X170926367Y-93133080D01*
X170926365Y-93133079D01*
X170820856Y-93086492D01*
X170820851Y-93086491D01*
X170795070Y-93083500D01*
X170795064Y-93083500D01*
X169252936Y-93083500D01*
X169252929Y-93083500D01*
X169227148Y-93086491D01*
X169227146Y-93086491D01*
X169227145Y-93086492D01*
X169207891Y-93094993D01*
X169137497Y-93104209D01*
X169073293Y-93073904D01*
X169035666Y-93013699D01*
X169031000Y-92979728D01*
X169031000Y-92768730D01*
X169051002Y-92700609D01*
X169080866Y-92668333D01*
X169167577Y-92602577D01*
X169208717Y-92548326D01*
X169255154Y-92487090D01*
X169308325Y-92352258D01*
X169318500Y-92267528D01*
X169318500Y-91672472D01*
X169308325Y-91587742D01*
X169303185Y-91574709D01*
X169255154Y-91452910D01*
X169255151Y-91452906D01*
X169167577Y-91337422D01*
X169052093Y-91249848D01*
X169052089Y-91249845D01*
X168917260Y-91196675D01*
X168917254Y-91196674D01*
X168832531Y-91186500D01*
X168832528Y-91186500D01*
X168312472Y-91186500D01*
X168312468Y-91186500D01*
X168227745Y-91196674D01*
X168227739Y-91196675D01*
X168092910Y-91249845D01*
X168092906Y-91249848D01*
X167977422Y-91337422D01*
X167889848Y-91452906D01*
X167889845Y-91452910D01*
X167836675Y-91587739D01*
X167836674Y-91587745D01*
X167826500Y-91672468D01*
X167826500Y-92267531D01*
X167836674Y-92352254D01*
X167836675Y-92352260D01*
X167889845Y-92487089D01*
X167889848Y-92487093D01*
X167977422Y-92602577D01*
X168064134Y-92668333D01*
X168106327Y-92725432D01*
X168114000Y-92768730D01*
X168114000Y-93174809D01*
X168093998Y-93242930D01*
X168071555Y-93269120D01*
X168041628Y-93295633D01*
X168038285Y-93298595D01*
X168000508Y-93353324D01*
X167940545Y-93440194D01*
X167879534Y-93601067D01*
X167859966Y-93762226D01*
X167831899Y-93827439D01*
X167773030Y-93867125D01*
X167734885Y-93873038D01*
X167652894Y-93873038D01*
X167485846Y-93914211D01*
X167485838Y-93914215D01*
X167333499Y-93994168D01*
X167333494Y-93994172D01*
X167204710Y-94108265D01*
X167204195Y-94109013D01*
X167203675Y-94109433D01*
X167199655Y-94113972D01*
X167198900Y-94113303D01*
X167149036Y-94153712D01*
X167078467Y-94161494D01*
X167014894Y-94129888D01*
X166978500Y-94068929D01*
X166974500Y-94037435D01*
X166974500Y-92813999D01*
X166994502Y-92745878D01*
X167048158Y-92699385D01*
X167054277Y-92696784D01*
X167071090Y-92690154D01*
X167186577Y-92602577D01*
X167274154Y-92487090D01*
X167327325Y-92352258D01*
X167337500Y-92267528D01*
X167337500Y-91672472D01*
X167327325Y-91587742D01*
X167322185Y-91574709D01*
X167274154Y-91452910D01*
X167274151Y-91452906D01*
X167186577Y-91337422D01*
X167071093Y-91249848D01*
X167071089Y-91249845D01*
X166936260Y-91196675D01*
X166936254Y-91196674D01*
X166851531Y-91186500D01*
X166851528Y-91186500D01*
X166331472Y-91186500D01*
X166331468Y-91186500D01*
X166246745Y-91196674D01*
X166246739Y-91196675D01*
X166111910Y-91249845D01*
X166111906Y-91249848D01*
X165996422Y-91337422D01*
X165904397Y-91458776D01*
X165847298Y-91500969D01*
X165776452Y-91505594D01*
X165714353Y-91471182D01*
X165703603Y-91458776D01*
X165611577Y-91337422D01*
X165496093Y-91249848D01*
X165496089Y-91249845D01*
X165361260Y-91196675D01*
X165361254Y-91196674D01*
X165276531Y-91186500D01*
X165276528Y-91186500D01*
X164756472Y-91186500D01*
X164756468Y-91186500D01*
X164671745Y-91196674D01*
X164671736Y-91196676D01*
X164552805Y-91243577D01*
X164482096Y-91249960D01*
X164476429Y-91248701D01*
X164366030Y-91221490D01*
X164366028Y-91221490D01*
X164193972Y-91221490D01*
X164193970Y-91221490D01*
X164026913Y-91262666D01*
X164008307Y-91272431D01*
X163938693Y-91286376D01*
X163903531Y-91278077D01*
X163813760Y-91242675D01*
X163813754Y-91242674D01*
X163729031Y-91232500D01*
X163729028Y-91232500D01*
X163208972Y-91232500D01*
X163208968Y-91232500D01*
X163124245Y-91242674D01*
X163124239Y-91242675D01*
X162989410Y-91295845D01*
X162989406Y-91295848D01*
X162873922Y-91383422D01*
X162781897Y-91504776D01*
X162724798Y-91546969D01*
X162653952Y-91551594D01*
X162591853Y-91517182D01*
X162581103Y-91504776D01*
X162489077Y-91383422D01*
X162373593Y-91295848D01*
X162373589Y-91295845D01*
X162238760Y-91242675D01*
X162238754Y-91242674D01*
X162154031Y-91232500D01*
X162154028Y-91232500D01*
X161633972Y-91232500D01*
X161633968Y-91232500D01*
X161549245Y-91242674D01*
X161549239Y-91242675D01*
X161414410Y-91295845D01*
X161414406Y-91295848D01*
X161298922Y-91383422D01*
X161211348Y-91498906D01*
X161207123Y-91506421D01*
X161204981Y-91505217D01*
X161169238Y-91551147D01*
X161102265Y-91574709D01*
X161065477Y-91571223D01*
X161026030Y-91561500D01*
X161026028Y-91561500D01*
X160933052Y-91561500D01*
X160864931Y-91541498D01*
X160830467Y-91504938D01*
X160829362Y-91505777D01*
X160736577Y-91383422D01*
X160621093Y-91295848D01*
X160621089Y-91295845D01*
X160486260Y-91242675D01*
X160486254Y-91242674D01*
X160401531Y-91232500D01*
X160401528Y-91232500D01*
X159881472Y-91232500D01*
X159881468Y-91232500D01*
X159796745Y-91242674D01*
X159796739Y-91242675D01*
X159661910Y-91295845D01*
X159661906Y-91295848D01*
X159546422Y-91383422D01*
X159458848Y-91498906D01*
X159458845Y-91498910D01*
X159405675Y-91633739D01*
X159405674Y-91633745D01*
X159395500Y-91718468D01*
X159395500Y-92313531D01*
X159405674Y-92398254D01*
X159405675Y-92398260D01*
X159458845Y-92533089D01*
X159458848Y-92533093D01*
X159546422Y-92648577D01*
X159661906Y-92736151D01*
X159661910Y-92736154D01*
X159780768Y-92783026D01*
X159796742Y-92789325D01*
X159881472Y-92799500D01*
X159881475Y-92799500D01*
X160401523Y-92799500D01*
X160401528Y-92799500D01*
X160404954Y-92799088D01*
X160474972Y-92810819D01*
X160503537Y-92829874D01*
X160534570Y-92857367D01*
X160686917Y-92937325D01*
X160686918Y-92937325D01*
X160686920Y-92937326D01*
X160788075Y-92962258D01*
X160853972Y-92978500D01*
X160853975Y-92978500D01*
X161026025Y-92978500D01*
X161026028Y-92978500D01*
X161193083Y-92937325D01*
X161345430Y-92857367D01*
X161403491Y-92805928D01*
X161467742Y-92775728D01*
X161533268Y-92783026D01*
X161549241Y-92789325D01*
X161549240Y-92789325D01*
X161574332Y-92792338D01*
X161633972Y-92799500D01*
X161633975Y-92799500D01*
X162154025Y-92799500D01*
X162154028Y-92799500D01*
X162238758Y-92789325D01*
X162373590Y-92736154D01*
X162489077Y-92648577D01*
X162576654Y-92533090D01*
X162576654Y-92533089D01*
X162581103Y-92527223D01*
X162638201Y-92485030D01*
X162709047Y-92480405D01*
X162771147Y-92514816D01*
X162781897Y-92527223D01*
X162873922Y-92648577D01*
X162989406Y-92736151D01*
X162989410Y-92736154D01*
X163108268Y-92783026D01*
X163124242Y-92789325D01*
X163208972Y-92799500D01*
X163208975Y-92799500D01*
X163729025Y-92799500D01*
X163729028Y-92799500D01*
X163813758Y-92789325D01*
X163948590Y-92736154D01*
X164058072Y-92653130D01*
X164124433Y-92627908D01*
X164164358Y-92631191D01*
X164173777Y-92633512D01*
X164193972Y-92638490D01*
X164193975Y-92638490D01*
X164366027Y-92638490D01*
X164366028Y-92638490D01*
X164366029Y-92638489D01*
X164366034Y-92638489D01*
X164385196Y-92633766D01*
X164456124Y-92636883D01*
X164491483Y-92655705D01*
X164536910Y-92690154D01*
X164546916Y-92694100D01*
X164553723Y-92696784D01*
X164609757Y-92740382D01*
X164629602Y-92796774D01*
X164631948Y-92796403D01*
X164633499Y-92806196D01*
X164640495Y-92827728D01*
X164645109Y-92846948D01*
X164648650Y-92869304D01*
X164648652Y-92869309D01*
X164658928Y-92889480D01*
X164666488Y-92907729D01*
X164670006Y-92918553D01*
X164672039Y-92989521D01*
X164635382Y-93050322D01*
X164571673Y-93081653D01*
X164550176Y-93083500D01*
X163352929Y-93083500D01*
X163327148Y-93086491D01*
X163327143Y-93086492D01*
X163221634Y-93133078D01*
X163173338Y-93181375D01*
X163123181Y-93212111D01*
X163112776Y-93215492D01*
X163093556Y-93220108D01*
X163074638Y-93223105D01*
X163071193Y-93223651D01*
X163071192Y-93223651D01*
X163071190Y-93223652D01*
X163051019Y-93233929D01*
X163032764Y-93241490D01*
X163011236Y-93248485D01*
X163011230Y-93248488D01*
X162992920Y-93261791D01*
X162976074Y-93272114D01*
X162955899Y-93282395D01*
X162955897Y-93282396D01*
X162955897Y-93282397D01*
X162932880Y-93305414D01*
X162331709Y-93906585D01*
X162269397Y-93940611D01*
X162242614Y-93943490D01*
X161123388Y-93943490D01*
X161055267Y-93923488D01*
X161034291Y-93906583D01*
X161019102Y-93891394D01*
X160998937Y-93881120D01*
X160982079Y-93870790D01*
X160963765Y-93857484D01*
X160963763Y-93857483D01*
X160942236Y-93850488D01*
X160923981Y-93842927D01*
X160903810Y-93832651D01*
X160903805Y-93832649D01*
X160881449Y-93829108D01*
X160862229Y-93824494D01*
X160862226Y-93824493D01*
X160840701Y-93817499D01*
X160808150Y-93817499D01*
X160158702Y-93817499D01*
X160029301Y-93817499D01*
X160029299Y-93817499D01*
X160007773Y-93824493D01*
X159988557Y-93829107D01*
X159969639Y-93832104D01*
X159966194Y-93832650D01*
X159966193Y-93832650D01*
X159966191Y-93832651D01*
X159946020Y-93842928D01*
X159927765Y-93850489D01*
X159906237Y-93857484D01*
X159906231Y-93857487D01*
X159887921Y-93870790D01*
X159871075Y-93881113D01*
X159850900Y-93891394D01*
X159850898Y-93891395D01*
X159850898Y-93891396D01*
X159827881Y-93914413D01*
X159361699Y-94380595D01*
X159299387Y-94414621D01*
X159272604Y-94417500D01*
X159110500Y-94417500D01*
X159042379Y-94397498D01*
X158995886Y-94343842D01*
X158984500Y-94291500D01*
X158984500Y-93751299D01*
X158979663Y-93736414D01*
X158977505Y-93729774D01*
X158972890Y-93710553D01*
X158969349Y-93688193D01*
X158959072Y-93668023D01*
X158951507Y-93649759D01*
X158950446Y-93646495D01*
X158944513Y-93628233D01*
X158931202Y-93609913D01*
X158920879Y-93593066D01*
X158910603Y-93572897D01*
X158891987Y-93554281D01*
X158891978Y-93554271D01*
X158590980Y-93253273D01*
X158282358Y-92944652D01*
X158248334Y-92882340D01*
X158246373Y-92840370D01*
X158253704Y-92780000D01*
X158253185Y-92775728D01*
X158232965Y-92609200D01*
X158232438Y-92607809D01*
X158171954Y-92448325D01*
X158074215Y-92306727D01*
X157945430Y-92192633D01*
X157945429Y-92192632D01*
X157945426Y-92192630D01*
X157793087Y-92112677D01*
X157793079Y-92112673D01*
X157626031Y-92071500D01*
X157626028Y-92071500D01*
X157453972Y-92071500D01*
X157453968Y-92071500D01*
X157286915Y-92112675D01*
X157270646Y-92121214D01*
X157201032Y-92135160D01*
X157134930Y-92109256D01*
X157104636Y-92068867D01*
X157101876Y-92070419D01*
X157097653Y-92062908D01*
X157010077Y-91947422D01*
X156894593Y-91859848D01*
X156894589Y-91859845D01*
X156759760Y-91806675D01*
X156759754Y-91806674D01*
X156675031Y-91796500D01*
X156675028Y-91796500D01*
X156154972Y-91796500D01*
X156154968Y-91796500D01*
X156070245Y-91806674D01*
X156070239Y-91806675D01*
X155935410Y-91859845D01*
X155935406Y-91859848D01*
X155819922Y-91947422D01*
X155732348Y-92062906D01*
X155732345Y-92062910D01*
X155679175Y-92197739D01*
X155679174Y-92197745D01*
X155669000Y-92282468D01*
X155669000Y-92877531D01*
X155679174Y-92962254D01*
X155679175Y-92962260D01*
X155732345Y-93097089D01*
X155732348Y-93097093D01*
X155819922Y-93212577D01*
X155935406Y-93300151D01*
X155935410Y-93300154D01*
X156070112Y-93353274D01*
X156070242Y-93353325D01*
X156154972Y-93363500D01*
X156154975Y-93363500D01*
X156675025Y-93363500D01*
X156675028Y-93363500D01*
X156759758Y-93353325D01*
X156894590Y-93300154D01*
X156900673Y-93295541D01*
X156967032Y-93270316D01*
X157036499Y-93284972D01*
X157060360Y-93301623D01*
X157134570Y-93367367D01*
X157134571Y-93367367D01*
X157134573Y-93367369D01*
X157215465Y-93409824D01*
X157286917Y-93447325D01*
X157286918Y-93447325D01*
X157286920Y-93447326D01*
X157418058Y-93479648D01*
X157453972Y-93488500D01*
X157453975Y-93488500D01*
X157618603Y-93488500D01*
X157686724Y-93508502D01*
X157707698Y-93525405D01*
X157717613Y-93535320D01*
X157751639Y-93597632D01*
X157746574Y-93668447D01*
X157704027Y-93725283D01*
X157646686Y-93749098D01*
X157622293Y-93752652D01*
X157613197Y-93755463D01*
X157542208Y-93756463D01*
X157538803Y-93755463D01*
X157529711Y-93752653D01*
X157460023Y-93742500D01*
X157460022Y-93742500D01*
X157291978Y-93742500D01*
X157291976Y-93742500D01*
X157222288Y-93752653D01*
X157213197Y-93755463D01*
X157142208Y-93756463D01*
X157138803Y-93755463D01*
X157129711Y-93752653D01*
X157060023Y-93742500D01*
X157060022Y-93742500D01*
X156891978Y-93742500D01*
X156891976Y-93742500D01*
X156822292Y-93752653D01*
X156822290Y-93752654D01*
X156714802Y-93805201D01*
X156630201Y-93889802D01*
X156577654Y-93997290D01*
X156577653Y-93997292D01*
X156567500Y-94066976D01*
X156567500Y-94307143D01*
X156547498Y-94375264D01*
X156493842Y-94421757D01*
X156423568Y-94431861D01*
X156405147Y-94427717D01*
X156335023Y-94417500D01*
X156335022Y-94417500D01*
X155816978Y-94417500D01*
X155816976Y-94417500D01*
X155747292Y-94427653D01*
X155747290Y-94427654D01*
X155639802Y-94480201D01*
X155555201Y-94564802D01*
X155502654Y-94672290D01*
X155502651Y-94672297D01*
X155501356Y-94681190D01*
X155471741Y-94745714D01*
X155411942Y-94783984D01*
X155340945Y-94783849D01*
X155281292Y-94745352D01*
X155274733Y-94737077D01*
X155269485Y-94729853D01*
X155245630Y-94662984D01*
X155246343Y-94640612D01*
X155253704Y-94580000D01*
X155251893Y-94565089D01*
X155235522Y-94430258D01*
X155232965Y-94409199D01*
X155171954Y-94248325D01*
X155074215Y-94106727D01*
X154945430Y-93992633D01*
X154945429Y-93992632D01*
X154945426Y-93992630D01*
X154793087Y-93912677D01*
X154793079Y-93912673D01*
X154626031Y-93871500D01*
X154626028Y-93871500D01*
X154461396Y-93871500D01*
X154393275Y-93851498D01*
X154372301Y-93834595D01*
X154274120Y-93736414D01*
X154251103Y-93713397D01*
X154251102Y-93713396D01*
X154251101Y-93713395D01*
X154230936Y-93703121D01*
X154214078Y-93692791D01*
X154207749Y-93688193D01*
X154195767Y-93679487D01*
X154195766Y-93679486D01*
X154195764Y-93679485D01*
X154195762Y-93679484D01*
X154174235Y-93672489D01*
X154155980Y-93664928D01*
X154135809Y-93654652D01*
X154135804Y-93654650D01*
X154113448Y-93651109D01*
X154094228Y-93646495D01*
X154072700Y-93639500D01*
X154072698Y-93639500D01*
X153840731Y-93639500D01*
X153772610Y-93619498D01*
X153726117Y-93565842D01*
X153723516Y-93559723D01*
X153719635Y-93549882D01*
X153712154Y-93530910D01*
X153712153Y-93530909D01*
X153712153Y-93530908D01*
X153624577Y-93415422D01*
X153509093Y-93327848D01*
X153509089Y-93327845D01*
X153374260Y-93274675D01*
X153374254Y-93274674D01*
X153289531Y-93264500D01*
X153289528Y-93264500D01*
X152769472Y-93264500D01*
X152769468Y-93264500D01*
X152684745Y-93274674D01*
X152684739Y-93274675D01*
X152549910Y-93327845D01*
X152549906Y-93327848D01*
X152434422Y-93415422D01*
X152342397Y-93536776D01*
X152285298Y-93578969D01*
X152214452Y-93583594D01*
X152152353Y-93549182D01*
X152141603Y-93536776D01*
X152049577Y-93415422D01*
X151962866Y-93349667D01*
X151920673Y-93292568D01*
X151913000Y-93249270D01*
X151913000Y-92139213D01*
X151933002Y-92071092D01*
X151955445Y-92044902D01*
X151974215Y-92028274D01*
X152071954Y-91886676D01*
X152132965Y-91725802D01*
X152144143Y-91633742D01*
X152153704Y-91555004D01*
X152153704Y-91554997D01*
X152132965Y-91384201D01*
X152132670Y-91383422D01*
X152071954Y-91223326D01*
X151978597Y-91088076D01*
X151956361Y-91020652D01*
X151974108Y-90951909D01*
X152026203Y-90903673D01*
X152082293Y-90890500D01*
X178103500Y-90890500D01*
X178171621Y-90910502D01*
X178218114Y-90964158D01*
X178229500Y-91016500D01*
X178229500Y-104743500D01*
X178209498Y-104811621D01*
X178155842Y-104858114D01*
X178103500Y-104869500D01*
X161782259Y-104869500D01*
X161714138Y-104849498D01*
X161667645Y-104795842D01*
X161657541Y-104725568D01*
X161681862Y-104667366D01*
X161697059Y-104647325D01*
X161735154Y-104597090D01*
X161788325Y-104462258D01*
X161798500Y-104377528D01*
X161798500Y-103782472D01*
X161788325Y-103697742D01*
X161778859Y-103673739D01*
X161735154Y-103562910D01*
X161735151Y-103562906D01*
X161647577Y-103447422D01*
X161532093Y-103359848D01*
X161532087Y-103359844D01*
X161500060Y-103347215D01*
X161444026Y-103303618D01*
X161420458Y-103236647D01*
X161436839Y-103167566D01*
X161487967Y-103118307D01*
X161500060Y-103112785D01*
X161532087Y-103100155D01*
X161532086Y-103100155D01*
X161532090Y-103100154D01*
X161647577Y-103012577D01*
X161735154Y-102897090D01*
X161788325Y-102762258D01*
X161798500Y-102677528D01*
X161798500Y-102082472D01*
X161788325Y-101997742D01*
X161787899Y-101996663D01*
X161735154Y-101862910D01*
X161735151Y-101862906D01*
X161647577Y-101747422D01*
X161532093Y-101659848D01*
X161532089Y-101659845D01*
X161397260Y-101606675D01*
X161397254Y-101606674D01*
X161312531Y-101596500D01*
X161312528Y-101596500D01*
X160792472Y-101596500D01*
X160792468Y-101596500D01*
X160707745Y-101606674D01*
X160707739Y-101606675D01*
X160572910Y-101659845D01*
X160572906Y-101659848D01*
X160457422Y-101747422D01*
X160369848Y-101862906D01*
X160369845Y-101862910D01*
X160316675Y-101997739D01*
X160316674Y-101997745D01*
X160307908Y-102070746D01*
X160279927Y-102135996D01*
X160221111Y-102175760D01*
X160152655Y-102178062D01*
X160126034Y-102171501D01*
X160126030Y-102171500D01*
X160126028Y-102171500D01*
X160049500Y-102171500D01*
X159981379Y-102151498D01*
X159934886Y-102097842D01*
X159923500Y-102045500D01*
X159923500Y-101203935D01*
X159923499Y-101203929D01*
X159920508Y-101178148D01*
X159920508Y-101178145D01*
X159873921Y-101072635D01*
X159873920Y-101072634D01*
X159873919Y-101072632D01*
X159792367Y-100991080D01*
X159792365Y-100991079D01*
X159686856Y-100944492D01*
X159686851Y-100944491D01*
X159661070Y-100941500D01*
X159661064Y-100941500D01*
X158918936Y-100941500D01*
X158918929Y-100941500D01*
X158893148Y-100944491D01*
X158893143Y-100944492D01*
X158787634Y-100991079D01*
X158787632Y-100991080D01*
X158706080Y-101072632D01*
X158706079Y-101072634D01*
X158659492Y-101178143D01*
X158659491Y-101178148D01*
X158656500Y-101203929D01*
X158656500Y-102183278D01*
X158636498Y-102251399D01*
X158582842Y-102297892D01*
X158528610Y-102309264D01*
X158147610Y-102303549D01*
X158079797Y-102282527D01*
X158034114Y-102228180D01*
X158023500Y-102177563D01*
X158023500Y-101203935D01*
X158023499Y-101203929D01*
X158020508Y-101178148D01*
X158020508Y-101178145D01*
X157973921Y-101072635D01*
X157973920Y-101072634D01*
X157973919Y-101072632D01*
X157892367Y-100991080D01*
X157892365Y-100991079D01*
X157786856Y-100944492D01*
X157786851Y-100944491D01*
X157761070Y-100941500D01*
X157761064Y-100941500D01*
X157018936Y-100941500D01*
X157018929Y-100941500D01*
X156993148Y-100944491D01*
X156993143Y-100944492D01*
X156887634Y-100991079D01*
X156887632Y-100991080D01*
X156806080Y-101072632D01*
X156806079Y-101072634D01*
X156759492Y-101178143D01*
X156759491Y-101178148D01*
X156756500Y-101203929D01*
X156756500Y-102356061D01*
X156760181Y-102387793D01*
X156748162Y-102457764D01*
X156738716Y-102473887D01*
X156708046Y-102518319D01*
X156647034Y-102679198D01*
X156626296Y-102849994D01*
X156626296Y-102850001D01*
X156647034Y-103020797D01*
X156708046Y-103181673D01*
X156752293Y-103245776D01*
X156774529Y-103313201D01*
X156763864Y-103368238D01*
X156759494Y-103378135D01*
X156759491Y-103378145D01*
X156756500Y-103403929D01*
X156756500Y-104556070D01*
X156759491Y-104581851D01*
X156759492Y-104581856D01*
X156808393Y-104692606D01*
X156817611Y-104763002D01*
X156787306Y-104827206D01*
X156727101Y-104864834D01*
X156693129Y-104869500D01*
X154846059Y-104869500D01*
X154777938Y-104849498D01*
X154731445Y-104795842D01*
X154721341Y-104725568D01*
X154745662Y-104667366D01*
X154759712Y-104648838D01*
X154817154Y-104573090D01*
X154870325Y-104438258D01*
X154880500Y-104353528D01*
X154880500Y-103758472D01*
X154870325Y-103673742D01*
X154817154Y-103538910D01*
X154772427Y-103479929D01*
X154731269Y-103425654D01*
X154706045Y-103359289D01*
X154720705Y-103289823D01*
X154727966Y-103277950D01*
X154772995Y-103212716D01*
X154834006Y-103051842D01*
X154852796Y-102897093D01*
X154854745Y-102881044D01*
X154854745Y-102881037D01*
X154834006Y-102710241D01*
X154834006Y-102710240D01*
X154772995Y-102549366D01*
X154751066Y-102517597D01*
X154728831Y-102450173D01*
X154746578Y-102381430D01*
X154754366Y-102369888D01*
X154791060Y-102321500D01*
X154817154Y-102287090D01*
X154870325Y-102152258D01*
X154880500Y-102067528D01*
X154880500Y-101472472D01*
X154870325Y-101387742D01*
X154821265Y-101263336D01*
X154817154Y-101252910D01*
X154817151Y-101252906D01*
X154729577Y-101137422D01*
X154614093Y-101049848D01*
X154614089Y-101049845D01*
X154479260Y-100996675D01*
X154479254Y-100996674D01*
X154394531Y-100986500D01*
X154394528Y-100986500D01*
X153874472Y-100986500D01*
X153874468Y-100986500D01*
X153789745Y-100996674D01*
X153789739Y-100996675D01*
X153654910Y-101049845D01*
X153654906Y-101049848D01*
X153541435Y-101135897D01*
X153475070Y-101161121D01*
X153465301Y-101161500D01*
X153218977Y-101161500D01*
X153150856Y-101141498D01*
X153129882Y-101124595D01*
X153072367Y-101067080D01*
X153072365Y-101067079D01*
X152966856Y-101020492D01*
X152966851Y-101020491D01*
X152941070Y-101017500D01*
X152941064Y-101017500D01*
X152198936Y-101017500D01*
X152198929Y-101017500D01*
X152173148Y-101020491D01*
X152173143Y-101020492D01*
X152067634Y-101067079D01*
X152067632Y-101067080D01*
X151986080Y-101148632D01*
X151986079Y-101148634D01*
X151939492Y-101254143D01*
X151939491Y-101254148D01*
X151936500Y-101279929D01*
X151936500Y-102195500D01*
X151916498Y-102263621D01*
X151862842Y-102310114D01*
X151810500Y-102321500D01*
X151429500Y-102321500D01*
X151361379Y-102301498D01*
X151314886Y-102247842D01*
X151303500Y-102195500D01*
X151303500Y-101279935D01*
X151303499Y-101279929D01*
X151300508Y-101254148D01*
X151300508Y-101254145D01*
X151253921Y-101148635D01*
X151253920Y-101148634D01*
X151253919Y-101148632D01*
X151172367Y-101067080D01*
X151172365Y-101067079D01*
X151066856Y-101020492D01*
X151066851Y-101020491D01*
X151041070Y-101017500D01*
X151041064Y-101017500D01*
X150298936Y-101017500D01*
X150298929Y-101017500D01*
X150273148Y-101020491D01*
X150273143Y-101020492D01*
X150167634Y-101067079D01*
X150167632Y-101067080D01*
X150086080Y-101148632D01*
X150086079Y-101148634D01*
X150039492Y-101254143D01*
X150039491Y-101254148D01*
X150036500Y-101279929D01*
X150036500Y-102432070D01*
X150039491Y-102457851D01*
X150039492Y-102457856D01*
X150086078Y-102563364D01*
X150086079Y-102563365D01*
X150141049Y-102618335D01*
X150161782Y-102645677D01*
X150165979Y-102653142D01*
X150171715Y-102664691D01*
X150188319Y-102702914D01*
X150188320Y-102702917D01*
X150199799Y-102717026D01*
X150211888Y-102734788D01*
X150220801Y-102750639D01*
X150250265Y-102780103D01*
X150258901Y-102789672D01*
X150285211Y-102822011D01*
X150285212Y-102822012D01*
X150300072Y-102832501D01*
X150316507Y-102846345D01*
X150472567Y-103002405D01*
X150506593Y-103064717D01*
X150501528Y-103135532D01*
X150458981Y-103192368D01*
X150392461Y-103217179D01*
X150383472Y-103217500D01*
X150298929Y-103217500D01*
X150273148Y-103220491D01*
X150273143Y-103220492D01*
X150167634Y-103267079D01*
X150167632Y-103267080D01*
X150086080Y-103348632D01*
X150086079Y-103348634D01*
X150039492Y-103454143D01*
X150039491Y-103454148D01*
X150036500Y-103479929D01*
X150036500Y-104632070D01*
X150039491Y-104657851D01*
X150039493Y-104657859D01*
X150054836Y-104692607D01*
X150064054Y-104763002D01*
X150033749Y-104827206D01*
X149973544Y-104864834D01*
X149939572Y-104869500D01*
X142376500Y-104869500D01*
X142308379Y-104849498D01*
X142261886Y-104795842D01*
X142250500Y-104743500D01*
X142250500Y-101626070D01*
X144481500Y-101626070D01*
X144484491Y-101651851D01*
X144484492Y-101651856D01*
X144531079Y-101757365D01*
X144531080Y-101757367D01*
X144612632Y-101838919D01*
X144612634Y-101838920D01*
X144612635Y-101838921D01*
X144718145Y-101885508D01*
X144743932Y-101888499D01*
X144743935Y-101888500D01*
X144743936Y-101888500D01*
X145336065Y-101888500D01*
X145336066Y-101888499D01*
X145361855Y-101885508D01*
X145467365Y-101838921D01*
X145467369Y-101838916D01*
X145468788Y-101837945D01*
X145471794Y-101836965D01*
X145478046Y-101834205D01*
X145478325Y-101834837D01*
X145536291Y-101815947D01*
X145604971Y-101833935D01*
X145611212Y-101837945D01*
X145612632Y-101838918D01*
X145612635Y-101838921D01*
X145612638Y-101838922D01*
X145612639Y-101838923D01*
X145647979Y-101854527D01*
X145718145Y-101885508D01*
X145743932Y-101888499D01*
X145743935Y-101888500D01*
X145743936Y-101888500D01*
X146336065Y-101888500D01*
X146336066Y-101888499D01*
X146361855Y-101885508D01*
X146467365Y-101838921D01*
X146467369Y-101838916D01*
X146468788Y-101837945D01*
X146471794Y-101836965D01*
X146478046Y-101834205D01*
X146478325Y-101834837D01*
X146536291Y-101815947D01*
X146604971Y-101833935D01*
X146611212Y-101837945D01*
X146612632Y-101838918D01*
X146612635Y-101838921D01*
X146612638Y-101838922D01*
X146612639Y-101838923D01*
X146647979Y-101854527D01*
X146718145Y-101885508D01*
X146743932Y-101888499D01*
X146743935Y-101888500D01*
X146743936Y-101888500D01*
X147336065Y-101888500D01*
X147336066Y-101888499D01*
X147361855Y-101885508D01*
X147467365Y-101838921D01*
X147467369Y-101838916D01*
X147468788Y-101837945D01*
X147471794Y-101836965D01*
X147478046Y-101834205D01*
X147478325Y-101834837D01*
X147536291Y-101815947D01*
X147604971Y-101833935D01*
X147611212Y-101837945D01*
X147612632Y-101838918D01*
X147612635Y-101838921D01*
X147612638Y-101838922D01*
X147612639Y-101838923D01*
X147647979Y-101854527D01*
X147718145Y-101885508D01*
X147743932Y-101888499D01*
X147743935Y-101888500D01*
X147743936Y-101888500D01*
X148336065Y-101888500D01*
X148336066Y-101888499D01*
X148361855Y-101885508D01*
X148467365Y-101838921D01*
X148467369Y-101838916D01*
X148468788Y-101837945D01*
X148471794Y-101836965D01*
X148478046Y-101834205D01*
X148478325Y-101834837D01*
X148536291Y-101815947D01*
X148604971Y-101833935D01*
X148611212Y-101837945D01*
X148612632Y-101838918D01*
X148612635Y-101838921D01*
X148612638Y-101838922D01*
X148612639Y-101838923D01*
X148647979Y-101854527D01*
X148718145Y-101885508D01*
X148743932Y-101888499D01*
X148743935Y-101888500D01*
X148743936Y-101888500D01*
X149336065Y-101888500D01*
X149336066Y-101888499D01*
X149361855Y-101885508D01*
X149467365Y-101838921D01*
X149548921Y-101757365D01*
X149595508Y-101651855D01*
X149598500Y-101626064D01*
X149598500Y-99533936D01*
X149595508Y-99508145D01*
X149548921Y-99402635D01*
X149548920Y-99402634D01*
X149548919Y-99402632D01*
X149467367Y-99321080D01*
X149467365Y-99321079D01*
X149361856Y-99274492D01*
X149361851Y-99274491D01*
X149336070Y-99271500D01*
X149336064Y-99271500D01*
X148743936Y-99271500D01*
X148743929Y-99271500D01*
X148718148Y-99274491D01*
X148718143Y-99274492D01*
X148612633Y-99321079D01*
X148611205Y-99322058D01*
X148608200Y-99323037D01*
X148601954Y-99325795D01*
X148601675Y-99325163D01*
X148543702Y-99344053D01*
X148475023Y-99326060D01*
X148468795Y-99322058D01*
X148467366Y-99321079D01*
X148361856Y-99274492D01*
X148361851Y-99274491D01*
X148336070Y-99271500D01*
X148336064Y-99271500D01*
X147743936Y-99271500D01*
X147743929Y-99271500D01*
X147718148Y-99274491D01*
X147718143Y-99274492D01*
X147612633Y-99321079D01*
X147611205Y-99322058D01*
X147608200Y-99323037D01*
X147601954Y-99325795D01*
X147601675Y-99325163D01*
X147543702Y-99344053D01*
X147475023Y-99326060D01*
X147468795Y-99322058D01*
X147467366Y-99321079D01*
X147361856Y-99274492D01*
X147361851Y-99274491D01*
X147336070Y-99271500D01*
X147336064Y-99271500D01*
X146743936Y-99271500D01*
X146743929Y-99271500D01*
X146718148Y-99274491D01*
X146718143Y-99274492D01*
X146612633Y-99321079D01*
X146611205Y-99322058D01*
X146608200Y-99323037D01*
X146601954Y-99325795D01*
X146601675Y-99325163D01*
X146543702Y-99344053D01*
X146475023Y-99326060D01*
X146468795Y-99322058D01*
X146467366Y-99321079D01*
X146361856Y-99274492D01*
X146361851Y-99274491D01*
X146336070Y-99271500D01*
X146336064Y-99271500D01*
X145743936Y-99271500D01*
X145743929Y-99271500D01*
X145718148Y-99274491D01*
X145718143Y-99274492D01*
X145612633Y-99321079D01*
X145611205Y-99322058D01*
X145608200Y-99323037D01*
X145601954Y-99325795D01*
X145601675Y-99325163D01*
X145543702Y-99344053D01*
X145475023Y-99326060D01*
X145468795Y-99322058D01*
X145467366Y-99321079D01*
X145361856Y-99274492D01*
X145361851Y-99274491D01*
X145336070Y-99271500D01*
X145336064Y-99271500D01*
X144743936Y-99271500D01*
X144743929Y-99271500D01*
X144718148Y-99274491D01*
X144718143Y-99274492D01*
X144612634Y-99321079D01*
X144612632Y-99321080D01*
X144531080Y-99402632D01*
X144531079Y-99402634D01*
X144484492Y-99508143D01*
X144484491Y-99508148D01*
X144481500Y-99533929D01*
X144481500Y-101626070D01*
X142250500Y-101626070D01*
X142250500Y-91016500D01*
X142270502Y-90948379D01*
X142324158Y-90901886D01*
X142376500Y-90890500D01*
X143110241Y-90890500D01*
X143178362Y-90910502D01*
G37*
%TD.AperFunction*%
%TA.AperFunction,Conductor*%
G36*
X156109621Y-97254502D02*
G01*
X156156114Y-97308158D01*
X156167500Y-97360500D01*
X156167500Y-97585023D01*
X156177653Y-97654707D01*
X156177654Y-97654709D01*
X156230201Y-97762197D01*
X156314802Y-97846798D01*
X156314803Y-97846798D01*
X156314804Y-97846799D01*
X156422293Y-97899347D01*
X156491978Y-97909500D01*
X156491984Y-97909500D01*
X156660016Y-97909500D01*
X156660022Y-97909500D01*
X156729707Y-97899347D01*
X156729710Y-97899345D01*
X156738801Y-97896537D01*
X156809790Y-97895536D01*
X156813199Y-97896537D01*
X156822290Y-97899345D01*
X156822293Y-97899347D01*
X156891978Y-97909500D01*
X156891984Y-97909500D01*
X157060016Y-97909500D01*
X157060022Y-97909500D01*
X157129707Y-97899347D01*
X157129710Y-97899345D01*
X157138801Y-97896537D01*
X157209790Y-97895536D01*
X157213199Y-97896537D01*
X157222290Y-97899345D01*
X157222293Y-97899347D01*
X157291978Y-97909500D01*
X157291984Y-97909500D01*
X157460016Y-97909500D01*
X157460022Y-97909500D01*
X157529707Y-97899347D01*
X157529710Y-97899345D01*
X157538801Y-97896537D01*
X157609790Y-97895536D01*
X157613199Y-97896537D01*
X157622290Y-97899345D01*
X157622293Y-97899347D01*
X157691978Y-97909500D01*
X157691984Y-97909500D01*
X157860016Y-97909500D01*
X157860022Y-97909500D01*
X157929707Y-97899347D01*
X157929710Y-97899345D01*
X157938801Y-97896537D01*
X158009790Y-97895536D01*
X158013199Y-97896537D01*
X158022290Y-97899345D01*
X158022293Y-97899347D01*
X158091978Y-97909500D01*
X158091984Y-97909500D01*
X158260016Y-97909500D01*
X158260022Y-97909500D01*
X158329707Y-97899347D01*
X158329710Y-97899345D01*
X158338801Y-97896537D01*
X158409790Y-97895536D01*
X158413199Y-97896537D01*
X158422290Y-97899345D01*
X158422293Y-97899347D01*
X158491978Y-97909500D01*
X158491984Y-97909500D01*
X158660016Y-97909500D01*
X158660022Y-97909500D01*
X158729707Y-97899347D01*
X158837196Y-97846799D01*
X158921799Y-97762196D01*
X158974347Y-97654707D01*
X158984500Y-97585022D01*
X158984500Y-97360500D01*
X159004502Y-97292379D01*
X159058158Y-97245886D01*
X159110500Y-97234500D01*
X159464604Y-97234500D01*
X159532725Y-97254502D01*
X159553699Y-97271405D01*
X160105397Y-97823103D01*
X160196897Y-97914603D01*
X160217065Y-97924879D01*
X160233916Y-97935204D01*
X160252233Y-97948513D01*
X160273762Y-97955508D01*
X160292023Y-97963072D01*
X160312193Y-97973349D01*
X160334553Y-97976890D01*
X160353774Y-97981505D01*
X160361704Y-97984082D01*
X160375299Y-97988500D01*
X160375300Y-97988500D01*
X160407851Y-97988500D01*
X161861740Y-97988500D01*
X161929861Y-98008502D01*
X161976354Y-98062158D01*
X161986458Y-98132432D01*
X161956964Y-98197012D01*
X161950836Y-98203595D01*
X161219836Y-98934596D01*
X161157523Y-98968621D01*
X161130740Y-98971501D01*
X156797807Y-98971501D01*
X156729686Y-98951499D01*
X156708711Y-98934596D01*
X156259710Y-98485595D01*
X155782302Y-98008186D01*
X155772886Y-97997649D01*
X155751741Y-97971133D01*
X155739922Y-97963075D01*
X155706409Y-97940226D01*
X155702572Y-97937503D01*
X155664977Y-97909758D01*
X155658403Y-97904906D01*
X155658400Y-97904904D01*
X155651168Y-97901081D01*
X155643765Y-97897517D01*
X155591355Y-97881351D01*
X155586877Y-97879878D01*
X155535055Y-97861744D01*
X155527037Y-97860227D01*
X155518894Y-97859000D01*
X155464050Y-97859000D01*
X155459339Y-97858912D01*
X155404467Y-97856858D01*
X155395088Y-97857916D01*
X155394986Y-97857012D01*
X155379891Y-97859000D01*
X155270188Y-97859000D01*
X155202067Y-97838998D01*
X155169791Y-97809134D01*
X155085077Y-97697422D01*
X154969593Y-97609848D01*
X154969591Y-97609847D01*
X154969590Y-97609846D01*
X154940774Y-97598482D01*
X154884742Y-97554884D01*
X154861175Y-97487913D01*
X154861000Y-97481268D01*
X154861000Y-97480896D01*
X154881002Y-97412775D01*
X154897905Y-97391801D01*
X155018301Y-97271405D01*
X155080613Y-97237379D01*
X155107396Y-97234500D01*
X155816978Y-97234500D01*
X156041500Y-97234500D01*
X156109621Y-97254502D01*
G37*
%TD.AperFunction*%
%TA.AperFunction,Conductor*%
G36*
X160622725Y-94654501D02*
G01*
X160643699Y-94671404D01*
X160658885Y-94686590D01*
X160658887Y-94686591D01*
X160658889Y-94686593D01*
X160679057Y-94696869D01*
X160695908Y-94707194D01*
X160714225Y-94720503D01*
X160735754Y-94727498D01*
X160754015Y-94735062D01*
X160774185Y-94745339D01*
X160783023Y-94749842D01*
X160781795Y-94752250D01*
X160828027Y-94783851D01*
X160855676Y-94849242D01*
X160856500Y-94863628D01*
X160856500Y-94963604D01*
X160836498Y-95031725D01*
X160819595Y-95052699D01*
X160691699Y-95180595D01*
X160629387Y-95214621D01*
X160602604Y-95217500D01*
X159984396Y-95217500D01*
X159916275Y-95197498D01*
X159869782Y-95143842D01*
X159859678Y-95073568D01*
X159889172Y-95008988D01*
X159895301Y-95002405D01*
X160226302Y-94671404D01*
X160288614Y-94637378D01*
X160315397Y-94634499D01*
X160554604Y-94634499D01*
X160622725Y-94654501D01*
G37*
%TD.AperFunction*%
%TD*%
M02*
