%TF.GenerationSoftware,KiCad,Pcbnew,8.0.3+1*%
%TF.CreationDate,2024-07-17T00:45:48+00:00*%
%TF.ProjectId,TFASPDIMU01,54464153-5044-4494-9d55-30312e6b6963,rev?*%
%TF.SameCoordinates,Original*%
%TF.FileFunction,Legend,Bot*%
%TF.FilePolarity,Positive*%
%FSLAX46Y46*%
G04 Gerber Fmt 4.6, Leading zero omitted, Abs format (unit mm)*
G04 Created by KiCad (PCBNEW 8.0.3+1) date 2024-07-17 00:45:48*
%MOMM*%
%LPD*%
G01*
G04 APERTURE LIST*
%ADD10C,0.200000*%
G04 APERTURE END LIST*
D10*
X164298809Y-94257126D02*
X164298809Y-92987126D01*
X164298809Y-92987126D02*
X163875475Y-93894269D01*
X163875475Y-93894269D02*
X163452142Y-92987126D01*
X163452142Y-92987126D02*
X163452142Y-94257126D01*
X162242618Y-94257126D02*
X162847380Y-94257126D01*
X162847380Y-94257126D02*
X162847380Y-92987126D01*
X161879761Y-93894269D02*
X161274999Y-93894269D01*
X162000713Y-94257126D02*
X161577380Y-92987126D01*
X161577380Y-92987126D02*
X161154046Y-94257126D01*
X160307380Y-93591888D02*
X160125952Y-93652364D01*
X160125952Y-93652364D02*
X160065475Y-93712840D01*
X160065475Y-93712840D02*
X160004999Y-93833792D01*
X160004999Y-93833792D02*
X160004999Y-94015221D01*
X160004999Y-94015221D02*
X160065475Y-94136173D01*
X160065475Y-94136173D02*
X160125952Y-94196650D01*
X160125952Y-94196650D02*
X160246904Y-94257126D01*
X160246904Y-94257126D02*
X160730714Y-94257126D01*
X160730714Y-94257126D02*
X160730714Y-92987126D01*
X160730714Y-92987126D02*
X160307380Y-92987126D01*
X160307380Y-92987126D02*
X160186428Y-93047602D01*
X160186428Y-93047602D02*
X160125952Y-93108078D01*
X160125952Y-93108078D02*
X160065475Y-93229030D01*
X160065475Y-93229030D02*
X160065475Y-93349983D01*
X160065475Y-93349983D02*
X160125952Y-93470935D01*
X160125952Y-93470935D02*
X160186428Y-93531411D01*
X160186428Y-93531411D02*
X160307380Y-93591888D01*
X160307380Y-93591888D02*
X160730714Y-93591888D01*
X159460714Y-94136173D02*
X159400237Y-94196650D01*
X159400237Y-94196650D02*
X159460714Y-94257126D01*
X159460714Y-94257126D02*
X159521190Y-94196650D01*
X159521190Y-94196650D02*
X159460714Y-94136173D01*
X159460714Y-94136173D02*
X159460714Y-94257126D01*
X158130237Y-94136173D02*
X158190713Y-94196650D01*
X158190713Y-94196650D02*
X158372142Y-94257126D01*
X158372142Y-94257126D02*
X158493094Y-94257126D01*
X158493094Y-94257126D02*
X158674523Y-94196650D01*
X158674523Y-94196650D02*
X158795475Y-94075697D01*
X158795475Y-94075697D02*
X158855952Y-93954745D01*
X158855952Y-93954745D02*
X158916428Y-93712840D01*
X158916428Y-93712840D02*
X158916428Y-93531411D01*
X158916428Y-93531411D02*
X158855952Y-93289507D01*
X158855952Y-93289507D02*
X158795475Y-93168554D01*
X158795475Y-93168554D02*
X158674523Y-93047602D01*
X158674523Y-93047602D02*
X158493094Y-92987126D01*
X158493094Y-92987126D02*
X158372142Y-92987126D01*
X158372142Y-92987126D02*
X158190713Y-93047602D01*
X158190713Y-93047602D02*
X158130237Y-93108078D01*
X157706904Y-92987126D02*
X156860237Y-92987126D01*
X156860237Y-92987126D02*
X157706904Y-94257126D01*
X157706904Y-94257126D02*
X156860237Y-94257126D01*
X149168332Y-100987126D02*
X149168332Y-101894269D01*
X149168332Y-101894269D02*
X149228809Y-102075697D01*
X149228809Y-102075697D02*
X149349761Y-102196650D01*
X149349761Y-102196650D02*
X149531190Y-102257126D01*
X149531190Y-102257126D02*
X149652142Y-102257126D01*
X148624047Y-101894269D02*
X148019285Y-101894269D01*
X148744999Y-102257126D02*
X148321666Y-100987126D01*
X148321666Y-100987126D02*
X147898332Y-102257126D01*
X146749285Y-102136173D02*
X146809761Y-102196650D01*
X146809761Y-102196650D02*
X146991190Y-102257126D01*
X146991190Y-102257126D02*
X147112142Y-102257126D01*
X147112142Y-102257126D02*
X147293571Y-102196650D01*
X147293571Y-102196650D02*
X147414523Y-102075697D01*
X147414523Y-102075697D02*
X147475000Y-101954745D01*
X147475000Y-101954745D02*
X147535476Y-101712840D01*
X147535476Y-101712840D02*
X147535476Y-101531411D01*
X147535476Y-101531411D02*
X147475000Y-101289507D01*
X147475000Y-101289507D02*
X147414523Y-101168554D01*
X147414523Y-101168554D02*
X147293571Y-101047602D01*
X147293571Y-101047602D02*
X147112142Y-100987126D01*
X147112142Y-100987126D02*
X146991190Y-100987126D01*
X146991190Y-100987126D02*
X146809761Y-101047602D01*
X146809761Y-101047602D02*
X146749285Y-101108078D01*
X146205000Y-102257126D02*
X146205000Y-100987126D01*
X146205000Y-101591888D02*
X145479285Y-101591888D01*
X145479285Y-102257126D02*
X145479285Y-100987126D01*
X144632619Y-100987126D02*
X144390714Y-100987126D01*
X144390714Y-100987126D02*
X144269762Y-101047602D01*
X144269762Y-101047602D02*
X144148809Y-101168554D01*
X144148809Y-101168554D02*
X144088333Y-101410459D01*
X144088333Y-101410459D02*
X144088333Y-101833792D01*
X144088333Y-101833792D02*
X144148809Y-102075697D01*
X144148809Y-102075697D02*
X144269762Y-102196650D01*
X144269762Y-102196650D02*
X144390714Y-102257126D01*
X144390714Y-102257126D02*
X144632619Y-102257126D01*
X144632619Y-102257126D02*
X144753571Y-102196650D01*
X144753571Y-102196650D02*
X144874524Y-102075697D01*
X144874524Y-102075697D02*
X144935000Y-101833792D01*
X144935000Y-101833792D02*
X144935000Y-101410459D01*
X144935000Y-101410459D02*
X144874524Y-101168554D01*
X144874524Y-101168554D02*
X144753571Y-101047602D01*
X144753571Y-101047602D02*
X144632619Y-100987126D01*
X149217143Y-102908078D02*
X149156667Y-102847602D01*
X149156667Y-102847602D02*
X149035714Y-102787126D01*
X149035714Y-102787126D02*
X148733333Y-102787126D01*
X148733333Y-102787126D02*
X148612381Y-102847602D01*
X148612381Y-102847602D02*
X148551905Y-102908078D01*
X148551905Y-102908078D02*
X148491428Y-103029030D01*
X148491428Y-103029030D02*
X148491428Y-103149983D01*
X148491428Y-103149983D02*
X148551905Y-103331411D01*
X148551905Y-103331411D02*
X149277619Y-104057126D01*
X149277619Y-104057126D02*
X148491428Y-104057126D01*
X147705238Y-102787126D02*
X147584285Y-102787126D01*
X147584285Y-102787126D02*
X147463333Y-102847602D01*
X147463333Y-102847602D02*
X147402857Y-102908078D01*
X147402857Y-102908078D02*
X147342381Y-103029030D01*
X147342381Y-103029030D02*
X147281904Y-103270935D01*
X147281904Y-103270935D02*
X147281904Y-103573316D01*
X147281904Y-103573316D02*
X147342381Y-103815221D01*
X147342381Y-103815221D02*
X147402857Y-103936173D01*
X147402857Y-103936173D02*
X147463333Y-103996650D01*
X147463333Y-103996650D02*
X147584285Y-104057126D01*
X147584285Y-104057126D02*
X147705238Y-104057126D01*
X147705238Y-104057126D02*
X147826190Y-103996650D01*
X147826190Y-103996650D02*
X147886666Y-103936173D01*
X147886666Y-103936173D02*
X147947143Y-103815221D01*
X147947143Y-103815221D02*
X148007619Y-103573316D01*
X148007619Y-103573316D02*
X148007619Y-103270935D01*
X148007619Y-103270935D02*
X147947143Y-103029030D01*
X147947143Y-103029030D02*
X147886666Y-102908078D01*
X147886666Y-102908078D02*
X147826190Y-102847602D01*
X147826190Y-102847602D02*
X147705238Y-102787126D01*
X146072380Y-104057126D02*
X146798095Y-104057126D01*
X146435238Y-104057126D02*
X146435238Y-102787126D01*
X146435238Y-102787126D02*
X146556190Y-102968554D01*
X146556190Y-102968554D02*
X146677142Y-103089507D01*
X146677142Y-103089507D02*
X146798095Y-103149983D01*
X145467618Y-104057126D02*
X145225714Y-104057126D01*
X145225714Y-104057126D02*
X145104761Y-103996650D01*
X145104761Y-103996650D02*
X145044285Y-103936173D01*
X145044285Y-103936173D02*
X144923333Y-103754745D01*
X144923333Y-103754745D02*
X144862856Y-103512840D01*
X144862856Y-103512840D02*
X144862856Y-103029030D01*
X144862856Y-103029030D02*
X144923333Y-102908078D01*
X144923333Y-102908078D02*
X144983809Y-102847602D01*
X144983809Y-102847602D02*
X145104761Y-102787126D01*
X145104761Y-102787126D02*
X145346666Y-102787126D01*
X145346666Y-102787126D02*
X145467618Y-102847602D01*
X145467618Y-102847602D02*
X145528095Y-102908078D01*
X145528095Y-102908078D02*
X145588571Y-103029030D01*
X145588571Y-103029030D02*
X145588571Y-103331411D01*
X145588571Y-103331411D02*
X145528095Y-103452364D01*
X145528095Y-103452364D02*
X145467618Y-103512840D01*
X145467618Y-103512840D02*
X145346666Y-103573316D01*
X145346666Y-103573316D02*
X145104761Y-103573316D01*
X145104761Y-103573316D02*
X144983809Y-103512840D01*
X144983809Y-103512840D02*
X144923333Y-103452364D01*
X144923333Y-103452364D02*
X144862856Y-103331411D01*
X170837380Y-95687126D02*
X170534999Y-96957126D01*
X170534999Y-96957126D02*
X170293094Y-96049983D01*
X170293094Y-96049983D02*
X170051189Y-96957126D01*
X170051189Y-96957126D02*
X169748809Y-95687126D01*
X169264999Y-96957126D02*
X169264999Y-95687126D01*
X168660237Y-96957126D02*
X168660237Y-95687126D01*
X168660237Y-95687126D02*
X167934522Y-96957126D01*
X167934522Y-96957126D02*
X167934522Y-95687126D01*
X167329761Y-96957126D02*
X167329761Y-95687126D01*
X167329761Y-95687126D02*
X167027380Y-95687126D01*
X167027380Y-95687126D02*
X166845951Y-95747602D01*
X166845951Y-95747602D02*
X166724999Y-95868554D01*
X166724999Y-95868554D02*
X166664522Y-95989507D01*
X166664522Y-95989507D02*
X166604046Y-96231411D01*
X166604046Y-96231411D02*
X166604046Y-96412840D01*
X166604046Y-96412840D02*
X166664522Y-96654745D01*
X166664522Y-96654745D02*
X166724999Y-96775697D01*
X166724999Y-96775697D02*
X166845951Y-96896650D01*
X166845951Y-96896650D02*
X167027380Y-96957126D01*
X167027380Y-96957126D02*
X167329761Y-96957126D01*
X165394522Y-95747602D02*
X165515475Y-95687126D01*
X165515475Y-95687126D02*
X165696903Y-95687126D01*
X165696903Y-95687126D02*
X165878332Y-95747602D01*
X165878332Y-95747602D02*
X165999284Y-95868554D01*
X165999284Y-95868554D02*
X166059761Y-95989507D01*
X166059761Y-95989507D02*
X166120237Y-96231411D01*
X166120237Y-96231411D02*
X166120237Y-96412840D01*
X166120237Y-96412840D02*
X166059761Y-96654745D01*
X166059761Y-96654745D02*
X165999284Y-96775697D01*
X165999284Y-96775697D02*
X165878332Y-96896650D01*
X165878332Y-96896650D02*
X165696903Y-96957126D01*
X165696903Y-96957126D02*
X165575951Y-96957126D01*
X165575951Y-96957126D02*
X165394522Y-96896650D01*
X165394522Y-96896650D02*
X165334046Y-96836173D01*
X165334046Y-96836173D02*
X165334046Y-96412840D01*
X165334046Y-96412840D02*
X165575951Y-96412840D01*
X164850237Y-96594269D02*
X164245475Y-96594269D01*
X164971189Y-96957126D02*
X164547856Y-95687126D01*
X164547856Y-95687126D02*
X164124522Y-96957126D01*
X163701190Y-95687126D02*
X163701190Y-96715221D01*
X163701190Y-96715221D02*
X163640713Y-96836173D01*
X163640713Y-96836173D02*
X163580237Y-96896650D01*
X163580237Y-96896650D02*
X163459285Y-96957126D01*
X163459285Y-96957126D02*
X163217380Y-96957126D01*
X163217380Y-96957126D02*
X163096428Y-96896650D01*
X163096428Y-96896650D02*
X163035951Y-96836173D01*
X163035951Y-96836173D02*
X162975475Y-96715221D01*
X162975475Y-96715221D02*
X162975475Y-95687126D01*
X161705475Y-95747602D02*
X161826428Y-95687126D01*
X161826428Y-95687126D02*
X162007856Y-95687126D01*
X162007856Y-95687126D02*
X162189285Y-95747602D01*
X162189285Y-95747602D02*
X162310237Y-95868554D01*
X162310237Y-95868554D02*
X162370714Y-95989507D01*
X162370714Y-95989507D02*
X162431190Y-96231411D01*
X162431190Y-96231411D02*
X162431190Y-96412840D01*
X162431190Y-96412840D02*
X162370714Y-96654745D01*
X162370714Y-96654745D02*
X162310237Y-96775697D01*
X162310237Y-96775697D02*
X162189285Y-96896650D01*
X162189285Y-96896650D02*
X162007856Y-96957126D01*
X162007856Y-96957126D02*
X161886904Y-96957126D01*
X161886904Y-96957126D02*
X161705475Y-96896650D01*
X161705475Y-96896650D02*
X161644999Y-96836173D01*
X161644999Y-96836173D02*
X161644999Y-96412840D01*
X161644999Y-96412840D02*
X161886904Y-96412840D01*
X161100714Y-96291888D02*
X160677380Y-96291888D01*
X160495952Y-96957126D02*
X161100714Y-96957126D01*
X161100714Y-96957126D02*
X161100714Y-95687126D01*
X161100714Y-95687126D02*
X160495952Y-95687126D01*
X159709761Y-95687126D02*
X159588808Y-95687126D01*
X159588808Y-95687126D02*
X159467856Y-95747602D01*
X159467856Y-95747602D02*
X159407380Y-95808078D01*
X159407380Y-95808078D02*
X159346904Y-95929030D01*
X159346904Y-95929030D02*
X159286427Y-96170935D01*
X159286427Y-96170935D02*
X159286427Y-96473316D01*
X159286427Y-96473316D02*
X159346904Y-96715221D01*
X159346904Y-96715221D02*
X159407380Y-96836173D01*
X159407380Y-96836173D02*
X159467856Y-96896650D01*
X159467856Y-96896650D02*
X159588808Y-96957126D01*
X159588808Y-96957126D02*
X159709761Y-96957126D01*
X159709761Y-96957126D02*
X159830713Y-96896650D01*
X159830713Y-96896650D02*
X159891189Y-96836173D01*
X159891189Y-96836173D02*
X159951666Y-96715221D01*
X159951666Y-96715221D02*
X160012142Y-96473316D01*
X160012142Y-96473316D02*
X160012142Y-96170935D01*
X160012142Y-96170935D02*
X159951666Y-95929030D01*
X159951666Y-95929030D02*
X159891189Y-95808078D01*
X159891189Y-95808078D02*
X159830713Y-95747602D01*
X159830713Y-95747602D02*
X159709761Y-95687126D01*
X158863094Y-95687126D02*
X158076903Y-95687126D01*
X158076903Y-95687126D02*
X158500237Y-96170935D01*
X158500237Y-96170935D02*
X158318808Y-96170935D01*
X158318808Y-96170935D02*
X158197856Y-96231411D01*
X158197856Y-96231411D02*
X158137380Y-96291888D01*
X158137380Y-96291888D02*
X158076903Y-96412840D01*
X158076903Y-96412840D02*
X158076903Y-96715221D01*
X158076903Y-96715221D02*
X158137380Y-96836173D01*
X158137380Y-96836173D02*
X158197856Y-96896650D01*
X158197856Y-96896650D02*
X158318808Y-96957126D01*
X158318808Y-96957126D02*
X158681665Y-96957126D01*
X158681665Y-96957126D02*
X158802618Y-96896650D01*
X158802618Y-96896650D02*
X158863094Y-96836173D01*
X157593094Y-96594269D02*
X156988332Y-96594269D01*
X157714046Y-96957126D02*
X157290713Y-95687126D01*
X157290713Y-95687126D02*
X156867379Y-96957126D01*
X156746428Y-97078078D02*
X155778808Y-97078078D01*
X155476428Y-96957126D02*
X155476428Y-95687126D01*
X155476428Y-95687126D02*
X154992618Y-95687126D01*
X154992618Y-95687126D02*
X154871666Y-95747602D01*
X154871666Y-95747602D02*
X154811189Y-95808078D01*
X154811189Y-95808078D02*
X154750713Y-95929030D01*
X154750713Y-95929030D02*
X154750713Y-96110459D01*
X154750713Y-96110459D02*
X154811189Y-96231411D01*
X154811189Y-96231411D02*
X154871666Y-96291888D01*
X154871666Y-96291888D02*
X154992618Y-96352364D01*
X154992618Y-96352364D02*
X155476428Y-96352364D01*
X153480713Y-96836173D02*
X153541189Y-96896650D01*
X153541189Y-96896650D02*
X153722618Y-96957126D01*
X153722618Y-96957126D02*
X153843570Y-96957126D01*
X153843570Y-96957126D02*
X154024999Y-96896650D01*
X154024999Y-96896650D02*
X154145951Y-96775697D01*
X154145951Y-96775697D02*
X154206428Y-96654745D01*
X154206428Y-96654745D02*
X154266904Y-96412840D01*
X154266904Y-96412840D02*
X154266904Y-96231411D01*
X154266904Y-96231411D02*
X154206428Y-95989507D01*
X154206428Y-95989507D02*
X154145951Y-95868554D01*
X154145951Y-95868554D02*
X154024999Y-95747602D01*
X154024999Y-95747602D02*
X153843570Y-95687126D01*
X153843570Y-95687126D02*
X153722618Y-95687126D01*
X153722618Y-95687126D02*
X153541189Y-95747602D01*
X153541189Y-95747602D02*
X153480713Y-95808078D01*
X152513094Y-96291888D02*
X152331666Y-96352364D01*
X152331666Y-96352364D02*
X152271189Y-96412840D01*
X152271189Y-96412840D02*
X152210713Y-96533792D01*
X152210713Y-96533792D02*
X152210713Y-96715221D01*
X152210713Y-96715221D02*
X152271189Y-96836173D01*
X152271189Y-96836173D02*
X152331666Y-96896650D01*
X152331666Y-96896650D02*
X152452618Y-96957126D01*
X152452618Y-96957126D02*
X152936428Y-96957126D01*
X152936428Y-96957126D02*
X152936428Y-95687126D01*
X152936428Y-95687126D02*
X152513094Y-95687126D01*
X152513094Y-95687126D02*
X152392142Y-95747602D01*
X152392142Y-95747602D02*
X152331666Y-95808078D01*
X152331666Y-95808078D02*
X152271189Y-95929030D01*
X152271189Y-95929030D02*
X152271189Y-96049983D01*
X152271189Y-96049983D02*
X152331666Y-96170935D01*
X152331666Y-96170935D02*
X152392142Y-96231411D01*
X152392142Y-96231411D02*
X152513094Y-96291888D01*
X152513094Y-96291888D02*
X152936428Y-96291888D01*
X151424523Y-95687126D02*
X151303570Y-95687126D01*
X151303570Y-95687126D02*
X151182618Y-95747602D01*
X151182618Y-95747602D02*
X151122142Y-95808078D01*
X151122142Y-95808078D02*
X151061666Y-95929030D01*
X151061666Y-95929030D02*
X151001189Y-96170935D01*
X151001189Y-96170935D02*
X151001189Y-96473316D01*
X151001189Y-96473316D02*
X151061666Y-96715221D01*
X151061666Y-96715221D02*
X151122142Y-96836173D01*
X151122142Y-96836173D02*
X151182618Y-96896650D01*
X151182618Y-96896650D02*
X151303570Y-96957126D01*
X151303570Y-96957126D02*
X151424523Y-96957126D01*
X151424523Y-96957126D02*
X151545475Y-96896650D01*
X151545475Y-96896650D02*
X151605951Y-96836173D01*
X151605951Y-96836173D02*
X151666428Y-96715221D01*
X151666428Y-96715221D02*
X151726904Y-96473316D01*
X151726904Y-96473316D02*
X151726904Y-96170935D01*
X151726904Y-96170935D02*
X151666428Y-95929030D01*
X151666428Y-95929030D02*
X151605951Y-95808078D01*
X151605951Y-95808078D02*
X151545475Y-95747602D01*
X151545475Y-95747602D02*
X151424523Y-95687126D01*
X149791665Y-96957126D02*
X150517380Y-96957126D01*
X150154523Y-96957126D02*
X150154523Y-95687126D01*
X150154523Y-95687126D02*
X150275475Y-95868554D01*
X150275475Y-95868554D02*
X150396427Y-95989507D01*
X150396427Y-95989507D02*
X150517380Y-96049983D01*
X149307856Y-96594269D02*
X148703094Y-96594269D01*
X149428808Y-96957126D02*
X149005475Y-95687126D01*
X149005475Y-95687126D02*
X148582141Y-96957126D01*
M02*
