%TF.GenerationSoftware,KiCad,Pcbnew,9.0.7+1*%
%TF.CreationDate,2026-02-22T23:16:14+00:00*%
%TF.ProjectId,TFASPDIMU01,54464153-5044-4494-9d55-30312e6b6963,rev?*%
%TF.SameCoordinates,Original*%
%TF.FileFunction,Copper,L2,Bot*%
%TF.FilePolarity,Positive*%
%FSLAX46Y46*%
G04 Gerber Fmt 4.6, Leading zero omitted, Abs format (unit mm)*
G04 Created by KiCad (PCBNEW 9.0.7+1) date 2026-02-22 23:16:14*
%MOMM*%
%LPD*%
G01*
G04 APERTURE LIST*
%TA.AperFunction,ViaPad*%
%ADD10C,0.800000*%
%TD*%
%TA.AperFunction,Conductor*%
%ADD11C,0.200000*%
%TD*%
%TA.AperFunction,Conductor*%
%ADD12C,0.300000*%
%TD*%
%TA.AperFunction,Conductor*%
%ADD13C,0.250000*%
%TD*%
%TA.AperFunction,Conductor*%
%ADD14C,0.500000*%
%TD*%
G04 APERTURE END LIST*
D10*
%TO.N,GND*%
X174827958Y-99148042D03*
X173070000Y-92270000D03*
X174848000Y-100652000D03*
X177642000Y-93540000D03*
X177388000Y-99128000D03*
X174340000Y-92270000D03*
X177388000Y-100398000D03*
X176626000Y-93540000D03*
X171546000Y-92270000D03*
X175356000Y-93540000D03*
X157340000Y-98680000D03*
X164340000Y-104180000D03*
X168140000Y-99780000D03*
X158240000Y-100896980D03*
X144940000Y-102980000D03*
X167440000Y-96980000D03*
X165740000Y-104180000D03*
X160440000Y-94926000D03*
X166540000Y-96704999D03*
X159440000Y-98580000D03*
X166127348Y-95792652D03*
X167240000Y-104180000D03*
X146440000Y-102980000D03*
X152940000Y-96680000D03*
X147840000Y-102980000D03*
X155515290Y-94080000D03*
X143640000Y-102980000D03*
X143340000Y-94180000D03*
X148240225Y-92758235D03*
%TO.N,+5V*%
X154141041Y-102881041D03*
X169140000Y-103180000D03*
X160040000Y-102880000D03*
X157340000Y-102849998D03*
%TO.N,+3V3*%
X158340000Y-103980000D03*
X157540000Y-92780000D03*
X146540000Y-91680000D03*
X168572500Y-93771868D03*
%TO.N,+1V8*%
X151740000Y-104080000D03*
X165469554Y-98479988D03*
X152040000Y-95480000D03*
X162240000Y-96780000D03*
X164280000Y-91929990D03*
X163040000Y-101280000D03*
X153540000Y-99980000D03*
X151440000Y-91555001D03*
%TO.N,/SPI_EXT_SCK_3V3*%
X171440000Y-100380000D03*
X168640000Y-98180000D03*
%TO.N,/SPI_EXT_MISO_3V3*%
X167738926Y-94581538D03*
X171440000Y-99080000D03*
%TO.N,/SPI_EXT_MISO_1V8*%
X165866000Y-92930000D03*
X160940000Y-92270000D03*
%TO.N,/P_SDA_3V3*%
X168639997Y-96779997D03*
X144240000Y-92880000D03*
%TO.N,/P_SCL_3V3*%
X149340000Y-92880001D03*
X168540000Y-95480000D03*
%TO.N,/P_SDA_1V8*%
X165640000Y-99880000D03*
X154540000Y-94580000D03*
%TO.N,/!SPI_SS1_1V8*%
X166869565Y-98729514D03*
X154396910Y-95736729D03*
%TD*%
D11*
%TO.N,GND*%
X174848000Y-99168084D02*
X174827958Y-99148042D01*
X171546000Y-92270000D02*
X173070000Y-92270000D01*
D12*
X165129998Y-100480000D02*
X165529998Y-100880000D01*
X162742108Y-100480000D02*
X165129998Y-100480000D01*
D11*
X167640000Y-99280000D02*
X167640000Y-97180000D01*
D12*
X150440000Y-94380000D02*
X149940000Y-94880000D01*
X158615900Y-100896980D02*
X158865890Y-100646990D01*
D13*
X166540000Y-96704999D02*
X166540000Y-96205304D01*
D12*
X162575118Y-100646990D02*
X162742108Y-100480000D01*
X158240000Y-100896980D02*
X158615900Y-100896980D01*
X168140000Y-99780000D02*
X167740001Y-100179999D01*
X165529998Y-100880000D02*
X167040000Y-100880000D01*
D11*
X168140000Y-99780000D02*
X167640000Y-99280000D01*
D12*
X167040000Y-100880000D02*
X168140000Y-99780000D01*
X155240311Y-93805021D02*
X150814979Y-93805021D01*
X144040000Y-94880000D02*
X143340000Y-94180000D01*
X152940000Y-96680000D02*
X152940000Y-97780000D01*
X149940000Y-94880000D02*
X144040000Y-94880000D01*
X155940000Y-100780000D02*
X158240000Y-100780000D01*
D11*
X167640000Y-97180000D02*
X167440000Y-96980000D01*
D12*
X158240000Y-100780000D02*
X158340000Y-100680000D01*
X150814979Y-93805021D02*
X150440000Y-94180000D01*
X152940000Y-97780000D02*
X155940000Y-100780000D01*
D13*
X166540000Y-96205304D02*
X166127348Y-95792652D01*
D12*
X158865890Y-100646990D02*
X162575118Y-100646990D01*
X150440000Y-94180000D02*
X150440000Y-94380000D01*
D13*
X157440000Y-98580000D02*
X157340000Y-98680000D01*
X159440000Y-98580000D02*
X157440000Y-98580000D01*
D12*
X155515290Y-94080000D02*
X155240311Y-93805021D01*
X167740001Y-100179999D02*
X167540001Y-100179999D01*
X164340000Y-104180000D02*
X165740000Y-104180000D01*
D14*
%TO.N,+5V*%
X160340000Y-103180000D02*
X160040000Y-102880000D01*
X154141041Y-102881041D02*
X157308957Y-102881041D01*
X169140000Y-103180000D02*
X160340000Y-103180000D01*
X157308957Y-102881041D02*
X157340000Y-102849998D01*
D12*
%TO.N,+3V3*%
X150454997Y-91680000D02*
X151154998Y-92380001D01*
X146540000Y-91680000D02*
X150454997Y-91680000D01*
X157939999Y-93179999D02*
X164848174Y-93180000D01*
X151154998Y-92380001D02*
X157140001Y-92380001D01*
D14*
X163548003Y-102029999D02*
X163448001Y-102130001D01*
X172290001Y-100788001D02*
X171048003Y-102029999D01*
X163448001Y-102130001D02*
X162631999Y-102130001D01*
D12*
X164848174Y-93180000D02*
X165440042Y-93771868D01*
D14*
X158340000Y-103321998D02*
X158340000Y-103414315D01*
D12*
X165440042Y-93771868D02*
X168006815Y-93771868D01*
X157140001Y-92380001D02*
X157540000Y-92780000D01*
D14*
X169138185Y-93771868D02*
X172290001Y-96923684D01*
X172290001Y-96923684D02*
X172290001Y-100788001D01*
X159631999Y-102029999D02*
X158340000Y-103321998D01*
D12*
X168006815Y-93771868D02*
X168572500Y-93771868D01*
D14*
X162631999Y-102130001D02*
X162531997Y-102029999D01*
X168572500Y-93771868D02*
X169138185Y-93771868D01*
X158340000Y-103414315D02*
X158340000Y-103980000D01*
X171048003Y-102029999D02*
X163548003Y-102029999D01*
D12*
X157540000Y-92780000D02*
X157939999Y-93179999D01*
D14*
X162531997Y-102029999D02*
X159631999Y-102029999D01*
D12*
%TO.N,+1V8*%
X162240000Y-96780000D02*
X163769566Y-96780000D01*
X163870009Y-91519999D02*
X151475002Y-91519999D01*
X152040000Y-96045685D02*
X152040000Y-95480000D01*
X153540000Y-102280000D02*
X153740000Y-102080000D01*
X152040000Y-97914315D02*
X152040000Y-96045685D01*
X158140000Y-102080000D02*
X158940000Y-101280000D01*
D14*
X151740000Y-104080000D02*
X153540000Y-102280000D01*
D12*
X151475002Y-91519999D02*
X151440000Y-91555001D01*
X162474315Y-101280000D02*
X163040000Y-101280000D01*
D14*
X153540000Y-102280000D02*
X153540000Y-99980000D01*
D12*
X164280000Y-91929990D02*
X163870009Y-91519999D01*
X153540000Y-99414315D02*
X152040000Y-97914315D01*
X153540000Y-99980000D02*
X153540000Y-99414315D01*
X165069555Y-98079989D02*
X165469554Y-98479988D01*
X158940000Y-101280000D02*
X162474315Y-101280000D01*
X163769566Y-96780000D02*
X165069555Y-98079989D01*
X153740000Y-102080000D02*
X158140000Y-102080000D01*
D13*
%TO.N,/SPI_EXT_SCK_3V3*%
X170840000Y-100380000D02*
X169039999Y-98579999D01*
X171440000Y-100380000D02*
X170840000Y-100380000D01*
X169039999Y-98579999D02*
X168640000Y-98180000D01*
%TO.N,/SPI_EXT_MISO_3V3*%
X167823586Y-94496878D02*
X167738926Y-94581538D01*
X168874412Y-94496878D02*
X167823586Y-94496878D01*
X171440000Y-99080000D02*
X171440000Y-97062466D01*
X171440000Y-97062466D02*
X168874412Y-94496878D01*
D12*
%TO.N,/SPI_EXT_MISO_1V8*%
X160940000Y-92270000D02*
X161349990Y-92679990D01*
X161349990Y-92679990D02*
X164639990Y-92679990D01*
X164639990Y-92679990D02*
X165615990Y-92679990D01*
X165615990Y-92679990D02*
X165866000Y-92930000D01*
D13*
%TO.N,/P_SDA_3V3*%
X165140000Y-94780000D02*
X166140001Y-94780000D01*
X164560999Y-94200999D02*
X165140000Y-94780000D01*
X144240000Y-93445685D02*
X144399317Y-93605002D01*
X167340000Y-95979999D02*
X167839999Y-95979999D01*
X144240000Y-92880000D02*
X144240000Y-93445685D01*
X166140001Y-94780000D02*
X167340000Y-95979999D01*
X157087139Y-94200999D02*
X164560999Y-94200999D01*
X167839999Y-95979999D02*
X168239998Y-96379998D01*
X168239998Y-96379998D02*
X168639997Y-96779997D01*
X150014998Y-93605002D02*
X150289989Y-93330011D01*
X150289989Y-93330011D02*
X156216151Y-93330011D01*
X156216151Y-93330011D02*
X157087139Y-94200999D01*
X144399317Y-93605002D02*
X150014998Y-93605002D01*
%TO.N,/P_SCL_3V3*%
X157252539Y-93729989D02*
X156402551Y-92880001D01*
X167564386Y-95480000D02*
X166364386Y-94280000D01*
X168540000Y-95480000D02*
X167564386Y-95480000D01*
X156402551Y-92880001D02*
X149905685Y-92880001D01*
X164726399Y-93729989D02*
X157252539Y-93729989D01*
X149905685Y-92880001D02*
X149340000Y-92880001D01*
X166364386Y-94280000D02*
X165276410Y-94280000D01*
X165276410Y-94280000D02*
X164726399Y-93729989D01*
D11*
%TO.N,/P_SDA_1V8*%
X153696909Y-97702608D02*
X156191281Y-100196980D01*
X153696909Y-95423091D02*
X153696909Y-97702608D01*
X162388718Y-100196980D02*
X162705698Y-99880000D01*
X156191281Y-100196980D02*
X162388718Y-100196980D01*
X162705698Y-99880000D02*
X165640000Y-99880000D01*
X154540000Y-94580000D02*
X153696909Y-95423091D01*
%TO.N,/!SPI_SS1_1V8*%
X162840002Y-99179998D02*
X166419081Y-99179998D01*
X161840000Y-99780000D02*
X156340000Y-99780000D01*
X166469566Y-99129513D02*
X166869565Y-98729514D01*
X162240000Y-99780000D02*
X162840002Y-99179998D01*
X154396910Y-97836910D02*
X154396910Y-95736729D01*
X161840000Y-99780000D02*
X162240000Y-99780000D01*
X156340000Y-99780000D02*
X154396910Y-97836910D01*
X166419081Y-99179998D02*
X166469566Y-99129513D01*
%TD*%
%TA.AperFunction,Conductor*%
%TO.N,GND*%
G36*
X146113459Y-90910502D02*
G01*
X146159952Y-90964158D01*
X146170056Y-91034432D01*
X146140562Y-91099012D01*
X146115341Y-91121264D01*
X146102765Y-91129666D01*
X146093456Y-91135887D01*
X146093452Y-91135890D01*
X145995890Y-91233452D01*
X145995885Y-91233458D01*
X145919225Y-91348189D01*
X145866421Y-91475668D01*
X145866420Y-91475671D01*
X145839500Y-91611004D01*
X145839500Y-91748995D01*
X145861779Y-91860997D01*
X145866420Y-91884328D01*
X145919225Y-92011811D01*
X145968501Y-92085558D01*
X145995885Y-92126541D01*
X145995890Y-92126547D01*
X146093452Y-92224109D01*
X146093458Y-92224114D01*
X146208189Y-92300775D01*
X146335672Y-92353580D01*
X146471007Y-92380500D01*
X146471008Y-92380500D01*
X146608992Y-92380500D01*
X146608993Y-92380500D01*
X146744328Y-92353580D01*
X146871811Y-92300775D01*
X146986542Y-92224114D01*
X147043252Y-92167403D01*
X147105562Y-92133380D01*
X147132346Y-92130500D01*
X148794654Y-92130500D01*
X148862775Y-92150502D01*
X148909268Y-92204158D01*
X148919372Y-92274432D01*
X148889878Y-92339012D01*
X148883749Y-92345595D01*
X148795890Y-92433453D01*
X148795885Y-92433459D01*
X148719225Y-92548190D01*
X148666421Y-92675669D01*
X148666420Y-92675672D01*
X148639500Y-92811005D01*
X148639500Y-92811007D01*
X148639500Y-92811008D01*
X148639500Y-92948994D01*
X148655398Y-93028921D01*
X148649071Y-93099633D01*
X148605518Y-93155701D01*
X148538565Y-93179321D01*
X148531820Y-93179502D01*
X145048180Y-93179502D01*
X144980059Y-93159500D01*
X144933566Y-93105844D01*
X144923462Y-93035570D01*
X144924601Y-93028920D01*
X144940500Y-92948993D01*
X144940500Y-92811007D01*
X144913580Y-92675672D01*
X144860775Y-92548189D01*
X144784114Y-92433458D01*
X144784109Y-92433452D01*
X144686547Y-92335890D01*
X144686541Y-92335885D01*
X144607816Y-92283283D01*
X144571811Y-92259225D01*
X144487033Y-92224109D01*
X144444331Y-92206421D01*
X144444328Y-92206420D01*
X144308995Y-92179500D01*
X144308993Y-92179500D01*
X144171007Y-92179500D01*
X144171004Y-92179500D01*
X144035671Y-92206420D01*
X144035668Y-92206421D01*
X143908189Y-92259225D01*
X143793458Y-92335885D01*
X143793452Y-92335890D01*
X143695890Y-92433452D01*
X143695885Y-92433458D01*
X143619225Y-92548189D01*
X143566421Y-92675668D01*
X143566420Y-92675671D01*
X143539500Y-92811004D01*
X143539500Y-92948995D01*
X143566420Y-93084328D01*
X143566421Y-93084331D01*
X143575332Y-93105844D01*
X143619225Y-93211811D01*
X143650680Y-93258886D01*
X143695885Y-93326541D01*
X143695890Y-93326547D01*
X143777595Y-93408252D01*
X143811621Y-93470564D01*
X143814500Y-93497347D01*
X143814500Y-93501703D01*
X143835726Y-93580921D01*
X143843496Y-93609919D01*
X143843499Y-93609926D01*
X143899512Y-93706944D01*
X143899513Y-93706945D01*
X143899515Y-93706948D01*
X143984984Y-93792416D01*
X144051646Y-93859078D01*
X144051659Y-93859093D01*
X144138047Y-93945481D01*
X144138051Y-93945484D01*
X144138054Y-93945487D01*
X144138055Y-93945488D01*
X144138057Y-93945489D01*
X144217321Y-93991252D01*
X144217323Y-93991253D01*
X144235080Y-94001505D01*
X144343298Y-94030502D01*
X144343299Y-94030502D01*
X144343300Y-94030502D01*
X150071014Y-94030502D01*
X150071016Y-94030502D01*
X150179235Y-94001505D01*
X150276261Y-93945487D01*
X150429333Y-93792414D01*
X150491643Y-93758391D01*
X150518427Y-93755511D01*
X154097702Y-93755511D01*
X154165823Y-93775513D01*
X154212316Y-93829169D01*
X154222420Y-93899443D01*
X154192926Y-93964023D01*
X154167704Y-93986276D01*
X154093458Y-94035885D01*
X154093452Y-94035890D01*
X153995890Y-94133452D01*
X153995885Y-94133458D01*
X153919225Y-94248189D01*
X153866421Y-94375668D01*
X153866420Y-94375671D01*
X153839500Y-94511004D01*
X153839500Y-94655183D01*
X153838320Y-94655183D01*
X153826261Y-94718730D01*
X153803198Y-94750408D01*
X153376434Y-95177171D01*
X153376426Y-95177181D01*
X153323704Y-95268498D01*
X153323699Y-95268510D01*
X153311038Y-95315761D01*
X153311039Y-95315762D01*
X153311039Y-95315763D01*
X153296409Y-95370364D01*
X153296409Y-97649881D01*
X153296409Y-97755335D01*
X153323702Y-97857196D01*
X153323703Y-97857198D01*
X153323704Y-97857200D01*
X153376426Y-97948517D01*
X153376434Y-97948527D01*
X155242695Y-99814786D01*
X155870799Y-100442890D01*
X155870801Y-100442893D01*
X155945368Y-100517460D01*
X156007930Y-100553580D01*
X156016393Y-100558466D01*
X156036696Y-100570188D01*
X156138229Y-100597394D01*
X156138554Y-100597481D01*
X156251726Y-100597481D01*
X156251742Y-100597480D01*
X158789535Y-100597480D01*
X158857656Y-100617482D01*
X158904149Y-100671138D01*
X158914253Y-100741412D01*
X158884759Y-100805992D01*
X158825033Y-100844376D01*
X158822150Y-100845185D01*
X158790326Y-100853713D01*
X158790325Y-100853712D01*
X158766115Y-100860199D01*
X158663387Y-100919509D01*
X158663383Y-100919512D01*
X157990302Y-101592595D01*
X157927989Y-101626620D01*
X157901206Y-101629500D01*
X154216500Y-101629500D01*
X154148379Y-101609498D01*
X154101886Y-101555842D01*
X154090500Y-101503500D01*
X154090500Y-100455205D01*
X154110502Y-100387084D01*
X154111672Y-100385297D01*
X154160775Y-100311811D01*
X154213580Y-100184328D01*
X154240500Y-100048993D01*
X154240500Y-99911007D01*
X154213580Y-99775672D01*
X154160775Y-99648189D01*
X154084114Y-99533458D01*
X154084109Y-99533452D01*
X154027405Y-99476748D01*
X153993379Y-99414436D01*
X153990500Y-99387653D01*
X153990500Y-99355007D01*
X153987174Y-99342595D01*
X153959799Y-99240429D01*
X153922633Y-99176056D01*
X153900489Y-99137701D01*
X153900486Y-99137698D01*
X153900483Y-99137694D01*
X152527405Y-97764616D01*
X152493379Y-97702304D01*
X152490500Y-97675521D01*
X152490500Y-96072346D01*
X152510502Y-96004225D01*
X152527400Y-95983255D01*
X152584114Y-95926542D01*
X152660775Y-95811811D01*
X152713580Y-95684328D01*
X152740500Y-95548993D01*
X152740500Y-95411007D01*
X152713580Y-95275672D01*
X152660775Y-95148189D01*
X152584114Y-95033458D01*
X152584109Y-95033452D01*
X152486547Y-94935890D01*
X152486541Y-94935885D01*
X152448471Y-94910447D01*
X152371811Y-94859225D01*
X152291421Y-94825926D01*
X152244331Y-94806421D01*
X152244328Y-94806420D01*
X152108995Y-94779500D01*
X152108993Y-94779500D01*
X151971007Y-94779500D01*
X151971004Y-94779500D01*
X151835671Y-94806420D01*
X151835668Y-94806421D01*
X151708189Y-94859225D01*
X151593458Y-94935885D01*
X151593452Y-94935890D01*
X151495890Y-95033452D01*
X151495885Y-95033458D01*
X151419225Y-95148189D01*
X151366421Y-95275668D01*
X151366420Y-95275671D01*
X151339500Y-95411004D01*
X151339500Y-95411007D01*
X151339500Y-95548993D01*
X151366420Y-95684328D01*
X151419225Y-95811811D01*
X151495886Y-95926542D01*
X151552596Y-95983252D01*
X151586620Y-96045562D01*
X151589500Y-96072346D01*
X151589500Y-97973624D01*
X151611555Y-98055934D01*
X151611554Y-98055934D01*
X151620198Y-98088194D01*
X151620203Y-98088206D01*
X151679508Y-98190925D01*
X151679516Y-98190935D01*
X152933242Y-99444661D01*
X152967268Y-99506973D01*
X152962203Y-99577788D01*
X152948913Y-99603756D01*
X152919226Y-99648186D01*
X152919225Y-99648188D01*
X152866421Y-99775668D01*
X152866420Y-99775671D01*
X152839500Y-99911004D01*
X152839500Y-100048995D01*
X152866420Y-100184328D01*
X152866421Y-100184331D01*
X152919223Y-100311808D01*
X152919224Y-100311810D01*
X152919225Y-100311811D01*
X152968266Y-100385205D01*
X152989480Y-100452955D01*
X152989500Y-100455205D01*
X152989500Y-101999784D01*
X152969498Y-102067905D01*
X152952595Y-102088879D01*
X151686759Y-103354714D01*
X151624447Y-103388740D01*
X151622248Y-103389197D01*
X151535677Y-103406418D01*
X151535668Y-103406421D01*
X151408189Y-103459225D01*
X151293458Y-103535885D01*
X151293452Y-103535890D01*
X151195890Y-103633452D01*
X151195885Y-103633458D01*
X151119225Y-103748189D01*
X151066421Y-103875668D01*
X151066420Y-103875671D01*
X151039500Y-104011004D01*
X151039500Y-104148995D01*
X151046529Y-104184331D01*
X151066420Y-104284328D01*
X151119225Y-104411811D01*
X151170447Y-104488471D01*
X151195885Y-104526541D01*
X151195890Y-104526547D01*
X151293452Y-104624109D01*
X151293456Y-104624112D01*
X151293458Y-104624114D01*
X151315339Y-104638735D01*
X151360867Y-104693211D01*
X151369716Y-104763654D01*
X151339075Y-104827698D01*
X151278673Y-104865010D01*
X151245338Y-104869500D01*
X142376500Y-104869500D01*
X142308379Y-104849498D01*
X142261886Y-104795842D01*
X142250500Y-104743500D01*
X142250500Y-99983856D01*
X143039500Y-99983856D01*
X143039500Y-100076144D01*
X143041693Y-100084328D01*
X143063386Y-100165288D01*
X143063388Y-100165292D01*
X143109529Y-100245210D01*
X143109531Y-100245213D01*
X143174786Y-100310468D01*
X143174789Y-100310470D01*
X143202635Y-100326547D01*
X143254712Y-100356614D01*
X143343856Y-100380500D01*
X143343858Y-100380500D01*
X143436142Y-100380500D01*
X143436144Y-100380500D01*
X143525288Y-100356614D01*
X143605212Y-100310469D01*
X143670469Y-100245212D01*
X143716614Y-100165288D01*
X143740500Y-100076144D01*
X143740500Y-99983856D01*
X143716614Y-99894712D01*
X143670469Y-99814788D01*
X143670468Y-99814786D01*
X143605213Y-99749531D01*
X143605210Y-99749529D01*
X143525292Y-99703388D01*
X143525288Y-99703386D01*
X143436144Y-99679500D01*
X143343856Y-99679500D01*
X143284426Y-99695424D01*
X143254711Y-99703386D01*
X143254707Y-99703388D01*
X143174789Y-99749529D01*
X143174786Y-99749531D01*
X143109531Y-99814786D01*
X143109529Y-99814789D01*
X143063388Y-99894707D01*
X143063386Y-99894711D01*
X143051443Y-99939284D01*
X143039500Y-99983856D01*
X142250500Y-99983856D01*
X142250500Y-95683856D01*
X143039500Y-95683856D01*
X143039500Y-95776144D01*
X143047426Y-95805724D01*
X143063386Y-95865288D01*
X143063388Y-95865292D01*
X143109529Y-95945210D01*
X143109531Y-95945213D01*
X143174786Y-96010468D01*
X143174789Y-96010470D01*
X143191566Y-96020156D01*
X143254712Y-96056614D01*
X143343856Y-96080500D01*
X143343858Y-96080500D01*
X143436142Y-96080500D01*
X143436144Y-96080500D01*
X143525288Y-96056614D01*
X143605212Y-96010469D01*
X143670469Y-95945212D01*
X143716614Y-95865288D01*
X143740500Y-95776144D01*
X143740500Y-95683856D01*
X150339500Y-95683856D01*
X150339500Y-95776144D01*
X150347426Y-95805724D01*
X150363386Y-95865288D01*
X150363388Y-95865292D01*
X150409529Y-95945210D01*
X150409531Y-95945213D01*
X150474786Y-96010468D01*
X150474789Y-96010470D01*
X150491566Y-96020156D01*
X150554712Y-96056614D01*
X150643856Y-96080500D01*
X150643858Y-96080500D01*
X150736142Y-96080500D01*
X150736144Y-96080500D01*
X150825288Y-96056614D01*
X150905212Y-96010469D01*
X150970469Y-95945212D01*
X151016614Y-95865288D01*
X151040500Y-95776144D01*
X151040500Y-95683856D01*
X151016614Y-95594712D01*
X150990218Y-95548993D01*
X150970470Y-95514789D01*
X150970468Y-95514786D01*
X150905213Y-95449531D01*
X150905210Y-95449529D01*
X150825292Y-95403388D01*
X150825288Y-95403386D01*
X150736144Y-95379500D01*
X150643856Y-95379500D01*
X150584426Y-95395424D01*
X150554711Y-95403386D01*
X150554707Y-95403388D01*
X150474789Y-95449529D01*
X150474786Y-95449531D01*
X150409531Y-95514786D01*
X150409529Y-95514789D01*
X150363388Y-95594707D01*
X150363386Y-95594711D01*
X150363386Y-95594712D01*
X150339500Y-95683856D01*
X143740500Y-95683856D01*
X143716614Y-95594712D01*
X143690218Y-95548993D01*
X143670470Y-95514789D01*
X143670468Y-95514786D01*
X143605213Y-95449531D01*
X143605210Y-95449529D01*
X143525292Y-95403388D01*
X143525288Y-95403386D01*
X143436144Y-95379500D01*
X143343856Y-95379500D01*
X143284426Y-95395424D01*
X143254711Y-95403386D01*
X143254707Y-95403388D01*
X143174789Y-95449529D01*
X143174786Y-95449531D01*
X143109531Y-95514786D01*
X143109529Y-95514789D01*
X143063388Y-95594707D01*
X143063386Y-95594711D01*
X143063386Y-95594712D01*
X143039500Y-95683856D01*
X142250500Y-95683856D01*
X142250500Y-91016500D01*
X142270502Y-90948379D01*
X142324158Y-90901886D01*
X142376500Y-90890500D01*
X146045338Y-90890500D01*
X146113459Y-90910502D01*
G37*
%TD.AperFunction*%
%TA.AperFunction,Conductor*%
G36*
X178171621Y-90910502D02*
G01*
X178218114Y-90964158D01*
X178229500Y-91016500D01*
X178229500Y-104743500D01*
X178209498Y-104811621D01*
X178155842Y-104858114D01*
X178103500Y-104869500D01*
X158656496Y-104869500D01*
X158588375Y-104849498D01*
X158541882Y-104795842D01*
X158531778Y-104725568D01*
X158561272Y-104660988D01*
X158608278Y-104627091D01*
X158615470Y-104624112D01*
X158671811Y-104600775D01*
X158786542Y-104524114D01*
X158884114Y-104426542D01*
X158960775Y-104311811D01*
X159013580Y-104184328D01*
X159040500Y-104048993D01*
X159040500Y-103911007D01*
X159013580Y-103775672D01*
X158960775Y-103648189D01*
X158950755Y-103633194D01*
X158929540Y-103565442D01*
X158948322Y-103496975D01*
X158966421Y-103474100D01*
X159234354Y-103206167D01*
X159296664Y-103172143D01*
X159367479Y-103177208D01*
X159424315Y-103219755D01*
X159428212Y-103225262D01*
X159495885Y-103326541D01*
X159495890Y-103326547D01*
X159593452Y-103424109D01*
X159593458Y-103424114D01*
X159708189Y-103500775D01*
X159835672Y-103553580D01*
X159922246Y-103570800D01*
X159966829Y-103589060D01*
X159977625Y-103596150D01*
X160001985Y-103620510D01*
X160104160Y-103679500D01*
X160127515Y-103692984D01*
X160267525Y-103730500D01*
X160267526Y-103730500D01*
X160412474Y-103730500D01*
X168664793Y-103730500D01*
X168732914Y-103750502D01*
X168734794Y-103751735D01*
X168808184Y-103800772D01*
X168808186Y-103800773D01*
X168808189Y-103800775D01*
X168935672Y-103853580D01*
X169071007Y-103880500D01*
X169071008Y-103880500D01*
X169208992Y-103880500D01*
X169208993Y-103880500D01*
X169344328Y-103853580D01*
X169471811Y-103800775D01*
X169586542Y-103724114D01*
X169684114Y-103626542D01*
X169760775Y-103511811D01*
X169813580Y-103384328D01*
X169840500Y-103248993D01*
X169840500Y-103111007D01*
X169813580Y-102975672D01*
X169760775Y-102848189D01*
X169757290Y-102842973D01*
X169712875Y-102776500D01*
X169691660Y-102708747D01*
X169710443Y-102640281D01*
X169763261Y-102592838D01*
X169817640Y-102580499D01*
X171120475Y-102580499D01*
X171120477Y-102580499D01*
X171120478Y-102580499D01*
X171260488Y-102542983D01*
X171314180Y-102511984D01*
X171386018Y-102470509D01*
X172730511Y-101126016D01*
X172802985Y-101000486D01*
X172808421Y-100980195D01*
X172816999Y-100948188D01*
X172830567Y-100897546D01*
X172840501Y-100860476D01*
X172840501Y-96851209D01*
X172802985Y-96711199D01*
X172776868Y-96665963D01*
X172730511Y-96585669D01*
X172730506Y-96585664D01*
X172730504Y-96585661D01*
X169476206Y-93331363D01*
X169476196Y-93331355D01*
X169350675Y-93258886D01*
X169350672Y-93258885D01*
X169350670Y-93258884D01*
X169210660Y-93221368D01*
X169210657Y-93221368D01*
X169047707Y-93221368D01*
X168979586Y-93201366D01*
X168977706Y-93200133D01*
X168904315Y-93151095D01*
X168904311Y-93151093D01*
X168776831Y-93098289D01*
X168776828Y-93098288D01*
X168641495Y-93071368D01*
X168641493Y-93071368D01*
X168503507Y-93071368D01*
X168503504Y-93071368D01*
X168368171Y-93098288D01*
X168368168Y-93098289D01*
X168240689Y-93151093D01*
X168125958Y-93227753D01*
X168106002Y-93247710D01*
X168069247Y-93284464D01*
X168006938Y-93318488D01*
X167980154Y-93321368D01*
X166650678Y-93321368D01*
X166582557Y-93301366D01*
X166536064Y-93247710D01*
X166525960Y-93177436D01*
X166534269Y-93147150D01*
X166534454Y-93146701D01*
X166539580Y-93134328D01*
X166566500Y-92998993D01*
X166566500Y-92861007D01*
X166539580Y-92725672D01*
X166486775Y-92598189D01*
X166410114Y-92483458D01*
X166410109Y-92483452D01*
X166312547Y-92385890D01*
X166312541Y-92385885D01*
X166242390Y-92339012D01*
X166197811Y-92309225D01*
X166113813Y-92274432D01*
X166070331Y-92256421D01*
X166070328Y-92256420D01*
X165934995Y-92229500D01*
X165934993Y-92229500D01*
X165797007Y-92229500D01*
X165796999Y-92229500D01*
X165755988Y-92237658D01*
X165698799Y-92235786D01*
X165675302Y-92229490D01*
X165675299Y-92229490D01*
X165088181Y-92229490D01*
X165020060Y-92209488D01*
X164973567Y-92155832D01*
X164963463Y-92085558D01*
X164964602Y-92078908D01*
X164977948Y-92011811D01*
X164980500Y-91998983D01*
X164980500Y-91860997D01*
X164953580Y-91725662D01*
X164900775Y-91598179D01*
X164824114Y-91483448D01*
X164824109Y-91483442D01*
X164726547Y-91385880D01*
X164726541Y-91385875D01*
X164673857Y-91350673D01*
X164611811Y-91309215D01*
X164493488Y-91260204D01*
X164484331Y-91256411D01*
X164484328Y-91256410D01*
X164348995Y-91229490D01*
X164348993Y-91229490D01*
X164268793Y-91229490D01*
X164200672Y-91209488D01*
X164193973Y-91204870D01*
X164186377Y-91199264D01*
X164146623Y-91159510D01*
X164081797Y-91122082D01*
X164076103Y-91117880D01*
X164058739Y-91095012D01*
X164038930Y-91074236D01*
X164037557Y-91067114D01*
X164033170Y-91061336D01*
X164030926Y-91032709D01*
X164025494Y-91004522D01*
X164028189Y-90997788D01*
X164027623Y-90990556D01*
X164041211Y-90965262D01*
X164051881Y-90938612D01*
X164057789Y-90934404D01*
X164061223Y-90928013D01*
X164086329Y-90914081D01*
X164109713Y-90897430D01*
X164119217Y-90895831D01*
X164123302Y-90893565D01*
X164130087Y-90894003D01*
X164150923Y-90890500D01*
X178103500Y-90890500D01*
X178171621Y-90910502D01*
G37*
%TD.AperFunction*%
%TA.AperFunction,Conductor*%
G36*
X156055834Y-93775513D02*
G01*
X156076803Y-93792411D01*
X156825876Y-94541484D01*
X156922902Y-94597502D01*
X157031121Y-94626499D01*
X157143157Y-94626499D01*
X164332561Y-94626499D01*
X164400682Y-94646501D01*
X164421651Y-94663399D01*
X164878737Y-95120485D01*
X164878738Y-95120486D01*
X164878740Y-95120487D01*
X164888966Y-95126391D01*
X164975763Y-95176503D01*
X165083982Y-95205500D01*
X165196018Y-95205500D01*
X165911563Y-95205500D01*
X165979684Y-95225502D01*
X166000658Y-95242405D01*
X167078730Y-96320478D01*
X167078735Y-96320482D01*
X167078737Y-96320484D01*
X167078738Y-96320485D01*
X167078740Y-96320486D01*
X167136291Y-96353713D01*
X167175763Y-96376502D01*
X167283982Y-96405499D01*
X167396019Y-96405499D01*
X167611561Y-96405499D01*
X167679682Y-96425501D01*
X167700656Y-96442404D01*
X167902592Y-96644340D01*
X167936618Y-96706652D01*
X167939497Y-96733435D01*
X167939497Y-96848992D01*
X167966417Y-96984325D01*
X168019222Y-97111808D01*
X168070444Y-97188468D01*
X168095882Y-97226538D01*
X168095887Y-97226544D01*
X168193449Y-97324106D01*
X168193453Y-97324109D01*
X168193455Y-97324111D01*
X168269961Y-97375231D01*
X168269966Y-97375234D01*
X168315494Y-97429711D01*
X168324342Y-97500154D01*
X168293701Y-97564198D01*
X168269967Y-97584764D01*
X168193454Y-97635888D01*
X168095890Y-97733452D01*
X168095885Y-97733458D01*
X168019225Y-97848189D01*
X167966421Y-97975668D01*
X167966420Y-97975671D01*
X167939500Y-98111004D01*
X167939500Y-98248995D01*
X167946259Y-98282972D01*
X167966420Y-98384328D01*
X168019225Y-98511811D01*
X168045910Y-98551748D01*
X168095885Y-98626541D01*
X168095890Y-98626547D01*
X168193452Y-98724109D01*
X168193458Y-98724114D01*
X168308189Y-98800775D01*
X168435672Y-98853580D01*
X168571007Y-98880500D01*
X168571008Y-98880500D01*
X168686562Y-98880500D01*
X168754683Y-98900502D01*
X168775657Y-98917405D01*
X170499515Y-100641263D01*
X170578737Y-100720485D01*
X170578738Y-100720486D01*
X170578740Y-100720487D01*
X170646935Y-100759859D01*
X170675763Y-100776503D01*
X170783982Y-100805500D01*
X170822653Y-100805500D01*
X170890774Y-100825502D01*
X170911748Y-100842405D01*
X170993452Y-100924109D01*
X170993458Y-100924114D01*
X171094736Y-100991786D01*
X171140264Y-101046263D01*
X171149112Y-101116706D01*
X171118470Y-101180750D01*
X171113830Y-101185646D01*
X170856883Y-101442594D01*
X170794570Y-101476619D01*
X170767787Y-101479499D01*
X163866500Y-101479499D01*
X163798379Y-101459497D01*
X163751886Y-101405841D01*
X163740500Y-101353499D01*
X163740500Y-101211008D01*
X163740499Y-101211004D01*
X163723595Y-101126022D01*
X163713580Y-101075672D01*
X163660775Y-100948189D01*
X163584114Y-100833458D01*
X163584109Y-100833452D01*
X163486547Y-100735890D01*
X163486541Y-100735885D01*
X163448471Y-100710447D01*
X163371811Y-100659225D01*
X163271034Y-100617482D01*
X163244331Y-100606421D01*
X163244328Y-100606420D01*
X163108995Y-100579500D01*
X163108993Y-100579500D01*
X162971007Y-100579500D01*
X162971004Y-100579500D01*
X162881048Y-100597394D01*
X162810334Y-100591066D01*
X162754266Y-100547512D01*
X162730647Y-100480559D01*
X162746974Y-100411466D01*
X162767371Y-100384720D01*
X162834686Y-100317405D01*
X162896998Y-100283379D01*
X162923781Y-100280500D01*
X164998507Y-100280500D01*
X165066628Y-100300502D01*
X165091250Y-100322422D01*
X165091508Y-100322165D01*
X165193452Y-100424109D01*
X165193458Y-100424114D01*
X165308189Y-100500775D01*
X165435672Y-100553580D01*
X165571007Y-100580500D01*
X165571008Y-100580500D01*
X165708992Y-100580500D01*
X165708993Y-100580500D01*
X165844328Y-100553580D01*
X165971811Y-100500775D01*
X166086542Y-100424114D01*
X166184114Y-100326542D01*
X166260775Y-100211811D01*
X166313580Y-100084328D01*
X166340500Y-99948993D01*
X166340500Y-99811007D01*
X166324601Y-99731078D01*
X166330929Y-99660366D01*
X166374483Y-99604299D01*
X166441435Y-99580679D01*
X166448180Y-99580498D01*
X166471806Y-99580498D01*
X166471808Y-99580498D01*
X166573669Y-99553205D01*
X166664994Y-99500478D01*
X166699157Y-99466314D01*
X166761467Y-99432290D01*
X166794382Y-99430378D01*
X166794382Y-99430014D01*
X166938557Y-99430014D01*
X166938558Y-99430014D01*
X167073893Y-99403094D01*
X167201376Y-99350289D01*
X167316107Y-99273628D01*
X167413679Y-99176056D01*
X167490340Y-99061325D01*
X167543145Y-98933842D01*
X167570065Y-98798507D01*
X167570065Y-98660521D01*
X167543145Y-98525186D01*
X167490340Y-98397703D01*
X167413679Y-98282972D01*
X167413674Y-98282966D01*
X167316112Y-98185404D01*
X167316106Y-98185399D01*
X167260397Y-98148176D01*
X167201376Y-98108739D01*
X167120986Y-98075440D01*
X167073896Y-98055935D01*
X167073893Y-98055934D01*
X166938560Y-98029014D01*
X166938558Y-98029014D01*
X166800572Y-98029014D01*
X166800569Y-98029014D01*
X166665236Y-98055934D01*
X166665233Y-98055935D01*
X166537754Y-98108739D01*
X166423023Y-98185399D01*
X166332015Y-98276407D01*
X166269703Y-98310432D01*
X166198887Y-98305366D01*
X166142051Y-98262819D01*
X166126511Y-98235529D01*
X166122797Y-98226562D01*
X166090329Y-98148177D01*
X166013668Y-98033446D01*
X166013663Y-98033440D01*
X165916101Y-97935878D01*
X165916095Y-97935873D01*
X165878025Y-97910435D01*
X165801365Y-97859213D01*
X165720975Y-97825914D01*
X165673885Y-97806409D01*
X165673882Y-97806408D01*
X165538549Y-97779488D01*
X165538547Y-97779488D01*
X165458347Y-97779488D01*
X165428431Y-97770704D01*
X165397962Y-97764076D01*
X165392866Y-97760261D01*
X165390226Y-97759486D01*
X165369252Y-97742583D01*
X165346169Y-97719500D01*
X164046186Y-96419516D01*
X164046176Y-96419508D01*
X163943457Y-96360203D01*
X163943455Y-96360202D01*
X163943453Y-96360201D01*
X163943446Y-96360199D01*
X163919239Y-96353712D01*
X163919239Y-96353713D01*
X163828875Y-96329500D01*
X163828874Y-96329500D01*
X162832346Y-96329500D01*
X162764225Y-96309498D01*
X162743255Y-96292599D01*
X162686542Y-96235886D01*
X162686536Y-96235882D01*
X162648471Y-96210447D01*
X162571811Y-96159225D01*
X162451252Y-96109288D01*
X162444331Y-96106421D01*
X162444328Y-96106420D01*
X162308995Y-96079500D01*
X162308993Y-96079500D01*
X162171007Y-96079500D01*
X162171004Y-96079500D01*
X162035671Y-96106420D01*
X162035668Y-96106421D01*
X161908189Y-96159225D01*
X161793458Y-96235885D01*
X161793452Y-96235890D01*
X161695890Y-96333452D01*
X161695885Y-96333458D01*
X161619225Y-96448189D01*
X161566421Y-96575668D01*
X161566420Y-96575671D01*
X161539500Y-96711004D01*
X161539500Y-96848995D01*
X161539941Y-96851210D01*
X161566420Y-96984328D01*
X161619225Y-97111811D01*
X161670447Y-97188471D01*
X161695885Y-97226541D01*
X161695890Y-97226547D01*
X161793452Y-97324109D01*
X161793458Y-97324114D01*
X161908189Y-97400775D01*
X162035672Y-97453580D01*
X162171007Y-97480500D01*
X162171008Y-97480500D01*
X162308992Y-97480500D01*
X162308993Y-97480500D01*
X162444328Y-97453580D01*
X162571811Y-97400775D01*
X162686542Y-97324114D01*
X162743252Y-97267403D01*
X162805562Y-97233380D01*
X162832346Y-97230500D01*
X163530773Y-97230500D01*
X163598894Y-97250502D01*
X163619868Y-97267405D01*
X164732149Y-98379686D01*
X164744217Y-98401787D01*
X164759856Y-98421524D01*
X164762548Y-98435356D01*
X164766175Y-98441998D01*
X164768439Y-98456345D01*
X164769054Y-98462545D01*
X164769054Y-98548981D01*
X164786153Y-98634943D01*
X164786760Y-98641062D01*
X164781264Y-98670149D01*
X164778626Y-98699630D01*
X164774751Y-98704617D01*
X164773579Y-98710824D01*
X164753231Y-98732321D01*
X164735072Y-98755698D01*
X164729115Y-98757799D01*
X164724774Y-98762386D01*
X164696033Y-98769469D01*
X164668119Y-98779317D01*
X164661375Y-98779498D01*
X162892729Y-98779498D01*
X162787275Y-98779498D01*
X162685414Y-98806791D01*
X162685412Y-98806792D01*
X162685409Y-98806793D01*
X162594092Y-98859515D01*
X162594086Y-98859520D01*
X162442603Y-99011004D01*
X162111010Y-99342596D01*
X162048700Y-99376620D01*
X162021917Y-99379500D01*
X156558083Y-99379500D01*
X156489962Y-99359498D01*
X156468988Y-99342595D01*
X154834315Y-97707922D01*
X154800289Y-97645610D01*
X154797410Y-97618827D01*
X154797410Y-96378221D01*
X154817412Y-96310100D01*
X154839333Y-96285479D01*
X154839075Y-96285221D01*
X154941019Y-96183276D01*
X154941024Y-96183271D01*
X155017685Y-96068540D01*
X155070490Y-95941057D01*
X155097410Y-95805722D01*
X155097410Y-95667736D01*
X155070490Y-95532401D01*
X155017685Y-95404918D01*
X154948358Y-95301164D01*
X154927144Y-95233412D01*
X154945927Y-95164945D01*
X154983130Y-95126393D01*
X154986542Y-95124114D01*
X155084114Y-95026542D01*
X155160775Y-94911811D01*
X155213580Y-94784328D01*
X155240500Y-94648993D01*
X155240500Y-94511007D01*
X155213580Y-94375672D01*
X155160775Y-94248189D01*
X155084114Y-94133458D01*
X155084109Y-94133452D01*
X154986547Y-94035890D01*
X154986541Y-94035885D01*
X154912296Y-93986276D01*
X154866768Y-93931799D01*
X154857920Y-93861356D01*
X154888562Y-93797312D01*
X154948964Y-93760000D01*
X154982298Y-93755511D01*
X155987713Y-93755511D01*
X156055834Y-93775513D01*
G37*
%TD.AperFunction*%
%TD*%
M02*
