%TF.GenerationSoftware,KiCad,Pcbnew,8.0.3+1*%
%TF.CreationDate,2024-07-17T00:45:48+00:00*%
%TF.ProjectId,TFASPDIMU01,54464153-5044-4494-9d55-30312e6b6963,rev?*%
%TF.SameCoordinates,Original*%
%TF.FileFunction,Copper,L2,Bot*%
%TF.FilePolarity,Positive*%
%FSLAX46Y46*%
G04 Gerber Fmt 4.6, Leading zero omitted, Abs format (unit mm)*
G04 Created by KiCad (PCBNEW 8.0.3+1) date 2024-07-17 00:45:48*
%MOMM*%
%LPD*%
G01*
G04 APERTURE LIST*
%TA.AperFunction,ViaPad*%
%ADD10C,0.800000*%
%TD*%
%TA.AperFunction,Conductor*%
%ADD11C,0.200000*%
%TD*%
%TA.AperFunction,Conductor*%
%ADD12C,0.300000*%
%TD*%
%TA.AperFunction,Conductor*%
%ADD13C,0.250000*%
%TD*%
%TA.AperFunction,Conductor*%
%ADD14C,0.500000*%
%TD*%
G04 APERTURE END LIST*
D10*
%TO.N,GND*%
X174827958Y-99148042D03*
X173070000Y-92270000D03*
X174848000Y-100652000D03*
X177642000Y-93540000D03*
X177388000Y-99128000D03*
X174340000Y-92270000D03*
X177388000Y-100398000D03*
X176626000Y-93540000D03*
X171546000Y-92270000D03*
X175356000Y-93540000D03*
X157340000Y-98680000D03*
X164340000Y-104180000D03*
X168140000Y-99780000D03*
X158240000Y-100896980D03*
X144940000Y-102980000D03*
X167440000Y-96980000D03*
X165740000Y-104180000D03*
X160440000Y-94926000D03*
X166540000Y-96704999D03*
X159440000Y-98580000D03*
X166127348Y-95792652D03*
X167240000Y-104180000D03*
X146440000Y-102980000D03*
X152940000Y-96680000D03*
X147840000Y-102980000D03*
X155515290Y-94080000D03*
X143640000Y-102980000D03*
X143340000Y-94180000D03*
X148240225Y-92758235D03*
%TO.N,+5V*%
X154141041Y-102881041D03*
X169140000Y-103180000D03*
X160040000Y-102880000D03*
X157340000Y-102849998D03*
%TO.N,+3V3*%
X158340000Y-103980000D03*
X157540000Y-92780000D03*
X146540000Y-91680000D03*
X168572500Y-93771868D03*
%TO.N,+1V8*%
X151740000Y-104080000D03*
X165469554Y-98479988D03*
X152040000Y-95480000D03*
X162240000Y-96780000D03*
X164280000Y-91929990D03*
X163040000Y-101280000D03*
X153540000Y-99980000D03*
X151440000Y-91555001D03*
%TO.N,/SPI_EXT_SCK_3V3*%
X171440000Y-100380000D03*
X168640000Y-98180000D03*
%TO.N,/SPI_EXT_MISO_3V3*%
X167738926Y-94581538D03*
X171440000Y-99080000D03*
%TO.N,/SPI_EXT_MISO_1V8*%
X165866000Y-92930000D03*
X160940000Y-92270000D03*
%TO.N,/P_SDA_3V3*%
X168639997Y-96779997D03*
X144240000Y-92880000D03*
%TO.N,/P_SCL_3V3*%
X149340000Y-92880001D03*
X168540000Y-95480000D03*
%TO.N,/P_SDA_1V8*%
X165640000Y-99880000D03*
X154540000Y-94580000D03*
%TO.N,/!SPI_SS1_1V8*%
X166869565Y-98729514D03*
X154396910Y-95736729D03*
%TD*%
D11*
%TO.N,GND*%
X174848000Y-99168084D02*
X174827958Y-99148042D01*
X171546000Y-92270000D02*
X173070000Y-92270000D01*
D12*
X165129998Y-100480000D02*
X165529998Y-100880000D01*
X162742108Y-100480000D02*
X165129998Y-100480000D01*
D11*
X167640000Y-99280000D02*
X167640000Y-97180000D01*
D12*
X150440000Y-94380000D02*
X149940000Y-94880000D01*
X158615900Y-100896980D02*
X158865890Y-100646990D01*
D13*
X166540000Y-96704999D02*
X166540000Y-96205304D01*
D12*
X162575118Y-100646990D02*
X162742108Y-100480000D01*
X158240000Y-100896980D02*
X158615900Y-100896980D01*
X168140000Y-99780000D02*
X167740001Y-100179999D01*
X165529998Y-100880000D02*
X167040000Y-100880000D01*
D11*
X168140000Y-99780000D02*
X167640000Y-99280000D01*
D12*
X167040000Y-100880000D02*
X168140000Y-99780000D01*
X155240311Y-93805021D02*
X150814979Y-93805021D01*
X144040000Y-94880000D02*
X143340000Y-94180000D01*
X152940000Y-96680000D02*
X152940000Y-97780000D01*
X149940000Y-94880000D02*
X144040000Y-94880000D01*
X155940000Y-100780000D02*
X158240000Y-100780000D01*
D11*
X167640000Y-97180000D02*
X167440000Y-96980000D01*
D12*
X158240000Y-100780000D02*
X158340000Y-100680000D01*
X150814979Y-93805021D02*
X150440000Y-94180000D01*
X152940000Y-97780000D02*
X155940000Y-100780000D01*
D13*
X166540000Y-96205304D02*
X166127348Y-95792652D01*
D12*
X158865890Y-100646990D02*
X162575118Y-100646990D01*
X150440000Y-94180000D02*
X150440000Y-94380000D01*
D13*
X157440000Y-98580000D02*
X157340000Y-98680000D01*
X159440000Y-98580000D02*
X157440000Y-98580000D01*
D12*
X155515290Y-94080000D02*
X155240311Y-93805021D01*
X167740001Y-100179999D02*
X167540001Y-100179999D01*
X164340000Y-104180000D02*
X165740000Y-104180000D01*
D14*
%TO.N,+5V*%
X160340000Y-103180000D02*
X160040000Y-102880000D01*
X154141041Y-102881041D02*
X157308957Y-102881041D01*
X169140000Y-103180000D02*
X160340000Y-103180000D01*
X157308957Y-102881041D02*
X157340000Y-102849998D01*
D12*
%TO.N,+3V3*%
X150454997Y-91680000D02*
X151154998Y-92380001D01*
X146540000Y-91680000D02*
X150454997Y-91680000D01*
X157939999Y-93179999D02*
X164848174Y-93180000D01*
X151154998Y-92380001D02*
X157140001Y-92380001D01*
D14*
X163548003Y-102029999D02*
X163448001Y-102130001D01*
X172290001Y-100788001D02*
X171048003Y-102029999D01*
X163448001Y-102130001D02*
X162631999Y-102130001D01*
D12*
X164848174Y-93180000D02*
X165440042Y-93771868D01*
D14*
X158340000Y-103321998D02*
X158340000Y-103414315D01*
D12*
X165440042Y-93771868D02*
X168006815Y-93771868D01*
X157140001Y-92380001D02*
X157540000Y-92780000D01*
D14*
X169138185Y-93771868D02*
X172290001Y-96923684D01*
X172290001Y-96923684D02*
X172290001Y-100788001D01*
X159631999Y-102029999D02*
X158340000Y-103321998D01*
D12*
X168006815Y-93771868D02*
X168572500Y-93771868D01*
D14*
X162631999Y-102130001D02*
X162531997Y-102029999D01*
X168572500Y-93771868D02*
X169138185Y-93771868D01*
X158340000Y-103414315D02*
X158340000Y-103980000D01*
X171048003Y-102029999D02*
X163548003Y-102029999D01*
D12*
X157540000Y-92780000D02*
X157939999Y-93179999D01*
D14*
X162531997Y-102029999D02*
X159631999Y-102029999D01*
D12*
%TO.N,+1V8*%
X162240000Y-96780000D02*
X163769566Y-96780000D01*
X163870009Y-91519999D02*
X151475002Y-91519999D01*
X152040000Y-96045685D02*
X152040000Y-95480000D01*
X153540000Y-102280000D02*
X153740000Y-102080000D01*
X152040000Y-97914315D02*
X152040000Y-96045685D01*
X158140000Y-102080000D02*
X158940000Y-101280000D01*
D14*
X151740000Y-104080000D02*
X153540000Y-102280000D01*
D12*
X151475002Y-91519999D02*
X151440000Y-91555001D01*
X162474315Y-101280000D02*
X163040000Y-101280000D01*
D14*
X153540000Y-102280000D02*
X153540000Y-99980000D01*
D12*
X164280000Y-91929990D02*
X163870009Y-91519999D01*
X153540000Y-99414315D02*
X152040000Y-97914315D01*
X153540000Y-99980000D02*
X153540000Y-99414315D01*
X165069555Y-98079989D02*
X165469554Y-98479988D01*
X158940000Y-101280000D02*
X162474315Y-101280000D01*
X163769566Y-96780000D02*
X165069555Y-98079989D01*
X153740000Y-102080000D02*
X158140000Y-102080000D01*
D13*
%TO.N,/SPI_EXT_SCK_3V3*%
X170840000Y-100380000D02*
X169039999Y-98579999D01*
X171440000Y-100380000D02*
X170840000Y-100380000D01*
X169039999Y-98579999D02*
X168640000Y-98180000D01*
%TO.N,/SPI_EXT_MISO_3V3*%
X167823586Y-94496878D02*
X167738926Y-94581538D01*
X168874412Y-94496878D02*
X167823586Y-94496878D01*
X171440000Y-99080000D02*
X171440000Y-97062466D01*
X171440000Y-97062466D02*
X168874412Y-94496878D01*
D12*
%TO.N,/SPI_EXT_MISO_1V8*%
X160940000Y-92270000D02*
X161349990Y-92679990D01*
X161349990Y-92679990D02*
X164639990Y-92679990D01*
X164639990Y-92679990D02*
X165615990Y-92679990D01*
X165615990Y-92679990D02*
X165866000Y-92930000D01*
D13*
%TO.N,/P_SDA_3V3*%
X165140000Y-94780000D02*
X166140001Y-94780000D01*
X164560999Y-94200999D02*
X165140000Y-94780000D01*
X144240000Y-93445685D02*
X144399317Y-93605002D01*
X167340000Y-95979999D02*
X167839999Y-95979999D01*
X144240000Y-92880000D02*
X144240000Y-93445685D01*
X166140001Y-94780000D02*
X167340000Y-95979999D01*
X157087139Y-94200999D02*
X164560999Y-94200999D01*
X167839999Y-95979999D02*
X168239998Y-96379998D01*
X168239998Y-96379998D02*
X168639997Y-96779997D01*
X150014998Y-93605002D02*
X150289989Y-93330011D01*
X150289989Y-93330011D02*
X156216151Y-93330011D01*
X156216151Y-93330011D02*
X157087139Y-94200999D01*
X144399317Y-93605002D02*
X150014998Y-93605002D01*
%TO.N,/P_SCL_3V3*%
X157252539Y-93729989D02*
X156402551Y-92880001D01*
X167564386Y-95480000D02*
X166364386Y-94280000D01*
X168540000Y-95480000D02*
X167564386Y-95480000D01*
X156402551Y-92880001D02*
X149905685Y-92880001D01*
X164726399Y-93729989D02*
X157252539Y-93729989D01*
X149905685Y-92880001D02*
X149340000Y-92880001D01*
X166364386Y-94280000D02*
X165276410Y-94280000D01*
X165276410Y-94280000D02*
X164726399Y-93729989D01*
D11*
%TO.N,/P_SDA_1V8*%
X153696909Y-97702608D02*
X156191281Y-100196980D01*
X153696909Y-95423091D02*
X153696909Y-97702608D01*
X162388718Y-100196980D02*
X162705698Y-99880000D01*
X156191281Y-100196980D02*
X162388718Y-100196980D01*
X162705698Y-99880000D02*
X165640000Y-99880000D01*
X154540000Y-94580000D02*
X153696909Y-95423091D01*
%TO.N,/!SPI_SS1_1V8*%
X162840002Y-99179998D02*
X166419081Y-99179998D01*
X161840000Y-99780000D02*
X156340000Y-99780000D01*
X166469566Y-99129513D02*
X166869565Y-98729514D01*
X162240000Y-99780000D02*
X162840002Y-99179998D01*
X154396910Y-97836910D02*
X154396910Y-95736729D01*
X161840000Y-99780000D02*
X162240000Y-99780000D01*
X156340000Y-99780000D02*
X154396910Y-97836910D01*
X166419081Y-99179998D02*
X166469566Y-99129513D01*
%TD*%
%TA.AperFunction,Conductor*%
%TO.N,GND*%
G36*
X146110682Y-90910502D02*
G01*
X146157175Y-90964158D01*
X146167279Y-91034432D01*
X146137785Y-91099012D01*
X146126115Y-91110812D01*
X146011815Y-91212072D01*
X145915181Y-91352070D01*
X145915179Y-91352074D01*
X145854859Y-91511128D01*
X145834355Y-91679997D01*
X145834355Y-91680002D01*
X145854859Y-91848871D01*
X145915179Y-92007925D01*
X145915181Y-92007929D01*
X146011816Y-92147928D01*
X146011818Y-92147930D01*
X146115073Y-92239406D01*
X146139148Y-92260734D01*
X146289775Y-92339790D01*
X146289776Y-92339790D01*
X146289778Y-92339791D01*
X146422620Y-92372533D01*
X146454944Y-92380500D01*
X146454947Y-92380500D01*
X146625053Y-92380500D01*
X146625056Y-92380500D01*
X146790225Y-92339790D01*
X146940852Y-92260734D01*
X147052089Y-92162187D01*
X147116342Y-92131987D01*
X147135642Y-92130500D01*
X148797412Y-92130500D01*
X148865533Y-92150502D01*
X148912026Y-92204158D01*
X148922130Y-92274432D01*
X148892636Y-92339012D01*
X148880965Y-92350812D01*
X148811818Y-92412070D01*
X148811816Y-92412072D01*
X148715181Y-92552071D01*
X148715179Y-92552075D01*
X148654859Y-92711129D01*
X148634355Y-92879998D01*
X148634355Y-92880004D01*
X148653577Y-93038315D01*
X148641932Y-93108350D01*
X148594272Y-93160971D01*
X148528496Y-93179502D01*
X145051504Y-93179502D01*
X144983383Y-93159500D01*
X144936890Y-93105844D01*
X144926423Y-93038315D01*
X144945645Y-92880003D01*
X144945645Y-92879997D01*
X144925140Y-92711128D01*
X144864820Y-92552074D01*
X144864818Y-92552070D01*
X144768183Y-92412071D01*
X144768181Y-92412069D01*
X144640857Y-92299270D01*
X144640851Y-92299265D01*
X144490225Y-92220210D01*
X144490221Y-92220208D01*
X144325059Y-92179500D01*
X144325056Y-92179500D01*
X144154944Y-92179500D01*
X144154940Y-92179500D01*
X143989778Y-92220208D01*
X143989774Y-92220210D01*
X143839148Y-92299265D01*
X143839142Y-92299270D01*
X143711818Y-92412069D01*
X143711816Y-92412071D01*
X143615181Y-92552070D01*
X143615179Y-92552074D01*
X143554859Y-92711128D01*
X143534355Y-92879997D01*
X143534355Y-92880002D01*
X143554859Y-93048871D01*
X143615179Y-93207925D01*
X143615181Y-93207929D01*
X143700379Y-93331358D01*
X143711817Y-93347929D01*
X143772053Y-93401292D01*
X143809778Y-93461435D01*
X143814500Y-93495605D01*
X143814500Y-93501703D01*
X143835726Y-93580921D01*
X143843496Y-93609919D01*
X143843499Y-93609926D01*
X143899512Y-93706944D01*
X143899513Y-93706945D01*
X143899515Y-93706948D01*
X143984984Y-93792416D01*
X144051646Y-93859078D01*
X144051659Y-93859093D01*
X144138047Y-93945481D01*
X144138051Y-93945484D01*
X144138054Y-93945487D01*
X144217323Y-93991253D01*
X144235080Y-94001505D01*
X144343298Y-94030502D01*
X144343299Y-94030502D01*
X144343300Y-94030502D01*
X150071014Y-94030502D01*
X150071016Y-94030502D01*
X150179235Y-94001505D01*
X150276261Y-93945487D01*
X150429333Y-93792414D01*
X150491643Y-93758391D01*
X150518427Y-93755511D01*
X154092383Y-93755511D01*
X154160504Y-93775513D01*
X154206997Y-93829169D01*
X154217101Y-93899443D01*
X154187607Y-93964023D01*
X154150941Y-93993076D01*
X154139148Y-93999266D01*
X154139146Y-93999267D01*
X154139145Y-93999268D01*
X154139142Y-93999270D01*
X154011818Y-94112069D01*
X154011816Y-94112071D01*
X153915181Y-94252070D01*
X153915179Y-94252074D01*
X153854859Y-94411128D01*
X153834355Y-94579997D01*
X153834355Y-94580002D01*
X153842037Y-94643271D01*
X153830392Y-94713306D01*
X153806052Y-94747553D01*
X153376431Y-95177175D01*
X153376426Y-95177181D01*
X153323704Y-95268498D01*
X153323702Y-95268503D01*
X153312281Y-95311128D01*
X153312281Y-95311129D01*
X153312280Y-95311128D01*
X153296409Y-95370363D01*
X153296409Y-95370364D01*
X153296409Y-97649881D01*
X153296409Y-97755335D01*
X153323702Y-97857196D01*
X153323703Y-97857198D01*
X153323704Y-97857200D01*
X153376426Y-97948517D01*
X153376434Y-97948527D01*
X155866390Y-100438481D01*
X155866411Y-100438504D01*
X155945361Y-100517454D01*
X155945366Y-100517458D01*
X155945368Y-100517460D01*
X155945369Y-100517461D01*
X155945371Y-100517462D01*
X156020319Y-100560733D01*
X156020321Y-100560734D01*
X156036694Y-100570187D01*
X156036696Y-100570187D01*
X156036697Y-100570188D01*
X156134523Y-100596401D01*
X156138554Y-100597481D01*
X156251726Y-100597481D01*
X156251742Y-100597480D01*
X158789535Y-100597480D01*
X158857656Y-100617482D01*
X158904149Y-100671138D01*
X158914253Y-100741412D01*
X158884759Y-100805992D01*
X158825033Y-100844376D01*
X158822150Y-100845185D01*
X158790326Y-100853713D01*
X158790325Y-100853712D01*
X158766115Y-100860199D01*
X158663387Y-100919509D01*
X158663383Y-100919512D01*
X157990302Y-101592595D01*
X157927989Y-101626620D01*
X157901206Y-101629500D01*
X154216500Y-101629500D01*
X154148379Y-101609498D01*
X154101886Y-101555842D01*
X154090500Y-101503500D01*
X154090500Y-100454861D01*
X154110502Y-100386740D01*
X154112804Y-100383285D01*
X154127287Y-100362301D01*
X154164818Y-100307930D01*
X154225140Y-100148872D01*
X154237282Y-100048872D01*
X154245645Y-99980002D01*
X154245645Y-99979997D01*
X154225140Y-99811128D01*
X154164820Y-99652074D01*
X154164818Y-99652070D01*
X154068184Y-99512072D01*
X154032946Y-99480854D01*
X153995221Y-99420709D01*
X153990500Y-99386542D01*
X153990500Y-99355007D01*
X153978507Y-99310248D01*
X153959799Y-99240429D01*
X153901689Y-99139779D01*
X153901688Y-99139778D01*
X153900489Y-99137701D01*
X153900486Y-99137697D01*
X152527405Y-97764616D01*
X152493379Y-97702304D01*
X152490500Y-97675521D01*
X152490500Y-96073457D01*
X152510502Y-96005336D01*
X152532949Y-95979143D01*
X152568178Y-95947933D01*
X152568183Y-95947929D01*
X152664818Y-95807930D01*
X152725140Y-95648872D01*
X152745645Y-95480000D01*
X152744243Y-95468457D01*
X152725140Y-95311128D01*
X152664820Y-95152074D01*
X152664818Y-95152070D01*
X152568183Y-95012071D01*
X152568181Y-95012069D01*
X152440857Y-94899270D01*
X152440851Y-94899265D01*
X152290225Y-94820210D01*
X152290221Y-94820208D01*
X152125059Y-94779500D01*
X152125056Y-94779500D01*
X151954944Y-94779500D01*
X151954940Y-94779500D01*
X151789778Y-94820208D01*
X151789774Y-94820210D01*
X151639148Y-94899265D01*
X151639142Y-94899270D01*
X151511818Y-95012069D01*
X151511816Y-95012071D01*
X151415181Y-95152070D01*
X151415179Y-95152074D01*
X151354859Y-95311128D01*
X151334355Y-95479997D01*
X151334355Y-95480002D01*
X151354859Y-95648871D01*
X151415179Y-95807925D01*
X151415181Y-95807929D01*
X151511816Y-95947928D01*
X151511821Y-95947933D01*
X151547051Y-95979143D01*
X151584778Y-96039286D01*
X151589500Y-96073457D01*
X151589500Y-97973623D01*
X151601936Y-98020036D01*
X151601935Y-98020036D01*
X151620198Y-98088194D01*
X151620203Y-98088206D01*
X151679508Y-98190925D01*
X151679516Y-98190935D01*
X152933005Y-99444423D01*
X152967030Y-99506735D01*
X152961966Y-99577550D01*
X152947607Y-99605093D01*
X152915182Y-99652068D01*
X152915179Y-99652075D01*
X152854859Y-99811128D01*
X152834355Y-99979997D01*
X152834355Y-99980002D01*
X152854859Y-100148871D01*
X152915182Y-100307930D01*
X152967196Y-100383285D01*
X152989432Y-100450710D01*
X152989500Y-100454861D01*
X152989500Y-101999785D01*
X152969498Y-102067906D01*
X152952595Y-102088880D01*
X151689113Y-103352361D01*
X151630172Y-103385605D01*
X151489777Y-103420209D01*
X151489774Y-103420210D01*
X151339148Y-103499265D01*
X151339142Y-103499270D01*
X151211818Y-103612069D01*
X151211816Y-103612071D01*
X151115181Y-103752070D01*
X151115179Y-103752074D01*
X151054859Y-103911128D01*
X151034355Y-104079997D01*
X151034355Y-104080002D01*
X151054859Y-104248871D01*
X151115179Y-104407925D01*
X151115181Y-104407929D01*
X151211815Y-104547927D01*
X151326115Y-104649188D01*
X151363840Y-104709332D01*
X151363060Y-104780324D01*
X151324022Y-104839625D01*
X151259121Y-104868407D01*
X151242561Y-104869500D01*
X142376500Y-104869500D01*
X142308379Y-104849498D01*
X142261886Y-104795842D01*
X142250500Y-104743500D01*
X142250500Y-91016500D01*
X142270502Y-90948379D01*
X142324158Y-90901886D01*
X142376500Y-90890500D01*
X146042561Y-90890500D01*
X146110682Y-90910502D01*
G37*
%TD.AperFunction*%
%TA.AperFunction,Conductor*%
G36*
X178171621Y-90910502D02*
G01*
X178218114Y-90964158D01*
X178229500Y-91016500D01*
X178229500Y-104743500D01*
X178209498Y-104811621D01*
X178155842Y-104858114D01*
X178103500Y-104869500D01*
X158663751Y-104869500D01*
X158595630Y-104849498D01*
X158549137Y-104795842D01*
X158539033Y-104725568D01*
X158568527Y-104660988D01*
X158605195Y-104631933D01*
X158740852Y-104560734D01*
X158868183Y-104447929D01*
X158964818Y-104307930D01*
X159025140Y-104148872D01*
X159045645Y-103980000D01*
X159037282Y-103911128D01*
X159025140Y-103811128D01*
X158964818Y-103652069D01*
X158952446Y-103634145D01*
X158930210Y-103566720D01*
X158947957Y-103497978D01*
X158967043Y-103473478D01*
X159233713Y-103206808D01*
X159296023Y-103172784D01*
X159366838Y-103177849D01*
X159423674Y-103220396D01*
X159426489Y-103224311D01*
X159479555Y-103301191D01*
X159511816Y-103347928D01*
X159511818Y-103347930D01*
X159637191Y-103459001D01*
X159639148Y-103460734D01*
X159789775Y-103539790D01*
X159789776Y-103539790D01*
X159789778Y-103539791D01*
X159930170Y-103574394D01*
X159989112Y-103607638D01*
X160001978Y-103620504D01*
X160001983Y-103620508D01*
X160001985Y-103620510D01*
X160001986Y-103620511D01*
X160001988Y-103620512D01*
X160049475Y-103647928D01*
X160105892Y-103680500D01*
X160127515Y-103692984D01*
X160267525Y-103730500D01*
X160267526Y-103730500D01*
X160412474Y-103730500D01*
X168657235Y-103730500D01*
X168725356Y-103750502D01*
X168735988Y-103758553D01*
X168739148Y-103760734D01*
X168889775Y-103839790D01*
X168889776Y-103839790D01*
X168889778Y-103839791D01*
X169046461Y-103878409D01*
X169054944Y-103880500D01*
X169054947Y-103880500D01*
X169225053Y-103880500D01*
X169225056Y-103880500D01*
X169390225Y-103839790D01*
X169540852Y-103760734D01*
X169668183Y-103647929D01*
X169764818Y-103507930D01*
X169825140Y-103348872D01*
X169838246Y-103240935D01*
X169845645Y-103180002D01*
X169845645Y-103179997D01*
X169825140Y-103011128D01*
X169764820Y-102852074D01*
X169764818Y-102852072D01*
X169764818Y-102852070D01*
X169713740Y-102778072D01*
X169691506Y-102710651D01*
X169709253Y-102641908D01*
X169761347Y-102593672D01*
X169817438Y-102580499D01*
X171120475Y-102580499D01*
X171120477Y-102580499D01*
X171120478Y-102580499D01*
X171260488Y-102542983D01*
X171314180Y-102511984D01*
X171386018Y-102470509D01*
X172730511Y-101126016D01*
X172802985Y-101000486D01*
X172840501Y-100860476D01*
X172840501Y-96851209D01*
X172802985Y-96711199D01*
X172776868Y-96665963D01*
X172730511Y-96585669D01*
X172730506Y-96585664D01*
X172730504Y-96585661D01*
X169476206Y-93331363D01*
X169476196Y-93331355D01*
X169350671Y-93258884D01*
X169280020Y-93239952D01*
X169280020Y-93239953D01*
X169245339Y-93230660D01*
X169210660Y-93221368D01*
X169210659Y-93221368D01*
X169055265Y-93221368D01*
X168987144Y-93201366D01*
X168976511Y-93193314D01*
X168973351Y-93191133D01*
X168822725Y-93112078D01*
X168822721Y-93112076D01*
X168657559Y-93071368D01*
X168657556Y-93071368D01*
X168487444Y-93071368D01*
X168487440Y-93071368D01*
X168322278Y-93112076D01*
X168322274Y-93112078D01*
X168171648Y-93191133D01*
X168171647Y-93191134D01*
X168152695Y-93207925D01*
X168060411Y-93289681D01*
X167996158Y-93319881D01*
X167976858Y-93321368D01*
X166649302Y-93321368D01*
X166581181Y-93301366D01*
X166534688Y-93247710D01*
X166524584Y-93177436D01*
X166531489Y-93150689D01*
X166546132Y-93112076D01*
X166551140Y-93098872D01*
X166551140Y-93098871D01*
X166551141Y-93098869D01*
X166571645Y-92930002D01*
X166571645Y-92929997D01*
X166551140Y-92761128D01*
X166490820Y-92602074D01*
X166490818Y-92602070D01*
X166394183Y-92462071D01*
X166394181Y-92462069D01*
X166266857Y-92349270D01*
X166266851Y-92349265D01*
X166116225Y-92270210D01*
X166116221Y-92270208D01*
X165951059Y-92229500D01*
X165951056Y-92229500D01*
X165780944Y-92229500D01*
X165780938Y-92229500D01*
X165757397Y-92235303D01*
X165694635Y-92234671D01*
X165675299Y-92229490D01*
X165091504Y-92229490D01*
X165023383Y-92209488D01*
X164976890Y-92155832D01*
X164966423Y-92088303D01*
X164985645Y-91929993D01*
X164985645Y-91929987D01*
X164965140Y-91761118D01*
X164904820Y-91602064D01*
X164904818Y-91602060D01*
X164808183Y-91462061D01*
X164808181Y-91462059D01*
X164680857Y-91349260D01*
X164680851Y-91349255D01*
X164530225Y-91270200D01*
X164530221Y-91270198D01*
X164365059Y-91229490D01*
X164365056Y-91229490D01*
X164268793Y-91229490D01*
X164200672Y-91209488D01*
X164179701Y-91192588D01*
X164146623Y-91159510D01*
X164146622Y-91159509D01*
X164146619Y-91159507D01*
X164087923Y-91125619D01*
X164038930Y-91074236D01*
X164025494Y-91004522D01*
X164051881Y-90938612D01*
X164109713Y-90897430D01*
X164150923Y-90890500D01*
X178103500Y-90890500D01*
X178171621Y-90910502D01*
G37*
%TD.AperFunction*%
%TA.AperFunction,Conductor*%
G36*
X156055834Y-93775513D02*
G01*
X156076803Y-93792411D01*
X156825876Y-94541484D01*
X156922902Y-94597502D01*
X157031121Y-94626499D01*
X157143157Y-94626499D01*
X164332561Y-94626499D01*
X164400682Y-94646501D01*
X164421651Y-94663399D01*
X164878737Y-95120485D01*
X164975763Y-95176503D01*
X165083982Y-95205500D01*
X165196018Y-95205500D01*
X165911563Y-95205500D01*
X165979684Y-95225502D01*
X166000658Y-95242405D01*
X167078730Y-96320478D01*
X167078735Y-96320482D01*
X167078737Y-96320484D01*
X167078738Y-96320485D01*
X167078740Y-96320486D01*
X167136291Y-96353713D01*
X167175763Y-96376502D01*
X167283982Y-96405499D01*
X167396019Y-96405499D01*
X167611561Y-96405499D01*
X167679682Y-96425501D01*
X167700656Y-96442404D01*
X167902220Y-96643968D01*
X167936246Y-96706280D01*
X167938206Y-96748249D01*
X167934352Y-96779992D01*
X167934352Y-96779999D01*
X167954856Y-96948868D01*
X168015176Y-97107922D01*
X168015178Y-97107926D01*
X168111813Y-97247925D01*
X168111815Y-97247927D01*
X168111818Y-97247930D01*
X168239145Y-97360731D01*
X168253820Y-97368433D01*
X168304840Y-97417799D01*
X168321073Y-97486915D01*
X168297362Y-97553835D01*
X168253821Y-97591564D01*
X168240377Y-97598620D01*
X168239146Y-97599267D01*
X168239142Y-97599270D01*
X168111818Y-97712069D01*
X168111816Y-97712071D01*
X168015181Y-97852070D01*
X168015179Y-97852074D01*
X167954859Y-98011128D01*
X167934355Y-98179997D01*
X167934355Y-98180002D01*
X167954859Y-98348871D01*
X168015179Y-98507925D01*
X168015181Y-98507929D01*
X168111816Y-98647928D01*
X168111818Y-98647930D01*
X168203907Y-98729514D01*
X168239148Y-98760734D01*
X168389775Y-98839790D01*
X168389776Y-98839790D01*
X168389778Y-98839791D01*
X168543953Y-98877791D01*
X168554944Y-98880500D01*
X168554947Y-98880500D01*
X168686562Y-98880500D01*
X168754683Y-98900502D01*
X168775657Y-98917405D01*
X170499515Y-100641263D01*
X170578737Y-100720485D01*
X170578738Y-100720486D01*
X170578740Y-100720487D01*
X170646935Y-100759859D01*
X170675763Y-100776503D01*
X170783982Y-100805500D01*
X170817520Y-100805500D01*
X170885641Y-100825502D01*
X170906026Y-100842971D01*
X170906112Y-100842875D01*
X170911817Y-100847929D01*
X171039148Y-100960734D01*
X171084000Y-100984274D01*
X171135022Y-101033642D01*
X171151254Y-101102758D01*
X171127542Y-101169678D01*
X171114540Y-101184936D01*
X170856883Y-101442594D01*
X170794570Y-101476619D01*
X170767787Y-101479499D01*
X163863646Y-101479499D01*
X163795525Y-101459497D01*
X163749032Y-101405841D01*
X163738565Y-101338311D01*
X163745645Y-101280002D01*
X163745645Y-101279997D01*
X163725140Y-101111128D01*
X163664820Y-100952074D01*
X163664818Y-100952070D01*
X163568183Y-100812071D01*
X163568181Y-100812069D01*
X163440857Y-100699270D01*
X163440851Y-100699265D01*
X163290225Y-100620210D01*
X163290221Y-100620208D01*
X163125059Y-100579500D01*
X163125056Y-100579500D01*
X162954944Y-100579500D01*
X162954940Y-100579500D01*
X162886372Y-100596401D01*
X162815444Y-100593282D01*
X162757462Y-100552312D01*
X162730834Y-100486498D01*
X162744015Y-100416735D01*
X162767124Y-100384967D01*
X162834686Y-100317405D01*
X162896998Y-100283379D01*
X162923781Y-100280500D01*
X164999144Y-100280500D01*
X165067265Y-100300502D01*
X165102839Y-100334923D01*
X165111814Y-100347926D01*
X165111818Y-100347930D01*
X165232518Y-100454861D01*
X165239148Y-100460734D01*
X165389775Y-100539790D01*
X165389776Y-100539790D01*
X165389778Y-100539791D01*
X165440579Y-100552312D01*
X165554944Y-100580500D01*
X165554947Y-100580500D01*
X165725053Y-100580500D01*
X165725056Y-100580500D01*
X165890225Y-100539790D01*
X166040852Y-100460734D01*
X166168183Y-100347929D01*
X166264818Y-100207930D01*
X166325140Y-100048872D01*
X166333503Y-99979997D01*
X166345645Y-99880002D01*
X166345645Y-99879996D01*
X166326423Y-99721685D01*
X166338068Y-99651650D01*
X166385729Y-99599029D01*
X166451504Y-99580498D01*
X166471806Y-99580498D01*
X166471808Y-99580498D01*
X166573669Y-99553205D01*
X166664994Y-99500478D01*
X166698553Y-99466918D01*
X166760863Y-99432894D01*
X166787648Y-99430014D01*
X166954618Y-99430014D01*
X166954621Y-99430014D01*
X167119790Y-99389304D01*
X167270417Y-99310248D01*
X167397748Y-99197443D01*
X167494383Y-99057444D01*
X167554705Y-98898386D01*
X167575210Y-98729514D01*
X167554705Y-98560642D01*
X167534712Y-98507925D01*
X167494385Y-98401588D01*
X167494383Y-98401584D01*
X167397748Y-98261585D01*
X167397746Y-98261583D01*
X167270422Y-98148784D01*
X167270416Y-98148779D01*
X167119790Y-98069724D01*
X167119786Y-98069722D01*
X166954624Y-98029014D01*
X166954621Y-98029014D01*
X166784509Y-98029014D01*
X166784505Y-98029014D01*
X166619343Y-98069722D01*
X166619339Y-98069724D01*
X166468713Y-98148779D01*
X166468707Y-98148784D01*
X166341383Y-98261583D01*
X166336326Y-98267292D01*
X166333969Y-98265204D01*
X166289917Y-98300858D01*
X166219343Y-98308597D01*
X166155789Y-98276952D01*
X166123640Y-98229231D01*
X166094375Y-98152064D01*
X166094372Y-98152058D01*
X165997737Y-98012059D01*
X165997735Y-98012057D01*
X165870411Y-97899258D01*
X165870405Y-97899253D01*
X165719779Y-97820198D01*
X165719775Y-97820196D01*
X165554613Y-97779488D01*
X165554610Y-97779488D01*
X165458347Y-97779488D01*
X165390226Y-97759486D01*
X165369252Y-97742583D01*
X165346169Y-97719500D01*
X164046186Y-96419516D01*
X164046176Y-96419508D01*
X163943457Y-96360203D01*
X163943455Y-96360202D01*
X163943453Y-96360201D01*
X163943446Y-96360199D01*
X163919239Y-96353712D01*
X163919239Y-96353713D01*
X163828875Y-96329500D01*
X163828874Y-96329500D01*
X162835642Y-96329500D01*
X162767521Y-96309498D01*
X162752089Y-96297813D01*
X162732173Y-96280169D01*
X162640852Y-96199266D01*
X162640851Y-96199265D01*
X162490225Y-96120210D01*
X162490221Y-96120208D01*
X162325059Y-96079500D01*
X162325056Y-96079500D01*
X162154944Y-96079500D01*
X162154940Y-96079500D01*
X161989778Y-96120208D01*
X161989774Y-96120210D01*
X161839148Y-96199265D01*
X161839142Y-96199270D01*
X161711818Y-96312069D01*
X161711816Y-96312071D01*
X161615181Y-96452070D01*
X161615179Y-96452074D01*
X161554859Y-96611128D01*
X161534355Y-96779997D01*
X161534355Y-96780002D01*
X161554859Y-96948871D01*
X161615179Y-97107925D01*
X161615181Y-97107929D01*
X161711816Y-97247928D01*
X161711818Y-97247930D01*
X161839142Y-97360729D01*
X161839146Y-97360732D01*
X161839148Y-97360734D01*
X161989775Y-97439790D01*
X161989776Y-97439790D01*
X161989778Y-97439791D01*
X162124835Y-97473079D01*
X162154944Y-97480500D01*
X162154947Y-97480500D01*
X162325053Y-97480500D01*
X162325056Y-97480500D01*
X162490225Y-97439790D01*
X162640852Y-97360734D01*
X162752089Y-97262187D01*
X162816342Y-97231987D01*
X162835642Y-97230500D01*
X163530773Y-97230500D01*
X163598894Y-97250502D01*
X163619868Y-97267405D01*
X164727949Y-98375486D01*
X164761975Y-98437798D01*
X164763590Y-98472367D01*
X164763909Y-98472367D01*
X164763909Y-98479184D01*
X164763936Y-98479762D01*
X164763909Y-98479984D01*
X164763909Y-98479991D01*
X164783132Y-98638311D01*
X164771487Y-98708346D01*
X164723827Y-98760967D01*
X164658051Y-98779498D01*
X162892729Y-98779498D01*
X162787275Y-98779498D01*
X162685414Y-98806791D01*
X162685412Y-98806792D01*
X162685409Y-98806793D01*
X162594092Y-98859515D01*
X162594086Y-98859520D01*
X162396168Y-99057439D01*
X162111010Y-99342596D01*
X162048700Y-99376620D01*
X162021917Y-99379500D01*
X156558083Y-99379500D01*
X156489962Y-99359498D01*
X156468988Y-99342595D01*
X154834315Y-97707922D01*
X154800289Y-97645610D01*
X154797410Y-97618827D01*
X154797410Y-96374482D01*
X154817412Y-96306361D01*
X154839852Y-96280174D01*
X154925093Y-96204658D01*
X155021728Y-96064659D01*
X155082050Y-95905601D01*
X155102555Y-95736729D01*
X155082050Y-95567857D01*
X155021730Y-95408803D01*
X155021728Y-95408801D01*
X155021728Y-95408799D01*
X154948194Y-95302268D01*
X154925960Y-95234847D01*
X154943707Y-95166104D01*
X154968339Y-95136383D01*
X154993919Y-95113720D01*
X155068183Y-95047929D01*
X155164818Y-94907930D01*
X155225140Y-94748872D01*
X155237570Y-94646501D01*
X155245645Y-94580002D01*
X155245645Y-94579997D01*
X155225140Y-94411128D01*
X155164820Y-94252074D01*
X155164818Y-94252070D01*
X155068183Y-94112071D01*
X155068181Y-94112069D01*
X154940857Y-93999270D01*
X154940854Y-93999268D01*
X154940852Y-93999266D01*
X154929059Y-93993076D01*
X154878039Y-93943710D01*
X154861807Y-93874594D01*
X154885518Y-93807674D01*
X154941645Y-93764197D01*
X154987617Y-93755511D01*
X155987713Y-93755511D01*
X156055834Y-93775513D01*
G37*
%TD.AperFunction*%
%TD*%
M02*
