%TF.GenerationSoftware,KiCad,Pcbnew,9.0.7+1*%
%TF.CreationDate,2026-02-22T23:16:14+00:00*%
%TF.ProjectId,TFASPDIMU01,54464153-5044-4494-9d55-30312e6b6963,rev?*%
%TF.SameCoordinates,Original*%
%TF.FileFunction,Legend,Top*%
%TF.FilePolarity,Positive*%
%FSLAX46Y46*%
G04 Gerber Fmt 4.6, Leading zero omitted, Abs format (unit mm)*
G04 Created by KiCad (PCBNEW 9.0.7+1) date 2026-02-22 23:16:14*
%MOMM*%
%LPD*%
G01*
G04 APERTURE LIST*
%ADD10C,0.300000*%
%ADD11C,0.114300*%
%ADD12C,0.150000*%
%ADD13C,0.120000*%
G04 APERTURE END LIST*
D10*
X177111926Y-101638809D02*
X175841926Y-101638809D01*
X175841926Y-101638809D02*
X176749069Y-101215475D01*
X176749069Y-101215475D02*
X175841926Y-100792142D01*
X175841926Y-100792142D02*
X177111926Y-100792142D01*
X177111926Y-99582618D02*
X177111926Y-100187380D01*
X177111926Y-100187380D02*
X175841926Y-100187380D01*
X176749069Y-99219761D02*
X176749069Y-98614999D01*
X177111926Y-99340713D02*
X175841926Y-98917380D01*
X175841926Y-98917380D02*
X177111926Y-98494046D01*
X176446688Y-97647380D02*
X176507164Y-97465952D01*
X176507164Y-97465952D02*
X176567640Y-97405475D01*
X176567640Y-97405475D02*
X176688592Y-97344999D01*
X176688592Y-97344999D02*
X176870021Y-97344999D01*
X176870021Y-97344999D02*
X176990973Y-97405475D01*
X176990973Y-97405475D02*
X177051450Y-97465952D01*
X177051450Y-97465952D02*
X177111926Y-97586904D01*
X177111926Y-97586904D02*
X177111926Y-98070714D01*
X177111926Y-98070714D02*
X175841926Y-98070714D01*
X175841926Y-98070714D02*
X175841926Y-97647380D01*
X175841926Y-97647380D02*
X175902402Y-97526428D01*
X175902402Y-97526428D02*
X175962878Y-97465952D01*
X175962878Y-97465952D02*
X176083830Y-97405475D01*
X176083830Y-97405475D02*
X176204783Y-97405475D01*
X176204783Y-97405475D02*
X176325735Y-97465952D01*
X176325735Y-97465952D02*
X176386211Y-97526428D01*
X176386211Y-97526428D02*
X176446688Y-97647380D01*
X176446688Y-97647380D02*
X176446688Y-98070714D01*
X176990973Y-96800714D02*
X177051450Y-96740237D01*
X177051450Y-96740237D02*
X177111926Y-96800714D01*
X177111926Y-96800714D02*
X177051450Y-96861190D01*
X177051450Y-96861190D02*
X176990973Y-96800714D01*
X176990973Y-96800714D02*
X177111926Y-96800714D01*
X176990973Y-95470237D02*
X177051450Y-95530713D01*
X177051450Y-95530713D02*
X177111926Y-95712142D01*
X177111926Y-95712142D02*
X177111926Y-95833094D01*
X177111926Y-95833094D02*
X177051450Y-96014523D01*
X177051450Y-96014523D02*
X176930497Y-96135475D01*
X176930497Y-96135475D02*
X176809545Y-96195952D01*
X176809545Y-96195952D02*
X176567640Y-96256428D01*
X176567640Y-96256428D02*
X176386211Y-96256428D01*
X176386211Y-96256428D02*
X176144307Y-96195952D01*
X176144307Y-96195952D02*
X176023354Y-96135475D01*
X176023354Y-96135475D02*
X175902402Y-96014523D01*
X175902402Y-96014523D02*
X175841926Y-95833094D01*
X175841926Y-95833094D02*
X175841926Y-95712142D01*
X175841926Y-95712142D02*
X175902402Y-95530713D01*
X175902402Y-95530713D02*
X175962878Y-95470237D01*
X175841926Y-95046904D02*
X175841926Y-94200237D01*
X175841926Y-94200237D02*
X177111926Y-95046904D01*
X177111926Y-95046904D02*
X177111926Y-94200237D01*
D11*
X152869066Y-97156199D02*
X152627161Y-97308599D01*
X152869066Y-97417456D02*
X152361066Y-97417456D01*
X152361066Y-97417456D02*
X152361066Y-97243285D01*
X152361066Y-97243285D02*
X152385256Y-97199742D01*
X152385256Y-97199742D02*
X152409447Y-97177971D01*
X152409447Y-97177971D02*
X152457828Y-97156199D01*
X152457828Y-97156199D02*
X152530399Y-97156199D01*
X152530399Y-97156199D02*
X152578780Y-97177971D01*
X152578780Y-97177971D02*
X152602971Y-97199742D01*
X152602971Y-97199742D02*
X152627161Y-97243285D01*
X152627161Y-97243285D02*
X152627161Y-97417456D01*
X152361066Y-96742542D02*
X152361066Y-96960256D01*
X152361066Y-96960256D02*
X152602971Y-96982028D01*
X152602971Y-96982028D02*
X152578780Y-96960256D01*
X152578780Y-96960256D02*
X152554590Y-96916714D01*
X152554590Y-96916714D02*
X152554590Y-96807856D01*
X152554590Y-96807856D02*
X152578780Y-96764314D01*
X152578780Y-96764314D02*
X152602971Y-96742542D01*
X152602971Y-96742542D02*
X152651352Y-96720771D01*
X152651352Y-96720771D02*
X152772304Y-96720771D01*
X152772304Y-96720771D02*
X152820685Y-96742542D01*
X152820685Y-96742542D02*
X152844876Y-96764314D01*
X152844876Y-96764314D02*
X152869066Y-96807856D01*
X152869066Y-96807856D02*
X152869066Y-96916714D01*
X152869066Y-96916714D02*
X152844876Y-96960256D01*
X152844876Y-96960256D02*
X152820685Y-96982028D01*
D12*
X157030819Y-96587904D02*
X157840342Y-96587904D01*
X157840342Y-96587904D02*
X157935580Y-96540285D01*
X157935580Y-96540285D02*
X157983200Y-96492666D01*
X157983200Y-96492666D02*
X158030819Y-96397428D01*
X158030819Y-96397428D02*
X158030819Y-96206952D01*
X158030819Y-96206952D02*
X157983200Y-96111714D01*
X157983200Y-96111714D02*
X157935580Y-96064095D01*
X157935580Y-96064095D02*
X157840342Y-96016476D01*
X157840342Y-96016476D02*
X157030819Y-96016476D01*
X157126057Y-95587904D02*
X157078438Y-95540285D01*
X157078438Y-95540285D02*
X157030819Y-95445047D01*
X157030819Y-95445047D02*
X157030819Y-95206952D01*
X157030819Y-95206952D02*
X157078438Y-95111714D01*
X157078438Y-95111714D02*
X157126057Y-95064095D01*
X157126057Y-95064095D02*
X157221295Y-95016476D01*
X157221295Y-95016476D02*
X157316533Y-95016476D01*
X157316533Y-95016476D02*
X157459390Y-95064095D01*
X157459390Y-95064095D02*
X158030819Y-95635523D01*
X158030819Y-95635523D02*
X158030819Y-95016476D01*
X168001905Y-103634819D02*
X168001905Y-102634819D01*
X168001905Y-102634819D02*
X168240000Y-102634819D01*
X168240000Y-102634819D02*
X168382857Y-102682438D01*
X168382857Y-102682438D02*
X168478095Y-102777676D01*
X168478095Y-102777676D02*
X168525714Y-102872914D01*
X168525714Y-102872914D02*
X168573333Y-103063390D01*
X168573333Y-103063390D02*
X168573333Y-103206247D01*
X168573333Y-103206247D02*
X168525714Y-103396723D01*
X168525714Y-103396723D02*
X168478095Y-103491961D01*
X168478095Y-103491961D02*
X168382857Y-103587200D01*
X168382857Y-103587200D02*
X168240000Y-103634819D01*
X168240000Y-103634819D02*
X168001905Y-103634819D01*
X169525714Y-103634819D02*
X168954286Y-103634819D01*
X169240000Y-103634819D02*
X169240000Y-102634819D01*
X169240000Y-102634819D02*
X169144762Y-102777676D01*
X169144762Y-102777676D02*
X169049524Y-102872914D01*
X169049524Y-102872914D02*
X168954286Y-102920533D01*
X166312095Y-95996819D02*
X166312095Y-96806342D01*
X166312095Y-96806342D02*
X166359714Y-96901580D01*
X166359714Y-96901580D02*
X166407333Y-96949200D01*
X166407333Y-96949200D02*
X166502571Y-96996819D01*
X166502571Y-96996819D02*
X166693047Y-96996819D01*
X166693047Y-96996819D02*
X166788285Y-96949200D01*
X166788285Y-96949200D02*
X166835904Y-96901580D01*
X166835904Y-96901580D02*
X166883523Y-96806342D01*
X166883523Y-96806342D02*
X166883523Y-95996819D01*
X167788285Y-95996819D02*
X167597809Y-95996819D01*
X167597809Y-95996819D02*
X167502571Y-96044438D01*
X167502571Y-96044438D02*
X167454952Y-96092057D01*
X167454952Y-96092057D02*
X167359714Y-96234914D01*
X167359714Y-96234914D02*
X167312095Y-96425390D01*
X167312095Y-96425390D02*
X167312095Y-96806342D01*
X167312095Y-96806342D02*
X167359714Y-96901580D01*
X167359714Y-96901580D02*
X167407333Y-96949200D01*
X167407333Y-96949200D02*
X167502571Y-96996819D01*
X167502571Y-96996819D02*
X167693047Y-96996819D01*
X167693047Y-96996819D02*
X167788285Y-96949200D01*
X167788285Y-96949200D02*
X167835904Y-96901580D01*
X167835904Y-96901580D02*
X167883523Y-96806342D01*
X167883523Y-96806342D02*
X167883523Y-96568247D01*
X167883523Y-96568247D02*
X167835904Y-96473009D01*
X167835904Y-96473009D02*
X167788285Y-96425390D01*
X167788285Y-96425390D02*
X167693047Y-96377771D01*
X167693047Y-96377771D02*
X167502571Y-96377771D01*
X167502571Y-96377771D02*
X167407333Y-96425390D01*
X167407333Y-96425390D02*
X167359714Y-96473009D01*
X167359714Y-96473009D02*
X167312095Y-96568247D01*
X174302819Y-98213333D02*
X175017104Y-98213333D01*
X175017104Y-98213333D02*
X175159961Y-98260952D01*
X175159961Y-98260952D02*
X175255200Y-98356190D01*
X175255200Y-98356190D02*
X175302819Y-98499047D01*
X175302819Y-98499047D02*
X175302819Y-98594285D01*
X175302819Y-97213333D02*
X175302819Y-97784761D01*
X175302819Y-97499047D02*
X174302819Y-97499047D01*
X174302819Y-97499047D02*
X174445676Y-97594285D01*
X174445676Y-97594285D02*
X174540914Y-97689523D01*
X174540914Y-97689523D02*
X174588533Y-97784761D01*
X148534819Y-103801904D02*
X149344342Y-103801904D01*
X149344342Y-103801904D02*
X149439580Y-103754285D01*
X149439580Y-103754285D02*
X149487200Y-103706666D01*
X149487200Y-103706666D02*
X149534819Y-103611428D01*
X149534819Y-103611428D02*
X149534819Y-103420952D01*
X149534819Y-103420952D02*
X149487200Y-103325714D01*
X149487200Y-103325714D02*
X149439580Y-103278095D01*
X149439580Y-103278095D02*
X149344342Y-103230476D01*
X149344342Y-103230476D02*
X148534819Y-103230476D01*
X148534819Y-102278095D02*
X148534819Y-102754285D01*
X148534819Y-102754285D02*
X149011009Y-102801904D01*
X149011009Y-102801904D02*
X148963390Y-102754285D01*
X148963390Y-102754285D02*
X148915771Y-102659047D01*
X148915771Y-102659047D02*
X148915771Y-102420952D01*
X148915771Y-102420952D02*
X148963390Y-102325714D01*
X148963390Y-102325714D02*
X149011009Y-102278095D01*
X149011009Y-102278095D02*
X149106247Y-102230476D01*
X149106247Y-102230476D02*
X149344342Y-102230476D01*
X149344342Y-102230476D02*
X149439580Y-102278095D01*
X149439580Y-102278095D02*
X149487200Y-102325714D01*
X149487200Y-102325714D02*
X149534819Y-102420952D01*
X149534819Y-102420952D02*
X149534819Y-102659047D01*
X149534819Y-102659047D02*
X149487200Y-102754285D01*
X149487200Y-102754285D02*
X149439580Y-102801904D01*
X142678095Y-93651819D02*
X142678095Y-94461342D01*
X142678095Y-94461342D02*
X142725714Y-94556580D01*
X142725714Y-94556580D02*
X142773333Y-94604200D01*
X142773333Y-94604200D02*
X142868571Y-94651819D01*
X142868571Y-94651819D02*
X143059047Y-94651819D01*
X143059047Y-94651819D02*
X143154285Y-94604200D01*
X143154285Y-94604200D02*
X143201904Y-94556580D01*
X143201904Y-94556580D02*
X143249523Y-94461342D01*
X143249523Y-94461342D02*
X143249523Y-93651819D01*
X144249523Y-94651819D02*
X143678095Y-94651819D01*
X143963809Y-94651819D02*
X143963809Y-93651819D01*
X143963809Y-93651819D02*
X143868571Y-93794676D01*
X143868571Y-93794676D02*
X143773333Y-93889914D01*
X143773333Y-93889914D02*
X143678095Y-93937533D01*
D11*
X171520685Y-92263914D02*
X171544876Y-92285686D01*
X171544876Y-92285686D02*
X171569066Y-92351000D01*
X171569066Y-92351000D02*
X171569066Y-92394543D01*
X171569066Y-92394543D02*
X171544876Y-92459857D01*
X171544876Y-92459857D02*
X171496495Y-92503400D01*
X171496495Y-92503400D02*
X171448114Y-92525171D01*
X171448114Y-92525171D02*
X171351352Y-92546943D01*
X171351352Y-92546943D02*
X171278780Y-92546943D01*
X171278780Y-92546943D02*
X171182018Y-92525171D01*
X171182018Y-92525171D02*
X171133637Y-92503400D01*
X171133637Y-92503400D02*
X171085256Y-92459857D01*
X171085256Y-92459857D02*
X171061066Y-92394543D01*
X171061066Y-92394543D02*
X171061066Y-92351000D01*
X171061066Y-92351000D02*
X171085256Y-92285686D01*
X171085256Y-92285686D02*
X171109447Y-92263914D01*
X171569066Y-91828486D02*
X171569066Y-92089743D01*
X171569066Y-91959114D02*
X171061066Y-91959114D01*
X171061066Y-91959114D02*
X171133637Y-92002657D01*
X171133637Y-92002657D02*
X171182018Y-92046200D01*
X171182018Y-92046200D02*
X171206209Y-92089743D01*
X171061066Y-91545457D02*
X171061066Y-91501914D01*
X171061066Y-91501914D02*
X171085256Y-91458371D01*
X171085256Y-91458371D02*
X171109447Y-91436600D01*
X171109447Y-91436600D02*
X171157828Y-91414828D01*
X171157828Y-91414828D02*
X171254590Y-91393057D01*
X171254590Y-91393057D02*
X171375542Y-91393057D01*
X171375542Y-91393057D02*
X171472304Y-91414828D01*
X171472304Y-91414828D02*
X171520685Y-91436600D01*
X171520685Y-91436600D02*
X171544876Y-91458371D01*
X171544876Y-91458371D02*
X171569066Y-91501914D01*
X171569066Y-91501914D02*
X171569066Y-91545457D01*
X171569066Y-91545457D02*
X171544876Y-91589000D01*
X171544876Y-91589000D02*
X171520685Y-91610771D01*
X171520685Y-91610771D02*
X171472304Y-91632542D01*
X171472304Y-91632542D02*
X171375542Y-91654314D01*
X171375542Y-91654314D02*
X171254590Y-91654314D01*
X171254590Y-91654314D02*
X171157828Y-91632542D01*
X171157828Y-91632542D02*
X171109447Y-91610771D01*
X171109447Y-91610771D02*
X171085256Y-91589000D01*
X171085256Y-91589000D02*
X171061066Y-91545457D01*
X162582685Y-97553199D02*
X162606876Y-97574971D01*
X162606876Y-97574971D02*
X162631066Y-97640285D01*
X162631066Y-97640285D02*
X162631066Y-97683828D01*
X162631066Y-97683828D02*
X162606876Y-97749142D01*
X162606876Y-97749142D02*
X162558495Y-97792685D01*
X162558495Y-97792685D02*
X162510114Y-97814456D01*
X162510114Y-97814456D02*
X162413352Y-97836228D01*
X162413352Y-97836228D02*
X162340780Y-97836228D01*
X162340780Y-97836228D02*
X162244018Y-97814456D01*
X162244018Y-97814456D02*
X162195637Y-97792685D01*
X162195637Y-97792685D02*
X162147256Y-97749142D01*
X162147256Y-97749142D02*
X162123066Y-97683828D01*
X162123066Y-97683828D02*
X162123066Y-97640285D01*
X162123066Y-97640285D02*
X162147256Y-97574971D01*
X162147256Y-97574971D02*
X162171447Y-97553199D01*
X162171447Y-97379028D02*
X162147256Y-97357256D01*
X162147256Y-97357256D02*
X162123066Y-97313714D01*
X162123066Y-97313714D02*
X162123066Y-97204856D01*
X162123066Y-97204856D02*
X162147256Y-97161314D01*
X162147256Y-97161314D02*
X162171447Y-97139542D01*
X162171447Y-97139542D02*
X162219828Y-97117771D01*
X162219828Y-97117771D02*
X162268209Y-97117771D01*
X162268209Y-97117771D02*
X162340780Y-97139542D01*
X162340780Y-97139542D02*
X162631066Y-97400799D01*
X162631066Y-97400799D02*
X162631066Y-97117771D01*
X164990800Y-102757685D02*
X164969028Y-102781876D01*
X164969028Y-102781876D02*
X164903714Y-102806066D01*
X164903714Y-102806066D02*
X164860171Y-102806066D01*
X164860171Y-102806066D02*
X164794857Y-102781876D01*
X164794857Y-102781876D02*
X164751314Y-102733495D01*
X164751314Y-102733495D02*
X164729543Y-102685114D01*
X164729543Y-102685114D02*
X164707771Y-102588352D01*
X164707771Y-102588352D02*
X164707771Y-102515780D01*
X164707771Y-102515780D02*
X164729543Y-102419018D01*
X164729543Y-102419018D02*
X164751314Y-102370637D01*
X164751314Y-102370637D02*
X164794857Y-102322256D01*
X164794857Y-102322256D02*
X164860171Y-102298066D01*
X164860171Y-102298066D02*
X164903714Y-102298066D01*
X164903714Y-102298066D02*
X164969028Y-102322256D01*
X164969028Y-102322256D02*
X164990800Y-102346447D01*
X165208514Y-102806066D02*
X165295600Y-102806066D01*
X165295600Y-102806066D02*
X165339143Y-102781876D01*
X165339143Y-102781876D02*
X165360914Y-102757685D01*
X165360914Y-102757685D02*
X165404457Y-102685114D01*
X165404457Y-102685114D02*
X165426228Y-102588352D01*
X165426228Y-102588352D02*
X165426228Y-102394828D01*
X165426228Y-102394828D02*
X165404457Y-102346447D01*
X165404457Y-102346447D02*
X165382686Y-102322256D01*
X165382686Y-102322256D02*
X165339143Y-102298066D01*
X165339143Y-102298066D02*
X165252057Y-102298066D01*
X165252057Y-102298066D02*
X165208514Y-102322256D01*
X165208514Y-102322256D02*
X165186743Y-102346447D01*
X165186743Y-102346447D02*
X165164971Y-102394828D01*
X165164971Y-102394828D02*
X165164971Y-102515780D01*
X165164971Y-102515780D02*
X165186743Y-102564161D01*
X165186743Y-102564161D02*
X165208514Y-102588352D01*
X165208514Y-102588352D02*
X165252057Y-102612542D01*
X165252057Y-102612542D02*
X165339143Y-102612542D01*
X165339143Y-102612542D02*
X165382686Y-102588352D01*
X165382686Y-102588352D02*
X165404457Y-102564161D01*
X165404457Y-102564161D02*
X165426228Y-102515780D01*
X150569066Y-91756199D02*
X150327161Y-91908599D01*
X150569066Y-92017456D02*
X150061066Y-92017456D01*
X150061066Y-92017456D02*
X150061066Y-91843285D01*
X150061066Y-91843285D02*
X150085256Y-91799742D01*
X150085256Y-91799742D02*
X150109447Y-91777971D01*
X150109447Y-91777971D02*
X150157828Y-91756199D01*
X150157828Y-91756199D02*
X150230399Y-91756199D01*
X150230399Y-91756199D02*
X150278780Y-91777971D01*
X150278780Y-91777971D02*
X150302971Y-91799742D01*
X150302971Y-91799742D02*
X150327161Y-91843285D01*
X150327161Y-91843285D02*
X150327161Y-92017456D01*
X150061066Y-91603799D02*
X150061066Y-91298999D01*
X150061066Y-91298999D02*
X150569066Y-91494942D01*
X148663800Y-93360685D02*
X148642028Y-93384876D01*
X148642028Y-93384876D02*
X148576714Y-93409066D01*
X148576714Y-93409066D02*
X148533171Y-93409066D01*
X148533171Y-93409066D02*
X148467857Y-93384876D01*
X148467857Y-93384876D02*
X148424314Y-93336495D01*
X148424314Y-93336495D02*
X148402543Y-93288114D01*
X148402543Y-93288114D02*
X148380771Y-93191352D01*
X148380771Y-93191352D02*
X148380771Y-93118780D01*
X148380771Y-93118780D02*
X148402543Y-93022018D01*
X148402543Y-93022018D02*
X148424314Y-92973637D01*
X148424314Y-92973637D02*
X148467857Y-92925256D01*
X148467857Y-92925256D02*
X148533171Y-92901066D01*
X148533171Y-92901066D02*
X148576714Y-92901066D01*
X148576714Y-92901066D02*
X148642028Y-92925256D01*
X148642028Y-92925256D02*
X148663800Y-92949447D01*
X149099228Y-93409066D02*
X148837971Y-93409066D01*
X148968600Y-93409066D02*
X148968600Y-92901066D01*
X148968600Y-92901066D02*
X148925057Y-92973637D01*
X148925057Y-92973637D02*
X148881514Y-93022018D01*
X148881514Y-93022018D02*
X148837971Y-93046209D01*
X154669066Y-97156199D02*
X154427161Y-97308599D01*
X154669066Y-97417456D02*
X154161066Y-97417456D01*
X154161066Y-97417456D02*
X154161066Y-97243285D01*
X154161066Y-97243285D02*
X154185256Y-97199742D01*
X154185256Y-97199742D02*
X154209447Y-97177971D01*
X154209447Y-97177971D02*
X154257828Y-97156199D01*
X154257828Y-97156199D02*
X154330399Y-97156199D01*
X154330399Y-97156199D02*
X154378780Y-97177971D01*
X154378780Y-97177971D02*
X154402971Y-97199742D01*
X154402971Y-97199742D02*
X154427161Y-97243285D01*
X154427161Y-97243285D02*
X154427161Y-97417456D01*
X154330399Y-96764314D02*
X154669066Y-96764314D01*
X154136876Y-96873171D02*
X154499733Y-96982028D01*
X154499733Y-96982028D02*
X154499733Y-96698999D01*
X142969066Y-91756199D02*
X142727161Y-91908599D01*
X142969066Y-92017456D02*
X142461066Y-92017456D01*
X142461066Y-92017456D02*
X142461066Y-91843285D01*
X142461066Y-91843285D02*
X142485256Y-91799742D01*
X142485256Y-91799742D02*
X142509447Y-91777971D01*
X142509447Y-91777971D02*
X142557828Y-91756199D01*
X142557828Y-91756199D02*
X142630399Y-91756199D01*
X142630399Y-91756199D02*
X142678780Y-91777971D01*
X142678780Y-91777971D02*
X142702971Y-91799742D01*
X142702971Y-91799742D02*
X142727161Y-91843285D01*
X142727161Y-91843285D02*
X142727161Y-92017456D01*
X142461066Y-91364314D02*
X142461066Y-91451399D01*
X142461066Y-91451399D02*
X142485256Y-91494942D01*
X142485256Y-91494942D02*
X142509447Y-91516714D01*
X142509447Y-91516714D02*
X142582018Y-91560256D01*
X142582018Y-91560256D02*
X142678780Y-91582028D01*
X142678780Y-91582028D02*
X142872304Y-91582028D01*
X142872304Y-91582028D02*
X142920685Y-91560256D01*
X142920685Y-91560256D02*
X142944876Y-91538485D01*
X142944876Y-91538485D02*
X142969066Y-91494942D01*
X142969066Y-91494942D02*
X142969066Y-91407856D01*
X142969066Y-91407856D02*
X142944876Y-91364314D01*
X142944876Y-91364314D02*
X142920685Y-91342542D01*
X142920685Y-91342542D02*
X142872304Y-91320771D01*
X142872304Y-91320771D02*
X142751352Y-91320771D01*
X142751352Y-91320771D02*
X142702971Y-91342542D01*
X142702971Y-91342542D02*
X142678780Y-91364314D01*
X142678780Y-91364314D02*
X142654590Y-91407856D01*
X142654590Y-91407856D02*
X142654590Y-91494942D01*
X142654590Y-91494942D02*
X142678780Y-91538485D01*
X142678780Y-91538485D02*
X142702971Y-91560256D01*
X142702971Y-91560256D02*
X142751352Y-91582028D01*
X154163800Y-94309066D02*
X154011400Y-94067161D01*
X153902543Y-94309066D02*
X153902543Y-93801066D01*
X153902543Y-93801066D02*
X154076714Y-93801066D01*
X154076714Y-93801066D02*
X154120257Y-93825256D01*
X154120257Y-93825256D02*
X154142028Y-93849447D01*
X154142028Y-93849447D02*
X154163800Y-93897828D01*
X154163800Y-93897828D02*
X154163800Y-93970399D01*
X154163800Y-93970399D02*
X154142028Y-94018780D01*
X154142028Y-94018780D02*
X154120257Y-94042971D01*
X154120257Y-94042971D02*
X154076714Y-94067161D01*
X154076714Y-94067161D02*
X153902543Y-94067161D01*
X154425057Y-94018780D02*
X154381514Y-93994590D01*
X154381514Y-93994590D02*
X154359743Y-93970399D01*
X154359743Y-93970399D02*
X154337971Y-93922018D01*
X154337971Y-93922018D02*
X154337971Y-93897828D01*
X154337971Y-93897828D02*
X154359743Y-93849447D01*
X154359743Y-93849447D02*
X154381514Y-93825256D01*
X154381514Y-93825256D02*
X154425057Y-93801066D01*
X154425057Y-93801066D02*
X154512143Y-93801066D01*
X154512143Y-93801066D02*
X154555686Y-93825256D01*
X154555686Y-93825256D02*
X154577457Y-93849447D01*
X154577457Y-93849447D02*
X154599228Y-93897828D01*
X154599228Y-93897828D02*
X154599228Y-93922018D01*
X154599228Y-93922018D02*
X154577457Y-93970399D01*
X154577457Y-93970399D02*
X154555686Y-93994590D01*
X154555686Y-93994590D02*
X154512143Y-94018780D01*
X154512143Y-94018780D02*
X154425057Y-94018780D01*
X154425057Y-94018780D02*
X154381514Y-94042971D01*
X154381514Y-94042971D02*
X154359743Y-94067161D01*
X154359743Y-94067161D02*
X154337971Y-94115542D01*
X154337971Y-94115542D02*
X154337971Y-94212304D01*
X154337971Y-94212304D02*
X154359743Y-94260685D01*
X154359743Y-94260685D02*
X154381514Y-94284876D01*
X154381514Y-94284876D02*
X154425057Y-94309066D01*
X154425057Y-94309066D02*
X154512143Y-94309066D01*
X154512143Y-94309066D02*
X154555686Y-94284876D01*
X154555686Y-94284876D02*
X154577457Y-94260685D01*
X154577457Y-94260685D02*
X154599228Y-94212304D01*
X154599228Y-94212304D02*
X154599228Y-94115542D01*
X154599228Y-94115542D02*
X154577457Y-94067161D01*
X154577457Y-94067161D02*
X154555686Y-94042971D01*
X154555686Y-94042971D02*
X154512143Y-94018780D01*
D13*
%TO.C,R5*%
X152142500Y-99242779D02*
X152142500Y-98917221D01*
X153162500Y-99242779D02*
X153162500Y-98917221D01*
D12*
%TO.C,U2*%
X155976000Y-94226000D02*
X155976000Y-94626000D01*
X155976000Y-94226000D02*
X156376000Y-94226000D01*
X155976000Y-97426000D02*
X155976000Y-97026000D01*
X159176000Y-94226000D02*
X158776000Y-94226000D01*
X159176000Y-94226000D02*
X159176000Y-94626000D01*
X159176000Y-97426000D02*
X158776000Y-97426000D01*
X159176000Y-97426000D02*
X159176000Y-97026000D01*
D13*
%TO.C,R9*%
X165641221Y-91460000D02*
X165966779Y-91460000D01*
X165641221Y-92480000D02*
X165966779Y-92480000D01*
%TO.C,D1*%
X166990000Y-104180000D02*
X171290000Y-104180000D01*
X171290000Y-102180000D02*
X166990000Y-102180000D01*
X171290000Y-104180000D02*
X171290000Y-102180000D01*
D12*
%TO.C,U6*%
X163324000Y-93092000D02*
X169299000Y-93092000D01*
X164849000Y-99992000D02*
X169299000Y-99992000D01*
D13*
%TO.C,J1*%
X173392000Y-91770000D02*
X173392000Y-93570000D01*
X173392000Y-102190000D02*
X172402000Y-102190000D01*
X173392000Y-103990000D02*
X173392000Y-102190000D01*
X174842000Y-91770000D02*
X173392000Y-91770000D01*
X174842000Y-103990000D02*
X173392000Y-103990000D01*
X177662000Y-102720000D02*
X177662000Y-93040000D01*
%TO.C,R1*%
X162844279Y-91506000D02*
X162518721Y-91506000D01*
X162844279Y-92526000D02*
X162518721Y-92526000D01*
%TO.C,U5*%
X150010000Y-102056000D02*
X150010000Y-103856000D01*
X153230000Y-103856000D02*
X153230000Y-101406000D01*
D12*
%TO.C,U1*%
X142790000Y-95130000D02*
X144740000Y-95130000D01*
X142790000Y-96580000D02*
X142790000Y-95130000D01*
X142790000Y-100630000D02*
X142790000Y-99180000D01*
X144740000Y-100630000D02*
X142790000Y-100630000D01*
X151290000Y-95130000D02*
X149340000Y-95130000D01*
X151290000Y-96580000D02*
X151290000Y-95130000D01*
X151290000Y-100630000D02*
X149340000Y-100630000D01*
X151290000Y-100630000D02*
X151290000Y-99180000D01*
X150977000Y-100191400D02*
G75*
G02*
X150469000Y-100191400I-254000J0D01*
G01*
X150469000Y-100191400D02*
G75*
G02*
X150977000Y-100191400I254000J0D01*
G01*
D13*
%TO.C,C10*%
X169197221Y-91460000D02*
X169522779Y-91460000D01*
X169197221Y-92480000D02*
X169522779Y-92480000D01*
D12*
%TO.C,C11*%
X167516000Y-100418000D02*
X168532000Y-100418000D01*
X167516000Y-101942000D02*
X167516000Y-100418000D01*
X168532000Y-101942000D02*
X167516000Y-101942000D01*
X169548000Y-100418000D02*
X170564000Y-100418000D01*
X170564000Y-100418000D02*
X170564000Y-101942000D01*
X170564000Y-101942000D02*
X169548000Y-101942000D01*
X170818000Y-100418000D02*
G75*
G02*
X170564000Y-100418000I-127000J0D01*
G01*
X170564000Y-100418000D02*
G75*
G02*
X170818000Y-100418000I127000J0D01*
G01*
D13*
%TO.C,C2*%
X160622000Y-97441221D02*
X160622000Y-97766779D01*
X161642000Y-97441221D02*
X161642000Y-97766779D01*
%TO.C,C5*%
X161677221Y-101870000D02*
X162002779Y-101870000D01*
X161677221Y-102890000D02*
X162002779Y-102890000D01*
%TO.C,C4*%
X161130000Y-94464779D02*
X161130000Y-94139221D01*
X162150000Y-94464779D02*
X162150000Y-94139221D01*
%TO.C,C9*%
X165102779Y-100670000D02*
X164777221Y-100670000D01*
X165102779Y-101690000D02*
X164777221Y-101690000D01*
%TO.C,R7*%
X148177221Y-91170000D02*
X148502779Y-91170000D01*
X148177221Y-92190000D02*
X148502779Y-92190000D01*
%TO.C,C6*%
X154759221Y-101260000D02*
X155084779Y-101260000D01*
X154759221Y-102280000D02*
X155084779Y-102280000D01*
%TO.C,C8*%
X154759221Y-103546000D02*
X155084779Y-103546000D01*
X154759221Y-104566000D02*
X155084779Y-104566000D01*
%TO.C,C7*%
X161677221Y-103570000D02*
X162002779Y-103570000D01*
X161677221Y-104590000D02*
X162002779Y-104590000D01*
%TO.C,C1*%
X146477221Y-92670000D02*
X146802779Y-92670000D01*
X146477221Y-93690000D02*
X146802779Y-93690000D01*
%TO.C,C3*%
X155790279Y-92070000D02*
X155464721Y-92070000D01*
X155790279Y-93090000D02*
X155464721Y-93090000D01*
%TO.C,R2*%
X159516779Y-91506000D02*
X159191221Y-91506000D01*
X159516779Y-92526000D02*
X159191221Y-92526000D01*
%TO.C,R4*%
X153942500Y-99242779D02*
X153942500Y-98917221D01*
X154962500Y-99242779D02*
X154962500Y-98917221D01*
%TO.C,R6*%
X144790279Y-91170000D02*
X144464721Y-91170000D01*
X144790279Y-92190000D02*
X144464721Y-92190000D01*
%TO.C,R8*%
X152079221Y-93538000D02*
X152404779Y-93538000D01*
X152079221Y-94558000D02*
X152404779Y-94558000D01*
%TO.C,U4*%
X156730000Y-101980000D02*
X156730000Y-103780000D01*
X159950000Y-103780000D02*
X159950000Y-101330000D01*
%TD*%
M02*
