M48
; DRILL file {KiCad 7.0.11+1} date Mon Jun 17 11:26:23 2024
; FORMAT={3:3/ absolute / metric / suppress leading zeros}
; #@! TF.CreationDate,2024-06-17T11:26:23+00:00
; #@! TF.GenerationSoftware,Kicad,Pcbnew,7.0.11+1
; #@! TF.FileFunction,Plated,1,2,PTH
FMAT,2
METRIC,TZ
; #@! TA.AperFunction,Plated,PTH,ViaDrill
T1C0.400
%
G90
G05
T1
X143340Y-94180
X143640Y-102980
X144240Y-92880
X144940Y-102980
X146440Y-102980
X146540Y-91680
X147840Y-102980
X148240Y-92758
X149340Y-92880
X151440Y-91555
X151740Y-104080
X152040Y-95480
X152940Y-96680
X153540Y-99980
X154141Y-102881
X154397Y-95737
X154540Y-94580
X155515Y-94080
X157340Y-98680
X157340Y-102850
X157540Y-92780
X158240Y-100897
X158340Y-103980
X159440Y-98580
X160040Y-102880
X160440Y-94926
X160940Y-92270
X162240Y-96780
X163040Y-101280
X164280Y-91930
X164340Y-104180
X165470Y-98480
X165640Y-99880
X165740Y-104180
X165866Y-92930
X166127Y-95793
X166540Y-96705
X166870Y-98730
X167240Y-104180
X167440Y-96980
X167739Y-94582
X168140Y-99780
X168540Y-95480
X168573Y-93772
X168640Y-96780
X168640Y-98180
X169140Y-103180
X171440Y-99080
X171440Y-100380
X171546Y-92270
X173070Y-92270
X174340Y-92270
X174828Y-99148
X174848Y-100652
X175356Y-93540
X176626Y-93540
X177388Y-99128
X177388Y-100398
X177642Y-93540
M30
